<svg width="17" height="14" version="1.1" viewBox="0 0 17 14" xmlns="http://www.w3.org/2000/svg">
 <g transform="translate(0)">
  <path d="m0 0.5v-0.5h5v0.5q0 0.5-0.5 0.5t-0.5 0.5-0.5 0.5-1 0-0.5 0.5-0.5 0.5-0.5 0.5 0 1-0.5 0.5h-0.5v-4.5" fill-opacity="0"/>
  <path d="m5 0.5v-0.5h7v0.5q0 0.5 0.5 0.5t0.5 0.5 0.5 0.5 1 0 0.5 0.5 0.5 0.5 0.5 0.5 0 1 0.5 0.5h0.5v4l-0.375 0.125q-0.375 0.125-0.5 0.5t-0.125 0.875-0.5 0.5-0.5 0.5-0.5 0.5-0.875 0.125-0.5 0.5-0.625 0.375-0.5 0.5v0.5h-7v-0.5q0-0.5-0.5-0.5t-0.625-0.375-0.5-0.5-0.875-0.125-0.5-0.5-0.5-0.5-0.5-0.5-0.125-0.875-0.5-0.5l-0.375-0.125v-4h0.5q0.5 0 0.5-0.5t0-1 0.5-0.5 0.5-0.5 0.5-0.5 1 0 0.5-0.5 0.5-0.5 0.5-0.5m4.5 12.5q0.5 0 0.875-0.125t0.625-0.375 0.625-0.375 0.75-0.25 0.625-0.375 0.5-0.5 0.5-0.5 0.5-0.5 0.5-0.5 0.5-0.5 0.375-0.625 0-0.75-0.5-0.5-0.875-0.125-0.875 0.125-0.625 0.375-0.625 0.375-0.875 0.125-0.875-0.125-0.625-0.375-0.625-0.375-0.875-0.125-0.875 0.125-0.625 0.375-0.625 0.375-0.875 0.125-0.875-0.125-0.625-0.375-0.625-0.375-0.875-0.125-0.875 0.125-0.5 0.5 0 0.75 0.375 0.625 0.5 0.5 0.5 0.5 0.5 0.5 0.5 0.5 0.5 0.5 0.625 0.375 0.75 0.25 0.625 0.375 0.625 0.375 0.875 0.125 1 0 1 0m2-6q0.5 0 0.875-0.125t0.5-0.5 0.125-0.875-0.125-0.875-0.5-0.5-0.875-0.125-0.875 0.125-0.5 0.5-0.125 0.875 0.125 0.875 0.5 0.5 0.875 0.125m-6 0q0.5 0 0.875-0.125t0.5-0.5 0.125-0.875-0.125-0.875-0.5-0.5-0.875-0.125-0.875 0.125-0.5 0.5-0.125 0.875 0.125 0.875 0.5 0.5 0.875 0.125"/>
  <path d="m12 0.5v-0.5h5v5h-0.5q-0.5 0-0.5-0.5t0-1-0.5-0.5-0.5-0.5-0.5-0.5-1 0-0.5-0.5-0.5-0.5-0.5-0.5" fill-opacity="0"/>
  <g>
   <path d="m4.125 4.625q0.125-0.375 0.5-0.5t0.875-0.125 0.875 0.125 0.5 0.5 0.125 0.875-0.125 0.875-0.5 0.5-0.875 0.125-0.875-0.125-0.5-0.5-0.125-0.875 0.125-0.875" fill="#fff"/>
   <path d="m10.125 4.625q0.125-0.375 0.5-0.5t0.875-0.125 0.875 0.125 0.5 0.5 0.125 0.875-0.125 0.875-0.5 0.5-0.875 0.125-0.875-0.125-0.5-0.5-0.125-0.875 0.125-0.875" fill="#fff"/>
   <path d="m1.125 7.625q0.125-0.375 0.5-0.5t0.875-0.125 0.875 0.125 0.625 0.375 0.625 0.375 0.875 0.125 0.875-0.125 0.625-0.375 0.625-0.375 0.875-0.125 0.875 0.125 0.625 0.375 0.625 0.375 0.875 0.125 0.875-0.125 0.625-0.375 0.625-0.375 0.875-0.125 0.875 0.125 0.5 0.5 0 0.75-0.375 0.625-0.5 0.5-0.5 0.5-0.5 0.5-0.5 0.5-0.5 0.5-0.625 0.375-0.75 0.25-0.625 0.375-0.625 0.375-0.875 0.125-1 0-1 0-0.875-0.125-0.625-0.375-0.625-0.375-0.75-0.25-0.625-0.375-0.5-0.5-0.5-0.5-0.5-0.5-0.5-0.5-0.5-0.5-0.375-0.625 0-0.75" fill="#f9dd16"/>
  </g>
  <path d="m0 9.5v-0.5l0.375 0.125q0.375 0.125 0.5 0.5t0.125 0.875 0.5 0.5 0.5 0.5 0.5 0.5 0.875 0.125 0.5 0.5 0.625 0.375 0.5 0.5v0.5h-5v-4.5" fill-opacity="0"/>
  <path d="m16.125 9.625q0.125-0.375 0.5-0.5l0.375-0.125v5h-5v-0.5q0-0.5 0.5-0.5t0.625-0.375 0.5-0.5 0.875-0.125 0.5-0.5 0.5-0.5 0.5-0.5 0.125-0.875" fill-opacity="0"/>
 </g>
</svg>
