<svg width="17" height="14" version="1.1" viewBox="0 0 17 14" xmlns="http://www.w3.org/2000/svg">
 <g transform="translate(0)">
  <path d="m0 0.5v-0.5h5l-0.125 0.375q-0.125 0.375-0.5 0.5t-0.5 0.5-0.5 0.5-0.875 0.125-0.625 0.375-0.5 0.5-0.375 0.625-0.125 0.875-0.5 0.5l-0.375 0.125v-4.5" fill-opacity="0"/>
  <path d="m4.875 0.375 0.125-0.375h7l0.125 0.375q0.125 0.375 0.5 0.5t0.5 0.5 0.5 0.5 0.875 0.125 0.625 0.375 0.5 0.5 0.375 0.625 0.125 0.875 0.5 0.5l0.375 0.125v4l-0.375 0.125q-0.375 0.125-0.5 0.5t-0.125 0.875-0.5 0.5-0.5 0.5-0.5 0.5-0.875 0.125-0.5 0.5-0.625 0.375-0.5 0.5v0.5h-7v-0.5q0-0.5-0.5-0.5t-0.625-0.375-0.5-0.5-0.875-0.125-0.5-0.5-0.5-0.5-0.5-0.5-0.125-0.875-0.5-0.5l-0.375-0.125v-4l0.375-0.125q0.375-0.125 0.5-0.5t0.125-0.875 0.375-0.625 0.5-0.5 0.625-0.375 0.875-0.125 0.5-0.5 0.5-0.5 0.5-0.5m4.625 12.625q0.5 0 0.875-0.125t0.51562-0.48438l0.14062-0.35938-0.21875 0.03125 0.21875-0.03125q0.21875-0.03125 0.46875-0.03125h0.25-0.75 0.5q0.5 0 0.875-0.125t0.5-0.5l0.125-0.375 0.375-0.125q0.375-0.125 0.5-0.5l0.125-0.375 0.375-0.125q0.375-0.125 0.5-0.53125l0.125-0.40625h-0.1875 0.1875q0.1875 0 0.375-0.0625l0.1875-0.0625-0.5625 0.1875 0.375-0.125q0.375-0.125 0.5-0.5t0.125-0.875 0-1-0.125-0.875-0.375-0.625-0.375-0.625-0.25-0.75-0.5-0.5-0.75-0.25-0.625-0.375-0.625-0.375l-0.375-0.125-0.125-0.375q-0.125-0.375-0.5-0.5t-0.875-0.125-1 0-1 0-1 0-1 0-0.875 0.125-0.625 0.375-0.5 0.5-0.25 0.5 0.375 0.375 0.875 0.125 0.875 0.125 0.625 0.375 0.5 0.5 0.375 0.625 0.125 0.875 0 1v0.5-0.75 0.25q0 0.25 0.03125 0.46875l0.03125 0.21875-0.03125-0.21875-0.39062 0.14062q-0.39062 0.14062-0.53125 0.53125l-0.14062 0.39062 0.21875 0.03125-0.21875-0.03125q-0.21875-0.03125-0.46875-0.03125h-0.25 0.75-0.5q-0.5 0-1 0t-0.875-0.125-0.625-0.375-0.5-0.5-0.375-0.625-0.125-0.875-0.015625-1.0156l-0.015625-0.51562-0.21875 0.03125 0.21875-0.03125q0.21875-0.03125 0.40625-0.09375l0.1875-0.0625-0.5625 0.1875 0.375-0.125q0.375-0.125 0.375-0.375t-0.375-0.375-0.75 0-0.5 0.5-0.10938 0.89062l0.015625 0.51562 0.21875-0.03125-0.21875 0.03125q-0.21875 0.03125-0.40625 0.09375l-0.1875 0.0625 0.5625-0.1875-0.375 0.125q-0.375 0.125-0.5 0.5t-0.125 0.875 0 1 0.125 0.875 0.375 0.625 0.5 0.5 0.5 0.5 0.5 0.5 0.5 0.5 0.5 0.5 0.625 0.375 0.75 0.25 0.625 0.375 0.625 0.375 0.875 0.125 1 0 1 0m3.5312-2.0938-0.21875 0.65625 0.0625-0.1875q0.0625-0.1875 0.125-0.375l0.0625-0.1875-0.03125 0.09375m1.25-1-0.46875 0.15625 0.1875-0.0625q0.1875-0.0625 0.375-0.125l0.1875-0.0625-0.28125 0.09375m-2.375-7.9375 0.65625 0.21875-0.1875-0.0625q-0.1875-0.0625-0.375-0.125l-0.1875-0.0625 0.09375 0.03125m-6.4062 5.0312q0.5 0 0.875-0.125t0.5-0.5 0.125-0.875-0.125-0.875-0.5-0.5-0.875-0.125-0.875 0.125-0.5 0.5-0.125 0.875 0.125 0.875 0.5 0.5 0.875 0.125"/>
  <path d="m12.125 0.375-0.125-0.375h5v5l-0.375-0.125q-0.375-0.125-0.5-0.5t-0.125-0.875-0.375-0.625-0.5-0.5-0.625-0.375-0.875-0.125-0.5-0.5-0.5-0.5-0.5-0.5" fill-opacity="0"/>
  <g>
   <path d="m5 1.5q0.25-0.25 0.625-0.375t0.875-0.125h0.5l-0.125 0.375q-0.125 0.375-0.5 0.5t-0.75 0.25-0.48438 0.48438l-0.10938 0.35938 0.21875 0.03125-0.21875-0.03125q-0.21875-0.03125-0.40625-0.09375l-0.1875-0.0625 0.5625 0.1875-0.375-0.125q-0.375-0.125-0.375-0.375t0.25-0.5 0.5-0.5m2.125-0.5h-0.875 0.25q0.25 0 0.5 0h0.25-0.125" fill="#fff"/>
   <path d="m6.875 1.375 0.125-0.375h0.5q0.5 0 1 0h0.5l0.125 0.375q0.125 0.375 0.5 0.5t0.75 0.25 0.5 0.5l0.125 0.375h-0.5q-0.5 0-0.875-0.125t-0.625-0.375-0.625-0.375-0.75 0-0.375 0.375 0.25 0.5 0.5 0.5 0.625 0.375l0.375 0.125-0.5625-0.1875 0.1875 0.0625q0.1875 0.0625 0.375 0.0625h0.1875-0.1875v1.0625l-1.0312 0.03125 0.03125 0.21875-0.03125-0.21875q-0.03125-0.21875-0.09375-0.40625l-0.0625-0.1875 0.1875 0.5625-0.125-0.375q-0.125-0.375-0.375-0.625t-0.5-0.5-0.625-0.375-0.875-0.125h-0.5 0.75-0.25q-0.25 0-0.46875-0.03125l-0.21875-0.03125 0.21875 0.03125 0.10938-0.35938q0.10938-0.35938 0.48438-0.48438t0.75-0.25 0.5-0.5m2.125 3.75v-0.875 0.25q0 0.25 0 0.5v0.25-0.125m1.625-2.125h0.625-0.25q-0.25 0-0.5 0h-0.25 0.375m-1.5-2h-0.875 0.25q0.25 0 0.5 0h0.25-0.125m-1.75 0h-0.625 0.25q0.25 0 0.5 0h0.25-0.375" fill="#0098d4"/>
   <path d="m9.125 1.375-0.125-0.375h0.5q0.5 0 1 0h0.5-0.75 0.25q0.25 0 0.46875 0.03125l0.21875 0.03125-0.21875-0.03125 0.14062 0.35938q0.14062 0.35938 0.51562 0.48438t0.75 0.25 0.625 0.375 0.625 0.375l0.375 0.125 0.125 0.375q0.125 0.375 0.5 0.5l0.375 0.125 0.125 0.375q0.125 0.375 0.375 0.625t0.375 0.625l0.125 0.375-0.1875-0.5625 0.0625 0.1875q0.0625 0.1875 0.09375 0.40625l0.03125 0.21875-0.03125-0.21875-0.35938 0.10938q-0.35938 0.10938-0.35938 0.35938t0.375 0.375l0.375 0.125v1-0.75 0.25q0 0.25-0.03125 0.46875l-0.03125 0.21875 0.03125-0.21875-0.48438 0.015625q-0.48438 0.015625-0.85938 0.14062t-0.375 0.375 0.375 0.375l0.375 0.125-0.5625-0.1875 0.1875 0.0625q0.1875 0.0625 0.375 0.0625h0.1875-0.1875l-0.125 0.40625q-0.125 0.40625-0.5 0.53125t-0.75 0.25-0.5 0.5-0.25 0.75-0.5 0.5l-0.375 0.125 0.5625-0.1875-0.1875 0.0625q-0.1875 0.0625-0.40625 0.09375l-0.21875 0.03125 0.21875-0.03125-0.10938-0.35938q-0.10938-0.35938-0.35938-0.60938t-0.375-0.625l-0.125-0.375h0.5q0.5 0 0.875-0.125t0.375-0.375-0.25-0.5-0.375-0.625l-0.125-0.375h0.5q0.5 0 0.875-0.125t0.5-0.5 0.125-0.875v-0.5l0.375-0.125q0.375-0.125 0.375-0.375t-0.39062-0.35938l-0.39062-0.10938 0.03125 0.21875-0.03125-0.21875q-0.03125-0.21875-0.09375-0.40625l-0.0625-0.1875 0.1875 0.5625-0.125-0.375q-0.125-0.375-0.375-0.625t-0.5-0.5-0.625-0.375-0.875-0.125h-0.5l-0.125-0.375q-0.125-0.375-0.5-0.5t-0.75-0.25-0.5-0.5m1.75 1.625h0.875-0.25q-0.25 0-0.5 0h-0.25 0.125m3.125 2.875v0.875-0.25q0-0.25 0-0.5v-0.25 0.125m-1.625 2.125h-0.625 0.25q0.25 0 0.5 0h0.25-0.375m3.625-0.625v-0.625 0.25q0 0.25 0 0.5v0.25-0.375m-0.90625-3.0938-0.15625-0.46875 0.0625 0.1875q0.0625 0.1875 0.125 0.375l0.0625 0.1875-0.09375-0.28125m-1-1.25-0.65625-0.21875 0.1875 0.0625q0.1875 0.0625 0.375 0.125l0.1875 0.0625-0.09375-0.03125m-4.7188-2.0312h-0.625 0.25q0.25 0 0.5 0h0.25-0.375" fill="#fff"/>
   <path d="m11.109 1.3906-0.14062-0.35938-0.21875-0.03125 0.21875 0.03125q0.21875 0.03125 0.40625 0.09375l0.1875 0.0625-0.5625-0.1875 0.375 0.125q0.375 0.125 0.5 0.5l0.125 0.375-0.375-0.125q-0.375-0.125-0.51562-0.48438m0.60938 0.51562 0.46875 0.15625-0.1875-0.0625q-0.1875-0.0625-0.375-0.125l-0.1875-0.0625 0.28125 0.09375" fill="#0098d4"/>
   <path d="m7.25 2.5q0-0.25 0.375-0.375t0.75 0 0.625 0.375 0.625 0.375l0.375 0.125-0.5625-0.1875 0.1875 0.0625q0.1875 0.0625 0.40625 0.09375l0.21875 0.03125-0.21875-0.03125-0.14062 0.39062q-0.14062 0.39062-0.51562 0.51562t-0.75 0-0.625-0.375-0.5-0.5-0.25-0.5" fill="#fff"/>
   <path d="m2.125 3.625q0.125-0.375 0.5-0.5t0.75 0 0.375 0.375-0.375 0.375-0.85938 0.14062l-0.48438 0.015625-0.03125 0.21875 0.03125-0.21875q0.03125-0.21875 0.09375-0.40625l0.0625-0.1875-0.1875 0.5625 0.125-0.375" fill="#0098d4"/>
   <path d="m9.8906 3.3594 0.14062-0.39062-0.21875-0.03125 0.21875 0.03125q0.21875 0.03125 0.46875 0.03125h0.25-0.75 0.5q0.5 0 1 0t0.875 0.125 0.625 0.375 0.5 0.5 0.375 0.625 0.125 0.875 0 1v0.5-0.75 0.25q0 0.25-0.03125 0.46875l-0.03125 0.21875 0.03125-0.21875-0.35938 0.14062q-0.35938 0.14062-0.5 0.5l-0.14062 0.35938 0.21875-0.03125-0.21875 0.03125q-0.21875 0.03125-0.46875 0.03125h-0.25 0.75-0.5q-0.5 0-1 0t-0.875-0.125-0.625-0.375-0.5-0.5-0.375-0.625-0.125-0.875 0-1.0312v-0.53125h-0.1875 0.1875q0.1875 0 0.375-0.0625l0.1875-0.0625-0.5625 0.1875 0.375-0.125q0.375-0.125 0.51562-0.51562m1.6094 3.6406q0.5 0 0.875-0.125t0.5-0.5 0.125-0.875-0.125-0.875-0.5-0.5-0.875-0.125-0.875 0.125-0.5 0.5-0.125 0.875 0.125 0.875 0.5 0.5 0.875 0.125"/>
   <path d="m14.125 3.375-0.125-0.375 0.375 0.125q0.375 0.125 0.5 0.5l0.125 0.375-0.375-0.125q-0.375-0.125-0.5-0.5m0.90625 0.71875-0.21875-0.65625 0.0625 0.1875q0.0625 0.1875 0.125 0.375l0.0625 0.1875-0.03125-0.09375m-0.75-1-0.46875-0.15625 0.1875 0.0625q0.1875 0.0625 0.375 0.125l0.1875 0.0625-0.28125-0.09375" fill="#0098d4"/>
  </g>
  <g fill="#fff">
   <path d="m2.0156 4.5156-0.015625-0.51562v0.75-0.25q0-0.25 0.03125-0.46875l0.03125-0.21875-0.03125 0.21875 0.96875-0.03125h-0.75 0.25q0.25 0 0.46875-0.03125l0.21875-0.03125-0.21875 0.03125 0.03125 1.0312h-1 0.75-0.25q-0.25 0-0.46875 0.03125l-0.21875 0.03125 0.21875-0.03125-0.015625-0.51562m0.98438 0.60938v-0.875 0.25q0 0.25 0 0.5v0.25-0.125"/>
   <path d="m4.125 4.625q0.125-0.375 0.5-0.5t0.875-0.125 0.875 0.125 0.5 0.5 0.125 0.875-0.125 0.875-0.5 0.5-0.875 0.125-0.875-0.125-0.5-0.5-0.125-0.875 0.125-0.875"/>
   <path d="m10.125 4.625q0.125-0.375 0.5-0.5t0.875-0.125 0.875 0.125 0.5 0.5 0.125 0.875-0.125 0.875-0.5 0.5-0.875 0.125-0.875-0.125-0.5-0.5-0.125-0.875 0.125-0.875"/>
  </g>
  <g>
   <path d="m1.125 5.625q0.125-0.375 0.5-0.5t0.875-0.125h0.5v1-0.75 0.25q0 0.25 0.03125 0.46875l0.03125 0.21875-0.03125-0.21875-0.51562 0.015625q-0.51562 0.015625-1 0.03125l-0.48438 0.015625-0.03125 0.21875 0.03125-0.21875q0.03125-0.21875 0.09375-0.40625l0.0625-0.1875-0.1875 0.5625 0.125-0.375m1.875-0.25v-0.625 0.25q0 0.25 0 0.5v0.25-0.375" fill="#0098d4"/>
   <path d="m8 5.5v-0.5 0.75-0.25q0-0.25-0.03125-0.46875l-0.03125-0.21875 0.03125 0.21875 1.0312-0.03125v1-0.75 0.25q0 0.25 0.03125 0.46875l0.03125 0.21875-0.03125-0.21875-1.0312 0.03125v-0.5m0 0.125v0.625-0.25q0-0.25 0-0.5v-0.25 0.375m1-0.25v-0.625 0.25q0 0.25 0 0.5v0.25-0.375" fill="#fff"/>
   <path d="m14 5.5v-0.5 0.75-0.25q0-0.25-0.03125-0.46875l-0.03125-0.21875 0.03126 0.21875 0.39062 0.10938q0.39062 0.10938 0.39062 0.35938t-0.375 0.375l-0.375 0.125v-0.5m0 0.125v0.625-0.25q0-0.25 0-0.5v-0.25 0.375" fill="#0098d4"/>
   <path d="m1 6.5v-0.5 0.75-0.25q0-0.25 0.03125-0.46875l0.03125-0.21875-0.03125 0.21875 0.48438-0.015625q0.48438-0.015625 1-0.03125l0.51562-0.015625-0.03125-0.21875 0.03125 0.21875q0.03125 0.21875 0.09375 0.40625l0.0625 0.1875-0.1875-0.5625 0.125 0.375q0.125 0.375 0.375 0.625t0.5 0.5 0.625 0.375 0.875 0.125h0.5l0.125 0.375q0.125 0.375 0.375 0.625t0.375 0.625l0.125 0.375h-0.5q-0.5 0-0.875-0.125t-0.625-0.375-0.5-0.5-0.5-0.5-0.625-0.375-0.75 0-0.375 0.375 0.25 0.5 0.5 0.5 0.625 0.375 0.75 0.25 0.625 0.375 0.5 0.5 0.5 0.5 0.625 0.375 0.875 0.125h0.5v1h-0.5q-0.5 0-0.875-0.125t-0.625-0.375-0.625-0.375-0.75-0.25-0.625-0.375-0.5-0.5-0.5-0.5-0.5-0.5-0.5-0.5-0.5-0.5-0.375-0.625l-0.125-0.375 0.1875 0.5625-0.0625-0.1875q-0.0625-0.1875-0.09375-0.40625l-0.03125-0.21875 0.03125 0.21875 0.35938-0.10938q0.35938-0.10938 0.35938-0.35938t-0.375-0.375l-0.375-0.125v-0.5m0 0.125v0.625-0.25q0-0.25 0-0.5v-0.25 0.375m6.625 6.375h0.625-0.25q-0.25 0-0.5 0h-0.25 0.375m-1.5-5h-0.875 0.25q0.25 0 0.5 0h0.25-0.125" fill="#fff"/>
  </g>
  <g fill="#0098d4">
   <path d="m8 6.5v-0.5l1.0312-0.03125-0.03125-0.21875 0.03125 0.21875q0.03125 0.21875 0.09375 0.40625l0.0625 0.1875-0.1875-0.5625 0.125 0.375q0.125 0.375 0.375 0.625t0.5 0.5 0.625 0.375 0.875 0.125h0.5l0.125 0.375q0.125 0.375 0.375 0.625t0.25 0.5-0.375 0.375-0.875 0.125h-0.5l-0.125-0.375q-0.125-0.375-0.375-0.625t-0.5-0.5-0.625-0.375-0.75-0.25-0.5-0.5-0.125-0.875m4.125 1.5h-0.875 0.25q0.25 0 0.5 0h0.25-0.125m-4.125-2.125v0.875-0.25q0-0.25 0-0.5v-0.25 0.125"/>
   <path d="m15.25 6.5q0-0.25 0.35938-0.35938l0.35938-0.10938-0.03125-0.21875 0.03125 0.21875q0.03125 0.21875 0.03125 0.46875v0.25-0.75 1l-0.375-0.125q-0.375-0.125-0.375-0.375m0.75 0.625v-0.875 0.25q0 0.25 0 0.5v0.25-0.125"/>
   <path d="m1 7.5v-0.5l0.375 0.125q0.375 0.125 0.375 0.375t-0.35938 0.35938l-0.35938 0.10938 0.03125 0.21875-0.03125-0.21875q-0.03125-0.21875-0.03125-0.46875v-0.25 0.75-0.5m0-0.625v0.875-0.25q0-0.25 0-0.5v-0.25 0.125"/>
  </g>
  <path d="m7.1094 7.6406q0.14062-0.39062 0.53125-0.53125l0.39062-0.14062-0.03125-0.21875 0.03125 0.21875q0.03125 0.21875 0.09375 0.40625l0.0625 0.1875-0.1875-0.5625 0.125 0.375q0.125 0.375 0.5 0.5t0.75 0.25 0.625 0.375 0.5 0.5 0.375 0.625l0.125 0.375h-0.5q-0.5 0-1 0h-0.5l-0.125-0.375q-0.125-0.375-0.375-0.625t-0.5-0.5-0.625-0.375l-0.375-0.125 0.5625 0.1875-0.1875-0.0625q-0.1875-0.0625-0.40625-0.09375l-0.21875-0.03125 0.21875 0.03125 0.14062-0.39062" fill="#fff"/>
  <g fill="#0098d4">
   <path d="m13.109 7.6094q0.14062-0.35938 0.5-0.5l0.35938-0.14062 0.03125-0.21875-0.03125 0.21875q-0.03125 0.21875-0.09375 0.40625l-0.0625 0.1875 0.1875-0.5625-0.125 0.375q-0.125 0.375-0.5 0.5l-0.375 0.125 0.5625-0.1875-0.1875 0.0625q-0.1875 0.0625-0.40625 0.09375l-0.21875 0.03125 0.21875-0.03125 0.14062-0.35938"/>
   <path d="m2.25 8.5q0-0.25 0.375-0.375t0.75 0 0.625 0.375 0.5 0.5 0.5 0.5 0.625 0.375 0.875 0.125h0.5l0.125 0.375q0.125 0.375 0.375 0.625t0.375 0.625l0.125 0.375h-0.5q-0.5 0-0.875-0.125t-0.625-0.375-0.5-0.5-0.5-0.5-0.625-0.375-0.75-0.25-0.625-0.375-0.5-0.5-0.25-0.5"/>
   <path d="m6.125 8.375-0.125-0.375h0.5q0.5 0 0.875 0.125t0.625 0.375 0.5 0.5 0.375 0.625l0.125 0.375h-0.5q-0.5 0-1 0h-0.5l-0.125-0.375q-0.125-0.375-0.375-0.625t-0.375-0.625m0.25-0.375h-0.625 0.25q0.25 0 0.5 0h0.25-0.375"/>
   <path d="m14.25 8.5q0-0.25 0.375-0.375t0.85938-0.14062l0.48438-0.015625 0.03125-0.21875-0.03125 0.21875q-0.03125 0.21875-0.09375 0.40625l-0.0625 0.1875 0.1875-0.5625-0.125 0.375q-0.125 0.375-0.5 0.5t-0.75 0-0.375-0.375"/>
  </g>
  <path d="m0 9.5v-0.5l0.375 0.125q0.375 0.125 0.5 0.5t0.125 0.875 0.5 0.5 0.5 0.5 0.5 0.5 0.875 0.125 0.5 0.5 0.625 0.375 0.5 0.5v0.5h-5v-4.5" fill-opacity="0"/>
  <path d="m16.125 9.625q0.125-0.375 0.5-0.5l0.375-0.125v5h-5v-0.5q0-0.5 0.5-0.5t0.625-0.375 0.5-0.5 0.875-0.125 0.5-0.5 0.5-0.5 0.5-0.5 0.125-0.875" fill-opacity="0"/>
  <g>
   <path d="m7.125 10.375-0.125-0.375h0.5q0.5 0 1 0h0.5l0.125 0.375q0.125 0.375 0.375 0.625t0.25 0.5-0.375 0.375-0.875 0.125h-0.5l-0.125-0.375q-0.125-0.375-0.375-0.625t-0.375-0.625" fill="#fff"/>
   <path d="m9.125 10.375-0.125-0.375h0.5q0.5 0 1 0h0.5l0.125 0.375q0.125 0.375 0.375 0.625t0.35938 0.60938l0.10938 0.35938 0.21875-0.03126-0.21875 0.03125q-0.21875 0.03126-0.46875 0.03126h-0.25 0.75-0.5q-0.5 0-0.875 0.125t-0.51562 0.48438l-0.14062 0.35938 0.21875-0.03125-0.21875 0.03125q-0.21875 0.03125-0.46875 0.03125h-0.25 0.75-0.5q-0.5 0-1 0h-0.5v-1h0.5q0.5 0 0.875-0.125t0.375-0.375-0.25-0.5-0.375-0.625m-1.25 2.625h0.875-0.25q-0.25 0-0.5 0h-0.25 0.125" fill="#0098d4"/>
   <path d="m13.125 10.625q0.125-0.375 0.5-0.5l0.375-0.125-0.125 0.375q-0.125 0.375-0.5 0.5l-0.375 0.125 0.125-0.375m-0.03125 0.09375-0.15625 0.46875 0.0625-0.1875q0.0625-0.1875 0.125-0.375l0.0625-0.1875-0.09375 0.28125m1-0.75-0.65625 0.21875 0.1875-0.0625q0.1875-0.0625 0.375-0.125l0.1875-0.0625-0.09375 0.03125" fill="#0098d4"/>
   <path d="m10.109 12.609q0.14062-0.35938 0.51562-0.48438l0.375-0.125-0.5625 0.1875 0.1875-0.0625q0.1875-0.0625 0.40625-0.09375l0.21875-0.03125-0.21875 0.03126-0.14062 0.35938q-0.14062 0.35936-0.51562 0.48436l-0.375 0.125 0.5625-0.1875-0.1875 0.0625q-0.1875 0.0625-0.40625 0.09375l-0.21875 0.03125 0.21875-0.03125 0.14062-0.35938" fill="#fff"/>
  </g>
 </g>
</svg>
