<?xml version="1.0" encoding="UTF-8" standalone="no"?>
<svg
   xmlns:dc="http://purl.org/dc/elements/1.1/"
   xmlns:cc="http://creativecommons.org/ns#"
   xmlns:rdf="http://www.w3.org/1999/02/22-rdf-syntax-ns#"
   xmlns:svg="http://www.w3.org/2000/svg"
   xmlns="http://www.w3.org/2000/svg"
   xmlns:sodipodi="http://sodipodi.sourceforge.net/DTD/sodipodi-0.dtd"
   xmlns:inkscape="http://www.inkscape.org/namespaces/inkscape"
   width="17"
   height="14"
   version="1.1"
   viewBox="0 0 17 14"
   id="svg26"
   sodipodi:docname="bavaria.svg"
   inkscape:version="0.92.3 (2405546, 2018-03-11)">
  <metadata
     id="metadata32">
    <rdf:RDF>
      <cc:Work
         rdf:about="">
        <dc:format>image/svg+xml</dc:format>
        <dc:type
           rdf:resource="http://purl.org/dc/dcmitype/StillImage" />
        <dc:title></dc:title>
      </cc:Work>
    </rdf:RDF>
  </metadata>
  <defs
     id="defs30">
    <clipPath
       clipPathUnits="userSpaceOnUse"
       id="clipPath7767">
      <ellipse
         style="fill:none;stroke:#000000;stroke-opacity:1"
         id="ellipse7769"
         cx="42.756348"
         cy="6.5715857"
         rx="2.4322033"
         ry="3.5296609" />
    </clipPath>
    <clipPath
       clipPathUnits="userSpaceOnUse"
       id="clipPath7773">
      <ellipse
         style="fill:none;stroke:#000000;stroke-opacity:1"
         id="ellipse7775"
         cx="41.480923"
         cy="8.380908"
         rx="2.7584746"
         ry="2.7881355" />
    </clipPath>
    <clipPath
       clipPathUnits="userSpaceOnUse"
       id="clipPath7779">
      <ellipse
         style="fill:none;stroke:#000000;stroke-opacity:1"
         id="ellipse7781"
         cx="38.973095"
         cy="10.421826"
         rx="3.5459645"
         ry="2.2302675" />
    </clipPath>
    <clipPath
       clipPathUnits="userSpaceOnUse"
       id="clipPath7785">
      <ellipse
         style="fill:none;stroke:#000000;stroke-opacity:1"
         id="ellipse7787"
         cx="37.506348"
         cy="11.228366"
         rx="3.0550847"
         ry="1.8983051" />
    </clipPath>
    <clipPath
       clipPathUnits="userSpaceOnUse"
       id="clipPath7795">
      <ellipse
         style="fill:none;stroke:#000000;stroke-opacity:1"
         id="ellipse7797"
         cx="33.294483"
         cy="4.0800605"
         rx="2.5211864"
         ry="2.1652544" />
    </clipPath>
    <clipPath
       clipPathUnits="userSpaceOnUse"
       id="clipPath7801">
      <ellipse
         style="fill:none;stroke:#000000;stroke-opacity:1"
         id="ellipse7803"
         cx="35.400417"
         cy="2.7749758"
         rx="2.5508475"
         ry="2.2838984" />
    </clipPath>
    <clipPath
       clipPathUnits="userSpaceOnUse"
       id="clipPath7813">
      <ellipse
         style="fill:none;stroke:#000000;stroke-opacity:1"
         id="ellipse7815"
         cx="32.137703"
         cy="5.6520944"
         rx="3.0254238"
         ry="3.2627118" />
    </clipPath>
    <clipPath
       clipPathUnits="userSpaceOnUse"
       id="clipPath7831">
      <path
         style="fill:none;fill-rule:evenodd;stroke:#000000;stroke-width:1px;stroke-linecap:butt;stroke-linejoin:miter;stroke-opacity:1"
         d="m 30.145052,9.2479623 1.874008,2.4549797 1.898305,1.127118 2.56593,-1.469489 -3.930337,-3.5135615 z"
         id="path7833"
         inkscape:connector-curvature="0" />
    </clipPath>
  </defs>
  <sodipodi:namedview
     pagecolor="#ffffff"
     bordercolor="#666666"
     borderopacity="1"
     objecttolerance="10"
     gridtolerance="10"
     guidetolerance="10"
     inkscape:pageopacity="0"
     inkscape:pageshadow="2"
     inkscape:window-width="1920"
     inkscape:window-height="1014"
     id="namedview28"
     showgrid="false"
     inkscape:zoom="16.857143"
     inkscape:cx="-3.9012072"
     inkscape:cy="5.0116996"
     inkscape:window-x="1680"
     inkscape:window-y="0"
     inkscape:window-maximized="1"
     inkscape:current-layer="svg26" />
  <path
     inkscape:label="path8"
     style="display:inline;fill:#ffffff"
     inkscape:connector-curvature="0"
     id="path7709"
     d="M 5,1.5 Q 5.25,1.25 5.625,1.125 6,1 6.5,1 7,1 7.5,1 8,1 8.5,1 9,1 9.5,1 10,1 10.5,1 11,1 11.375,1.125 11.75,1.25 12,1.5 12.25,1.75 12.5,2 12.75,2.25 12.875,2.625 L 13,3 h 0.5 q 0.5,0 0.875,0.125 0.375,0.125 0.5,0.5 Q 15,4 15.125,4.375 15.25,4.75 15.5,5 15.75,5.25 15.875,5.625 16,6 16,6.5 16,7 16,7.5 16,8 15.875,8.375 15.75,8.75 15.5,9 15.25,9.25 15,9.5 14.75,9.75 14.5,10 14.25,10.25 14,10.5 13.75,10.75 13.5,11 13.25,11.25 13,11.5 12.75,11.75 12.375,11.875 12,12 11.625,12.125 11.25,12.25 11,12.5 10.75,12.75 10.375,12.875 10,13 9.5,13 9,13 8.5,13 8,13 7.5,13 7,13 6.625,12.875 6.25,12.75 6,12.5 5.75,12.25 5.375,12.125 5,12 4.625,11.875 4.25,11.75 4,11.5 3.75,11.25 3.5,11 3.25,10.75 3,10.5 2.75,10.25 2.5,10 2.25,9.75 2,9.5 1.75,9.25 1.5,9 1.25,8.75 1.125,8.375 1,8 1,7.5 1,7 1,6.5 1,6 1.125,5.625 1.25,5.25 1.5,5 1.75,4.75 1.875,4.375 2,4 2.125,3.625 2.25,3.25 2.625,3.125 3,3 3.5,3 H 4 L 4.125,2.625 Q 4.25,2.25 4.5,2 4.75,1.75 5,1.5 M 4.5,3 H 4 L 3.875,3.375 Q 3.75,3.75 3.5,4 3.25,4.25 3.125,4.625 3,5 3,5.5 3,6 3.125,6.375 3.25,6.75 3.5,7 3.75,7.25 4,7.5 4.25,7.75 4.625,7.875 5,8 5.5,8 6,8 6.375,7.875 6.75,7.75 7,7.5 7.25,7.25 7.5,7 7.75,6.75 7.875,6.375 8,6 8,5.5 8,5 7.875,4.625 7.75,4.25 7.5,4 7.25,3.75 7,3.5 6.75,3.25 6.375,3.125 6,3 5.5,3 5,3 4.5,3 M 13.125,3.375 13,3 H 12.5 Q 12,3 11.5,3 11,3 10.625,3.125 10.25,3.25 10,3.5 9.75,3.75 9.5,4 9.25,4.25 9.125,4.625 9,5 9,5.5 9,6 9.125,6.375 9.25,6.75 9.5,7 9.75,7.25 10,7.5 10.25,7.75 10.625,7.875 11,8 11.5,8 12,8 12.375,7.875 12.75,7.75 13,7.5 13.25,7.25 13.5,7 13.75,6.75 13.875,6.375 14,6 14,5.5 14,5 13.875,4.625 13.75,4.25 13.5,4 13.25,3.75 13.125,3.375" />
  <g
     transform="translate(-28.51906,0.22078708)"
     id="g3276"
     inkscape:groupmode="layer"
     style="display:inline"
     inkscape:label="g3276">
    <path
       id="path2-3"
       d="M 23.806632,-3.4288797 H 51.976727 V 17.699189 H 23.806632 Z"
       style="display:none;fill:#ffffff;fill-rule:evenodd;stroke-width:0.01987589"
       inkscape:connector-curvature="0" />
    <path
       id="path12-5"
       d="m 28.032244,2.9095423 1.056424,3.16921 3.16921,1.056402 -1.056362,-3.16921 -3.16921,-1.056343 z"
       style="fill:#0080ff;fill-rule:evenodd;stroke-width:0.01987589"
       inkscape:connector-curvature="0"
       clip-path="url(#clipPath7813)" />
    <path
       id="path16-2"
       d="m 30.145052,9.2479623 1.056423,3.1692087 3.16921,1.056384 -1.056362,-3.16921 -3.169213,-1.0564017 z"
       style="fill:#0080ff;fill-rule:evenodd;stroke-width:0.01987589"
       inkscape:connector-curvature="0"
       clip-path="url(#clipPath7831)" />
    <path
       id="path22-1"
       d="m 32.257859,7.1351543 1.056424,3.1692127 3.16921,1.056402 -1.056362,-3.1692097 -3.169213,-1.056343 z"
       style="fill:#0080ff;fill-rule:evenodd;stroke-width:0.01987589"
       inkscape:connector-curvature="0" />
    <path
       id="path30"
       d="m 38.596081,9.2479623 1.056402,3.1692087 3.169213,1.056406 -1.056406,-3.16921 -3.169209,-1.0563467 z"
       style="fill:#0080ff;fill-rule:evenodd;stroke-width:0.01987589"
       inkscape:connector-curvature="0"
       clip-path="url(#clipPath7779)" />
    <path
       id="path36"
       d="m 36.483474,11.360571 1.056421,3.16921 3.169012,1.056402 -1.056403,-3.16921 -3.169209,-1.056402 z"
       style="fill:#0080ff;fill-rule:evenodd;stroke-width:0.01987589"
       inkscape:connector-curvature="0"
       clip-path="url(#clipPath7785)" />
    <path
       id="path40"
       d="m 34.370667,5.0223503 1.056402,3.169209 3.16921,1.056403 -1.056403,-3.16921 -3.169209,-1.056344 z"
       style="fill:#0080ff;fill-rule:evenodd;stroke-width:0.01987589"
       inkscape:connector-curvature="0" />
    <path
       id="path42"
       d="m 30.145052,0.79673534 1.056324,3.16920896 3.16921,1.056384 -1.056402,-3.16921 -3.169213,-1.05640196 z"
       style="fill:#0080ff;fill-rule:evenodd;stroke-width:0.01987589"
       inkscape:connector-curvature="0"
       clip-path="url(#clipPath7795)" />
    <path
       id="path50"
       d="m 32.257859,-1.3160727 1.056424,3.169213 3.16921,1.056384 -1.056362,-3.16921296 -3.169213,-1.05640204 z"
       style="fill:#0080ff;fill-rule:evenodd;stroke-width:0.01987589"
       inkscape:connector-curvature="0"
       clip-path="url(#clipPath7801)" />
    <path
       id="path54"
       d="m 36.483474,2.9095423 1.056421,3.16921 3.16921,1.056383 -1.056362,-3.169209 -3.16921,-1.056402 z"
       style="fill:#0080ff;fill-rule:evenodd;stroke-width:0.01987589"
       inkscape:connector-curvature="0" />
    <path
       id="path56"
       d="m 38.596081,0.79673534 1.056423,3.16920896 3.16921,1.056384 -1.056365,-3.16921 -3.16921,-1.05640196 z"
       style="fill:#0080ff;fill-rule:evenodd;stroke-width:0.01987589"
       inkscape:connector-curvature="0" />
    <path
       id="path62"
       d="m 40.708888,7.1351543 1.056424,3.1692127 3.169012,1.056383 -1.056406,-3.1692117 -3.169209,-1.056403 z"
       style="fill:#0080ff;fill-rule:evenodd;stroke-width:0.01987589"
       inkscape:connector-curvature="0"
       clip-path="url(#clipPath7773)" />
    <path
       id="path64"
       d="m 42.821894,5.0223503 1.056501,3.169209 3.169012,1.056384 -1.056403,-3.169213 -3.169011,-1.056402 z"
       style="fill:#0080ff;fill-rule:evenodd;stroke-width:0.01987589"
       inkscape:connector-curvature="0"
       clip-path="url(#clipPath7767)" />
  </g>
  <g
     id="g24"
     style="display:inline">
    <path
       d="M 0,0.5 V 0 H 5 L 4.875,0.375 Q 4.75,0.75 4.375,0.875 4,1 3.875,1.375 3.75,1.75 3.375,1.875 3,2 2.5,2 2,2 1.875,2.375 1.75,2.75 1.375,2.875 1,3 1,3.5 1,4 0.875,4.375 0.75,4.75 0.375,4.875 L 0,5 V 0.5"
       id="path2"
       inkscape:label="path2"
       inkscape:connector-curvature="0"
       style="fill-opacity:0" />
    <path
       d="M 4.875,0.375 5,0 h 7 l 0.125,0.375 q 0.125,0.375 0.5,0.5 0.375,0.125 0.5,0.5 0.125,0.375 0.5,0.5 Q 14,2 14.5,2 15,2 15.125,2.375 15.25,2.75 15.625,2.875 16,3 16,3.5 q 0,0.5 0.125,0.875 0.125,0.375 0.5,0.5 L 17,5 V 9 L 16.625,9.125 Q 16.25,9.25 16.125,9.625 16,10 16,10.5 16,11 15.5,11 15,11 15,11.5 15,12 14.5,12 14,12 13.625,12.125 13.25,12.25 13.125,12.625 13,13 12.5,13 12,13 12,13.5 V 14 H 5 V 13.5 Q 5,13 4.5,13 4,13 3.875,12.625 3.75,12.25 3.375,12.125 3,12 2.5,12 2,12 2,11.5 2,11 1.5,11 1,11 1,10.5 1,10 0.875,9.625 0.75,9.25 0.375,9.125 L 0,9 V 5 L 0.375,4.875 Q 0.75,4.75 0.875,4.375 1,4 1,3.5 1,3 1.375,2.875 1.75,2.75 1.875,2.375 2,2 2.5,2 3,2 3.375,1.875 3.75,1.75 3.875,1.375 4,1 4.375,0.875 4.75,0.75 4.875,0.375 M 9.5,13 Q 10,13 10.375,12.875 10.75,12.75 11,12.5 11.25,12.25 11.625,12.125 12,12 12.375,11.875 12.75,11.75 13,11.5 13.25,11.25 13.5,11 13.75,10.75 14,10.5 14.25,10.25 14.5,10 14.75,9.75 15,9.5 15.25,9.25 15.5,9 15.75,8.75 15.875,8.375 16,8 16,7.5 16,7 16,6.5 16,6 15.875,5.625 15.75,5.25 15.5,5 15.25,4.75 15.125,4.375 15,4 14.875,3.625 14.75,3.25 14.375,3.125 14,3 13.5,3 H 13 L 12.875,2.625 Q 12.75,2.25 12.5,2 12.25,1.75 12,1.5 11.75,1.25 11.375,1.125 11,1 10.5,1 10,1 9.5,1 9,1 8.5,1 8,1 7.5,1 7,1 6.5,1 6,1 5.625,1.125 5.25,1.25 5,1.5 4.75,1.75 4.5,2 4.25,2.25 4.125,2.625 L 4,3 H 3.5 Q 3,3 2.625,3.125 2.25,3.25 2.125,3.625 2,4 1.875,4.375 1.75,4.75 1.5,5 1.25,5.25 1.125,5.625 1,6 1,6.5 1,7 1,7.5 1,8 1.125,8.375 1.25,8.75 1.5,9 1.75,9.25 2,9.5 2.25,9.75 2.5,10 2.75,10.25 3,10.5 3.25,10.75 3.5,11 3.75,11.25 4,11.5 4.25,11.75 4.625,11.875 5,12 5.375,12.125 5.75,12.25 6,12.5 6.25,12.75 6.625,12.875 7,13 7.5,13 q 0.5,0 1,0 0.5,0 1,0"
       id="path4"
       inkscape:connector-curvature="0" />
    <path
       d="M 12.125,0.375 12,0 h 5 V 5 L 16.625,4.875 Q 16.25,4.75 16.125,4.375 16,4 16,3.5 16,3 15.625,2.875 15.25,2.75 15.125,2.375 15,2 14.5,2 14,2 13.625,1.875 13.25,1.75 13.125,1.375 13,1 12.625,0.875 12.25,0.75 12.125,0.375"
       id="path6"
       inkscape:connector-curvature="0"
       style="fill-opacity:0" />
    <g
       id="g18"
       style="display:inline">
      <path
         d="M 5,1.5 Q 5.25,1.25 5.625,1.125 6,1 6.5,1 7,1 7.5,1 8,1 8.5,1 9,1 9.5,1 10,1 10.5,1 11,1 11.375,1.125 11.75,1.25 12,1.5 12.25,1.75 12.5,2 12.75,2.25 12.875,2.625 L 13,3 h 0.5 q 0.5,0 0.875,0.125 0.375,0.125 0.5,0.5 Q 15,4 15.125,4.375 15.25,4.75 15.5,5 15.75,5.25 15.875,5.625 16,6 16,6.5 16,7 16,7.5 16,8 15.875,8.375 15.75,8.75 15.5,9 15.25,9.25 15,9.5 14.75,9.75 14.5,10 14.25,10.25 14,10.5 13.75,10.75 13.5,11 13.25,11.25 13,11.5 12.75,11.75 12.375,11.875 12,12 11.625,12.125 11.25,12.25 11,12.5 10.75,12.75 10.375,12.875 10,13 9.5,13 9,13 8.5,13 8,13 7.5,13 7,13 6.625,12.875 6.25,12.75 6,12.5 5.75,12.25 5.375,12.125 5,12 4.625,11.875 4.25,11.75 4,11.5 3.75,11.25 3.5,11 3.25,10.75 3,10.5 2.75,10.25 2.5,10 2.25,9.75 2,9.5 1.75,9.25 1.5,9 1.25,8.75 1.125,8.375 1,8 1,7.5 1,7 1,6.5 1,6 1.125,5.625 1.25,5.25 1.5,5 1.75,4.75 1.875,4.375 2,4 2.125,3.625 2.25,3.25 2.625,3.125 3,3 3.5,3 H 4 L 4.125,2.625 Q 4.25,2.25 4.5,2 4.75,1.75 5,1.5 M 4.5,3 H 4 L 3.875,3.375 Q 3.75,3.75 3.5,4 3.25,4.25 3.125,4.625 3,5 3,5.5 3,6 3.125,6.375 3.25,6.75 3.5,7 3.75,7.25 4,7.5 4.25,7.75 4.625,7.875 5,8 5.5,8 6,8 6.375,7.875 6.75,7.75 7,7.5 7.25,7.25 7.5,7 7.75,6.75 7.875,6.375 8,6 8,5.5 8,5 7.875,4.625 7.75,4.25 7.5,4 7.25,3.75 7,3.5 6.75,3.25 6.375,3.125 6,3 5.5,3 5,3 4.5,3 M 13.125,3.375 13,3 H 12.5 Q 12,3 11.5,3 11,3 10.625,3.125 10.25,3.25 10,3.5 9.75,3.75 9.5,4 9.25,4.25 9.125,4.625 9,5 9,5.5 9,6 9.125,6.375 9.25,6.75 9.5,7 9.75,7.25 10,7.5 10.25,7.75 10.625,7.875 11,8 11.5,8 12,8 12.375,7.875 12.75,7.75 13,7.5 13.25,7.25 13.5,7 13.75,6.75 13.875,6.375 14,6 14,5.5 14,5 13.875,4.625 13.75,4.25 13.5,4 13.25,3.75 13.125,3.375"
         id="path8"
         inkscape:connector-curvature="0"
         style="display:none;fill:#ffffff"
         inkscape:label="path8" />
      <path
         d="M 3.875,3.375 4,3 H 4.5 Q 5,3 5.5,3 6,3 6.375,3.125 6.75,3.25 7,3.5 7.25,3.75 7.5,4 7.75,4.25 7.875,4.625 8,5 8,5.5 8,6 7.875,6.375 7.75,6.75 7.5,7 7.25,7.25 7,7.5 6.75,7.75 6.375,7.875 6,8 5.5,8 5,8 4.625,7.875 4.25,7.75 4,7.5 3.75,7.25 3.5,7 3.25,6.75 3.125,6.375 3,6 3,5.5 3,5 3.125,4.625 3.25,4.25 3.5,4 3.75,3.75 3.875,3.375 M 5.5,7 Q 6,7 6.375,6.875 6.75,6.75 6.875,6.375 7,6 7,5.5 7,5 6.875,4.625 6.75,4.25 6.375,4.125 6,4 5.5,4 5,4 4.625,4.125 4.25,4.25 4.125,4.625 4,5 4,5.5 4,6 4.125,6.375 4.25,6.75 4.625,6.875 5,7 5.5,7"
         id="path10"
         inkscape:connector-curvature="0"
         style="display:inline" />
      <path
         d="M 10,3.5 Q 10.25,3.25 10.625,3.125 11,3 11.5,3 12,3 12.5,3 H 13 l 0.125,0.375 Q 13.25,3.75 13.5,4 13.75,4.25 13.875,4.625 14,5 14,5.5 14,6 13.875,6.375 13.75,6.75 13.5,7 13.25,7.25 13,7.5 12.75,7.75 12.375,7.875 12,8 11.5,8 11,8 10.625,7.875 10.25,7.75 10,7.5 9.75,7.25 9.5,7 9.25,6.75 9.125,6.375 9,6 9,5.5 9,5 9.125,4.625 9.25,4.25 9.5,4 9.75,3.75 10,3.5 M 11.5,7 Q 12,7 12.375,6.875 12.75,6.75 12.875,6.375 13,6 13,5.5 13,5 12.875,4.625 12.75,4.25 12.375,4.125 12,4 11.5,4 11,4 10.625,4.125 10.25,4.25 10.125,4.625 10,5 10,5.5 10,6 10.125,6.375 10.25,6.75 10.625,6.875 11,7 11.5,7"
         id="path12"
         inkscape:connector-curvature="0" />
      <path
         d="M 4.125,4.625 Q 4.25,4.25 4.625,4.125 5,4 5.5,4 6,4 6.375,4.125 6.75,4.25 6.875,4.625 7,5 7,5.5 7,6 6.875,6.375 6.75,6.75 6.375,6.875 6,7 5.5,7 5,7 4.625,6.875 4.25,6.75 4.125,6.375 4,6 4,5.5 4,5 4.125,4.625"
         id="path14"
         inkscape:connector-curvature="0"
         style="fill:#ffffff" />
      <path
         d="M 10.125,4.625 Q 10.25,4.25 10.625,4.125 11,4 11.5,4 12,4 12.375,4.125 12.75,4.25 12.875,4.625 13,5 13,5.5 13,6 12.875,6.375 12.75,6.75 12.375,6.875 12,7 11.5,7 11,7 10.625,6.875 10.25,6.75 10.125,6.375 10,6 10,5.5 10,5 10.125,4.625"
         id="path16"
         inkscape:connector-curvature="0"
         style="fill:#ffffff" />
    </g>
    <path
       d="M 0,9.5 V 9 L 0.375,9.125 Q 0.75,9.25 0.875,9.625 1,10 1,10.5 1,11 1.5,11 2,11 2,11.5 2,12 2.5,12 3,12 3.375,12.125 3.75,12.25 3.875,12.625 4,13 4.5,13 5,13 5,13.5 V 14 H 0 V 9.5"
       id="path20"
       inkscape:connector-curvature="0"
       style="fill-opacity:0" />
    <path
       d="m 16.125,9.625 q 0.125,-0.375 0.5,-0.5 L 17,9 v 5 h -5 v -0.5 q 0,-0.5 0.5,-0.5 0.5,0 0.625,-0.375 0.125,-0.375 0.5,-0.5 Q 14,12 14.5,12 15,12 15,11.5 15,11 15.5,11 16,11 16,10.5 16,10 16.125,9.625"
       id="path22"
       inkscape:connector-curvature="0"
       style="fill-opacity:0" />
  </g>
</svg>
