<svg width="17" height="14" version="1.1" viewBox="0 0 17 14" xmlns="http://www.w3.org/2000/svg">
 <g transform="translate(0)">
  <path d="m0 0.5v-0.5h5l-0.125 0.375q-0.125 0.375-0.5 0.5t-0.5 0.5-0.5 0.5-0.875 0.125-0.625 0.375-0.5 0.5-0.375 0.625-0.125 0.875-0.5 0.5l-0.375 0.125v-4.5" fill-opacity="0"/>
  <path d="m4.875 0.375 0.125-0.375h7l0.125 0.375q0.125 0.375 0.5 0.5t0.5 0.5 0.5 0.5 0.875 0.125 0.625 0.375 0.5 0.5 0.375 0.625 0.125 0.875 0.5 0.5l0.375 0.125v4l-0.375 0.125q-0.375 0.125-0.5 0.5t-0.125 0.875-0.5 0.5-0.5 0.5-0.5 0.5-0.875 0.125-0.5 0.5-0.625 0.375-0.5 0.5v0.5h-7v-0.5q0-0.5-0.5-0.5t-0.625-0.375-0.5-0.5-0.875-0.125-0.5-0.5-0.5-0.5-0.5-0.5-0.125-0.875-0.5-0.5l-0.375-0.125v-4l0.375-0.125q0.375-0.125 0.5-0.5t0.125-0.875 0.375-0.625 0.5-0.5 0.625-0.375 0.875-0.125 0.5-0.5 0.5-0.5 0.5-0.5m4.625 12.625q0.5 0 0.875-0.125t0.625-0.375 0.625-0.375 0.75-0.25 0.625-0.375 0.5-0.5 0.5-0.5 0.5-0.5 0.5-0.5 0.5-0.5 0.375-0.625 0.125-0.875 0-1-0.125-0.875-0.375-0.625-0.375-0.625-0.25-0.75-0.5-0.5-0.75-0.25-0.625-0.375-0.5-0.5-0.5-0.5-0.625-0.375-0.875-0.125-1 0-1 0-1 0-1 0-0.875 0.125-0.625 0.375-0.5 0.5-0.5 0.5-0.625 0.375-0.75 0.25-0.5 0.5-0.25 0.75-0.375 0.625-0.375 0.625-0.125 0.875 0 1 0.125 0.875 0.375 0.625 0.5 0.5 0.5 0.5 0.5 0.5 0.5 0.5 0.5 0.5 0.625 0.375 0.75 0.25 0.625 0.375 0.625 0.375 0.875 0.125 1 0 1 0"/>
  <path d="m12.125 0.375-0.125-0.375h5v5l-0.375-0.125q-0.375-0.125-0.5-0.5t-0.125-0.875-0.375-0.625-0.5-0.5-0.625-0.375-0.875-0.125-0.5-0.5-0.5-0.5-0.5-0.5" fill-opacity="0"/>
  <g>
   <path d="m5 1.5q0.25-0.25 0.625-0.375t0.875-0.125 1 0 1 0 1 0 1 0 0.875 0.125 0.625 0.375 0.5 0.5 0.5 0.5 0.625 0.375 0.75 0.25 0.5 0.5 0.25 0.75 0.375 0.625 0.375 0.625 0.125 0.875 0 1-0.125 0.875-0.375 0.625-0.5 0.5-0.5 0.5-0.5 0.5-0.5 0.5-0.5 0.5-0.625 0.375-0.75 0.25-0.625 0.375-0.625 0.375-0.875 0.125-1 0-1 0-0.875-0.125-0.625-0.375-0.625-0.375-0.75-0.25-0.625-0.375-0.5-0.5-0.5-0.5-0.5-0.5-0.5-0.5-0.5-0.5-0.375-0.625-0.125-0.875 0-1 0.125-0.875 0.375-0.625 0.375-0.625 0.25-0.75 0.5-0.5 0.75-0.25 0.625-0.375 0.5-0.5 0.5-0.5m5.5 9.5q0.5 0 0.875-0.125t0.5-0.5l0.125-0.375-0.125-0.375q-0.125-0.375-0.375-0.625t-0.35938-0.64062l-0.10938-0.39062-0.21875-0.03125 0.21875 0.03125q0.21875 0.03125 0.46875 0.03125h0.25-0.75 0.5q0.5 0 0.875-0.125t0.625-0.375 0.5-0.5 0.375-0.625 0.125-0.875-0.125-0.875-0.375-0.625-0.5-0.5-0.625-0.375-0.875-0.125-0.875 0.125-0.625 0.375-0.64062 0.39062l-0.39062 0.14062 0.03125 0.21875-0.03125-0.21875q-0.03125-0.21875-0.09375-0.40625l-0.0625-0.1875 0.1875 0.5625-0.125-0.375q-0.125-0.375-0.375-0.375t-0.375 0.375l-0.125 0.375 0.1875-0.5625-0.0625 0.1875q-0.0625 0.1875-0.09375 0.40625l-0.03125 0.21875 0.03125-0.21875-0.39062-0.14062q-0.39062-0.14062-0.64062-0.39062t-0.625-0.375-0.875-0.125-0.875 0.125-0.625 0.375-0.5 0.5-0.375 0.625-0.125 0.875 0.125 0.875 0.375 0.625 0.5 0.5 0.625 0.375 0.875 0.125h0.5-0.75 0.25q0.25 0 0.46875-0.03125l0.21875-0.03125-0.21875 0.03125-0.10938 0.39062q-0.10938 0.39062-0.35938 0.64062t-0.375 0.625l-0.125 0.375 0.125 0.375q0.125 0.375 0.5 0.5t0.875 0.125 1 0 1 0 1 0 1 0" fill="#fc1b1c"/>
   <path d="m4 3.5q0.25-0.25 0.625-0.375t0.875-0.125 0.875 0.125 0.625 0.375 0.64062 0.39062l0.39062 0.14062 0.03125-0.21875-0.03125 0.21875q-0.03125 0.21875-0.03125 0.46875v0.25-0.75 0.5q0 0.5 0 1v0.5l-0.125 0.375q-0.125 0.375-0.375 0.625t-0.5 0.5-0.625 0.375-0.875 0.125-0.875-0.125-0.625-0.375-0.5-0.5-0.375-0.625-0.125-0.875 0.125-0.875 0.375-0.625 0.5-0.5m1.5 3.5q0.5 0 0.875-0.125t0.5-0.5 0.125-0.875-0.125-0.875-0.5-0.5-0.875-0.125-0.875 0.125-0.5 0.5-0.125 0.875 0.125 0.875 0.5 0.5 0.875 0.125"/>
   <path d="m8.125 3.625q0.125-0.375 0.375-0.375t0.375 0.375l0.125 0.375h-1l0.125-0.375" fill="#cfcfcf"/>
   <path d="m10 3.5q0.25-0.25 0.625-0.375t0.875-0.125 0.875 0.125 0.625 0.375 0.5 0.5 0.375 0.625 0.125 0.875-0.125 0.875-0.375 0.625-0.5 0.5-0.625 0.375-0.875 0.125-0.875-0.125-0.625-0.375-0.5-0.5-0.375-0.625l-0.125-0.375v-0.5q0-0.5 0-1v-0.5 0.75-0.25q0-0.25-0.03125-0.46875l-0.03125-0.21875 0.03125 0.21875 0.39062-0.14062q0.39062-0.14062 0.64062-0.39062m1.5 3.5q0.5 0 0.875-0.125t0.5-0.5 0.125-0.875-0.125-0.875-0.5-0.5-0.875-0.125-0.875 0.125-0.5 0.5-0.125 0.875 0.125 0.875 0.5 0.5 0.875 0.125"/>
  </g>
  <g fill="#fff">
   <path d="m4.125 4.625q0.125-0.375 0.5-0.5t0.875-0.125 0.875 0.125 0.5 0.5 0.125 0.875-0.125 0.875-0.5 0.5-0.875 0.125-0.875-0.125-0.5-0.5-0.125-0.875 0.125-0.875"/>
   <path d="m8 4.5v-0.5h1v0.5q0 0.5 0 1v0.5h-1v-0.5q0-0.5 0-1"/>
   <path d="m10.125 4.625q0.125-0.375 0.5-0.5t0.875-0.125 0.875 0.125 0.5 0.5 0.125 0.875-0.125 0.875-0.5 0.5-0.875 0.125-0.875-0.125-0.5-0.5-0.125-0.875 0.125-0.875"/>
  </g>
  <g>
   <path d="m7.875 6.375 0.125-0.375h1l0.25 0.75-0.1875-0.5625 0.0625 0.1875q0.0625 0.1875 0.15625 0.34375l0.09375 0.15625-0.09375-0.15625-0.26562 0.26562q-0.26562 0.26562-0.51562 0.26562t-0.51562-0.26562l-0.26562-0.26562-0.09375 0.15625 0.09375-0.15625q0.09375-0.15625 0.15625-0.34375l0.0625-0.1875-0.1875 0.5625 0.125-0.375" fill="#cfcfcf"/>
   <path d="m7 7.5q0.25-0.25 0.5-0.5l0.25-0.25-0.375 0.375 0.125-0.125q0.125-0.125 0.21875-0.28125l0.09375-0.15625-0.09375 0.15625 0.26562 0.26562q0.26562 0.26562 0.51562 0.26562t0.51562-0.26562l0.26562-0.26562-0.09375-0.15625 0.09375 0.15625q0.09375 0.15625 0.21875 0.28125l0.125 0.125-0.375-0.375 0.25 0.25q0.25 0.25 0.5 0.5t0.625 0.375l0.375 0.125-0.5625-0.1875 0.1875 0.0625q0.1875 0.0625 0.40625 0.09375l0.21875 0.03125-0.21875-0.03125 0.21875 0.78125-0.1875-0.5625 0.0625 0.1875q0.0625 0.1875 0.15625 0.34375l0.09375 0.15625-0.09375-0.15625-0.26562 0.26562q-0.26562 0.26562-0.14062 0.64062t0.625 0.375h0.5l-0.125 0.375q-0.125 0.375-0.5 0.5t-0.875 0.125h-0.5v-0.5q0-0.5-0.125-0.875t-0.375-0.625-0.5-0.5-0.5-0.25-0.5 0.25-0.5 0.5-0.375 0.625-0.125 0.875v0.5h-0.5q-0.5 0-0.875-0.125t-0.5-0.5l-0.125-0.375h0.5q0.5 0 0.625-0.375t-0.14062-0.64062l-0.26562-0.26562-0.09375 0.15625 0.09375-0.15625q0.09375-0.15625 0.15625-0.34375l0.0625-0.1875-0.1875 0.5625 0.21875-0.78125-0.21875 0.03125 0.21875-0.03125q0.21875-0.03125 0.40625-0.09375l0.1875-0.0625-0.5625 0.1875 0.375-0.125q0.375-0.125 0.625-0.375m-0.375 3.5h0.625-0.25q-0.25 0-0.5 0h-0.25 0.375m3.25 0h0.875-0.25q-0.25 0-0.5 0h-0.25 0.125" fill="#fff"/>
   <path d="m8 8.5q0.25-0.25 0.5-0.25t0.5 0.25 0.5 0.5 0.375 0.625 0.125 0.875v0.5h-1v-0.5q0-0.5-0.125-0.875t-0.375-0.375-0.375 0.375-0.125 0.875v0.5h-1v-0.5q0-0.5 0.125-0.875t0.375-0.625 0.5-0.5m-1.125 2.5h0.875-0.25q-0.25 0-0.5 0h-0.25 0.125m0.75 0h0.625-0.25q-0.25 0-0.5 0h-0.25 0.375m1.25 0h0.875-0.25q-0.25 0-0.5 0h-0.25 0.125m0.75 0h0.625-0.25q-0.25 0-0.5 0h-0.25 0.375" fill="#696969"/>
  </g>
  <path d="m0 9.5v-0.5l0.375 0.125q0.375 0.125 0.5 0.5t0.125 0.875 0.5 0.5 0.5 0.5 0.5 0.5 0.875 0.125 0.5 0.5 0.625 0.375 0.5 0.5v0.5h-5v-4.5" fill-opacity="0"/>
  <g>
   <path d="m5.125 9.625q0.125-0.375 0.375-0.625l0.25-0.25-0.375 0.375 0.125-0.125q0.125-0.125 0.21875-0.28125l0.09375-0.15625-0.09375 0.15625 0.26562 0.26562q0.26562 0.26562 0.14062 0.64062t-0.625 0.375h-0.5l0.125-0.375" fill="#cfcfcf"/>
   <path d="m8.125 9.625q0.125-0.375 0.375-0.375t0.375 0.375 0.125 0.875v0.5h-1v-0.5q0-0.5 0.125-0.875m-0.25 1.375h0.875-0.25q-0.25 0-0.5 0h-0.25 0.125m0.75 0h0.625-0.25q-0.25 0-0.5 0h-0.25 0.375" fill="#fff"/>
   <path d="m10.875 9.625q-0.125-0.375 0.14062-0.64062l0.26562-0.26562-0.09375-0.15625 0.09375 0.15625q0.09375 0.15625 0.21875 0.28125l0.125 0.125-0.375-0.375 0.25 0.25q0.25 0.25 0.375 0.625l0.125 0.375h-0.5q-0.5 0-0.625-0.375" fill="#cfcfcf"/>
  </g>
  <path d="m16.125 9.625q0.125-0.375 0.5-0.5l0.375-0.125v5h-5v-0.5q0-0.5 0.5-0.5t0.625-0.375 0.5-0.5 0.875-0.125 0.5-0.5 0.5-0.5 0.5-0.5 0.125-0.875" fill-opacity="0"/>
 </g>
</svg>
