<svg width="17" height="14" version="1.1" viewBox="0 0 17 14" xmlns="http://www.w3.org/2000/svg">
 <g transform="translate(0)">
  <path d="m0 0.5v-0.5h5v0.5q0 0.5-0.5 0.5t-0.5 0.5-0.5 0.5-1 0-0.5 0.5-0.5 0.5-0.5 0.5-0.125 0.875-0.5 0.5l-0.375 0.125v-4.5" fill-opacity="0"/>
  <path d="m5 0.5v-0.5h7v0.5q0 0.5 0.5 0.5t0.5 0.5 0.5 0.5 1 0 0.5 0.5 0.5 0.5 0.5 0.5 0.125 0.875 0.5 0.5l0.375 0.125v4l-0.375 0.125q-0.375 0.125-0.5 0.5t-0.125 0.875-0.5 0.5-0.5 0.5-0.5 0.5-0.875 0.125-0.5 0.5-0.625 0.375-0.5 0.5v0.5h-7v-0.5q0-0.5-0.5-0.5t-0.625-0.375-0.5-0.5-0.875-0.125-0.5-0.5-0.5-0.5-0.5-0.5-0.125-0.875-0.5-0.5l-0.375-0.125v-4l0.375-0.125q0.375-0.125 0.5-0.5t0.125-0.875 0.5-0.5 0.5-0.5 0.5-0.5 1 0 0.5-0.5 0.5-0.5 0.5-0.5m4.5 12.5q0.5 0 0.875-0.125t0.625-0.375 0.625-0.375 0.75-0.25 0.625-0.375 0.5-0.5 0.5-0.5 0.5-0.5 0.35938-0.64062l0.10938-0.39062-0.21875 0.03125 0.21875-0.03125q0.21875-0.03125 0.40625-0.09375l0.1875-0.0625-0.5625 0.1875 0.375-0.125q0.375-0.125 0.5-0.5t0.125-0.875 0-1-0.125-0.875-0.5-0.5-0.75 0-0.5 0.5-0.25 0.75-0.375 0.625-0.375 0.625-0.10938 0.89062l0.015625 0.51562 0.21875-0.03125-0.21875 0.03125q-0.21875 0.03125-0.40625 0.09375l-0.1875 0.0625 0.5625-0.1875-0.375 0.125q-0.375 0.125-0.625 0.375t-0.625 0.375-0.75 0.25-0.625 0.375-0.625 0.375-0.875 0.125-0.875-0.125-0.625-0.375-0.625-0.375-0.75-0.25-0.625-0.375-0.625-0.375l-0.375-0.125 0.5625 0.1875-0.1875-0.0625q-0.1875-0.0625-0.40625-0.09375l-0.21875-0.03125 0.21875 0.03125 0.015625-0.51562q0.015625-0.51562-0.10938-0.89062t-0.375-0.625-0.375-0.625-0.25-0.75-0.5-0.5-0.75 0-0.5 0.5-0.125 0.875 0 1 0.125 0.875 0.5 0.5l0.375 0.125-0.5625-0.1875 0.1875 0.0625q0.1875 0.0625 0.40625 0.09375l0.21875 0.03125-0.21875-0.03125 0.10938 0.39062q0.10938 0.39062 0.35938 0.64062t0.5 0.5 0.5 0.5 0.5 0.5 0.625 0.375 0.75 0.25 0.625 0.375 0.625 0.375 0.875 0.125 1 0 1 0m-1-3q0.5 0 0.875-0.125t0.625-0.375 0.625-0.375 0.75-0.25 0.375-0.375-0.375-0.375-0.875-0.125h-0.5l-0.125-0.375q-0.125-0.375-0.375-0.625t-0.375-0.625-0.125-0.875-0.125-0.875-0.375-0.375-0.375 0.375-0.125 0.875 0 1v0.5-0.75 0.25q0 0.25 0.03125 0.46875l0.03125 0.21875-0.03125-0.21875-0.39062 0.14062q-0.39062 0.14062-0.64062 0.39062t-0.625 0.375-0.75 0.25-0.375 0.375 0.375 0.375 0.75 0.25 0.625 0.375 0.625 0.375 0.875 0.125m3-3q0.5 0 0.875-0.125t0.5-0.5 0.125-0.875-0.125-0.875-0.5-0.5-0.875-0.125-0.875 0.125-0.5 0.5-0.125 0.875 0.125 0.875 0.5 0.5 0.875 0.125m-1.625 1h0.875-0.25q-0.25 0-0.5 0h-0.25 0.125m-4.375-1q0.5 0 0.875-0.125t0.5-0.5 0.125-0.875-0.125-0.875-0.5-0.5-0.875-0.125-0.875 0.125-0.5 0.5-0.125 0.875 0.125 0.875 0.5 0.5 0.875 0.125"/>
  <path d="m12 0.5v-0.5h5v5l-0.375-0.125q-0.375-0.125-0.5-0.5t-0.125-0.875-0.5-0.5-0.5-0.5-0.5-0.5-1 0-0.5-0.5-0.5-0.5-0.5-0.5" fill-opacity="0"/>
  <g>
   <path d="m4.125 4.625q0.125-0.375 0.5-0.5t0.875-0.125 0.875 0.125 0.5 0.5 0.125 0.875-0.125 0.875-0.5 0.5-0.875 0.125-0.875-0.125-0.5-0.5-0.125-0.875 0.125-0.875" fill="#fff"/>
   <path d="m8.125 4.625q0.125-0.375 0.375-0.375t0.375 0.375l0.125 0.375-0.1875-0.5625 0.0625 0.1875q0.0625 0.1875 0.09375 0.40625l0.03125 0.21875-0.03125-0.21875h-0.9375l-0.03125 0.21875 0.03125-0.21875q0.03125-0.21875 0.09375-0.40625l0.0625-0.1875-0.1875 0.5625 0.125-0.375" fill="#d00"/>
   <path d="m10.125 4.625q0.125-0.375 0.5-0.5t0.875-0.125 0.875 0.125 0.5 0.5 0.125 0.875-0.125 0.875-0.5 0.5-0.875 0.125-0.875-0.125-0.5-0.5-0.125-0.875 0.125-0.875" fill="#fff"/>
   <path d="m1.125 5.625q0.125-0.375 0.5-0.5t0.75 0 0.5 0.5 0.25 0.75 0.375 0.625 0.375 0.625 0.10938 0.89062l-0.015625 0.51562 0.21875 0.03125-0.21875-0.03125q-0.21875-0.03125-0.46875-0.03125h-0.25 0.75-0.5q-0.5 0-1 0t-0.875-0.125-0.5-0.5-0.125-0.875 0-1 0.125-0.875" fill="#d00"/>
   <path d="m8 5.5v-0.5 0.75-0.25q0-0.25 0.03125-0.46875l0.03125-0.21875-0.03125 0.21875h0.9375l-0.03125-0.21875 0.03125 0.21875q0.03125 0.21875 0.03125 0.46875v0.25-0.75 0.5q0 0.5 0.125 0.875t0.375 0.625 0.375 0.625l0.125 0.375h-0.5q-0.5 0-0.875-0.125t-0.5-0.5-0.125-0.875 0-1m1.625 2.5h0.625-0.25q-0.25 0-0.5 0h-0.25 0.375" fill="#fff"/>
   <path d="m14.125 5.625q0.125-0.375 0.5-0.5t0.75 0 0.5 0.5 0.125 0.875 0 1-0.125 0.875-0.5 0.5-0.875 0.125-1 0h-0.5 0.75-0.25q-0.25 0-0.46875 0.03125l-0.21875 0.03125 0.21875-0.03125-0.015625-0.51562q-0.015625-0.51562 0.10938-0.89062t0.375-0.625 0.375-0.625 0.25-0.75" fill="#d00"/>
   <path d="m7 7.5q0.25-0.25 0.64062-0.39062l0.39062-0.14062-0.03125-0.21875 0.03125 0.21875q0.03125 0.21875 0.09375 0.40625l0.0625 0.1875-0.1875-0.5625 0.125 0.375q0.125 0.375 0.5 0.5t0.875 0.125 1 0h0.5-0.75 0.25q0.25 0 0.46875 0.03125l0.21875 0.03125-0.21875-0.03125 0.03125 0.96875-0.375 0.125q-0.375 0.125-0.625 0.375t-0.625 0.375-0.875 0.125-0.875-0.125-0.625-0.375-0.625-0.375-0.75-0.25-0.375-0.375 0.375-0.375 0.75-0.25 0.625-0.375m3.7188 1.5938 0.46875-0.15625-0.1875 0.0625q-0.1875 0.0625-0.375 0.125l-0.1875 0.0625 0.28125-0.09375" fill="#d00"/>
   <path d="m10.984 8.5156-0.015625-0.48438-0.21875-0.03125 0.21875 0.03125q0.21875 0.03125 0.40625 0.09375l0.1875 0.0625-0.5625-0.1875 0.375 0.125q0.375 0.125 0.375 0.375t-0.375 0.375l-0.375 0.125-0.015625-0.48438m-0.078125 0.51562 0.65625-0.21875-0.1875 0.0625q-0.1875 0.0625-0.375 0.125l-0.1875 0.0625 0.09375-0.03125" fill="#fff"/>
  </g>
  <path d="m0 9.5v-0.5l0.375 0.125q0.375 0.125 0.5 0.5t0.125 0.875 0.5 0.5 0.5 0.5 0.5 0.5 0.875 0.125 0.5 0.5 0.625 0.375 0.5 0.5v0.5h-5v-4.5" fill-opacity="0"/>
  <path d="m2.1406 9.3594-0.10938-0.39062-0.21875-0.03125 0.21875 0.03125q0.21875 0.03125 0.46875 0.03125h0.25-0.75 0.5q0.5 0 1 0t0.875 0.125 0.625 0.375 0.625 0.375 0.75 0.25 0.625 0.375 0.625 0.375 0.875 0.125 0.875-0.125 0.625-0.375 0.625-0.375 0.75-0.25 0.625-0.375 0.625-0.375 0.875-0.125 1 0h0.5-0.75 0.25q0.25 0 0.46875-0.03125l0.21875-0.03125-0.21875 0.03125-0.10938 0.39062q-0.10938 0.39062-0.35938 0.64062t-0.5 0.5-0.5 0.5-0.5 0.5-0.625 0.375-0.75 0.25-0.625 0.375-0.625 0.375-0.875 0.125-1 0-1 0-0.875-0.125-0.625-0.375-0.625-0.375-0.75-0.25-0.625-0.375-0.5-0.5-0.5-0.5-0.5-0.5-0.35938-0.64062" fill="#ffce00"/>
  <path d="m16.125 9.625q0.125-0.375 0.5-0.5l0.375-0.125v5h-5v-0.5q0-0.5 0.5-0.5t0.625-0.375 0.5-0.5 0.875-0.125 0.5-0.5 0.5-0.5 0.5-0.5 0.125-0.875" fill-opacity="0"/>
 </g>
</svg>
