<svg width="34" height="21" version="1.1" viewBox="0 0 34 21" xmlns="http://www.w3.org/2000/svg">
 <g transform="translate(0)">
  <path d="m0 0.5v-0.5h6l-0.125 0.375q-0.125 0.375-0.5 0.5t-0.875 0.125-0.625 0.375-0.5 0.5-0.5 0.5-0.5 0.5-0.375 0.625-0.125 0.875-0.5 0.5-0.375 0.625 0 1-0.125 0.875-0.5 0.5l-0.375 0.125v-7.5" fill-opacity="0"/>
  <path d="m5.875 0.375 0.125-0.375h11l0.125 0.375q0.125 0.375 0.5 0.5t0.875 0.125 0.625 0.375 0.5 0.5 0.5 0.5 0.5 0.5 0.375 0.625 0.125 0.875 0.5 0.5 0.375 0.625 0 1 0.125 0.875 0.5 0.5 0.375 0.625 0 1 0 1 0 1 0 1-0.5 0.5-0.5 0.5-0.5 0.5-1 0-0.5 0.5 0 1-0.375 0.625-0.5 0.5-0.125 0.875-0.5 0.5-0.5 0.5-0.5 0.5-0.875 0.125-0.5 0.5-0.625 0.375-0.5 0.5v0.5h-7v-0.5q0-0.5-0.5-0.5t-0.625-0.375-0.5-0.5-0.875-0.125-0.5-0.5-0.5-0.5-0.5-0.5-0.125-0.875-0.5-0.5-0.375-0.625 0-1-0.5-0.5-1 0-0.5-0.5-0.5-0.5h-0.5v-5l0.375-0.125q0.375-0.125 0.5-0.5t0.125-0.875 0-1 0.375-0.625 0.5-0.5 0.125-0.875 0.375-0.625 0.5-0.5 0.5-0.5 0.5-0.5 0.625-0.375 0.875-0.125 0.5-0.5m-3.625 12.125q0 0.25 0.25 0.25t0.25-0.25-0.25-0.25-0.25 0.25m10.25 7.5q0.5 0 0.875-0.125t0.5-0.5l0.125-0.375v0.75-0.25q0-0.25-0.125-0.375l-0.125-0.125 0.125 0.125 0.5625-0.0625q0.5625-0.0625 0.9375-0.1875t0.48438-0.51562l0.10938-0.39062-0.21875 0.03125 0.21875-0.03125q0.21875-0.03125 0.40625-0.09375l0.1875-0.0625-0.5625 0.1875 0.375-0.125q0.375-0.125 0.5-0.5l0.125-0.375v0.75-0.25q0-0.25-0.125-0.375l-0.125-0.125 0.125 0.125 0.4375-0.1875q0.4375-0.1875 0.54688-0.57812l0.10938-0.39062-0.21875 0.03125 0.21875-0.03125q0.21875-0.03125 0.40625-0.09375l0.1875-0.0625-0.5625 0.1875 0.375-0.125q0.375-0.125 0.5-0.5l0.125-0.375v0.75-0.25q0-0.25-0.125-0.375l-0.125-0.125 0.125 0.125v-1.25l-0.125 0.125 0.125-0.125q0.125-0.125 0.125-0.375v-0.25 0.75-1 0.75-0.25q0-0.25-0.125-0.375l-0.125-0.125 0.125 0.125-0.0625-0.4375q-0.0625-0.4375-0.5-0.625l-0.4375-0.1875-0.125 0.125 0.125-0.125q0.125-0.125 0.125-0.375v-0.25 0.75l-0.125-0.375q-0.125-0.375-0.375-0.375t-0.375 0.375l-0.125 0.375v-0.75 0.25q0 0.25 0.125 0.375l0.125 0.125-0.125-0.125v1.25l0.125-0.125-0.125 0.125q-0.125 0.125-0.125 0.375v0.25-0.75 1-0.75 0.25q0 0.25 0.125 0.375l0.125 0.125-0.125-0.125-0.4375 0.1875q-0.4375 0.1875-0.5625 0.5625l-0.125 0.375h-0.5q-0.5 0-1 0t-1 0h-0.5l-0.125-0.375q-0.125-0.375-0.5625-0.5625l-0.4375-0.1875-0.125 0.125 0.125-0.125q0.125-0.125 0.125-0.375v-0.25 0.75-1 0.75-0.25q0-0.25-0.125-0.375l-0.125-0.125 0.125 0.125v-1.25l-0.125 0.125 0.125-0.125q0.125-0.125 0.125-0.375v-0.25 0.75l-0.125-0.375q-0.125-0.375-0.375-0.375t-0.375 0.375l-0.125 0.375v-0.75 0.25q0 0.25 0.125 0.375l0.125 0.125-0.125-0.125v1.25l0.125-0.125-0.125 0.125q-0.125 0.125-0.125 0.375v0.25-0.75 1l-0.375 0.125q-0.375 0.125-0.5 0.5l-0.125 0.375h-0.5q-0.5 0-1 0t-1 0h-0.5l-0.125-0.375q-0.125-0.375-0.375-0.625t-0.375-0.625-0.125-0.875-0.125-0.875-0.375-0.375-0.5 0.25-0.5 0.5-0.375 0.625-0.125 0.875 0.0625 1.0625l0.0625 0.5625 0.125-0.125-0.125 0.125q-0.125 0.125-0.125 0.375v0.25-0.75l0.125 0.375q0.125 0.375 0.5 0.5l0.375 0.125-0.5625-0.1875 0.1875 0.0625q0.1875 0.0625 0.40625 0.09375l0.21875 0.03125-0.21875-0.03125 0.10938 0.39062q0.10938 0.39062 0.54688 0.57812l0.4375 0.1875 0.125-0.125-0.125 0.125q-0.125 0.125-0.125 0.375v0.25-0.75l0.125 0.375q0.125 0.375 0.5 0.5l0.375 0.125-0.5625-0.1875 0.1875 0.0625q0.1875 0.0625 0.40625 0.09375l0.21875 0.03125-0.21875-0.03125 0.10938 0.39062q0.10938 0.39062 0.48438 0.51562t0.9375 0.1875l0.5625 0.0625 0.125-0.125-0.125 0.125q-0.125 0.125-0.125 0.375v0.25-0.75l0.125 0.375q0.125 0.375 0.5 0.5t0.875 0.125 1 0 1 0m6.625-8.625q0.125 0.375 0.375 0.375t0.375-0.375 0-0.75-0.375-0.375-0.375 0.375 0 0.75m-3.5 3.625h0.625-0.25q-0.25 0-0.5 0h-0.25 0.375m-1.375-1.5q0 0.25 0.25 0.25t0.25-0.25-0.25-0.25-0.25 0.25m0.875-1.125q0.125 0.375 0.375 0.375t0.375-0.375 0-0.75-0.375-0.375-0.375 0.375 0 0.75m-2.25 2.625h0.875-0.25q-0.25 0-0.5 0h-0.25 0.125m-3.25 0h0.625-0.25q-0.25 0-0.5 0h-0.25 0.375m-1.375-1.5q0 0.25 0.25 0.25t0.25-0.25-0.25-0.25-0.25 0.25m0.875-1.125q0.125 0.375 0.375 0.375t0.375-0.375 0-0.75-0.375-0.375-0.375 0.375 0 0.75m-2.25 2.625h0.875-0.25q-0.25 0-0.5 0h-0.25 0.125m13.375-2.5q0 0.25 0.25 0.25t0.25-0.25-0.25-0.25-0.25 0.25m0.875-1.125q0.125 0.375 0.375 0.375t0.375-0.375 0.125-0.875 0-1-0.125-0.875-0.5-0.5-0.875-0.125-1 0h-0.5l-0.125-0.375q-0.125-0.375-0.5-0.5t-0.875-0.125-0.875 0.125-0.625 0.375-0.625 0.375-0.875 0.125-1 0-1 0h-0.5 0.75-0.25q-0.25 0-0.46875 0.03125l-0.21875 0.03125 0.21875-0.03125-0.14062-0.39062q-0.14062-0.39062-0.39062-0.39062t-0.5 0.25-0.625 0.375-0.875 0.125h-1q-0.5 0-0.875-0.125t-0.625-0.375-0.625-0.375-0.875-0.125-0.875 0.125-0.625 0.375-0.625 0.375-0.875 0.125h-0.5l-0.375 0.125q-0.375 0.125-0.5 0.5l-0.125 0.375v2l0.125 0.375q0.125 0.375 0.375 0.375t0.375-0.375l0.25-0.75q0.125-0.375 0.375-0.375t0.375 0.375 0.25 0.75 0.375 0.375 0.375-0.375 0-0.75-0.375-0.625-0.35938-0.60938l-0.10938-0.35938-0.21875 0.03125 0.21875-0.03125q0.21875-0.03125 0.46875-0.03125h0.25-0.75 1.5q0.5 0 1 0t1 0h1q0.5 0 1 0h1q0.5 0 1 0t1 0h1q0.5 0 1 0t1 0 1 0 1 0 1 0h2.5l0.125 0.375q0.125 0.375 0.5 0.5l0.375 0.125-0.5625-0.1875 0.1875 0.0625q0.1875 0.0625 0.40625 0.09375l0.21875 0.03125-0.21875-0.03125-0.015625 0.51562q-0.015625 0.51562 0.10938 0.89062m-1.5-4.5q0.375 0.125 0.75 0t0.5-0.5 0-0.75-0.5-0.5-0.75-0.25-0.625-0.375-0.625-0.375-0.85938-0.10938l-0.48438 0.015625-0.03125 0.21875 0.03125-0.21875q0.03125-0.21875 0.09375-0.40625l0.0625-0.1875-0.1875 0.5625 0.125-0.375q0.125-0.375 0.5-0.5l0.75-0.25q0.375-0.125 0.375-0.375t-0.375-0.375l-0.375-0.125-0.375 0.125q-0.375 0.125-0.625 0.375t-0.625 0.375-0.875 0.125-1 0-1 0-1 0-1 0-1 0-1 0-1 0-1 0-0.875-0.125-0.625-0.375-0.625-0.375-0.75 0-0.375 0.375 0.375 0.375 0.75 0.25 0.5 0.5l0.125 0.375-0.1875-0.5625 0.0625 0.1875q0.0625 0.1875 0.09375 0.40625l0.03125 0.21875-0.03125-0.21875-0.48438-0.015625q-0.48438-0.015625-0.85938 0.10938t-0.625 0.375-0.625 0.375-0.75 0.25-0.5 0.5 0 0.75 0.5 0.5 0.75 0 0.625-0.375 0.625-0.375 0.92188-0.17188l0.54688-0.046875-0.09375-0.15625 0.09375 0.15625q0.09375 0.15625 0.28125 0.21875l0.1875 0.0625-0.5625-0.1875 0.375 0.125q0.375 0.125 0.625 0.375t0.625 0.375 0.875 0.125 1 0 0.875-0.125 0.625-0.375 0.5-0.25 0.5 0.25 0.625 0.375 0.875 0.125 1 0 0.875-0.125 0.625-0.375 0.625-0.375l0.375-0.125-0.5625 0.1875 0.1875-0.0625q0.1875-0.0625 0.28125-0.21875l0.09375-0.15625-0.09375 0.15625 0.54688 0.046875q0.54688 0.046875 0.92188 0.17188t0.625 0.375 0.625 0.375m-0.375-3.375q0 0.25 0.25 0.25t0.25-0.25-0.25-0.25-0.25 0.25m-3.75-1.5q0.5 0 0.875-0.125t0.375-0.375-0.375-0.375-0.875-0.125-1 0-1 0-1 0-1 0-1 0-1 0-1 0-1 0-0.875 0.125-0.375 0.375 0.375 0.375 0.875 0.125 1 0 1 0 1 0 1 0 1 0 1 0 1 0 1 0m-12.25 1.5q0 0.25 0.25 0.25t0.25-0.25-0.25-0.25-0.25 0.25m15.625 4.5h0.875-0.25q-0.25 0-0.5 0h-0.25 0.125m1.25 1h-0.875 0.25q0.25 0 0.5 0h0.25-0.125"/>
  <path d="m17.125 0.375-0.125-0.375h10v0.5q0 0.5 0 1t0 1 0 1-0.5 0.5-1 0-0.5 0.5 0.5 0.5 0.5 0.5 0 1 0 1 0 1 0 1-0.5 0.5-0.5 0.5 0 1 0 1 0 1 0 1 0.5 0.5 0.5 0.5 0 1 0 1 0 1 0 1 0 1v0.5h-11v-0.5q0-0.5 0.5-0.5t0.625-0.375 0.5-0.5 0.875-0.125 0.5-0.5 0.5-0.5 0.5-0.5 0.125-0.875 0.5-0.5 0.375-0.625 0-1 0.5-0.5 1 0 0.5-0.5 0.5-0.5 0.5-0.5 0-1 0-1 0-1 0-1-0.375-0.625-0.5-0.5-0.125-0.875 0-1-0.375-0.625-0.5-0.5-0.125-0.875-0.375-0.625-0.5-0.5-0.5-0.5-0.5-0.5-0.625-0.375-0.875-0.125-0.5-0.5" fill-opacity="0"/>
  <path d="m27 0.5v-0.5h1v0.5q0 0.5 0 1t0 1 0 1 0.5 0.5 0.5 0.5 0 1 0 1 0 1 0 1 0.375 0.375 0.5-0.5 0.625-0.375 0.875-0.125 0.5-0.5 0.625-0.375 0.625 0.375 0.5 0.5l0.375 0.125v2l-0.375 0.125q-0.375 0.125-0.5 0.5t-0.625 0.375-0.875 0.125-0.5 0.5-0.625 0.375-0.375 0.375 0.5 0.5 0.5 0.5 0.5 0.5 0.5 0.5 0.5 0.5 0.375 0.625-0.375 0.625-0.5 0.5-0.625 0.375-0.625-0.375-0.5-0.5-0.5-0.5-0.375-0.375-0.375 0.375 0 0.75 0.5 0.5 0.375 0.625 0.125 0.875 0.5 0.5 0.375 0.625 0 1v0.5h-5v-0.5q0-0.5 0-1t0-1 0-1 0-1 0-1-0.5-0.5-0.5-0.5 0-1 0-1 0-1 0-1 0.5-0.5 0.5-0.5 0-1 0-1 0-1 0-1-0.5-0.5-0.5-0.5 0.5-0.5 1 0 0.5-0.5 0-1 0-1 0-1m0.125 7.875q0.125 0.375 0.375 0.375t0.375-0.375 0.125-0.875 0-1-0.125-0.875-0.375-0.375-0.375 0.375-0.125 0.875 0 1 0.125 0.875m1.375 11.625q0.5 0 0.875-0.125t0.375-0.375-0.25-0.5-0.375-0.625-0.25-0.75-0.375-0.625-0.5-0.5-0.5-0.25-0.375 0.375-0.125 0.875 0 1 0.125 0.875 0.5 0.5 0.875 0.125m1.5-5.5q0.25 0.25 0.5 0.25t0.25-0.25-0.25-0.5-0.5-0.5-0.5-0.5-0.375-0.625-0.125-0.875-0.125-0.875-0.5-0.5-0.75 0-0.5 0.5-0.125 0.875 0 1 0 1 0.125 0.875 0.5 0.5 0.75 0 0.625-0.375 0.5-0.25 0.5 0.25m1.25 1q0 0.25 0.25 0.25t0.25-0.25-0.25-0.25-0.25 0.25m-1.125-5.125q0.125 0.375 0.375 0.375t0.5-0.25 0.625-0.375 0.75-0.25 0.5-0.5 0-0.75-0.375-0.375-0.5 0.25-0.625 0.375-0.75 0.25-0.5 0.5 0 0.75"/>
  <path d="m28 0.5v-0.5h6v8l-0.375-0.125q-0.375-0.125-0.5-0.5t-0.625-0.375-0.625 0.375-0.5 0.5-0.875 0.125-0.625 0.375-0.5 0.5-0.375-0.375 0-1 0-1 0-1 0-1-0.5-0.5-0.5-0.5 0-1 0-1 0-1" fill-opacity="0"/>
  <g>
   <path d="m6.25 1.5q0-0.25 0.375-0.375t0.875-0.125h0.5v1h-0.5q-0.5 0-0.875-0.125t-0.375-0.375m1.375 0.5h0.625-0.25q-0.25 0-0.5 0h-0.25 0.375m0.5-1h-0.875 0.25q0.25 0 0.5 0h0.25-0.125" fill="#5b615f"/>
   <path d="m8 1.5v-0.5h1v1h-1v-0.5m-0.125 0.5h0.875-0.25q-0.25 0-0.5 0h-0.25 0.125m0.75 0h0.625-0.25q-0.25 0-0.5 0h-0.25 0.375m0.5-1h-0.875 0.25q0.25 0 0.5 0h0.25-0.125m-0.75 0h-0.625 0.25q0.25 0 0.5 0h0.25-0.375" fill="#a0968c"/>
   <path d="m9 1.5v-0.5h0.5q0.5 0 1 0t1 0 1 0 1 0h0.5v1h-0.5q-0.5 0-1 0t-1 0-1 0-1 0h-0.5v-0.5m-0.125 0.5h0.875-0.25q-0.25 0-0.5 0h-0.25 0.125m4.75 0h0.625-0.25q-0.25 0-0.5 0h-0.25 0.375m0.5-1h-0.875 0.25q0.25 0 0.5 0h0.25-0.125m-4.75 0h-0.625 0.25q0.25 0 0.5 0h0.25-0.375" fill="#5b615d"/>
   <path d="m14 1.5v-0.5h0.5q0.5 0 1 0h0.5-0.75 0.25q0.25 0 0.46875 0.03125l0.21875 0.03125-0.21875-0.03125v0.9375l0.21875-0.03125-0.21875 0.03125q-0.21875 0.03125-0.46875 0.03125h-0.25 0.75-0.5q-0.5 0-1 0h-0.5v-0.5m-0.125 0.5h0.875-0.25q-0.25 0-0.5 0h-0.25 0.125m0.5-1h-0.625 0.25q0.25 0 0.5 0h0.25-0.375" fill="#a1948b"/>
   <path d="m15.969 1.5v-0.46875l-0.21875-0.03125 0.21875 0.03125q0.21875 0.03125 0.40625 0.09375l0.1875 0.0625-0.5625-0.1875 0.375 0.125q0.375 0.125 0.375 0.375t-0.375 0.375l-0.375 0.125 0.5625-0.1875-0.1875 0.0625q-0.1875 0.0625-0.40625 0.09375l-0.21875 0.03125 0.21875-0.03125v-0.46875" fill="#5b615d"/>
   <path d="m4.25 2.5q0-0.25 0.375-0.375t0.75 0 0.625 0.375l0.25 0.25-0.375-0.375 0.125 0.125q0.125 0.125 0.28125 0.21875l0.15625 0.09375-0.15625-0.09375-0.59375 0.59375 0.125 0.125-0.125-0.125q-0.125-0.125-0.3125-0.1875l-0.1875-0.0625 0.5625 0.1875-0.375-0.125q-0.375-0.125-0.75-0.25t-0.375-0.375" fill="#a0968c"/>
   <path d="m17 2.5q0.25-0.25 0.625-0.375l0.375-0.125v1l-0.75 0.25 0.5625-0.1875-0.1875 0.0625q-0.1875 0.0625-0.3125 0.1875l-0.125 0.125 0.125-0.125-0.59375-0.59375-0.15625 0.09375 0.15625-0.09375q0.15625-0.09375 0.28125-0.21875l0.125-0.125-0.375 0.375 0.25-0.25" fill="#a49a8e"/>
   <path d="m18 2.5v-0.5l0.375 0.125q0.375 0.125 0.375 0.375t-0.375 0.375l-0.375 0.125v-0.5" fill="#a0968c"/>
   <path d="m3.25 3.5q0-0.25 0.25-0.25t0.25 0.25-0.25 0.25-0.25-0.25" fill="#5b615f"/>
   <path d="m5.875 3.625-0.125-0.375 0.1875 0.5625-0.0625-0.1875q-0.0625-0.1875-0.1875-0.3125l-0.125-0.125 0.125 0.125 0.59375-0.59375-0.15625-0.09375 0.15625 0.09375q0.15625 0.09375 0.34375 0.15625l0.1875 0.0625-0.5625-0.1875 0.375 0.125q0.375 0.125 0.875 0.125t1 0 1 0 1 0 1 0 1 0 1 0 1 0 1 0 0.875-0.125l0.375-0.125-0.5625 0.1875 0.1875-0.0625q0.1875-0.0625 0.34375-0.15625l0.15625-0.09375-0.15625 0.09375 0.59375 0.59375 0.125-0.125-0.125 0.125q-0.125 0.125-0.1875 0.3125l-0.0625 0.1875 0.1875-0.5625-0.125 0.375q-0.125 0.375-0.125 0.875t0 1-0.375 0.625-0.625 0.375-0.625 0.375-0.875 0.125-1 0-0.875-0.125-0.625-0.375-0.5-0.25-0.5 0.25-0.625 0.375-0.875 0.125-1 0-0.875-0.125-0.625-0.375-0.625-0.375-0.375-0.625 0-1-0.125-0.875m8.625 2.375q0.5 0 0.875-0.125t0.5-0.5 0-0.75-0.5-0.5l-0.375-0.125h0.75-0.25q-0.25 0-0.40625 0.09375l-0.15625 0.09375 0.15625-0.09375h-1.1875l0.15625 0.09375-0.15625-0.09375q-0.15625-0.09375-0.40625-0.09375h-0.25 0.75-0.5q-0.5 0-1 0t-1 0-1 0h-0.5 0.75-0.25q-0.25 0-0.40625 0.09375l-0.15625 0.09375 0.15625-0.09375h-1.1875l0.15625 0.09375-0.15625-0.09375q-0.15625-0.09375-0.40625-0.09375h-0.25 0.75-0.5q-0.5 0-0.875 0.125t-0.5 0.5 0 0.75 0.5 0.5l0.375 0.125h-0.75 0.25q0.25 0 0.40625-0.09375l0.15625-0.09375-0.15625 0.09375h1.1875l-0.15625-0.09375 0.15625 0.09375q0.15625 0.09375 0.40625 0.09375h0.25-0.75 0.5q0.5 0 0.875-0.125t0.625-0.375 0.5-0.25 0.5 0.25 0.625 0.375l0.375 0.125h-0.75 0.25q0.25 0 0.40625-0.09375l0.15625-0.09375-0.15625 0.09375h1.1875l-0.15625-0.09375 0.15625 0.09375q0.15625 0.09375 0.40625 0.09375h0.25-0.75 0.5" fill="#c0c0c0"/>
   <path d="m19.25 3.5q0-0.25 0.25-0.25t0.25 0.25-0.25 0.25-0.25-0.25" fill="#767771"/>
   <path d="m4 4.5q0.25-0.25 0.625-0.375t0.85938-0.10938l0.48438 0.015625-0.03125-0.21875 0.03125 0.21875q0.03125 0.21875 0.03125 0.46875v0.25-0.75 0.5q0 0.5 0 1v0.5-0.75 0.25q0 0.25 0.09375 0.40625l0.09375 0.15625-0.09375-0.15625-0.54688 0.046875q-0.54688 0.046875-0.92188 0.17188t-0.625 0.375-0.625 0.375-0.75 0-0.5-0.5 0-0.75 0.5-0.5 0.75-0.25 0.625-0.375" fill="#804000"/>
   <path d="m7.125 4.625q0.125-0.375 0.5-0.5t0.875-0.125 0.625 0.375 0.375 0.375 0.375-0.375 0.625-0.375 1 0 1 0 1 0 0.625 0.375 0.375 0.375 0.375-0.375 0.5-0.25 0.5 0.5 0 0.75-0.5 0.5-0.875 0.125-0.625-0.375-0.375-0.375-0.375 0.375-0.5 0.25-0.625-0.375-0.5-0.25-0.5 0.25-0.625 0.375-0.875 0.125-0.625-0.375-0.375-0.375-0.375 0.375-0.5 0.25-0.5-0.5 0-0.75"/>
   <path d="m9.125 4.375-0.125-0.375 0.1875 0.5625-0.0625-0.1875q-0.0625-0.1875-0.21875-0.28125l-0.15625-0.09375 0.15625 0.09375h1.1875l0.15625-0.09375-0.15625 0.09375q-0.15625 0.09375-0.21875 0.28125l-0.0625 0.1875 0.1875-0.5625-0.125 0.375q-0.125 0.375-0.375 0.375t-0.375-0.375" fill="#fff"/>
   <path d="m14.125 4.375-0.125-0.375 0.1875 0.5625-0.0625-0.1875q-0.0625-0.1875-0.21875-0.28125l-0.15625-0.09375 0.15625 0.09375h1.1875l0.15625-0.09375-0.15625 0.09375q-0.15625 0.09375-0.21875 0.28125l-0.0625 0.1875 0.1875-0.5625-0.125 0.375q-0.125 0.375-0.375 0.375t-0.375-0.375" fill="#fff"/>
   <path d="m17 4.5v-0.5 0.75-0.25q0-0.25 0.03125-0.46875l0.03125-0.21875-0.03125 0.21875 0.48438-0.015625q0.48438-0.015625 0.85938 0.10938t0.625 0.375 0.625 0.375 0.75 0.25 0.5 0.5 0 0.75-0.5 0.5-0.75 0-0.625-0.375-0.625-0.375-0.92188-0.17188l-0.54688-0.046875-0.09375 0.15625 0.09375-0.15625q0.09375-0.15625 0.09375-0.40625v-0.25 0.75-0.5q0-0.5 0-1" fill="#804000"/>
   <path d="m8.125 5.625q0.125-0.375 0.375-0.375t0.375 0.375l0.125 0.375-0.1875-0.5625 0.0625 0.1875q0.0625 0.1875 0.21875 0.28125l0.15625 0.09375-0.15625-0.09375h-1.1875l-0.15625 0.09375 0.15625-0.09375q0.15625-0.09375 0.21875-0.28125l0.0625-0.1875-0.1875 0.5625 0.125-0.375" fill="#fff"/>
   <path d="m13.125 5.625q0.125-0.375 0.375-0.375t0.375 0.375l0.125 0.375-0.1875-0.5625 0.0625 0.1875q0.0625 0.1875 0.21875 0.28125l0.15625 0.09375-0.15625-0.09375h-1.1875l-0.15625 0.09375 0.15625-0.09375q0.15625-0.09375 0.21875-0.28125l0.0625-0.1875-0.1875 0.5625 0.125-0.375" fill="#fff"/>
   <path d="m27.125 5.625q0.125-0.375 0.375-0.375t0.375 0.375 0.125 0.875 0 1-0.125 0.875-0.375 0.375-0.375-0.375-0.125-0.875 0-1 0.125-0.875" fill="#434343"/>
   <path d="m4 7.5q0.25-0.25 0.625-0.375l0.375-0.125-0.5625 0.1875 0.1875-0.0625q0.1875-0.0625 0.40625-0.09375l0.21875-0.03125-0.21875 0.03125-0.03125 0.96875-0.375 0.125q-0.375 0.125-0.5 0.5l-0.125 0.375h-0.5q-0.5 0-0.875 0.125t-0.625 0.375-0.625 0.375l-0.375 0.125v-1l0.375-0.125q0.375-0.125 0.5-0.5l0.125-0.375h0.5q0.5 0 0.875-0.125t0.625-0.375" fill="#a49a8e"/>
   <path d="m5.0156 7.5156 0.015625-0.48438-0.21875 0.03125 0.21875-0.03125q0.21875-0.03125 0.46875-0.03125h0.25-0.75 1-0.75 0.25q0.25 0 0.46875 0.03125l0.21875 0.03125-0.21875-0.03125 0.28125 0.71875-0.1875-0.5625 0.0625 0.1875q0.0625 0.1875 0.15625 0.34375l0.09375 0.15625-0.09375-0.15625-0.26562 0.26562q-0.26562 0.26562-0.64062 0.14062l-0.375-0.125 0.015625-0.48438" fill="#5b615f"/>
   <path d="m6.1094 7.3906-0.14062-0.35938-0.21875-0.03125 0.21875 0.03125q0.21875 0.03125 0.40625 0.09375l0.1875 0.0625-0.5625-0.1875 0.375 0.125q0.375 0.125 0.625 0.375t0.625 0.375 0.875 0.125h0.5v1h-0.5q-0.5 0-1 0h-0.5l-0.125-0.375q-0.125-0.375-0.375-0.625t-0.39062-0.60938" fill="#a49a8e"/>
   <path d="m11 7.5q0.25-0.25 0.5-0.25t0.375 0.375l0.125 0.375-0.375 0.125q-0.375 0.125-0.64062-0.14062l-0.26562-0.26562-0.15625 0.09375 0.15625-0.09375q0.15625-0.09375 0.28125-0.21875l0.125-0.125-0.375 0.375 0.25-0.25" fill="#a49a8e"/>
   <path d="m16 7.5q0.25-0.25 0.625-0.375l0.375-0.125-0.5625 0.1875 0.1875-0.0625q0.1875-0.0625 0.40625-0.09375l0.21875-0.03125-0.21875 0.03125-0.14062 0.35938q-0.14062 0.35938-0.39062 0.60938l-0.25 0.25 0.375-0.375-0.125 0.125q-0.125 0.125-0.21875 0.28125l-0.09375 0.15625 0.09375-0.15625-0.5625-0.5625-0.15625 0.09375 0.15625-0.09375q0.15625-0.09375 0.28125-0.21875l0.125-0.125-0.375 0.375 0.25-0.25" fill="#5b615d"/>
   <path d="m16.891 7.3906 0.14062-0.35938-0.21875 0.03125 0.21875-0.03125q0.21875-0.03125 0.46875-0.03125h0.25-0.75 0.5q0.5 0 0.875 0.125t0.5 0.5l0.125 0.375h-1l-0.375 0.125q-0.375 0.125-0.64062-0.14062l-0.26562-0.26562-0.09375 0.15625 0.09375-0.15625q0.09375-0.15625 0.15625-0.34375l0.0625-0.1875-0.1875 0.5625 0.14062-0.35938" fill="#a49a8e"/>
  </g>
  <g fill="#767771">
   <path d="M 1.125,8.625 Q 1.25,8.25 1.625,8.125 L 2,8 1.875,8.375 Q 1.75,8.75 1.375,8.875 L 1,9 1.125,8.625"/>
   <path d="m4.125 8.625q0.125-0.375 0.5-0.5l0.375-0.125 0.375 0.125q0.375 0.125 0.64062-0.14062l0.26562-0.26562-0.09375-0.15625 0.09375 0.15625q0.09375 0.15625 0.21875 0.28125l0.125 0.125-0.375-0.375 0.25 0.25q0.25 0.25 0.375 0.625l0.125 0.375h-0.5q-0.5 0-1 0t-1 0h-0.5l0.125-0.375"/>
   <path d="m9 8.5v-0.5h0.5q0.5 0 0.875-0.125l0.375-0.125-0.5625 0.1875 0.1875-0.0625q0.1875-0.0625 0.34375-0.15625l0.15625-0.09375-0.15625 0.09375 0.26562 0.26562q0.26562 0.26562 0.64062 0.14062l0.375-0.125v1h-0.5q-0.5 0-1 0t-1 0h-0.5v-0.5"/>
  </g>
  <g>
   <path d="m12 8.5v-0.5h0.5q0.5 0 1 0t1 0 0.875-0.125l0.375-0.125-0.5625 0.1875 0.1875-0.0625q0.1875-0.0625 0.34375-0.15625l0.15625-0.09375-0.15625 0.09375 0.5625 0.5625 0.09375-0.15625-0.09375 0.15625q-0.09375 0.15625-0.15625 0.34375l-0.0625 0.1875 0.1875-0.5625-0.25 0.75h-0.5q-0.5 0-1 0t-1 0-1 0h-0.5v-0.5m3.625 0.5h0.625-0.25q-0.25 0-0.5 0h-0.25 0.375" fill="#5b615f"/>
   <path d="m16.125 8.625q0.125-0.375 0.375-0.625l0.25-0.25-0.375 0.375 0.125-0.125q0.125-0.125 0.21875-0.28125l0.09375-0.15625-0.09375 0.15625 0.26562 0.26562q0.26562 0.26562 0.64062 0.14062l0.375-0.125v1h-0.5q-0.5 0-1 0h-0.5l0.125-0.375m-0.25 0.375h0.875-0.25q-0.25 0-0.5 0h-0.25 0.125" fill="#a0968c"/>
   <path d="m18 8.5v-0.5h1v1h-1v-0.5" fill="#767771"/>
   <path d="m19 8.5v-0.5h0.5q0.5 0 1 0t0.875 0.125 0.5 0.5l0.125 0.375-0.1875-0.5625 0.0625 0.1875q0.0625 0.1875 0.09375 0.40625l0.03125 0.21875-0.03125-0.21875-0.48438-0.015625q-0.48438-0.015625-0.98438-0.015625t-1 0h-0.5v-0.5" fill="#5b615d"/>
   <path d="m32 8.5q0.25-0.25 0.5-0.25t0.375 0.375 0 0.75-0.5 0.5-0.75 0.25-0.625 0.375-0.5 0.25-0.375-0.375 0-0.75 0.5-0.5 0.75-0.25 0.625-0.375" fill="#434343"/>
   <path d="m2 9.5q0.25-0.25 0.625-0.375l0.375-0.125-0.5625 0.1875 0.1875-0.0625q0.1875-0.0625 0.40625-0.09375l0.21875-0.03125-0.21875 0.03125 0.21875 0.71875-0.1875-0.5625 0.0625 0.1875q0.0625 0.1875 0.15625 0.34375l0.09375 0.15625-0.09375-0.15625-0.5625 0.625 0.09375 0.09375-0.09375-0.09375q-0.09375-0.09375-0.21875-0.09375h-0.125 0.375-0.5 0.375-0.125q-0.125 0-0.21875 0.09375l-0.09375 0.09375 0.09375-0.09375-0.5625-0.625-0.15625 0.09375 0.15625-0.09375q0.15625-0.09375 0.28125-0.21875l0.125-0.125-0.375 0.375 0.25-0.25" fill="#5b615f"/>
   <path d="m20.125 9.375-0.125-0.375h0.5q0.5 0 0.98438 0.015625l0.48438 0.015625-0.03125-0.21875 0.03125 0.21875q0.03125 0.21875 0.03125 0.46875v0.25-0.75 1h-0.5q-0.5 0-0.875-0.125t-0.5-0.5m1.875 0.75v-0.875 0.25q0 0.25 0 0.5v0.25-0.125m-1.625-1.125h-0.625 0.25q0.25 0 0.5 0h0.25-0.375" fill="#a49a8e"/>
   <path d="m1 10.5v-0.5l0.75-0.25-0.5625 0.1875 0.1875-0.0625q0.1875-0.0625 0.34375-0.15625l0.15625-0.09375-0.15625 0.09375 0.5625 0.625 0.09375-0.09375-0.09375 0.09375q-0.09375 0.09375-0.15625 0.28125l-0.0625 0.1875 0.1875-0.5625-0.25 0.75h-1v-0.5" fill="#767771"/>
   <path d="m2.875 10.625-0.125-0.375 0.1875 0.5625-0.0625-0.1875q-0.0625-0.1875-0.15625-0.28125l-0.09375-0.09375 0.09375 0.09375 0.5625-0.625-0.09375-0.15625 0.09375 0.15625q0.09375 0.15625 0.21875 0.28125l0.125 0.125-0.375-0.375 0.25 0.25q0.25 0.25 0.375 0.625t0 0.75-0.375 0.375-0.375-0.375-0.25-0.75" fill="#5b615d"/>
   <path d="m19.125 10.625q0.125-0.375 0.375-0.375t0.375 0.375 0 0.75-0.375 0.375-0.375-0.375 0-0.75" fill="#5b615d"/>
   <path d="m21.016 10.484 0.015625-0.51562-0.21875-0.03125 0.21875 0.03125q0.21875 0.03125 0.46875 0.03125h0.25-0.75 1v1-0.75 0.25q0 0.25-0.03125 0.46875l-0.03125 0.21875 0.03126-0.21875h-0.93751l0.03126 0.21875-0.03125-0.21875q-0.03126-0.21875-0.03126-0.46875v-0.25 0.75l0.01563-0.51562m0.98437-0.10938v-0.625 0.25q0 0.25 0 0.5v0.25-0.375" fill="#5b615f"/>
   <path d="m27.125 10.625q0.125-0.375 0.5-0.5t0.75 0 0.5 0.5 0.125 0.875 0.125 0.875 0.375 0.625 0.5 0.5 0.5 0.5 0.25 0.5-0.25 0.25-0.5-0.25-0.5-0.25-0.5 0.25-0.625 0.375-0.75 0-0.5-0.5-0.125-0.875 0-1 0-1 0.125-0.875" fill="#434343"/>
  </g>
  <path d="m33.125 10.625q0.125-0.375 0.5-0.5l0.375-0.125v11h-3v-0.5q0-0.5 0-1t-0.375-0.625-0.5-0.5-0.125-0.875-0.375-0.625-0.5-0.5 0-0.75 0.375-0.375 0.375 0.375 0.5 0.5 0.5 0.5 0.625 0.375 0.625-0.375 0.5-0.5 0.375-0.625-0.375-0.625-0.5-0.5-0.5-0.5-0.5-0.5-0.5-0.5-0.5-0.5 0.375-0.375 0.625-0.375 0.5-0.5 0.875-0.125 0.625-0.375" fill-opacity="0"/>
  <path d="m1.125 11.375-0.125-0.375h1l-0.125 0.375q-0.125 0.375-0.375 0.375t-0.375-0.375" fill="#a0968c"/>
  <path d="m5 11.5q0.25-0.25 0.5-0.25t0.375 0.375 0.125 0.875 0.125 0.875 0.375 0.625 0.375 0.625l0.125 0.375h-0.5q-0.5 0-1 0t-1 0h-0.5 0.75-0.25q-0.25 0-0.375 0.125l-0.125 0.125 0.125-0.125-0.0625-0.5625q-0.0625-0.5625-0.0625-1.0625t0.125-0.875 0.375-0.625 0.5-0.5m1.625 3.5h0.625-0.25q-0.25 0-0.5 0h-0.25 0.375" fill="#002868"/>
  <g fill="#fff">
   <path d="m9.125 11.625q0.125-0.375 0.375-0.375t0.375 0.375 0 0.75-0.375 0.375-0.375-0.375 0-0.75"/>
   <path d="m11.125 11.625q0.125-0.375 0.375-0.375t0.375 0.375-0.375 0.375-0.375-0.375"/>
   <path d="m15.125 11.625q0.125-0.375 0.375-0.375t0.375 0.375 0 0.75-0.375 0.375-0.375-0.375 0-0.75"/>
   <path d="m17.125 11.625q0.125-0.375 0.375-0.375t0.375 0.375-0.375 0.375-0.375-0.375"/>
  </g>
  <g>
   <path d="m21.125 11.375-0.125-0.375 0.1875 0.5625-0.0625-0.1875q-0.0625-0.1875-0.09375-0.40625l-0.03125-0.21875 0.03126 0.21875h0.93749l0.03125-0.21875-0.03125 0.21875q-0.03125 0.21875-0.09375 0.40625l-0.0625 0.1875 0.1875-0.5625-0.125 0.375q-0.125 0.375-0.375 0.375t-0.375-0.375" fill="#a0968c"/>
   <path d="m2.25 12.5q0-0.25 0.25-0.25t0.25 0.25-0.25 0.25-0.25-0.25" fill="#5b615d"/>
   <path d="m11.125 12.5v-0.625l-0.125-0.125 0.125 0.125q0.125 0.125 0.375 0.125h0.25-0.75 1-0.75 0.25q0.25 0 0.375-0.125l0.125-0.125-0.125 0.125v1.25l0.125 0.125-0.125-0.125q-0.125-0.125-0.375-0.125h-0.25 0.75-1 0.75-0.25q-0.25 0-0.375 0.125l-0.125 0.125 0.125-0.125v-0.625" fill="#bf0a30"/>
   <path d="m17.125 12.5v-0.625l-0.125-0.125 0.125 0.125q0.125 0.125 0.375 0.125h0.25-0.75 1-0.75 0.25q0.25 0 0.375-0.125l0.125-0.125-0.125 0.125 0.4375 0.1875q0.4375 0.1875 0.5 0.625l0.0625 0.4375 0.125 0.125-0.125-0.125q-0.125-0.125-0.375-0.125h-0.25 0.75-0.5q-0.5 0-1 0h-0.5 0.75-0.25q-0.25 0-0.375 0.125l-0.125 0.125 0.125-0.125v-0.625" fill="#bf0a30"/>
   <path d="m20.25 12.5q0-0.25 0.25-0.25t0.25 0.25-0.25 0.25-0.25-0.25" fill="#5b615d"/>
  </g>
  <path d="m0 13.5v-0.5h0.5q0.5 0 0.5 0.5t0.5 0.5 1 0 0.5 0.5 0 1 0.375 0.625 0.5 0.5 0.125 0.875 0.5 0.5 0.5 0.5 0.5 0.5 0.875 0.125 0.5 0.5 0.625 0.375 0.5 0.5v0.5h-8v-7.5" fill-opacity="0"/>
  <g fill="#fff">
   <path d="m8.25 13.5q0-0.25 0.25-0.25t0.25 0.25-0.25 0.25-0.25-0.25"/>
   <path d="m11 13.5q0-0.5 0.5-0.5t0.5 0.5-0.5 0.5h-0.5v-0.5"/>
   <path d="m14.25 13.5q0-0.25 0.25-0.25t0.25 0.25-0.25 0.25-0.25-0.25"/>
   <path d="m17 13.5q0-0.5 0.5-0.5t1 0 0.5 0.5-0.5 0.5-1 0-0.5-0.5"/>
  </g>
  <g>
   <path d="m10.125 14.625q0.125-0.375 0.5-0.5l0.375-0.125v1h-1l0.125-0.375m-0.25 0.375h0.875-0.25q-0.25 0-0.5 0h-0.25 0.125m0.75 0h0.625-0.25q-0.25 0-0.5 0h-0.25 0.375" fill="#002868"/>
   <path d="m11 14.5v-0.5h1-0.75 0.25q0.25 0 0.375-0.125l0.125-0.125-0.125 0.125 0.4375 0.1875q0.4375 0.1875 0.5625 0.5625l0.125 0.375h-0.5q-0.5 0-1 0h-0.5v-0.5m-0.125 0.5h0.875-0.25q-0.25 0-0.5 0h-0.25 0.125m1.75 0h0.625-0.25q-0.25 0-0.5 0h-0.25 0.375" fill="#bf0a30"/>
   <path d="m16.125 14.625q0.125-0.375 0.5625-0.5625l0.4375-0.1875-0.125-0.125 0.125 0.125q0.125 0.125 0.375 0.125h0.25-0.75 0.5q0.5 0 1 0h0.5-0.75 0.25q0.25 0 0.375-0.125l0.125-0.125-0.125 0.125v1.25l0.125 0.125-0.125-0.125q-0.125-0.125-0.375-0.125h-0.25 0.75-0.5q-0.5 0-1 0t-1 0h-0.5l0.125-0.375m-0.25 0.375h0.875-0.25q-0.25 0-0.5 0h-0.25 0.125" fill="#bf0a30"/>
   <path d="m4.125 15.375q-0.125-0.375 0.375-0.375t1 0 1 0 1 0 1 0 1 0 1 0 1 0 1 0 1 0 1 0 1 0 1 0 1 0 1 0 0.375 0.375-0.5 0.5-0.875 0.125-1 0-1 0-1 0-1 0-1 0-1 0-1 0-1 0-1 0-1 0-1 0-1 0-0.875-0.125-0.5-0.5" fill="#fff"/>
   <path d="m31.25 15.5q0-0.25 0.25-0.25t0.25 0.25-0.25 0.25-0.25-0.25" fill="#434343"/>
   <path d="m5.1406 16.359-0.10938-0.39062-0.21875-0.03125 0.21875 0.03125q0.21875 0.03125 0.46875 0.03125h0.25-0.75 0.5q0.5 0 1 0t1 0 1 0 1 0 1 0 1 0 1 0 1 0 1 0 1 0 1 0 1 0h0.5-0.75 0.25q0.25 0 0.46875-0.03125l0.21875-0.03125-0.21875 0.03126-0.10938 0.39062q-0.10938 0.39062-0.54688 0.57812l-0.4375 0.1875 0.125 0.125-0.125-0.125q-0.125-0.125-0.375-0.125h-0.25 0.75-0.5q-0.5 0-1 0t-1 0-1 0-1 0-1 0-1 0-1 0-1 0-1 0-1 0h-0.5 0.75-0.25q-0.25 0-0.375 0.125l-0.125 0.125 0.125-0.125-0.4375-0.1875q-0.4375-0.1875-0.54688-0.57812" fill="#bf0a30"/>
   <path d="m27.125 16.625q0.125-0.375 0.375-0.375t0.5 0.25 0.5 0.5 0.375 0.625 0.25 0.75 0.375 0.625 0.25 0.5-0.375 0.375-0.875 0.125-0.875-0.125-0.5-0.5-0.125-0.875 0-1 0.125-0.875" fill="#434343"/>
   <path d="m6.125 17.375q-0.125-0.375 0.375-0.375t1 0 1 0 1 0 1 0 1 0 1 0 1 0 1 0 1 0 1 0 0.375 0.375-0.5 0.5-0.875 0.125-1 0-1 0-1 0-1 0-1 0-1 0-1 0-1 0-0.875-0.125-0.5-0.5" fill="#fff"/>
   <path d="m7.1406 18.359-0.10938-0.39062-0.21875-0.03125 0.21875 0.03125q0.21875 0.03125 0.46875 0.03125h0.25-0.75 0.5q0.5 0 1 0t1 0 1 0 1 0 1 0 1 0 1 0 1 0h0.5-0.75 0.25q0.25 0 0.46875-0.03125l0.21875-0.03125-0.21875 0.03126-0.10938 0.39062q-0.10938 0.39062-0.48438 0.51562t-0.9375 0.1875l-0.5625 0.0625 0.125 0.125-0.125-0.125q-0.125-0.125-0.375-0.125h-0.25 0.75-0.5q-0.5 0-1 0t-1 0-1 0-1 0h-0.5 0.75-0.25q-0.25 0-0.375 0.125l-0.125 0.125 0.125-0.125-0.5625-0.0625q-0.5625-0.0625-0.9375-0.1875t-0.48438-0.51562" fill="#bf0a30"/>
   <path d="m9.125 19.375q-0.125-0.375 0.375-0.375t1 0 1 0 1 0 1 0 0.375 0.375-0.5 0.5-0.875 0.125-1 0-1 0-0.875-0.125-0.5-0.5" fill="#fff"/>
  </g>
 </g>
</svg>
