<svg width="17" height="14" version="1.1" viewBox="0 0 17 14" xmlns="http://www.w3.org/2000/svg">
 <g transform="translate(0)">
  <path d="m0 0.5v-0.5h5l-0.125 0.375q-0.125 0.375-0.5 0.5t-0.5 0.5-0.5 0.5-0.875 0.125-0.625 0.375-0.5 0.5-0.375 0.625-0.125 0.875-0.5 0.5l-0.375 0.125v-4.5" fill-opacity="0"/>
  <path d="m4.875 0.375 0.125-0.375h7l0.125 0.375q0.125 0.375 0.5 0.5t0.5 0.5 0.5 0.5 0.875 0.125 0.625 0.375 0.5 0.5 0.375 0.625 0.125 0.875 0.5 0.5l0.375 0.125v4l-0.375 0.125q-0.375 0.125-0.5 0.5t-0.125 0.875-0.5 0.5-0.5 0.5-0.5 0.5-0.875 0.125-0.5 0.5-0.625 0.375-0.5 0.5v0.5h-7v-0.5q0-0.5-0.5-0.5t-0.625-0.375-0.5-0.5-0.875-0.125-0.5-0.5-0.5-0.5-0.5-0.5-0.125-0.875-0.5-0.5l-0.375-0.125v-4l0.375-0.125q0.375-0.125 0.5-0.5t0.125-0.875 0.375-0.625 0.5-0.5 0.625-0.375 0.875-0.125 0.5-0.5 0.5-0.5 0.5-0.5m4.625 12.625q0.5 0 0.875-0.125t0.625-0.375 0.625-0.375 0.75-0.25 0.625-0.375 0.5-0.5 0.5-0.5 0.5-0.5 0.5-0.5 0.5-0.5 0.375-0.625 0.0625-0.9375l-0.0625-0.5625-0.125 0.125 0.125-0.125q0.125-0.125 0.125-0.375v-0.25 0.75-0.5q0-0.5-0.125-0.875t-0.5-0.5l-0.375-0.125-0.125-1.125-0.125 0.125 0.125-0.125q0.125-0.125 0.125-0.375v-0.25 0.75l-0.125-0.375q-0.125-0.375-0.5-0.5l-0.375-0.125h0.75-0.25q-0.25 0-0.375 0.125l-0.125 0.125 0.125-0.125-0.4375 0.0625q-0.4375 0.0625-0.4375 0.3125t0.375 0.375l0.375 0.125v0.5q0 0.5 0.03125 1.0312l0.03125 0.53125 0.125-0.125-0.125 0.125q-0.125 0.125-0.1875 0.3125l-0.0625 0.1875 0.1875-0.5625-0.125 0.375q-0.125 0.375-0.375 0.625t-0.375 0.625l-0.125 0.375v-0.75 0.25q0 0.25 0.125 0.375l0.125 0.125-0.125-0.125-0.5625 0.0625q-0.5625 0.0625-1.0625 0.0625t-1.0156 0.015625l-0.51562 0.015625 0.03125 0.21875-0.03125-0.21875q-0.03125-0.21875-0.09375-0.40625l-0.0625-0.1875 0.1875 0.5625-0.125-0.375q-0.125-0.375-0.375-0.625t-0.375-0.625-0.125-0.875 0.0625-1.0625l0.0625-0.5625-0.125-0.125 0.125 0.125q0.125 0.125 0.375 0.125h0.25-0.75l0.375-0.125q0.375-0.125 0.625-0.375t0.625-0.375l0.375-0.125-0.5625 0.1875 0.1875-0.0625q0.1875-0.0625 0.3125-0.1875l0.125-0.125-0.125 0.125 0.53125 0.03125q0.53125 0.03125 0.90625-0.09375t0.375-0.375-0.42188-0.42188l-0.42188-0.17188-0.09375 0.15625 0.09375-0.15625q0.09375-0.15625 0.09375-0.40625v-0.25 0.75l-0.125-0.375q-0.125-0.375-0.5-0.5t-0.875-0.125h-0.5 0.75-0.25q-0.25 0-0.375 0.125l-0.125 0.125 0.125-0.125-0.5625-0.0625q-0.5625-0.0625-1.0625-0.0625t-1.0625 0.0625l-0.5625 0.0625 0.125 0.125-0.125-0.125q-0.125-0.125-0.375-0.125h-0.25 0.75-0.5q-0.5 0-0.875 0.125t-0.5 0.5l-0.125 0.375v-0.75 0.25q0 0.25 0.09375 0.40625l0.09375 0.15625-0.09375-0.15625-0.42188 0.17188q-0.42188 0.17188-0.42188 0.42188t0.375 0.375 0.90625 0.09375l0.53125-0.03125-0.125-0.125 0.125 0.125q0.125 0.125 0.3125 0.1875l0.1875 0.0625-0.5625-0.1875 0.375 0.125q0.375 0.125 0.625 0.375t0.625 0.375l0.375 0.125h-0.75 0.25q0.25 0 0.375-0.125l0.125-0.125-0.125 0.125 0.0625 0.5625q0.0625 0.5625 0.0625 1.0625t-0.125 0.875-0.375 0.625-0.375 0.625l-0.125 0.375 0.1875-0.5625-0.0625 0.1875q-0.0625 0.1875-0.09375 0.40625l-0.03125 0.21875 0.03125-0.21875-0.51562-0.015625q-0.51562-0.015625-1.0156-0.015625t-1.0625-0.0625l-0.5625-0.0625-0.125 0.125 0.125-0.125q0.125-0.125 0.125-0.375v-0.25 0.75l-0.125-0.375q-0.125-0.375-0.375-0.625t-0.375-0.625l-0.125-0.375 0.1875 0.5625-0.0625-0.1875q-0.0625-0.1875-0.1875-0.3125l-0.125-0.125 0.125 0.125 0.03125-0.53125q0.03125-0.53125 0.03125-1.0312v-0.5l0.375-0.125q0.375-0.125 0.375-0.375t-0.4375-0.3125l-0.4375-0.0625 0.125 0.125-0.125-0.125q-0.125-0.125-0.375-0.125h-0.25 0.75l-0.375 0.125q-0.375 0.125-0.5 0.5l-0.125 0.375v-0.75 0.25q0 0.25 0.125 0.375l0.125 0.125-0.125-0.125-0.125 1.125-0.375 0.125q-0.375 0.125-0.5 0.5t-0.125 0.875v0.5-0.75 0.25q0 0.25 0.125 0.375l0.125 0.125-0.125-0.125-0.0625 0.5625q-0.0625 0.5625 0.0625 0.9375t0.375 0.625 0.5 0.5 0.5 0.5 0.5 0.5 0.5 0.5 0.5 0.5 0.625 0.375 0.75 0.25 0.625 0.375 0.625 0.375 0.875 0.125 1 0 1 0m2-6q0.5 0 0.875-0.125t0.5-0.5 0.125-0.875-0.125-0.875-0.5-0.5-0.875-0.125-0.875 0.125-0.5 0.5-0.125 0.875 0.125 0.875 0.5 0.5 0.875 0.125m-6 0q0.5 0 0.875-0.125t0.5-0.5 0.125-0.875-0.125-0.875-0.5-0.5-0.875-0.125-0.875 0.125-0.5 0.5-0.125 0.875 0.125 0.875 0.5 0.5 0.875 0.125"/>
  <path d="m12.125 0.375-0.125-0.375h5v5l-0.375-0.125q-0.375-0.125-0.5-0.5t-0.125-0.875-0.375-0.625-0.5-0.5-0.625-0.375-0.875-0.125-0.5-0.5-0.5-0.5-0.5-0.5" fill-opacity="0"/>
  <g>
   <path d="m5.125 1.625q0.125-0.375 0.5-0.5t0.875-0.125 0.5 0.5 0.125 0.875 0.375 0.625 0.375 0.625-0.25 0.25-0.625-0.375-0.625-0.375-0.5-0.5-0.5-0.5-0.25-0.5" fill="#fed700"/>
   <path d="m7 1.5v-0.5 0.75-0.25q0-0.25-0.125-0.375l-0.125-0.125 0.125 0.125 0.5625-0.0625q0.5625-0.0625 1.0625-0.0625t1.0625 0.0625l0.5625 0.0625 0.125-0.125-0.125 0.125q-0.125 0.125-0.125 0.375v0.25-0.75 0.5q0 0.5-0.125 0.875t-0.375 0.625-0.375 0.625l-0.125 0.375v-0.75 0.25q0 0.25 0.125 0.375l0.125 0.125-0.125-0.125-0.125 1.125h-1l-0.125-1.125-0.125 0.125 0.125-0.125q0.125-0.125 0.125-0.375v-0.25 0.75l-0.125-0.375q-0.125-0.375-0.375-0.625t-0.375-0.625-0.125-0.875m1 3.125v0.625-0.25q0-0.25 0-0.5v-0.25 0.375m1 0.5v-0.875 0.25q0 0.25 0 0.5v0.25-0.125" fill="#bf0a30"/>
   <path d="m10 1.5q0-0.5 0.5-0.5t0.875 0.125 0.5 0.5-0.25 0.5-0.5 0.5-0.5 0.5-0.625 0.375-0.625 0.375-0.25-0.25 0.375-0.625 0.375-0.625 0.125-0.875" fill="#fed700"/>
   <path d="m4.25 2.5q0-0.25 0.42188-0.42188l0.42188-0.17188-0.09375-0.15625 0.09375 0.15625q0.09375 0.15625 0.28125 0.21875l0.1875 0.0625-0.5625-0.1875 0.375 0.125q0.375 0.125 0.5 0.5l0.125 0.375-0.1875-0.5625 0.0625 0.1875q0.0625 0.1875 0.1875 0.3125l0.125 0.125-0.125-0.125-0.53125 0.03125q-0.53125 0.03125-0.90625-0.09375t-0.375-0.375" fill="#bf0a30"/>
   <path d="m11.125 2.625q0.125-0.375 0.5-0.5l0.375-0.125-0.5625 0.1875 0.1875-0.0625q0.1875-0.0625 0.28125-0.21875l0.09375-0.15625-0.09375 0.15625 0.42188 0.17188q0.42188 0.17188 0.42188 0.42188t-0.375 0.375-0.90625 0.09375l-0.53125-0.03125-0.125 0.125 0.125-0.125q0.125-0.125 0.1875-0.3125l0.0625-0.1875-0.1875 0.5625 0.125-0.375" fill="#bf0a30"/>
   <path d="m2.125 3.625q0.125-0.375 0.5-0.5t0.375 0.375v0.5h-0.5q-0.5 0-0.375-0.375" fill="#fed700"/>
   <path d="m3 3.5v-0.5 0.75-0.25q0-0.25-0.125-0.375l-0.125-0.125 0.125 0.125 0.4375 0.0625q0.4375 0.0625 0.4375 0.3125t-0.375 0.375l-0.375 0.125v-0.5" fill="#bf0a30"/>
   <path d="m13.25 3.5q0-0.25 0.4375-0.3125l0.4375-0.0625 0.125-0.125-0.125 0.125q-0.125 0.125-0.125 0.375v0.25-0.75 1l-0.375-0.125q-0.375-0.125-0.375-0.375" fill="#bf0a30"/>
   <path d="m14 3.5q0-0.5 0.375-0.375t0.5 0.5-0.375 0.375h-0.5v-0.5" fill="#fed700"/>
   <path d="m2.0625 4.4375 0.0625-0.5625-0.125-0.125 0.125 0.125q0.125 0.125 0.375 0.125h0.25-0.75 1v1h-1l0.0625-0.5625m0.9375 0.6875v-0.875 0.25q0 0.25 0 0.5v0.25-0.125" fill="#bb133e"/>
   <path d="m4.125 4.625q0.125-0.375 0.5-0.5t0.875-0.125 0.875 0.125 0.5 0.5 0.125 0.875-0.125 0.875-0.5 0.5-0.875 0.125-0.875-0.125-0.5-0.5-0.125-0.875 0.125-0.875" fill="#fff"/>
   <path d="m10.125 4.625q0.125-0.375 0.5-0.5t0.875-0.125 0.875 0.125 0.5 0.5 0.125 0.875-0.125 0.875-0.5 0.5-0.875 0.125-0.875-0.125-0.5-0.5-0.125-0.875 0.125-0.875" fill="#fff"/>
   <path d="m14 4.5v-0.5h1-0.75 0.25q0.25 0 0.375-0.125l0.125-0.125-0.125 0.125 0.125 1.125h-1v-0.5m0 0.125v0.625-0.25q0-0.25 0-0.5v-0.25 0.375" fill="#bb133e"/>
   <path d="m1.125 5.625q0.125-0.375 0.5-0.5l0.375-0.125 0.125 0.375q0.125 0.375 0.5 0.5t0.5 0.5 0.375 0.625 0.375 0.625-0.375 0.375h-0.5l-0.125-0.375q-0.125-0.375-0.5-0.5t-0.875-0.125-0.5-0.5 0.125-0.875m1.75 2.375h0.875-0.25q-0.25 0-0.5 0h-0.25 0.125" fill="#fed700"/>
   <path d="m2.125 5.375-0.125-0.375h1l-0.0625 1.0625 0.125 0.125-0.125-0.125q-0.125-0.125-0.3125-0.1875l-0.1875-0.0625 0.5625 0.1875-0.375-0.125q-0.375-0.125-0.5-0.5m0.875 0v-0.625 0.25q0 0.25 0 0.5v0.25-0.375" fill="#bf0a30"/>
   <path d="m8 5.5v-0.5h1v0.5q0 0.5 0.125 0.875t0.375 0.625 0.375 0.625 0.125 0.875-0.125 0.875-0.375 0.375-0.5-0.25-0.5-0.25-0.5 0.25-0.5 0.25-0.375-0.375-0.125-0.875 0.125-0.875 0.375-0.625 0.375-0.625 0.125-0.875m1-0.125v-0.625 0.25q0 0.25 0 0.5v0.25-0.375m-1-0.5v0.875-0.25q0-0.25 0-0.5v-0.25 0.125" fill="#ce5c17"/>
   <path d="m14.031 5.5312-0.03125-0.53125h1l-0.125 0.375q-0.125 0.375-0.5 0.5l-0.375 0.125 0.5625-0.1875-0.1875 0.0625q-0.1875 0.0625-0.3125 0.1875l-0.125 0.125 0.125-0.125-0.03125-0.53125m-0.03125-0.65625v0.875-0.25q0-0.25 0-0.5v-0.25 0.125" fill="#bf0a30"/>
   <path d="m14.875 5.375 0.125-0.375 0.375 0.125q0.375 0.125 0.5 0.5t0.125 0.875-0.5 0.5-0.875 0.125-0.5 0.5l-0.125 0.375h-0.5q-0.5 0-0.375-0.375t0.375-0.625 0.375-0.625 0.5-0.5 0.5-0.5m-1.25 2.625h0.625-0.25q-0.25 0-0.5 0h-0.25 0.375" fill="#fed700"/>
   <path d="m1.0625 7.4375 0.0625-0.5625-0.125-0.125 0.125 0.125q0.125 0.125 0.375 0.125h0.25-0.75 0.5q0.5 0 0.875 0.125t0.5 0.5l0.125 0.375h-0.5q-0.5 0-0.98438-0.015625l-0.48438-0.015625 0.03125 0.21875-0.03125-0.21875q-0.03125-0.21875-0.03125-0.46875v-0.25 0.75l0.0625-0.5625m1.5625 0.5625h0.625-0.25q-0.25 0-0.5 0h-0.25 0.375" fill="#bb133e"/>
   <path d="m14.125 7.625q0.125-0.375 0.5-0.5t0.875-0.125h0.5-0.75 0.25q0.25 0 0.375-0.125l0.125-0.125-0.125 0.125 0.125 1.125v-0.75 0.25q0 0.25-0.03125 0.46875l-0.03125 0.21875 0.03125-0.21875-0.48438 0.015625q-0.48438 0.015625-0.98438 0.015625h-0.5l0.125-0.375m-0.25 0.375h0.875-0.25q-0.25 0-0.5 0h-0.25 0.125" fill="#bb133e"/>
   <path d="m1.125 8.375-0.125-0.375 0.1875 0.5625-0.0625-0.1875q-0.0625-0.1875-0.09375-0.40625l-0.03125-0.21875 0.03125 0.21875 0.48438 0.015625q0.48438 0.015625 0.98438 0.015625t1 0h0.5-0.75 0.25q0.25 0 0.375-0.125l0.125-0.125-0.125 0.125 0.5625 0.0625q0.5625 0.0625 1.0625 0.0625t1.0156 0.015625l0.51562 0.015625 0.03125-0.21875-0.03125 0.21875q-0.03125 0.21875-0.03125 0.46875v0.25-0.75 0.5q0 0.5 0.125 0.875t0.375 0.375 0.5-0.25 0.5-0.25 0.5 0.25 0.5 0.25 0.375-0.375 0.125-0.875v-0.5 0.75-0.25q0-0.25-0.03125-0.46875l-0.03125-0.21875 0.03125 0.21875 0.51562-0.015625q0.51562-0.015625 1.0156-0.015625t1.0625-0.0625l0.5625-0.0625-0.125-0.125 0.125 0.125q0.125 0.125 0.375 0.125h0.25-0.75 0.5q0.5 0 1 0t0.98438-0.015625l0.48438-0.015625 0.03125-0.21875-0.03125 0.21875q-0.03125 0.21875-0.09375 0.40625l-0.0625 0.1875 0.1875-0.5625-0.125 0.375q-0.125 0.375-0.375 0.625t-0.5 0.5-0.5 0.5-0.5 0.5-0.5 0.5-0.5 0.5-0.625 0.375-0.75 0.25-0.625 0.375-0.625 0.375-0.875 0.125-1 0-1 0-0.875-0.125-0.625-0.375-0.625-0.375-0.75-0.25-0.625-0.375-0.5-0.5-0.5-0.5-0.5-0.5-0.5-0.5-0.5-0.5-0.375-0.625" fill="#002868"/>
  </g>
  <path d="m0 9.5v-0.5l0.375 0.125q0.375 0.125 0.5 0.5t0.125 0.875 0.5 0.5 0.5 0.5 0.5 0.5 0.875 0.125 0.5 0.5 0.625 0.375 0.5 0.5v0.5h-5v-4.5" fill-opacity="0"/>
  <path d="m16.125 9.625q0.125-0.375 0.5-0.5l0.375-0.125v5h-5v-0.5q0-0.5 0.5-0.5t0.625-0.375 0.5-0.5 0.875-0.125 0.5-0.5 0.5-0.5 0.5-0.5 0.125-0.875" fill-opacity="0"/>
 </g>
</svg>
