<svg width="19" height="16" version="1.1" viewBox="0 0 19 16" xmlns="http://www.w3.org/2000/svg">
 <g transform="translate(0)">
  <path d="m0 0.5v-0.5h4l-0.125 0.375q-0.125 0.375-0.5 0.5t-0.375 0.625 0 1 0 1-0.5 0.5-0.625 0.375-0.5 0.5-0.375 0.625-0.125 0.875-0.5 0.5l-0.375 0.125v-6.5" fill-opacity="0"/>
  <path d="m3.875 0.375 0.125-0.375h11l0.125 0.375q0.125 0.375 0.5 0.5t0.375 0.625 0 1 0.5 0.5 0.625 0.375 0.5 0.5 0.5 0.5 0.5 0.5l0.375 0.125v6l-0.375 0.125q-0.375 0.125-0.5 0.5t-0.625 0.375-1 0-0.5 0.5-0.5 0.5-0.5 0.5-0.5 0.5-0.875 0.125-0.5 0.5-0.625 0.375-0.5 0.5v0.5h-7v-0.5q0-0.5-0.5-0.5t-0.625-0.375-0.5-0.5-0.875-0.125-0.5-0.5-0.5-0.5-0.5-0.5-0.125-0.875-0.5-0.5l-0.375-0.125v-4l0.375-0.125q0.375-0.125 0.5-0.5t0.125-0.875 0.375-0.625 0.5-0.5 0.625-0.375 0.5-0.5 0-1 0-1 0.375-0.625 0.5-0.5m5.625 14.625q0.5 0 0.875-0.125t0.625-0.375 0.625-0.375 0.75-0.25 0.625-0.375 0.5-0.5 0.5-0.5 0.5-0.5 0.25-0.5-0.25-0.5-0.375-0.625-0.25-0.75-0.375-0.375-0.5 0.25-0.6875 0.4375l-0.4375 0.1875 0.125 0.125-0.125-0.125q-0.125-0.125-0.375-0.125h-0.25 0.75-0.5q-0.5 0-1.0156 0.01563l-0.51562 0.01562 0.03125 0.21875-0.03125-0.21875q-0.03125-0.21875-0.09375-0.40625l-0.0625-0.1875 0.1875 0.5625-0.125-0.375q-0.125-0.375-0.5-0.5l-0.375-0.125v-0.5q0-0.5 0-1t0.125-0.875 0.375-0.625 0.25-0.5-0.375-0.375-0.875-0.125-0.875 0.125-0.375 0.375 0.25 0.5 0.375 0.625 0.125 0.875 0 1v0.5l-0.375 0.125q-0.375 0.125-0.5 0.5t-0.625 0.375-1 0h-0.5 0.75-0.25q-0.25 0-0.375 0.125l-0.125 0.125 0.125-0.125-0.4375-0.1875q-0.4375-0.1875-0.6875-0.4375t-0.5-0.5-0.375-0.625-0.125-0.875 0.125-0.875 0.375-0.625 0.25-0.5-0.375-0.375-0.75 0-0.5 0.5-0.25 0.75-0.375 0.625-0.375 0.625-0.125 0.875 0 1 0.125 0.875 0.375 0.625 0.5 0.5 0.5 0.5 0.5 0.5 0.5 0.5 0.5 0.5 0.625 0.375 0.75 0.25 0.625 0.375 0.625 0.375 0.875 0.125 1 0 1 0m2-6q0.5 0 0.875-0.125t0.5-0.5 0.125-0.875-0.125-0.875-0.5-0.5-0.875-0.125-0.875 0.125-0.5 0.5-0.125 0.875 0.125 0.875 0.5 0.5 0.875 0.125m0-5h0.5l0.375-0.125q0.375-0.125 0.625-0.375t0.625-0.375l0.75-0.25q0.375-0.125 0.5-0.5l0.125-0.375-0.125-0.375q-0.125-0.375-0.5-0.5l-0.375-0.125h-1.5q-0.5 0-1 0h-6q-0.5 0-0.875 0.125t-0.5 0.5l-0.125 0.375v0.5q0 0.5 0.125 0.875t0.5 0.5 0.875 0.125h2q0.5 0 1 0h3m-6 5q0.5 0 0.875-0.125t0.5-0.5 0.125-0.875-0.125-0.875-0.5-0.5-0.875-0.125-0.875 0.125-0.5 0.5-0.125 0.875 0.125 0.875 0.5 0.5 0.875 0.125m11 2h0.5l0.375-0.125q0.375-0.125 0.5-0.5l0.125-0.375v-0.5q0-0.5 0-1v-1.5 0.75-0.25q0-0.25-0.09375-0.40625l-0.09375-0.15625 0.09374 0.15625 0.04687-0.54688q0.04689-0.54688-0.07811-0.92188t-0.375-0.625-0.5-0.5-0.625-0.375l-0.375-0.125h-0.5q-0.5 0-0.875 0.125t-0.5 0.5 0 0.75 0.5 0.5l0.375 0.125v0.5q0 0.5 0 1t0 1v0.5-0.75 0.25q0 0.25 0.125 0.375l0.125 0.125-0.125-0.125-0.125 1.125 0.125 0.375q0.125 0.375 0.5625 0.4375l0.4375 0.0625-0.125-0.125 0.125 0.125q0.125 0.125 0.375 0.125h0.25-0.75 0.5"/>
  <path d="m15.125 0.375-0.125-0.375h4v5l-0.375-0.125q-0.375-0.125-0.5-0.5t-0.5-0.5-0.5-0.5-0.625-0.375-0.5-0.5 0-1-0.375-0.625-0.5-0.5" fill-opacity="0"/>
  <g>
   <path d="m4.125 1.625q0.125-0.375 0.5-0.5l0.375-0.125-0.5625 0.1875 0.1875-0.0625q0.1875-0.0625 0.40625-0.09375l0.21875-0.03125-0.21875 0.03125-0.03125 0.96875h-1l0.125-0.375" fill="#ada35e"/>
   <path d="m5.0156 1.5156 0.015625-0.48438-0.21875 0.03125 0.21875-0.03125q0.21875-0.03125 0.46875-0.03125h0.25-0.75 1l0.25 0.75-0.1875-0.5625 0.0625 0.1875q0.0625 0.1875 0.15625 0.28125l0.09375 0.09375-0.09375-0.09375-0.5625 0.625 0.15625 0.09375-0.15625-0.09375q-0.15625-0.09375-0.34375-0.15625l-0.1875-0.0625 0.5625 0.1875-0.75-0.25 0.015625-0.48438m-0.015625 0.10938v0.625-0.25q0-0.25 0-0.5v-0.25 0.375" fill="#c1a987"/>
   <path d="m6.125 1.375-0.125-0.375h1l-0.125 0.375q-0.125 0.375-0.375 0.375t-0.375-0.375" fill="#b2937f"/>
   <path d="m6.875 1.375 0.125-0.375h1l0.25 0.75-0.1875-0.5625 0.0625 0.1875q0.0625 0.1875 0.1875 0.3125l0.125 0.125-0.125-0.125-0.5625 0.625 0.125 0.0625-0.125-0.0625q-0.125-0.0625-0.25-0.0625h-0.125 0.375-0.5 0.375-0.125q-0.125 0-0.25 0.0625l-0.125 0.0625 0.125-0.0625-0.53125-0.65625-0.09375 0.09375 0.09375-0.09375q0.09375-0.09375 0.15625-0.28125l0.0625-0.1875-0.1875 0.5625 0.125-0.375" fill="#b69478"/>
   <path d="m8.125 1.375-0.125-0.375h1v1l-0.375-0.125q-0.375-0.125-0.5-0.5" fill="#c9ab8f"/>
   <path d="m9 1.5v-0.5h1l-0.125 0.375q-0.125 0.375-0.5 0.5l-0.375 0.125v-0.5" fill="#9b8263"/>
   <path d="m9.875 1.375 0.125-0.375h1l-0.125 0.375q-0.125 0.375-0.375 0.625l-0.25 0.25-0.5625-0.5625-0.125 0.125 0.125-0.125q0.125-0.125 0.1875-0.3125l0.0625-0.1875-0.1875 0.5625 0.125-0.375m0.3125 0.9375 0.4375-0.4375-0.125 0.125q-0.125 0.125-0.25 0.25l-0.125 0.125 0.0625-0.0625" fill="#b8a682"/>
   <path d="m10.875 1.375 0.125-0.375h1l-0.125 0.375q-0.125 0.375-0.375 0.625l-0.25 0.25 0.375-0.375-0.125 0.125q-0.125 0.125-0.21875 0.28125l-0.09375 0.15625 0.09375-0.15625-0.5625-0.5625-0.09375 0.15625 0.09375-0.15625q0.09375-0.15625 0.15625-0.34375l0.0625-0.1875-0.1875 0.5625 0.125-0.375m1.25-0.375h-0.875 0.25q0.25 0 0.5 0h0.25-0.125" fill="#a99675"/>
   <path d="m11.875 1.375 0.125-0.375h1v1l-0.75 0.25 0.5625-0.1875-0.1875 0.0625q-0.1875 0.0625-0.28125 0.15625l-0.09375 0.09375 0.09375-0.09375-0.625-0.5625-0.09375 0.15625 0.09375-0.15625q0.09375-0.15625 0.15625-0.34375l0.0625-0.1875-0.1875 0.5625 0.125-0.375m0.5-0.375h-0.625 0.25q0.25 0 0.5 0h0.25-0.375" fill="#6c543c"/>
   <path d="m13 1.5v-0.5h1v1h-1v-0.5" fill="#665042"/>
   <path d="m14 1.5v-0.5l0.375 0.125q0.375 0.125 0.5 0.5l0.125 0.375h-1v-0.5" fill="#473a34"/>
   <path d="m4 2.5v-0.5h1v1l-0.96875-0.03125 0.03125 0.21875-0.03125-0.21875q-0.03125-0.21875-0.03125-0.46875v-0.25 0.75-0.5m1 0.625v-0.875 0.25q0 0.25 0 0.5v0.25-0.125" fill="#8b803e"/>
   <path d="m5 2.5v-0.5l0.375 0.125q0.375 0.125 0.625 0.375l0.25 0.25-0.375-0.375 0.125 0.125q0.125 0.125 0.25 0.1875l0.125 0.0625-0.125-0.0625-0.5625 0.625 0.125 0.125-0.125-0.125q-0.125-0.125-0.3125-0.1875l-0.1875-0.0625 0.5625 0.1875-0.75-0.25v-0.5m0-0.625v0.875-0.25q0-0.25 0-0.5v-0.25 0.125" fill="#73583a"/>
   <path d="m6 2.5-0.25-0.25 0.375 0.375-0.125-0.125q-0.125-0.125-0.28125-0.21875l-0.15625-0.09375 0.15625 0.09375 0.5625-0.625-0.09375-0.09375 0.09375 0.09375q0.09375 0.09375 0.21875 0.09375h0.125-0.375 0.5-0.375 0.125q0.125 0 0.21875-0.09375l0.09375-0.09375-0.09375 0.09375 0.53125 0.65625 0.125-0.0625-0.125 0.0625q-0.125 0.0625-0.25 0.1875l-0.125 0.125 0.375-0.375-0.25 0.25q-0.25 0.25-0.5 0.25t-0.5-0.25" fill="#c5a493"/>
   <path d="m7 2.5q0.25-0.25 0.5-0.25t0.5 0.25l0.25 0.25-0.375-0.375 0.125 0.125q0.125 0.125 0.25 0.1875l0.125 0.0625-0.125-0.0625-0.53125 0.65625 0.09375 0.09375-0.09375-0.09375q-0.09375-0.09375-0.21875-0.09375h-0.125 0.375-0.5 0.375-0.125q-0.125 0-0.21875 0.09375l-0.09375 0.09375 0.09375-0.09375-0.53125-0.65625-0.125 0.0625 0.125-0.0625q0.125-0.0625 0.25-0.1875l0.125-0.125-0.375 0.375 0.25-0.25" fill="#927152"/>
   <path d="m8 2.5-0.25-0.25 0.375 0.375-0.125-0.125q-0.125-0.125-0.25-0.1875l-0.125-0.0625 0.125 0.0625 0.5625-0.625-0.125-0.125 0.125 0.125q0.125 0.125 0.3125 0.1875l0.1875 0.0625-0.5625-0.1875 0.75 0.25-0.125 0.375q-0.125 0.375-0.375 0.375t-0.5-0.25" fill="#ba9c80"/>
   <path d="m8.875 2.375 0.125-0.375 0.75-0.25-0.5625 0.1875 0.1875-0.0625q0.1875-0.0625 0.3125-0.1875l0.125-0.125-0.125 0.125 0.5625 0.5625-0.25 0.25q-0.25 0.25-0.5 0.5l-0.25 0.25 0.375-0.375-0.125 0.125q-0.125 0.125-0.21875 0.28125l-0.09375 0.15625 0.09375-0.15625-0.5625-0.625-0.09375 0.09375 0.09375-0.09375q0.09375-0.09375 0.15625-0.28125l0.0625-0.1875-0.1875 0.5625 0.125-0.375m1.1875 0.0625 0.3125-0.3125-0.125 0.125q-0.125 0.125-0.25 0.25l-0.125 0.125 0.1875-0.1875" fill="#a2896a"/>
   <path d="m10 2.5q0.25-0.25 0.5-0.5l0.25-0.25-0.375 0.375 0.125-0.125q0.125-0.125 0.21875-0.28125l0.09375-0.15625-0.09375 0.15625 0.5625 0.5625 0.09375-0.15625-0.09375 0.15625q-0.09375 0.15625-0.15625 0.34375l-0.0625 0.1875 0.1875-0.5625-0.25 0.75-0.75 0.25 0.5625-0.1875-0.1875 0.0625q-0.1875 0.0625-0.3125 0.1875l-0.125 0.125 0.125-0.125-0.5625-0.5625 0.25-0.25m-0.0625 0.0625-0.3125 0.3125 0.125-0.125q0.125-0.125 0.25-0.25l0.125-0.125-0.1875 0.1875" fill="#85724a"/>
   <path d="m11.125 2.625q0.125-0.375 0.375-0.625l0.25-0.25-0.375 0.375 0.125-0.125q0.125-0.125 0.21875-0.28125l0.09375-0.15625-0.09375 0.15625 0.625 0.5625 0.09375-0.09375-0.09375 0.09375q-0.09375 0.09375-0.09375 0.21875v0.125-0.375 0.5-0.375 0.125q0 0.125 0.0625 0.1875l0.0625 0.0625-0.0625-0.0625-0.625 0.625 0.125 0.125-0.125-0.125q-0.125-0.125-0.3125-0.1875l-0.1875-0.0625 0.5625 0.1875-0.75-0.25 0.125-0.375" fill="#66522f"/>
   <path d="m12.25 2.5q0-0.25 0.375-0.375l0.375-0.125-0.125 0.375q-0.125 0.375-0.375 0.375t-0.25-0.25" fill="#573d24"/>
   <path d="m12.875 2.375 0.125-0.375h1v1l-0.75 0.25 0.5625-0.1875-0.1875 0.0625q-0.1875 0.0625-0.34375 0.15625l-0.15625 0.09375 0.15625-0.09375-0.5625-0.625-0.09375 0.09375 0.09375-0.09375q0.09375-0.09375 0.15625-0.28125l0.0625-0.1875-0.1875 0.5625 0.125-0.375" fill="#513a28"/>
   <path d="m14 2.5v-0.5h1l-0.125 0.375q-0.125 0.375-0.5 0.5l-0.375 0.125v-0.5" fill="#4a3c33"/>
   <path d="m4.125 3.375-0.125-0.375 0.1875 0.5625-0.0625-0.1875q-0.0625-0.1875-0.09375-0.40625l-0.03125-0.21875 0.03125 0.21875 0.96875 0.03125 0.03125 0.96875 0.21875 0.03125-0.21875-0.03125q-0.21875-0.03125-0.40625-0.09375l-0.1875-0.0625 0.5625 0.1875-0.375-0.125q-0.375-0.125-0.5-0.5m0.875 0v-0.625 0.25q0 0.25 0 0.5v0.25-0.375" fill="#59460b"/>
   <path d="m5.0156 3.4844-0.015625-0.48438 0.375 0.125q0.375 0.125 0.5 0.5l0.125 0.375h-1 0.75-0.25q-0.25 0-0.46875-0.03125l-0.21875-0.03125 0.21875 0.03125-0.015625-0.48438" fill="#5f4023"/>
   <path d="m5.875 3.625-0.125-0.375 0.1875 0.5625-0.0625-0.1875q-0.0625-0.1875-0.1875-0.3125l-0.125-0.125 0.125 0.125 0.5625-0.625-0.125-0.0625 0.125 0.0625q0.125 0.0625 0.25 0.0625h0.125-0.375 0.5-0.375 0.125q0.125 0 0.25-0.0625l0.125-0.0625-0.125 0.0625 0.53125 0.65625 0.09375-0.09375-0.09375 0.09375q-0.09375 0.09375-0.15625 0.28125l-0.0625 0.1875 0.1875-0.5625-0.25 0.75h-1l-0.125-0.375" fill="#6e4936"/>
   <path d="m7.125 3.625q0.125-0.375 0.375-0.375t0.375 0.375l0.125 0.375h-1l0.125-0.375m0.5 0.375h0.625-0.25q-0.25 0-0.5 0h-0.25 0.375" fill="#5c3919"/>
   <path d="m7.875 3.625-0.125-0.375 0.1875 0.5625-0.0625-0.1875q-0.0625-0.1875-0.15625-0.28125l-0.09375-0.09375 0.09375 0.09375 0.53125-0.65625-0.125-0.0625 0.125 0.0625q0.125 0.0625 0.25 0.0625h0.125-0.375 0.5-0.375 0.125q0.125 0 0.21875-0.09375l0.09375-0.09375-0.09375 0.09375 0.5625 0.625 0.09375-0.15625-0.09375 0.15625q-0.09375 0.15625-0.15625 0.34375l-0.0625 0.1875 0.1875-0.5625-0.25 0.75h-1l-0.125-0.375m0 0.375h0.875-0.25q-0.25 0-0.5 0h-0.25 0.125" fill="#987754"/>
   <path d="m9.125 3.625q0.125-0.375 0.375-0.625l0.25-0.25 0.5625 0.5625 0.125-0.125-0.125 0.125q-0.125 0.125-0.1875 0.3125l-0.0625 0.1875 0.1875-0.5625-0.25 0.75h-1l0.125-0.375m0.6875-0.9375-0.4375 0.4375 0.125-0.125q0.125-0.125 0.25-0.25l0.125-0.125-0.0625 0.0625" fill="#7b5f37"/>
   <path d="m10.125 3.625q0.125-0.375 0.5-0.5l0.375-0.125v1h-1l0.125-0.375" fill="#685127"/>
   <path d="m11 3.5v-0.5l0.375 0.125q0.375 0.125 0.5 0.5l0.125 0.375h-1v-0.5" fill="#765d34"/>
   <path d="m11.875 3.625-0.125-0.375 0.1875 0.5625-0.0625-0.1875q-0.0625-0.1875-0.1875-0.3125l-0.125-0.125 0.125 0.125 0.625-0.625-0.0625-0.0625 0.0625 0.0625q0.0625 0.0625 0.1875 0.0625h0.125-0.375 0.5-0.375 0.125q0.125 0 0.21875-0.09375l0.09375-0.09375-0.09375 0.09375 0.5625 0.625 0.15625-0.09375-0.15625 0.09375q-0.15625 0.09375-0.28125 0.21875l-0.125 0.125 0.375-0.375-0.25 0.25q-0.25 0.25-0.625 0.375l-0.375 0.125-0.125-0.375" fill="#4f3013"/>
   <path d="m14.125 4.625q0.125-0.375 0.5-0.5l0.375-0.125-0.5625 0.1875 0.1875-0.0625q0.1875-0.0625 0.40625-0.09375l0.21875-0.03125-0.21875 0.03125-0.03125 0.96875h-0.9375v0.1875-0.1875q0-0.1875 0.0625-0.375l0.0625-0.1875-0.1875 0.5625 0.125-0.375m0.875 0.5v-0.875 0.25q0 0.25 0 0.5v0.25-0.125" fill="#3d2809"/>
   <path d="m15.016 4.5156 0.015625-0.48438-0.21875 0.03125 0.21875-0.03125q0.21875-0.03125 0.46875-0.03125h0.25-0.75 1l-0.125 0.375q-0.125 0.375-0.5 0.5l-0.375 0.125 0.015625-0.48438" fill="#988878"/>
   <path d="m15.875 4.375 0.125-0.375 0.375 0.125q0.375 0.125 0.625 0.375l0.25 0.25-0.5625 0.5625 0.0625 0.0625-0.0625-0.0625q-0.0625-0.0625-0.1875-0.0625h-0.125 0.375-0.5 0.375-0.125q-0.125 0-0.25 0.0625l-0.125 0.0625 0.125-0.0625-0.5625-0.625-0.125 0.125 0.125-0.125q0.125-0.125 0.1875-0.3125l0.0625-0.1875-0.1875 0.5625 0.125-0.375m1.4375 0.4375-0.4375-0.4375 0.125 0.125q0.125 0.125 0.25 0.25l0.125 0.125-0.0625-0.0625" fill="#776b5d"/>
   <path d="m2.125 5.625q0.125-0.375 0.5-0.5t0.75 0 0.375 0.375-0.25 0.5-0.375 0.625-0.125 0.875 0.125 0.875 0.375 0.625 0.5 0.5 0.6875 0.4375l0.4375 0.1875 0.125-0.125-0.125 0.125q-0.125 0.125-0.125 0.375v0.25-0.75l0.125 0.375q0.125 0.375 0.375 0.625t0.5 0.5 0.5 0.5 0.39062 0.60938l0.14062 0.35938 0.21875 0.03125-0.21875-0.03125q-0.21875-0.03125-0.40625-0.09375l-0.1875-0.0625 0.5625 0.1875-0.375-0.125q-0.375-0.125-0.625-0.375t-0.625-0.375l-0.375-0.125 0.125 0.375q0.125 0.375 0.375 0.625t0.5 0.5 0.625 0.375 0.875 0.125 1 0 1 0 0.875-0.125 0.625-0.375 0.5-0.5 0.375-0.625l0.125-0.375-0.375 0.125q-0.375 0.125-0.625 0.375t-0.625 0.375l-0.375 0.125 0.5625-0.1875-0.1875 0.0625q-0.1875 0.0625-0.40625 0.09375l-0.21875 0.03125 0.21875-0.03125 0.14062-0.35938q0.14062-0.35938 0.39062-0.60938t0.5-0.5 0.5-0.5 0.375-0.625l0.125-0.375v0.75-0.25q0-0.25-0.125-0.375l-0.125-0.125 0.125 0.125 0.4375-0.1875q0.4375-0.1875 0.6875-0.4375t0.5-0.25 0.375 0.375 0.25 0.75 0.375 0.625 0.25 0.5-0.25 0.5-0.5 0.5-0.5 0.5-0.5 0.5-0.625 0.375-0.75 0.25-0.625 0.375-0.625 0.375-0.875 0.125-1 0-1 0-0.875-0.125-0.625-0.375-0.625-0.375-0.75-0.25-0.625-0.375-0.5-0.5-0.5-0.5-0.5-0.5-0.5-0.5-0.5-0.5-0.375-0.625-0.125-0.875 0-1 0.125-0.875 0.375-0.625 0.375-0.625 0.25-0.75m10 6-0.125 0.375 0.375-0.125q0.375-0.125 0.375-0.375t-0.25-0.25-0.375 0.375m-7.5 0.25 0.375 0.125-0.125-0.375q-0.125-0.375-0.375-0.375t-0.25 0.25 0.375 0.375" fill="#221d60"/>
   <path d="m7.25 5.5q0-0.25 0.375-0.375t0.875-0.125 0.875 0.125 0.375 0.375-0.25 0.5-0.375 0.625-0.125 0.875v0.5h-1v-0.5q0-0.5-0.125-0.875t-0.375-0.625-0.25-0.5m0.75 2.125v0.625-0.25q0-0.25 0-0.5v-0.25 0.375m1 0.5v-0.875 0.25q0 0.25 0 0.5v0.25-0.125" fill="#fff"/>
   <path d="m14.125 5.375-0.125-0.375 0.1875 0.5625-0.0625-0.1875q-0.0625-0.1875-0.0625-0.375v-0.1875 0.1875h0.9375v1l-0.375-0.125q-0.375-0.125-0.5-0.5m0.875 0v-0.625 0.25q0 0.25 0 0.5v0.25-0.375" fill="#180000"/>
   <path d="m15 5.5v-0.5l0.75-0.25-0.5625 0.1875 0.1875-0.0625q0.1875-0.0625 0.3125-0.1875l0.125-0.125-0.125 0.125 0.5625 0.625 0.125-0.0625-0.125 0.0625q-0.125 0.0625-0.25 0.1875l-0.125 0.125 0.375-0.375-0.25 0.25q-0.25 0.25-0.625 0.375l-0.375 0.125v-0.5" fill="#6c583f"/>
   <path d="m16 5.5q0.25-0.25 0.5-0.25t0.25 0.25-0.25 0.5l-0.25 0.25 0.375-0.375-0.125 0.125q-0.125 0.125-0.1875 0.25l-0.0625 0.125 0.0625-0.125-0.59375-0.53125-0.15625 0.09375 0.15625-0.09375q0.15625-0.09375 0.28125-0.21875l0.125-0.125-0.375 0.375 0.25-0.25" fill="#bbab94"/>
   <path d="m16.75 5.5v-0.25 0.375-0.125q0-0.125-0.0625-0.1875l-0.0625-0.0625 0.0625 0.0625 0.5625-0.5625 0.25 0.25q0.25 0.25 0.375 0.625l0.125 0.375-0.1875-0.5625 0.0625 0.1875q0.0625 0.1875 0.09375 0.40625l0.03125 0.21875-0.03125-0.21875-0.71875 0.21875 0.5625-0.1875-0.1875 0.0625q-0.1875 0.0625-0.28125 0.15625l-0.09375 0.09375 0.09375-0.09375-0.65625-0.53125-0.0625 0.125 0.0625-0.125q0.0625-0.125 0.0625-0.25v-0.125 0.375-0.25m0.6875-0.5625-0.3125-0.3125 0.125 0.125q0.125 0.125 0.25 0.25l0.125 0.125-0.1875-0.1875" fill="#857867"/>
   <path d="m4.125 6.625q0.125-0.375 0.5-0.5t0.875-0.125 0.875 0.125 0.5 0.5 0.125 0.875-0.125 0.875-0.5 0.5-0.875 0.125-0.875-0.125-0.5-0.5-0.125-0.875 0.125-0.875" fill="#fff"/>
   <path d="m10.125 6.625q0.125-0.375 0.5-0.5t0.875-0.125 0.875 0.125 0.5 0.5 0.125 0.875-0.125 0.875-0.5 0.5-0.875 0.125-0.875-0.125-0.5-0.5-0.125-0.875 0.125-0.875" fill="#fff"/>
   <path d="m15 6.5v-0.5l0.75-0.25-0.5625 0.1875 0.1875-0.0625q0.1875-0.0625 0.34375-0.15625l0.15625-0.09375-0.15625 0.09375 0.59375 0.53125 0.0625-0.125-0.0625 0.125q-0.0625 0.125-0.0625 0.25v0.125-0.375 0.5-0.375 0.125q0 0.125 0.0625 0.25l0.0625 0.125-0.0625-0.125-0.65625 0.53125 0.09375 0.09375-0.09375-0.09375q-0.09375-0.09375-0.28125-0.15625l-0.1875-0.0625 0.5625 0.1875-0.75-0.25v-0.5m0 0.125v0.625-0.25q0-0.25 0-0.5v-0.25 0.375" fill="#a38c6d"/>
   <path d="m16.25 6.5q0-0.25 0.25-0.5l0.25-0.25-0.375 0.375 0.125-0.125q0.125-0.125 0.1875-0.25l0.0625-0.125-0.0625 0.125 0.65625 0.53125 0.09375-0.09375-0.09375 0.09375q-0.09375 0.09375-0.09375 0.21875v0.125-0.375 0.5-0.375 0.125q0 0.125 0.09375 0.21875l0.09375 0.09375-0.09375-0.09375-0.65625 0.53125 0.0625 0.125-0.0625-0.125q-0.0625-0.125-0.1875-0.25l-0.125-0.125 0.375 0.375-0.25-0.25q-0.25-0.25-0.25-0.5" fill="#9c886f"/>
   <path d="m17.25 6.5q0-0.25 0.35938-0.35938l0.35938-0.10938-0.03125-0.21875 0.03125 0.21875q0.03125 0.21875 0.03125 0.46875v0.25-0.75l-0.09375 1.0938 0.09375 0.15625-0.09375-0.15625q-0.09375-0.15625-0.28125-0.21875l-0.1875-0.0625 0.5625 0.1875-0.375-0.125q-0.375-0.125-0.375-0.375" fill="#44331f"/>
   <path d="m15 7.5v-0.5l0.375 0.125q0.375 0.125 0.375 0.375t-0.375 0.375l-0.375 0.125v-0.5m0 0.125v0.625-0.25q0-0.25 0-0.5v-0.25 0.375m0-0.75v0.875-0.25q0-0.25 0-0.5v-0.25 0.125" fill="#52360e"/>
   <path d="m15.75 7.5v-0.25 0.375-0.125q0-0.125-0.09375-0.21875l-0.09375-0.09375 0.09375 0.09375 0.65625-0.53125-0.0625-0.125 0.0625 0.125q0.0625 0.125 0.1875 0.25l0.125 0.125-0.375-0.375 0.25 0.25q0.25 0.25 0.25 0.5t-0.25 0.5l-0.25 0.25 0.375-0.375-0.125 0.125q-0.125 0.125-0.21875 0.28125l-0.09375 0.15625 0.09375-0.15625-0.625-0.5625-0.09375 0.09375 0.09375-0.09375q0.09375-0.09375 0.09375-0.21875v-0.125 0.375-0.25" fill="#7b6341"/>
   <path d="m16.75 7.5v-0.25 0.375-0.125q0-0.125-0.0625-0.25l-0.0625-0.125 0.0625 0.125 0.65625-0.53125-0.09375-0.09375 0.09375 0.09375q0.09375 0.09375 0.28125 0.15625l0.1875 0.0625-0.5625-0.1875 0.375 0.125q0.375 0.125 0.375 0.625v0.5l-0.75 0.25 0.5625-0.1875-0.1875 0.0625q-0.1875 0.0625-0.3125 0.1875l-0.125 0.125 0.125-0.125-0.625-0.5625-0.0625 0.125 0.0625-0.125q0.0625-0.125 0.0625-0.25v-0.125 0.375-0.25" fill="#bca68e"/>
   <path d="m8 8.5v-0.5h1v1h-1v-0.5m1-0.125v-0.625 0.25q0 0.25 0 0.5v0.25-0.375m-1-0.5v0.875-0.25q0-0.25 0-0.5v-0.25 0.125" fill="#f5e49c"/>
   <path d="m15 8.5v-0.5l0.75-0.25-0.5625 0.1875 0.1875-0.0625q0.1875-0.0625 0.28125-0.15625l0.09375-0.09375-0.09375 0.09375 0.625 0.5625 0.09375-0.15625-0.09375 0.15625q-0.09375 0.15625-0.15625 0.34375l-0.0625 0.1875 0.1875-0.5625-0.25 0.75h-0.5q-0.5 0-0.5-0.5m0-0.625v0.875-0.25q0-0.25 0-0.5v-0.25 0.125" fill="#9d8054"/>
   <path d="m16.125 8.625q0.125-0.375 0.375-0.625l0.25-0.25-0.375 0.375 0.125-0.125q0.125-0.125 0.1875-0.25l0.0625-0.125-0.0625 0.125 0.625 0.5625 0.125-0.125-0.125 0.125q-0.125 0.125-0.1875 0.3125l-0.0625 0.1875 0.1875-0.5625-0.25 0.75h-1l0.125-0.375" fill="#a48a65"/>
   <path d="m17.125 8.625q0.125-0.375 0.5-0.5l0.375-0.125v1h-1l0.125-0.375m0.875 0.5v-0.875 0.25q0 0.25 0 0.5v0.25-0.125" fill="#af977b"/>
   <path d="m7.125 9.625q0.125-0.375 0.5-0.5l0.375-0.125v0.5q0 0.5 0 1t-0.125 0.875-0.375 0.375-0.375-0.375-0.17188-0.92188l-0.046875-0.54688-0.15625 0.09375 0.15625-0.09375q0.15625-0.09375 0.21875-0.28125l0.0625-0.1875-0.1875 0.5625 0.125-0.375" fill="#e5aa7a"/>
   <path d="m8 9.5v-0.5h1v0.5q0 0.5 0 1t0.125 0.875 0.375 0.375 0.375-0.375 0.125-0.875v-0.5 0.75-0.25q0-0.25-0.03125-0.46875l-0.03125-0.21875 0.03125 0.21875 0.51562-0.015625q0.51562-0.015625 1.0156-0.015625t0.375 0.375-0.375 0.625-0.5 0.5-0.5 0.5-0.39062 0.60938l-0.14062 0.35938 0.21875-0.03125-0.21875 0.03125q-0.21875 0.03125-0.46875 0.03125h-0.25 0.75-0.5q-0.5 0-1 0t-1 0h-0.5 0.75-0.25q-0.25 0-0.46875-0.03125l-0.21875-0.03125 0.21875 0.03125-0.14062-0.35938q-0.14062-0.35938-0.39062-0.60938t-0.5-0.5-0.5-0.5-0.375-0.625 0.375-0.375 1 0h0.5-0.75 0.25q0.25 0 0.40625-0.09375l0.15625-0.09375-0.15625 0.09375 0.046875 0.54688q0.046875 0.54688 0.17188 0.92188t0.375 0.375 0.375-0.375 0.125-0.875 0-1" fill="#fff"/>
   <path d="m9 9.5v-0.5l0.375 0.125q0.375 0.125 0.5 0.5t0.125 0.875-0.125 0.875-0.375 0.375-0.375-0.375-0.125-0.875 0-1" fill="#4d6df3"/>
   <path d="m15.062 9.4375 0.0625-0.5625-0.125-0.125 0.125 0.125q0.125 0.125 0.375 0.125h0.25-0.75 1l0.125 1.125-1.125-0.125 0.0625-0.5625m1.0625-0.4375h-0.875 0.25q0.25 0 0.5 0h0.25-0.125" fill="#1c0000"/>
   <path d="m16.062 9.5625-0.0625-0.5625h1v1h-1 0.75-0.25q-0.25 0-0.375 0.125l-0.125 0.125 0.125-0.125-0.0625-0.5625m0.3125-0.5625h-0.625 0.25q0.25 0 0.5 0h0.25-0.375" fill="#573b13"/>
   <path d="m17 9.5v-0.5h1v1h-1v-0.5m1-0.125v-0.625 0.25q0 0.25 0 0.5v0.25-0.375" fill="#6b5234"/>
   <path d="m15.125 10.375-0.125-0.375 1.125 0.125 0.125-0.125-0.125 0.125q-0.125 0.125-0.125 0.375v0.25-0.75 1-0.75 0.25q0 0.25 0.125 0.375l0.125 0.125-0.125-0.125-0.4375-0.0625q-0.4375-0.0625-0.5625-0.4375" fill="#150000"/>
   <path d="m16 10.5q0-0.5 0.5-0.5h0.5v1h-0.5q-0.5 0-0.5-0.5" fill="#b8a384"/>
   <path d="m17 10.5v-0.5h1l-0.125 0.375q-0.125 0.375-0.5 0.5l-0.375 0.125v-0.5" fill="#8f7d65"/>
  </g>
  <path d="m0 11.5v-0.5l0.375 0.125q0.375 0.125 0.5 0.5t0.125 0.875 0.5 0.5 0.5 0.5 0.5 0.5 0.875 0.125 0.5 0.5 0.625 0.375 0.5 0.5v0.5h-5v-4.5" fill-opacity="0"/>
  <path d="m4.25 11.5q0-0.25 0.25-0.25t0.375 0.375l0.125 0.375-0.375-0.125q-0.375-0.125-0.375-0.375" fill="#fff200"/>
  <path d="m12.125 11.625q0.125-0.375 0.375-0.375t0.25 0.25-0.375 0.375l-0.375 0.125 0.125-0.375" fill="#fff200"/>
  <path d="m18.125 11.625q0.125-0.375 0.5-0.5l0.375-0.125v5h-7v-0.5q0-0.5 0.5-0.5t0.625-0.375 0.5-0.5 0.875-0.125 0.5-0.5 0.5-0.5 0.5-0.5 0.5-0.5 1 0 0.625-0.375" fill-opacity="0"/>
  <path d="m5.125 12.375-0.125-0.375 0.375 0.125q0.375 0.125 0.625 0.375t0.625 0.375 0.875 0.125 1 0 1 0 0.875-0.125 0.625-0.375 0.625-0.375l0.375-0.125-0.125 0.375q-0.125 0.375-0.375 0.625t-0.5 0.5-0.625 0.375-0.875 0.125-1 0-1 0-0.875-0.125-0.625-0.375-0.5-0.5-0.375-0.625" fill="#fff200"/>
 </g>
</svg>
