<svg width="17" height="14" version="1.1" viewBox="0 0 17 14" xmlns="http://www.w3.org/2000/svg">
 <g transform="translate(0)">
  <path d="m0 0.5v-0.5h5l-0.125 0.375q-0.125 0.375-0.5 0.5t-0.5 0.5-0.5 0.5-0.875 0.125-0.625 0.375-0.5 0.5-0.375 0.625-0.125 0.875-0.5 0.5l-0.375 0.125v-4.5" fill-opacity="0"/>
  <path d="m4.875 0.375 0.125-0.375h7l0.125 0.375q0.125 0.375 0.5 0.5t0.5 0.5 0.5 0.5 0.875 0.125 0.625 0.375 0.5 0.5 0.375 0.625 0.125 0.875 0.5 0.5l0.375 0.125v4l-0.375 0.125q-0.375 0.125-0.5 0.5t-0.125 0.875-0.5 0.5-0.5 0.5-0.5 0.5-0.875 0.125-0.5 0.5-0.625 0.375-0.5 0.5v0.5h-7v-0.5q0-0.5-0.5-0.5t-0.625-0.375-0.5-0.5-0.875-0.125-0.5-0.5-0.5-0.5-0.5-0.5-0.125-0.875-0.5-0.5l-0.375-0.125v-4l0.375-0.125q0.375-0.125 0.5-0.5t0.125-0.875 0.375-0.625 0.5-0.5 0.625-0.375 0.875-0.125 0.5-0.5 0.5-0.5 0.5-0.5m4.625 12.625q0.5 0 0.875-0.125t0.625-0.375 0.625-0.375 0.75-0.25 0.625-0.375 0.5-0.5 0.5-0.5 0.5-0.5 0.5-0.5 0.5-0.5 0.375-0.625 0.125-0.875 0-1-0.125-0.875-0.375-0.625-0.375-0.625-0.25-0.75-0.5-0.5-0.75-0.25-0.625-0.375-0.5-0.5-0.5-0.5-0.625-0.375-0.875-0.125-1 0-1 0-1 0-1 0-0.875 0.125-0.625 0.375-0.5 0.5-0.5 0.5-0.625 0.375-0.75 0.25-0.5 0.5-0.25 0.75-0.375 0.625-0.375 0.625-0.125 0.875 0 1 0.125 0.875 0.375 0.625 0.5 0.5 0.5 0.5 0.5 0.5 0.5 0.5 0.5 0.5 0.625 0.375 0.75 0.25 0.625 0.375 0.625 0.375 0.875 0.125 1 0 1 0"/>
  <path d="m12.125 0.375-0.125-0.375h5v5l-0.375-0.125q-0.375-0.125-0.5-0.5t-0.125-0.875-0.375-0.625-0.5-0.5-0.625-0.375-0.875-0.125-0.5-0.5-0.5-0.5-0.5-0.5" fill-opacity="0"/>
  <g>
   <path d="m5 1.5q0.25-0.25 0.625-0.375t0.875-0.125 1 0 1 0 1 0 1 0 0.875 0.125 0.625 0.375 0.5 0.5 0.5 0.5 0.625 0.375 0.75 0.25 0.5 0.5 0.25 0.75 0.375 0.625 0.375 0.625 0.125 0.875 0 1-0.125 0.875-0.375 0.625-0.5 0.5-0.5 0.5-0.5 0.5-0.5 0.5-0.5 0.5-0.625 0.375-0.75 0.25-0.625 0.375-0.625 0.375-0.875 0.125-1 0-1 0-0.875-0.125-0.625-0.375-0.625-0.375-0.75-0.25-0.625-0.375-0.5-0.5-0.5-0.5-0.5-0.5-0.5-0.5-0.5-0.5-0.375-0.625-0.125-0.875 0-1 0.125-0.875 0.375-0.625 0.375-0.625 0.25-0.75 0.5-0.5 0.75-0.25 0.625-0.375 0.5-0.5 0.5-0.5m3.5 10.5q0.5 0 0.875-0.125t0.625-0.375 0.625-0.375 0.75-0.25 0.625-0.375 0.5-0.5 0.5-0.5 0.5-0.5 0.25-0.5-0.25-0.25-0.5 0.25-0.5 0.5-0.5 0.5-0.625 0.375-0.75 0.25-0.625 0.375-0.625 0.375-0.875 0.125-0.875-0.125-0.625-0.375-0.625-0.375-0.75-0.25-0.625-0.375-0.5-0.5-0.5-0.5-0.5-0.25-0.25 0.25 0.25 0.5 0.5 0.5 0.5 0.5 0.5 0.5 0.625 0.375 0.75 0.25 0.625 0.375 0.625 0.375 0.875 0.125m0-2q0.5 0 0.875-0.125t0.5-0.5 0.625-0.375 0.875-0.125 0.5-0.5l0.125-0.375v0.75-0.25q0-0.25-0.125-0.375l-0.125-0.125 0.125 0.125 0.4375-0.1875q0.4375-0.1875 0.6875-0.4375t0.5-0.5 0.375-0.625 0.125-0.875-0.125-0.875-0.375-0.625-0.5-0.5-0.625-0.375-0.875-0.125-1 0h-0.5l-0.125-0.375q-0.125-0.375-0.5625-0.4375l-0.4375-0.0625 0.125 0.125-0.125-0.125q-0.125-0.125-0.375-0.125h-0.25 0.75l-0.375 0.125q-0.375 0.125-0.5 0.5t-0.125 0.875v0.5l-0.375-0.125q-0.375-0.125-0.625-0.375t-0.625-0.375-0.875-0.125-0.875 0.125-0.625 0.375-0.5 0.5-0.375 0.625-0.125 0.875 0.125 0.875 0.375 0.625 0.5 0.5 0.6875 0.4375l0.4375 0.1875 0.125-0.125-0.125 0.125q-0.125 0.125-0.125 0.375v0.25-0.75l0.125 0.375q0.125 0.375 0.5 0.5t0.875 0.125 0.625 0.375 0.5 0.5 0.875 0.125m-0.5-5.875v-0.875 0.25q0 0.25 0 0.5v0.25-0.125" fill="#0000a0"/>
   <path d="m8.125 2.625q0.125-0.375 0.5-0.5t0.375 0.375 0 1 0 1 0 1 0.125 0.875 0.375 0.625 0.375 0.625l0.125 0.375h-0.5q-0.5 0-1 0t-1 0h-0.5l0.125-0.375q0.125-0.375 0.375-0.625t0.375-0.625 0.125-0.875 0-1 0-1 0.125-0.875m-1.25 5.375h0.875-0.25q-0.25 0-0.5 0h-0.25 0.125m2.75 0h0.625-0.25q-0.25 0-0.5 0h-0.25 0.375" fill="#fff"/>
   <path d="m9 2.5v-0.5 0.75-0.25q0-0.25-0.125-0.375l-0.125-0.125 0.125 0.125 0.4375 0.0625q0.4375 0.0625 0.5625 0.4375l0.125 0.375h-1v-0.5m0 0.125v0.625-0.25q0-0.25 0-0.5v-0.25 0.375" fill="#484848"/>
   <path d="m4 3.5q0.25-0.25 0.625-0.375t0.875-0.125 0.875 0.125 0.625 0.375 0.625 0.375l0.375 0.125v0.5q0 0.5 0 1t-0.125 0.875-0.375 0.625-0.375 0.625l-0.125 0.375h-0.5q-0.5 0-1 0h-0.5 0.75-0.25q-0.25 0-0.375 0.125l-0.125 0.125 0.125-0.125-0.4375-0.1875q-0.4375-0.1875-0.6875-0.4375t-0.5-0.5-0.375-0.625-0.125-0.875 0.125-0.875 0.375-0.625 0.5-0.5m1.5 3.5q0.5 0 0.875-0.125t0.5-0.5 0.125-0.875-0.125-0.875-0.5-0.5-0.875-0.125-0.875 0.125-0.5 0.5-0.125 0.875 0.125 0.875 0.5 0.5 0.875 0.125m1.125 1h0.625-0.25q-0.25 0-0.5 0h-0.25 0.375m1.375-3.625v-0.625 0.25q0 0.25 0 0.5v0.25-0.375"/>
   <path d="m9 3.5v-0.5h1l-0.125 0.375q-0.125 0.375-0.5 0.5l-0.375 0.125v-0.5m0 0.125v0.625-0.25q0-0.25 0-0.5v-0.25 0.375m0-0.75v0.875-0.25q0-0.25 0-0.5v-0.25 0.125" fill="#ffc500"/>
   <path d="m9.875 3.375 0.125-0.375h0.5q0.5 0 1 0t0.875 0.125 0.625 0.375 0.5 0.5 0.375 0.625 0.125 0.875-0.125 0.875-0.375 0.625-0.5 0.5-0.6875 0.4375l-0.4375 0.1875 0.125 0.125-0.125-0.125q-0.125-0.125-0.375-0.125h-0.25 0.75-0.5q-0.5 0-1 0h-0.5l-0.125-0.375q-0.125-0.375-0.375-0.625t-0.375-0.625-0.125-0.875 0-1v-0.5l0.375-0.125q0.375-0.125 0.5-0.5m-0.875 0.5v0.875-0.25q0-0.25 0-0.5v-0.25 0.125m0.875 4.125h0.875-0.25q-0.25 0-0.5 0h-0.25 0.125m1.625-1q0.5 0 0.875-0.125t0.5-0.5 0.125-0.875-0.125-0.875-0.5-0.5-0.875-0.125-0.875 0.125-0.5 0.5-0.125 0.875 0.125 0.875 0.5 0.5 0.875 0.125"/>
  </g>
  <g fill="#fff">
   <path d="m4.125 4.625q0.125-0.375 0.5-0.5t0.875-0.125 0.875 0.125 0.5 0.5 0.125 0.875-0.125 0.875-0.5 0.5-0.875 0.125-0.875-0.125-0.5-0.5-0.125-0.875 0.125-0.875"/>
   <path d="m10.125 4.625q0.125-0.375 0.5-0.5t0.875-0.125 0.875 0.125 0.5 0.5 0.125 0.875-0.125 0.875-0.5 0.5-0.875 0.125-0.875-0.125-0.5-0.5-0.125-0.875 0.125-0.875"/>
   <path d="m3.25 8.5q0-0.25 0.25-0.25t0.5 0.25 0.5 0.5 0.5 0.5 0.625 0.375 0.75 0.25 0.625 0.375 0.625 0.375 0.875 0.125 0.875-0.125 0.625-0.375 0.625-0.375 0.75-0.25 0.625-0.375 0.5-0.5 0.5-0.5 0.5-0.25 0.25 0.25-0.25 0.5-0.5 0.5-0.5 0.5-0.5 0.5-0.625 0.375-0.75 0.25-0.625 0.375-0.625 0.375-0.875 0.125-0.875-0.125-0.625-0.375-0.625-0.375-0.75-0.25-0.625-0.375-0.5-0.5-0.5-0.5-0.5-0.5-0.25-0.5"/>
  </g>
  <g>
   <path d="m5.125 8.375q-0.125-0.375 0.375-0.375h0.5l0.03125 0.96875 0.21875 0.03125-0.21875-0.03125q-0.21875-0.03125-0.40625-0.09375l-0.1875-0.0625 0.5625 0.1875-0.375-0.125q-0.375-0.125-0.5-0.5m1-0.375h-0.875 0.25q0.25 0 0.5 0h0.25-0.125" fill="#cb9d00"/>
   <path d="m6.0156 8.4844-0.015625-0.48438h0.5q0.5 0 1 0t1 0 1 0 1 0h0.5l-0.03125 0.96875 0.21875-0.03125-0.21875 0.03125q-0.21875 0.03125-0.46875 0.03125h-0.25 0.75-1 0.75-0.25q-0.25 0-0.40625 0.09375l-0.15625 0.09375 0.15625-0.09375-0.42188 0.078125q-0.42188 0.078125-0.5625 0.4375l-0.14062 0.35938 0.21875-0.03125-0.21875 0.03125q-0.21875 0.03125-0.46875 0.03125h-0.25 0.75-1 0.75-0.25q-0.25 0-0.46875-0.03125l-0.21875-0.03125 0.21875 0.03125-0.14062-0.35938q-0.14062-0.35938-0.5625-0.4375l-0.42188-0.078125 0.15625 0.09375-0.15625-0.09375q-0.15625-0.09375-0.40625-0.09375h-0.25 0.75-1 0.75-0.25q-0.25 0-0.46875-0.03125l-0.21875-0.03125 0.21875 0.03125-0.015625-0.48438m5.1094-0.48438h-0.875 0.25q0.25 0 0.5 0h0.25-0.125m-4.75 0h-0.625 0.25q0.25 0 0.5 0h0.25-0.375" fill="#ffc500"/>
   <path d="m10.984 8.4844 0.015625-0.48438h0.5q0.5 0 0.375 0.375t-0.5 0.5l-0.375 0.125 0.5625-0.1875-0.1875 0.0625q-0.1875 0.0625-0.40625 0.09375l-0.21875 0.03125 0.21875-0.03125 0.015625-0.48438m0.39062-0.48438h-0.625 0.25q0.25 0 0.5 0h0.25-0.375" fill="#cb9d00"/>
  </g>
  <path d="m0 9.5v-0.5l0.375 0.125q0.375 0.125 0.5 0.5t0.125 0.875 0.5 0.5 0.5 0.5 0.5 0.5 0.875 0.125 0.5 0.5 0.625 0.375 0.5 0.5v0.5h-5v-4.5" fill-opacity="0"/>
  <path d="m7.125 9.375-0.125-0.375 0.1875 0.5625-0.0625-0.1875q-0.0625-0.1875-0.21875-0.28125l-0.15625-0.09375 0.15625 0.09375 0.42188 0.078125q0.42188 0.078125 0.5625 0.4375l0.14062 0.35938 0.21875 0.03125-0.21875-0.03125q-0.21875-0.03125-0.40625-0.09375l-0.1875-0.0625 0.5625 0.1875-0.375-0.125q-0.375-0.125-0.5-0.5" fill="#cb9d00"/>
  <path d="m9.1094 9.6094q0.14062-0.35938 0.5625-0.4375l0.42188-0.078125 0.15625-0.09375-0.15625 0.09375q-0.15625 0.09375-0.21875 0.28125l-0.0625 0.1875 0.1875-0.5625-0.125 0.375q-0.125 0.375-0.5 0.5l-0.375 0.125 0.5625-0.1875-0.1875 0.0625q-0.1875 0.0625-0.40625 0.09375l-0.21875 0.03125 0.21875-0.03125 0.14062-0.35938" fill="#cb9d00"/>
  <path d="m16.125 9.625q0.125-0.375 0.5-0.5l0.375-0.125v5h-5v-0.5q0-0.5 0.5-0.5t0.625-0.375 0.5-0.5 0.875-0.125 0.5-0.5 0.5-0.5 0.5-0.5 0.125-0.875" fill-opacity="0"/>
 </g>
</svg>
