<svg width="17" height="18" version="1.1" viewBox="0 0 17 18" xmlns="http://www.w3.org/2000/svg">
 <g transform="translate(0)">
  <path d="m0 0.5v-0.5h6v0.5q0 0.5 0 1v0.5h-0.5q-0.5 0-0.5 0.5t-0.125 0.875-0.5 0.5-0.875 0.125-0.5 0.5-0.5 0.5-1 0-1 0h-0.5v-4.5" fill-opacity="0"/>
  <path d="m6 0.5v-0.5h5v0.5q0 0.5 0 1v0.5h-0.5q-0.5 0-0.5-0.5t-0.5-0.5-1 0-1 0-0.5 0.5-0.5 0.5h-0.5v-0.5q0-0.5 0-1"/>
  <path d="m11 0.5v-0.5h6v5h-0.5q-0.5 0-1 0t-1 0-0.5-0.5-0.5-0.5-0.875-0.125-0.5-0.5-0.125-0.875-0.5-0.5h-0.5v-0.5q0-0.5 0-1" fill-opacity="0"/>
  <path d="m7 1.5q0-0.5 0.5-0.5t1 0 1 0 0.5 0.5 0.5 0.5h0.5v0.5q0 0.5 0 1v0.5l-0.75 0.25 0.5625-0.1875-0.1875 0.0625q-0.1875 0.0625-0.28125 0.15625l-0.09375 0.09375 0.09375-0.09375-0.29688-0.26562q-0.29688-0.26562-0.17188-0.64062t-0.375-0.375-1 0-1 0-0.375 0.375-0.17188 0.64062l-0.29688 0.26562 0.09375 0.09375-0.09375-0.09375q-0.09375-0.09375-0.28125-0.15625l-0.1875-0.0625 0.5625 0.1875-0.75-0.25v-0.5q0-0.5 0-1v-0.5h0.5q0.5 0 0.5-0.5" fill="#0f0f0f"/>
  <path d="m5 2.5q0-0.5 0.5-0.5h0.5v0.5q0 0.5 0 1v0.5l-0.375 0.125q-0.375 0.125-0.375 0.375t0.375 0.375 0.75 0 0.375-0.375v-0.25 0.375-0.125q0-0.125-0.09375-0.21875l-0.09375-0.09375 0.09375 0.09375 0.29688-0.26562q0.29688-0.26562 0.17188-0.64062t0.375-0.375 1 0 1 0 0.375 0.375 0.17188 0.64062l0.29688 0.26562 0.09375-0.09375-0.09375 0.09375q-0.09375 0.09375-0.09375 0.21875v0.125-0.375 0.25q0 0.25 0.375 0.375t0.75 0 0.375-0.375-0.375-0.375l-0.375-0.125v-0.5q0-0.5 0-1v-0.5h0.5q0.5 0 0.5 0.5t0.125 0.875 0.5 0.5 0.875 0.125 0.5 0.5 0.5 0.5 1 0 1 0h0.5v1h-0.5q-0.5 0-1 0t-0.375 0.375 0.5 0.5 0.375 0.625 0.125 0.875 0.5 0.5l0.375 0.125v4l-0.375 0.125q-0.375 0.125-0.5 0.5t-0.125 0.875-0.5 0.5-0.5 0.5-0.5 0.5-0.875 0.125-0.5 0.5-0.625 0.375-0.5 0.5v0.5h-7v-0.5q0-0.5-0.5-0.5t-0.625-0.375-0.5-0.5-0.875-0.125-0.5-0.5-0.5-0.5-0.5-0.5-0.125-0.875-0.5-0.5l-0.375-0.125v-4l0.375-0.125q0.375-0.125 0.5-0.5t0.125-0.875 0.375-0.625 0.5-0.5-0.375-0.375-1 0h-0.5v-1h0.5q0.5 0 1 0t1 0 0.5-0.5 0.5-0.5 0.875-0.125 0.5-0.5 0.125-0.875m4.5 14.5q0.5 0 0.875-0.125t0.625-0.375 0.625-0.375 0.75-0.25 0.625-0.375 0.5-0.5 0.5-0.5 0.5-0.5 0.5-0.5 0.5-0.5 0.375-0.625 0.125-0.875 0-1-0.125-0.875-0.375-0.625-0.375-0.625-0.25-0.75-0.5-0.5-0.75-0.25-0.625-0.375-0.625-0.375-0.875-0.125-1 0-1 0-1 0-1 0-1 0-1 0-0.875 0.125-0.625 0.375-0.625 0.375-0.75 0.25-0.5 0.5-0.25 0.75-0.375 0.625-0.375 0.625-0.125 0.875 0 1 0.125 0.875 0.375 0.625 0.5 0.5 0.5 0.5 0.5 0.5 0.5 0.5 0.5 0.5 0.625 0.375 0.75 0.25 0.625 0.375 0.625 0.375 0.875 0.125 1 0 1 0m-1.25-12.5q0 0.25 0.25 0.25t0.25-0.25-0.25-0.25-0.25 0.25"/>
  <g fill="#fff">
   <path d="m5.25 4.5q0-0.25 0.375-0.375l0.375-0.125 0.375 0.125q0.375 0.125 0.375 0.375t-0.375 0.375-0.75 0-0.375-0.375"/>
   <path d="m8.25 4.5q0-0.25 0.25-0.25t0.25 0.25-0.25 0.25-0.25-0.25"/>
   <path d="m10.25 4.5q0-0.25 0.375-0.375l0.375-0.125 0.375 0.125q0.375 0.125 0.375 0.375t-0.375 0.375-0.75 0-0.375-0.375"/>
  </g>
  <path d="m0 6.5v-0.5h0.5q0.5 0 1 0t0.375 0.375-0.5 0.5-0.375 0.625-0.125 0.875-0.5 0.5l-0.375 0.125v-2.5" fill-opacity="0"/>
  <path d="m4 6.5q0.25-0.25 0.625-0.375t0.875-0.125 1 0 1 0 1 0 1 0 1 0 1 0 0.875 0.125 0.625 0.375 0.625 0.375 0.75 0.25 0.5 0.5 0.25 0.75 0.375 0.625 0.375 0.625 0.125 0.875 0 1-0.125 0.875-0.375 0.625-0.5 0.5-0.5 0.5-0.5 0.5-0.5 0.5-0.5 0.5-0.625 0.375-0.75 0.25-0.625 0.375-0.625 0.375-0.875 0.125-1 0-1 0-0.875-0.125-0.625-0.375-0.625-0.375-0.75-0.25-0.625-0.375-0.5-0.5-0.5-0.5-0.5-0.5-0.5-0.5-0.5-0.5-0.375-0.625-0.125-0.875 0-1 0.125-0.875 0.375-0.625 0.375-0.625 0.25-0.75 0.5-0.5 0.75-0.25 0.625-0.375m4 9q0.25 0.25 0.5 0.25t0.5-0.25 0.5-0.5 0.5-0.5 0.5-0.5 0.375-0.625 0.125-0.875 0.5-0.5 0.875-0.125 0.625-0.375 0.5-0.5 0.375-0.625 0.125-0.875-0.125-0.875-0.375-0.625-0.5-0.5-0.625-0.375-0.875-0.125-0.875 0.125-0.625 0.375-0.5 0.5-0.375 0.625-0.625 0.375-0.625-0.375-0.375-0.625-0.5-0.5-0.625-0.375-0.875-0.125-0.875 0.125-0.625 0.375-0.5 0.5-0.375 0.625-0.125 0.875 0.125 0.875 0.375 0.625 0.5 0.5 0.625 0.375 0.875 0.125 0.5 0.5 0.125 0.875 0.375 0.625 0.5 0.5 0.5 0.5 0.5 0.5m0.25-8q0 0.25 0.25 0.25t0.25-0.25-0.25-0.25-0.25 0.25" fill="#fff"/>
  <path d="m15.125 6.375q-0.125-0.375 0.375-0.375t1 0h0.5v3l-0.375-0.125q-0.375-0.125-0.5-0.5t-0.125-0.875-0.375-0.625-0.5-0.5" fill-opacity="0"/>
  <g>
   <path d="m4 7.5q0.25-0.25 0.625-0.375t0.875-0.125 0.875 0.125 0.625 0.375 0.5 0.5 0.375 0.625l0.125 0.375-0.1875-0.5625 0.0625 0.1875q0.0625 0.1875 0.21875 0.28125l0.15625 0.09375-0.15625-0.09375 0.03125 1.2188 0.125-0.125-0.125 0.125q-0.125 0.125-0.125 0.375v0.25-0.75 1l-0.375 0.125q-0.375 0.125-0.625 0.375t-0.6875 0.4375l-0.4375 0.1875 0.125 0.125-0.125-0.125q-0.125-0.125-0.375-0.125h-0.25 0.75-0.5q-0.5 0-0.875-0.125t-0.625-0.375-0.5-0.5-0.375-0.625-0.125-0.875 0.125-0.875 0.375-0.625 0.5-0.5m1.5 3.5q0.5 0 0.875-0.125t0.5-0.5 0.125-0.875-0.125-0.875-0.5-0.5-0.875-0.125-0.875 0.125-0.5 0.5-0.125 0.875 0.125 0.875 0.5 0.5 0.875 0.125m2.5 0.125v-0.875 0.25q0 0.25 0 0.5v0.25-0.125"/>
   <path d="m8.25 7.5q0-0.25 0.25-0.25t0.25 0.25-0.25 0.25-0.25-0.25" fill="#dda037"/>
   <path d="m10 7.5q0.25-0.25 0.625-0.375t0.875-0.125 0.875 0.125 0.625 0.375 0.5 0.5 0.375 0.625 0.125 0.875-0.125 0.875-0.375 0.625-0.5 0.5-0.625 0.375-0.875 0.125h-0.5 0.75-0.25q-0.25 0-0.375 0.125l-0.125 0.125 0.125-0.125-0.4375-0.1875q-0.4375-0.1875-0.6875-0.4375t-0.625-0.375l-0.375-0.125v-1 0.75-0.25q0-0.25-0.125-0.375l-0.125-0.125 0.125 0.125 0.03125-1.2188-0.15625 0.09375 0.15625-0.09375q0.15625-0.09375 0.21875-0.28125l0.0625-0.1875-0.1875 0.5625 0.125-0.375q0.125-0.375 0.375-0.625t0.5-0.5m-1 3.125v0.625-0.25q0-0.25 0-0.5v-0.25 0.375m2.5 0.375q0.5 0 0.875-0.125t0.5-0.5 0.125-0.875-0.125-0.875-0.5-0.5-0.875-0.125-0.875 0.125-0.5 0.5-0.125 0.875 0.125 0.875 0.5 0.5 0.875 0.125"/>
   <path d="m4.125 8.625q0.125-0.375 0.5-0.5t0.875-0.125 0.875 0.125 0.5 0.5 0.125 0.875-0.125 0.875-0.5 0.5-0.875 0.125-0.875-0.125-0.5-0.5-0.125-0.875 0.125-0.875" fill="#fefefe"/>
   <path d="m10.125 8.625q0.125-0.375 0.5-0.5t0.875-0.125 0.875 0.125 0.5 0.5 0.125 0.875-0.125 0.875-0.5 0.5-0.875 0.125-0.875-0.125-0.5-0.5-0.125-0.875 0.125-0.875" fill="#fefefe"/>
   <path d="m8.1094 9.5156-0.015625-0.60938-0.15625-0.09375 0.15625 0.09375q0.15625 0.09375 0.40625 0.09375h0.25-0.75 1-0.75 0.25q0.25 0 0.40625-0.09375l0.15625-0.09375-0.15625 0.09375-0.03125 1.2188 0.125 0.125-0.125-0.125q-0.125-0.125-0.375-0.125h-0.25 0.75-1 0.75-0.25q-0.25 0-0.375 0.125l-0.125 0.125 0.125-0.125-0.015625-0.60938" fill="#31319c"/>
   <path d="m8 10.5q0-0.5 0.5-0.5t0.5 0.5 0 1 0 1-0.125 0.875-0.375 0.375-0.375-0.375-0.125-0.875 0-1 0-1" fill="#dda037"/>
   <path d="m7 11.5q0.25-0.25 0.625-0.375l0.375-0.125v0.5q0 0.5 0 1t0.125 0.875 0.375 0.375 0.375-0.375 0.125-0.875 0-1v-0.5l0.375 0.125q0.375 0.125 0.625 0.375t0.6875 0.4375l0.4375 0.1875 0.125-0.125-0.125 0.125q-0.125 0.125-0.125 0.375v0.25-0.75 0.5q0 0.5-0.125 0.875t-0.375 0.625-0.5 0.5-0.5 0.5-0.5 0.5-0.5 0.25-0.5-0.25-0.5-0.5-0.5-0.5-0.5-0.5-0.375-0.625-0.125-0.875v-0.5 0.75-0.25q0-0.25-0.125-0.375l-0.125-0.125 0.125 0.125 0.4375-0.1875q0.4375-0.1875 0.6875-0.4375m2-0.625v0.875-0.25q0-0.25 0-0.5v-0.25 0.125m-1 0.5v-0.625 0.25q0 0.25 0 0.5v0.25-0.375" fill="#31319c"/>
  </g>
  <path d="m0 13.5v-0.5l0.375 0.125q0.375 0.125 0.5 0.5t0.125 0.875 0.5 0.5 0.5 0.5 0.5 0.5 0.875 0.125 0.5 0.5 0.625 0.375 0.5 0.5v0.5h-5v-4.5" fill-opacity="0"/>
  <path d="m16.125 13.625q0.125-0.375 0.5-0.5l0.375-0.125v5h-5v-0.5q0-0.5 0.5-0.5t0.625-0.375 0.5-0.5 0.875-0.125 0.5-0.5 0.5-0.5 0.5-0.5 0.125-0.875" fill-opacity="0"/>
 </g>
</svg>
