<svg width="17" height="14" version="1.1" viewBox="0 0 17 14" xmlns="http://www.w3.org/2000/svg">
 <g transform="translate(0)">
  <path d="m0 0.5v-0.5h5l-0.125 0.375q-0.125 0.375-0.5 0.5t-0.375 0.625-0.5 0.5-1 0-0.5 0.5-0.5 0.5-0.5 0.5-0.125 0.875-0.5 0.5l-0.375 0.125v-4.5" fill-opacity="0"/>
  <path d="m4.875 0.375 0.125-0.375h7l0.125 0.375q0.125 0.375 0.5 0.5t0.5 0.5 0.5 0.5 0.875 0.125 0.625 0.375 0.5 0.5 0.375 0.625 0.125 0.875 0.5 0.5l0.375 0.125v4l-0.375 0.125q-0.375 0.125-0.5 0.5t-0.125 0.875-0.5 0.5-0.5 0.5-0.5 0.5-1 0-0.5 0.5-0.5 0.5-0.5 0.5v0.5h-7v-0.5q0-0.5-0.5-0.5t-0.625-0.375-0.5-0.5-0.875-0.125-0.5-0.5-0.5-0.5-0.5-0.5-0.125-0.875-0.5-0.5l-0.375-0.125v-4l0.375-0.125q0.375-0.125 0.5-0.5t0.125-0.875 0.5-0.5 0.5-0.5 0.5-0.5 1 0 0.5-0.5 0.375-0.625 0.5-0.5m3.625 12.625q0.5 0 0.875-0.125t0.5-0.5 0.125-0.875 0-1 0.125-0.875 0.5-0.5 0.75-0.25 0.375-0.375-0.375-0.375-0.875-0.125-1.0156 0.015625l-0.51562 0.015625 0.03125 0.21875-0.03125-0.21875q-0.03125-0.21875-0.09375-0.40625l-0.0625-0.1875 0.1875 0.5625-0.125-0.375q-0.125-0.375-0.5-0.5t-0.75 0-0.625 0.375-0.625 0.375-0.875 0.125-1.0312 0h-0.53125v0.1875-0.1875q0-0.1875-0.0625-0.375l-0.0625-0.1875 0.1875 0.5625-0.125-0.375q-0.125-0.375-0.5-0.5t-0.875-0.125h-0.5v-0.5q0-0.5-0.125-0.875t-0.375-0.375-0.375 0.375-0.125 0.875 0 1 0.125 0.875 0.375 0.625 0.5 0.5 0.5 0.5 0.5 0.5 0.5 0.5 0.5 0.5 0.625 0.375 0.90625 0.125h0.53125v-0.1875 0.1875q0 0.1875 0.0625 0.375l0.0625 0.1875-0.1875-0.5625 0.125 0.375q0.125 0.375 0.5 0.5t0.875 0.125 1 0m3-6q0.5 0 0.875-0.125t0.5-0.5 0.125-0.875-0.125-0.875-0.5-0.5-0.875-0.125-0.875 0.125-0.5 0.5-0.125 0.875 0.125 0.875 0.5 0.5 0.875 0.125m-6 0q0.5 0 0.875-0.125t0.5-0.5 0.125-0.875-0.125-0.875-0.5-0.5-0.875-0.125-0.875 0.125-0.5 0.5-0.125 0.875 0.125 0.875 0.5 0.5 0.875 0.125m1.625-3.625q0.125 0.375 0.375 0.375t0.375-0.375 0.125-0.875-0.125-0.875-0.375-0.375-0.375 0.375-0.125 0.875 0.125 0.875m-2-1q0.125 0.375 0.375 0.375t0.375-0.375 0-0.75-0.375-0.375-0.375 0.375 0 0.75m-1.875 1.125q0 0.25 0.25 0.25t0.25-0.25-0.25-0.25-0.25 0.25m-1.375 3.5h0.875-0.25q-0.25 0-0.5 0h-0.25 0.125m9.25 4.375q0.125 0.375 0.375 0.375t0.5-0.25 0.625-0.375 0.75-0.25 0.5-0.5 0.125-0.875 0-1-0.125-0.875-0.375-0.375-0.375 0.375-0.125 0.875-0.125 0.875-0.5 0.5-0.75 0.25-0.5 0.5 0 0.75m4-3q0.125 0.375 0.375 0.375t0.375-0.375 0.125-0.875 0-1-0.125-0.875-0.375-0.625-0.375-0.625-0.25-0.75-0.5-0.5-0.75-0.25-0.625-0.375-0.5-0.5-0.5-0.5-0.625-0.375-0.875-0.125-0.875 0.125-0.5 0.5-0.125 0.875 0.125 0.875 0.375 0.375 0.5-0.25 0.625-0.375 0.875-0.125 0.875 0.125 0.625 0.375 0.5 0.5 0.375 0.625 0.125 0.875 0.125 0.875 0.5 0.5l0.375 0.125-0.5625-0.1875 0.1875 0.0625q0.1875 0.0625 0.40625 0.09375l0.21875 0.03125-0.21875-0.03125-0.015625 0.51562q-0.015625 0.51562 0.10938 0.89062"/>
  <path d="m12.125 0.375-0.125-0.375h5v5l-0.375-0.125q-0.375-0.125-0.5-0.5t-0.125-0.875-0.375-0.625-0.5-0.5-0.625-0.375-0.875-0.125-0.5-0.5-0.5-0.5-0.5-0.5" fill-opacity="0"/>
  <g>
   <path d="m5.125 1.625q0.125-0.375 0.375-0.375t0.375 0.375 0 0.75-0.375 0.375-0.375-0.375 0-0.75" fill="#ffba00"/>
   <path d="m7.125 1.625q0.125-0.375 0.375-0.375t0.375 0.375 0.125 0.875-0.125 0.875-0.375 0.375-0.375-0.375-0.125-0.875 0.125-0.875" fill="#ffba00"/>
   <path d="m9.125 1.625q0.125-0.375 0.5-0.5t0.875-0.125 0.875 0.125 0.625 0.375 0.5 0.5 0.5 0.5 0.625 0.375l0.375 0.125 0.125 0.375q0.125 0.375 0.5 0.5l0.375 0.125 0.125 0.375q0.125 0.375 0.375 0.625t0.375 0.625 0.125 0.875v0.5h-0.5q-0.5 0-0.875-0.125t-0.5-0.5-0.125-0.875-0.125-0.875-0.375-0.625-0.5-0.5-0.625-0.375l-0.375-0.125 0.5625 0.1875-0.1875-0.0625q-0.1875-0.0625-0.40625-0.09375l-0.21875-0.03125 0.21875 0.03125-0.10938-0.39062q-0.10938-0.39062-0.35938-0.39062t-0.35938 0.39062l-0.10938 0.39062 0.21875-0.03125-0.21875 0.03125q-0.21875 0.03125-0.40625 0.09375l-0.1875 0.0625 0.5625-0.1875-0.375 0.125q-0.375 0.125-0.625 0.375t-0.5 0.25-0.375-0.375-0.125-0.875 0.125-0.875m6.875 5.5v-0.875 0.25q0 0.25 0 0.5v0.25-0.125m-0.90625-2.8438-0.15625-0.46875 0.0625 0.1875q0.0625 0.1875 0.125 0.375l0.0625 0.1875-0.09375-0.28125m-1-1.25-0.65625-0.21875 0.1875 0.0625q0.1875 0.0625 0.375 0.125l0.1875 0.0625-0.09375-0.03125" fill="#fff"/>
   <path d="m11.141 2.6406q0.10938-0.39062 0.35938-0.39062t0.35938 0.39062l0.10938 0.39062 0.21875 0.03125-0.21875-0.03125q-0.21875-0.03125-0.46875-0.03125h-0.25 0.75-1 0.75-0.25q-0.25 0-0.46875 0.03125l-0.21875 0.03125 0.21875-0.03125 0.10938-0.39062" fill="#f00"/>
   <path d="m3.25 3.5q0-0.25 0.25-0.25t0.25 0.25-0.25 0.25-0.25-0.25" fill="#ffba00"/>
   <path d="m14.125 3.375-0.125-0.375 0.375 0.125q0.375 0.125 0.5 0.5l0.125 0.375-0.375-0.125q-0.375-0.125-0.5-0.5m0.90625 0.71875-0.21875-0.65625 0.0625 0.1875q0.0625 0.1875 0.125 0.375l0.0625 0.1875-0.03125-0.09375m-0.75-1-0.46875-0.15625 0.1875 0.0625q0.1875 0.0625 0.375 0.125l0.1875 0.0625-0.28125-0.09375" fill="#f00"/>
   <path d="m4.125 4.625q0.125-0.375 0.5-0.5t0.875-0.125 0.875 0.125 0.5 0.5 0.125 0.875-0.125 0.875-0.5 0.5-0.875 0.125-0.875-0.125-0.5-0.5-0.125-0.875 0.125-0.875" fill="#fff"/>
   <path d="m10.125 4.625q0.125-0.375 0.5-0.5t0.875-0.125 0.875 0.125 0.5 0.5 0.125 0.875-0.125 0.875-0.5 0.5-0.875 0.125-0.875-0.125-0.5-0.5-0.125-0.875 0.125-0.875" fill="#fff"/>
   <path d="m1.125 5.625q0.125-0.375 0.375-0.375t0.375 0.375 0.125 0.875v0.5h-1v-0.5q0-0.5 0.125-0.875m-0.125 1v0.625-0.25q0-0.25 0-0.5v-0.25 0.375m0.625 0.375h0.625-0.25q-0.25 0-0.5 0h-0.25 0.375" fill="#ffba00"/>
   <path d="m1 7.5v-0.5h0.5q0.5 0 1 0t0.875 0.125 0.5 0.5 0 0.75-0.375 0.625-0.25 0.5 0.375 0.375 0.75 0.25 0.5 0.5 0.14062 0.85938l0.015625 0.48438 0.21875 0.03125-0.21875-0.03125q-0.21875-0.03125-0.40625-0.09375l-0.1875-0.0625 0.5625 0.1875-0.375-0.125q-0.375-0.125-0.625-0.375t-0.5-0.5-0.5-0.5-0.5-0.5-0.5-0.5-0.5-0.5-0.375-0.625-0.125-0.875m0-0.625v0.875-0.25q0-0.25 0-0.5v-0.25 0.125" fill="#fff"/>
   <path d="m7 7.5q0.25-0.25 0.625-0.375t0.75 0 0.5 0.5 0.125 0.875 0 1v0.5h-0.5q-0.5 0-1 0h-0.5l-0.125-0.375q-0.125-0.375-0.375-0.625t-0.39062-0.64062l-0.14062-0.39062-0.21875 0.03125 0.21875-0.03125q0.21875-0.03125 0.40625-0.09375l0.1875-0.0625-0.5625 0.1875 0.375-0.125q0.375-0.125 0.625-0.375m2 2.625v-0.875 0.25q0 0.25 0 0.5v0.25-0.125" fill="#f00"/>
   <path d="m13.125 7.625q0.125-0.375 0.375-0.375t0.375 0.375 0.125 0.875 0 1-0.125 0.875-0.5 0.5-0.75 0.25-0.625 0.375-0.5 0.25-0.375-0.375 0-0.75 0.5-0.5 0.75-0.25 0.5-0.5 0.125-0.875 0.125-0.875" fill="#ffba00"/>
   <path d="m15.016 7.4844 0.015625-0.51562-0.21875-0.03125 0.21875 0.03125q0.21875 0.03125 0.46875 0.03125h0.25-0.75 1v0.5q0 0.5-0.125 0.875t-0.375 0.375-0.375-0.375-0.10938-0.89062m0.98438-0.10938v-0.625 0.25q0 0.25 0 0.5v0.25-0.375" fill="#ffba00"/>
   <path d="m3.875 8.375 0.125-0.375-0.1875 0.5625 0.0625-0.1875q0.0625-0.1875 0.0625-0.375v-0.1875 0.1875h1.0625v0.5q0 0.5 0.125 0.875t0.5 0.5 0.875 0.125h0.5l-0.125 0.375q-0.125 0.375-0.375 0.625t-0.375 0.625l-0.125 0.375 0.1875-0.5625-0.0625 0.1875q-0.0625 0.1875-0.0625 0.375v0.1875-0.1875h-1.0625 0.75-0.25q-0.25 0-0.46875-0.03125l-0.21875-0.03125 0.21875 0.03125-0.015625-0.48438q-0.015625-0.48438-0.14062-0.85938t-0.5-0.5-0.75-0.25-0.375-0.375 0.25-0.5 0.375-0.625m1.25-0.375h-0.875 0.25q0.25 0 0.5 0h0.25-0.125" fill="#f00"/>
   <path d="m5 8.5v-0.5h1-0.75 0.25q0.25 0 0.46875-0.03125l0.21875-0.03125-0.21875 0.03125 0.14062 0.39062q0.14062 0.39062 0.39062 0.64062t0.375 0.625l0.125 0.375h-0.5q-0.5 0-0.875-0.125t-0.5-0.5-0.125-0.875m0.375-0.5h-0.625 0.25q0.25 0 0.5 0h0.25-0.375" fill="#fff"/>
   <path d="m9 8.5v-0.5 0.75-0.25q0-0.25-0.03125-0.46875l-0.03125-0.21875 0.03125 0.21875 0.51562-0.015625q0.51562-0.015625 1.0156-0.015625t0.875 0.125 0.375 0.375-0.375 0.375-0.75 0.25-0.5 0.5-0.125 0.875 0 1-0.125 0.875-0.5 0.5l-0.375 0.125 0.5625-0.1875-0.1875 0.0625q-0.1875 0.0625-0.40625 0.09375l-0.21875 0.03125 0.21875-0.03125 0.015625-0.48438q0.015625-0.48438 0.015625-0.98438t0-1 0-1 0-1" fill="#ffba00"/>
  </g>
  <path d="m0 9.5v-0.5l0.375 0.125q0.375 0.125 0.5 0.5t0.125 0.875 0.5 0.5 0.5 0.5 0.5 0.5 0.875 0.125 0.5 0.5 0.625 0.375 0.5 0.5v0.5h-5v-4.5" fill-opacity="0"/>
  <path d="m16.125 9.625q0.125-0.375 0.5-0.5l0.375-0.125v5h-5v-0.5q0-0.5 0.5-0.5t0.5-0.5 0.5-0.5 1 0 0.5-0.5 0.5-0.5 0.5-0.5 0.125-0.875" fill-opacity="0"/>
  <path d="m6.875 10.375 0.125-0.375h0.5q0.5 0 1 0h0.5v0.5q0 0.5 0 1t-0.015625 0.98438l-0.015625 0.48438 0.21875-0.03125-0.21875 0.03125q-0.21875 0.03125-0.46875 0.03125h-0.25 0.75-0.5q-0.5 0-1 0t-0.875-0.125-0.5-0.5 0-0.75 0.375-0.625 0.375-0.625m2.125 0v-0.625 0.25q0 0.25 0 0.5v0.25-0.375" fill="#fff"/>
 </g>
</svg>
