<svg width="17" height="18" version="1.1" viewBox="0 0 17 18" xmlns="http://www.w3.org/2000/svg">
 <g transform="translate(0)">
  <path d="m0 0.5v-0.5h4v0.5q0 0.5 0 1v0.5h-0.5q-0.5 0-0.5-0.5t-0.5-0.5-0.5 0.5 0 1v0.5h-0.5q-0.5 0-0.5-0.5t-0.5-0.5h-0.5v-1.5" fill-opacity="0"/>
  <path d="m4 0.5v-0.5h1v0.5q0 0.5 0.5 0.5h0.5v0.5q0 0.5-0.5 0.5t-1 0h-0.5v-0.5q0-0.5 0-1"/>
  <path d="m5 0.5v-0.5h1v1h-0.5q-0.5 0-0.5-0.5" fill-opacity="0"/>
  <path d="m6 0.5v-0.5h1v1h-1v-0.5"/>
  <path d="m7 0.5v-0.5h1v1h-1v-0.5" fill-opacity="0"/>
  <path d="m8 0.5v-0.5h1v1h-1v-0.5"/>
  <path d="m9 0.5v-0.5h1v1h-1v-0.5" fill-opacity="0"/>
  <path d="m10 0.5v-0.5h1v1h-1v-0.5"/>
  <path d="m11 0.5v-0.5h1v0.5q0 0.5-0.5 0.5h-0.5v-0.5" fill-opacity="0"/>
  <path d="m12 0.5v-0.5h1v0.5q0 0.5 0 1v0.5h-0.5q-0.5 0-1 0t-0.5-0.5v-0.5h0.5q0.5 0 0.5-0.5"/>
  <path d="m13 0.5v-0.5h4v2h-0.5q-0.5 0-0.5 0.5t-0.5 0.5h-0.5v-0.5q0-0.5 0-1t-0.5-0.5-0.5 0.5-0.5 0.5h-0.5v-0.5q0-0.5 0-1" fill-opacity="0"/>
  <path d="m2 1.5q0-0.5 0.5-0.5t0.5 0.5 0.5 0.5h0.5v0.5q0 0.5-0.5 0.5t-1 0h-0.5v-0.5q0-0.5 0-1"/>
  <path d="m6 1.5v-0.5h1v0.5q0 0.5 0.5 0.5t0.5-0.5v-0.5h1v0.5q0 0.5 0.5 0.5t0.5-0.5v-0.5h1v0.5q0 0.5 0.5 0.5t1 0h0.5v0.5q0 0.5 0.5 0.5t1 0h0.5v0.5q0 0.5 0.5 0.5t0.5 0.5 0 1 0 1-0.375 0.375-0.5-0.5-0.625-0.375-0.875-0.125-0.5-0.5-0.5-0.5-0.5-0.5-0.625-0.375-1 0-1 0-1 0-1 0-1 0-1 0-0.625 0.375-0.5 0.5-0.5 0.5-0.5 0.5-0.875 0.125-0.625 0.375-0.5 0.5-0.375-0.375 0-1 0-1 0.5-0.5 0.5-0.5v-0.5h0.5q0.5 0 1 0t0.5-0.5v-0.5h0.5q0.5 0 1 0t0.5-0.5" fill="#0f0f0f"/>
  <g>
   <path d="m7 1.5v-0.5h1v0.5q0 0.5-0.5 0.5t-0.5-0.5"/>
   <path d="m9 1.5v-0.5h1v0.5q0 0.5-0.5 0.5t-0.5-0.5"/>
   <path d="m14 1.5q0-0.5 0.5-0.5t0.5 0.5 0 1v0.5h-0.5q-0.5 0-1 0t-0.5-0.5v-0.5h0.5q0.5 0 0.5-0.5"/>
   <path d="m0 2.5v-0.5h0.5q0.5 0 0.5 0.5t0.5 0.5h0.5v0.5q0 0.5-0.5 0.5t-0.5 0.5 0 1 0 1 0.375 0.375 0.5-0.5 0.625-0.375 0.875-0.125 0.5-0.5 0.5-0.5 0.5-0.5 0.625-0.375 1 0 1 0 1 0 1 0 1 0 1 0 0.625 0.375 0.5 0.5 0.5 0.5 0.5 0.5 0.875 0.125 0.625 0.375 0.5 0.5 0.375-0.375 0-1 0-1-0.5-0.5-0.5-0.5v-0.5h0.5q0.5 0 0.5-0.5t0.5-0.5h0.5v11l-0.375 0.125q-0.375 0.125-0.5 0.5t-0.125 0.875-0.5 0.5-0.5 0.5-0.5 0.5-0.875 0.125-0.5 0.5-0.625 0.375-0.5 0.5v0.5h-7v-0.5q0-0.5-0.5-0.5t-0.625-0.375-0.5-0.5-0.875-0.125-0.5-0.5-0.5-0.5-0.5-0.5-0.125-0.875-0.5-0.5l-0.375-0.125v-10.5m9.5 14.5q0.5 0 0.875-0.125t0.625-0.375 0.625-0.375 0.75-0.25 0.625-0.375 0.5-0.5 0.5-0.5 0.5-0.5 0.5-0.5 0.5-0.5 0.375-0.625 0.125-0.875 0-1-0.125-0.875-0.375-0.625-0.375-0.625-0.25-0.75-0.5-0.5-0.75-0.25-0.625-0.375-0.5-0.5-0.5-0.5-0.625-0.375-0.875-0.125-1 0-1 0-1 0-1 0-0.875 0.125-0.625 0.375-0.5 0.5-0.5 0.5-0.625 0.375-0.75 0.25-0.5 0.5-0.25 0.75-0.375 0.625-0.375 0.625-0.125 0.875 0 1 0.125 0.875 0.375 0.625 0.5 0.5 0.5 0.5 0.5 0.5 0.5 0.5 0.5 0.5 0.625 0.375 0.75 0.25 0.625 0.375 0.625 0.375 0.875 0.125 1 0 1 0"/>
  </g>
  <g>
   <path d="m5 5.5q0.25-0.25 0.625-0.375t0.875-0.125 1 0 1 0 1 0 1 0 0.875 0.125 0.625 0.375 0.5 0.5 0.5 0.5 0.625 0.375 0.75 0.25 0.5 0.5 0.25 0.75 0.375 0.625 0.375 0.625 0.125 0.875 0 1-0.125 0.875-0.375 0.625-0.5 0.5-0.5 0.5-0.5 0.5-0.5 0.5-0.5 0.5-0.625 0.375-0.75 0.25-0.625 0.375-0.625 0.375-0.875 0.125-1 0-1 0-0.875-0.125-0.625-0.375-0.625-0.375-0.75-0.25-0.625-0.375-0.5-0.5-0.5-0.5-0.5-0.5-0.5-0.5-0.5-0.5-0.375-0.625-0.125-0.875 0-1 0.125-0.875 0.375-0.625 0.375-0.625 0.25-0.75 0.5-0.5 0.75-0.25 0.625-0.375 0.5-0.5 0.5-0.5m3 9q0.25 0.25 0.5 0.25t0.5-0.25 0.5-0.5 0.375-0.625 0.125-0.875 0.5-0.5h0.5v0.5q0 0.5 0.125 0.875t0.375 0.375 0.375-0.375l0.125-0.375 0.375-0.125q0.375-0.125 0.45312-0.54688l0.07813-0.42188-0.07813 0.04687-0.078125 0.04688 0.15625-0.09375q0.15625-0.09375 0.21875-0.28125l0.0625-0.1875-0.1875 0.5625 0.125-0.375q0.125-0.375 0.375-0.625t0.375-0.625 0.125-0.875-0.125-0.875-0.375-0.625-0.5-0.5-0.625-0.375-0.875-0.125-1 0-1 0-1 0-1 0-1 0-1 0-0.875 0.125-0.625 0.375-0.5 0.5-0.375 0.625-0.125 0.875 0.125 0.875 0.375 0.625 0.375 0.625l0.125 0.375-0.1875-0.5625 0.0625 0.1875q0.0625 0.1875 0.21875 0.28125l0.15625 0.09375-0.15625-0.09375 0.078125 0.42188q0.078125 0.42188 0.45312 0.54688l0.375 0.125 0.125 0.375q0.125 0.375 0.375 0.375t0.375-0.375l0.125-0.375v0.75-0.25q0-0.25-0.125-0.375l-0.125-0.125 0.125 0.125 0.125-1.125h0.5q0.5 0 0.5 0.5t0.125 0.875 0.375 0.625 0.5 0.5m3.125-2.5h-0.875 0.25q0.25 0 0.5 0h0.25-0.125m-4.75 0h-0.625 0.25q0.25 0 0.5 0h0.25-0.375" fill="#ffc94b"/>
   <path d="m4 7.5q0.25-0.25 0.625-0.375t0.875-0.125 1 0h0.5l0.125 0.375q0.125 0.375 0.5 0.5l0.375 0.125v0.5q0 0.5 0 1v0.5-0.75 0.25q0 0.25 0.125 0.375l0.125 0.125-0.125-0.125-0.1875 0.4375q-0.1875 0.4375-0.4375 0.6875t-0.4375 0.6875l-0.1875 0.4375 0.125 0.125-0.125-0.125q-0.125-0.125-0.375-0.125h-0.25 0.75-0.5q-0.5 0-1 0t-1 0-0.625-0.375-0.375-0.625-0.375-0.625-0.125-0.875 0.125-0.875 0.375-0.625 0.5-0.5m1.5 3.5q0.5 0 0.875-0.125t0.5-0.5 0.125-0.875-0.125-0.875-0.5-0.5-0.875-0.125-0.875 0.125-0.5 0.5-0.125 0.875 0.125 0.875 0.5 0.5 0.875 0.125m2.5-2.625v-0.625 0.25q0 0.25 0 0.5v0.25-0.375m-0.875-1.375h-0.875 0.25q0.25 0 0.5 0h0.25-0.125"/>
   <path d="m7.125 7.375-0.125-0.375h1v1l-0.375-0.125q-0.375-0.125-0.5-0.5m0.875 0.75v-0.875 0.25q0 0.25 0 0.5v0.25-0.125m0.125-1.125h-0.875 0.25q0.25 0 0.5 0h0.25-0.125m-0.75 0h-0.625 0.25q0.25 0 0.5 0h0.25-0.375" fill="#00589c"/>
   <path d="m8 7.5v-0.5h1v0.5q0 0.5 0 1v0.5h-1v-0.5q0-0.5 0-1m0 1.125v0.625-0.25q0-0.25 0-0.5v-0.25 0.375m1 0.5v-0.875 0.25q0 0.25 0 0.5v0.25-0.125m0.125-2.125h-0.875 0.25q0.25 0 0.5 0h0.25-0.125m-0.75 0h-0.625 0.25q0.25 0 0.5 0h0.25-0.375" fill="#a96a41"/>
   <path d="m9 7.5v-0.5h1l-0.125 0.375q-0.125 0.375-0.5 0.5l-0.375 0.125v-0.5m0 0.125v0.625-0.25q0-0.25 0-0.5v-0.25 0.375m1.125-0.625h-0.875 0.25q0.25 0 0.5 0h0.25-0.125m-0.75 0h-0.625 0.25q0.25 0 0.5 0h0.25-0.375" fill="#00589c"/>
   <path d="m9.875 7.375 0.125-0.375h0.5q0.5 0 1 0t0.875 0.125 0.625 0.375 0.5 0.5 0.375 0.625 0.125 0.875-0.125 0.875-0.375 0.625-0.375 0.625-0.625 0.375-1 0-1 0h-0.5 0.75-0.25q-0.25 0-0.375 0.125l-0.125 0.125 0.125-0.125-0.1875-0.4375q-0.1875-0.4375-0.4375-0.6875t-0.4375-0.6875l-0.1875-0.4375-0.125 0.125 0.125-0.125q0.125-0.125 0.125-0.375v-0.25 0.75-0.5q0-0.5 0-1v-0.5l0.375-0.125q0.375-0.125 0.5-0.5m-0.875 0.5v0.875-0.25q0-0.25 0-0.5v-0.25 0.125m2.5 3.125q0.5 0 0.875-0.125t0.5-0.5 0.125-0.875-0.125-0.875-0.5-0.5-0.875-0.125-0.875 0.125-0.5 0.5-0.125 0.875 0.125 0.875 0.5 0.5 0.875 0.125m-1.125-4h-0.625 0.25q0.25 0 0.5 0h0.25-0.375"/>
   <path d="m4.125 8.625q0.125-0.375 0.5-0.5t0.875-0.125 0.875 0.125 0.5 0.5 0.125 0.875-0.125 0.875-0.5 0.5-0.875 0.125-0.875-0.125-0.5-0.5-0.125-0.875 0.125-0.875" fill="#fff"/>
   <path d="m10.125 8.625q0.125-0.375 0.5-0.5t0.875-0.125 0.875 0.125 0.5 0.5 0.125 0.875-0.125 0.875-0.5 0.5-0.875 0.125-0.875-0.125-0.5-0.5-0.125-0.875 0.125-0.875" fill="#fff"/>
   <path d="m8 9.5v-0.5h1v0.5q0 0.5-0.5 0.5t-0.5-0.5m1-0.125v-0.625 0.25q0 0.25 0 0.5v0.25-0.375m-1-0.5v0.875-0.25q0-0.25 0-0.5v-0.25 0.125" fill="#e2e258"/>
   <path d="m7.9375 10.312 0.1875-0.4375-0.125-0.125 0.125 0.125q0.125 0.125 0.375 0.125h0.25-0.75 1-0.75 0.25q0.25 0 0.375-0.125l0.125-0.125-0.125 0.125 0.1875 0.4375q0.1875 0.4375 0.4375 0.6875t0.4375 0.6875l0.1875 0.4375 0.125-0.125-0.125 0.125q-0.125 0.125-0.125 0.375v0.25-0.75 0.5q0 0.5-0.125 0.875t-0.375 0.625-0.5 0.5-0.5 0.25-0.5-0.25-0.5-0.5-0.375-0.625-0.125-0.875v-0.5 0.75-0.25q0-0.25-0.125-0.375l-0.125-0.125 0.125 0.125 0.1875-0.4375q0.1875-0.4375 0.4375-0.6875t0.4375-0.6875" fill="#00589c"/>
   <path d="m4.1719 12.328-0.078125-0.42188-0.15625-0.09375 0.15625 0.09375q0.15625 0.09375 0.40625 0.09375h0.25-0.75 1v1l-0.375-0.125q-0.375-0.125-0.45312-0.54688m0.95312-0.32812h-0.875 0.25q0.25 0 0.5 0h0.25-0.125" fill="#ffe8b9"/>
   <path d="m5 12.5v-0.5h1l-0.125 1.125 0.125 0.125-0.125-0.125q-0.125-0.125-0.375-0.125h-0.25 0.75-1v-0.5m1.125-0.5h-0.875 0.25q0.25 0 0.5 0h0.25-0.125m-0.75 0h-0.625 0.25q0.25 0 0.5 0h0.25-0.375" fill="#ff9e0f"/>
   <path d="m11 12.5v-0.5h1v1l-0.96875-0.03126 0.03126 0.21875-0.03125-0.21875q-0.03126-0.21874-0.03126-0.46874v-0.25 0.75-0.5m1.125-0.5h-0.875 0.25q0.25 0 0.5 0h0.25-0.125m-0.75 0h-0.625 0.25q0.25 0 0.5 0h0.25-0.375" fill="#ef1439"/>
   <path d="m12 12.5v-0.5h1-0.75 0.25q0.25 0 0.40625-0.09375l0.15625-0.09375-0.15626 0.09374-0.07813 0.42188q-0.07811 0.42188-0.45311 0.54688l-0.375 0.125v-0.5m0.375-0.5h-0.625 0.25q0.25 0 0.5 0h0.25-0.375" fill="#ffe8b9"/>
  </g>
  <path d="m0 13.5v-0.5l0.375 0.125q0.375 0.125 0.5 0.5t0.125 0.875 0.5 0.5 0.5 0.5 0.5 0.5 0.875 0.125 0.5 0.5 0.625 0.375 0.5 0.5v0.5h-5v-4.5" fill-opacity="0"/>
  <path d="m5.125 13.375-0.125-0.375h0.5q0.5 0 0.375 0.375t-0.375 0.375-0.375-0.375" fill="#00589c"/>
  <path d="m11.125 13.375-0.125-0.375 0.1875 0.5625-0.0625-0.1875q-0.0625-0.1875-0.09375-0.40625l-0.03125-0.21875 0.03126 0.21875 0.96874 0.03125-0.125 0.375q-0.125 0.375-0.375 0.375t-0.375-0.375" fill="#00589c"/>
  <path d="m16.125 13.625q0.125-0.375 0.5-0.5l0.375-0.125v5h-5v-0.5q0-0.5 0.5-0.5t0.625-0.375 0.5-0.5 0.875-0.125 0.5-0.5 0.5-0.5 0.5-0.5 0.125-0.875" fill-opacity="0"/>
 </g>
</svg>
