<svg width="21" height="14" version="1.1" viewBox="0 0 21 14" xmlns="http://www.w3.org/2000/svg">
 <g transform="translate(0)">
  <path d="m0 0.5v-0.5h7l0.125 0.375q0.125 0.375 0.5 0.5t0.875 0.125 1 0 1 0 1 0 1 0 0.875-0.125 0.5-0.5l0.125-0.375h1l0.125 0.375q0.125 0.375 0.5 0.5t0.375 0.625 0.5 0.5 1 0 1 0 1 0 1 0h0.5v3l-0.375 0.125q-0.375 0.125-0.5 0.5t-0.625 0.375-0.625-0.375-0.375-0.375-0.375 0.375-0.5 0.5-0.5 0.5 0 0.75 0.5 0.5 0.5 0.5 0.375 0.375 0.375-0.375 0.625-0.375 0.625 0.375 0.5 0.5l0.375 0.125v3h-0.5q-0.5 0-1 0t-1 0-1 0-1 0-1 0-0.875 0.125-0.5 0.5-0.625 0.375-1 0-1 0-1 0-1 0-1 0-1 0-1 0-0.875 0.125-0.5 0.5l-0.125 0.375h-5v-13.5m3.5 12.5q0.5 0 0.875-0.125t0.625-0.375 0.625-0.375 0.875-0.125 1 0 1 0 1 0 1 0 1 0 1 0 0.875-0.125 0.625-0.375 0.625-0.375 0.875-0.125 1 0 1 0 1 0 0.875-0.125 0.5-0.5 0-0.75-0.375-0.375-0.375 0.375l-0.125 0.375 0.1875-0.5625-0.0625 0.1875q-0.0625 0.1875-0.09375 0.40625l-0.03125 0.21875 0.03125-0.21875-1.0312-0.03125-0.125-0.375q-0.125-0.375-0.375-0.625t-0.5-0.5-0.625-0.375l-0.375-0.125 0.5625 0.1875-0.1875-0.0625q-0.1875-0.0625-0.40625-0.09375l-0.21875-0.03125 0.21875 0.03125 0.015625-0.51562q0.015625-0.51562 0-1.0312l-0.015625-0.51562-0.21875 0.03125 0.21875-0.03125q0.21875-0.03125 0.40625-0.09375l0.1875-0.0625-0.5625 0.1875 0.375-0.125q0.375-0.125 0.625-0.375t0.5-0.5 0.375-0.625l0.125-0.375 1.0312-0.03125-0.03125-0.21875 0.03125 0.21875q0.03125 0.21875 0.09375 0.40625l0.0625 0.1875-0.1875-0.5625 0.125 0.375q0.125 0.375 0.375 0.375t0.375-0.375 0-0.75-0.5-0.5-0.875-0.125-1 0-0.875 0.125-0.48438 0.51562l-0.10938 0.39062 0.21875-0.03125-0.21875 0.03125q-0.21875 0.03125-0.40625 0.09375l-0.1875 0.0625 0.5625-0.1875-0.375 0.125q-0.375 0.125-0.625 0.375t-0.625 0.375-0.875 0.125-0.875-0.125-0.625-0.375-0.625-0.375l-0.375-0.125 0.5625 0.1875-0.1875-0.0625q-0.1875-0.0625-0.40625-0.09375l-0.21875-0.03125 0.21875 0.03125 0.14062-0.39062q0.14062-0.39062 0.39062-0.64062t0.25-0.5-0.375-0.375-0.875-0.125-0.875 0.125-0.375 0.375 0.25 0.5 0.39062 0.64062l0.14062 0.39062 0.21875-0.03125-0.21875 0.03125q-0.21875 0.03125-0.40625 0.09375l-0.1875 0.0625 0.5625-0.1875-0.375 0.125q-0.375 0.125-0.51562 0.51562l-0.14062 0.39062 0.21875 0.03125-0.21875-0.03125q-0.21875-0.03125-0.46875-0.03125h-0.25 0.75-0.5q-0.5 0-1 0t-1 0h-0.5l-0.125-0.375q-0.125-0.375-0.375-0.625t-0.375-0.625-0.125-0.875-0.125-0.875-0.5-0.5-0.875-0.125-1 0-0.875 0.125-0.5 0.5-0.125 0.875 0 1 0 1 0 1 0 1 0 1 0 1 0 1 0 1 0 1 0.125 0.875 0.5 0.5 0.875 0.125 1 0m14.375-3h0.875-0.25q-0.25 0-0.5 0h-0.25 0.125m0.5-6h-0.625 0.25q0.25 0 0.5 0h0.25-0.375m-4.875 0q0.5 0 0.875-0.125t0.5-0.5 0.125-0.875-0.125-0.875-0.375-0.375-0.5 0.25-0.5 0.5-0.5 0.5-0.5 0.5-0.25 0.5 0.375 0.375 0.875 0.125m-6 0q0.5 0 0.875-0.125t0.375-0.375-0.25-0.5-0.5-0.5-0.5-0.5-0.5-0.5-0.5-0.25-0.375 0.375-0.125 0.875 0.125 0.875 0.5 0.5 0.875 0.125"/>
  <path d="m7.125 0.375-0.125-0.375h7l-0.125 0.375q-0.125 0.375-0.5 0.5t-0.875 0.125-1 0-1 0-1 0-1 0-0.875-0.125-0.5-0.5" fill-opacity="0"/>
  <path d="m15.125 0.375-0.125-0.375h6v2h-0.5q-0.5 0-1 0t-1 0-1 0-1 0-0.5-0.5-0.375-0.625-0.5-0.5" fill-opacity="0"/>
  <g>
   <path d="m1.125 1.625q0.125-0.375 0.5-0.5l0.375-0.125-0.5625 0.1875 0.1875-0.0625q0.1875-0.0625 0.40625-0.09375l0.21875-0.03125-0.21875 0.03125 0.10938 0.35938q0.10938 0.35938 0.48438 0.48438t0.75 0.25 0.625 0.375 0.64062 0.35938l0.39062 0.10938-0.03125-0.21875 0.03125 0.21875q0.03125 0.21875 0.09375 0.40625l0.0625 0.1875-0.1875-0.5625 0.125 0.375q0.125 0.375 0.375 0.625t0.375 0.625l0.125 0.375h-0.5q-0.5 0-0.875-0.125t-0.625-0.375-0.5-0.25-0.5 0.25-0.5 0.5-0.25 0.5 0.25 0.5 0.375 0.625 0 0.75-0.375 0.625-0.25 0.5 0.25 0.5 0.5 0.5 0.5 0.25 0.5-0.25 0.625-0.375 0.875-0.125 0.875-0.125 0.625-0.375 0.5-0.5 0.375-0.625 0-0.75-0.375-0.625-0.375-0.625l-0.125-0.375h0.5q0.5 0 1 0t0.875 0.125 0.625 0.375 0.625 0.375 0.875 0.125h0.5v0.5q0 0.5 0 1v0.5h-0.5q-0.5 0-0.875 0.125t-0.625 0.375-0.625 0.375-0.75 0.25-0.625 0.375-0.625 0.375-0.75 0.25-0.5 0.5l-0.125 0.375h-0.5q-0.5 0-0.875 0.125t-0.625 0.375-0.625 0.375-0.75 0.25-0.48438 0.48438l-0.10938 0.35938 0.21875 0.03125-0.21875-0.03125q-0.21875-0.03125-0.40625-0.09375l-0.1875-0.0625 0.5625 0.1875-0.375-0.125q-0.375-0.125-0.5-0.5t-0.125-0.875 0-1 0-1 0-1 0-1 0-1 0-1 0-1 0-1 0-1 0.125-0.875m4.5 9.375h0.625-0.25q-0.25 0-0.5 0h-0.25 0.375m6-3h0.625-0.25q-0.25 0-0.5 0h-0.25 0.375m0.5-2h-0.875 0.25q0.25 0 0.5 0h0.25-0.125m-4.75-1h-0.625 0.25q0.25 0 0.5 0h0.25-0.375" fill="#00c"/>
   <path d="m2.1406 1.3906-0.10938-0.35938-0.21875 0.03125 0.21875-0.03125q0.21875-0.03125 0.46875-0.03125h0.25-0.75 0.5q0.5 0 1 0t0.875 0.125 0.5 0.5 0.125 0.875v0.5-0.75 0.25q0 0.25 0.03125 0.46875l0.03125 0.21875-0.03125-0.21875-0.39062-0.10938q-0.39062-0.10938-0.64062-0.35938t-0.625-0.375-0.75-0.25-0.48438-0.48438" fill="#f00"/>
   <path d="m6.125 1.625q0.125-0.375 0.375-0.375t0.5 0.25 0.5 0.5 0.5 0.5 0.5 0.5 0.25 0.5-0.375 0.375-0.875 0.125-0.875-0.125-0.5-0.5-0.125-0.875 0.125-0.875" fill="#fff"/>
   <path d="m14 1.5q0.25-0.25 0.5-0.25t0.375 0.375 0.125 0.875-0.125 0.875-0.5 0.5-0.875 0.125-0.875-0.125-0.375-0.375 0.25-0.5 0.5-0.5 0.5-0.5 0.5-0.5" fill="#fff"/>
   <path d="m9.25 2.5q0-0.25 0.375-0.375t0.875-0.125 0.875 0.125 0.375 0.375-0.25 0.5-0.39062 0.64062l-0.14062 0.39062 0.21875 0.03125-0.21875-0.03125q-0.21875-0.03125-0.46875-0.03125h-0.25 0.75-1 0.75-0.25q-0.25 0-0.46875 0.03125l-0.21875 0.03125 0.21875-0.03125-0.14062-0.39062q-0.14062-0.39062-0.39062-0.64062t-0.25-0.5" fill="#f00"/>
   <path d="m16.141 3.6406q0.10938-0.39062 0.48438-0.51562t0.875-0.125 1 0h0.5-0.75 0.25q0.25 0 0.46875 0.03125l0.21875 0.03125-0.21875-0.03125 0.03125 0.96875v-0.75 0.25q0 0.25 0.03125 0.46875l0.03125 0.21875-0.03125-0.21875-0.51562 0.015625q-0.51562 0.015625-1.0156 0.015625t-1 0h-0.5 0.75-0.25q-0.25 0-0.46875 0.03125l-0.21875 0.03125 0.21875-0.03125 0.10938-0.39062" fill="#f00"/>
  </g>
  <g fill="#fff">
   <path d="m18.984 3.5156-0.015625-0.48438-0.21875-0.03125 0.21875 0.03125q0.21875 0.03125 0.40625 0.09375l0.1875 0.0625-0.5625-0.1875 0.375 0.125q0.375 0.125 0.5 0.5t0 0.75-0.375 0.375-0.375-0.375-0.14062-0.85938"/>
   <path d="m3 4.5q0.25-0.25 0.5-0.25t0.5 0.25 0.625 0.375l0.375 0.125-0.5625-0.1875 0.1875 0.0625q0.1875 0.0625 0.40625 0.09375l0.21875 0.03125-0.21875-0.03125-0.14062 0.39062q-0.14062 0.39062-0.39062 0.64062t-0.375 0.625 0 0.75 0.375 0.625 0.39062 0.64062l0.14062 0.39062 0.21875-0.03125-0.21875 0.03125q-0.21875 0.03125-0.40625 0.09375l-0.1875 0.0625 0.5625-0.1875-0.375 0.125q-0.375 0.125-0.625 0.375t-0.5 0.25-0.5-0.25-0.5-0.5-0.25-0.5 0.25-0.5 0.375-0.625 0-0.75-0.375-0.625-0.25-0.5 0.25-0.5 0.5-0.5m0.25 1q0 0.25 0.25 0.25t0.25-0.25-0.25-0.25-0.25 0.25m0 3q0 0.25 0.25 0.25t0.25-0.25-0.25-0.25-0.25 0.25"/>
   <path d="m9.1094 4.6406q0.14062-0.39062 0.51562-0.51562t0.875-0.125 0.875 0.125 0.625 0.375 0.625 0.375 0.875 0.125 0.875-0.125 0.625-0.375 0.625-0.375 0.875-0.125 1 0h0.5l-0.125 0.375q-0.125 0.375-0.375 0.625t-0.5 0.5-0.625 0.375-0.875 0.125-1 0-1 0-1 0-1 0-0.875-0.125-0.625-0.375-0.625-0.375l-0.375-0.125 0.5625 0.1875-0.1875-0.0625q-0.1875-0.0625-0.40625-0.09375l-0.21875-0.03125 0.21875 0.03125 0.14062-0.39062m9.0156-0.64062h-0.875 0.25q0.25 0 0.5 0h0.25-0.125"/>
  </g>
  <g>
   <path d="m3.25 5.5q0-0.25 0.25-0.25t0.25 0.25-0.25 0.25-0.25-0.25" fill="#00c"/>
   <path d="m4.8906 5.3594 0.14062-0.39062-0.21875-0.03125 0.21875 0.03125q0.21875 0.03125 0.46875 0.03125h0.25-0.75 1l0.125 0.375q0.125 0.375 0.375 0.625t0.375 0.625 0 0.75-0.375 0.625-0.39062 0.60938l-0.14062 0.35938 0.21875-0.03125-0.21875 0.03125q-0.21875 0.03125-0.46875 0.03125h-0.25 0.75-1 0.75-0.25q-0.25 0-0.46875 0.03125l-0.21875 0.03125 0.21875-0.03125-0.14062-0.39062q-0.14062-0.39062-0.39062-0.64062t-0.375-0.625 0-0.75 0.375-0.625 0.39062-0.64062" fill="#f00"/>
   <path d="m6.125 5.375-0.125-0.375h1l0.125 0.375q0.125 0.375 0.375 0.625t0.375 0.625 0 0.75-0.375 0.625-0.5 0.5-0.625 0.375l-0.375 0.125 0.5625-0.1875-0.1875 0.0625q-0.1875 0.0625-0.40625 0.09375l-0.21875 0.03125 0.21875-0.03125 0.14062-0.35938q0.14062-0.35938 0.39062-0.60938t0.375-0.625 0-0.75-0.375-0.625-0.375-0.625m1-0.375h-0.875 0.25q0.25 0 0.5 0h0.25-0.125" fill="#fff"/>
  </g>
  <path d="m18.125 5.625q0.125-0.375 0.375-0.375t0.375 0.375 0.625 0.375 0.625-0.375 0.5-0.5l0.375-0.125v4l-0.375-0.125q-0.375-0.125-0.5-0.5t-0.625-0.375-0.625 0.375-0.375 0.375-0.375-0.375-0.5-0.5-0.5-0.5 0-0.75 0.5-0.5 0.5-0.5" fill-opacity="0"/>
  <g>
   <path d="m12 6.5v-0.5h0.5q0.5 0 1 0t1 0 1 0h0.5-0.75 0.25q0.25 0 0.46875-0.03125l0.21875-0.03125-0.21875 0.03125 0.015625 0.51562q0.015625 0.51562 0 1.0312l-0.015625 0.51562 0.21875 0.03125-0.21875-0.03125q-0.21875-0.03125-0.46875-0.03125h-0.25 0.75-0.5q-0.5 0-1 0t-1 0-1 0h-0.5v-0.5q0-0.5 0-1m-0.125 1.5h0.875-0.25q-0.25 0-0.5 0h-0.25 0.125m0.5-2h-0.625 0.25q0.25 0 0.5 0h0.25-0.375" fill="#f00"/>
   <path d="m3.25 8.5q0-0.25 0.25-0.25t0.25 0.25-0.25 0.25-0.25-0.25" fill="#00c"/>
   <path d="m10 8.5q0.25-0.25 0.625-0.375t0.875-0.125 1 0 1 0 1 0 1 0 0.875 0.125 0.625 0.375 0.5 0.5 0.375 0.625l0.125 0.375h-0.5q-0.5 0-1 0t-1 0-1 0-1 0-1 0-1 0-0.875 0.125-0.625 0.375-0.625 0.375-0.875 0.125-1 0-1 0h-0.5l0.125-0.375q0.125-0.375 0.5-0.5t0.75-0.25 0.625-0.375 0.625-0.375 0.75-0.25 0.625-0.375m-4.125 2.5h0.875-0.25q-0.25 0-0.5 0h-0.25 0.125m11.75-1h0.625-0.25q-0.25 0-0.5 0h-0.25 0.375" fill="#fff"/>
   <path d="m19.125 9.625q0.125-0.375 0.375-0.375t0.375 0.375 0 0.75-0.5 0.5l-0.375 0.125 0.5625-0.1875-0.1875 0.0625q-0.1875 0.0625-0.40625 0.09375l-0.21875 0.03125 0.21875-0.03126 0.01563-0.48438q0.01562-0.48436 0.14062-0.85936" fill="#fff"/>
   <path d="m10 10.5q0.25-0.25 0.625-0.375t0.875-0.125 1 0 1 0 1 0 1 0 1 0 1 0 1.0156 0.01563l0.51562 0.01562 0.03125-0.21875-0.03125 0.21875q-0.03125 0.21875-0.03125 0.46875v0.25-0.75l-0.03126 0.96875 0.21875-0.03126-0.21875 0.03125q-0.21874 0.03126-0.46874 0.03126h-0.25 0.75-0.5q-0.5 0-1 0t-1 0-1 0-0.875 0.125-0.625 0.375-0.625 0.375-0.875 0.125-1 0-1 0-1 0-1 0-1 0-1 0-0.875 0.125-0.625 0.375-0.625 0.375-0.875 0.125-1 0h-0.5 0.75-0.25q-0.25 0-0.46875-0.03125l-0.21875-0.03125 0.21875 0.03125 0.10938-0.35938q0.10938-0.35938 0.48438-0.48438t0.75-0.25 0.625-0.375 0.625-0.375 0.875-0.125 1 0 1 0 1 0 0.875-0.125 0.625-0.375" fill="#f00"/>
  </g>
  <path d="m14.125 12.625q0.125-0.375 0.5-0.5t0.875-0.125 1 0 1 0 1 0 1 0 1 0h0.5v2h-16l0.125-0.375q0.125-0.375 0.5-0.5t0.875-0.125 1 0 1 0 1 0 1 0 1 0 1 0 1 0 0.625-0.375" fill-opacity="0"/>
 </g>
</svg>
