<svg width="17" height="14" version="1.1" viewBox="0 0 17 14" xmlns="http://www.w3.org/2000/svg">
 <g transform="translate(0)">
  <path d="m0 0.5v-0.5h5l-0.125 0.375q-0.125 0.375-0.5 0.5t-0.5 0.5-0.5 0.5-0.875 0.125-0.625 0.375-0.5 0.5-0.375 0.625-0.125 0.875-0.5 0.5l-0.375 0.125v-4.5" fill-opacity="0"/>
  <path d="m4.875 0.375 0.125-0.375h7l0.125 0.375q0.125 0.375 0.5 0.5t0.5 0.5 0.5 0.5 0.875 0.125 0.625 0.375 0.5 0.5 0.375 0.625 0.125 0.875 0.5 0.5l0.375 0.125v4l-0.375 0.125q-0.375 0.125-0.5 0.5t-0.125 0.875-0.5 0.5-0.5 0.5-0.5 0.5-0.875 0.125-0.5 0.5-0.625 0.375-0.5 0.5v0.5h-7v-0.5q0-0.5-0.5-0.5t-0.625-0.375-0.5-0.5-0.875-0.125-0.5-0.5-0.5-0.5-0.5-0.5-0.125-0.875-0.5-0.5l-0.375-0.125v-4l0.375-0.125q0.375-0.125 0.5-0.5t0.125-0.875 0.375-0.625 0.5-0.5 0.625-0.375 0.875-0.125 0.5-0.5 0.5-0.5 0.5-0.5m4.625 12.625q0.5 0 0.875-0.125t0.625-0.375 0.625-0.375 0.75-0.25 0.625-0.375 0.5-0.5 0.5-0.5 0.5-0.5 0.5-0.5 0.5-0.5 0.375-0.625 0.125-0.875 0-1-0.125-0.875-0.375-0.625-0.375-0.625-0.25-0.75-0.5-0.5-0.875-0.125h-0.5l-0.125-0.375q-0.125-0.375-0.375-0.625t-0.5-0.5-0.625-0.375-0.875-0.125-1 0-1 0-1 0-1 0-0.875 0.125-0.625 0.375-0.5 0.5-0.375 0.625l-0.125 0.375h-0.5q-0.5 0-0.875 0.125t-0.5 0.5-0.25 0.75-0.375 0.625-0.375 0.625-0.125 0.875 0 1 0.125 0.875 0.375 0.625 0.5 0.5 0.5 0.5 0.5 0.5 0.5 0.5 0.5 0.5 0.625 0.375 0.75 0.25 0.625 0.375 0.625 0.375 0.875 0.125 1 0 1 0"/>
  <path d="m12.125 0.375-0.125-0.375h5v5l-0.375-0.125q-0.375-0.125-0.5-0.5t-0.125-0.875-0.375-0.625-0.5-0.5-0.625-0.375-0.875-0.125-0.5-0.5-0.5-0.5-0.5-0.5" fill-opacity="0"/>
  <g>
   <path d="m5 1.5q0.25-0.25 0.625-0.375t0.875-0.125 1 0 1 0 1 0 1 0 0.875 0.125 0.625 0.375 0.5 0.5 0.375 0.625l0.125 0.375h-0.5q-0.5 0-1 0t-0.875 0.125-0.625 0.375-0.625 0.375l-0.375 0.125 0.5625-0.1875-0.1875 0.0625q-0.1875 0.0625-0.28125 0.21875l-0.09375 0.15625 0.09375-0.15625h-1.1875l0.09375 0.15625-0.09375-0.15625q-0.09375-0.15625-0.28125-0.21875l-0.1875-0.0625 0.5625 0.1875-0.375-0.125q-0.375-0.125-0.625-0.375t-0.625-0.375-0.875-0.125-1 0h-0.5l0.125-0.375q0.125-0.375 0.375-0.625t0.5-0.5m3.25 1q0 0.25 0.25 0.25t0.25-0.25-0.25-0.25-0.25 0.25" fill="#fff"/>
   <path d="m8.25 2.5q0-0.25 0.25-0.25t0.25 0.25-0.25 0.25-0.25-0.25" fill="#fcc50e"/>
   <path d="m2.125 3.625q0.125-0.375 0.5-0.5t0.875-0.125h0.5l-0.125 0.375q-0.125 0.375-0.375 0.625t-0.375 0.625-0.125 0.875 0.125 0.875 0.375 0.625 0.375 0.625l0.125 0.375-0.1875-0.5625 0.0625 0.1875q0.0625 0.1875 0.21875 0.28125l0.15625 0.09375-0.15625-0.09375 0.078125 0.42188q0.078125 0.42188 0.32812 0.42188t0.375-0.375l0.125-0.375h1l0.125 0.375q0.125 0.375 0.375 0.375t0.375-0.375l0.125-0.375h0.5q0.5 0 1 0t1 0h0.5l0.125 0.375q0.125 0.375 0.375 0.375t0.375-0.375l0.125-0.375h1l0.125 0.375q0.125 0.375 0.375 0.375t0.32812-0.42188l0.078125-0.42188-0.15625 0.09375 0.15625-0.09375q0.15625-0.09375 0.21875-0.28125l0.0625-0.1875-0.1875 0.5625 0.125-0.375q0.125-0.375 0.375-0.625t0.375-0.625 0.125-0.875-0.125-0.875-0.375-0.625-0.375-0.625l-0.125-0.375h0.5q0.5 0 0.875 0.125t0.5 0.5 0.25 0.75 0.375 0.625 0.375 0.625 0.125 0.875 0 1-0.125 0.875-0.375 0.625-0.5 0.5-0.5 0.5-0.5 0.5-0.5 0.5-0.5 0.5-0.625 0.375-0.75 0.25-0.625 0.375-0.625 0.375-0.875 0.125-1 0-1 0-0.875-0.125-0.625-0.375-0.625-0.375-0.75-0.25-0.625-0.375-0.5-0.5-0.5-0.5-0.5-0.5-0.5-0.5-0.5-0.5-0.375-0.625-0.125-0.875 0-1 0.125-0.875 0.375-0.625 0.375-0.625 0.25-0.75m3.125 6.875q0 0.25 0.25 0.25t0.25-0.25-0.25-0.25-0.25 0.25m2 1q0 0.25 0.25 0.25t0.25-0.25-0.25-0.25-0.25 0.25m1.25-1.5q0.5 0 0.875-0.125t0.375-0.375-0.375-0.375-0.875-0.125-0.875 0.125-0.375 0.375 0.375 0.375 0.875 0.125m0.75 1.5q0 0.25 0.25 0.25t0.25-0.25-0.25-0.25-0.25 0.25m2-1q0 0.25 0.25 0.25t0.25-0.25-0.25-0.25-0.25 0.25m0.875-2.5h-0.875 0.25q0.25 0 0.5 0h0.25-0.125m-0.75 0h-0.625 0.25q0.25 0 0.5 0h0.25-0.375m-5.25 0h-0.875 0.25q0.25 0 0.5 0h0.25-0.125m-0.75 0h-0.625 0.25q0.25 0 0.5 0h0.25-0.375" fill="#fff"/>
   <path d="m3.875 3.375 0.125-0.375h0.5q0.5 0 1 0t0.875 0.125 0.625 0.375 0.625 0.375 0.375 0.625 0 1-0.125 0.875-0.375 0.625-0.375 0.625l-0.125 0.375h-0.5q-0.5 0-1 0t-1 0-0.625-0.375-0.375-0.625-0.375-0.625-0.125-0.875 0.125-0.875 0.375-0.625 0.375-0.625m1.625 3.625q0.5 0 0.875-0.125t0.5-0.5 0.125-0.875-0.125-0.875-0.5-0.5-0.875-0.125-0.875 0.125-0.5 0.5-0.125 0.875 0.125 0.875 0.5 0.5 0.875 0.125"/>
   <path d="m10 3.5q0.25-0.25 0.625-0.375t0.875-0.125 1 0h0.5l0.125 0.375q0.125 0.375 0.375 0.625t0.375 0.625 0.125 0.875-0.125 0.875-0.375 0.625-0.375 0.625-0.625 0.375-1 0-1 0h-0.5l-0.125-0.375q-0.125-0.375-0.375-0.625t-0.375-0.625-0.125-0.875 0-1 0.375-0.625 0.625-0.375m1.5 3.5q0.5 0 0.875-0.125t0.5-0.5 0.125-0.875-0.125-0.875-0.5-0.5-0.875-0.125-0.875 0.125-0.5 0.5-0.125 0.875 0.125 0.875 0.5 0.5 0.875 0.125"/>
   <path d="m4.125 4.625q0.125-0.375 0.5-0.5t0.875-0.125 0.875 0.125 0.5 0.5 0.125 0.875-0.125 0.875-0.5 0.5-0.875 0.125-0.875-0.125-0.5-0.5-0.125-0.875 0.125-0.875" fill="#fff"/>
   <path d="m8 4.5v-0.5 0.75-0.25q0-0.25-0.09375-0.40625l-0.09375-0.15625 0.09375 0.15625h1.1875l0.09375-0.15625-0.09375 0.15625q-0.09375 0.15625-0.09375 0.40625v0.25-0.75 0.5q0 0.5 0 1t0.125 0.875 0.375 0.625 0.375 0.625l0.125 0.375h-0.5q-0.5 0-1 0t-1 0h-0.5l0.125-0.375q0.125-0.375 0.375-0.625t0.375-0.625 0.125-0.875 0-1" fill="#fcc50e"/>
   <path d="m10.125 4.625q0.125-0.375 0.5-0.5t0.875-0.125 0.875 0.125 0.5 0.5 0.125 0.875-0.125 0.875-0.5 0.5-0.875 0.125-0.875-0.125-0.5-0.5-0.125-0.875 0.125-0.875" fill="#fff"/>
   <path d="m4.1719 8.3281-0.078125-0.42188-0.15625-0.09375 0.15625 0.09375q0.15625 0.09375 0.40625 0.09375h0.25-0.75 1l-0.125 0.375q-0.125 0.375-0.375 0.375t-0.32812-0.42188m0.95312-0.32812h-0.875 0.25q0.25 0 0.5 0h0.25-0.125" fill="#fcc50e"/>
   <path d="m6.125 8.375-0.125-0.375h1l-0.125 0.375q-0.125 0.375-0.375 0.375t-0.375-0.375m0.25-0.375h-0.625 0.25q0.25 0 0.5 0h0.25-0.375" fill="#09abc3"/>
   <path d="m10.125 8.375-0.125-0.375h1l-0.125 0.375q-0.125 0.375-0.375 0.375t-0.375-0.375m1-0.375h-0.875 0.25q0.25 0 0.5 0h0.25-0.125" fill="#09abc3"/>
   <path d="m12.125 8.375-0.125-0.375h1-0.75 0.25q0.25 0 0.40625-0.09375l0.15625-0.09375-0.15625 0.09375-0.078125 0.42188q-0.078125 0.42188-0.32812 0.42188t-0.375-0.375m0.25-0.375h-0.625 0.25q0.25 0 0.5 0h0.25-0.375" fill="#fcc50e"/>
  </g>
  <path d="m0 9.5v-0.5l0.375 0.125q0.375 0.125 0.5 0.5t0.125 0.875 0.5 0.5 0.5 0.5 0.5 0.5 0.875 0.125 0.5 0.5 0.625 0.375 0.5 0.5v0.5h-5v-4.5" fill-opacity="0"/>
  <path d="m7.25 9.5q0-0.25 0.375-0.375t0.875-0.125 0.875 0.125 0.375 0.375-0.375 0.375-0.875 0.125-0.875-0.125-0.375-0.375" fill="#09abc3"/>
  <path d="m16.125 9.625q0.125-0.375 0.5-0.5l0.375-0.125v5h-5v-0.5q0-0.5 0.5-0.5t0.625-0.375 0.5-0.5 0.875-0.125 0.5-0.5 0.5-0.5 0.5-0.5 0.125-0.875" fill-opacity="0"/>
  <g fill="#fcc50e">
   <path d="m5.25 10.5q0-0.25 0.25-0.25t0.25 0.25-0.25 0.25-0.25-0.25"/>
   <path d="m11.25 10.5q0-0.25 0.25-0.25t0.25 0.25-0.25 0.25-0.25-0.25"/>
   <path d="m7.25 11.5q0-0.25 0.25-0.25t0.25 0.25-0.25 0.25-0.25-0.25"/>
   <path d="m9.25 11.5q0-0.25 0.25-0.25t0.25 0.25-0.25 0.25-0.25-0.25"/>
  </g>
 </g>
</svg>
