<svg width="17" height="14" version="1.1" viewBox="0 0 17 14" xmlns="http://www.w3.org/2000/svg">
 <g transform="translate(0)">
  <path d="m0 0.5v-0.5h5l-0.125 0.375q-0.125 0.375-0.5 0.5t-0.5 0.5-0.5 0.5-0.875 0.125-0.625 0.375-0.5 0.5-0.375 0.625-0.125 0.875-0.5 0.5l-0.375 0.125v-4.5" fill-opacity="0"/>
  <path d="m4.875 0.375 0.125-0.375h7l0.125 0.375q0.125 0.375 0.5 0.5t0.5 0.5 0.5 0.5 0.875 0.125 0.625 0.375 0.5 0.5 0.375 0.625 0.125 0.875 0.5 0.5l0.375 0.125v4l-0.375 0.125q-0.375 0.125-0.5 0.5t-0.125 0.875-0.5 0.5-0.5 0.5-0.5 0.5-0.875 0.125-0.5 0.5-0.625 0.375-0.5 0.5v0.5h-7v-0.5q0-0.5-0.5-0.5t-0.625-0.375-0.5-0.5-0.875-0.125-0.5-0.5-0.5-0.5-0.5-0.5-0.125-0.875-0.5-0.5l-0.375-0.125v-4l0.375-0.125q0.375-0.125 0.5-0.5t0.125-0.875 0.375-0.625 0.5-0.5 0.625-0.375 0.875-0.125 0.5-0.5 0.5-0.5 0.5-0.5m4.625 12.625q0.5 0 0.875-0.125t0.625-0.375 0.625-0.375 0.75-0.25 0.625-0.375 0.5-0.5 0.375-0.625l0.125-0.375-0.1875 0.5625 0.0625-0.1875q0.0625-0.1875 0.09375-0.40625l0.03125-0.21875-0.03125 0.21875 0.39062-0.10938q0.39062-0.10938 0.64062-0.35938t0.5-0.5 0.375-0.625 0.125-0.875 0-1-0.125-0.875-0.375-0.625-0.375-0.625-0.25-0.75-0.5-0.5-0.75 0-0.375 0.375 0.375 0.375l0.375 0.125v0.5q0 0.5 0 1t0 1v0.5l-0.375 0.125q-0.375 0.125-0.625 0.375t-0.625 0.375-0.875 0.125-1.0625-0.0625l-0.5625-0.0625-0.125 0.125 0.125-0.125q0.125-0.125 0.125-0.375v-0.25 0.75l-0.125-0.375q-0.125-0.375-0.5-0.5l-0.375-0.125h0.75-0.25q-0.25 0-0.375 0.125l-0.125 0.125 0.125-0.125-0.25-1.25-0.125 0.125 0.125-0.125q0.125-0.125 0.125-0.375v-0.25 0.75-1 0.75-0.25q0-0.25-0.125-0.375l-0.125-0.125 0.125 0.125 0.1875-0.4375q0.1875-0.4375 0.4375-0.6875t0.375-0.625l0.125-0.375h0.5q0.5 0 1 0t0.875-0.125 0.375-0.375-0.25-0.5-0.5-0.5-0.625-0.375-0.875-0.125-1 0-1 0-1 0-1 0-0.875 0.125-0.625 0.375-0.5 0.5-0.5 0.5-0.625 0.375-0.75 0.25-0.5 0.5-0.25 0.75-0.375 0.625-0.375 0.625-0.125 0.875 0 1 0.125 0.875 0.375 0.625 0.5 0.5 0.5 0.5 0.5 0.5 0.5 0.5 0.5 0.5 0.625 0.375 0.75 0.25 0.625 0.375 0.625 0.375 0.875 0.125 1 0 1 0m4.5-8.625v-0.625 0.25q0 0.25 0 0.5v0.25-0.375m0 2.75v-0.875 0.25q0 0.25 0 0.5v0.25-0.125m-2.5-0.125q0.5 0 0.875-0.125t0.5-0.5 0.125-0.875-0.125-0.875-0.5-0.5-0.875-0.125-0.875 0.125-0.5 0.5-0.125 0.875 0.125 0.875 0.5 0.5 0.875 0.125m-1.125-4h-0.625 0.25q0.25 0 0.5 0h0.25-0.375"/>
  <path d="m12.125 0.375-0.125-0.375h5v5l-0.375-0.125q-0.375-0.125-0.5-0.5t-0.125-0.875-0.375-0.625-0.5-0.5-0.625-0.375-0.875-0.125-0.5-0.5-0.5-0.5-0.5-0.5" fill-opacity="0"/>
  <g>
   <path d="m5 1.5q0.25-0.25 0.625-0.375t0.875-0.125 1 0 1 0 1 0 1 0 0.875 0.125 0.625 0.375 0.5 0.5 0.25 0.5-0.375 0.375-0.875 0.125-1 0-1 0-1 0-1 0-1 0-1 0-0.875 0.125-0.625 0.375-0.5 0.5-0.375 0.625-0.125 0.875 0.125 0.875 0.375 0.625 0.5 0.5 0.625 0.375l0.375 0.125-0.5625-0.1875 0.1875 0.0625q0.1875 0.0625 0.40625 0.09375l0.21875 0.03125-0.21875-0.03125 0.10938 0.39062q0.10938 0.39062 0.35938 0.64062t0.5 0.5 0.625 0.375 0.875 0.125 1 0 0.875-0.125 0.625-0.375 0.5-0.5 0.375-0.625l0.125-0.375h0.5q0.5 0 0.875-0.125t0.625-0.375 0.625-0.375l0.375-0.125v0.5q0 0.5 0 1t0 1-0.125 0.875-0.375 0.625-0.5 0.5-0.625 0.375-0.75 0.25-0.625 0.375-0.625 0.375-0.875 0.125-1 0-1 0-0.875-0.125-0.625-0.375-0.625-0.375-0.75-0.25-0.625-0.375-0.5-0.5-0.5-0.5-0.5-0.5-0.5-0.5-0.5-0.5-0.375-0.625-0.125-0.875 0-1 0.125-0.875 0.375-0.625 0.375-0.625 0.25-0.75 0.5-0.5 0.75-0.25 0.625-0.375 0.5-0.5 0.5-0.5m9 5.875v-0.625 0.25q0 0.25 0 0.5v0.25-0.375m-2.625 0.625h-0.625 0.25q0.25 0 0.5 0h0.25-0.375" fill="#e72121"/>
   <path d="m4 3.5q0.25-0.25 0.625-0.375t0.875-0.125 1 0h0.5l0.125 0.375q0.125 0.375 0.375 0.625t0.4375 0.6875l0.1875 0.4375 0.125-0.125-0.125 0.125q-0.125 0.125-0.125 0.375v0.25-0.75 1-0.75 0.25q0 0.25 0.125 0.375l0.125 0.125-0.125-0.125-0.1875 0.4375q-0.1875 0.4375-0.4375 0.6875t-0.5 0.5-0.625 0.375-0.875 0.125-0.875-0.125-0.625-0.375-0.5-0.5-0.375-0.625-0.125-0.875 0.125-0.875 0.375-0.625 0.5-0.5m1.5 3.5h0.5l0.375-0.125q0.375-0.125 0.5-0.5l0.125-0.375v-0.5q0-0.5-0.125-0.875t-0.5-0.5-0.875-0.125-0.875 0.125-0.5 0.5-0.125 0.875 0.125 0.875 0.5 0.5 0.875 0.125m1.625-4h-0.875 0.25q0.25 0 0.5 0h0.25-0.125"/>
   <path d="m7.125 3.375-0.125-0.375h0.5q0.5 0 1 0t1 0h0.5l-0.125 0.375q-0.125 0.375-0.375 0.625t-0.4375 0.6875l-0.1875 0.4375 0.125 0.125-0.125-0.125q-0.125-0.125-0.375-0.125h-0.25 0.75-1 0.75-0.25q-0.25 0-0.375 0.125l-0.125 0.125 0.125-0.125-0.1875-0.4375q-0.1875-0.4375-0.4375-0.6875t-0.375-0.625m3-0.375h-0.875 0.25q0.25 0 0.5 0h0.25-0.125m-2.75 0h-0.625 0.25q0.25 0 0.5 0h0.25-0.375" fill="#003c7c"/>
   <path d="m13.25 3.5q0-0.25 0.375-0.375l0.375-0.125-0.5625 0.1875 0.1875-0.0625q0.1875-0.0625 0.375-0.0625h0.1875-0.1875v0.9375l-0.375-0.125q-0.375-0.125-0.375-0.375m0.75 0.625v-0.875 0.25q0 0.25 0 0.5v0.25-0.125" fill="#e72121"/>
   <path d="m14 3.5312v-0.46875h-0.1875 0.1875q0.1875 0 0.375 0.0625l0.1875 0.0625-0.5625-0.1875 0.375 0.125q0.375 0.125 0.5 0.5t0.25 0.75 0.375 0.625 0.375 0.625 0.125 0.875 0 1-0.125 0.875-0.375 0.625-0.5 0.5-0.64062 0.35938l-0.39062 0.10938-0.03125 0.21875 0.03125-0.21875q0.03125-0.21875 0.03125-0.46875v-0.25 0.75-0.5q0-0.5 0-1t0-1 0-1 0-1 0-1 0-0.96875" fill="#003c7c"/>
  </g>
  <g fill="#fff">
   <path d="m4.125 4.625q0.125-0.375 0.5-0.5t0.875-0.125 0.875 0.125 0.5 0.5 0.125 0.875v0.5h-0.5q-0.5 0-0.5 0.5v0.5h-0.5q-0.5 0-0.875-0.125t-0.5-0.5-0.125-0.875 0.125-0.875"/>
   <path d="m10.125 4.625q0.125-0.375 0.5-0.5t0.875-0.125 0.875 0.125 0.5 0.5 0.125 0.875-0.125 0.875-0.5 0.5-0.875 0.125-0.875-0.125-0.5-0.5-0.125-0.875 0.125-0.875"/>
   <path d="m8 5.5q0-0.5 0.5-0.5t0.5 0.5-0.5 0.5-0.5-0.5"/>
  </g>
  <g>
   <path d="M 6,6.5 Q 6,6 6.5,6 H 7 L 6.875,6.375 Q 6.75,6.75 6.375,6.875 L 6,7 V 6.5" fill="#f3f6f9"/>
   <path d="m7.9375 6.3125 0.1875-0.4375-0.125-0.125 0.125 0.125q0.125 0.125 0.375 0.125h0.25-0.75 1-0.75 0.25q0.25 0 0.375-0.125l0.125-0.125-0.125 0.125 0.25 1.25 0.125-0.125-0.125 0.125q-0.125 0.125-0.125 0.375v0.25-0.75l0.125 0.375q0.125 0.375 0.5 0.5l0.375 0.125h-0.75 0.25q0.25 0 0.375-0.125l0.125-0.125-0.125 0.125 1.125 0.125-0.125 0.375q-0.125 0.375-0.375 0.625t-0.5 0.5-0.625 0.375-0.875 0.125-1 0-0.875-0.125-0.625-0.375-0.5-0.5-0.35938-0.64062l-0.10938-0.39062-0.21875-0.03125 0.21875 0.03125q0.21875 0.03125 0.46875 0.03125h0.25-0.75 0.5q0.5 0 0.875-0.125t0.625-0.375 0.5-0.5 0.4375-0.6875m-0.6875 2.1875q0 0.25 0.25 0.25t0.25-0.25-0.25-0.25-0.25 0.25m3.875-0.5h-0.875 0.25q0.25 0 0.5 0h0.25-0.125" fill="#003c7c"/>
   <path d="m9.125 7.375q-0.125-0.375 0.25-0.25t0.5 0.5-0.25 0.25-0.5-0.5" fill="#fff"/>
   <path d="m7.25 8.5q0-0.25 0.25-0.25t0.25 0.25-0.25 0.25-0.25-0.25" fill="#fff"/>
  </g>
  <path d="m0 9.5v-0.5l0.375 0.125q0.375 0.125 0.5 0.5t0.125 0.875 0.5 0.5 0.5 0.5 0.5 0.5 0.875 0.125 0.5 0.5 0.625 0.375 0.5 0.5v0.5h-5v-4.5" fill-opacity="0"/>
  <path d="m16.125 9.625q0.125-0.375 0.5-0.5l0.375-0.125v5h-5v-0.5q0-0.5 0.5-0.5t0.625-0.375 0.5-0.5 0.875-0.125 0.5-0.5 0.5-0.5 0.5-0.5 0.125-0.875" fill-opacity="0"/>
 </g>
</svg>
