<svg width="16" height="16" version="1.1" viewBox="0 0 16 16" xmlns="http://www.w3.org/2000/svg">
 <g transform="translate(0)">
  <path d="m0 0.5v-0.5h16v16h-16v-15.5m13.5 14.5q0.5 0 0.875-0.125t0.5-0.5 0.125-0.875 0-1 0-1 0-1 0-1 0-1 0-1 0-1 0-1 0-1-0.125-0.875-0.375-0.625-0.5-0.5-0.5-0.5-0.5-0.5-0.625-0.375-0.875-0.125-1 0-1 0-1 0-1 0-1 0-1 0-1 0-1 0-1 0-0.875 0.125-0.5 0.5-0.125 0.875 0 1 0 1 0 1 0 1 0 1 0 1 0 1 0 1 0 1 0 1 0 1 0.125 0.875 0.5 0.5 0.875 0.125 1 0 1 0 1 0 1 0 1 0 1 0 1 0 1 0 1 0 1 0 1 0" fill-opacity="0"/>
  <g>
   <path d="m1.125 1.625q0.125-0.375 0.5-0.5t0.875-0.125h0.5v0.5q0 0.5 0 1t0 1 0 1 0.125 0.875 0.5 0.5 0.9375 0.0625l0.5625-0.0625-0.125-0.125 0.125 0.125q0.125 0.125 0.375 0.125h0.25-0.75 0.5q0.5 0 1 0t1 0 1 0 1 0 1 0 0.875-0.125 0.5-0.5 0.125-0.875 0-1 0-1-0.015625-0.98438l-0.015625-0.48438-0.21875-0.03125 0.21875 0.03125q0.21875 0.03125 0.40625 0.09375l0.1875 0.0625-0.5625-0.1875 0.375 0.125q0.375 0.125 0.625 0.375t0.5 0.5 0.5 0.5 0.5 0.5 0.375 0.625 0.125 0.875 0 1 0 1 0 1 0 1 0 1 0 1 0 1 0 1 0 1-0.125 0.875-0.5 0.5-0.875 0.125-1 0-1 0-1 0-1 0-1 0-1 0-1 0-1 0-1 0-1 0-1 0-0.875-0.125-0.5-0.5-0.125-0.875 0-1 0-1 0-1 0-1 0-1 0-1 0-1 0-1 0-1 0-1 0-1 0.125-0.875m10.375 12.375q0.5 0 0.875-0.125t0.5-0.5 0.125-0.875 0-1 0-1 0-1-0.125-0.875-0.5-0.5-0.875-0.125-1 0-1 0-1 0-1 0-1 0-1 0-1 0-0.875 0.125-0.5 0.5-0.125 0.875 0 1 0 1 0 1 0.125 0.875 0.5 0.5 0.875 0.125 1 0 1 0 1 0 1 0 1 0 1 0 1 0m-8.375-13h-0.875 0.25q0.25 0 0.5 0h0.25-0.125" fill="#313370"/>
   <path d="m3 1.5v-0.5h0.5q0.5 0 1 0h0.5v0.5q0 0.5 0 1t0 1 0 1 0 1v0.5-0.75 0.25q0 0.25 0.125 0.375l0.125 0.125-0.125-0.125-0.5625 0.0625q-0.5625 0.0625-0.9375-0.0625t-0.5-0.5-0.125-0.875 0-1 0-1 0-1m2.125-0.5h-0.875 0.25q0.25 0 0.5 0h0.25-0.125m-1.75 0h-0.625 0.25q0.25 0 0.5 0h0.25-0.375" fill="#454897"/>
   <path d="m5 1.5v-0.5h0.5q0.5 0 1 0t1 0 1 0 1 0 1 0 1 0h0.5-0.75 0.25q0.25 0 0.46875 0.03125l0.21875 0.03125-0.21875-0.03125 0.03125 0.96875-1.125 0.125 0.125 0.125-0.125-0.125q-0.125-0.125-0.375-0.125h-0.25 0.75-0.5q-0.5 0-1 0h-0.5 0.75-0.25q-0.25 0-0.375 0.125l-0.125 0.125 0.125-0.125-0.5625-0.0625q-0.5625-0.0625-1.0625-0.0625t-1 0-1 0h-0.5v-0.5m0 0.125v0.625-0.25q0-0.25 0-0.5v-0.25 0.375m7 0.5v-0.875 0.25q0 0.25 0 0.5v0.25-0.125m-6.625-1.125h-0.625 0.25q0.25 0 0.5 0h0.25-0.375" fill="#8c8474"/>
   <path d="m5 2.5v-0.5h0.5q0.5 0 1 0t1 0 1.0625 0.0625l0.5625 0.0625 0.125-0.125-0.125 0.125q-0.125 0.125-0.125 0.375v0.25-0.75 0.5q0 0.5 0 1t0.125 0.875 0.5 0.5 0.75 0 0.5-0.5 0.125-0.875 0-1v-0.5 0.75-0.25q0-0.25-0.125-0.375l-0.125-0.125 0.125 0.125 1.125-0.125v0.5q0 0.5 0 1t0 1-0.125 0.875-0.5 0.5-0.875 0.125-1 0-1 0-1 0-1 0-1 0-0.5-0.5 0-1 0-1 0-1m7-0.125v-0.625 0.25q0 0.25 0 0.5v0.25-0.375m-7-0.5v0.875-0.25q0-0.25 0-0.5v-0.25 0.125" fill="#ccc3b2"/>
  </g>
  <path d="m9 2.5q0-0.5 0.5-0.5t1 0 0.5 0.5 0 1-0.125 0.875-0.5 0.5-0.75 0-0.5-0.5-0.125-0.875 0-1" fill-opacity="0"/>
  <g>
   <path d="m3.125 8.625q0.125-0.375 0.5-0.5t0.875-0.125 1 0 1 0 1 0 1 0 1 0 1 0 1 0 0.875 0.125 0.5 0.5 0.125 0.875 0 1 0 1 0 1-0.125 0.875-0.5 0.5-0.875 0.125-1 0-1 0-1 0-1 0-1 0-1 0-1 0-0.875-0.125-0.5-0.5-0.125-0.875 0-1 0-1 0-1 0.125-0.875m7.375 3.375q0.5 0 0.875-0.125t0.375-0.375-0.375-0.375-0.875-0.125-1 0-1 0-1 0-1 0-1 0-0.875 0.125-0.375 0.375 0.375 0.375 0.875 0.125 1 0 1 0 1 0 1 0 1 0m0-2q0.5 0 0.875-0.125t0.375-0.375-0.375-0.375-0.875-0.125-1 0-1 0-1 0-1 0-1 0-0.875 0.125-0.375 0.375 0.375 0.375 0.875 0.125 1 0 1 0 1 0 1 0 1 0" fill="#c6c6c6"/>
   <path d="m4.25 9.5q0-0.25 0.375-0.375t0.875-0.125 1 0 1 0 1 0 1 0 1 0 0.875 0.125 0.375 0.375-0.375 0.375-0.875 0.125-1 0-1 0-1 0-1 0-1 0-0.875-0.125-0.375-0.375"/>
   <path d="m4.25 11.5q0-0.25 0.375-0.375t0.875-0.125 1 0 1 0 1 0 1 0 1 0 0.875 0.125 0.375 0.375-0.375 0.375-0.875 0.125-1 0-1 0-1 0-1 0-1 0-0.875-0.125-0.375-0.375"/>
  </g>
 </g>
</svg>
