<svg width="15" height="15" version="1.1" viewBox="0 0 15 15" xmlns="http://www.w3.org/2000/svg">
 <g transform="translate(0)">
  <path d="m0 0.5v-0.5h1l-0.125 0.375q-0.125 0.375-0.5 0.5l-0.375 0.125v-0.5" fill-opacity="0"/>
  <path d="m0.875 0.375 0.125-0.375h13l0.125 0.375q0.125 0.375 0.5 0.5l0.375 0.125v13l-0.375 0.125q-0.375 0.125-0.5 0.5l-0.125 0.375h-13l-0.125-0.375q-0.125-0.375-0.5-0.5l-0.375-0.125v-13l0.375-0.125q0.375-0.125 0.5-0.5m11.625 13.625q0.5 0 0.875-0.125t0.5-0.5 0.125-0.875 0-1 0-1 0-1 0-1 0-1 0-1 0-1 0-1 0-1 0-1-0.125-0.875-0.5-0.5-0.875-0.125-1 0-1 0-1 0-1 0-1 0-1 0-1 0-1 0-1 0-1 0-0.875 0.125-0.5 0.5-0.125 0.875 0 1 0 1 0 1 0 1 0 1 0 1 0 1 0 1 0 1 0 1 0.125 0.875 0.5 0.5 0.875 0.125 1 0 1 0 1 0 1 0 1 0 1 0 1 0 1 0 1 0 1 0" fill="#6569e5"/>
  <path d="m14.125 0.375-0.125-0.375h1v1l-0.375-0.125q-0.375-0.125-0.5-0.5" fill-opacity="0"/>
  <g>
   <path d="m1.125 1.625q0.125-0.375 0.5-0.5t0.875-0.125 1 0 1 0h0.5l-0.125 0.375q-0.125 0.375-0.5 0.5t-0.75 0.25-0.625 0.375-0.5 0.5-0.5 0.5-0.625 0.375l-0.375 0.125v-0.5q0-0.5 0-1t0.125-0.875m-0.125 2v0.625-0.25q0-0.25 0-0.5v-0.25 0.375m4.125-2.625h-0.875 0.25q0.25 0 0.5 0h0.25-0.125" fill="#313370"/>
   <path d="m4.875 1.375 0.125-0.375h0.5q0.5 0 1 0t1 0 1 0 1 0h0.5l0.125 0.375q0.125 0.375 0.5 0.5t0.75 0.25 0.625 0.375 0.5 0.5 0.5 0.5 0.625 0.375l0.375 0.125v0.5q0 0.5 0 1t0 1 0 1 0 1 0 1 0 1v0.5l-0.375 0.125q-0.375 0.125-0.625 0.375t-0.5 0.5-0.5 0.5-0.625 0.375-0.75 0.25-0.5 0.5l-0.125 0.375h-0.5q-0.5 0-1 0t-1 0-1 0-1 0h-0.5l-0.125-0.375q-0.125-0.375-0.5-0.5t-0.75-0.25-0.625-0.375-0.5-0.5-0.5-0.5-0.625-0.375l-0.375-0.125v-0.5q0-0.5 0-1t0-1 0-1 0-1 0-1 0-1v-0.5l0.375-0.125q0.375-0.125 0.625-0.375t0.5-0.5 0.5-0.5 0.625-0.375 0.75-0.25 0.5-0.5m-3.875 2.5v0.875-0.25q0-0.25 0-0.5v-0.25 0.125m0 6.75v0.625-0.25q0-0.25 0-0.5v-0.25 0.375m3.875 3.375h0.875-0.25q-0.25 0-0.5 0h-0.25 0.125m3.625-3q0.5 0 0.875-0.125t0.625-0.375 0.5-0.5 0.5-0.5 0.5-0.5 0.375-0.625 0.125-0.875-0.125-0.875-0.375-0.625-0.5-0.5-0.5-0.5-0.5-0.5-0.625-0.375-0.875-0.125-1 0-1 0-0.875 0.125-0.625 0.375-0.5 0.5-0.5 0.5-0.5 0.5-0.375 0.625-0.125 0.875 0.125 0.875 0.375 0.625 0.5 0.5 0.5 0.5 0.5 0.5 0.625 0.375 0.875 0.125 1 0 1 0m1.125 3h0.625-0.25q-0.25 0-0.5 0h-0.25 0.375m4.375-2.875v-0.875 0.25q0 0.25 0 0.5v0.25-0.125m0-6.75v-0.625 0.25q0 0.25 0 0.5v0.25-0.375m-3.875-3.375h-0.875 0.25q0.25 0 0.5 0h0.25-0.125m-4.75 0h-0.625 0.25q0.25 0 0.5 0h0.25-0.375" fill="#bdbee4"/>
   <path d="m10.125 1.375-0.125-0.375h0.5q0.5 0 1 0t1 0 0.875 0.125 0.5 0.5 0.125 0.875 0 1v0.5l-0.375-0.125q-0.375-0.125-0.625-0.375t-0.5-0.5-0.5-0.5-0.625-0.375-0.75-0.25-0.5-0.5m3.875 2.75v-0.875 0.25q0 0.25 0 0.5v0.25-0.125m-3.625-3.125h-0.625 0.25q0.25 0 0.5 0h0.25-0.375" fill="#313370"/>
   <path d="m5 4.5q0.25-0.25 0.625-0.375t0.875-0.125 1 0 1 0 0.875 0.125 0.625 0.375 0.5 0.5 0.5 0.5 0.5 0.5 0.375 0.625 0.125 0.875-0.125 0.875-0.375 0.625-0.5 0.5-0.5 0.5-0.5 0.5-0.625 0.375-0.875 0.125-1 0-1 0-0.875-0.125-0.625-0.375-0.5-0.5-0.5-0.5-0.5-0.5-0.375-0.625-0.125-0.875 0.125-0.875 0.375-0.625 0.5-0.5 0.5-0.5 0.5-0.5m2.5 4.5q0.5 0 0.875-0.125t0.5-0.5 0.125-0.875-0.125-0.875-0.5-0.5-0.875-0.125-0.875 0.125-0.5 0.5-0.125 0.875 0.125 0.875 0.5 0.5 0.875 0.125" fill="#313370"/>
   <path d="m6.125 6.625q0.125-0.375 0.5-0.5t0.875-0.125 0.875 0.125 0.5 0.5 0.125 0.875-0.125 0.875-0.5 0.5-0.875 0.125-0.875-0.125-0.5-0.5-0.125-0.875 0.125-0.875" fill="#bdbee4"/>
   <path d="m1 11.5v-0.5l0.375 0.125q0.375 0.125 0.625 0.375t0.5 0.5 0.5 0.5 0.625 0.375 0.75 0.25 0.5 0.5l0.125 0.375h-0.5q-0.5 0-1 0t-1 0-0.875-0.125-0.5-0.5-0.125-0.875 0-1m3.625 2.5h0.625-0.25q-0.25 0-0.5 0h-0.25 0.375m-3.625-3.125v0.875-0.25q0-0.25 0-0.5v-0.25 0.125" fill="#313370"/>
   <path d="m13 11.5q0.25-0.25 0.625-0.375l0.375-0.125v0.5q0 0.5 0 1t-0.125 0.875-0.5 0.5-0.875 0.125-1 0-1 0h-0.5l0.125-0.375q0.125-0.375 0.5-0.5t0.75-0.25 0.625-0.375 0.5-0.5 0.5-0.5m-3.125 2.5h0.875-0.25q-0.25 0-0.5 0h-0.25 0.125m4.125-2.625v-0.625 0.25q0 0.25 0 0.5v0.25-0.375" fill="#313370"/>
  </g>
  <path d="m0 14.5v-0.5l0.375 0.125q0.375 0.125 0.5 0.5l0.125 0.375h-1v-0.5" fill-opacity="0"/>
  <path d="m14.125 14.625q0.125-0.375 0.5-0.5l0.375-0.125v1h-1l0.125-0.375" fill-opacity="0"/>
 </g>
</svg>
