<svg width="12" height="15" shape-rendering="crispEdges" version="1.1" viewBox="0 0 12 15" xmlns="http://www.w3.org/2000/svg">
 <g transform="translate(0)">
  <path d="m0 0.5v-0.5h4l-0.125 0.375q-0.125 0.375-0.375 0.625t-0.5 0.5-0.5 0.5-0.375 0.625-0.125 0.875 0 1-0.125 0.875-0.375 0.625-0.5 0.5-0.625 0.375l-0.375 0.125v-6.5" fill-opacity="0"/>
  <path d="m3.875 0.375 0.125-0.375h4v1l0.125 0.375q0.125 0.375 0.375 0.625t0.375 0.625 0.125 0.875 0 1 0.125 0.875 0.375 0.375 0.5-0.25 0.5-0.25 0.375 0.375l0.125 0.375v0.5q0 0.5 0 1t0 1 0 1 0 1 0 1 0 1-0.125 0.875-0.5 0.5-0.875 0.125-1 0-1 0-1 0-1 0-1 0-1 0-1 0-1 0-1 0h-0.5v-7l0.375-0.125q0.375-0.125 0.625-0.375t0.5-0.5 0.375-0.625 0.125-0.875 0-1 0.125-0.875 0.375-0.625 0.5-0.5 0.5-0.5 0.375-0.625m4.625 12.625q0.5 0 0.875-0.125t0.5-0.5l0.125-0.375v0.75-0.25q0-0.25-0.125-0.375l-0.125-0.125 0.125 0.125v-1.25l-0.125 0.125 0.125-0.125q0.125-0.125 0.125-0.375v-0.25 0.75-1 0.75-0.25q0-0.25-0.125-0.375l-0.125-0.125 0.125 0.125v-1.25l-0.125 0.125 0.125-0.125q0.125-0.125 0.125-0.375v-0.25 0.75-0.5q0-0.5-0.125-0.875t-0.5-0.5-0.875-0.125-1 0-1 0-1 0-1 0-1 0-1 0-0.875 0.125-0.5 0.5-0.125 0.875 0 1 0 1 0 1 0.125 0.875 0.5 0.5 0.875 0.125 1 0 1 0 1 0 1 0 1 0 1 0m-5.375-7.625q0.125 0.375 0.375 0.375t0.5-0.25 0.625-0.375 0.875-0.125 1 0 0.875-0.125 0.5-0.5 0-0.75-0.375-0.625-0.375-0.625l-0.25-0.75q-0.125-0.375-0.5-0.5t-0.875-0.125h-0.5 0.75-0.25q-0.25 0-0.40625 0.09375l-0.15625 0.09375 0.15625-0.09375-0.42188 0.078125q-0.42188 0.078125-0.67188 0.32812t-0.5 0.5-0.32812 0.67188l-0.078125 0.42188 0.09375-0.15625-0.09375 0.15625q-0.09375 0.15625-0.09375 0.40625v0.25-0.75 0.5q0 0.5 0 1t0.125 0.875" fill="#808000"/>
  <path d="m8 0.5v-0.5h4v6h-1l-0.125-0.375q-0.125-0.375-0.375-0.375h-0.25 0.375-0.125q-0.125 0-0.25 0.0625l-0.125 0.0625 0.125-0.0625-0.25-0.28125q-0.25-0.28125-0.125-0.65625t0.125-0.875 0-1-0.375-0.625-0.5-0.5-0.625-0.375h-0.5v-0.5" fill-opacity="0"/>
  <g>
   <path d="m4 1.5q0.25-0.25 0.67188-0.32812l0.42188-0.078125 0.15625-0.09375-0.15625 0.09375q-0.15625 0.09375-0.21875 0.28125l-0.0625 0.1875 0.1875-0.5625-0.125 0.375q-0.125 0.375-0.375 0.625t-0.5 0.5-0.625 0.375l-0.375 0.125 0.5625-0.1875-0.1875 0.0625q-0.1875 0.0625-0.28125 0.21875l-0.09375 0.15625 0.09375-0.15625 0.078125-0.42188q0.078125-0.42188 0.32812-0.67188t0.5-0.5" fill="#c0c0c0"/>
   <path d="m4.875 1.375q0.125-0.375 0.625-0.375t0.875 0.125 0.5 0.5l0.125 0.375h-0.5q-0.5 0-0.875 0.125t-0.5 0.5-0.5 0.5-0.5 0.5-0.25 0.75 0.14062 0.64062l0.26562 0.26562 0.15625-0.09375-0.15625 0.09375q-0.15625 0.09375-0.28125 0.21875l-0.125 0.125 0.375-0.375-0.25 0.25q-0.25 0.25-0.5 0.25t-0.375-0.375-0.125-0.875 0-1 0.375-0.625 0.625-0.375 0.5-0.5 0.375-0.625"/>
   <path d="m8.125 1.375-0.125-0.375h0.5q0.5 0 0.625 0.375t0.5 0.5 0.375 0.625 0 1-0.125 0.875 0.125 0.65625l0.25 0.28125 0.125-0.0625-0.125 0.0625q-0.125 0.0625-0.25 0.1875l-0.125 0.125 0.375-0.375-0.25 0.25q-0.25 0.25-0.5 0.25t-0.375-0.375-0.125-0.875 0-1-0.125-0.875-0.375-0.625-0.375-0.625"/>
  </g>
  <path d="m5.125 2.625q0.125-0.375 0.5-0.5t0.875-0.125h0.5l0.125 0.375q0.125 0.375 0.375 0.625t0.375 0.625 0 0.75-0.5 0.5-0.875 0.125-1 0-0.875 0.125l-0.375 0.125 0.5625-0.1875-0.1875 0.0625q-0.1875 0.0625-0.34375 0.15625l-0.15625 0.09375 0.15625-0.09375-0.26562-0.26562q-0.26562-0.26562-0.14062-0.64062t0.25-0.75 0.5-0.5 0.5-0.5" fill-opacity="0"/>
  <g>
   <path d="m11 6.5v-0.5h1v8l-0.375 0.125q-0.375 0.125-0.5 0.5l-0.125 0.375h-11v-1h0.5q0.5 0 1 0t1 0 1 0 1 0 1 0 1 0 1 0 1 0 1 0 0.875-0.125 0.5-0.5 0.125-0.875 0-1 0-1 0-1 0-1 0-1 0-1"/>
   <path d="m1.125 7.625q0.125-0.375 0.5-0.5t0.875-0.125 1 0 1 0 1 0 1 0 1 0 1 0 0.875 0.125 0.5 0.5l0.125 0.375-0.1875-0.5625 0.0625 0.1875q0.0625 0.1875 0.09375 0.40625l0.03125 0.21875-0.03125-0.21875-0.48438-0.015625q-0.48438-0.015625-0.98438-0.015625t-1 0-1 0-1 0-1 0-1 0-0.875 0.125-0.5 0.5-0.125 0.875 0 1 0 1 0.015625 0.98438l0.015625 0.48438 0.21875 0.03125-0.21875-0.03125q-0.21875-0.03125-0.40625-0.09375l-0.1875-0.0625 0.5625 0.1875-0.375-0.125q-0.375-0.125-0.5-0.5t-0.125-0.875 0-1 0-1 0-1 0.125-0.875" fill="#fff"/>
   <path d="m2.125 8.625q0.125-0.375 0.5-0.5t0.875-0.125 1 0 1 0 1 0 1 0 1 0 0.98438 0.015625l0.48438 0.015625-0.03125-0.21875 0.03125 0.21875q0.03125 0.21875 0.03125 0.46875v0.25-0.75 0.5q0 0.5-0.5 0.5t-1 0-1 0-1 0-1 0-1 0-1 0-0.98438 0.015625l-0.48438 0.015625-0.03125 0.21875 0.03125-0.21875q0.03125-0.21875 0.09375-0.40625l0.0625-0.1875-0.1875 0.5625 0.125-0.375" fill="#ff0"/>
   <path d="m2 9.5v-0.5 0.75-0.25q0-0.25 0.03125-0.46875l0.03125-0.21875-0.03125 0.21875 0.48438-0.015625q0.48438-0.015625 0.98438-0.015625t1 0 1 0 1 0 1 0 1 0h0.5v1h-0.5q-0.5 0-1 0t-1 0-1 0-1 0-1 0-1 0h-0.5v-0.5m0 0.125v0.625-0.25q0-0.25 0-0.5v-0.25 0.375m6.625 0.375h0.625-0.25q-0.25 0-0.5 0h-0.25 0.375m0.5-1h-0.875 0.25q0.25 0 0.5 0h0.25-0.125" fill="#808000"/>
   <path d="m9 9.5v-0.5h1-0.75 0.25q0.25 0 0.375-0.125l0.125-0.125-0.125 0.125v1.25l0.125 0.125-0.125-0.125q-0.125-0.125-0.375-0.125h-0.25 0.75-1v-0.5m-0.125 0.5h0.875-0.25q-0.25 0-0.5 0h-0.25 0.125m0.5-1h-0.625 0.25q0.25 0 0.5 0h0.25-0.375" fill="#c0c0c0"/>
   <path d="m2 10.5v-0.5h0.5q0.5 0 1 0t1 0 1 0 1 0 1 0 1 0 1 0 0.5 0.5-0.5 0.5-1 0-1 0-1 0-1 0-1 0-1 0-1 0h-0.5v-0.5m0 0.125v0.625-0.25q0-0.25 0-0.5v-0.25 0.375m0-0.75v0.875-0.25q0-0.25 0-0.5v-0.25 0.125" fill="#ff0"/>
   <path d="m2 11.5v-0.5h0.5q0.5 0 1 0t1 0 1 0 1 0 1 0 1 0h0.5v1h-0.5q-0.5 0-1 0t-1 0-1 0-1 0-1 0-1 0h-0.5v-0.5m0 0.125v0.625-0.25q0-0.25 0-0.5v-0.25 0.375m6.625 0.375h0.625-0.25q-0.25 0-0.5 0h-0.25 0.375m0.5-1h-0.875 0.25q0.25 0 0.5 0h0.25-0.125m-7.125-0.125v0.875-0.25q0-0.25 0-0.5v-0.25 0.125" fill="#808000"/>
   <path d="m9 11.5v-0.5h1-0.75 0.25q0.25 0 0.375-0.125l0.125-0.125-0.125 0.125v1.25l0.125 0.125-0.125-0.125q-0.125-0.125-0.375-0.125h-0.25 0.75-1v-0.5m-0.125 0.5h0.875-0.25q-0.25 0-0.5 0h-0.25 0.125m0.5-1h-0.625 0.25q0.25 0 0.5 0h0.25-0.375" fill="#c0c0c0"/>
   <path d="m2.0156 12.484-0.015625-0.48438h0.5q0.5 0 1 0t1 0 1 0 1 0 1 0 1 0 1 0 0.375 0.375-0.5 0.5-0.875 0.125-1 0-1 0-1 0-1 0-1 0-1 0h-0.5 0.75-0.25q-0.25 0-0.46875-0.03125l-0.21875-0.03125 0.21875 0.03125-0.015625-0.48438m-0.015625-0.60938v0.875-0.25q0-0.25 0-0.5v-0.25 0.125" fill="#ff0"/>
   <path d="m11.125 14.625q0.125-0.375 0.5-0.5l0.375-0.125v1h-1l0.125-0.375" fill="#fff"/>
  </g>
 </g>
</svg>
