<svg width="200" height="200" version="1.1" viewBox="0 0 52.917 52.917" xmlns="http://www.w3.org/2000/svg">
 <g transform="translate(0 -244.08)">
  <g stroke-width="1.8491">
   <path transform="matrix(.26458 0 0 .26458 0 244.08)" d="m0.011719 0.0039062v59.508l140.49 140.48h59.49v-102.96l-97.029-97.027z" fill="#aac"/>
   <path transform="matrix(.26458 0 0 .26458 0 244.08)" d="m43.287 0.0039062 156.7 156.7v-156.7z" fill="#007f0e"/>
   <path transform="matrix(.26458 0 0 .26458 0 244.08)" d="m0.011719 38.982v161.01h161.02z" fill="#fe0000"/>
  </g>
  <g transform="rotate(44.998)" stroke-width=".26458px" aria-label="Geheim">
   <path d="m194.09 173.55q0 1.333-0.20197 2.0197-0.26256 0.90888-1.131 2.0601-0.46454 0.60591-1.1916 0.92907-0.58571 0.28276-1.8581 0.7271-0.0606 0.0606-0.20197 0.12118-0.88868 0.18177-1.2118 0.18177h-0.22217q-0.90887 0-1.4946-0.24236-0.26257-0.0202-0.7473-0.14138-0.28276-0.10099-0.76749-0.30296-0.48474-0.22217-1.2724-0.80789-0.56552-0.42414-1.2724-1.636-0.0404-0.0404-0.36355-0.7675-0.32316-0.74729-0.46454-1.0906-0.14138-0.34336-0.22217-0.98967-0.14138-0.96946-0.16157-1.0099-0.0404-0.12118-0.10099-0.32315-0.12118-1.3532-0.12118-1.1108v-1.3734q0-0.0808 0.12118-0.66651 0.0606-0.50493 0.28276-1.4542 0.14138-0.20198 0.32316-0.54533 0.18177-0.50493 0.78769-1.1714 0.60591-0.6665 0.92907-0.7271 0.0606-0.0808 0.16158-0.18177 0.36355-0.20197 1.03-0.50493 0.26257-0.0606 0.62612-0.0606 0.76749 0 1.535 0.26256 0.38375 0.14138 0.30296 0.14138 0.16158 0 0.48474-0.40394 0.0202 0 0.18177-0.30296 0.16158-0.10099 0.40394-0.34335 0.0606-0.0202 0.20198-0.0202 0.34335 0 0.34335 0.30296 0 0.0808-0.0606 0.24237-0.30296 0.20197-0.78769 0.60591-0.10099 0.14138-0.10099 0.26256 0 0.0606 0.28276 0.54533 0.34335 0.56552 0.44434 0.76749 0.32315 0.66651 0.32315 1.2724 0 0.32315-0.24236 0.32315-0.24237 0-0.30296-0.24236-0.0404-0.26257-0.18177-0.7877-0.0404-0.16157-0.32316-0.64631-0.34335-0.60591-0.48473-0.60591-0.18178 0-0.30296 0.38374-0.0808 0.30296-0.0808 0.50493 0 0.0606 0.0606 0.24237 0.0606 0.18178 0.0606 0.26256 0.10099 0.54533 0.86848 1.3532 0.88868 0.94927 1.0704 1.3128 0.42415-0.0606 0.94927-0.36355 0.24237-0.14138 0.66651-0.54533 0.54533-0.52513 0.54533-0.76749 0-0.0808-0.28277-0.36355-0.36355-0.36355-0.36355-0.36355-0.30295-0.32316-0.86847-0.96947-0.26257-0.36355-0.26257-0.44434 0-0.16157 0.22217-0.28276 0.34335-0.0808 0.90887-0.30295 0.36355-0.18178 0.52513-0.42415 0.0808-0.16157 0.28276-0.48473 0.20197-0.0808 0.18178-0.0808 0.24236 0 0.36355 0.24237-0.26257 0.36355-0.26257 0.60592 0 0.16157 0.56553 0.86847 0.58571 0.68671 0.74729 0.68671 0.0404 0 0.0808-0.0404 0.0606-0.0606 0.14138-0.0606 0.24237 0 0.30296 0.38375-0.14138 0.0606-0.36355 0.18178-1.3128 0.86847-1.3128 1.0099 0 0.12118 0.0808 0.18177 0.32316 0.14138 0.90887 0.7473 0.14138 0.16157 0.50493 0.74729 0.10099 0.24237 0.24237 0.66651 0.0808 0.0606 0.18178 0.20197 0.36354 1.0301 0.36354 2.6054zm-2.0803-0.14138q0-1.0099-0.38374-2.1409-0.0404-0.12119-0.34336-0.46454-0.36355-0.42414-0.62611-0.42414-0.82808 0-1.1512 0.12118-0.18177 0.0606-0.22217 0.14138 0 0.92908-0.0808 1.6966-0.0808 0.66651-0.30296 0.94927-0.34335 0.42414-0.78769 0.64631-0.76749 0.36355-1.2118 0.36355-0.14138 0-0.86848-0.16158-0.14138-0.12118-0.40394-0.28276-0.44434-0.24237-0.7473-0.86848-0.24236-0.54532-0.26256-1.0099-0.0808-0.0404-0.0808-0.18178 0.0808-1.5754 0.40394-1.5754 0.20198 0 0.44434 0.34336 0.0404 0.10098-0.0202 0.18177 0.0202 0.0404 0.0202 0.16158-0.10098 0.22217-0.10098 0.54532 0 0.90888 0.52512 1.4542 0.10099 0.10099 0.52513 0.14138 0.12118 0.0808 0.12118 0.0808 0.0808-0.0404 0.24237-0.12118 0.18177-0.0808 0.30296-0.36355 0.18177-0.40395 0.18177-0.66651 0-0.48473-0.84828-1.6764-0.12118-0.0808-0.32316-0.26256-0.0606-0.16158-0.18177-0.36355-0.88868-0.92907-0.88868-1.4138 0-0.60591 1.6764-2.7468-0.34335-0.22217-0.42414-0.22217 0 0-0.16158 0.0606-0.16158 0.0404-0.34335 0-0.38375 0.20197-0.94927 0.52513-1.2118 1.0704-1.4542 4.5848 0 0.0202-0.0404 0.0808t-0.0404 0.12118q0 0.7271 0.0808 1.1512 0.16158 1.131 0.40395 2.1611 0.0808 0.16158 0.22217 0.44434 0.10098 0.46454 0.32315 1.1714 0.0808 0.0808 0.18178 0.20197 0.28276 0.84828 1.1714 1.838 0.98967 1.131 1.7572 1.1512 0.22217 0.14138 0.18177 0.14138 0.0808 0 0.30296-0.10099 0.22217-0.10099 0.28276-0.10099 0.0606 0 0.20198 0.0202t0.18177 0.0202q0.7473 0 1.6562-0.52513 0.36355-0.20197 0.64631-0.58572 0.30296-0.40394 0.58572-0.78769 0.14138-0.18177 0.24237-0.54532 0.0808-0.26257 0.16157-0.52513 0.0202-0.0808 0.12119-1.0704 0.10098-0.98966 0.10098-1.3128z"/>
   <path d="m201.98 170.92q0 0.0404-0.0606 0.24236-0.16157 0.0808-0.44433 0.22217-0.7877 0.46454-2.3631 1.3936-0.0606 0.32315-0.0606 0.38374 0 0.7877 0.22217 2.1611 0.0808 0.38374-0.0202 0.44433 0.0808 0.0808 0.20198 0.48474 0.14138 0.40394 0.34335 0.54532 0.12118 0.0808 0.42414 0.12118 0.0606 0.0808 0.16158 0.0808 0.12118 0 0.16157-0.0808 0.22217 0.0404 0.58572-0.32315t0.50493-0.36355q0.30296 0 0.30296 0.42414 0 0.30296-0.78769 0.82809-0.26256 0.18177-0.7069 0.50493-0.0202 0-0.7473 0.78769-0.7069 0.76749-0.80789 0.76749-0.20197 0-0.24236-0.38375-0.0202-0.22217-0.0202-0.44434-0.0808-0.14138-0.54532-0.52512-0.10099-0.22217-0.36355-0.64631-0.24237-0.28276-0.34336-0.86848-0.12118-0.7069-0.20197-0.86848-0.0404-0.18178 0.0606-0.26257-0.0202-0.0202-0.0606-0.0202l-0.0606-4.3828q0.0202-0.32315 0.12118-0.92907 0.12119-0.36355 1.0704-0.88867 0.22217-0.20198 0.70691-0.62612 0.36355-0.30295 1.1512-0.90887 0.18177-0.12118 0.32315-0.12118 0.32316 0 0.32316 0.34335 0 0.18177-0.12119 0.30296 0.10099 0.52512 0.44434 0.90887 0 0.12118 0.42414 0.80789 0.42415 0.6867 0.42415 0.88868zm-1.9793 0.32315q-0.24237-0.44434-0.66651-1.232-0.0808-0.12118-0.16158-0.0808l-0.12118 0.0202v1.9793q0.10099 0 0.16158 0.0404 0.78769-0.46454 0.78769-0.7271z"/>
   <path d="m211.45 174.38q0 0.84828-0.16158 1.5754-0.0808 0.34335-0.30295 1.131-0.22217 0.60592-0.46454 1.0503-0.28276 0.50493-0.90887 1.434-0.32316 0.46453-1.2522 1.5552-1.1714 1.4138-1.4542 1.4138-0.18177 0-0.22217-0.40395 0 0.0202 0.0606-0.24236 0.26257-0.30296 0.70691-0.94927 0.12118-0.10099 0.28276-0.26257 0.10098-0.22217 0.36355-0.62611 0.26256-0.40394 0.80788-1.2522 0.12119-0.26256 0.40395-1.131 0.0808-0.24237 0.30296-2.2217-0.0808-0.16158-0.0202-0.22217 0 0 0.0202-0.0202t0.0202-0.0808q0-0.10098-0.0808-0.12118 0-0.0202 0.0606-0.12118-0.10099-0.80789-0.52513-2.4439 0.0202-0.0404 0.0202-0.14139-0.26257-0.7069-0.92907-2.0399-0.10099-0.16158-0.20198-0.32316-0.10098-0.16158-0.22217-0.16158-0.32315 0-0.32315 0.58572v5.6956q0 0.30296 0.20197 0.62612 0.22217 0.32315 0.54533 0.32315 0.0404 0 0.26256-0.20197 0.24237-0.20197 0.32315-0.20197 0.30296 0 0.30296 0.26256 0 0.34335-0.74729 1.0906-1.5754 1.5956-1.636 1.5956 0.0202 0-0.30296-0.18177 0.14138-0.58572 0.14138-0.58572 0-0.0808-0.78769-0.86848-0.18177 0.20197-0.40394 0.20197-0.10099 0-0.20197-0.14138-0.0808-0.14138-0.0808-0.24237 0-0.0404 0.22217-0.32315 0.22217-0.30296 0.26256-0.44434 0.0808-0.24237 0.0808-1.4138 0-1.9995 0.0404-2.6458l0.0606-5.3321q-0.0606-0.22217-0.14138-0.62611-0.0606-0.28276-0.32316-0.84829-0.14138-0.12118-0.38375-0.40394-0.0202-0.0202-0.0202-0.24237 0-0.36355 0.26256-0.36355 0.28276 0 0.84828 0.86848h0.12119q0.32315-0.62611 1.2522-1.1916 0.94927-0.58572 1.6562-0.58572 0.16158 0 0.38375 0.12118v0.26257q0 0.22217-0.38375 0.42414-0.26256 0.0202-0.74729 0.18177-0.26257 0.14138-0.32316 0.26257-0.42414 0.74729-0.42414 1.0502v2.5448t0.0202 0.0202q0.0404 0.0202 0.10098 0.0202 0.0606 0 0.44434-0.34335 0.44434-0.26256 1.232-1.0502 0.16158-0.0808 0.20197-0.0808 0.0808 0 0.20198 0.18177 0.14138 0.16158 0.14138 0.24237 0 0.0606-0.14138 0.22217-0.12119 0.16158-0.12119 0.24236 0 0.0606 0.30296 0.54533 0.34335 0.56552 0.44434 0.76749 0.28276 0.62612 0.40394 1.131 0.24237 0.86847 0.46454 1.7168 0.26256 1.0502 0.26256 1.737z"/>
   <path d="m219.72 170.92q0 0.0404-0.0606 0.24236-0.16158 0.0808-0.44434 0.22217-0.78769 0.46454-2.3631 1.3936-0.0606 0.32315-0.0606 0.38374 0 0.7877 0.22217 2.1611 0.0808 0.38374-0.0202 0.44433 0.0808 0.0808 0.20197 0.48474 0.14138 0.40394 0.34335 0.54532 0.12119 0.0808 0.42415 0.12118 0.0606 0.0808 0.16157 0.0808 0.12119 0 0.16158-0.0808 0.22217 0.0404 0.58572-0.32315t0.50493-0.36355q0.30296 0 0.30296 0.42414 0 0.30296-0.78769 0.82809-0.26257 0.18177-0.70691 0.50493-0.0202 0-0.74729 0.78769-0.7069 0.76749-0.80789 0.76749-0.20197 0-0.24237-0.38375-0.0202-0.22217-0.0202-0.44434-0.0808-0.14138-0.54533-0.52512-0.10098-0.22217-0.36355-0.64631-0.24236-0.28276-0.34335-0.86848-0.12118-0.7069-0.20197-0.86848-0.0404-0.18178 0.0606-0.26257-0.0202-0.0202-0.0606-0.0202l-0.0606-4.3828q0.0202-0.32315 0.12118-0.92907 0.12118-0.36355 1.0704-0.88867 0.22217-0.20198 0.7069-0.62612 0.36355-0.30295 1.1512-0.90887 0.18178-0.12118 0.32316-0.12118 0.32315 0 0.32315 0.34335 0 0.18177-0.12118 0.30296 0.10099 0.52512 0.44434 0.90887 0 0.12118 0.42414 0.80789 0.42414 0.6867 0.42414 0.88868zm-1.9793 0.32315q-0.24237-0.44434-0.66651-1.232-0.0808-0.12118-0.16158-0.0808l-0.12118 0.0202v1.9793q0.10098 0 0.16158 0.0404 0.78769-0.46454 0.78769-0.7271z"/>
   <path d="m226.08 164.94q0 0.22217-0.44434 1.0503-0.42414 0.82808-0.64631 0.82808-0.32315 0-0.32315-0.60591 0-0.7675 0.12118-1.0906 0.22217-0.54533 0.86848-0.54533 0.12118 0 0.26256 0.16158 0.16158 0.14138 0.16158 0.20197zm0.30296 12.724q0 0.24237-0.14138 0.32316-0.12119 0.0808-0.22217 0.14138-0.38375 0.38374-0.7675 0.74729-0.6665 0.66651-0.82808 0.66651-0.0404 0-0.10099-0.0202-0.12118-0.0808-0.16157-0.26256-0.0202-0.18178 0.0606-0.30296-0.10099-0.12118-0.26257-0.36355-0.38374-0.6867-0.38374-2.4439 0-0.46454 0-1.4138 0.0202-0.94927 0.0202-0.92908v-1.6158q0-1.737-0.0606-2.5246-0.12118-0.0808-0.54532-0.0606-0.0606-0.0606-0.0606-0.18178 0-0.22217 0.32315-0.54532 0.42414-0.36355 1.1714-1.0704 0.14138-0.14138 0.42414-0.12119 0.16158 0.0606 0.16158 0.30296-0.0404 0.42414-0.0404 0.42414 0.0202 0.0808 0.16158 0.30296 0.10099 0.0808 0.34335 0.28276 0 0 0.20198 0 0.0606 0 0.16157-0.0202 0.10099-0.0202 0.16158-0.0202 0.0808 0 0.14138 0.0606 0.0808 0.0404 0.10099 0.0404v0.24237q-0.16158 0.12118-0.50493 0.40394-0.12119 0.12119-0.14138 0.30296-0.12119 1.0301-0.12119 0.88868v5.7158q0 0.0404 0.12119 0.26256 0.0404 0.12118 0.10098 0.34335 0 0.0404 0.18178 0.14138 0.18177 0.0808 0.26256 0.0808 0.0606 0 0.0606-0.10098 0.18178 0.20197 0.18178 0.32315z"/>
   <path d="m240.76 176.48q0 0.30295-0.22217 0.58571-0.40395 0.50493-1.232 1.535-0.30296 0.40395-0.40395 0.58572-0.10098 0.16158-0.26256 0.16158-0.0606 0-0.36355-0.22217 0-0.0808 0.0404-0.26256 0.0606-0.20198 0.0606-0.26257-0.34336-0.34335-0.80789-1.1714-0.16158-0.62611-0.16158-0.82808v-4.504q0-0.0808 0.0202-0.0808 0.0606 0.0202 0.0808 0v-1.9187q0-0.22217-0.26257-0.40394-0.26256-0.20198-0.40394-0.20198-0.16158 0-0.32316 0.0808-0.0606 0.0202-0.34335 0.34336-0.26256 0.30295-0.26256 0.42414v4.3828q0 0.54532 0.16158 2.5448 0.26256 0.0808 0.42414 0.10098 0.0606 0.0606 0.18177 0.14138v0.34336q-0.10098 0.10098-0.12118 0.14138-0.22217-0.0202-0.50493 0.10098-0.26257 0.10099-0.32316 0.26257-0.12118 0.0202-0.22217 0.10098-0.10098 0.28276-0.20197 0.54533-0.18177 0.48473-0.38374 0.48473 0 0-0.20198-0.0606-0.0606-0.32316-0.34335-0.90888-0.36355-0.40394-0.98966-0.42414-0.0202 0-0.16158-0.14138v-0.34335q0.20197-0.10099 0.64631-0.30296 0.10099-0.58572 0.10099-1.1512v-5.2513q0-1.3532-0.7473-1.3532-0.20197 0-0.44434 0.18177-0.22217 0.16158-0.42414 0.30296v5.9178q0 0.60591 0.10099 1.3532 0.20197 0.10099 0.60591 0.42414v0.18178q-0.12118 0-0.18177 0.14138-0.24237 0.0808-0.7473 0.22217-0.16158 0.38374-0.58572 1.1916 0 0-0.0808 0.0404-0.0606 0.0404-0.14138 0.0404-0.24236 0-0.28276-0.34335-0.10098-0.68671-0.46453-0.86848-0.24237-0.0606-0.48474-0.14138-0.34335-0.10099-0.34335-0.36355 0-0.18178 0.24237-0.34335 0.18177-0.12119 0.34335-0.22217 0.0202-0.84829 0.0404-2.6458 0.0202 0 0.0808-0.0606v-0.12118q-0.0404-0.0606-0.10098-0.0606v-2.4641q0.0808-0.12119 0.0202-0.26257-0.0404-0.10098-0.0606-0.18177 0-0.0404 0.0808-0.16158 0.0404-0.38374-0.0606-0.86848-0.0404-0.22217-0.34335-0.64631-0.18178-0.14138-0.36355-0.26256-0.28276-0.22217-0.28276-0.36355 0-0.24237 0.46453-0.50493 1.1108-0.62611 1.4946-1.131 0.14138-0.0808 0.22217-0.0808 0.0808 0 0.12118 0.0404 0.0606 0.0202 0.16158 0.18178-0.0404 0.12118-0.0606 0.36355 0.0404 0.24236 0.26257 0.64631 0.26256 0.46453 0.32315 0.6665l2.5852-1.8985q0.34335 0.0808 0.34335 0.36355 0 0.0606-0.12119 0.20197-0.10098 0.12118-0.10098 0.18177 0 0 0.30296 0.30296 0.22217 0.22217 0.50493 0.78769h0.14138q0.0606 0 1.1512-0.90887 1.1108-0.92907 1.1714-0.92907 0.36355 0 0.36355 0.34335 0 0.20197-0.16157 0.34335 0.14138 0.16158 0.36355 0.40395 0.42414 0.44433 0.6665 0.44433 0.0606 0 0.10099-0.0202 0.0606-0.0202 0.12118-0.0202 0.32316 0 0.32316 0.30296 0 0.14138-0.26256 0.30296-0.26257 0.16157-0.28277 0.24236-0.0202 0.34335-0.10098 1.0503l-0.0606 3.5951q0 2.2015 0.50493 2.2015 0.14138 0 0.32315-0.34335 0.0606-0.0606 0.16158-0.16158 0.38375 0.12119 0.38375 0.34336z"/>
  </g>
 </g>
</svg>
