<svg width="18" height="18" version="1.1" viewBox="0 0 18 18" xmlns="http://www.w3.org/2000/svg">
 <g transform="matrix(.13758 0 0 .13758 0 .037116)" stroke-width=".32">
  <path d="m0 65.28v-65.28h130.56v130.56h-130.56z" display="none" fill="#fefefe"/>
  <path d="m0.50123 129.99c-0.071807-0.07181 1.4563-3.322 3.3958-7.2226l3.5264-7.092 17.408-17.495c10.163-10.213 17.408-17.736 17.408-18.075 0-0.33744-5.6365-6.2224-13.474-14.067-14.802-14.817-14.072-13.863-12.171-15.912 2.6719-2.879 7.2055-5.7047 11.404-7.1079 3.4529-1.154 9.7432-1.4554 13.399-0.64195 4.5315 1.0082 8.1333 2.8358 11.775 5.9752 0.9981 0.86031 1.9892 1.5642 2.2024 1.5642 0.56966 0 28.463-27.935 28.463-28.505 0-0.26661-0.58929-1.054-1.3095-1.7497-3.1184-3.0122-4.4505-6.0727-4.4505-10.225 0-5.045 2.5752-9.9548 4.8643-9.2744 0.88375 0.26269 46.49 45.68 47.182 46.987 0.79899 1.5078 0.12987 2.5545-2.4618 3.851-5.7144 2.8588-11.526 1.9656-16.549-2.5434l-2.0042-1.799-2.1558 1.9139c-3.3117 2.94-26.316 26.236-26.316 26.65 0 0.20088 0.72911 1.163 1.6202 2.138 4.7388 5.185 7.2867 13.113 6.4104 19.946-0.63248 4.9318-2.2049 9.008-4.9884 12.931-1.6462 2.3202-4.403 4.96-5.1798 4.96-0.3174 0-6.4599-5.8889-14.019-13.44-7.817-7.809-13.697-13.44-14.033-13.44-0.33795 0-7.8086 7.1915-17.915 17.246l-17.335 17.246-7.2841 3.657c-4.0063 2.0114-7.3429 3.5983-7.4147 3.5265z" fill="#bcbcbc"/>
  <path d="m64.324 101.28c-7.4875-7.48-13.762-13.6-13.944-13.6-0.18156 0-0.89934 0.5874-1.5951 1.3053-2.1084 2.1757-1.8959 2.2356-5.737-1.6174l-3.464-3.4747 3.5892-3.7629-13.564-13.561c-7.4601-7.4586-13.638-13.843-13.728-14.188-0.22083-0.84447 2.7655-3.9639 5.5964-5.8459 4.5083-2.9971 8.8877-4.2891 14.551-4.2926 4.2641-0.0026 7.4307 0.7127 11.171 2.5238 2.57 1.2443 3.4913 1.8747 6.5522 4.4829l1.6534 1.4089 14.377-14.364c7.9075-7.9002 14.377-14.563 14.377-14.806 0-0.24312-0.81507-1.3224-1.8113-2.3984-2.5869-2.7941-3.7238-5.3878-3.8906-8.8751-0.15443-3.2299 0.4182-5.6177 1.973-8.2272 0.87414-1.4671 1.1274-1.6807 1.8972-1.6 1.3234 0.13876 47.912 46.753 47.912 47.939 0 0.64632-0.35428 1.0322-1.68 1.8301-2.1014 1.2647-2.8761 1.5537-5.3818 2.0081-4.0398 0.73255-8.1947-0.65169-11.646-3.8798-1.1078-1.0363-2.2125-1.8842-2.4548-1.8842-0.57232 0-28.758 28.186-28.758 28.758 0 0.23937 0.70068 1.2468 1.5571 2.2387 4.4598 5.1655 6.5126 10.503 6.5401 17.003 0.02285 5.4128-1.3378 10.07-4.2264 14.467-1.8401 2.8007-4.8717 6.0133-5.6744 6.0133-0.33601 0-6.292-5.7073-14.193-13.6z" fill="#16a0fd"/>
  <path d="m64.285 100.61-13.634-13.634-1.5517 1.6589c-0.85341 0.91237-1.7845 1.7835-2.0691 1.9358-0.40255 0.21544-1.2873-0.49528-3.9838-3.2001l-3.4663-3.4771 3.5906-3.7285 1.7051 1.68c0.93782 0.924 1.8393 1.68 2.0032 1.68 0.37318 0 19.604-19.14 20.058-19.963 0.28781-0.52209-0.44268-1.3785-5.4619-6.4032-3.1868-3.1903-5.7941-5.9607-5.7941-6.1566 0-0.38577 2.7095-2.9976 3.1097-2.9976 0.1342 0 2.8542 2.6073 6.0445 5.7941 5.0256 5.0201 5.881 5.7497 6.4032 5.4616 0.33148-0.18289 5.7116-5.4559 11.956-11.718l11.353-11.385-5.8331-5.8395c-3.2082-3.2117-5.8331-6.0618-5.8331-6.3336s0.5072-0.98566 1.1271-1.5865l1.1271-1.0924 5.8361 5.8297c3.2098 3.2063 6.0391 5.8297 6.2873 5.8297 0.24816 0 2.4112-1.9421 4.8068-4.3158l4.3556-4.3158 11.748 11.763c6.4612 6.4699 11.809 11.616 11.885 11.436 0.0755-0.18014 0.14641 0.10447 0.15761 0.63247 0.0136 0.64095-0.0696 0.81815-0.25021 0.53317-0.22454-0.35422-0.299-0.35272-0.43774 0.0088-0.2384 0.62128-3.2134 2.1749-5.154 2.6916-3.0604 0.81486-6.4119 0.42041-9.3975-1.106-0.74225-0.37948-2.2903-1.57-3.4401-2.6456l-2.0905-1.9556-0.87993 0.5494c-1.3157 0.82148-28.88 28.515-28.879 29.014 6.4e-4 0.23656 0.93853 1.5101 2.084 2.8301 2.3112 2.6634 4.5854 6.9114 5.482 10.24 0.86439 3.209 0.78848 9.6416-0.15268 12.938-1.1098 3.8871-3.2906 7.8128-5.8813 10.587-1.2301 1.3172-2.4746 2.3949-2.7654 2.3949-0.29087 0-6.6644-6.1355-14.163-13.634z" fill="#018dec"/>
  <path d="m43.064 87.384-3.4849-3.4957 3.5558-3.7002 3.5525 3.3015c1.9539 1.8158 3.5525 3.4806 3.5525 3.6994 0 0.33256-3.2632 3.6908-3.5863 3.6908-0.05754 0-1.6728-1.5731-3.5895-3.4957zm24.654-24.464c-6.4448-6.5776-11.718-12.093-11.718-12.257 0-0.36373 2.0062-2.3435 2.3748-2.3435 0.5267 0 23.865 23.132 23.865 23.654 0 0.4901-2.1746 2.9062-2.6158 2.9062-0.10382 0-5.4618-5.3817-11.907-11.959zm27.043-27.043c-6.3586-6.4914-11.561-12.01-11.561-12.264 0-0.25392 0.35577-0.79591 0.7906-1.2044l0.7906-0.74273 12.009 11.767c6.6052 6.4717 12.009 11.938 12.009 12.147 0 0.46502-1.6634 2.1-2.1365 2.1-0.18781 0-5.5439-5.3111-11.902-11.803z" fill="#6f7071"/>
  <path d="m48.32 85.6c-0.94738-0.95929-1.6505-1.8162-1.5625-1.9042s0.93512 0.62487 1.8825 1.5842 1.6505 1.8162 1.5625 1.9042-0.93512-0.62487-1.8825-1.5842zm19.398-22.679c-6.4448-6.5776-11.718-12.093-11.718-12.257 0-0.36373 2.0062-2.3435 2.3748-2.3435 0.5267 0 23.865 23.132 23.865 23.654 0 0.4901-2.1746 2.9062-2.6158 2.9062-0.10382 0-5.4618-5.3817-11.907-11.959zm27.043-27.043c-6.3586-6.4914-11.561-12.01-11.561-12.264 0-0.25392 0.35577-0.79591 0.7906-1.2044l0.7906-0.74273 12.009 11.767c6.6052 6.4717 12.009 11.938 12.009 12.147 0 0.46502-1.6634 2.1-2.1365 2.1-0.18781 0-5.5439-5.3111-11.902-11.803z" fill="#0178c8"/>
 </g>
</svg>
