<svg width="32" height="23" version="1.1" viewBox="0 0 32 23" xmlns="http://www.w3.org/2000/svg">
 <g transform="translate(0)">
  <path d="m0 0.5v-0.5h24l-0.125 0.375q-0.125 0.375-0.5 0.5t-0.375 0.625-0.5 0.5-1 0-0.625 0.375-0.5 0.5-0.875 0.125-0.625 0.375-0.5 0.5-0.875 0.125-1 0-0.5-0.5-0.5-0.5-1 0-1 0-1 0-1 0-0.5 0.5-0.5 0.5-0.5 0.5-0.5 0.5-1 0-1 0-1 0-1 0-0.625 0.375-0.5 0.5-0.875 0.125-0.625 0.375-0.5 0.5-0.5 0.5-0.5 0.5-0.375 0.625-0.125 0.875-0.5 0.5l-0.375 0.125v-9.5" fill-opacity="0"/>
  <path d="m23.875 0.375 0.125-0.375h3l0.125 0.375q0.125 0.375 0.5 0.5t0.375 0.625 0 1 0 1-0.375 0.625-0.5 0.5-0.625 0.375-1 0-0.5 0.5-0.375 0.625-0.5 0.5-0.5 0.5-0.375 0.375 0.375 0.375 0.875 0.125 0.625 0.375 0.5 0.5 0.875 0.125 0.625 0.375 0.375 0.375 0.375-0.375 0.625-0.375 1 0 1 0 0.625 0.375 0.5 0.5l0.375 0.125v3l-0.375 0.125q-0.375 0.125-0.5 0.5t-0.625 0.375-1 0-1 0-0.625-0.375-0.375-0.375-0.375 0.375-0.625 0.375-0.875 0.125-0.5 0.5-0.625 0.375-0.875 0.125-0.375 0.375 0.375 0.375 0.5 0.5 0.5 0.5 0.375 0.625 0.5 0.5 1 0 0.625 0.375 0.5 0.5 0.375 0.625 0 1 0 1-0.375 0.625-0.5 0.5l-0.125 0.375h-3l-0.125-0.375q-0.125-0.375-0.5-0.5t-0.375-0.625-0.5-0.5-1 0-0.625-0.375-0.5-0.5-0.875-0.125-0.625-0.375-0.5-0.5-0.875-0.125-1 0-0.5 0.5-0.5 0.5-1 0-1 0-1 0-1 0-0.5-0.5-0.5-0.5-1 0-1 0-1 0-1 0-1 0-0.5-0.5-0.5-0.5-0.625-0.375-0.5-0.5-0.875-0.125-0.5-0.5-0.5-0.5-0.5-0.5-0.125-0.875-0.5-0.5l-0.375-0.125v-4l0.375-0.125q0.375-0.125 0.5-0.5t0.125-0.875 0.375-0.625 0.5-0.5 0.5-0.5 0.5-0.5 0.625-0.375 0.875-0.125 0.5-0.5 0.625-0.375 1 0 1 0 1 0 1 0 0.5-0.5 0.5-0.5 0.5-0.5 0.5-0.5 1 0 1 0 1 0 1 0 0.5 0.5 0.5 0.5 1 0 0.875-0.125 0.5-0.5 0.625-0.375 0.875-0.125 0.5-0.5 0.625-0.375 1 0 0.5-0.5 0.375-0.625 0.5-0.5m-14.375 17.625q0.5 0 0.875-0.125t0.625-0.375 0.625-0.375 0.75-0.25 0.5-0.5 0.25-0.75 0.375-0.625 0.25-0.5-0.375-0.375-0.75-0.25-0.5-0.5-0.125-0.875v-0.5h0.5q0.5 0 0.875-0.125t0.5-0.5 0.125-0.875 0-1-0.125-0.875-0.375-0.625-0.5-0.5-0.5-0.5-0.5-0.5-0.625-0.375-0.875-0.125-1 0-1 0-1 0-1 0-0.875 0.125-0.625 0.375-0.625 0.375-0.75 0.25-0.625 0.375-0.5 0.5-0.375 0.625-0.25 0.75-0.375 0.625-0.375 0.625-0.125 0.875 0 1 0.125 0.875 0.375 0.625 0.5 0.5 0.5 0.5 0.5 0.5 0.5 0.5 0.5 0.5 0.625 0.375 0.75 0.25 0.625 0.375 0.625 0.375 0.875 0.125 1 0 1 0m4 1q0.5 0 0.875-0.125t0.625-0.375 0.625-0.375 0.75-0.25 0.5-0.5 0.25-0.75 0.375-0.625 0.375-0.625 0.125-0.875 0-1 0-1 0-1 0-1 0-1 0-1-0.125-0.875-0.375-0.625-0.375-0.625-0.25-0.75-0.5-0.5-0.75-0.25-0.625-0.375-0.625-0.375-0.875-0.125-0.875 0.125-0.375 0.375 0.25 0.5 0.5 0.5 0.5 0.5 0.375 0.625 0.25 0.75 0.375 0.625 0.375 0.625 0.125 0.875 0 1 0 1 0 1 0 1-0.125 0.875-0.375 0.625-0.375 0.625-0.25 0.75-0.375 0.625-0.5 0.5-0.5 0.5-0.25 0.5 0.375 0.375 0.875 0.125m8.125 0.875q0.375 0.125 0.75 0t0.625-0.375 0.5-0.5 0.375-0.625 0-0.75-0.375-0.625-0.5-0.5-0.625-0.375-0.875-0.125-1 0-1 0-0.875 0.125-0.5 0.5 0 0.75 0.375 0.625 0.5 0.5 0.625 0.375 0.75 0.25 0.625 0.375 0.625 0.375m-0.125-4.875q0.5 0 0.875-0.125t0.625-0.375 0.625-0.375 0.75-0.25 0.625-0.375 0.625-0.375 0.75-0.25 0.5-0.5 0.125-0.875-0.125-0.875-0.5-0.5-0.75-0.25-0.625-0.375-0.625-0.375-0.75-0.25-0.625-0.375-0.625-0.375-0.875-0.125-1 0-0.875 0.125-0.5 0.5-0.125 0.875 0 1 0 1 0 1 0 1 0.125 0.875 0.5 0.5 0.875 0.125 1 0m0-8q0.5 0 0.875-0.125t0.625-0.375 0.5-0.5 0.375-0.625 0-0.75-0.375-0.625-0.5-0.5-0.625-0.375-0.75 0-0.625 0.375-0.625 0.375-0.75 0.25-0.625 0.375-0.5 0.5-0.375 0.625 0 0.75 0.5 0.5 0.875 0.125 1 0 1 0m4 15q0.5 0 0.875-0.125t0.5-0.5 0.125-0.875-0.125-0.875-0.5-0.5-0.875-0.125-0.875 0.125-0.5 0.5-0.125 0.875 0.125 0.875 0.5 0.5 0.875 0.125m4-9q0.5 0 0.875-0.125t0.5-0.5 0.125-0.875-0.125-0.875-0.5-0.5-0.875-0.125-0.875 0.125-0.5 0.5-0.125 0.875 0.125 0.875 0.5 0.5 0.875 0.125m-4-9q0.5 0 0.875-0.125t0.5-0.5 0.125-0.875-0.125-0.875-0.5-0.5-0.875-0.125-0.875 0.125-0.5 0.5-0.125 0.875 0.125 0.875 0.5 0.5 0.875 0.125"/>
  <path d="m27.125 0.375-0.125-0.375h5v10l-0.375-0.125q-0.375-0.125-0.5-0.5t-0.625-0.375-1 0-1 0-0.625 0.375-0.375 0.375-0.375-0.375-0.625-0.375-0.875-0.125-0.5-0.5-0.625-0.375-0.875-0.125-0.375-0.375 0.375-0.375 0.5-0.5 0.5-0.5 0.375-0.625 0.5-0.5 1 0 0.625-0.375 0.5-0.5 0.375-0.625 0-1 0-1-0.375-0.625-0.5-0.5" fill-opacity="0"/>
  <g>
   <path d="m24.125 1.625q0.125-0.375 0.5-0.5t0.875-0.125 0.875 0.125 0.5 0.5 0.125 0.875-0.125 0.875-0.5 0.5-0.875 0.125-0.875-0.125-0.5-0.5-0.125-0.875 0.125-0.875" fill="#fff"/>
   <path d="m21 3.5q0.25-0.25 0.625-0.375t0.75 0 0.625 0.375 0.5 0.5 0.375 0.625 0 0.75-0.375 0.625-0.5 0.5-0.625 0.375-0.875 0.125-1 0-1 0-0.875-0.125-0.5-0.5 0-0.75 0.375-0.625 0.5-0.5 0.625-0.375 0.75-0.25 0.625-0.375" fill="#c0c0c0"/>
   <path d="m12.25 4.5q0-0.25 0.375-0.375t0.875-0.125 0.875 0.125 0.625 0.375 0.625 0.375 0.75 0.25 0.5 0.5 0.25 0.75 0.375 0.625 0.375 0.625 0.125 0.875 0 1 0 1 0 1 0 1 0 1 0 1-0.125 0.875-0.375 0.625-0.375 0.625-0.25 0.75-0.5 0.5-0.75 0.25-0.625 0.375-0.625 0.375-0.875 0.125-0.875-0.125-0.375-0.375 0.25-0.5 0.5-0.5 0.5-0.5 0.375-0.625 0.25-0.75 0.375-0.625 0.375-0.625 0.125-0.875 0-1 0-1 0-1 0-1-0.125-0.875-0.375-0.625-0.375-0.625-0.25-0.75-0.375-0.625-0.5-0.5-0.5-0.5-0.25-0.5" fill="#fff"/>
   <path d="m5 6.5q0.25-0.25 0.625-0.375t0.875-0.125 1 0 1 0 1 0 1 0 0.875 0.125 0.625 0.375 0.5 0.5 0.5 0.5 0.5 0.5 0.375 0.625 0.125 0.875 0 1-0.125 0.875-0.5 0.5-0.875 0.125h-0.5v0.5q0 0.5 0.125 0.875t0.5 0.5 0.75 0.25 0.375 0.375-0.25 0.5-0.375 0.625-0.25 0.75-0.5 0.5-0.75 0.25-0.625 0.375-0.625 0.375-0.875 0.125-1 0-1 0-0.875-0.125-0.625-0.375-0.625-0.375-0.75-0.25-0.625-0.375-0.5-0.5-0.5-0.5-0.5-0.5-0.5-0.5-0.5-0.5-0.375-0.625-0.125-0.875 0-1 0.125-0.875 0.375-0.625 0.375-0.625 0.25-0.75 0.375-0.625 0.5-0.5 0.625-0.375 0.75-0.25 0.625-0.375m0.625 5.375q0.375 0.125 0.75 0t0.625-0.375 0.5-0.5 0.375-0.625 0-0.75-0.375-0.625-0.5-0.5-0.625-0.375-0.75 0-0.625 0.375-0.5 0.5-0.375 0.625 0 0.75 0.375 0.625 0.5 0.5 0.625 0.375m5.875 0.125h0.5l0.125-0.375q0.125-0.375 0.375-0.625t0.375-0.625 0-0.75-0.375-0.625-0.5-0.5-0.625-0.375-0.75 0-0.625 0.375-0.5 0.5-0.375 0.625 0 0.75 0.375 0.625 0.5 0.5 0.625 0.375 0.875 0.125" fill="#c0c0c0"/>
   <path d="m5 8.5q0.25-0.25 0.625-0.375t0.75 0 0.625 0.375 0.5 0.5 0.375 0.625 0 0.75-0.375 0.625-0.5 0.5-0.625 0.375-0.75 0-0.625-0.375-0.5-0.5-0.375-0.625 0-0.75 0.375-0.625 0.5-0.5m0.625 2.375q0.375 0.125 0.75 0t0.5-0.5 0-0.75-0.5-0.5-0.75 0-0.5 0.5 0 0.75 0.5 0.5"/>
   <path d="m10 8.5q0.25-0.25 0.625-0.375t0.75 0 0.625 0.375 0.5 0.5 0.375 0.625 0 0.75-0.375 0.625-0.375 0.625l-0.125 0.375h-0.5q-0.5 0-0.875-0.125t-0.625-0.375-0.5-0.5-0.375-0.625 0-0.75 0.375-0.625 0.5-0.5m0.625 2.375q0.375 0.125 0.75 0t0.5-0.5 0-0.75-0.5-0.5-0.75 0-0.5 0.5 0 0.75 0.5 0.5"/>
   <path d="m19.125 8.625q0.125-0.375 0.5-0.5t0.875-0.125 1 0 0.875 0.125 0.625 0.375 0.625 0.375 0.75 0.25 0.625 0.375 0.625 0.375 0.75 0.25 0.5 0.5 0.125 0.875-0.125 0.875-0.5 0.5-0.75 0.25-0.625 0.375-0.625 0.375-0.75 0.25-0.625 0.375-0.625 0.375-0.875 0.125-1 0-0.875-0.125-0.5-0.5-0.125-0.875 0-1 0-1 0-1 0-1 0.125-0.875" fill="#c0c0c0"/>
   <path d="m5.125 9.625q0.125-0.375 0.5-0.5t0.75 0 0.5 0.5 0 0.75-0.5 0.5-0.75 0-0.5-0.5 0-0.75" fill="#ffd587"/>
   <path d="m10.125 9.625q0.125-0.375 0.5-0.5t0.75 0 0.5 0.5 0 0.75-0.5 0.5-0.75 0-0.5-0.5 0-0.75" fill="#ffd587"/>
   <path d="m28.125 10.625q0.125-0.375 0.5-0.5t0.875-0.125 0.875 0.125 0.5 0.5 0.125 0.875-0.125 0.875-0.5 0.5-0.875 0.125-0.875-0.125-0.5-0.5-0.125-0.875 0.125-0.875" fill="#fff"/>
  </g>
  <path d="m27.125 13.625q0.125-0.375 0.375-0.375t0.375 0.375 0.625 0.375 1 0 1 0 0.625-0.375 0.5-0.5l0.375-0.125v10h-5l0.125-0.375q0.125-0.375 0.5-0.5t0.375-0.625 0-1 0-1-0.375-0.625-0.5-0.5-0.625-0.375-1 0-0.5-0.5-0.375-0.625-0.5-0.5-0.5-0.5-0.375-0.375 0.375-0.375 0.875-0.125 0.625-0.375 0.5-0.5 0.875-0.125 0.625-0.375" fill-opacity="0"/>
  <path d="m0 14.5v-0.5l0.375 0.125q0.375 0.125 0.5 0.5t0.125 0.875 0.5 0.5 0.5 0.5 0.5 0.5 0.875 0.125 0.5 0.5 0.625 0.375 0.5 0.5 0.5 0.5 1 0 1 0 1 0 1 0 1 0 0.5 0.5 0.5 0.5 1 0 1 0 1 0 1 0 0.5-0.5 0.5-0.5 1 0 0.875 0.125 0.5 0.5 0.625 0.375 0.875 0.125 0.5 0.5 0.625 0.375 1 0 0.5 0.5 0.375 0.625 0.5 0.5l0.125 0.375h-24v-8.5" fill-opacity="0"/>
  <path d="m18.125 16.625q0.125-0.375 0.5-0.5t0.875-0.125 1 0 1 0 0.875 0.125 0.625 0.375 0.5 0.5 0.375 0.625 0 0.75-0.375 0.625-0.5 0.5-0.625 0.375-0.75 0-0.625-0.375-0.625-0.375-0.75-0.25-0.625-0.375-0.5-0.5-0.375-0.625 0-0.75" fill="#c0c0c0"/>
  <path d="m24.125 19.625q0.125-0.375 0.5-0.5t0.875-0.125 0.875 0.125 0.5 0.5 0.125 0.875-0.125 0.875-0.5 0.5-0.875 0.125-0.875-0.125-0.5-0.5-0.125-0.875 0.125-0.875" fill="#fff"/>
 </g>
</svg>
