<svg width="31" height="25" version="1.1" viewBox="0 0 31 25" xmlns="http://www.w3.org/2000/svg">
 <g transform="translate(0)">
  <path d="m0 0.5v-0.5h14l-0.125 0.375q-0.125 0.375-0.5 0.5t-0.375 0.625-0.125 0.875-0.5 0.5-0.375 0.625-0.125 0.875-0.5 0.5-0.75 0-0.5-0.5-0.625-0.375-0.875-0.125-0.5-0.5-0.625-0.375-1 0-1 0-0.625 0.375-0.5 0.5-0.875 0.125-0.625 0.375-0.5 0.5-0.375 0.625-0.5 0.5-0.625 0.375-0.5 0.5l-0.375 0.125v-6.5" fill-opacity="0"/>
  <path d="m13.875 0.375 0.125-0.375h3l0.125 0.375q0.125 0.375 0.5 0.5t0.375 0.625 0.125 0.875 0.5 0.5 0.375 0.625 0.125 0.875 0.5 0.5 0.75 0 0.5-0.5 0.625-0.375 0.875-0.125 0.5-0.5 0.625-0.375 1 0 1 0 0.625 0.375 0.5 0.5 0.875 0.125 0.625 0.375 0.5 0.5 0.375 0.625 0.5 0.5 0.625 0.375 0.5 0.5l0.375 0.125v3l-0.375 0.125q-0.375 0.125-0.5 0.5t-0.625 0.375-1 0-1 0-0.625-0.375-0.5-0.5-0.375-0.625 0-1-0.125-0.875-0.5-0.5-0.75 0-0.5 0.5-0.5 0.5-0.5 0.5-0.125 0.875 0 1 0 1 0.5 0.5 0.5 0.5 0 1 0 1-0.5 0.5-0.375 0.375 0.5 0.5 0.375 0.625 0 1 0 1 0 1-0.375 0.625-0.5 0.5-0.125 0.875-0.5 0.5-0.5 0.5-0.5 0.5-1 0-0.5 0.5-0.5 0.5-0.5 0.5v0.5h-7v-0.5q0-0.5-0.5-0.5t-0.625-0.375-0.5-0.5-0.875-0.125-0.5-0.5-0.5-0.5-0.5-0.5-0.125-0.875-0.5-0.5-0.375-0.625 0-1 0-1 0-1 0.375-0.625 0.5-0.5-0.375-0.375-0.5-0.5 0-1 0-1 0.5-0.5 0.5-0.5 0-1 0-1-0.125-0.875-0.5-0.5-0.5-0.5-0.5-0.5-0.75 0-0.5 0.5-0.125 0.875 0 1-0.375 0.625-0.5 0.5-0.625 0.375-1 0-1 0-0.625-0.375-0.5-0.5l-0.375-0.125v-3l0.375-0.125q0.375-0.125 0.5-0.5t0.625-0.375 0.5-0.5 0.375-0.625 0.5-0.5 0.625-0.375 0.875-0.125 0.5-0.5 0.625-0.375 1 0 1 0 0.625 0.375 0.5 0.5 0.875 0.125 0.625 0.375 0.5 0.5 0.75 0 0.5-0.5 0.125-0.875 0.375-0.625 0.5-0.5 0.125-0.875 0.375-0.625 0.5-0.5m-11.375 9.625q0.5 0 0.875-0.125t0.5-0.5 0.125-0.875-0.125-0.875-0.5-0.5-0.875-0.125-0.875 0.125-0.5 0.5-0.125 0.875 0.125 0.875 0.5 0.5 0.875 0.125m5.75 3.5q0 0.25 0.25 0.25t0.25-0.25-0.25-0.25-0.25 0.25m2.75 9q0.25 0.25 0.5 0.25t0.375-0.375 0.125-0.875 0.0625-1.0625l0.0625-0.5625-0.125-0.125 0.125 0.125q0.125 0.125 0.375 0.125h0.25-0.75 0.5q0.5 0 1 0t1 0 1 0 1 0 1 0 1 0 1 0 1 0 1 0 0.875-0.125 0.5-0.5 0.125-0.875 0-1-0.125-0.875-0.5-0.5l-0.375-0.125 0.5625 0.1875-0.1875-0.0625q-0.1875-0.0625-0.40625-0.09375l-0.21875-0.03125 0.21875 0.03126 0.01563-0.51562q0.01562-0.51564-0.10938-0.89064t-0.5-0.5-0.75 0-0.375 0.375 0.25 0.5 0.4375 0.6875l0.1875 0.4375 0.125-0.125-0.125 0.125q-0.125 0.125-0.125 0.375v0.25-0.75 0.5q0 0.5-0.125 0.875t-0.375 0.625-0.5 0.5-0.625 0.375-0.875 0.125-0.875-0.125-0.625-0.375-0.5-0.5-0.375-0.625-0.125-0.875v-0.5 0.75-0.25q0-0.25-0.125-0.375l-0.125-0.125 0.125 0.125 0.1875-0.4375q0.1875-0.4375 0.4375-0.6875t0.25-0.5-0.375-0.375-0.875-0.125-0.875 0.125-0.375 0.375 0.25 0.5 0.4375 0.6875l0.1875 0.4375 0.125-0.125-0.125 0.125q-0.125 0.125-0.125 0.375v0.25-0.75 0.5q0 0.5-0.125 0.875t-0.375 0.625-0.5 0.5-0.625 0.375-0.875 0.125h-0.5 0.75-0.25q-0.25 0-0.375 0.125l-0.125 0.125 0.125-0.125-0.4375-0.1875q-0.4375-0.1875-0.6875-0.4375t-0.5-0.5-0.375-0.625-0.125-0.875 0.125-0.875 0.375-0.625 0.25-0.5-0.375-0.375-0.75 0-0.5 0.5-0.25 0.75-0.375 0.625-0.375 0.625-0.125 0.875 0 1 0.125 0.875 0.375 0.625 0.5 0.5 0.5 0.5 0.5 0.5 0.5 0.5 0.5 0.5m11.25-9q0 0.25 0.25 0.25t0.25-0.25-0.25-0.25-0.25 0.25m-1.75-0.5q0.5 0 0.875-0.125t0.5-0.5 0-0.75-0.5-0.5-0.75-0.25-0.625-0.375-0.625-0.375-0.875-0.125-1 0-1 0-1 0-1 0-1 0-1 0-0.875 0.125-0.625 0.375-0.625 0.375-0.75 0.25-0.5 0.5 0 0.75 0.5 0.5 0.875 0.125 1 0 1 0 1 0 1 0 1 0 1 0 1 0 1 0 1 0 1 0m0.125-3.125q0.375 0.125 0.75 0t0.5-0.5 0.25-0.75 0.375-0.625 0.5-0.5 0.5-0.5 0.5-0.5 0.625-0.375 0.75 0 0.625 0.375 0.5 0.25 0.5-0.25 0.5-0.5 0.25-0.5-0.375-0.375-0.75-0.25-0.625-0.375-0.625-0.375-0.875-0.125-0.875 0.125-0.625 0.375-0.625 0.375-0.75 0.25-0.625 0.375-0.5 0.5-0.375 0.625-0.125 0.875 0 1 0.125 0.875 0.5 0.5m-3.125-0.875q0.5 0 0.875-0.125t0.5-0.5 0.125-0.875 0-1-0.125-0.875-0.375-0.375-0.375 0.375-0.25 0.75-0.375 0.625-0.5 0.5-0.625 0.375-0.875 0.125-0.875-0.125-0.625-0.375-0.5-0.5-0.375-0.625-0.25-0.75-0.375-0.375-0.375 0.375-0.125 0.875 0 1 0.125 0.875 0.5 0.5 0.875 0.125 1 0 1 0 1 0 1 0m-2-2q0.5 0 0.875-0.125t0.5-0.5 0.125-0.875-0.125-0.875-0.5-0.5-0.875-0.125-0.875 0.125-0.5 0.5-0.125 0.875 0.125 0.875 0.5 0.5 0.875 0.125m1.75-3.5q0 0.25 0.25 0.25t0.25-0.25-0.25-0.25-0.25 0.25m-1.75-0.5q0.5 0 0.875-0.125t0.5-0.5 0-0.75-0.5-0.5-0.875-0.125-0.875 0.125-0.5 0.5 0 0.75 0.5 0.5 0.875 0.125m-2.25 0.5q0 0.25 0.25 0.25t0.25-0.25-0.25-0.25-0.25 0.25m-3.625 6.375q0.375 0.125 0.75 0t0.5-0.5 0.125-0.875 0-1-0.125-0.875-0.375-0.625-0.5-0.5-0.625-0.375-0.75-0.25-0.625-0.375-0.625-0.375-0.875-0.125-0.875 0.125-0.625 0.375-0.625 0.375-0.75 0.25-0.375 0.375 0.25 0.5 0.5 0.5 0.5 0.25 0.5-0.25 0.625-0.375 0.75 0 0.625 0.375 0.5 0.5 0.5 0.5 0.5 0.5 0.375 0.625 0.25 0.75 0.5 0.5m8.875 8.125q0.5 0 0.875-0.125t0.5-0.5 0.125-0.875-0.125-0.875-0.5-0.5-0.875-0.125-0.875 0.125-0.5 0.5-0.125 0.875 0.125 0.875 0.5 0.5 0.875 0.125m-6 0q0.5 0 0.875-0.125t0.5-0.5 0.125-0.875-0.125-0.875-0.5-0.5-0.875-0.125-0.875 0.125-0.5 0.5-0.125 0.875 0.125 0.875 0.5 0.5 0.875 0.125m16-8q0.5 0 0.875-0.125t0.5-0.5 0.125-0.875-0.125-0.875-0.5-0.5-0.875-0.125-0.875 0.125-0.5 0.5-0.125 0.875 0.125 0.875 0.5 0.5 0.875 0.125"/>
  <path d="m17.125 0.375-0.125-0.375h14v7l-0.375-0.125q-0.375-0.125-0.5-0.5t-0.625-0.375-0.5-0.5-0.375-0.625-0.5-0.5-0.625-0.375-0.875-0.125-0.5-0.5-0.625-0.375-1 0-1 0-0.625 0.375-0.5 0.5-0.875 0.125-0.625 0.375-0.5 0.5-0.75 0-0.5-0.5-0.125-0.875-0.375-0.625-0.5-0.5-0.125-0.875-0.375-0.625-0.5-0.5" fill-opacity="0"/>
  <g fill="#dc143c">
   <path d="m14.125 1.625q0.125-0.375 0.5-0.5t0.875-0.125 0.875 0.125 0.5 0.5 0 0.75-0.5 0.5-0.875 0.125-0.875-0.125-0.5-0.5 0-0.75"/>
   <path d="m13.25 3.5q0-0.25 0.25-0.25t0.25 0.25-0.25 0.25-0.25-0.25"/>
   <path d="m17.25 3.5q0-0.25 0.25-0.25t0.25 0.25-0.25 0.25-0.25-0.25"/>
  </g>
  <g>
   <path d="m5 4.5q0.25-0.25 0.625-0.375t0.875-0.125 0.875 0.125 0.625 0.375 0.625 0.375 0.75 0.25 0.625 0.375 0.5 0.5 0.375 0.625 0.125 0.875 0 1-0.125 0.875-0.5 0.5-0.75 0-0.5-0.5-0.25-0.75-0.375-0.625-0.5-0.5-0.5-0.5-0.5-0.5-0.625-0.375-0.75 0-0.625 0.375-0.5 0.25-0.5-0.25-0.5-0.5-0.25-0.5 0.375-0.375 0.75-0.25 0.625-0.375" fill="#ff9700"/>
   <path d="m14.125 4.625q0.125-0.375 0.5-0.5t0.875-0.125 0.875 0.125 0.5 0.5 0.125 0.875-0.125 0.875-0.5 0.5-0.875 0.125-0.875-0.125-0.5-0.5-0.125-0.875 0.125-0.875" fill="#fff"/>
   <path d="m23 4.5q0.25-0.25 0.625-0.375t0.875-0.125 0.875 0.125 0.625 0.375 0.625 0.375 0.75 0.25 0.375 0.375-0.25 0.5-0.5 0.5-0.5 0.25-0.5-0.25-0.625-0.375-0.75 0-0.625 0.375-0.5 0.5-0.5 0.5-0.5 0.5-0.375 0.625-0.25 0.75-0.5 0.5-0.75 0-0.5-0.5-0.125-0.875 0-1 0.125-0.875 0.375-0.625 0.5-0.5 0.625-0.375 0.75-0.25 0.625-0.375" fill="#009530"/>
   <path d="m12.125 5.625q0.125-0.375 0.375-0.375t0.375 0.375 0.25 0.75 0.375 0.625 0.5 0.5 0.625 0.375 0.875 0.125 0.875-0.125 0.625-0.375 0.5-0.5 0.375-0.625 0.25-0.75 0.375-0.375 0.375 0.375 0.125 0.875 0 1-0.125 0.875-0.5 0.5-0.875 0.125-1 0-1 0-1 0-1 0-0.875-0.125-0.5-0.5-0.125-0.875 0-1 0.125-0.875" fill="#dc143c"/>
   <path d="m1.125 7.625q0.125-0.375 0.5-0.5t0.875-0.125 0.875 0.125 0.5 0.5 0.125 0.875-0.125 0.875-0.5 0.5-0.875 0.125-0.875-0.125-0.5-0.5-0.125-0.875 0.125-0.875" fill="#fff"/>
  </g>
  <path d="m5.125 7.625q0.125-0.375 0.5-0.5t0.75 0 0.5 0.5 0.5 0.5 0.5 0.5 0.125 0.875 0 1 0 1-0.5 0.5-0.5 0.5 0 1 0 1 0.5 0.5 0.375 0.375-0.5 0.5-0.375 0.625 0 1 0 1 0 1 0.375 0.625 0.5 0.5 0.125 0.875 0.5 0.5 0.5 0.5 0.5 0.5 0.875 0.125 0.5 0.5 0.625 0.375 0.5 0.5v0.5h-12v-15l0.375 0.125q0.375 0.125 0.5 0.5t0.625 0.375 1 0 1 0 0.625-0.375 0.5-0.5 0.375-0.625 0-1 0.125-0.875" fill-opacity="0"/>
  <path d="m24.125 7.625q0.125-0.375 0.5-0.5t0.75 0 0.5 0.5 0.125 0.875 0 1 0.375 0.625 0.5 0.5 0.625 0.375 1 0 1 0 0.625-0.375 0.5-0.5l0.375-0.125v15h-12v-0.5q0-0.5 0.5-0.5t0.5-0.5 0.5-0.5 1 0 0.5-0.5 0.5-0.5 0.5-0.5 0.125-0.875 0.5-0.5 0.375-0.625 0-1 0-1 0-1-0.375-0.625-0.5-0.5 0.375-0.375 0.5-0.5 0-1 0-1-0.5-0.5-0.5-0.5 0-1 0-1 0.125-0.875 0.5-0.5 0.5-0.5" fill-opacity="0"/>
  <g fill="#fff">
   <path d="m27.125 7.625q0.125-0.375 0.5-0.5t0.875-0.125 0.875 0.125 0.5 0.5 0.125 0.875-0.125 0.875-0.5 0.5-0.875 0.125-0.875-0.125-0.5-0.5-0.125-0.875 0.125-0.875"/>
   <path d="m11 10.5q0.25-0.25 0.625-0.375t0.875-0.125 1 0 1 0 1 0 1 0 1 0 1 0 0.875 0.125 0.625 0.375 0.625 0.375 0.75 0.25 0.5 0.5 0 0.75-0.5 0.5-0.875 0.125-1 0-1 0-1 0-1 0-1 0-1 0-1 0-1 0-1 0-1 0-0.875-0.125-0.5-0.5 0-0.75 0.5-0.5 0.75-0.25 0.625-0.375"/>
   <path d="m8.25 13.5q0-0.25 0.25-0.25t0.25 0.25-0.25 0.25-0.25-0.25"/>
   <path d="m22.25 13.5q0-0.25 0.25-0.25t0.25 0.25-0.25 0.25-0.25-0.25"/>
  </g>
  <g>
   <path d="m9.125 14.625q0.125-0.375 0.5-0.5t0.75 0 0.375 0.375-0.25 0.5-0.375 0.625-0.125 0.875 0.125 0.875 0.375 0.625 0.5 0.5 0.6875 0.4375l0.4375 0.1875 0.125-0.125-0.125 0.125q-0.125 0.125-0.125 0.375v0.25-0.75 1-0.75 0.25q0 0.25 0.125 0.375l0.125 0.125-0.125-0.125-0.0625 0.5625q-0.0625 0.5625-0.0625 1.0625t-0.125 0.875-0.375 0.375-0.5-0.25-0.5-0.5-0.5-0.5-0.5-0.5-0.5-0.5-0.5-0.5-0.375-0.625-0.125-0.875 0-1 0.125-0.875 0.375-0.625 0.375-0.625 0.25-0.75" fill="#ce1126"/>
   <path d="m14.25 14.5q0-0.25 0.375-0.375t0.875-0.125 0.875 0.125 0.375 0.375-0.25 0.5-0.4375 0.6875l-0.1875 0.4375 0.125 0.125-0.125-0.125q-0.125-0.125-0.375-0.125h-0.25 0.75-1 0.75-0.25q-0.25 0-0.375 0.125l-0.125 0.125 0.125-0.125-0.1875-0.4375q-0.1875-0.4375-0.4375-0.6875t-0.25-0.5" fill="#009a00"/>
   <path d="m20.25 14.5q0-0.25 0.375-0.375t0.75 0 0.5 0.5 0.10938 0.89062l-0.01563 0.51562 0.21875 0.03126-0.21875-0.03125q-0.21874-0.03126-0.46874-0.03126h-0.25 0.75-1 0.75-0.25q-0.25 0-0.375 0.125l-0.125 0.125 0.125-0.125-0.1875-0.4375q-0.1875-0.4375-0.4375-0.6875t-0.25-0.5" fill="#009a00"/>
  </g>
  <g fill="#fff">
   <path d="m11.125 15.625q0.125-0.375 0.5-0.5t0.875-0.125 0.875 0.125 0.5 0.5 0.125 0.875-0.125 0.875-0.5 0.5-0.875 0.125-0.875-0.125-0.5-0.5-0.125-0.875 0.125-0.875"/>
   <path d="m17.125 15.625q0.125-0.375 0.5-0.5t0.875-0.125 0.875 0.125 0.5 0.5 0.125 0.875-0.125 0.875-0.5 0.5-0.875 0.125-0.875-0.125-0.5-0.5-0.125-0.875 0.125-0.875"/>
   <path d="m15 16.5q0-0.5 0.5-0.5t0.5 0.5 0.125 0.875 0.375 0.625 0.5 0.5 0.625 0.375 0.875 0.125 0.875-0.125 0.625-0.375 0.5-0.5 0.375-0.625 0.125-0.875 0.5-0.5 0.875 0.125 0.5 0.5 0.125 0.875 0 1-0.125 0.875-0.5 0.5-0.875 0.125-1 0-1 0-1 0-1 0-1 0-1 0-1 0-1 0-1 0-0.5-0.5 0.5-0.5 0.875-0.125 0.625-0.375 0.5-0.5 0.375-0.625 0.125-0.875"/>
  </g>
 </g>
</svg>
