<svg width="17" height="19" version="1.1" viewBox="0 0 17 19" xmlns="http://www.w3.org/2000/svg">
 <g transform="translate(0)">
  <path d="m0 0.5v-0.5h6v0.5q0 0.5-0.125 0.875t0.15625 0.65625l0.28125 0.28125 0.125-0.125-0.125 0.125q-0.125 0.125-0.1875 0.3125l-0.0625 0.1875 0.1875-0.5625-0.25 0.75v1h-0.5q-0.5 0-0.5 0.5v1q0 0.5 0.5 0.5h0.5l-0.125 0.375q-0.125 0.375-0.5 0.5t-0.375 0.625 0 1-0.5 0.5-0.5 0.5-0.125 0.875-0.5 0.5-0.375 0.625-0.125 0.875-0.5 0.5-0.375 0.625-0.125 0.875-0.5 0.5-0.375 0.625-0.125 0.875-0.5 0.5l-0.375 0.125v-16.5" fill-opacity="0"/>
  <g>
   <path d="m6 0.5v-0.5h1l-0.125 0.375q-0.125 0.375 0.14062 0.67188l0.26562 0.29688 0.09375-0.09375-0.09375 0.09375q-0.09375 0.09375-0.15625 0.28125l-0.0625 0.1875 0.1875-0.5625-0.25 0.75 0.1875-0.5625-0.0625 0.1875q-0.0625 0.1875-0.0625 0.375v0.1875-0.1875l-0.8125 0.25 0.5625-0.1875-0.1875 0.0625q-0.1875 0.0625-0.3125 0.1875l-0.125 0.125 0.125-0.125-0.28125-0.28125q-0.28125-0.28125-0.15625-0.65625t0.125-0.875"/>
   <path d="m6.875 0.375 0.125-0.375h1l0.125 0.375q0.125 0.375-0.14062 0.67188l-0.26562 0.29688 0.09375 0.09375-0.09375-0.09375q-0.09375-0.09375-0.21875-0.09375h-0.125 0.375-0.5 0.375-0.125q-0.125 0-0.21875 0.09375l-0.09375 0.09375 0.09375-0.09375-0.26562-0.29688q-0.26562-0.29688-0.14062-0.67188" fill="#0c0c0b"/>
   <path d="m8.125 0.375-0.125-0.375h3v0.5q0 0.5 0.125 0.875t-0.14062 0.67188l-0.26562 0.29688 0.09375 0.09375-0.09375-0.09375q-0.09375-0.09375-0.21875-0.09375h-0.125 0.375-0.25q-0.25 0-0.375 0.375l-0.125 0.375v0.5q0 0.5 0.125 0.875l0.125 0.375-0.1875-0.5625 0.0625 0.1875q0.0625 0.1875 0.15625 0.28125l0.09375 0.09375-0.09375-0.09375-0.26562 0.29688q-0.26562 0.29688-0.015625 0.54688t0.625 0.375l0.375 0.125 0.125 0.375q0.125 0.375 0.5 0.5t0.375 0.625 0 1 0.5 0.5 0.5 0.5 0.125 0.875 0.5 0.5 0.375 0.625 0.125 0.875 0.5 0.5 0.375 0.625 0.125 0.875 0.5 0.5 0.375 0.625 0.125 0.875 0.5 0.5l0.375 0.125v2h-17v-2l0.375-0.125q0.375-0.125 0.5-0.5t0.125-0.875 0.375-0.625 0.5-0.5 0.125-0.875 0.375-0.625 0.5-0.5 0.125-0.875 0.375-0.625 0.5-0.5 0.125-0.875 0.5-0.5 0.5-0.5 0-1 0.375-0.625 0.5-0.5l0.125-0.375 0.75-0.25-0.5625 0.1875 0.1875-0.0625q0.1875-0.0625 0.3125-0.1875l0.125-0.125-0.125 0.125 0.625 0.625 0.125-0.125-0.125 0.125q-0.125 0.125-0.1875 0.3125l-0.0625 0.1875 0.1875-0.5625-0.21875 0.78125 0.21875-0.03125-0.21875 0.03125q-0.21875 0.03125-0.40625 0.09375l-0.1875 0.0625 0.5625-0.1875-0.375 0.125q-0.375 0.125-0.5 0.5t0 0.75 0.5 0.5 0.875 0.125 1 0 1 0 0.875-0.125 0.5-0.5 0-0.75-0.5-0.5l-0.375-0.125 0.5625 0.1875-0.1875-0.0625q-0.1875-0.0625-0.40625-0.09375l-0.21875-0.03125 0.21875 0.03125-0.10938-0.39062q-0.10938-0.39062-0.48438-0.51562t-0.875-0.125h-0.5l0.125-0.375q0.125-0.375-0.15625-0.65625l-0.28125-0.28125-0.125 0.125 0.125-0.125q0.125-0.125 0.1875-0.3125l0.0625-0.1875-0.1875 0.5625 0.125-0.375q0.125-0.375 0.125-0.875v-1.5l-0.25-0.75 0.1875 0.5625-0.0625-0.1875q-0.0625-0.1875-0.15625-0.28125l-0.09375-0.09375 0.09375 0.09375 0.26562-0.29688q0.26562-0.29688 0.14062-0.67188m6.375 17.625q0.5 0 0.875-0.125t0.375-0.375-0.375-0.375l-0.375-0.125 0.5625 0.1875-0.1875-0.0625q-0.1875-0.0625-0.40625-0.09375l-0.21875-0.03125 0.21875 0.03126 0.01563-0.51562q0.01562-0.51564-0.10938-0.89064t-0.5-0.5l-0.375-0.125 0.5625 0.1875-0.1875-0.0625q-0.1875-0.0625-0.40625-0.09375l-0.21875-0.03125 0.21875 0.03126 0.01563-0.51562q0.01562-0.51564-0.10938-0.89064t-0.5-0.5l-0.375-0.125 0.5625 0.1875-0.1875-0.0625q-0.1875-0.0625-0.40625-0.09375l-0.21875-0.03125 0.21875 0.03126 0.01563-0.51562q0.01562-0.51564-0.10938-0.89064t-0.375-0.375-0.35938 0.39062l-0.10938 0.39062 0.21875-0.03125-0.21875 0.03125q-0.21875 0.03125-0.40625 0.09375l-0.1875 0.0625 0.5625-0.1875-0.375 0.125q-0.375 0.125-0.48438 0.51562l-0.10938 0.39062 0.21875-0.03125-0.21875 0.03125q-0.21875 0.03125-0.40625 0.09375l-0.1875 0.0625 0.5625-0.1875-0.375 0.125q-0.375 0.125-0.5 0.5l-0.125 0.375h-0.5q-0.5 0-1 0t-1 0h-0.5l-0.125-0.375q-0.125-0.375-0.5-0.5l-0.375-0.125 0.5625 0.1875-0.1875-0.0625q-0.1875-0.0625-0.40625-0.09375l-0.21875-0.03125 0.21875 0.03125-0.10938-0.39062q-0.10938-0.39062-0.48438-0.51562l-0.375-0.125 0.5625 0.1875-0.1875-0.0625q-0.1875-0.0625-0.40625-0.09375l-0.21875-0.03125 0.21875 0.03125-0.10938-0.39062q-0.10938-0.39062-0.35938-0.39062t-0.375 0.375-0.10938 0.89062l0.015625 0.51562 0.21875-0.03125-0.21875 0.03125q-0.21875 0.03125-0.40625 0.09375l-0.1875 0.0625 0.5625-0.1875-0.375 0.125q-0.375 0.125-0.5 0.5t-0.10938 0.89062l0.015625 0.51562 0.21875-0.03125-0.21875 0.03125q-0.21875 0.03125-0.40625 0.09375l-0.1875 0.0625 0.5625-0.1875-0.375 0.125q-0.375 0.125-0.5 0.5t-0.10938 0.89062l0.015625 0.51562 0.21875-0.03125-0.21875 0.03125q-0.21875 0.03125-0.40625 0.09375l-0.1875 0.0625 0.5625-0.1875-0.375 0.125q-0.375 0.125-0.375 0.375t0.375 0.375 0.875 0.125 1 0 1 0 1 0 1 0 1 0 1 0 1 0 1 0 1 0 1 0 1 0 1 0m-4.875-4h0.625-0.25q-0.25 0-0.5 0h-0.25 0.375m-1.125-1q0.5 0 0.875-0.125t0.625-0.375 0.5-0.5 0.375-0.625 0-0.75-0.5-0.5-0.875-0.125-1 0-1 0-0.875 0.125-0.5 0.5 0 0.75 0.375 0.625 0.5 0.5 0.625 0.375 0.875 0.125m-1.625 1h0.875-0.25q-0.25 0-0.5 0h-0.25 0.125"/>
  </g>
  <path d="m11 0.5v-0.5h6v17l-0.375-0.125q-0.375-0.125-0.5-0.5t-0.125-0.875-0.375-0.625-0.5-0.5-0.125-0.875-0.375-0.625-0.5-0.5-0.125-0.875-0.375-0.625-0.5-0.5-0.125-0.875-0.5-0.5-0.5-0.5 0-1-0.375-0.625-0.5-0.5l-0.125-0.375h0.5q0.5 0 0.5-0.5v-1q0-0.5-0.5-0.5h-0.5v-1l-0.25-0.75 0.1875 0.5625-0.0625-0.1875q-0.0625-0.1875-0.15625-0.28125l-0.09375-0.09375 0.09375 0.09375 0.26562-0.29688q0.26562-0.29688 0.14062-0.67188t-0.125-0.875" fill-opacity="0"/>
  <g>
   <path d="m7.125 1.625q0.125-0.375 0.375-0.375t0.375 0.375l0.125 0.375h-1l0.125-0.375" fill="#4d4d48"/>
   <path d="m6.125 2.625q0.125-0.375 0.5-0.5l0.375-0.125 0.25 0.75-0.1875-0.5625 0.0625 0.1875q0.0625 0.1875 0.1875 0.3125l0.125 0.125-0.125-0.125-0.625 0.625 0.125 0.125-0.125-0.125q-0.125-0.125-0.3125-0.1875l-0.1875-0.0625 0.5625 0.1875-0.75-0.25 0.125-0.375" fill="#818179"/>
   <path d="m7.125 2.375-0.125-0.375h1v1l-0.375-0.125q-0.375-0.125-0.5-0.5" fill="#62625b"/>
   <path d="m10.125 2.625q0.125-0.375 0.375-0.375t0.375 0.375l0.125 0.375h-1l0.125-0.375" fill="#808078"/>
   <path d="m6 3.5v-0.5l0.375 0.125q0.375 0.125 0.5 0.5t0.125 0.84375v0.46875h0.1875-0.1875q-0.1875 0-0.375-0.0625l-0.1875-0.0625 0.5625 0.1875-0.375-0.125q-0.375-0.125-0.5-0.5l-0.125-0.375v-0.5" fill="#9b9b90"/>
   <path d="m6.875 3.625-0.125-0.375 0.1875 0.5625-0.0625-0.1875q-0.0625-0.1875-0.1875-0.3125l-0.125-0.125 0.125 0.125 0.625-0.625-0.125-0.125 0.125 0.125q0.125 0.125 0.3125 0.1875l0.1875 0.0625-0.5625-0.1875 0.75 0.25v0.5q0 0.5-0.125 0.875t-0.5 0.5l-0.375 0.125 0.5625-0.1875-0.1875 0.0625q-0.1875 0.0625-0.375 0.0625h-0.1875 0.1875v-0.46875q0-0.46875-0.125-0.84375" fill="#66665f"/>
   <path d="m10 3.5v-0.5h1v1l-0.125 0.375q-0.125 0.375-0.375 0.375t-0.375-0.375-0.125-0.875" fill="#9a9a90"/>
  </g>
  <g>
   <path d="m5 4.5q0-0.5 0.5-0.5h0.5l0.25 0.75-0.1875-0.5625 0.0625 0.1875q0.0625 0.1875 0.1875 0.3125l0.125 0.125-0.125-0.125-0.625 0.625 0.125 0.125-0.125-0.125q-0.125-0.125-0.3125-0.1875l-0.1875-0.0625 0.5625 0.1875-0.75-0.25v-0.5" fill-opacity=".49412"/>
   <path d="m10.875 4.375 0.125-0.375h0.5q0.5 0 0.5 0.5v0.5l-0.75 0.25 0.5625-0.1875-0.1875 0.0625q-0.1875 0.0625-0.3125 0.1875l-0.125 0.125 0.125-0.125-0.59375-0.65625-0.09375 0.09375 0.09375-0.09375q0.09375-0.09375 0.15625-0.28125l0.0625-0.1875-0.1875 0.5625 0.125-0.375" fill-opacity=".49412"/>
   <path d="M 5,5.5 V 5 l 0.375,0.125 q 0.375,0.125 0.5,0.5 L 6,6 H 5.5 Q 5,6 5,5.5" fill-opacity=".75686"/>
  </g>
  <g>
   <path d="m5.875 5.625-0.125-0.375 0.1875 0.5625-0.0625-0.1875q-0.0625-0.1875-0.1875-0.3125l-0.125-0.125 0.125 0.125 0.625-0.625-0.125-0.125 0.125 0.125q0.125 0.125 0.3125 0.1875l0.1875 0.0625-0.5625-0.1875 0.75 0.25-0.125 0.375q-0.125 0.375-0.5 0.5l-0.375 0.125-0.125-0.375" fill="#191917"/>
   <path d="m6.875 5.375 0.125-0.375 0.75-0.25-0.5625 0.1875 0.1875-0.0625q0.1875-0.0625 0.3125-0.1875l0.125-0.125-0.125 0.125 0.28125 0.28125q0.28125 0.28125 0.15625 0.65625l-0.125 0.375-0.75 0.25 0.5625-0.1875-0.1875 0.0625q-0.1875 0.0625-0.3125 0.1875l-0.125 0.125 0.125-0.125-0.625-0.625-0.125 0.125 0.125-0.125q0.125-0.125 0.1875-0.3125l0.0625-0.1875-0.1875 0.5625 0.125-0.375" fill="#11110f"/>
   <path d="m10 5.5q-0.25-0.25 0.015625-0.54688l0.26562-0.29688-0.09375-0.09375 0.09375 0.09375q0.09375 0.09375 0.21875 0.09375h0.125-0.375 0.5-0.375 0.125q0.125 0 0.21875-0.09375l0.09375-0.09375-0.09375 0.09375 0.59375 0.65625 0.125-0.125-0.125 0.125q-0.125 0.125-0.1875 0.3125l-0.0625 0.1875 0.1875-0.5625-0.25 0.75-0.375-0.125q-0.375-0.125-0.625-0.375" fill="#191917"/>
  </g>
  <path d="m11.125 5.625q0.125-0.375 0.5-0.5l0.375-0.125v0.5q0 0.5-0.5 0.5h-0.5l0.125-0.375" fill-opacity=".76078"/>
  <g>
   <path d="m7.1406 6.6406q0.10938-0.39062 0.48438-0.51562l0.375-0.125h0.5q0.5 0 0.875 0.125t0.48438 0.51562l0.10938 0.39062 0.21875 0.03125-0.21875-0.03125q-0.21875-0.03125-0.46875-0.03125h-0.25 0.75-0.5q-0.5 0-1 0t-1 0h-0.5 0.75-0.25q-0.25 0-0.46875 0.03125l-0.21875 0.03125 0.21875-0.03125 0.10938-0.39062" fill="#007f0e"/>
   <path d="m6.125 7.625q0.125-0.375 0.5-0.5t0.875-0.125 1 0 1 0 0.875 0.125 0.5 0.5l0.125 0.375-0.1875-0.5625 0.0625 0.1875q0.0625 0.1875 0.0625 0.375v0.1875-0.1875h-0.46875q-0.46875 0-0.96875 0t-1 0-1 0-0.96875 0h-0.46875v0.1875-0.1875q0-0.1875 0.0625-0.375l0.0625-0.1875-0.1875 0.5625 0.125-0.375" fill="#007f2a"/>
   <path d="m6.125 8.375-0.125-0.375 0.1875 0.5625-0.0625-0.1875q-0.0625-0.1875-0.0625-0.375v-0.1875 0.1875h0.46875q0.46875 0 0.96875 0t1 0 1 0 0.96875 0h0.46875v-0.1875 0.1875q0 0.1875-0.0625 0.375l-0.0625 0.1875 0.1875-0.5625-0.125 0.375q-0.125 0.375-0.5 0.5t-0.875 0.125-1 0-1 0-0.875-0.125-0.5-0.5" fill="#007f0e"/>
   <path d="m6.125 10.625q0.125-0.375 0.5-0.5t0.875-0.125 1 0 1 0 0.875 0.125 0.5 0.5 0 0.75-0.375 0.625-0.5 0.5-0.625 0.375-0.875 0.125-0.875-0.125-0.625-0.375-0.5-0.5-0.375-0.625 0-0.75" fill="#fff"/>
   <path d="m4.125 11.625q0.125-0.375 0.375-0.375t0.35938 0.39062l0.10938 0.39062 0.21875 0.03125-0.21875-0.03125q-0.21875-0.03125-0.46875-0.03125h-0.25 0.75l-0.96875 0.03125-0.03125 0.21875 0.03125-0.21875q0.03125-0.21875 0.09375-0.40625l0.0625-0.1875-0.1875 0.5625 0.125-0.375" fill="#007f2a"/>
   <path d="m12.141 11.641q0.10938-0.39062 0.35938-0.39062t0.375 0.375l0.125 0.375-0.1875-0.5625 0.0625 0.1875q0.0625 0.1875 0.09375 0.40625l0.03125 0.21875-0.03125-0.21875-0.96875-0.03125h0.75-0.25q-0.25 0-0.46875 0.03125l-0.21875 0.03125 0.21875-0.03126 0.10938-0.39062" fill="#007f2a"/>
   <path d="m4.0156 12.516-0.015625-0.51562v0.75-0.25q0-0.25 0.03125-0.46875l0.03125-0.21875-0.03125 0.21875 0.48438-0.015625q0.48438-0.015625 0.85938 0.10938t0.48438 0.51562l0.10938 0.39062 0.21875 0.03125-0.21875-0.03125q-0.21875-0.03125-0.46875-0.03125h-0.25 0.75-0.5q-0.5 0-1 0h-0.5 0.75-0.25q-0.25 0-0.46875 0.03125l-0.21875 0.03125 0.21875-0.03125-0.015625-0.51562" fill="#007f0e"/>
   <path d="m11.141 12.641q0.10938-0.39062 0.48438-0.51562t0.85938-0.10938l0.48438 0.01563-0.03126-0.21875 0.03125 0.21875q0.03126 0.21874 0.03126 0.46874v0.25-0.75l-0.03126 1.0312 0.21875 0.03126-0.21875-0.03125q-0.21874-0.03126-0.46874-0.03126h-0.25 0.75-0.5q-0.5 0-1 0h-0.5 0.75-0.25q-0.25 0-0.46875 0.03125l-0.21875 0.03125 0.21875-0.03126 0.10938-0.39062" fill="#007f0e"/>
   <path d="m3.125 13.625q0.125-0.375 0.5-0.5t0.875-0.125 1 0 0.875 0.125 0.5 0.5l0.125 0.375h-0.5q-0.5 0-1 0t-1 0-0.98438 0.015625l-0.48438 0.015625-0.03125 0.21875 0.03125-0.21875q0.03125-0.21875 0.09375-0.40625l0.0625-0.1875-0.1875 0.5625 0.125-0.375m3.5 0.375h0.625-0.25q-0.25 0-0.5 0h-0.25 0.375" fill="#007f2a"/>
   <path d="m10.125 13.625q0.125-0.375 0.5-0.5t0.875-0.125 1 0 0.875 0.125 0.5 0.5l0.125 0.375-0.1875-0.5625 0.0625 0.1875q0.0625 0.1875 0.09375 0.40625l0.03125 0.21875-0.03125-0.21875-0.48438-0.015625q-0.48438-0.015625-0.98438-0.015625t-1 0-1 0h-0.5l0.125-0.375m-0.25 0.375h0.875-0.25q-0.25 0-0.5 0h-0.25 0.125" fill="#007f2a"/>
   <path d="m3.0156 14.516-0.015625-0.51562v0.75-0.25q0-0.25 0.03125-0.46875l0.03125-0.21875-0.03125 0.21875 0.48438-0.015625q0.48438-0.015625 0.98438-0.015625t1 0 1 0 1 0 1 0 1 0 1 0 1 0 1 0 0.98438 0.01563l0.48438 0.01563-0.03126-0.21875 0.03125 0.21875q0.03126 0.21874 0.03126 0.46874v0.25-0.75l-0.03126 1.0312 0.21875 0.03126-0.21875-0.03125q-0.21874-0.03126-0.46874-0.03126h-0.25 0.75-0.5q-0.5 0-1 0t-1 0-1 0-1 0-1 0-1 0-1 0-1 0-1 0-1 0h-0.5 0.75-0.25q-0.25 0-0.46875 0.03125l-0.21875 0.03125 0.21875-0.03125-0.015625-0.51562" fill="#007f0e"/>
   <path d="m2.125 15.625q0.125-0.375 0.5-0.5t0.875-0.125 1 0 1 0 1 0 1 0 1 0 1 0 1 0 1 0 1 0 1 0 0.875 0.125 0.5 0.5l0.125 0.375-0.1875-0.5625 0.0625 0.1875q0.0625 0.1875 0.09375 0.40625l0.03125 0.21875-0.03125-0.21875-0.48438-0.015625q-0.48438-0.015625-0.98438-0.015625t-1 0-1 0-1 0-1 0-1 0-1 0-1 0-1 0-1 0-1 0-0.98438 0.01563l-0.48438 0.01562-0.03125 0.21875 0.03125-0.21875q0.03125-0.21875 0.09375-0.40625l0.0625-0.1875-0.1875 0.5625 0.125-0.375" fill="#007f2a"/>
   <path d="m2.0156 16.516-0.015625-0.51562v0.75-0.25q0-0.25 0.03125-0.46875l0.03125-0.21875-0.03125 0.21875 0.48438-0.015625q0.48438-0.015625 0.98438-0.015625t1 0 1 0 1 0 1 0 1 0 1 0 1 0 1 0 1 0 1 0 0.98438 0.01563l0.48438 0.01563-0.03126-0.21875 0.03125 0.21875q0.03126 0.21874 0.03126 0.46874v0.25-0.75l-0.03126 1.0312 0.21875 0.03126-0.21875-0.03125q-0.21874-0.03126-0.46874-0.03126h-0.25 0.75-0.5q-0.5 0-1 0t-1 0-1 0-1 0-1 0-1 0-1 0-1 0-1 0-1 0-1 0-1 0h-0.5 0.75-0.25q-0.25 0-0.46875 0.03125l-0.21875 0.03125 0.21875-0.03125-0.015625-0.51562" fill="#007f0e"/>
   <path d="m1.25 17.5q0-0.25 0.375-0.375t0.875-0.125 1 0 1 0 1 0 1 0 1 0 1 0 1 0 1 0 1 0 1 0 1 0 1 0 0.875 0.125 0.375 0.375-0.375 0.375-0.875 0.125-1 0-1 0-1 0-1 0-1 0-1 0-1 0-1 0-1 0-1 0-1 0-1 0-0.875-0.125-0.375-0.375" fill="#007f2a"/>
  </g>
 </g>
</svg>
