<svg width="17" height="25" version="1.1" viewBox="0 0 17 25" xmlns="http://www.w3.org/2000/svg">
 <g transform="translate(0)">
  <path d="m0 0.5v-0.5h13l-0.125 0.375q-0.125 0.375-0.5 0.5t-0.375 0.625-0.5 0.5-1 0-0.625 0.375-0.5 0.5-0.875 0.125-0.625 0.375-0.5 0.5-0.875 0.125-0.625 0.375-0.5 0.5-0.5 0.5-0.5 0.5-0.5 0.5-0.5 0.5-0.5 0.5-0.5 0.5-0.5 0.5-0.5 0.5-0.375 0.625 0 1 0 1-0.5 0.5h-0.5v-11.5" fill-opacity="0"/>
  <path d="m12.875 0.375 0.125-0.375h3l0.125 0.375q0.125 0.375 0.5 0.5l0.375 0.125v3l-0.375 0.125q-0.375 0.125-0.5 0.5t-0.625 0.375-1 0-0.875 0.125-0.5 0.5 0 0.75 0.5 0.5 0.5 0.5 0.5 0.5 0.5 0.5 0.5 0.5 0.375 0.625 0 1 0 1 0.5 0.5h0.5v3h-0.5q-0.5 0-0.375 0.375t0.5 0.5l0.375 0.125v4l-0.375 0.125q-0.375 0.125-0.5 0.5t-0.125 0.875-0.5 0.5-0.5 0.5-0.5 0.5-0.875 0.125-0.5 0.5-0.625 0.375-0.5 0.5v0.5h-7v-0.5q0-0.5-0.5-0.5t-0.625-0.375-0.5-0.5-0.875-0.125-0.5-0.5-0.5-0.5-0.5-0.5-0.125-0.875-0.5-0.5l-0.375-0.125v-4l0.375-0.125q0.375-0.125 0.5-0.5t-0.375-0.375h-0.5v-3h0.5q0.5 0 0.5-0.5t0-1 0-1 0.375-0.625 0.5-0.5 0.5-0.5 0.5-0.5 0.5-0.5 0.5-0.5 0.5-0.5 0.5-0.5 0.5-0.5 0.5-0.5 0.625-0.375 0.875-0.125 0.5-0.5 0.625-0.375 0.875-0.125 0.5-0.5 0.625-0.375 1 0 0.5-0.5 0.375-0.625 0.5-0.5m-11.625 13.125q0 0.25 0.25 0.25t0.25-0.25-0.25-0.25-0.25 0.25m8.25 10.5q0.5 0 0.875-0.125t0.625-0.375 0.625-0.375 0.75-0.25 0.625-0.375 0.5-0.5 0.5-0.5 0.5-0.5 0.5-0.5 0.5-0.5 0.375-0.625 0.125-0.875 0-1-0.125-0.875-0.375-0.625-0.375-0.625-0.25-0.75-0.5-0.5-0.75 0-0.375 0.375 0.25 0.5 0.375 0.625 0.125 0.875-0.125 0.875-0.375 0.625-0.5 0.5-0.625 0.375-0.875 0.125-0.875-0.125-0.625-0.375-0.5-0.5-0.375-0.625-0.125-0.875 0.125-0.875 0.375-0.625 0.25-0.5-0.375-0.375-0.875-0.125-1 0-1 0-1.0469 0.046875l-0.54688 0.046875 0.15625 0.09375-0.15625-0.09375q-0.15625-0.09375-0.40625-0.09375h-0.25 0.75-1 0.75-0.25q-0.25 0-0.375 0.125l-0.125 0.125 0.125-0.125-0.5625-0.0625q-0.5625-0.0625-0.9375 0.0625t-0.5 0.5-0.25 0.75-0.375 0.625-0.375 0.625-0.125 0.875 0 1 0.125 0.875 0.375 0.625 0.5 0.5 0.5 0.5 0.5 0.5 0.5 0.5 0.5 0.5 0.625 0.375 0.75 0.25 0.625 0.375 0.625 0.375 0.875 0.125 1 0 1 0m5.75-10.5q0 0.25 0.25 0.25t0.25-0.25-0.25-0.25-0.25 0.25m-1.75-0.5q0.5 0 0.875-0.125t0.5-0.5 0-0.75-0.5-0.5-0.75-0.25-0.625-0.375-0.625-0.375-0.875-0.125-1 0-1 0-1 0-1 0-1 0-1 0-0.875 0.125-0.625 0.375-0.625 0.375-0.75 0.25-0.5 0.5 0 0.75 0.5 0.5 0.875 0.125 1 0 1 0 1 0 1 0 1 0 1 0 1 0 1 0 1 0 1 0m0.125-3.125q0.375 0.125 0.75 0t0.375-0.375-0.25-0.5-0.5-0.5-0.5-0.5-0.5-0.5-0.5-0.5-0.375-0.625 0-0.75 0.375-0.625 0.25-0.5-0.25-0.5-0.5-0.5-0.625-0.375-0.75 0-0.625 0.375-0.625 0.375-0.75 0.25-0.625 0.375-0.625 0.375-0.75 0.25-0.625 0.375-0.5 0.5-0.5 0.5-0.5 0.5-0.5 0.5-0.5 0.5-0.5 0.5-0.5 0.5-0.25 0.5 0.375 0.375 0.75 0 0.625-0.375 0.625-0.375 0.875-0.125 1 0 1 0 1 0 1 0 1 0 1 0 0.875 0.125 0.625 0.375 0.625 0.375m-2.125 8.125q0.5 0 0.875-0.125t0.5-0.5 0.125-0.875-0.125-0.875-0.5-0.5-0.875-0.125-0.875 0.125-0.5 0.5-0.125 0.875 0.125 0.875 0.5 0.5 0.875 0.125m3-14q0.5 0 0.875-0.125t0.5-0.5 0.125-0.875-0.125-0.875-0.5-0.5-0.875-0.125-0.875 0.125-0.5 0.5-0.125 0.875 0.125 0.875 0.5 0.5 0.875 0.125"/>
  <path d="m16.125 0.375-0.125-0.375h1v1l-0.375-0.125q-0.375-0.125-0.5-0.5" fill-opacity="0"/>
  <path d="m13.125 1.625q0.125-0.375 0.5-0.5t0.875-0.125 0.875 0.125 0.5 0.5 0.125 0.875-0.125 0.875-0.5 0.5-0.875 0.125-0.875-0.125-0.5-0.5-0.125-0.875 0.125-0.875" fill="#fff"/>
  <path d="m10 3.5q0.25-0.25 0.625-0.375t0.75 0 0.625 0.375 0.5 0.5 0.25 0.5-0.25 0.5-0.375 0.625 0 0.75 0.375 0.625 0.5 0.5 0.5 0.5 0.5 0.5 0.5 0.5 0.25 0.5-0.375 0.375-0.75 0-0.625-0.375-0.625-0.375-0.875-0.125-1 0-1 0-1 0-1 0-1 0-1 0-0.875 0.125-0.625 0.375-0.625 0.375-0.75 0-0.375-0.375 0.25-0.5 0.5-0.5 0.5-0.5 0.5-0.5 0.5-0.5 0.5-0.5 0.5-0.5 0.5-0.5 0.625-0.375 0.75-0.25 0.625-0.375 0.625-0.375 0.75-0.25 0.625-0.375" fill="#dc143c"/>
  <path d="m16.125 4.625q0.125-0.375 0.5-0.5l0.375-0.125v8h-0.5q-0.5 0-0.5-0.5t0-1 0-1-0.375-0.625-0.5-0.5-0.5-0.5-0.5-0.5-0.5-0.5-0.5-0.5 0-0.75 0.5-0.5 0.875-0.125 1 0 0.625-0.375" fill-opacity="0"/>
  <g fill="#fff">
   <path d="m4 10.5q0.25-0.25 0.625-0.375t0.875-0.125 1 0 1 0 1 0 1 0 1 0 1 0 0.875 0.125 0.625 0.375 0.625 0.375 0.75 0.25 0.5 0.5 0 0.75-0.5 0.5-0.875 0.125-1 0-1 0-1 0-1 0-1 0-1 0-1 0-1 0-1 0-1 0-0.875-0.125-0.5-0.5 0-0.75 0.5-0.5 0.75-0.25 0.625-0.375"/>
   <path d="m1.25 13.5q0-0.25 0.25-0.25t0.25 0.25-0.25 0.25-0.25-0.25"/>
   <path d="m15.25 13.5q0-0.25 0.25-0.25t0.25 0.25-0.25 0.25-0.25-0.25"/>
  </g>
  <path d="m2.125 14.625q0.125-0.375 0.5-0.5t0.9375-0.0625l0.5625 0.0625 0.125-0.125-0.125 0.125q-0.125 0.125-0.125 0.375v0.25-0.75 0.5q0 0.5 0.125 0.875t0.5 0.5 0.75 0 0.375-0.375-0.25-0.5-0.375-0.625l-0.125-0.375 0.1875 0.5625-0.0625-0.1875q-0.0625-0.1875-0.21875-0.28125l-0.15625-0.09375 0.15625 0.09374 0.54688-0.04687q0.54688-0.04687 1.0469-0.04687t1 0 1 0 0.875 0.125 0.375 0.375-0.25 0.5-0.375 0.625-0.125 0.875 0.125 0.875 0.375 0.625 0.5 0.5 0.625 0.375 0.875 0.125 0.875-0.125 0.625-0.375 0.5-0.5 0.375-0.625 0.125-0.875-0.125-0.875-0.375-0.625-0.25-0.5 0.375-0.375 0.75 0 0.5 0.5 0.25 0.75 0.375 0.625 0.375 0.625 0.125 0.875 0 1-0.125 0.875-0.375 0.625-0.5 0.5-0.5 0.5-0.5 0.5-0.5 0.5-0.5 0.5-0.625 0.375-0.75 0.25-0.625 0.375-0.625 0.375-0.875 0.125-1 0-1 0-0.875-0.125-0.625-0.375-0.625-0.375-0.75-0.25-0.625-0.375-0.5-0.5-0.5-0.5-0.5-0.5-0.5-0.5-0.5-0.5-0.375-0.625-0.125-0.875 0-1 0.125-0.875 0.375-0.625 0.375-0.625 0.25-0.75m0.875 3.875q0.25 0.25 0.5 0.25t0.375-0.375 0-0.75-0.5-0.5-0.75 0-0.375 0.375 0.25 0.5 0.5 0.5m2.125-0.125q0.125 0.375 0.375 0.375t0.5-0.25 0.5-0.5 0.25-0.5-0.375-0.375-0.75 0-0.5 0.5 0 0.75" fill="#0000b2"/>
  <path d="m4 14.5q0-0.5 0.5-0.5t0.625 0.375 0.375 0.625 0.25 0.5-0.375 0.375-0.75 0-0.5-0.5-0.125-0.875" fill="#fff"/>
  <path d="m0 15.5v-0.5h0.5q0.5 0 0.375 0.375t-0.5 0.5l-0.375 0.125v-0.5" fill-opacity="0"/>
  <path d="m10.125 15.625q0.125-0.375 0.5-0.5t0.875-0.125 0.875 0.125 0.5 0.5 0.125 0.875-0.125 0.875-0.5 0.5-0.875 0.125-0.875-0.125-0.5-0.5-0.125-0.875 0.125-0.875" fill="#fff"/>
  <path d="m16.125 15.375q-0.125-0.375 0.375-0.375h0.5v1l-0.375-0.125q-0.375-0.125-0.5-0.5" fill-opacity="0"/>
  <path d="m2.25 17.5q0-0.25 0.375-0.375t0.75 0 0.5 0.5 0 0.75-0.375 0.375-0.5-0.25-0.5-0.5-0.25-0.5" fill="#fff"/>
  <path d="m5.125 17.625q0.125-0.375 0.5-0.5t0.75 0 0.375 0.375-0.25 0.5-0.5 0.5-0.5 0.25-0.375-0.375 0-0.75" fill="#fff"/>
  <path d="m0 20.5v-0.5l0.375 0.125q0.375 0.125 0.5 0.5t0.125 0.875 0.5 0.5 0.5 0.5 0.5 0.5 0.875 0.125 0.5 0.5 0.625 0.375 0.5 0.5v0.5h-5v-4.5" fill-opacity="0"/>
  <path d="m16.125 20.625q0.125-0.375 0.5-0.5l0.375-0.125v5h-5v-0.5q0-0.5 0.5-0.5t0.625-0.375 0.5-0.5 0.875-0.125 0.5-0.5 0.5-0.5 0.5-0.5 0.125-0.875" fill-opacity="0"/>
 </g>
</svg>
