<svg width="17" height="25" version="1.1" viewBox="0 0 17 25" xmlns="http://www.w3.org/2000/svg">
 <g transform="translate(0)">
  <path d="m0 0.5v-0.5h13l-0.125 0.375q-0.125 0.375-0.5 0.5t-0.375 0.625-0.5 0.5-1 0-0.625 0.375-0.5 0.5-0.875 0.125-0.625 0.375-0.5 0.5-0.875 0.125-0.625 0.375-0.5 0.5-0.5 0.5-0.5 0.5-0.5 0.5-0.5 0.5-0.5 0.5-0.5 0.5-0.5 0.5-0.5 0.5-0.375 0.625 0 1 0 1-0.5 0.5h-0.5v-11.5" fill-opacity="0"/>
  <path d="m12.875 0.375 0.125-0.375h3l0.125 0.375q0.125 0.375 0.5 0.5l0.375 0.125v3l-0.375 0.125q-0.375 0.125-0.5 0.5t-0.625 0.375-1 0-0.875 0.125-0.5 0.5 0 0.75 0.5 0.5 0.5 0.5 0.5 0.5 0.5 0.5 0.5 0.5 0.375 0.625 0 1 0 1 0.5 0.5h0.5v3h-0.5q-0.5 0-0.375 0.375t0.5 0.5l0.375 0.125v4l-0.375 0.125q-0.375 0.125-0.5 0.5t-0.125 0.875-0.5 0.5-0.5 0.5-0.5 0.5-0.875 0.125-0.5 0.5-0.625 0.375-0.5 0.5v0.5h-7v-0.5q0-0.5-0.5-0.5t-0.625-0.375-0.5-0.5-0.875-0.125-0.5-0.5-0.5-0.5-0.5-0.5-0.125-0.875-0.5-0.5l-0.375-0.125v-4l0.375-0.125q0.375-0.125 0.5-0.5t-0.375-0.375h-0.5v-3h0.5q0.5 0 0.5-0.5t0-1 0-1 0.375-0.625 0.5-0.5 0.5-0.5 0.5-0.5 0.5-0.5 0.5-0.5 0.5-0.5 0.5-0.5 0.5-0.5 0.5-0.5 0.625-0.375 0.875-0.125 0.5-0.5 0.625-0.375 0.875-0.125 0.5-0.5 0.625-0.375 1 0 0.5-0.5 0.375-0.625 0.5-0.5m-3.375 23.625q0.5 0 0.875-0.125t0.625-0.375 0.625-0.375 0.75-0.25 0.625-0.375 0.5-0.5 0.5-0.5 0.5-0.5 0.5-0.5 0.5-0.5 0.375-0.625 0.125-0.875 0-1-0.125-0.875-0.375-0.625-0.375-0.625 0-0.75 0.375-0.625 0.25-0.5-0.25-0.5-0.375-0.625-0.25-0.75-0.5-0.5-0.75-0.25-0.625-0.375-0.625-0.375-0.875-0.125-1 0-1 0-1 0-1 0-1 0-1 0-0.875 0.125-0.625 0.375-0.625 0.375-0.75 0.25-0.5 0.5-0.25 0.75-0.375 0.625-0.25 0.5 0.25 0.5 0.375 0.625 0 0.75-0.375 0.625-0.375 0.625-0.125 0.875 0 1 0.125 0.875 0.375 0.625 0.5 0.5 0.5 0.5 0.5 0.5 0.5 0.5 0.5 0.5 0.625 0.375 0.75 0.25 0.625 0.375 0.625 0.375 0.875 0.125 1 0 1 0m4.125-14.125q0.375 0.125 0.75 0t0.375-0.375-0.25-0.5-0.5-0.5-0.5-0.5-0.5-0.5-0.5-0.5-0.375-0.625 0-0.75 0.375-0.625 0.25-0.5-0.25-0.5-0.5-0.5-0.625-0.375-0.75 0-0.625 0.375-0.625 0.375-0.75 0.25-0.625 0.375-0.625 0.375-0.75 0.25-0.625 0.375-0.5 0.5-0.5 0.5-0.5 0.5-0.5 0.5-0.5 0.5-0.5 0.5-0.5 0.5-0.25 0.5 0.375 0.375 0.75 0 0.625-0.375 0.625-0.375 0.875-0.125 1 0 1 0 1 0 1 0 1 0 1 0 0.875 0.125 0.625 0.375 0.625 0.375m0.875-5.875q0.5 0 0.875-0.125t0.5-0.5 0.125-0.875-0.125-0.875-0.5-0.5-0.875-0.125-0.875 0.125-0.5 0.5-0.125 0.875 0.125 0.875 0.5 0.5 0.875 0.125"/>
  <path d="m16.125 0.375-0.125-0.375h1v1l-0.375-0.125q-0.375-0.125-0.5-0.5" fill-opacity="0"/>
  <path d="m13.125 1.625q0.125-0.375 0.5-0.5t0.875-0.125 0.875 0.125 0.5 0.5 0.125 0.875-0.125 0.875-0.5 0.5-0.875 0.125-0.875-0.125-0.5-0.5-0.125-0.875 0.125-0.875" fill="#fff"/>
  <path d="m10 3.5q0.25-0.25 0.625-0.375t0.75 0 0.625 0.375 0.5 0.5 0.25 0.5-0.25 0.5-0.375 0.625 0 0.75 0.375 0.625 0.5 0.5 0.5 0.5 0.5 0.5 0.5 0.5 0.25 0.5-0.375 0.375-0.75 0-0.625-0.375-0.625-0.375-0.875-0.125-1 0-1 0-1 0-1 0-1 0-1 0-0.875 0.125-0.625 0.375-0.625 0.375-0.75 0-0.375-0.375 0.25-0.5 0.5-0.5 0.5-0.5 0.5-0.5 0.5-0.5 0.5-0.5 0.5-0.5 0.5-0.5 0.625-0.375 0.75-0.25 0.625-0.375 0.625-0.375 0.75-0.25 0.625-0.375" fill="#66023c"/>
  <path d="m16.125 4.625q0.125-0.375 0.5-0.5l0.375-0.125v8h-0.5q-0.5 0-0.5-0.5t0-1 0-1-0.375-0.625-0.5-0.5-0.5-0.5-0.5-0.5-0.5-0.5-0.5-0.5 0-0.75 0.5-0.5 0.875-0.125 1 0 0.625-0.375" fill-opacity="0"/>
  <g>
   <path d="m4 10.5q0.25-0.25 0.625-0.375t0.875-0.125 1 0 1 0 1 0 1 0 1 0 1 0 0.875 0.125 0.625 0.375 0.625 0.375 0.75 0.25 0.5 0.5 0.25 0.75 0.375 0.625 0.25 0.5-0.25 0.5-0.375 0.625 0 0.75 0.375 0.625 0.375 0.625 0.125 0.875 0 1-0.125 0.875-0.375 0.625-0.5 0.5-0.5 0.5-0.5 0.5-0.5 0.5-0.5 0.5-0.625 0.375-0.75 0.25-0.625 0.375-0.625 0.375-0.875 0.125-1 0-1 0-0.875-0.125-0.625-0.375-0.625-0.375-0.75-0.25-0.625-0.375-0.5-0.5-0.5-0.5-0.5-0.5-0.5-0.5-0.5-0.5-0.375-0.625-0.125-0.875 0-1 0.125-0.875 0.375-0.625 0.375-0.625 0-0.75-0.375-0.625-0.25-0.5 0.25-0.5 0.375-0.625 0.25-0.75 0.5-0.5 0.75-0.25 0.625-0.375m1.25 11q0 0.25 0.25 0.25t0.25-0.25-0.25-0.25-0.25 0.25m4.6875 1.3125-0.0625 0.0625 0.4375-0.0625q0.4375-0.0625 0.4375-0.3125t-0.4375-0.3125l-0.4375-0.0625 0.125 0.125-0.125-0.125q-0.125-0.125-0.375-0.125h-0.25 0.75-1 0.75-0.25q-0.25 0-0.375 0.125l-0.125 0.125 0.125-0.125h-1.25l0.125 0.125-0.125-0.125q-0.125-0.125-0.375-0.125h-0.25 0.75-1 0.75-0.25q-0.25 0-0.375 0.125l-0.125 0.125 0.125-0.125-0.4375 0.0625q-0.4375 0.0625-0.4375 0.3125t0.4375 0.3125l0.4375 0.0625-0.125-0.125 0.125 0.125q0.125 0.125 0.375 0.125h0.25-0.75 1-0.75 0.25q0.25 0 0.375-0.125l0.125-0.125-0.125 0.125h1.25l-0.125-0.125 0.125 0.125q0.125 0.125 0.375 0.125h0.25-0.75 1-0.75 0.25q0.25 0 0.375-0.125l0.125-0.125-0.0625 0.0625m1.3125-1.3125q0 0.25 0.25 0.25t0.25-0.25-0.25-0.25-0.25 0.25m-4.75-1.5q0.5 0 0.875-0.125t0.625-0.375 0.625-0.375 0.875-0.125 1 0 1 0 0.875-0.125 0.625-0.375 0.5-0.5 0.375-0.625 0.125-0.875 0-1 0-1v-0.5l0.375-0.125q0.375-0.125 0.375-0.375t-0.375-0.375-0.875-0.125-1 0-1 0-1 0-1 0-1 0-1 0-1 0-1 0-1 0-1 0-0.875 0.125-0.375 0.375 0.375 0.375 0.75 0.25 0.375 0.375-0.25 0.5-0.375 0.625-0.125 0.875 0 1 0.125 0.875 0.375 0.625 0.5 0.5 0.625 0.375 0.875 0.125 1 0m7.7812-6.0938-0.46875 0.15625 0.1875-0.0625q0.1875-0.0625 0.375-0.125l0.1875-0.0625-0.28125 0.09375" fill="#fff"/>
   <path d="m2.25 13.5q0-0.25 0.375-0.375t0.875-0.125 1 0 1 0 1 0 1 0 1 0 1 0 1 0 1 0 1 0 1 0 0.875 0.125 0.375 0.375-0.375 0.375-0.75 0.25-0.375 0.375 0.375 0.375l0.375 0.125v0.5q0 0.5 0 1t-0.125 0.875-0.375 0.625-0.5 0.5-0.625 0.375-0.875 0.125-1 0h-0.5l-0.125-0.375q-0.125-0.375-0.375-0.625t-0.375-0.625-0.125-0.875 0.125-0.875 0.375-0.625 0.25-0.5-0.375-0.375-0.875-0.125-0.875 0.125-0.375 0.375 0.25 0.5 0.375 0.625 0.125 0.875-0.125 0.875-0.375 0.625-0.5 0.5-0.625 0.375-0.875 0.125-0.875-0.125-0.625-0.375-0.60938-0.39062l-0.35938-0.14062 0.03125 0.21875-0.03125-0.21875q-0.03125-0.21875-0.03125-0.46875v-0.25 0.75-0.5q0-0.5 0-1t0.125-0.875 0.375-0.625 0.25-0.5-0.375-0.375-0.75-0.25-0.375-0.375m3.25 4.5q0.5 0 0.875-0.125t0.5-0.5 0.125-0.875-0.125-0.875-0.5-0.5-0.875-0.125-0.875 0.125-0.5 0.5-0.125 0.875 0.125 0.875 0.5 0.5 0.875 0.125m4.375 1h0.875-0.25q-0.25 0-0.5 0h-0.25 0.125m1.625-1q0.5 0 0.875-0.125t0.5-0.5 0.125-0.875-0.125-0.875-0.5-0.5-0.875-0.125-0.875 0.125-0.5 0.5-0.125 0.875 0.125 0.875 0.5 0.5 0.875 0.125m2.5-2.625v-0.625 0.25q0 0.25 0 0.5v0.25-0.375"/>
   <path d="m7.25 14.5q0-0.25 0.375-0.375t0.875-0.125 0.875 0.125 0.375 0.375-0.25 0.5-0.375 0.625l-0.125 0.375 0.1875-0.5625-0.0625 0.1875q-0.0625 0.1875-0.09375 0.40625l-0.03125 0.21875 0.03125-0.21875h-1.0625l0.03125 0.21875-0.03125-0.21875q-0.03125-0.21875-0.09375-0.40625l-0.0625-0.1875 0.1875 0.5625-0.125-0.375q-0.125-0.375-0.375-0.625t-0.25-0.5" fill="#fff"/>
   <path d="m13.25 14.5q0-0.25 0.375-0.375l0.375-0.125v1l-0.375-0.125q-0.375-0.125-0.375-0.375m0.75 0.625v-0.875 0.25q0 0.25 0 0.5v0.25-0.125m0.09375-1.1562-0.65625 0.21875 0.1875-0.0625q0.1875-0.0625 0.375-0.125l0.1875-0.0625-0.09375 0.03125" fill="#ed8000"/>
  </g>
  <path d="m0 15.5v-0.5h0.5q0.5 0 0.375 0.375t-0.5 0.5l-0.375 0.125v-0.5" fill-opacity="0"/>
  <path d="m4.125 15.625q0.125-0.375 0.5-0.5t0.875-0.125 0.875 0.125 0.5 0.5 0.125 0.875-0.125 0.875-0.5 0.5-0.875 0.125-0.875-0.125-0.5-0.5-0.125-0.875 0.125-0.875" fill="#fff"/>
  <path d="m10.125 15.625q0.125-0.375 0.5-0.5t0.875-0.125 0.875 0.125 0.5 0.5 0.125 0.875-0.125 0.875-0.5 0.5-0.875 0.125-0.875-0.125-0.5-0.5-0.125-0.875 0.125-0.875" fill="#fff"/>
  <path d="m16.125 15.375q-0.125-0.375 0.375-0.375h0.5v1l-0.375-0.125q-0.375-0.125-0.5-0.5" fill-opacity="0"/>
  <path d="m8 16.5v-0.5 0.75-0.25q0-0.25-0.03125-0.46875l-0.03125-0.21875 0.03125 0.21875h1.0625l0.03125-0.21875-0.03125 0.21875q-0.03125 0.21875-0.03125 0.46875v0.25-0.75 0.5q0 0.5 0.125 0.875t0.375 0.625 0.375 0.625l0.125 0.375h-0.5q-0.5 0-0.875 0.125t-0.625 0.375-0.625 0.375-0.875 0.125-1 0-0.875-0.125-0.625-0.375-0.5-0.5-0.375-0.625l-0.125-0.375 0.1875 0.5625-0.0625-0.1875q-0.0625-0.1875-0.09375-0.40625l-0.03125-0.21875 0.03125 0.21875 0.35938 0.14062q0.35938 0.14062 0.60938 0.39062t0.625 0.375 0.875 0.125 0.875-0.125 0.625-0.375 0.5-0.5 0.375-0.625 0.125-0.875m1.625 2.5h0.625-0.25q-0.25 0-0.5 0h-0.25 0.375" fill="#ed8000"/>
  <path d="m0 20.5v-0.5l0.375 0.125q0.375 0.125 0.5 0.5t0.125 0.875 0.5 0.5 0.5 0.5 0.5 0.5 0.875 0.125 0.5 0.5 0.625 0.375 0.5 0.5v0.5h-5v-4.5" fill-opacity="0"/>
  <path d="m16.125 20.625q0.125-0.375 0.5-0.5l0.375-0.125v5h-5v-0.5q0-0.5 0.5-0.5t0.625-0.375 0.5-0.5 0.875-0.125 0.5-0.5 0.5-0.5 0.5-0.5 0.125-0.875" fill-opacity="0"/>
  <g>
   <path d="m5.25 21.5q0-0.25 0.25-0.25t0.25 0.25-0.25 0.25-0.25-0.25" fill="#006651"/>
   <path d="m11.25 21.5q0-0.25 0.25-0.25t0.25 0.25-0.25 0.25-0.25-0.25" fill="#006651"/>
   <path d="m6.25 22.5q0-0.25 0.4375-0.3125l0.4375-0.0625 0.125-0.125-0.125 0.125q-0.125 0.125-0.125 0.375v0.25-0.75 1-0.75 0.25q0 0.25 0.125 0.375l0.125 0.125-0.125-0.125-0.4375-0.0625q-0.4375-0.0625-0.4375-0.3125" fill="#a8cbc4"/>
   <path d="m7 22.5q0-0.5 0.5-0.5t0.5 0.5-0.5 0.5-0.5-0.5" fill="#006651"/>
   <path d="m8 22.5v-0.5 0.75-0.25q0-0.25-0.125-0.375l-0.125-0.125 0.125 0.125h1.25l0.125-0.125-0.125 0.125q-0.125 0.125-0.125 0.375v0.25-0.75 1-0.75 0.25q0 0.25 0.125 0.375l0.125 0.125-0.125-0.125h-1.25l-0.125 0.125 0.125-0.125q0.125-0.125 0.125-0.375v-0.25 0.75-0.5" fill="#a8cbc4"/>
   <path d="m9 22.5q0-0.5 0.5-0.5t0.5 0.5-0.5 0.5-0.5-0.5" fill="#006651"/>
   <path d="m10 22.5v-0.5 0.75-0.25q0-0.25-0.125-0.375l-0.125-0.125 0.125 0.125 0.4375 0.0625q0.4375 0.0625 0.4375 0.3125t-0.4375 0.3125l-0.4375 0.0625-0.125 0.125 0.125-0.125q0.125-0.125 0.125-0.375v-0.25 0.75-0.5" fill="#a8cbc4"/>
  </g>
 </g>
</svg>
