<svg width="26" height="18" version="1.1" viewBox="0 0 26 18" xmlns="http://www.w3.org/2000/svg">
 <g transform="translate(0)">
  <path d="m0 0.5v-0.5h8l-0.125 0.375q-0.125 0.375-0.5 0.5t-0.375 0.625 0 1-0.125 0.875-0.5 0.5-0.375 0.625-0.125 0.875-0.5 0.5-0.375 0.625-0.125 0.875-0.5 0.5-0.375 0.625-0.125 0.875-0.5 0.5-0.375 0.625-0.125 0.875-0.5 0.5-0.375 0.625-0.125 0.875-0.5 0.5-0.375 0.625-0.125 0.875-0.5 0.5l-0.375 0.125v-15.5" fill-opacity="0"/>
  <path d="m7.875 0.375 0.125-0.375h8l0.125 0.375q0.125 0.375 0.5 0.5t0.875 0.125 0.625 0.375 0.5 0.5 0.875 0.125 0.625 0.375 0.5 0.5 0.5 0.5 0.5 0.5 0.5 0.5 0.5 0.5 0.375 0.625 0.125 0.875 0.5 0.5 0.375 0.625 0 1 0.5 0.5 0.625 0.375 0.5 0.5l0.375 0.125v3l-0.375 0.125q-0.375 0.125-0.5 0.5t-0.625 0.375-1 0-1 0-0.625-0.375-0.5-0.5-0.375-0.625 0-1-0.125-0.875-0.5-0.5-0.75 0-0.5 0.5-0.125 0.875-0.5 0.5-0.5 0.5 0 1-0.375 0.625-0.5 0.5-0.625 0.375-0.375 0.375 0.5 0.5 0.375 0.625 0 1v0.5h-17v-2l0.375-0.125q0.375-0.125 0.5-0.5t0.125-0.875 0.375-0.625 0.5-0.5 0.125-0.875 0.375-0.625 0.5-0.5 0.125-0.875 0.375-0.625 0.5-0.5 0.125-0.875 0.375-0.625 0.5-0.5 0.125-0.875 0.375-0.625 0.5-0.5 0.125-0.875 0.375-0.625 0.5-0.5 0.125-0.875 0-1 0.375-0.625 0.5-0.5m6.625 16.625q0.5 0 0.875-0.125t0.375-0.375-0.375-0.375l-0.375-0.125v-0.5q0-0.5-0.125-0.875t-0.375-0.625-0.375-0.625-0.25-0.75-0.375-0.625-0.375-0.625-0.25-0.75-0.375-0.625-0.375-0.625-0.25-0.75-0.375-0.625-0.375-0.625-0.25-0.75-0.375-0.625-0.375-0.625-0.25-0.75-0.5-0.5l-0.375-0.125 0.5625 0.1875-0.1875-0.0625q-0.1875-0.0625-0.40625-0.09375l-0.21875-0.03125 0.21875 0.03125-0.10938-0.39062q-0.10938-0.39062-0.35938-0.39062t-0.35938 0.39062l-0.10938 0.39062 0.21875-0.03125-0.21875 0.03125q-0.21875 0.03125-0.40625 0.09375l-0.1875 0.0625 0.5625-0.1875-0.375 0.125q-0.375 0.125-0.5 0.5t-0.25 0.75-0.375 0.625-0.375 0.625-0.25 0.75-0.375 0.625-0.375 0.625-0.25 0.75-0.375 0.625-0.375 0.625-0.25 0.75-0.375 0.625-0.375 0.625-0.25 0.75-0.375 0.625-0.375 0.625-0.125 0.875v0.5l-0.375 0.125q-0.375 0.125-0.375 0.375t0.375 0.375 0.875 0.125 1 0 1 0 1 0 1 0 1 0 1 0 1 0 1 0 1 0 1 0 1 0 1 0m0.40625-1.0312 0.65625 0.21875-0.1875-0.0625q-0.1875-0.0625-0.375-0.125l-0.1875-0.0625 0.09375 0.03125m-13.188 0.125 0.46875-0.15625-0.1875 0.0625q-0.1875 0.0625-0.375 0.125l-0.1875 0.0625 0.28125-0.09375m13.906-2.2188q0.375 0.125 0.75 0t0.5-0.5 0.125-0.875 0-1-0.125-0.875-0.375-0.625-0.375-0.625-0.25-0.75-0.375-0.625-0.375-0.625-0.25-0.75-0.375-0.625-0.375-0.625-0.25-0.75-0.375-0.625-0.5-0.5-0.5-0.5-0.5-0.5-0.5-0.5-0.5-0.5-0.625-0.375-0.875-0.125-0.875 0.125-0.375 0.375 0.375 0.375 0.75 0.25 0.5 0.5 0.25 0.75 0.375 0.625 0.375 0.625 0.25 0.75 0.375 0.625 0.375 0.625 0.25 0.75 0.375 0.625 0.375 0.625 0.25 0.75 0.375 0.625 0.375 0.625 0.25 0.75 0.375 0.625 0.375 0.625 0.25 0.75 0.5 0.5m5.375-4.375q0.25 0.25 0.5 0.25t0.5-0.25 0.5-0.5 0.375-0.625 0-0.75-0.375-0.625-0.375-0.625-0.25-0.75-0.375-0.625-0.5-0.5-0.5-0.5-0.5-0.5-0.625-0.375-0.75-0.25-0.625-0.375-0.625-0.375-0.75-0.25-0.625-0.375-0.625-0.375-0.875-0.125-1 0-0.875 0.125-0.375 0.375 0.25 0.5 0.5 0.5 0.5 0.5 0.5 0.5 0.5 0.5 0.375 0.625 0.25 0.75 0.375 0.625 0.375 0.625 0.25 0.75 0.375 0.625 0.375 0.625 0.25 0.75 0.5 0.5 0.75 0 0.625-0.375 0.625-0.375 0.75 0 0.625 0.375m2.5 3.5q0.5 0 0.875-0.125t0.5-0.5 0.125-0.875-0.125-0.875-0.5-0.5-0.875-0.125-0.875 0.125-0.5 0.5-0.125 0.875 0.125 0.875 0.5 0.5 0.875 0.125"/>
  <path d="m16.125 0.375-0.125-0.375h10v10l-0.375-0.125q-0.375-0.125-0.5-0.5t-0.625-0.375-0.5-0.5 0-1-0.375-0.625-0.5-0.5-0.125-0.875-0.375-0.625-0.5-0.5-0.5-0.5-0.5-0.5-0.5-0.5-0.5-0.5-0.625-0.375-0.875-0.125-0.5-0.5-0.625-0.375-0.875-0.125-0.5-0.5" fill-opacity="0"/>
  <g>
   <path d="m8.25 1.5q0-0.25 0.375-0.375t0.875-0.125 0.875 0.125 0.625 0.375 0.5 0.5 0.5 0.5 0.5 0.5 0.5 0.5 0.5 0.5 0.375 0.625 0.25 0.75 0.375 0.625 0.375 0.625 0.25 0.75 0.375 0.625 0.375 0.625 0.25 0.75 0.375 0.625 0.375 0.625 0.125 0.875 0 1-0.125 0.875-0.5 0.5-0.75 0-0.5-0.5-0.25-0.75-0.375-0.625-0.375-0.625-0.25-0.75-0.375-0.625-0.375-0.625-0.25-0.75-0.375-0.625-0.375-0.625-0.25-0.75-0.375-0.625-0.375-0.625-0.25-0.75-0.375-0.625-0.375-0.625-0.25-0.75-0.5-0.5-0.75-0.25-0.375-0.375" fill="#fff"/>
   <path d="m12.25 1.5q0-0.25 0.375-0.375t0.875-0.125 1 0 0.875 0.125 0.625 0.375 0.625 0.375 0.75 0.25 0.625 0.375 0.625 0.375 0.75 0.25 0.625 0.375 0.5 0.5 0.5 0.5 0.5 0.5 0.375 0.625 0.25 0.75 0.375 0.625 0.375 0.625 0 0.75-0.375 0.625-0.5 0.5-0.5 0.25-0.5-0.25-0.625-0.375-0.75 0-0.625 0.375-0.625 0.375-0.75 0-0.5-0.5-0.25-0.75-0.375-0.625-0.375-0.625-0.25-0.75-0.375-0.625-0.375-0.625-0.25-0.75-0.375-0.625-0.5-0.5-0.5-0.5-0.5-0.5-0.5-0.5-0.25-0.5" fill="#dc143c"/>
   <path d="m8.1406 3.6406q0.10938-0.39062 0.35938-0.39062t0.35938 0.39062l0.10938 0.39062 0.21875 0.03125-0.21875-0.03125q-0.21875-0.03125-0.46875-0.03125h-0.25 0.75-1 0.75-0.25q-0.25 0-0.46875 0.03125l-0.21875 0.03125 0.21875-0.03125 0.10938-0.39062" fill="#b1c1b4"/>
   <path d="m7.125 4.625q0.125-0.375 0.5-0.5t0.875-0.125 0.875 0.125 0.5 0.5l0.125 0.375h-0.5q-0.5 0-1 0t-1 0h-0.5l0.125-0.375m-0.03125 0.09375-0.15625 0.46875 0.0625-0.1875q0.0625-0.1875 0.125-0.375l0.0625-0.1875-0.09375 0.28125m2.9375 0.375-0.21875-0.65625 0.0625 0.1875q0.0625 0.1875 0.125 0.375l0.0625 0.1875-0.03125-0.09375" fill="#5a625b"/>
   <path d="m6.875 5.375 0.125-0.375h0.5q0.5 0 1 0t1 0h0.5l0.125 0.375q0.125 0.375 0.375 0.625t0.375 0.625l0.125 0.375h-0.5q-0.5 0-1 0t-1 0-1 0-1 0h-0.5l0.125-0.375q0.125-0.375 0.375-0.625t0.375-0.625m-0.78125 1.3438-0.15625 0.46875 0.0625-0.1875q0.0625-0.1875 0.125-0.375l0.0625-0.1875-0.09375 0.28125m4.9375 0.375-0.21875-0.65625 0.0625 0.1875q0.0625 0.1875 0.125 0.375l0.0625 0.1875-0.03125-0.09375m-0.9375-1.8125-0.15625-0.46875 0.0625 0.1875q0.0625 0.1875 0.125 0.375l0.0625 0.1875-0.09375-0.28125m-3.0625-0.375-0.21875 0.65625 0.0625-0.1875q0.0625-0.1875 0.125-0.375l0.0625-0.1875-0.03125 0.09375" fill="#b1c1b4"/>
   <path d="m5.875 7.375 0.125-0.375h0.5q0.5 0 1 0t1 0 1 0 1 0h0.5l0.125 0.375q0.125 0.375 0.375 0.625t0.375 0.625l0.125 0.375-0.375-0.125q-0.375-0.125-0.625-0.375t-0.625-0.375-0.875-0.125-1 0-1 0-0.875 0.125-0.625 0.375-0.625 0.375l-0.375 0.125 0.125-0.375q0.125-0.375 0.375-0.625t0.375-0.625m-0.78125 1.3438-0.15625 0.46875 0.0625-0.1875q0.0625-0.1875 0.125-0.375l0.0625-0.1875-0.09375 0.28125m6.9375 0.375-0.21875-0.65625 0.0625 0.1875q0.0625 0.1875 0.125 0.375l0.0625 0.1875-0.03125-0.09375m-0.9375-1.8125-0.15625-0.46875 0.0625 0.1875q0.0625 0.1875 0.125 0.375l0.0625 0.1875-0.09375-0.28125m-5.0625-0.375-0.21875 0.65625 0.0625-0.1875q0.0625-0.1875 0.125-0.375l0.0625-0.1875-0.03125 0.09375" fill="#5a625b"/>
   <path d="m6 8.5q0.25-0.25 0.625-0.375t0.875-0.125 1 0 1 0 0.875 0.125 0.625 0.375 0.625 0.375l0.375 0.125 0.125 0.375q0.125 0.375 0.375 0.625t0.375 0.625l0.125 0.375-0.375-0.125q-0.375-0.125-0.625-0.375t-0.625-0.375-0.875-0.125-1 0-1 0-1 0-1 0-0.875 0.125-0.625 0.375-0.625 0.375l-0.375 0.125 0.125-0.375q0.125-0.375 0.375-0.625t0.375-0.625l0.125-0.375 0.375-0.125q0.375-0.125 0.625-0.375m-0.96875 0.40625-0.21875 0.65625 0.0625-0.1875q0.0625-0.1875 0.125-0.375l0.0625-0.1875-0.03125 0.09375m-0.9375 1.8125-0.15625 0.46875 0.0625-0.1875q0.0625-0.1875 0.125-0.375l0.0625-0.1875-0.09375 0.28125m8.9375 0.375-0.21875-0.65625 0.0625 0.1875q0.0625 0.1875 0.125 0.375l0.0625 0.1875-0.03125-0.09375m-0.9375-1.8125-0.15625-0.46875 0.0625 0.1875q0.0625 0.1875 0.125 0.375l0.0625 0.1875-0.09375-0.28125" fill="#b1c1b4"/>
   <path d="m5 10.5q0.25-0.25 0.625-0.375t0.875-0.125h0.5l-0.125 0.375q-0.125 0.375-0.5 0.5t-0.75 0.25-0.625 0.375-0.5 0.5-0.25 0.5 0.25 0.5 0.5 0.5 0.625 0.375 0.75 0.25 0.5 0.5l0.125 0.375h-0.5q-0.5 0-0.875-0.125t-0.625-0.375-0.5-0.5-0.5-0.5-0.625-0.375l-0.375-0.125 0.125-0.375q0.125-0.375 0.375-0.625t0.375-0.625l0.125-0.375 0.375-0.125q0.375-0.125 0.625-0.375m-0.96875 0.40625-0.21875 0.65625 0.0625-0.1875q0.0625-0.1875 0.125-0.375l0.0625-0.1875-0.03125 0.09375m-0.9375 1.8125-0.15625 0.46875 0.0625-0.1875q0.0625-0.1875 0.125-0.375l0.0625-0.1875-0.09375 0.28125m3.5312 2.2812h0.625-0.25q-0.25 0-0.5 0h-0.25 0.375m0.5-5h-0.875 0.25q0.25 0 0.5 0h0.25-0.125" fill="#5a625b"/>
   <path d="m6.875 10.375 0.125-0.375h0.5q0.5 0 1 0t1 0h0.5l0.125 0.375q0.125 0.375 0.5 0.5l0.375 0.125v0.5q0 0.5 0 1t0 1v0.5l-0.375 0.125q-0.375 0.125-0.5 0.5l-0.125 0.375h-0.5q-0.5 0-1 0t-1 0h-0.5l-0.125-0.375q-0.125-0.375-0.5-0.5l-0.375-0.125v-0.5q0-0.5 0-1t0-1v-0.5l0.375-0.125q0.375-0.125 0.5-0.5m-0.59375 0.53125-0.46875 0.15625 0.1875-0.0625q0.1875-0.0625 0.375-0.125l0.1875-0.0625-0.28125 0.09375m-0.375 3.0625 0.65625 0.21875-0.1875-0.0625q-0.1875-0.0625-0.375-0.125l-0.1875-0.0625 0.09375 0.03125m0.96875 1.0312h0.875-0.25q-0.25 0-0.5 0h-0.25 0.125m1.625-1q0.5 0 0.875-0.125t0.5-0.5 0.125-0.875-0.125-0.875-0.5-0.5-0.875-0.125-0.875 0.125-0.5 0.5-0.125 0.875 0.125 0.875 0.5 0.5 0.875 0.125m1.125 1h0.625-0.25q-0.25 0-0.5 0h-0.25 0.375m1.0938-0.90625 0.46875-0.15625-0.1875 0.0625q-0.1875 0.0625-0.375 0.125l-0.1875 0.0625 0.28125-0.09375m0.375-3.0625-0.65625-0.21875 0.1875 0.0625q0.1875 0.0625 0.375 0.125l0.1875 0.0625-0.09375-0.03125m-0.96875-1.0312h-0.875 0.25q0.25 0 0.5 0h0.25-0.125m-2.75 0h-0.625 0.25q0.25 0 0.5 0h0.25-0.375"/>
   <path d="m10.125 10.375-0.125-0.375h0.5q0.5 0 0.875 0.125t0.625 0.375 0.625 0.375l0.375 0.125 0.125 0.375q0.125 0.375 0.375 0.625t0.375 0.625l0.125 0.375-0.375 0.125q-0.375 0.125-0.625 0.375t-0.5 0.5-0.5 0.5-0.625 0.375-0.875 0.125h-0.5l0.125-0.375q0.125-0.375 0.5-0.5t0.75-0.25 0.625-0.375 0.5-0.5 0.25-0.5-0.25-0.5-0.5-0.5-0.625-0.375-0.75-0.25-0.5-0.5m-0.25 4.625h0.875-0.25q-0.25 0-0.5 0h-0.25 0.125m4.1562-1.9062-0.21875-0.65625 0.0625 0.1875q0.0625 0.1875 0.125 0.375l0.0625 0.1875-0.03125-0.09375m-0.9375-1.8125-0.15625-0.46875 0.0625 0.1875q0.0625 0.1875 0.125 0.375l0.0625 0.1875-0.09375-0.28125m-2.7188-1.2812h-0.625 0.25q0.25 0 0.5 0h0.25-0.375" fill="#5a625b"/>
  </g>
  <path d="m19.125 10.625q0.125-0.375 0.5-0.5t0.75 0 0.5 0.5 0.125 0.875 0 1 0.375 0.625 0.5 0.5 0.625 0.375 1 0 1 0 0.625-0.375 0.5-0.5l0.375-0.125v5h-9v-0.5q0-0.5 0-1t-0.375-0.625-0.5-0.5 0.375-0.375 0.625-0.375 0.5-0.5 0.375-0.625 0-1 0.5-0.5 0.5-0.5 0.125-0.875" fill-opacity="0"/>
  <g>
   <path d="m22.125 10.625q0.125-0.375 0.5-0.5t0.875-0.125 0.875 0.125 0.5 0.5 0.125 0.875-0.125 0.875-0.5 0.5-0.875 0.125-0.875-0.125-0.5-0.5-0.125-0.875 0.125-0.875" fill="#fff"/>
   <path d="m5 11.5q0.25-0.25 0.625-0.375l0.375-0.125v0.5q0 0.5 0 1t0 1v0.5l-0.375-0.125q-0.375-0.125-0.625-0.375t-0.5-0.5-0.25-0.5 0.25-0.5 0.5-0.5m0.71875 2.4062 0.46875 0.15625-0.1875-0.0625q-0.1875-0.0625-0.375-0.125l-0.1875-0.0625 0.28125 0.09375m0.375-2.9375-0.65625 0.21875 0.1875-0.0625q0.1875-0.0625 0.375-0.125l0.1875-0.0625-0.09375 0.03125" fill="#b1c1b4"/>
   <path d="m7.125 11.625q0.125-0.375 0.5-0.5t0.875-0.125 0.875 0.125 0.5 0.5 0.125 0.875-0.125 0.875-0.5 0.5-0.875 0.125-0.875-0.125-0.5-0.5-0.125-0.875 0.125-0.875" fill="#fff"/>
   <path d="m11 11.5v-0.5l0.375 0.125q0.375 0.125 0.625 0.375t0.5 0.5 0.25 0.5-0.25 0.5-0.5 0.5-0.625 0.375l-0.375 0.125v-0.5q0-0.5 0-1t0-1m-0.09375 2.5312 0.65625-0.21875-0.1875 0.0625q-0.1875 0.0625-0.375 0.125l-0.1875 0.0625 0.09375-0.03125m0.375-2.9375-0.46875-0.15625 0.1875 0.0625q0.1875 0.0625 0.375 0.125l0.1875 0.0625-0.28125-0.09375" fill="#b1c1b4"/>
   <path d="m2.875 13.375 0.125-0.375 0.375 0.125q0.375 0.125 0.625 0.375t0.5 0.5 0.5 0.5 0.625 0.375 0.875 0.125 1 0 1 0 1 0 1 0 0.875-0.125 0.625-0.375 0.5-0.5 0.5-0.5 0.625-0.375l0.375-0.125 0.125 0.375q0.125 0.375 0.375 0.625t0.375 0.625l0.125 0.375-0.1875-0.5625 0.0625 0.1875q0.0625 0.1875 0.09375 0.40625l0.03125 0.21875-0.03125-0.21875-0.35938 0.10938q-0.35938 0.10938-0.35938 0.35938t0.375 0.375 0.75 0.25 0.375 0.375-0.375 0.375-0.875 0.125h-0.5l-0.125-0.375q-0.125-0.375-0.5-0.5t-0.75 0-0.5 0.5l-0.125 0.375h-0.5q-0.5 0-1 0t-1 0-1 0-1 0-1 0-1 0h-0.5l-0.125-0.375q-0.125-0.375-0.5-0.5t-0.75 0-0.5 0.5l-0.125 0.375h-0.5q-0.5 0-0.875-0.125t-0.375-0.375 0.375-0.375 0.75-0.25 0.375-0.375-0.35938-0.35938l-0.35938-0.10938-0.03125 0.21875 0.03125-0.21875q0.03125-0.21875 0.09375-0.40625l0.0625-0.1875-0.1875 0.5625 0.125-0.375q0.125-0.375 0.375-0.625t0.375-0.625m-0.25 3.625h0.625-0.25q-0.25 0-0.5 0h-0.25 0.375m2.25 0h0.875-0.25q-0.25 0-0.5 0h-0.25 0.125m6.75 0h0.625-0.25q-0.25 0-0.5 0h-0.25 0.375m2.25 0h0.875-0.25q-0.25 0-0.5 0h-0.25 0.125m0.21875-3.7188-0.15625-0.46875 0.0625 0.1875q0.0625 0.1875 0.125 0.375l0.0625 0.1875-0.09375-0.28125m-11.062-0.375-0.21875 0.65625 0.0625-0.1875q0.0625-0.1875 0.125-0.375l0.0625-0.1875-0.03125 0.09375" fill="#b1c1b4"/>
  </g>
  <g fill="#5a625b">
   <path d="m2 15.5v-0.5 0.75-0.25q0-0.25 0.03125-0.46875l0.03125-0.21875-0.03125 0.21875 0.35938 0.10938q0.35938 0.10938 0.35938 0.35938t-0.375 0.375l-0.375 0.125v-0.5m-0.09375 0.53125 0.65625-0.21875-0.1875 0.0625q-0.1875 0.0625-0.375 0.125l-0.1875 0.0625 0.09375-0.03125"/>
   <path d="m14.25 15.5q0-0.25 0.35938-0.35938l0.35938-0.10938-0.03125-0.21875 0.03125 0.21875q0.03125 0.21875 0.03125 0.46875v0.25-0.75 1l-0.375-0.125q-0.375-0.125-0.375-0.375m0.46875 0.40625 0.46875 0.15625-0.1875-0.0625q-0.1875-0.0625-0.375-0.125l-0.1875-0.0625 0.28125 0.09375"/>
   <path d="m3.125 16.625q0.125-0.375 0.5-0.5t0.75 0 0.5 0.5l0.125 0.375h-0.5q-0.5 0-1 0h-0.5l0.125-0.375m-0.25 0.375h0.875-0.25q-0.25 0-0.5 0h-0.25 0.125m1.75 0h0.625-0.25q-0.25 0-0.5 0h-0.25 0.375"/>
   <path d="m12.125 16.625q0.125-0.375 0.5-0.5t0.75 0 0.5 0.5l0.125 0.375h-0.5q-0.5 0-1 0h-0.5l0.125-0.375m-0.25 0.375h0.875-0.25q-0.25 0-0.5 0h-0.25 0.125m1.75 0h0.625-0.25q-0.25 0-0.5 0h-0.25 0.375"/>
  </g>
 </g>
</svg>
