<svg width="22" height="29" version="1.1" viewBox="0 0 22 29" xmlns="http://www.w3.org/2000/svg">
 <g transform="translate(0)">
  <path d="m0 0.5v-0.5h10l-0.125 0.375q-0.125 0.375-0.5 0.5t-0.375 0.625-0.5 0.5-0.5 0.5 0 1 0 1 0 1 0 1 0.5 0.5 0.375 0.375-0.5 0.5-0.5 0.5-0.5 0.5-0.5 0.5-0.5 0.5-0.5 0.5-0.5 0.5-0.5 0.5-0.5 0.5-0.5 0.5-0.5 0.5-0.375 0.625-0.5 0.5-0.375 0.375-0.14062 0.67188l-0.26562 0.29688 0.09375 0.09375-0.09375-0.09375q-0.09375-0.09375-0.21875-0.09375h-0.125 0.375-0.25q-0.25 0-0.375 0.375l-0.125 0.375h-1v-15.5" fill-opacity="0"/>
  <path d="m9.875 0.375 0.125-0.375h6v0.5q0 0.5 0 1t0 1 0 1 0 1-0.375 0.625-0.5 0.5 0 0.75 0.5 0.5 0.5 0.5 0.5 0.5 0.5 0.5 0.5 0.5 0.5 0.5 0.5 0.5 0.5 0.5 0.5 0.5 0.375 0.625 0 1 0 1-0.125 0.875 0.14062 0.67188l0.26562 0.29688 0.09375-0.09375-0.09375 0.09375q-0.09375 0.09375-0.15625 0.28125l-0.0625 0.1875 0.1875-0.5625-0.25 0.75v-0.75 0.25q0 0.25 0.125 0.375l0.125 0.125-0.125-0.125-0.4375 0.1875q-0.4375 0.1875-0.6875 0.4375t-0.5 0.5-0.5 0.5-0.5 0.5-0.4375 0.6875l-0.1875 0.4375 0.125 0.125-0.125-0.125q-0.125-0.125-0.375-0.125h-0.25 0.75-0.5q-0.5 0-1 0t-1 0h-1q-0.5 0-1 0t-1 0-1 0-1 0h-1q-0.5 0-1 0h-1q-0.5 0-1 0h-0.5 0.75-0.25q-0.25 0-0.375 0.125l-0.125 0.125 0.125-0.125-1.125-0.125h-0.5q-0.5 0-0.875-0.125t-0.5-0.5-0.125-0.875-0.0625-1.0625l-0.0625-0.5625-0.125 0.125 0.125-0.125q0.125-0.125 0.125-0.375v-0.25 0.75l-0.25-0.75 0.1875 0.5625-0.0625-0.1875q-0.0625-0.1875-0.15625-0.28125l-0.09375-0.09375 0.09375 0.09375 0.26562-0.29688q0.26562-0.29688 0.14062-0.67188t0.375-0.375 0.5-0.5 0.375-0.625 0.5-0.5 0.5-0.5 0.5-0.5 0.5-0.5 0.5-0.5 0.5-0.5 0.5-0.5 0.5-0.5 0.5-0.5 0.5-0.5 0.5-0.5-0.375-0.375-0.5-0.5 0-1 0-1 0-1 0-1 0.5-0.5 0.5-0.5 0.375-0.625 0.5-0.5m4.625 17.625q0.5 0 0.875-0.125t0.5-0.5 0.125-0.875-0.125-0.875-0.5-0.5-0.875-0.125-1 0-1 0-1 0-1 0-1 0-1 0-1 0-1 0-1 0-1 0-0.875 0.125-0.5 0.5-0.125 0.875 0.125 0.875 0.5 0.5 0.875 0.125 1 0 1 0 1 0 1 0 1 0 1 0 1 0 1 0 1 0 1 0m2.125-5.125q0.375 0.125 0.75 0t0.625-0.375 0.5-0.5 0.25-0.5-0.25-0.5-0.5-0.5-0.5-0.5-0.5-0.5-0.5-0.5-0.5-0.5-0.5-0.5-0.5-0.5-0.5-0.25-0.375 0.375 0 0.75 0.375 0.625 0.375 0.625 0.25 0.75 0.375 0.625 0.375 0.625 0.25 0.75 0.5 0.5m-2.125 1.125q0.5 0 0.875-0.125t0.375-0.375-0.25-0.5-0.375-0.625-0.25-0.75-0.375-0.625-0.375-0.625-0.25-0.75-0.375-0.625-0.375-0.625-0.25-0.75-0.5-0.5-0.875-0.125-0.875 0.125-0.625 0.375-0.5 0.5-0.5 0.5-0.5 0.5-0.5 0.5-0.5 0.5-0.5 0.5-0.5 0.5-0.5 0.5-0.5 0.5-0.5 0.5-0.5 0.5-0.25 0.5 0.375 0.375 0.875 0.125 1 0 1 0 1 0 1 0 1 0 1 0 1 0 1 0 1 0m-0.375-9.625q0.125 0.375 0.375 0.375t0.375-0.375 0.125-0.875-0.125-0.875-0.375-0.625-0.5-0.5-0.625-0.375-0.875-0.125-1 0-0.875 0.125-0.375 0.375 0.375 0.375 0.875 0.125 1 0 0.875 0.125 0.5 0.5 0.125 0.875 0.125 0.875m-2.625 1.625q0.5 0 0.875-0.125t0.5-0.5 0.125-0.875-0.125-0.875-0.5-0.5-0.875-0.125-1 0-0.875 0.125-0.5 0.5-0.125 0.875 0.125 0.875 0.5 0.5 0.875 0.125 1 0m5.625 10.375q0.125 0.375 0.375 0.375t0.5-0.25 0.5-0.5 0.375-0.625 0.125-0.875-0.125-0.875-0.375-0.375-0.5 0.25-0.5 0.5-0.375 0.625-0.125 0.875 0.125 0.875"/>
  <path d="m16 0.5v-0.5h6v16h-1l-0.125-0.375q-0.125-0.375-0.375-0.375h-0.25 0.375-0.125q-0.125 0-0.21875 0.09375l-0.09375 0.09375 0.09374-0.09374-0.26562-0.29688q-0.26562-0.29688-0.14062-0.67188t0.125-0.875 0-1 0-1-0.375-0.625-0.5-0.5-0.5-0.5-0.5-0.5-0.5-0.5-0.5-0.5-0.5-0.5-0.5-0.5-0.5-0.5-0.5-0.5 0-0.75 0.5-0.5 0.375-0.625 0-1 0-1 0-1 0-1" fill-opacity="0"/>
  <g>
   <path d="m10.25 1.5q0-0.25 0.375-0.375t0.875-0.125 1 0 0.875 0.125 0.625 0.375 0.5 0.5 0.375 0.625 0.125 0.875-0.125 0.875-0.375 0.375-0.375-0.375-0.125-0.875-0.125-0.875-0.5-0.5-0.875-0.125-1 0-0.875-0.125-0.375-0.375" fill="#fff"/>
   <path d="m9.125 3.625q0.125-0.375 0.5-0.5t0.875-0.125 1 0 0.875 0.125 0.5 0.5 0.125 0.875-0.125 0.875-0.5 0.5-0.875 0.125-1 0-0.875-0.125-0.5-0.5-0.125-0.875 0.125-0.875" fill="#fff"/>
   <path d="m10 7.5q0.25-0.25 0.625-0.375t0.875-0.125 0.875 0.125 0.5 0.5 0.25 0.75 0.375 0.625 0.375 0.625 0.25 0.75 0.375 0.625 0.375 0.625 0.25 0.75 0.375 0.625 0.25 0.5-0.375 0.375-0.875 0.125-1 0-1 0-1 0-1 0-1 0-1 0-1 0-1 0-1 0-0.875-0.125-0.375-0.375 0.25-0.5 0.5-0.5 0.5-0.5 0.5-0.5 0.5-0.5 0.5-0.5 0.5-0.5 0.5-0.5 0.5-0.5 0.5-0.5 0.5-0.5 0.5-0.5" fill="#0038b8"/>
   <path d="m14.125 7.625q0.125-0.375 0.375-0.375t0.5 0.25 0.5 0.5 0.5 0.5 0.5 0.5 0.5 0.5 0.5 0.5 0.5 0.5 0.5 0.5 0.25 0.5-0.25 0.5-0.5 0.5-0.625 0.375-0.75 0-0.5-0.5-0.25-0.75-0.375-0.625-0.375-0.625-0.25-0.75-0.375-0.625-0.375-0.625 0-0.75" fill="#0038b8"/>
   <path d="m18 13.5q0.25-0.25 0.5-0.25t0.375 0.375 0.125 0.875-0.125 0.875-0.375 0.625-0.5 0.5-0.5 0.25-0.375-0.375-0.125-0.875 0.125-0.875 0.375-0.625 0.5-0.5" fill="#fff"/>
   <path d="m1.125 15.625q0.125-0.375 0.375-0.375t0.375 0.375-0.375 0.375h-0.5l0.125-0.375" fill="#97bad7"/>
   <path d="m3.125 15.625q0.125-0.375 0.5-0.5t0.875-0.125 1 0 1 0 1 0 1 0 1 0 1 0 1 0 1 0 1 0 1 0 0.875 0.125 0.5 0.5 0.125 0.875-0.125 0.875-0.5 0.5-0.875 0.125-1 0-1 0-1 0-1 0-1 0-1 0-1 0-1 0-1 0-1 0-0.875-0.125-0.5-0.5-0.125-0.875 0.125-0.875" fill="#fff"/>
   <path d="m20.125 15.625q0.125-0.375 0.375-0.375t0.375 0.375l0.125 0.375h-0.5q-0.5 0-0.375-0.375" fill="#94b7d4"/>
   <path d="m0 16.5v-0.5h1v1h-1v-0.5" fill="#6fa0c5"/>
   <path d="m1 16.5v-0.5h1-0.75 0.25q0.25 0 0.375-0.125l0.125-0.125-0.125 0.125 0.0625 0.5625q0.0625 0.5625 0.0625 1.0625t0.125 0.875 0.5 0.5 0.875 0.125h0.5v1l-0.125 0.375q-0.125 0.375 0.15625 0.65625l0.28125 0.28125 0.125-0.125-0.125 0.125q-0.125 0.125-0.1875 0.3125l-0.0625 0.1875 0.1875-0.5625-0.25 0.75 0.25 0.75-0.1875-0.5625 0.0625 0.1875q0.0625 0.1875 0.1875 0.3125l0.125 0.125-0.125-0.125-0.28125 0.28125q-0.28125 0.28125-0.15625 0.65625t0.625 0.375h0.5l0.25 0.75-0.1875-0.5625 0.0625 0.1875q0.0625 0.1875 0.1875 0.3125l0.125 0.125-0.125-0.125-0.28125 0.28125q-0.28125 0.28125-0.15625 0.65625l0.125 0.375v0.5q0 0.5 0.375 0.625t0.5 0.5l0.125 0.375h-0.5q-0.5 0-1 0t-1 0h-1q-0.5 0-0.875-0.125t-0.5-0.5-0.125-0.875v-1q0-0.5 0-1t0-1 0-1 0-1 0-1 0-1 0-1v-2" fill="#005699"/>
   <path d="m19 16.5q0.25-0.25 0.6875-0.4375l0.4375-0.1875-0.125-0.125 0.125 0.125q0.125 0.125 0.375 0.125h0.25-0.75 1v2.5q0 0.5 0 1t0 1 0 1 0 1 0 1 0 1 0 1v1q0 0.5-0.125 0.875t-0.5 0.5-0.875 0.125h-1q-0.5 0-1 0t-1 0h-1.5l-0.375-0.125q-0.375-0.125-0.5-0.5l-0.125-0.375 0.75-0.25-0.5625 0.1875 0.1875-0.0625q0.1875-0.0625 0.34375-0.15625l0.15625-0.09375-0.15626 0.09374 0.26562 0.26562q0.26564 0.26564 0.64064 0.14064t0.5-0.5 0.5-0.5 0.5-0.5 0.5-0.5 0.375-0.625v-4q0-0.5-0.5-0.5h-0.5v-1 0.75-0.25q0-0.25-0.125-0.375l-0.125-0.125 0.125 0.125 0.1875-0.4375q0.1875-0.4375 0.4375-0.6875t0.5-0.5 0.5-0.5 0.5-0.5m-2 3.125v0.625-0.25q0-0.25 0-0.5v-0.25 0.375" fill="#005699"/>
   <path d="m21 16.5v-0.5h1v1h-1v-0.5" fill="#6498c1"/>
   <path d="m0 17.5v-0.5h1v1h-1v-0.5" fill="#538dba"/>
   <path d="m21 17.5v-0.5h1v1h-1v-0.5" fill="#4483b4"/>
   <path d="m0 18.5v-0.5h1v0.5q0 0.5 0 1t0 1 0 1 0 1 0 1 0 1 0 1v0.5h-1v-7.5" fill="#568fbb"/>
   <path d="m21 18.5v-0.5h1v8h-1v-0.5q0-0.5 0-1t0-1 0-1 0-1 0-1 0-1 0-1" fill="#4785b5"/>
   <path d="m4 19.5v-0.5l1.125 0.125 0.125-0.125-0.125 0.125q-0.125 0.125-0.125 0.375v0.25-0.75 1h-1v-0.5m1 0.625v-0.875 0.25q0 0.25 0 0.5v0.25-0.125" fill="#00539b"/>
   <path d="m5 19.5q0-0.5 0.5-0.5h0.5l-0.125 0.375q-0.125 0.375-0.5 0.5l-0.375 0.125v-0.5m0 0.125v0.625-0.25q0-0.25 0-0.5v-0.25 0.375m1.125-0.625h-0.875 0.25q0.25 0 0.5 0h0.25-0.125" fill="#a7ccd8"/>
   <path d="m5.875 19.375 0.125-0.375h1l-0.125 0.375q-0.125 0.375 0.15625 0.65625l0.28125 0.28125 0.125-0.125-0.125 0.125q-0.125 0.125-0.1875 0.3125l-0.0625 0.1875 0.1875-0.5625-0.125 0.375q-0.125 0.375-0.125 0.875v0.5h-1v-1l0.125-0.375q0.125-0.375-0.15625-0.65625l-0.28125-0.28125-0.125 0.125 0.125-0.125q0.125-0.125 0.1875-0.3125l0.0625-0.1875-0.1875 0.5625 0.125-0.375m1.125 2.75v-0.875 0.25q0 0.25 0 0.5v0.25-0.125m-0.625-3.125h-0.625 0.25q0.25 0 0.5 0h0.25-0.375" fill="#fff"/>
   <path d="m6.875 19.375 0.125-0.375h1v1l-0.75 0.25 0.5625-0.1875-0.1875 0.0625q-0.1875 0.0625-0.3125 0.1875l-0.125 0.125 0.125-0.125-0.28125-0.28125q-0.28125-0.28125-0.15625-0.65625m1.25-0.375h-0.875 0.25q0.25 0 0.5 0h0.25-0.125" fill="#fbfcfd"/>
   <path d="m8 19.5v-0.5h1l-0.125 0.375q-0.125 0.375-0.5 0.5l-0.375 0.125v-0.5m0.375-0.5h-0.625 0.25q0.25 0 0.5 0h0.25-0.375" fill="#3176ad"/>
   <path d="m8.875 19.375 0.125-0.375h1l0.25 0.75-0.1875-0.5625 0.0625 0.1875q0.0625 0.1875 0.1875 0.3125l0.125 0.125-0.125-0.125-0.59375 0.65625 0.09375 0.09375-0.09375-0.09375q-0.09375-0.09375-0.21875-0.09375h-0.125 0.375-0.5 0.375-0.125q-0.125 0-0.21875 0.09375l-0.09375 0.09375 0.09375-0.09375-0.59375-0.65625-0.125 0.125 0.125-0.125q0.125-0.125 0.1875-0.3125l0.0625-0.1875-0.1875 0.5625 0.125-0.375m1.25-0.375h-0.875 0.25q0.25 0 0.5 0h0.25-0.125" fill="#1e6aa5"/>
   <path d="m10.125 19.375-0.125-0.375h1v1l-0.375-0.125q-0.375-0.125-0.5-0.5m1-0.375h-0.875 0.25q0.25 0 0.5 0h0.25-0.125m-0.75 0h-0.625 0.25q0.25 0 0.5 0h0.25-0.375" fill="#74a3c7"/>
   <path d="m11 19.5v-0.5h1v1h-1v-0.5m1.125-0.5h-0.875 0.25q0.25 0 0.5 0h0.25-0.125m-0.75 0h-0.625 0.25q0.25 0 0.5 0h0.25-0.375" fill="#e4edf5"/>
   <path d="m12 19.5v-0.5h1v1h-1v-0.5m1 0.625v-0.875 0.25q0 0.25 0 0.5v0.25-0.125m0.125-1.125h-0.875 0.25q0.25 0 0.5 0h0.25-0.125m-0.75 0h-0.625 0.25q0.25 0 0.5 0h0.25-0.375" fill="#adc8de"/>
   <path d="m13 19.5v-0.5h1l-0.125 0.375q-0.125 0.375-0.5 0.5l-0.375 0.125v-0.5m0.375-0.5h-0.625 0.25q0.25 0 0.5 0h0.25-0.375" fill="#5890bc"/>
   <path d="m13.875 19.375 0.125-0.375h1l0.25 0.75-0.1875-0.5625 0.0625 0.1875q0.0625 0.1875 0.15625 0.28125l0.09375 0.09375-0.09375-0.09375-0.5625 0.6875 0.09374 0.09374-0.09375-0.09375q-0.09374-0.09374-0.21874-0.09374h-0.125 0.375-0.5 0.375-0.125q-0.125 0-0.21875 0.09375l-0.09375 0.09375 0.09374-0.09374-0.29686-0.32814-0.29688-0.32812-0.125 0.125 0.125-0.125q0.125-0.125 0.1875-0.3125l0.0625-0.1875-0.1875 0.5625 0.125-0.375m1.25-0.375h-0.875 0.25q0.25 0 0.5 0h0.25-0.125" fill="#6297c0"/>
   <path d="m15.125 19.375-0.125-0.375h1l-0.125 0.375q-0.125 0.375-0.375 0.375t-0.375-0.375m1-0.375h-0.875 0.25q0.25 0 0.5 0h0.25-0.125m-0.75 0h-0.625 0.25q0.25 0 0.5 0h0.25-0.375" fill="#c3d7e8"/>
   <path d="m15.875 19.375 0.125-0.375h0.5q0.5 0 0.5 0.5v0.5l-0.75 0.25 0.5625-0.1875-0.1875 0.0625q-0.1875 0.0625-0.3125 0.1875l-0.125 0.125 0.125-0.125-0.59375-0.65625-0.09375 0.09375 0.09375-0.09375q0.09375-0.09375 0.15625-0.28125l0.0625-0.1875-0.1875 0.5625 0.125-0.375m1.125 0.75v-0.875 0.25q0 0.25 0 0.5v0.25-0.125m-0.625-1.125h-0.625 0.25q0.25 0 0.5 0h0.25-0.375" fill="#8ab1d1"/>
   <path d="m3.875 20.375 0.125-0.375h1v1l-0.75 0.25 0.5625-0.1875-0.1875 0.0625q-0.1875 0.0625-0.3125 0.1875l-0.125 0.125 0.125-0.125-0.28125-0.28125q-0.28125-0.28125-0.15625-0.65625m1.125 0v-0.625 0.25q0 0.25 0 0.5v0.25-0.375" fill="#1362a2"/>
   <path d="m5 20.5v-0.5l0.75-0.25-0.5625 0.1875 0.1875-0.0625q0.1875-0.0625 0.3125-0.1875l0.125-0.125-0.125 0.125 0.28125 0.28125q0.28125 0.28125 0.15625 0.65625l-0.125 0.375h-1v-0.5m0-0.625v0.875-0.25q0-0.25 0-0.5v-0.25 0.125" fill="#ebf2f7"/>
   <path d="m7.125 20.625q0.125-0.375 0.5-0.5l0.375-0.125v1-0.75 0.25q0 0.25-0.03125 0.46875l-0.03125 0.21875 0.03125-0.21875-0.9375 0.0625-0.03125 0.21875 0.03125-0.21875q0.03125-0.21875 0.09375-0.40625l0.0625-0.1875-0.1875 0.5625 0.125-0.375" fill="#c4dae6"/>
   <path d="m8 20.5v-0.5l0.75-0.25-0.5625 0.1875 0.1875-0.0625q0.1875-0.0625 0.3125-0.1875l0.125-0.125-0.125 0.125 0.59375 0.65625 0.09375-0.09375-0.09375 0.09375q-0.09375 0.09375-0.15625 0.28125l-0.0625 0.1875 0.1875-0.5625-0.25 0.75h-1v-0.5" fill="#0d5e9e"/>
   <path d="m9.125 20.625q0.125-0.375 0.375-0.375t0.375 0.375l0.125 0.375h-1l0.125-0.375" fill="#79a7c8"/>
   <path d="m9.875 20.625-0.125-0.375 0.1875 0.5625-0.0625-0.1875q-0.0625-0.1875-0.15625-0.28125l-0.09375-0.09375 0.09375 0.09375 0.59375-0.65625-0.125-0.125 0.125 0.125q0.125 0.125 0.3125 0.1875l0.1875 0.0625-0.5625-0.1875 0.75 0.25v1h-1l-0.125-0.375m1.125 0.5v-0.875 0.25q0 0.25 0 0.5v0.25-0.125" fill="#0c6299"/>
   <path d="m11 20.5v-0.5h1v1h-1v-0.5m0 0.125v0.625-0.25q0-0.25 0-0.5v-0.25 0.375" fill="#a8baea"/>
   <path d="m12 20.5v-0.5h1v1h-1v-0.5m1-0.125v-0.625 0.25q0 0.25 0 0.5v0.25-0.375" fill="#326fb6"/>
   <path d="m13 20.5v-0.5l0.75-0.25-0.5625 0.1875 0.1875-0.0625q0.1875-0.0625 0.3125-0.1875l0.125-0.125-0.125 0.125 0.59375 0.65625 0.09375-0.09375-0.09375 0.09375q-0.09375 0.09375-0.15625 0.28125l-0.0625 0.1875 0.1875-0.5625-0.25 0.75 0.1875-0.5625-0.0625 0.1875q-0.0625 0.1875-0.09375 0.40625l-0.03125 0.21875 0.03125-0.21875-1.0312-0.03125v-0.5" fill="#518cbb"/>
   <path d="m14.125 20.625q0.125-0.375 0.375-0.375t0.375 0.375l0.125 0.375h-1l0.125-0.375" fill="#2971aa"/>
   <path d="m14.875 20.625-0.125-0.375 0.1875 0.5625-0.0625-0.1875q-0.0625-0.1875-0.15625-0.28125l-0.09375-0.09375 0.09374 0.09374 0.28126-0.34374 0.28125-0.34375-0.09374-0.09374 0.09375 0.09375q0.09374 0.09374 0.21874 0.09374h0.125-0.375 0.5-0.375 0.125q0.125 0 0.21875-0.09375l0.09375-0.09375-0.09374 0.09374 0.59375 0.65625 0.125-0.125-0.125 0.125q-0.125 0.125-0.1875 0.3125l-0.06251 0.18751 0.1875-0.5625-0.25 0.75-1.0312 0.03126 0.01563 0.10938 0.01562 0.10936-0.03125-0.21875q-0.03125-0.21875-0.09375-0.40625l-0.0625-0.1875 0.1875 0.5625-0.125-0.375m1.0938 0.46875 0.21875-0.65625-0.0625 0.1875q-0.0625 0.1875-0.125 0.375l-0.0625 0.1875 0.03125-0.09375" fill="#6c9cc5"/>
   <path d="m16.125 20.625q0.125-0.375 0.5-0.5l0.375-0.125v1h-1l0.125-0.375m0.875-0.25v-0.625 0.25q0 0.25 0 0.5v0.25-0.375" fill="#e0eaf3"/>
   <path d="m17 20.5v-0.5h0.5q0.5 0 0.5 0.5v0.5h-1v-0.5m0-0.625v0.875-0.25q0-0.25 0-0.5v-0.25 0.125" fill="#085b9c"/>
   <path d="m4.125 21.625q0.125-0.375 0.5-0.5l0.375-0.125v1h-1l0.125-0.375" fill="#2a71aa"/>
   <path d="m5 21.5v-0.5h1v1h-1v-0.5" fill="#f8fafc"/>
   <path d="m7 21.5v-0.5 0.75-0.25q0-0.25 0.03125-0.46875l0.03125-0.21875-0.03125 0.21875 0.9375-0.0625 0.03125-0.21875-0.03125 0.21875q-0.03125 0.21875-0.09375 0.40625l-0.0625 0.1875 0.1875-0.5625-0.125 0.375q-0.125 0.375-0.5 0.5l-0.375 0.125v-0.5m0 0.125v0.625-0.25q0-0.25 0-0.5v-0.25 0.375" fill="#6da5c1"/>
   <path d="m7.875 21.375 0.125-0.375h1l-0.125 0.375q-0.125 0.375-0.375 0.625l-0.25 0.25 0.375-0.375-0.125 0.125q-0.125 0.125-0.21875 0.28125l-0.09375 0.15625 0.09375-0.15625-0.59375-0.59375-0.125 0.125 0.125-0.125q0.125-0.125 0.1875-0.3125l0.0625-0.1875-0.1875 0.5625 0.125-0.375" fill="#3077ac"/>
   <path d="m8.875 21.375 0.125-0.375h1v1l-0.75 0.25 0.5625-0.1875-0.1875 0.0625q-0.1875 0.0625-0.3125 0.1875l-0.125 0.125 0.125-0.125-0.59375-0.59375-0.09375 0.15625 0.09375-0.15625q0.09375-0.15625 0.15625-0.34375l0.0625-0.1875-0.1875 0.5625 0.125-0.375" fill="#8ab5ce"/>
   <path d="m10 21.5v-0.5h1v1h-1v-0.5m0.625 0.5h0.625-0.25q-0.25 0-0.5 0h-0.25 0.375m0.375-0.625v-0.625 0.25q0 0.25 0 0.5v0.25-0.375" fill="#1f6ba7"/>
   <path d="m11 21.5v-0.5h1v1h-1v-0.5m-0.125 0.5h0.875-0.25q-0.25 0-0.5 0h-0.25 0.125m0.125-1.125v0.875-0.25q0-0.25 0-0.5v-0.25 0.125" fill="#aec8e1"/>
   <path d="m12 21.5v-0.5h1v1-0.75 0.25q0 0.25 0.03125 0.46875l0.03125 0.21875-0.03125-0.21875-1.0312 0.03125v-0.5" fill="#10609f"/>
   <path d="m13 21.5v-0.5l1.0312 0.03126 0.03126-0.21875-0.03125 0.21875q-0.03126 0.21874-0.03126 0.46874v0.25-0.75 1h-1v-0.5" fill="#9dbed8"/>
   <path d="m14 21.5v-0.5h1v1h-1v-0.5m1 0.625v-0.875 0.25q0 0.25 0 0.5v0.25-0.125" fill="#1564a1"/>
   <path d="m15 21.5v-0.5 0.75-0.25q0-0.25-0.03125-0.46875l-0.03125-0.21875 0.03126 0.21875 0.51562-0.01563 0.51562-0.01562-0.125 0.375q-0.125 0.375-0.5 0.5l-0.375 0.125v-0.5m0 0.125v0.625-0.25q0-0.25 0-0.5v-0.25 0.375m0.90625-0.34375 0.15625-0.46875-0.0625 0.1875q-0.0625 0.1875-0.125 0.375l-0.0625 0.1875 0.09375-0.28125" fill="#b7cfe2"/>
   <path d="m15.875 21.375 0.125-0.375h1v1l-0.75 0.25 0.5625-0.1875-0.1875 0.0625q-0.1875 0.0625-0.34375 0.15625l-0.15625 0.09375 0.15625-0.09375-0.59375-0.59375-0.125 0.125 0.125-0.125q0.125-0.125 0.1875-0.3125l0.0625-0.1875-0.1875 0.5625 0.125-0.375" fill="#fdfefe"/>
   <path d="m17 21.5v-0.5h1v1h-1v-0.5" fill="#1765a2"/>
   <path d="m4.125 22.375-0.125-0.375h1v1l-0.375-0.125q-0.375-0.125-0.5-0.5" fill="#236da7"/>
   <path d="m5 22.5v-0.5h2v1-0.75 0.25q0 0.25 0.03125 0.46875l0.03125 0.21875-0.03125-0.21875-0.78125 0.28125 0.5625-0.1875-0.1875 0.0625q-0.1875 0.0625-0.28125 0.15625l-0.09375 0.09375 0.09375-0.09375-0.29688-0.26562q-0.29688-0.26562-0.67188-0.14062l-0.375 0.125v-0.5m2-0.125v-0.625 0.25q0 0.25 0 0.5v0.25-0.375" fill="#f9fbfd"/>
   <path d="m7 22.5v-0.5l0.75-0.25-0.5625 0.1875 0.1875-0.0625q0.1875-0.0625 0.3125-0.1875l0.125-0.125-0.125 0.125 0.59375 0.59375 0.09375-0.15625-0.09375 0.15625q-0.09375 0.15625-0.15625 0.34375l-0.0625 0.1875 0.1875-0.5625-0.25 0.75-0.96875-0.03125 0.03125 0.21875-0.03125-0.21875q-0.03125-0.21875-0.03125-0.46875v-0.25 0.75-0.5m0-0.625v0.875-0.25q0-0.25 0-0.5v-0.25 0.125" fill="#1c68a5"/>
   <path d="m8.125 22.625q0.125-0.375 0.375-0.625l0.25-0.25-0.375 0.375 0.125-0.125q0.125-0.125 0.21875-0.28125l0.09375-0.15625-0.09375 0.15625 0.59375 0.59375 0.125-0.125-0.125 0.125q-0.125 0.125-0.1875 0.3125l-0.0625 0.1875 0.1875-0.5625-0.25 0.75h-1l0.125-0.375" fill="#79a7c9"/>
   <path d="m9.125 22.625q0.125-0.375 0.5-0.5l0.375-0.125v1h-0.9375v0.1875-0.1875q0-0.1875 0.0625-0.375l0.0625-0.1875-0.1875 0.5625 0.125-0.375" fill="#4180b4"/>
   <path d="m10 22.5v-0.5h1v1h-1v-0.5" fill="#6b9dc4"/>
   <path d="m11 22.5v-0.5h1v1h-1v-0.5m1 0.625v-0.875 0.25q0 0.25 0 0.5v0.25-0.125" fill="#73a3c9"/>
   <path d="m12 22.5v-0.5l1.0312-0.03126-0.01563-0.10938-0.01562-0.10936 0.03125 0.21875q0.03125 0.21875 0.09375 0.40625l0.0625 0.1875-0.1875-0.5625 0.25 0.75-0.1875-0.5625 0.0625 0.1875q0.0625 0.1875 0.15625 0.34375l0.09375 0.15625-0.09375-0.15625-0.59375 0.59375 0.125 0.125-0.125-0.125q-0.125-0.125-0.3125-0.1875l-0.1875-0.0625 0.5625 0.1875-0.75-0.25v-0.5" fill="#3a7cb0"/>
   <path d="m13.125 22.375-0.125-0.375h1l0.25 0.75-0.1875-0.5625 0.0625 0.1875q0.0625 0.1875 0.1875 0.3125l0.125 0.125-0.125-0.125-0.625 0.5625 0.0625 0.125-0.0625-0.125q-0.0625-0.125-0.1875-0.25l-0.125-0.125 0.375 0.375-0.25-0.25q-0.25-0.25-0.375-0.625" fill="#80aacc"/>
   <path d="m14.125 22.375-0.125-0.375h1v1l-0.375-0.125q-0.375-0.125-0.5-0.5m0.875 0.75v-0.875 0.25q0 0.25 0 0.5v0.25-0.125m0-0.75v-0.625 0.25q0 0.25 0 0.5v0.25-0.375" fill="#1e6aa7"/>
   <path d="m15 22.5v-0.5l0.75-0.25-0.5625 0.1875 0.1875-0.0625q0.1875-0.0625 0.3125-0.1875l0.125-0.125-0.125 0.125 0.59375 0.59375 0.15626-0.09374-0.15625 0.09375q-0.15626 0.09374-0.28126 0.21874l-0.125 0.125 0.375-0.375-0.25 0.25q-0.25 0.25-0.625 0.375l-0.375 0.125v-0.5m0 0.125v0.625-0.25q0-0.25 0-0.5v-0.25 0.375m0-0.75v0.875-0.25q0-0.25 0-0.5v-0.25 0.125" fill="#fafcfd"/>
   <path d="m16 22.5q0.25-0.25 0.625-0.375l0.375-0.125v1l-0.75 0.25 0.5625-0.1875-0.1875 0.0625q-0.1875 0.0625-0.3125 0.1875l-0.125 0.125 0.125-0.125-0.59375-0.59375-0.15626 0.09374 0.15625-0.09375q0.15626-0.09374 0.28126-0.21874l0.125-0.125-0.375 0.375 0.25-0.25m1 0.625v-0.875 0.25q0 0.25 0 0.5v0.25-0.125" fill="#f5f8fa"/>
   <path d="m17 22.5v-0.5h1v1h-1v-0.5m0 0.125v0.625-0.25q0-0.25 0-0.5v-0.25 0.375" fill="#1664a0"/>
   <path d="m3.875 23.625q-0.125-0.375 0.15625-0.65625l0.28125-0.28125-0.125-0.125 0.125 0.125q0.125 0.125 0.3125 0.1875l0.1875 0.0625-0.5625-0.1875 0.75 0.25v1h-0.5q-0.5 0-0.625-0.375" fill="#095c9d"/>
   <path d="m5 23.5v-0.5l0.375-0.125q0.375-0.125 0.67188 0.14062l0.29688 0.26562 0.09375-0.09375-0.09375 0.09375q-0.09375 0.09375-0.09375 0.21875v0.125-0.375 0.5-0.375 0.125q0 0.125 0.0625 0.25l0.0625 0.125-0.0625-0.125-0.625 0.5625 0.125 0.125-0.125-0.125q-0.125-0.125-0.3125-0.1875l-0.1875-0.0625 0.5625 0.1875-0.71875-0.28125 0.03125 0.21875-0.03125-0.21875q-0.03125-0.21875-0.03125-0.46875v-0.25 0.75-0.5" fill="#e3ecf4"/>
   <path d="m6.25 23.5q0-0.25 0.39062-0.39062l0.39062-0.14062-0.03125-0.21875 0.03125 0.21875q0.03125 0.21875 0.09375 0.40625l0.0625 0.1875-0.1875-0.5625 0.25 0.75-0.1875-0.5625 0.0625 0.1875q0.0625 0.1875 0.15625 0.28125l0.09375 0.09375-0.09375-0.09375-0.5625 0.625 0.09375 0.15625-0.09375-0.15625q-0.09375-0.15625-0.21875-0.28125l-0.125-0.125 0.375 0.375-0.25-0.25q-0.25-0.25-0.25-0.5" fill="#b6cfe2"/>
   <path d="m7.125 23.375-0.125-0.375 0.1875 0.5625-0.0625-0.1875q-0.0625-0.1875-0.09375-0.40625l-0.03125-0.21875 0.03125 0.21875 0.96875 0.03125-0.125 0.375q-0.125 0.375-0.375 0.375t-0.375-0.375" fill="#0b5d9d"/>
   <path d="m7.875 23.375 0.125-0.375h1l0.25 0.75-0.1875-0.5625 0.0625 0.1875q0.0625 0.1875 0.15625 0.28125l0.09375 0.09375-0.09375-0.09375-0.5625 0.6875 0.09375 0.09375-0.09375-0.09375q-0.09375-0.09375-0.21875-0.09375h-0.125 0.375-0.5 0.375-0.125q-0.125 0-0.21875 0.09375l-0.09375 0.09375 0.09375-0.09375-0.5625-0.6875-0.09375 0.09375 0.09375-0.09375q0.09375-0.09375 0.15625-0.28125l0.0625-0.1875-0.1875 0.5625 0.125-0.375" fill="#98bbd5"/>
   <path d="m9.125 23.375-0.125-0.375 0.1875 0.5625-0.0625-0.1875q-0.0625-0.1875-0.0625-0.375v-0.1875 0.1875h0.9375l-0.125 0.375q-0.125 0.375-0.375 0.375t-0.375-0.375" fill="#1061a0"/>
   <path d="m9.875 23.375 0.125-0.375h1v1l-0.75 0.25 0.5625-0.1875-0.1875 0.0625q-0.1875 0.0625-0.3125 0.1875l-0.125 0.125 0.125-0.125-0.59375-0.65625-0.09375 0.09375 0.09375-0.09375q0.09375-0.09375 0.15625-0.28125l0.0625-0.1875-0.1875 0.5625 0.125-0.375m1.25-0.375h-0.875 0.25q0.25 0 0.5 0h0.25-0.125" fill="#acc9dd"/>
   <path d="m11 23.5v-0.5h1v1h-1v-0.5m1-0.125v-0.625 0.25q0 0.25 0 0.5v0.25-0.375m-0.625-0.375h-0.625 0.25q0.25 0 0.5 0h0.25-0.375" fill="#256fa6"/>
   <path d="m12 23.5v-0.5l0.375 0.125q0.375 0.125 0.5 0.5l0.125 0.375h-1v-0.5" fill="#4e8ab9"/>
   <path d="m12.859 23.609-0.10938-0.35938 0.1875 0.5625-0.0625-0.1875q-0.0625-0.1875-0.1875-0.3125l-0.125-0.125 0.125 0.125 0.59375-0.59375-0.09374-0.15626 0.09375 0.15625q0.09374 0.15626 0.21874 0.28126l0.125 0.125-0.375-0.375 0.25 0.25q0.25 0.25 0.25 0.5t-0.375 0.375l-0.375 0.125 0.5625-0.1875-0.1875 0.0625q-0.1875 0.0625-0.40625 0.09375l-0.21875 0.03125 0.21875-0.03126-0.10938-0.35938" fill="#2a70ab"/>
   <path d="m13.75 23.5v-0.25 0.375-0.125q0-0.125-0.0625-0.25l-0.0625-0.125 0.0625 0.125 0.625-0.5625-0.125-0.125 0.125 0.125q0.125 0.125 0.3125 0.1875l0.1875 0.0625-0.5625-0.1875 0.75 0.25v1-0.75 0.25q0 0.25-0.03125 0.46875l-0.03125 0.21875 0.03125-0.21875-0.71875 0.28125 0.5625-0.1875-0.1875 0.0625q-0.1875 0.0625-0.3125 0.1875l-0.125 0.125 0.125-0.125-0.65625-0.59375-0.09374 0.09374 0.09375-0.09375q0.09374-0.09374 0.09374-0.21874v-0.125 0.375-0.25m1.25-0.125v-0.625 0.25q0 0.25 0 0.5v0.25-0.375" fill="#70a6c2"/>
   <path d="m15 23.5v-0.5l0.75-0.25-0.5625 0.1875 0.1875-0.0625q0.1875-0.0625 0.34375-0.15625l0.15625-0.09375-0.15626 0.09374 0.59375 0.59375 0.125-0.125-0.125 0.125q-0.125 0.125-0.1875 0.3125l-0.06249 0.18751 0.1875-0.5625-0.125 0.375q-0.125 0.375-0.125 0.875v0.5l-0.375 0.125q-0.375 0.125-0.625 0.375t-0.5 0.5-0.375 0.625l-0.125 0.375h-0.5q-0.5 0-1 0h-0.5v-0.5q0-0.5 0-1v-0.5h1.5q0.5 0 0.875-0.125t0.5-0.5 0.125-0.875m0-0.625v0.875-0.25q0-0.25 0-0.5v-0.25 0.125" fill="#fff"/>
   <path d="m16.125 23.625q0.125-0.375 0.5-0.5l0.375-0.125v1-0.75 0.25q0 0.25-0.03125 0.46875l-0.03125 0.21875 0.03125-0.21875-0.9375 0.0625-0.03125 0.21875 0.03125-0.21875q0.03125-0.21875 0.09375-0.40625l0.0625-0.1875-0.1875 0.5625 0.125-0.375m0.875-0.25v-0.625 0.25q0 0.25 0 0.5v0.25-0.375" fill="#ccdfe9"/>
   <path d="m17 23.5v-0.5h1v1h-1v-0.5m0-0.625v0.875-0.25q0-0.25 0-0.5v-0.25 0.125" fill="#05579c"/>
   <path d="m5.125 24.375-0.125-0.375 0.1875 0.5625-0.0625-0.1875q-0.0625-0.1875-0.09375-0.40625l-0.03125-0.21875 0.03125 0.21875 0.35938 0.14062q0.35938 0.14062 0.48438 0.51562l0.125 0.375-0.375-0.125q-0.375-0.125-0.5-0.5" fill="#86afd0"/>
   <path d="m5.875 24.625-0.125-0.375 0.1875 0.5625-0.0625-0.1875q-0.0625-0.1875-0.1875-0.3125l-0.125-0.125 0.125 0.125 0.625-0.5625-0.0625-0.125 0.0625 0.125q0.0625 0.125 0.1875 0.25l0.125 0.125-0.375-0.375 0.25 0.25q0.25 0.25 0.375 0.625l0.125 0.375h-1l-0.125-0.375" fill="#d5e3f0"/>
   <path d="m6.875 24.625-0.125-0.375 0.1875 0.5625-0.0625-0.1875q-0.0625-0.1875-0.15625-0.34375l-0.09375-0.15625 0.09375 0.15625 0.5625-0.625-0.09375-0.09375 0.09375 0.09375q0.09375 0.09375 0.21875 0.09375h0.125-0.375 0.5-0.375 0.125q0.125 0 0.21875-0.09375l0.09375-0.09375-0.09375 0.09375 0.5625 0.6875 0.09375-0.09375-0.09375 0.09375q-0.09375 0.09375-0.15625 0.28125l-0.0625 0.1875 0.1875-0.5625-0.25 0.75h-1l-0.125-0.375m0.75 0.375h0.625-0.25q-0.25 0-0.5 0h-0.25 0.375" fill="#a5c3db"/>
   <path d="m8.125 24.625q0.125-0.375 0.375-0.375t0.375 0.375l0.125 0.375h-1l0.125-0.375m-0.25 0.375h0.875-0.25q-0.25 0-0.5 0h-0.25 0.125m0.75 0h0.625-0.25q-0.25 0-0.5 0h-0.25 0.375" fill="#cedfeb"/>
   <path d="m8.875 24.625-0.125-0.375 0.1875 0.5625-0.0625-0.1875q-0.0625-0.1875-0.15625-0.28125l-0.09375-0.09375 0.09375 0.09375 0.5625-0.6875-0.09375-0.09375 0.09375 0.09375q0.09375 0.09375 0.21875 0.09375h0.125-0.375 0.5-0.375 0.125q0.125 0 0.21875-0.09375l0.09375-0.09375-0.09375 0.09375 0.59375 0.65625 0.125-0.125-0.125 0.125q-0.125 0.125-0.1875 0.3125l-0.0625 0.1875 0.1875-0.5625-0.25 0.75h-1l-0.125-0.375m0 0.375h0.875-0.25q-0.25 0-0.5 0h-0.25 0.125" fill="#a6c4dc"/>
   <path d="m10.125 24.625q0.125-0.375 0.5-0.5l0.375-0.125v1h-1l0.125-0.375" fill="#a9c6dd"/>
   <path d="m11 24.5v-0.5h1v1h-1v-0.5" fill="#05599b"/>
   <path d="m12 24.5v-0.5h1v1h-1v-0.5" fill="#6196c0"/>
   <path d="m13 24.5v-0.5l0.75-0.25-0.5625 0.1875 0.1875-0.0625q0.1875-0.0625 0.28125-0.15625l0.09375-0.09375-0.09374 0.09374 0.65625 0.59375 0.125-0.125-0.125 0.125q-0.125 0.125-0.1875 0.3125l-0.06251 0.18751 0.1875-0.5625-0.28125 0.71875 0.21875-0.03125-0.21875 0.03125q-0.21875 0.03125-0.46875 0.03125h-0.25 0.75-1v-0.5" fill="#72a0c7"/>
   <path d="m14.109 24.609q0.14062-0.35938 0.5-0.5l0.35938-0.14062 0.03125-0.21875-0.03125 0.21875q-0.03125 0.21875-0.09375 0.40625l-0.0625 0.1875 0.1875-0.5625-0.125 0.375q-0.125 0.375-0.5 0.5l-0.375 0.125 0.5625-0.1875-0.1875 0.0625q-0.1875 0.0625-0.40625 0.09375l-0.21875 0.03125 0.21875-0.03126 0.14062-0.35938" fill="#dfedf1"/>
   <path d="m16 24.5v-0.5 0.75-0.25q0-0.25 0.03125-0.46875l0.03125-0.21875-0.03125 0.21875 0.9375-0.0625 0.03125-0.21875-0.03125 0.21875q-0.03125 0.21875-0.09375 0.40625l-0.0625 0.1875 0.1875-0.5625-0.125 0.375q-0.125 0.375-0.5 0.5l-0.375 0.125v-0.5" fill="#73a9c3"/>
   <path d="m16.875 24.375 0.125-0.375h1v0.5q0 0.5-0.375 0.625l-0.375 0.125 0.5625-0.1875-0.1875 0.0625q-0.1875 0.0625-0.3125 0.1875l-0.125 0.125 0.125-0.125-0.625-0.625-0.125 0.125 0.125-0.125q0.125-0.125 0.1875-0.3125l0.0625-0.1875-0.1875 0.5625 0.125-0.375" fill="#00549a"/>
   <path d="m4.875 25.625q-0.125-0.375 0.15625-0.65625l0.28125-0.28125-0.125-0.125 0.125 0.125q0.125 0.125 0.3125 0.1875l0.1875 0.0625-0.5625-0.1875 0.75 0.25 0.25 0.75-0.1875-0.5625 0.0625 0.1875q0.0625 0.1875 0.15625 0.34375l0.09375 0.15625-0.09375-0.15625-0.5625 0.5625 0.15625 0.09375-0.15625-0.09375q-0.15625-0.09375-0.34375-0.15625l-0.1875-0.0625 0.5625 0.1875-0.75-0.25-0.125-0.375" fill="#10649c"/>
   <path d="m6.125 25.375-0.125-0.375h1l0.25 0.75-0.1875-0.5625 0.0625 0.1875q0.0625 0.1875 0.15625 0.34375l0.09375 0.15625-0.09375-0.15625-0.5625 0.5625 0.09375 0.15625-0.09375-0.15625q-0.09375-0.15625-0.21875-0.28125l-0.125-0.125 0.375 0.375-0.25-0.25q-0.25-0.25-0.375-0.625" fill="#ccd6f4"/>
   <path d="m7.125 25.375-0.125-0.375h0.5q0.5 0 1 0t1 0h0.5v1h-0.5q-0.5 0-0.5 0.5v0.5h-1l-0.125-0.375q-0.125-0.375-0.375-0.625t-0.375-0.625m2.875 0.75v-0.875 0.25q0 0.25 0 0.5v0.25-0.125m0.125-1.125h-0.875 0.25q0.25 0 0.5 0h0.25-0.125" fill="#fff"/>
   <path d="m10 25.5v-0.5h1v1h-1v-0.5m0 0.125v0.625-0.25q0-0.25 0-0.5v-0.25 0.375m0.375-0.625h-0.625 0.25q0.25 0 0.5 0h0.25-0.375" fill="#5790ba"/>
   <path d="m11 25.5v-0.5h1v1h-1v-0.5m1 0.625v-0.875 0.25q0 0.25 0 0.5v0.25-0.125" fill="#3579af"/>
   <path d="m15 25.5q0.25-0.25 0.625-0.375l0.375-0.125-0.125 0.375q-0.125 0.375-0.375 0.625l-0.25 0.25-0.5-0.5 0.25-0.25m-0.0625 0.0625-0.3125 0.3125 0.125-0.125q0.125-0.125 0.25-0.25l0.125-0.125-0.1875 0.1875m0.25 0.75 0.4375-0.4375-0.125 0.125q-0.125 0.125-0.25 0.25l-0.125 0.125 0.0625-0.0625" fill="#c0d7e6"/>
   <path d="m15.875 25.375 0.125-0.375 0.75-0.25-0.5625 0.1875 0.1875-0.0625q0.1875-0.0625 0.3125-0.1875l0.125-0.125-0.125 0.125 0.625 0.625 0.125-0.125-0.125 0.125q-0.125 0.125-0.1875 0.3125l-0.0625 0.1875 0.1875-0.5625-0.125 0.375q-0.125 0.375-0.5 0.5l-0.375 0.125 0.5625-0.1875-0.1875 0.0625q-0.1875 0.0625-0.3125 0.1875l-0.125 0.125 0.125-0.125-0.59375-0.59375-0.09375 0.15625 0.09375-0.15625q0.09375-0.15625 0.15625-0.34375l0.0625-0.1875-0.1875 0.5625 0.125-0.375" fill="#0a5b9e"/>
   <path d="m0 26.5v-0.5h1v1-0.75 0.25q0 0.25 0.03125 0.46875l0.03125 0.21875-0.03125-0.21875-1.0312 0.03125v-0.5" fill="#538eba"/>
   <path d="m5 26.5v-0.5l0.375 0.125q0.375 0.125 0.625 0.375l0.25 0.25-0.375-0.375 0.125 0.125q0.125 0.125 0.28125 0.21875l0.15625 0.09375-0.15625-0.09375-0.59375 0.59375 0.125 0.125-0.125-0.125q-0.125-0.125-0.3125-0.1875l-0.1875-0.0625 0.5625 0.1875-0.375-0.125q-0.375-0.125-0.375-0.625" fill="#005698"/>
   <path d="m6 26.5-0.25-0.25 0.375 0.375-0.125-0.125q-0.125-0.125-0.28125-0.21875l-0.15625-0.09375 0.15625 0.09375 0.5625-0.5625-0.09375-0.15625 0.09375 0.15625q0.09375 0.15625 0.21875 0.28125l0.125 0.125-0.375-0.375 0.25 0.25q0.25 0.25 0.375 0.625l0.125 0.375-0.1875-0.5625 0.0625 0.1875q0.0625 0.1875 0.21875 0.28125l0.15625 0.09375-0.15625-0.09375-0.42188-0.078125q-0.42188-0.078125-0.67188-0.32812" fill="#1e67a9"/>
   <path d="m6.875 26.625-0.125-0.375 0.1875 0.5625-0.0625-0.1875q-0.0625-0.1875-0.15625-0.34375l-0.09375-0.15625 0.09375 0.15625 0.5625-0.5625-0.09375-0.15625 0.09375 0.15625q0.09375 0.15625 0.21875 0.28125l0.125 0.125-0.375-0.375 0.25 0.25q0.25 0.25 0.375 0.625l0.125 0.375h-0.5q-0.5 0-0.625-0.375" fill="#b8d0e3"/>
   <path d="m9 26.5q0-0.5 0.5-0.5h0.5v1h-1v-0.5m1 0.625v-0.875 0.25q0 0.25 0 0.5v0.25-0.125m0-0.75v-0.625 0.25q0 0.25 0 0.5v0.25-0.375" fill="#ebf1f7"/>
   <path d="m10 26.5v-0.5h1v1h-1v-0.5m0-0.625v0.875-0.25q0-0.25 0-0.5v-0.25 0.125" fill="#0c5e9d"/>
   <path d="m11 26.5v-0.5h1v1h-1v-0.5m0 0.125v0.625-0.25q0-0.25 0-0.5v-0.25 0.375m1-0.25v-0.625 0.25q0 0.25 0 0.5v0.25-0.375" fill="#90b7d5"/>
   <path d="m14.125 26.625q0.125-0.375 0.375-0.625l0.25-0.25 0.5 0.5-0.25 0.25q-0.25 0.25-0.625 0.375l-0.375 0.125 0.125-0.375m0.9375-0.1875 0.3125-0.3125-0.125 0.125q-0.125 0.125-0.25 0.25l-0.125 0.125 0.1875-0.1875m-0.25-0.75-0.4375 0.4375 0.125-0.125q0.125-0.125 0.25-0.25l0.125-0.125-0.0625 0.0625" fill="#aac7dc"/>
   <path d="m15 26.5q0.25-0.25 0.5-0.5l0.25-0.25-0.375 0.375 0.125-0.125q0.125-0.125 0.21875-0.28125l0.09375-0.15625-0.09374 0.15626 0.59375 0.59375 0.125-0.125-0.125 0.125q-0.125 0.125-0.1875 0.3125l-0.06251 0.18749 0.1875-0.5625-0.125 0.375q-0.125 0.375-0.5 0.5t-0.64062-0.14062l-0.26562-0.26562-0.15626 0.09374 0.15625-0.09375q0.15626-0.09374 0.28126-0.21874l0.125-0.125-0.375 0.375 0.25-0.25" fill="#1665a2"/>
   <path d="m21 26.5v-0.5h1v1l-1.0312-0.03126-0.03126 0.21875 0.03125-0.21875q0.03126-0.21874 0.03126-0.46874v-0.25 0.75-0.5" fill="#4483b4"/>
   <path d="m0 27.5v-0.5l1.0312-0.03125-0.03125-0.21875 0.03125 0.21875q0.03125 0.21875 0.09375 0.40625l0.0625 0.1875-0.1875-0.5625 0.25 0.75-0.1875-0.5625 0.0625 0.1875q0.0625 0.1875 0.1875 0.3125l0.125 0.125-0.125-0.125-0.625 0.625 0.125 0.125-0.125-0.125q-0.125-0.125-0.3125-0.1875l-0.1875-0.0625 0.5625 0.1875-0.75-0.25v-0.5" fill="#76a2cb"/>
   <path d="m5.875 27.625-0.125-0.375 0.1875 0.5625-0.0625-0.1875q-0.0625-0.1875-0.1875-0.3125l-0.125-0.125 0.125 0.125 0.59375-0.59375-0.15625-0.09375 0.15625 0.09375q0.15625 0.09375 0.34375 0.15625l0.1875 0.0625-0.5625-0.1875 0.84375 0.15625-0.09375 1.0938h-1l-0.125-0.375" fill="#005798"/>
   <path d="m7.0469 27.453 0.046875-0.54688-0.15625-0.09375 0.15625 0.09375q0.15625 0.09375 0.40625 0.09375h0.25-0.75 1v1h-1l0.046875-0.54688" fill="#005897"/>
   <path d="m8 27.5v-0.5h1v1h-1v-0.5m0.625 0.5h0.625-0.25q-0.25 0-0.5 0h-0.25 0.375m0.5-1h-0.875 0.25q0.25 0 0.5 0h0.25-0.125" fill="#608fc7"/>
   <path d="m9 27.5v-0.5h1v1h-1v-0.5m-0.125 0.5h0.875-0.25q-0.25 0-0.5 0h-0.25 0.125m1.125-0.625v-0.625 0.25q0 0.25 0 0.5v0.25-0.375m-0.625-0.375h-0.625 0.25q0.25 0 0.5 0h0.25-0.375" fill="#93a9e4"/>
   <path d="m10 27.5v-0.5h1v1h-1v-0.5m1 0.625v-0.875 0.25q0 0.25 0 0.5v0.25-0.125" fill="#0e6298"/>
   <path d="m11 27.5v-0.5h1v1h-1v-0.5m0-0.625v0.875-0.25q0-0.25 0-0.5v-0.25 0.125" fill="#b1cade"/>
   <path d="m12 27.5v-0.5h1l-0.125 0.375q-0.125 0.375-0.5 0.5l-0.375 0.125v-0.5m0 0.125v0.625-0.25q0-0.25 0-0.5v-0.25 0.375m1.125-0.625h-0.875 0.25q0.25 0 0.5 0h0.25-0.125" fill="#689cc3"/>
   <path d="m12.875 27.375 0.125-0.375h1l0.25 0.75-0.1875-0.5625 0.0625 0.1875q0.0625 0.1875 0.1875 0.3125l0.125 0.125-0.125-0.125-0.59375 0.65625 0.09374 0.09374-0.09375-0.09375q-0.09374-0.09374-0.21874-0.09374h-0.125 0.375-0.5 0.375-0.125q-0.125 0-0.21875 0.09375l-0.09375 0.09375 0.09374-0.09374-0.29686-0.32814-0.29688-0.32812-0.125 0.125 0.125-0.125q0.125-0.125 0.1875-0.3125l0.0625-0.1875-0.1875 0.5625 0.125-0.375m0.5-0.375h-0.625 0.25q0.25 0 0.5 0h0.25-0.375" fill="#2971a9"/>
   <path d="m20.875 27.375 0.125-0.375-0.1875 0.5625 0.0625-0.1875q0.0625-0.1875 0.09375-0.40625l0.03125-0.21875-0.03126 0.21875 1.0313 0.03125v1l-0.75 0.25 0.5625-0.1875-0.1875 0.0625q-0.1875 0.0625-0.3125 0.1875l-0.125 0.125 0.125-0.125-0.625-0.625-0.125 0.125 0.125-0.125q0.125-0.125 0.1875-0.3125l0.0625-0.1875-0.1875 0.5625 0.125-0.375" fill="#6c9ec4"/>
  </g>
  <path d="m0 28.5v-0.5l0.375 0.125q0.375 0.125 0.5 0.5l0.125 0.375h-1v-0.5" fill-opacity="0"/>
  <g>
   <path d="m0.875 28.625-0.125-0.375 0.1875 0.5625-0.0625-0.1875q-0.0625-0.1875-0.1875-0.3125l-0.125-0.125 0.125 0.125 0.625-0.625-0.125-0.125 0.125 0.125q0.125 0.125 0.3125 0.1875l0.1875 0.0625-0.5625-0.1875 0.75 0.25-0.5625-0.1875 0.1875 0.0625q0.1875 0.0625 0.40625 0.09375l0.21875 0.03125-0.21875-0.03125-0.03125 1.0312h-1l-0.125-0.375" fill="#719fc9"/>
   <path d="m2.0156 28.484 0.015625-0.51562-0.21875-0.03125 0.21875 0.03125q0.21875 0.03125 0.46875 0.03125h0.25-0.75 1v1h-1l0.015625-0.51562" fill="#4484b3"/>
   <path d="m3 28.5v-0.5h0.5q0.5 0 1 0t1 0h1.5v1h-4v-0.5" fill="#4886b6"/>
   <path d="m7 28.5v-0.5h1v1h-1v-0.5" fill="#3b7db1"/>
   <path d="m8 28.5v-0.5h1v1h-1v-0.5" fill="#79a5cb"/>
   <path d="m9 28.5v-0.5h1v1h-1v-0.5" fill="#92b2d9"/>
   <path d="m10 28.5v-0.5h1v1h-1v-0.5m1-0.125v-0.625 0.25q0 0.25 0 0.5v0.25-0.375" fill="#6d9dc2"/>
   <path d="m11 28.5v-0.5h1v1h-1v-0.5" fill="#b0c8dc"/>
   <path d="m12 28.5v-0.5l0.75-0.25-0.5625 0.1875 0.1875-0.0625q0.1875-0.0625 0.3125-0.1875l0.125-0.125-0.125 0.125 0.59375 0.65625 0.09375-0.09375-0.09375 0.09375q-0.09375 0.09375-0.15625 0.28125l-0.0625 0.1875 0.1875-0.5625-0.25 0.75h-1v-0.5m0-0.625v0.875-0.25q0-0.25 0-0.5v-0.25 0.125" fill="#377bb0"/>
   <path d="m13.125 28.625q0.125-0.375 0.375-0.375t0.375 0.375l0.125 0.375h-1l0.125-0.375" fill="#3b7db1"/>
   <path d="m13.875 28.625-0.125-0.375 0.1875 0.5625-0.0625-0.1875q-0.0625-0.1875-0.15625-0.28125l-0.09375-0.09375 0.09374 0.09374 0.29688-0.32812 0.29688-0.32812-0.125-0.125 0.125 0.125q0.125 0.125 0.3125 0.1875l0.1875 0.0625-0.5625-0.1875 0.75 0.25v1h-1l-0.125-0.375" fill="#4382b4"/>
   <path d="m15 28.5v-0.5h1v1h-1v-0.5" fill="#4986b6"/>
   <path d="m16 28.5v-0.5h0.5q0.5 0 1 0t1 0h0.5v1h-3v-0.5" fill="#4886b6"/>
   <path d="m19 28.5v-0.5h1-0.75 0.25q0.25 0 0.46875-0.03125l0.21875-0.03125-0.21875 0.03126 0.01563 0.51562 0.01562 0.51562h-1v-0.5" fill="#4483b4"/>
   <path d="m19.984 28.484-0.015625-0.51562-0.21875 0.03125 0.21875-0.03125q0.21875-0.03125 0.40625-0.09375l0.1875-0.0625-0.5625 0.1875 0.75-0.25-0.5625 0.1875 0.1875-0.0625q0.1875-0.0625 0.3125-0.1875l0.125-0.125-0.125 0.125 0.625 0.625 0.125-0.125-0.125 0.125q-0.125 0.125-0.1875 0.3125l-0.0625 0.1875 0.1875-0.5625-0.25 0.75h-1l-0.01563-0.51562" fill="#6d9fc5"/>
  </g>
  <path d="m21.125 28.625q0.125-0.375 0.5-0.5l0.375-0.125v1h-1l0.125-0.375" fill-opacity="0"/>
 </g>
</svg>
