<svg width="31" height="23" version="1.1" viewBox="0 0 31 23" xmlns="http://www.w3.org/2000/svg">
 <g transform="translate(0)">
  <path d="m0 0.5v-0.5h7l-0.125 0.375q-0.125 0.375-0.5 0.5t-0.875 0.125-0.625 0.375-0.5 0.5-0.875 0.125-0.625 0.375-0.5 0.5-0.375 0.625-0.5 0.5-0.625 0.375-0.5 0.5l-0.375 0.125v-4.5" fill-opacity="0"/>
  <path d="m6.875 0.375 0.125-0.375h4l0.125 0.375q0.125 0.375 0.5 0.5t0.875 0.125 0.625 0.375 0.5 0.5 0.5 0.5 0.5 0.5 0.375 0.625 0.125 0.875 0.5 0.5l0.375 0.125v0.5q0 0.5 0 1t0.5 0.5 1 0 1 0 1 0 0.625 0.375 0.5 0.5 0.875 0.125 0.5-0.5 0-1 0.5-0.5h0.5v0.5q0 0.5 0 1t0 1 0 1 0.5 0.5 0.5 0.5 0 1 0 1-0.5 0.5-0.375 0.375 0.5 0.5 0.375 0.625 0 1 0 1 0 1-0.375 0.625-0.5 0.5-0.125 0.875-0.5 0.5-0.5 0.5-0.5 0.5-1 0-0.5 0.5-0.5 0.5-0.5 0.5v0.5h-7v-0.5q0-0.5-0.5-0.5t-0.5-0.5-0.5-0.5-1 0-0.5-0.5-0.5-0.5-0.5-0.5-0.125-0.875-0.5-0.5-0.375-0.625 0-1 0-1 0-1 0.375-0.625 0.5-0.5-0.375-0.375-0.5-0.5 0-1 0-1 0.5-0.5 0.5-0.5 0-1 0-1-0.125-0.875-0.5-0.5-0.5-0.5-0.5-0.5-0.75 0-0.5 0.5-0.125 0.875 0 1-0.375 0.625-0.5 0.5-0.625 0.375-1 0-1 0-0.625-0.375-0.5-0.5l-0.375-0.125v-3l0.375-0.125q0.375-0.125 0.5-0.5t0.625-0.375 0.5-0.5 0.375-0.625 0.5-0.5 0.625-0.375 0.875-0.125 0.5-0.5 0.625-0.375 0.875-0.125 0.5-0.5m-4.375 7.625q0.5 0 0.875-0.125t0.5-0.5 0.125-0.875-0.125-0.875-0.5-0.5-0.875-0.125-0.875 0.125-0.5 0.5-0.125 0.875 0.125 0.875 0.5 0.5 0.875 0.125m5.75 3.5q0 0.25 0.25 0.25t0.25-0.25-0.25-0.25-0.25 0.25m13.25 6.5q0.5 0 0.875-0.125t0.5-0.5 0.125-0.875 0-1-0.125-0.875-0.5-0.5l-0.375-0.125 0.5625 0.1875-0.1875-0.0625q-0.1875-0.0625-0.40625-0.09375l-0.21875-0.03125 0.21875 0.03126 0.01563-0.51562q0.01562-0.51564-0.10938-0.89064t-0.5-0.5-0.75 0-0.375 0.375 0.25 0.5 0.4375 0.6875l0.1875 0.4375 0.125-0.125-0.125 0.125q-0.125 0.125-0.125 0.375v0.25-0.75 0.5q0 0.5 0 1v0.5l-0.375 0.125q-0.375 0.125-0.5 0.5l-0.125 0.375 0.1875-0.5625-0.0625 0.1875q-0.0625 0.1875-0.09375 0.40625l-0.03125 0.21875 0.03126-0.21875-0.51562-0.01563q-0.51564-0.01562-1.0156-0.01562t-1.0156 0.015625l-0.51562 0.01563 0.01563 0.10938 0.01562 0.10937-0.03125-0.21875q-0.03125-0.21875-0.09375-0.40625l-0.0625-0.1875 0.1875 0.5625-0.125-0.375q-0.125-0.375-0.375-0.625t-0.375-0.625-0.125-0.875v-0.5 0.75-0.25q0-0.25-0.125-0.375l-0.125-0.125 0.125 0.125 0.1875-0.4375q0.1875-0.4375 0.4375-0.6875t0.25-0.5-0.375-0.375-0.875-0.125-0.875 0.125-0.375 0.375 0.25 0.5 0.4375 0.6875l0.1875 0.4375 0.125-0.125-0.125 0.125q-0.125 0.125-0.125 0.375v0.25-0.75 0.5q0 0.5 0 1v0.5-0.75 0.25q0 0.25 0.03125 0.46875l0.03125 0.21875-0.03126-0.21875-0.39062 0.14062q-0.39062 0.14062-0.51562 0.51562l-0.125 0.375 0.1875-0.5625-0.0625 0.1875q-0.0625 0.1875-0.09375 0.40625l-0.03125 0.21875 0.03126-0.21875-0.51562-0.01563q-0.51564-0.01562-1.0156-0.01562t-1 0h-0.5 0.75-0.25q-0.25 0-0.46875 0.03125l-0.21875 0.03125 0.21875-0.03126-0.14062-0.39062q-0.14062-0.39062-0.39062-0.64062t-0.375-0.625-0.125-0.875v-0.5 0.75-0.25q0-0.25-0.125-0.375l-0.125-0.125 0.125 0.125 0.1875-0.4375q0.1875-0.4375 0.4375-0.6875t0.25-0.5-0.375-0.375-0.75 0-0.5 0.5-0.10938 0.89062l0.015625 0.51562 0.21875-0.03125-0.21875 0.03125q-0.21875 0.03125-0.40625 0.09375l-0.1875 0.0625 0.5625-0.1875-0.375 0.125q-0.375 0.125-0.5 0.5t-0.125 0.875 0 1 0.125 0.875 0.5 0.5 0.875 0.125 1 0 1 0 1 0 1 0 1 0 1 0 1 0 1 0 1 0 1 0 1 0 1 0m0.75-6.5q0 0.25 0.25 0.25t0.25-0.25-0.25-0.25-0.25 0.25m-1.75-0.5q0.5 0 0.875-0.125t0.5-0.5 0-0.75-0.5-0.5-0.75-0.25-0.625-0.375-0.625-0.375-0.875-0.125-1 0-1 0-1 0-1 0-1 0-1 0-0.875 0.125-0.625 0.375-0.625 0.375-0.75 0.25-0.5 0.5 0 0.75 0.5 0.5 0.875 0.125 1 0 1 0 1 0 1 0 1 0 1 0 1 0 1 0 1 0 1 0m-10.875-3.125q0.375 0.125 0.75 0t0.625-0.375 0.625-0.375 0.875-0.125 1 0 0.875-0.125 0.5-0.5 0-0.75-0.375-0.625-0.375-0.625-0.25-0.75-0.375-0.625-0.5-0.5-0.625-0.375-0.75-0.25-0.625-0.375-0.625-0.375-0.875-0.125-1 0-0.875 0.125-0.625 0.375-0.625 0.375-0.75 0.25-0.625 0.375-0.625 0.375-0.75 0.25-0.375 0.375 0.25 0.5 0.5 0.5 0.5 0.25 0.5-0.25 0.625-0.375 0.75 0 0.625 0.375 0.5 0.5 0.5 0.5 0.5 0.5 0.375 0.625 0.25 0.75 0.5 0.5m11.375 8.25v-0.875 0.25q0 0.25 0 0.5v0.25-0.125m-2.5-0.125q0.5 0 0.875-0.125t0.5-0.5 0.125-0.875-0.125-0.875-0.5-0.5-0.875-0.125-0.875 0.125-0.5 0.5-0.125 0.875 0.125 0.875 0.5 0.5 0.875 0.125m-6 0q0.5 0 0.875-0.125t0.5-0.5 0.125-0.875-0.125-0.875-0.5-0.5-0.875-0.125-0.875 0.125-0.5 0.5-0.125 0.875 0.125 0.875 0.5 0.5 0.875 0.125"/>
  <path d="m11.125 0.375-0.125-0.375h9v1h-0.5q-0.5 0-1 0t-0.5 0.5v0.5h-0.5q-0.5 0-0.5 0.5v0.5h-0.5q-0.5 0-0.5 0.5t0 1v0.5l-0.375-0.125q-0.375-0.125-0.5-0.5t-0.125-0.875-0.375-0.625-0.5-0.5-0.5-0.5-0.5-0.5-0.625-0.375-0.875-0.125-0.5-0.5" fill-opacity="0"/>
  <path d="m20 0.5v-0.5h4v0.5q0 0.5 0.5 0.5t1 0 0.5 0.5v0.5h-0.5q-0.5 0-1 0t-1 0-0.5-0.5-0.5-0.5-1 0-1 0h-0.5v-0.5"/>
  <path d="m24 0.5v-0.5h7v5l-0.375-0.125q-0.375-0.125-0.5-0.5t-0.625-0.375-0.5-0.5-0.5-0.5h-0.5v-0.5q0-0.5-0.5-0.5t-1 0h-0.5v-0.5q0-0.5-0.5-0.5t-1 0-0.5-0.5" fill-opacity="0"/>
  <g>
   <path d="m7 1.5q0.25-0.25 0.625-0.375t0.875-0.125 1 0 0.875 0.125 0.625 0.375 0.625 0.375 0.75 0.25 0.625 0.375 0.5 0.5 0.375 0.625 0.25 0.75 0.375 0.625 0.375 0.625 0 0.75-0.5 0.5-0.875 0.125-1 0-0.875 0.125-0.625 0.375-0.625 0.375-0.75 0-0.5-0.5-0.25-0.75-0.375-0.625-0.5-0.5-0.5-0.5-0.5-0.5-0.625-0.375-0.75 0-0.625 0.375-0.5 0.25-0.5-0.25-0.5-0.5-0.25-0.5 0.375-0.375 0.75-0.25 0.625-0.375 0.625-0.375 0.75-0.25 0.625-0.375" fill="#009530"/>
   <path d="m18 1.5q0-0.5 0.5-0.5t1 0h0.5v0.5q0 0.5-0.5 0.5t-1 0h-0.5v-0.5"/>
   <path d="m20 1.5v-0.5h0.5q0.5 0 1 0t1 0 0.5 0.5 0.5 0.5 1 0 1 0h0.5v0.5q0 0.5 0.5 0.5t1 0h0.5v0.5q0 0.5-0.5 0.5t-0.625 0.375-0.5 0.5l-0.375 0.125v-0.5q0-0.5-0.5-0.5t-1 0-0.5 0.5v0.5h-0.5q-0.5 0-0.5 0.5v0.5h-0.5q-0.5 0-0.5 0.5t0 1-0.5 0.5-0.875-0.125-0.5-0.5-0.625-0.375-1 0-1 0-1 0-0.5-0.5 0-1v-0.5h0.5q0.5 0 0.5-0.5t0-1v-0.5h0.5q0.5 0 0.5-0.5v-0.5h0.5q0.5 0 1 0t0.5-0.5" fill="#0f0f0f"/>
  </g>
  <g>
   <path d="m17 2.5q0-0.5 0.5-0.5h0.5v0.5q0 0.5-0.5 0.5h-0.5v-0.5"/>
   <path d="m26 2.5v-0.5h0.5q0.5 0 1 0t0.5 0.5v0.5h-0.5q-0.5 0-1 0t-0.5-0.5"/>
   <path d="m16 3.5q0-0.5 0.5-0.5h0.5v0.5q0 0.5 0 1t-0.5 0.5h-0.5v-0.5q0-0.5 0-1"/>
   <path d="m28 3.5v-0.5h0.5q0.5 0 0.5 0.5t0.5 0.5 0.625 0.375 0.5 0.5l0.375 0.125v3l-0.375 0.125q-0.375 0.125-0.5 0.5t-0.625 0.375-1 0-1 0-0.625-0.375-0.5-0.5-0.375-0.625 0-1 0-1v-0.5l0.375-0.125q0.375-0.125 0.5-0.5t0.625-0.375 0.5-0.5m0.5 4.5q0.5 0 0.875-0.125t0.5-0.5 0.125-0.875-0.125-0.875-0.5-0.5-0.875-0.125-0.875 0.125-0.5 0.5-0.125 0.875 0.125 0.875 0.5 0.5 0.875 0.125"/>
   <path d="m24 4.5q0-0.5 0.5-0.5t1 0 0.5 0.5v0.5h-0.5q-0.5 0-1 0h-0.5v-0.5"/>
  </g>
  <path d="m1.125 5.625q0.125-0.375 0.5-0.5t0.875-0.125 0.875 0.125 0.5 0.5 0.125 0.875-0.125 0.875-0.5 0.5-0.875 0.125-0.875-0.125-0.5-0.5-0.125-0.875 0.125-0.875" fill="#fff"/>
  <path d="m5.125 5.625q0.125-0.375 0.5-0.5t0.75 0 0.5 0.5 0.5 0.5 0.5 0.5 0.125 0.875 0 1 0 1-0.5 0.5-0.5 0.5 0 1 0 1 0.5 0.5 0.375 0.375-0.5 0.5-0.375 0.625 0 1 0 1 0 1 0.375 0.625 0.5 0.5 0.125 0.875 0.5 0.5 0.5 0.5 0.5 0.5 1 0 0.5 0.5 0.5 0.5 0.5 0.5v0.5h-12v-15l0.375 0.125q0.375 0.125 0.5 0.5t0.625 0.375 1 0 1 0 0.625-0.375 0.5-0.5 0.375-0.625 0-1 0.125-0.875" fill-opacity="0"/>
  <path d="m23 5.5q0-0.5 0.5-0.5h0.5v0.5q0 0.5-0.5 0.5h-0.5v-0.5"/>
  <path d="m24 5.5v-0.5h0.5q0.5 0 1 0h0.5v0.5q0 0.5 0 1t0 1 0.375 0.625 0.5 0.5 0.625 0.375 1 0 1 0 0.625-0.375 0.5-0.5l0.375-0.125v15h-12v-0.5q0-0.5 0.5-0.5t0.5-0.5 0.5-0.5 1 0 0.5-0.5 0.5-0.5 0.5-0.5 0.125-0.875 0.5-0.5 0.375-0.625 0-1 0-1 0-1-0.375-0.625-0.5-0.5 0.375-0.375 0.5-0.5 0-1 0-1-0.5-0.5-0.5-0.5 0-1 0-1 0-1v-0.5h0.5q0.5 0 0.5-0.5" fill-opacity="0"/>
  <g fill="#fff">
   <path d="m27.125 5.625q0.125-0.375 0.5-0.5t0.875-0.125 0.875 0.125 0.5 0.5 0.125 0.875-0.125 0.875-0.5 0.5-0.875 0.125-0.875-0.125-0.5-0.5-0.125-0.875 0.125-0.875"/>
   <path d="m11 8.5q0.25-0.25 0.625-0.375t0.875-0.125 1 0 1 0 1 0 1 0 1 0 1 0 0.875 0.125 0.625 0.375 0.625 0.375 0.75 0.25 0.5 0.5 0 0.75-0.5 0.5-0.875 0.125-1 0-1 0-1 0-1 0-1 0-1 0-1 0-1 0-1 0-1 0-0.875-0.125-0.5-0.5 0-0.75 0.5-0.5 0.75-0.25 0.625-0.375"/>
   <path d="m8.25 11.5q0-0.25 0.25-0.25t0.25 0.25-0.25 0.25-0.25-0.25"/>
   <path d="m22.25 11.5q0-0.25 0.25-0.25t0.25 0.25-0.25 0.25-0.25-0.25"/>
  </g>
  <g fill="#ce1126">
   <path d="m9.125 12.625q0.125-0.375 0.5-0.5t0.75 0 0.375 0.375-0.25 0.5-0.4375 0.6875l-0.1875 0.4375 0.125 0.125-0.125-0.125q-0.125-0.125-0.375-0.125h-0.25 0.75-1 0.75-0.25q-0.25 0-0.46875 0.03125l-0.21875 0.03125 0.21875-0.03125-0.015625-0.51562q-0.015625-0.51562 0.10938-0.89062"/>
   <path d="m14.25 12.5q0-0.25 0.375-0.375t0.875-0.125 0.875 0.125 0.375 0.375-0.25 0.5-0.4375 0.6875l-0.1875 0.4375 0.125 0.125-0.125-0.125q-0.125-0.125-0.375-0.125h-0.25 0.75-1 0.75-0.25q-0.25 0-0.375 0.125l-0.125 0.125 0.125-0.125-0.1875-0.4375q-0.1875-0.4375-0.4375-0.6875t-0.25-0.5"/>
   <path d="m20.25 12.5q0-0.25 0.375-0.375t0.75 0 0.5 0.5 0.10938 0.89062l-0.01563 0.51562 0.21875 0.03126-0.21875-0.03125q-0.21874-0.03126-0.46874-0.03126h-0.25 0.75-1 0.75-0.25q-0.25 0-0.375 0.125l-0.125 0.125 0.125-0.125-0.1875-0.4375q-0.1875-0.4375-0.4375-0.6875t-0.25-0.5"/>
  </g>
  <g fill="#fff">
   <path d="m11.125 13.625q0.125-0.375 0.5-0.5t0.875-0.125 0.875 0.125 0.5 0.5 0.125 0.875-0.125 0.875-0.5 0.5-0.875 0.125-0.875-0.125-0.5-0.5-0.125-0.875 0.125-0.875"/>
   <path d="m17.125 13.625q0.125-0.375 0.5-0.5t0.875-0.125 0.875 0.125 0.5 0.5 0.125 0.875-0.125 0.875-0.5 0.5-0.875 0.125-0.875-0.125-0.5-0.5-0.125-0.875 0.125-0.875"/>
   <path d="m8.125 14.625q0.125-0.375 0.5-0.5t0.875-0.125 0.5 0.5 0.125 0.875 0.375 0.625 0.39062 0.64062l0.14062 0.39062 0.21875-0.03125-0.21875 0.03125q-0.21875 0.03125-0.40625 0.09375l-0.1875 0.0625 0.5625-0.1875-0.375 0.125q-0.375 0.125-0.5 0.5l-0.125 0.375h-0.5q-0.5 0-0.875-0.125t-0.5-0.5-0.125-0.875 0-1 0.125-0.875m1.5 3.375h0.625-0.25q-0.25 0-0.5 0h-0.25 0.375"/>
   <path d="m15 14.5q0-0.5 0.5-0.5t0.5 0.5 0.125 0.875 0.375 0.625 0.375 0.625 0.125 0.875v0.5h-1l-0.125-0.375q-0.125-0.375-0.375-0.625t-0.375-0.625-0.125-0.875 0-1m0.875 3.5h0.875-0.25q-0.25 0-0.5 0h-0.25 0.125m0.75 0h0.625-0.25q-0.25 0-0.5 0h-0.25 0.375"/>
   <path d="m21 14.5q0-0.5 0.5-0.5t0.875 0.125 0.5 0.5 0.125 0.875 0 1-0.125 0.875-0.5 0.5-0.875 0.125h-0.5v-0.5q0-0.5 0-1t0-1 0-1m-0.125 3.5h0.875-0.25q-0.25 0-0.5 0h-0.25 0.125"/>
  </g>
  <g fill="#009e60">
   <path d="m14.125 16.625q0.125-0.375 0.51562-0.51562l0.39062-0.14062-0.03125-0.21875 0.03125 0.21875q0.03125 0.21875 0.09375 0.40625l0.0625 0.1875-0.1875-0.5625 0.125 0.375q0.125 0.375 0.375 0.625t0.375 0.625l0.125 0.375h-0.5q-0.5 0-1 0h-0.5v-0.5q0-0.5 0.125-0.875m-0.25 1.375h0.875-0.25q-0.25 0-0.5 0h-0.25 0.125m1.75 0h0.625-0.25q-0.25 0-0.5 0h-0.25 0.375"/>
   <path d="m20.125 16.625q0.125-0.375 0.5-0.5l0.375-0.125v0.5q0 0.5 0 1v0.5h-1v-0.5q0-0.5 0.125-0.875m-0.25 1.375h0.875-0.25q-0.25 0-0.5 0h-0.25 0.125m0.75 0h0.625-0.25q-0.25 0-0.5 0h-0.25 0.375m0.375-1.625v-0.625 0.25q0 0.25 0 0.5v0.25-0.375"/>
   <path d="m10.125 17.625q0.125-0.375 0.5-0.5t0.875-0.125 1 0h0.5v1h-0.5q-0.5 0-1 0t-1 0h-0.5l0.125-0.375m-0.25 0.375h0.875-0.25q-0.25 0-0.5 0h-0.25 0.125m2.75 0h0.625-0.25q-0.25 0-0.5 0h-0.25 0.375m0.5-1h-0.875 0.25q0.25 0 0.5 0h0.25-0.125"/>
  </g>
  <g>
   <path d="m13 17.5v-0.5l1.0312 0.03126 0.03126-0.21875-0.03125 0.21875q-0.03126 0.21874-0.03126 0.46874v0.25-0.75 1h-1v-0.5m-0.125 0.5h0.875-0.25q-0.25 0-0.5 0h-0.25 0.125m0.75 0h0.625-0.25q-0.25 0-0.5 0h-0.25 0.375m-0.25-1h-0.625 0.25q0.25 0 0.5 0h0.25-0.375" fill="#fff"/>
   <path d="m17 17.5v-0.5 0.75-0.25q0-0.25-0.03125-0.46875l-0.03125-0.21875 0.03126 0.21875 0.51562-0.01563q0.51562-0.01562 1.0156-0.01562h0.5v1h-0.5q-0.5 0-1 0h-0.5v-0.5m-0.125 0.5h0.875-0.25q-0.25 0-0.5 0h-0.25 0.125m1.75 0h0.625-0.25q-0.25 0-0.5 0h-0.25 0.375m0.5-1h-0.875 0.25q0.25 0 0.5 0h0.25-0.125" fill="#009e60"/>
   <path d="m19 17.5v-0.5l1.0312 0.03126 0.03126-0.21875-0.03125 0.21875q-0.03126 0.21874-0.03126 0.46874v0.25-0.75 1h-1v-0.5m-0.125 0.5h0.875-0.25q-0.25 0-0.5 0h-0.25 0.125m0.75 0h0.625-0.25q-0.25 0-0.5 0h-0.25 0.375m-0.25-1h-0.625 0.25q0.25 0 0.5 0h0.25-0.375" fill="#fff"/>
  </g>
 </g>
</svg>
