<svg width="28" height="28" version="1.1" viewBox="0 0 28 28" xmlns="http://www.w3.org/2000/svg">
 <g transform="translate(0)">
  <path d="m0 0.5v-0.5h8l-0.125 0.375q-0.125 0.375-0.5 0.5t-0.375 0.625 0 1-0.125 0.875-0.5 0.5-0.375 0.625-0.125 0.875-0.5 0.5-0.375 0.625-0.125 0.875-0.5 0.5-0.375 0.625 0 1-0.5 0.5-0.5 0.5 0 1-0.5 0.5-0.5 0.5-0.125 0.875-0.5 0.5-0.375 0.625-0.125 0.875-0.5 0.5l-0.375 0.125v-15.5" fill-opacity="0"/>
  <path d="m7.875 0.375 0.125-0.375h8l0.125 0.375q0.125 0.375 0.5 0.5t0.875 0.125 0.625 0.375 0.5 0.5 0.875 0.125 0.625 0.375 0.5 0.5 0.5 0.5 0.5 0.5 0.375 0.625 0.5 0.5 0.625 0.375 0.5 0.5 0.375 0.625 0 1 0 1 0.5 0.5 0.625 0.375 0.5 0.5 0.375 0.625 0 1 0 1 0.5 0.5 0.625 0.375 0.5 0.5l0.375 0.125v3l-0.375 0.125q-0.375 0.125-0.5 0.5t-0.625 0.375-1 0-1 0-0.625-0.375-0.5-0.5-0.375-0.625 0-1 0-1-0.5-0.5-0.625-0.375-0.5-0.5-0.875-0.125-1 0-1 0-0.5 0.5-0.375 0.625-0.5 0.5-0.625 0.375-0.375 0.375 0.5 0.5 0.375 0.625 0 1-0.5 0.5-0.375 0.375 0.5 0.5 0.375 0.625 0 1 0 1 0 1-0.375 0.625-0.5 0.5-0.125 0.875-0.5 0.5-0.5 0.5-0.5 0.5-0.875 0.125-0.5 0.5-0.625 0.375-0.5 0.5v0.5h-7v-0.5q0-0.5-0.5-0.5t-0.625-0.375-0.5-0.5-0.875-0.125-0.5-0.5-0.5-0.5-0.5-0.5-0.125-0.875-0.5-0.5l-0.375-0.125v-4l0.375-0.125q0.375-0.125 0.5-0.5t-0.375-0.375h-0.5v-2l0.375-0.125q0.375-0.125 0.5-0.5t0.125-0.875 0.375-0.625 0.5-0.5 0.125-0.875 0.5-0.5 0.5-0.5 0-1 0.5-0.5 0.5-0.5 0-1 0.375-0.625 0.5-0.5 0.125-0.875 0.375-0.625 0.5-0.5 0.125-0.875 0.375-0.625 0.5-0.5 0.125-0.875 0-1 0.375-0.625 0.5-0.5m-6.625 16.125q0 0.25 0.25 0.25t0.25-0.25-0.25-0.25-0.25 0.25m8.25 10.5q0.5 0 0.875-0.125t0.625-0.375 0.625-0.375 0.75-0.25 0.625-0.375 0.5-0.5 0.375-0.625l0.125-0.375 0.375-0.125q0.375-0.125 0.5-0.5t0.5-0.5 0.5-0.5 0.125-0.875 0-1-0.125-0.875-0.5-0.5-0.375-0.625-0.125-0.875-0.5-0.5-0.75 0-0.375 0.375 0.375 0.375 0.375 0.625 0 1-0.125 0.875-0.375 0.625-0.5 0.5-0.625 0.375-0.875 0.125-0.875-0.125-0.625-0.375-0.60938-0.39062l-0.35938-0.14062 0.03125 0.21875-0.03125-0.21875q-0.03125-0.21875-0.03125-0.46875v-0.25 0.75-0.5q0-0.5 0-1t0-1 0.375-0.625 0.375-0.375-0.375-0.375-0.875-0.125-0.875 0.125-0.375 0.375 0.375 0.375 0.375 0.625 0 1 0 1v0.5-0.75 0.25q0 0.25-0.03125 0.46875l-0.03125 0.21875 0.03125-0.21875-0.35938 0.14062q-0.35938 0.14062-0.60938 0.39062t-0.625 0.375-0.875 0.125-0.875-0.125-0.625-0.375-0.5-0.5-0.375-0.625-0.125-0.875 0-1 0.375-0.625 0.375-0.375-0.375-0.375-0.75 0-0.5 0.5-0.125 0.875-0.375 0.625-0.5 0.5-0.125 0.875 0 1 0.125 0.875 0.5 0.5 0.5 0.5 0.5 0.5l0.375 0.125 0.125 0.375q0.125 0.375 0.375 0.625t0.5 0.5 0.625 0.375 0.75 0.25 0.625 0.375 0.625 0.375 0.875 0.125 1 0 1 0m5.75-10.5q0 0.25 0.25 0.25t0.25-0.25-0.25-0.25-0.25 0.25m-1.75-0.5q0.5 0 0.875-0.125t0.5-0.5 0.125-0.875v-0.5h-0.5q-0.5 0-0.875 0.125t-0.625 0.375-0.625 0.375-0.875 0.125-0.875-0.125-0.625-0.375-0.5-0.5-0.375-0.625-0.125-0.875-0.015625-1.0156l-0.015625-0.51562-0.21875 0.03125 0.21875-0.03125q0.21875-0.03125 0.40625-0.09375l0.1875-0.0625-0.5625 0.1875 0.375-0.125q0.375-0.125 0.625-0.375t0.625-0.375 0.75-0.25 0.5-0.5 0-0.75-0.5-0.5l-0.375-0.125v-0.5q0-0.5-0.125-0.875t-0.5-0.5l-0.375-0.125v-0.5q0-0.5-0.125-0.875t-0.375-0.625-0.5-0.5-0.5-0.25-0.5 0.25-0.5 0.5-0.375 0.625-0.25 0.75-0.375 0.625-0.375 0.625-0.125 0.875v0.5-0.75 0.25q0 0.25 0.03125 0.46875l0.03125 0.21875-0.03125-0.21875-0.39062 0.14062q-0.39062 0.14062-0.51562 0.51562t0 0.75 0.5 0.5 0.75 0.25 0.625 0.375 0.625 0.375l0.375 0.125-0.5625-0.1875 0.1875 0.0625q0.1875 0.0625 0.40625 0.09375l0.21875 0.03125-0.21875-0.03125-0.015625 0.51562q-0.015625 0.51562-0.015625 1.0156t-0.125 0.875-0.375 0.625-0.5 0.5-0.625 0.375-0.875 0.125-0.875-0.125-0.625-0.375-0.625-0.375-0.75 0-0.5 0.5 0 0.75 0.5 0.5 0.875 0.125 1 0 1 0 1 0 1 0 1 0 1 0 1 0 1 0 1 0 1 0m1.5-2.5v0.5h0.5q0.5 0 0.875-0.125t0.5-0.5 0.125-0.875 0-1-0.125-0.875-0.375-0.625-0.375-0.625-0.25-0.75-0.375-0.625-0.375-0.625-0.25-0.75-0.375-0.625-0.375-0.625-0.25-0.75-0.375-0.625-0.5-0.5-0.5-0.5-0.5-0.5-0.5-0.5-0.5-0.5-0.625-0.375-0.875-0.125-0.875 0.125-0.375 0.375 0.375 0.375 0.75 0.25 0.5 0.5 0.25 0.75 0.375 0.625 0.375 0.625 0.25 0.75 0.375 0.625 0.375 0.625 0.25 0.75 0.375 0.625 0.375 0.625 0.25 0.75 0.375 0.625 0.375 0.625 0.25 0.75 0.375 0.625 0.375 0.625 0.125 0.875m-3.5 0.5q0.5 0 0.875-0.125t0.5-0.5 0.125-0.875-0.125-0.875-0.5-0.5-0.875-0.125-0.875 0.125-0.5 0.5-0.125 0.875 0.125 0.875 0.5 0.5 0.875 0.125m-0.59375-6.0312 0.65625 0.21875-0.1875-0.0625q-0.1875-0.0625-0.375-0.125l-0.1875-0.0625 0.09375 0.03125m-1-2 0.65625 0.21875-0.1875-0.0625q-0.1875-0.0625-0.375-0.125l-0.1875-0.0625 0.09375 0.03125m-4.4062 8.0312q0.5 0 0.875-0.125t0.5-0.5 0.125-0.875-0.125-0.875-0.5-0.5-0.875-0.125-0.875 0.125-0.5 0.5-0.125 0.875 0.125 0.875 0.5 0.5 0.875 0.125m6 7q0.5 0 0.875-0.125t0.5-0.5 0.125-0.875-0.125-0.875-0.5-0.5-0.875-0.125-0.875 0.125-0.5 0.5-0.125 0.875 0.125 0.875 0.5 0.5 0.875 0.125m-6 0q0.5 0 0.875-0.125t0.5-0.5 0.125-0.875-0.125-0.875-0.5-0.5-0.875-0.125-0.875 0.125-0.5 0.5-0.125 0.875 0.125 0.875 0.5 0.5 0.875 0.125m14-9q0.5 0 0.875-0.125t0.5-0.5 0-0.75-0.375-0.625-0.5-0.5-0.625-0.375-0.875-0.125-0.875 0.125-0.375 0.375 0.25 0.5 0.375 0.625 0.25 0.75 0.5 0.5 0.875 0.125m2-3q0.5 0 0.875-0.125t0.5-0.5 0.125-0.875-0.125-0.875-0.5-0.5-0.875-0.125-0.875 0.125-0.5 0.5-0.125 0.875 0.125 0.875 0.5 0.5 0.875 0.125m-4-1q0.5 0 0.875-0.125t0.5-0.5 0-0.75-0.375-0.625-0.5-0.5-0.625-0.375-0.875-0.125-0.875 0.125-0.375 0.375 0.25 0.5 0.375 0.625 0.25 0.75 0.5 0.5 0.875 0.125m1.5-2.5q0.25 0.25 0.5 0.25t0.5-0.25 0.5-0.5 0.25-0.5-0.25-0.5-0.5-0.5-0.625-0.375-0.75-0.25-0.625-0.375-0.625-0.375-0.75-0.25-0.625-0.375-0.625-0.375-0.875-0.125-1 0-0.875 0.125-0.375 0.375 0.25 0.5 0.5 0.5 0.5 0.5 0.5 0.5 0.625 0.375 0.875 0.125 1 0 0.875 0.125 0.625 0.375 0.5 0.5 0.5 0.5m4.5 7.5q0.5 0 0.875-0.125t0.5-0.5 0.125-0.875-0.125-0.875-0.5-0.5-0.875-0.125-0.875 0.125-0.5 0.5-0.125 0.875 0.125 0.875 0.5 0.5 0.875 0.125m2 4q0.5 0 0.875-0.125t0.5-0.5 0.125-0.875-0.125-0.875-0.5-0.5-0.875-0.125-0.875 0.125-0.5 0.5-0.125 0.875 0.125 0.875 0.5 0.5 0.875 0.125"/>
  <path d="m16.125 0.375-0.125-0.375h12v14l-0.375-0.125q-0.375-0.125-0.5-0.5t-0.625-0.375-0.5-0.5 0-1 0-1-0.375-0.625-0.5-0.5-0.625-0.375-0.5-0.5 0-1 0-1-0.375-0.625-0.5-0.5-0.625-0.375-0.5-0.5-0.375-0.625-0.5-0.5-0.5-0.5-0.5-0.5-0.625-0.375-0.875-0.125-0.5-0.5-0.625-0.375-0.875-0.125-0.5-0.5" fill-opacity="0"/>
  <g>
   <path d="m8.25 1.5q0-0.25 0.375-0.375t0.875-0.125 0.875 0.125 0.625 0.375 0.5 0.5 0.5 0.5 0.5 0.5 0.5 0.5 0.5 0.5 0.375 0.625 0.25 0.75 0.375 0.625 0.375 0.625 0.25 0.75 0.375 0.625 0.375 0.625 0.25 0.75 0.375 0.625 0.375 0.625 0.125 0.875 0 1-0.125 0.875-0.5 0.5-0.875 0.125h-0.5v-0.5q0-0.5-0.125-0.875t-0.375-0.625-0.375-0.625-0.25-0.75-0.375-0.625-0.375-0.625-0.25-0.75-0.375-0.625-0.375-0.625-0.25-0.75-0.375-0.625-0.375-0.625-0.25-0.75-0.375-0.625-0.375-0.625-0.25-0.75-0.5-0.5-0.75-0.25-0.375-0.375" fill="#fff"/>
   <path d="m12.25 1.5q0-0.25 0.375-0.375t0.875-0.125 1 0 0.875 0.125 0.625 0.375 0.625 0.375 0.75 0.25 0.625 0.375 0.625 0.375 0.75 0.25 0.625 0.375 0.5 0.5 0.25 0.5-0.25 0.5-0.5 0.5-0.5 0.25-0.5-0.25-0.5-0.5-0.5-0.5-0.625-0.375-0.875-0.125-1 0-0.875-0.125-0.625-0.375-0.5-0.5-0.5-0.5-0.5-0.5-0.25-0.5" fill="#dc143c"/>
   <path d="m8 3.5q0.25-0.25 0.5-0.25t0.5 0.25 0.5 0.5 0.375 0.625l0.125 0.375-0.1875-0.5625 0.0625 0.1875q0.0625 0.1875 0.09375 0.40625l0.03125 0.21875-0.03125-0.21875-0.35938 0.10938q-0.35938 0.10938-0.35938 0.35938t0.375 0.375 0.75 0.25 0.5 0.5l0.125 0.375-0.1875-0.5625 0.0625 0.1875q0.0625 0.1875 0.09375 0.40625l0.03125 0.21875-0.03125-0.21875-0.35938 0.10938q-0.35938 0.10938-0.35938 0.35938t0.375 0.375 0.75 0.25 0.5 0.5l0.125 0.375-0.1875-0.5625 0.0625 0.1875q0.0625 0.1875 0.0625 0.375v0.1875-0.1875l-0.34375 0.125q-0.34375 0.125-0.46875 0.5l-0.125 0.375-0.375 0.125q-0.375 0.125-0.625 0.375t-0.625 0.375-0.875 0.125-0.875-0.125-0.625-0.375-0.625-0.375-0.75-0.25-0.5-0.5 0-0.75 0.51562-0.51562l0.39062-0.14062-0.03125-0.21875 0.03125 0.21875q0.03125 0.21875 0.09375 0.40625l0.0625 0.1875-0.1875-0.5625 0.125 0.375q0.125 0.375 0.375 0.375t0.375-0.375 0.125-0.875 0.125-0.875 0.375-0.625 0.25-0.5-0.375-0.375l-0.375-0.125 0.125-0.375q0.125-0.375 0.375-0.625t0.5-0.5m-0.90625 1.2188-0.15625 0.46875 0.0625-0.1875q0.0625-0.1875 0.125-0.375l0.0625-0.1875-0.09375 0.28125m0.15625 4.7812q0 0.25 0.25 0.25t0.25-0.25-0.25-0.25-0.25 0.25m1-2q0 0.25 0.25 0.25t0.25-0.25-0.25-0.25-0.25 0.25m1 2q0 0.25 0.25 0.25t0.25-0.25-0.25-0.25-0.25 0.25m1.4688 0.59375 0.46875-0.15625-0.1875 0.0625q-0.1875 0.0625-0.375 0.125l-0.1875 0.0625 0.28125-0.09375" fill="#ed2939"/>
   <path d="m6.875 5.375 0.125-0.375 0.375 0.125q0.375 0.125 0.375 0.375t-0.25 0.5-0.375 0.625-0.125 0.875-0.125 0.875-0.375 0.375-0.375-0.375-0.125-0.875 0.125-0.875 0.375-0.625 0.375-0.625m0.15625-0.46875-0.21875 0.65625 0.0625-0.1875q0.0625-0.1875 0.125-0.375l0.0625-0.1875-0.03125 0.09375" fill="#fff"/>
   <path d="m9.25 5.5q0-0.25 0.35938-0.35938l0.35938-0.10938-0.03125-0.21875 0.03125 0.21875q0.03125 0.21875 0.03125 0.46875v0.25-0.75 1l-0.375-0.125q-0.375-0.125-0.375-0.375m0.46875 0.40625 0.46875 0.15625-0.1875-0.0625q-0.1875-0.0625-0.375-0.125l-0.1875-0.0625 0.28125 0.09375" fill="#fff"/>
   <path d="m15.25 5.5q0-0.25 0.375-0.375t0.875-0.125 0.875 0.125 0.625 0.375 0.5 0.5 0.375 0.625 0 0.75-0.5 0.5-0.875 0.125-0.875-0.125-0.5-0.5-0.25-0.75-0.375-0.625-0.25-0.5" fill="#009530"/>
  </g>
  <g fill="#fff">
   <path d="m20.125 6.625q0.125-0.375 0.5-0.5t0.875-0.125 0.875 0.125 0.5 0.5 0.125 0.875-0.125 0.875-0.5 0.5-0.875 0.125-0.875-0.125-0.5-0.5-0.125-0.875 0.125-0.875"/>
   <path d="m8.25 7.5q0-0.25 0.25-0.25t0.25 0.25-0.25 0.25-0.25-0.25"/>
   <path d="m10.25 7.5q0-0.25 0.35938-0.35938l0.35938-0.10938-0.03125-0.21875 0.03125 0.21875q0.03125 0.21875 0.03125 0.46875v0.25-0.75 1l-0.375-0.125q-0.375-0.125-0.375-0.375m0.46875 0.40625 0.46875 0.15625-0.1875-0.0625q-0.1875-0.0625-0.375-0.125l-0.1875-0.0625 0.28125 0.09375"/>
   <path d="m7.25 9.5q0-0.25 0.25-0.25t0.25 0.25-0.25 0.25-0.25-0.25"/>
   <path d="m9.25 9.5q0-0.25 0.25-0.25t0.25 0.25-0.25 0.25-0.25-0.25"/>
   <path d="m11.125 9.625q0.125-0.375 0.46875-0.5l0.34375-0.125v-0.1875 0.1875q0 0.1875-0.0625 0.375l-0.0625 0.1875 0.1875-0.5625-0.125 0.375q-0.125 0.375-0.5 0.5l-0.375 0.125 0.125-0.375m-0.21875 0.40625 0.65625-0.21875-0.1875 0.0625q-0.1875 0.0625-0.375 0.125l-0.1875 0.0625 0.09375-0.03125"/>
  </g>
  <path d="m17.25 9.5q0-0.25 0.375-0.375t0.875-0.125 0.875 0.125 0.625 0.375 0.5 0.5 0.375 0.625 0 0.75-0.5 0.5-0.875 0.125-0.875-0.125-0.5-0.5-0.25-0.75-0.375-0.625-0.25-0.5" fill="#fecd21"/>
  <g fill="#fff">
   <path d="m22.125 10.625q0.125-0.375 0.5-0.5t0.875-0.125 0.875 0.125 0.5 0.5 0.125 0.875-0.125 0.875-0.5 0.5-0.875 0.125-0.875-0.125-0.5-0.5-0.125-0.875 0.125-0.875"/>
   <path d="m4.125 11.625q0.125-0.375 0.5-0.5t0.875-0.125 0.875 0.125 0.5 0.5 0.125 0.875-0.125 0.875-0.5 0.5-0.875 0.125-0.875-0.125-0.5-0.5-0.125-0.875 0.125-0.875"/>
   <path d="m8.0156 11.484 0.015625-0.51562-0.21875-0.03125 0.21875 0.03125q0.21875 0.03125 0.46875 0.03125h0.25-0.75 1-0.75 0.25q0.25 0 0.46875-0.03125l0.21875-0.03125-0.21875 0.03125 0.015625 0.51562q0.015625 0.51562 0.015625 1.0156t0.125 0.875 0.375 0.625 0.5 0.5 0.625 0.375 0.875 0.125 0.875-0.125 0.625-0.375 0.625-0.375 0.875-0.125h0.5v0.5q0 0.5-0.125 0.875t-0.5 0.5-0.875 0.125-1 0-1 0-1 0-1 0-1 0-1 0-1 0-1 0-1 0-1 0-0.875-0.125-0.5-0.5 0-0.75 0.5-0.5 0.75 0 0.625 0.375 0.625 0.375 0.875 0.125 0.875-0.125 0.625-0.375 0.5-0.5 0.375-0.625 0.125-0.875 0.015625-1.0156"/>
   <path d="m10.125 11.625q0.125-0.375 0.5-0.5t0.875-0.125 0.875 0.125 0.5 0.5 0.125 0.875-0.125 0.875-0.5 0.5-0.875 0.125-0.875-0.125-0.5-0.5-0.125-0.875 0.125-0.875"/>
  </g>
  <path d="m18 13.5q0-0.5 0.5-0.5t1 0 1 0 0.875 0.125 0.5 0.5 0.625 0.375 0.5 0.5 0 1 0 1 0.375 0.625 0.5 0.5 0.625 0.375 1 0 1 0 0.625-0.375 0.5-0.5l0.375-0.125v11h-16v-0.5q0-0.5 0.5-0.5t0.625-0.375 0.5-0.5 0.875-0.125 0.5-0.5 0.5-0.5 0.5-0.5 0.125-0.875 0.5-0.5 0.375-0.625 0-1 0-1 0-1-0.375-0.625-0.5-0.5 0.375-0.375 0.5-0.5 0-1-0.375-0.625-0.5-0.5 0.375-0.375 0.625-0.375 0.5-0.5 0.375-0.625" fill-opacity="0"/>
  <g fill="#fff">
   <path d="m24.125 14.625q0.125-0.375 0.5-0.5t0.875-0.125 0.875 0.125 0.5 0.5 0.125 0.875-0.125 0.875-0.5 0.5-0.875 0.125-0.875-0.125-0.5-0.5-0.125-0.875 0.125-0.875"/>
   <path d="m1.25 16.5q0-0.25 0.25-0.25t0.25 0.25-0.25 0.25-0.25-0.25"/>
   <path d="m15.25 16.5q0-0.25 0.25-0.25t0.25 0.25-0.25 0.25-0.25-0.25"/>
  </g>
  <g fill="#239f40">
   <path d="m2.125 17.625q0.125-0.375 0.5-0.5t0.75 0 0.375 0.375-0.375 0.375l-0.375 0.125 0.5625-0.1875-0.1875 0.0625q-0.1875 0.0625-0.28125 0.21875l-0.09375 0.15625 0.09375-0.15625-1.0625-0.0625-0.03125 0.21875 0.03125-0.21875q0.03125-0.21875 0.09375-0.40625l0.0625-0.1875-0.1875 0.5625 0.125-0.375"/>
   <path d="m7.25 17.5q0-0.25 0.375-0.375t0.875-0.125 0.875 0.125 0.375 0.375-0.375 0.375l-0.375 0.125 0.5625-0.1875-0.1875 0.0625q-0.1875 0.0625-0.28125 0.21875l-0.09375 0.15625 0.09375-0.15625h-1.1875l0.09375 0.15625-0.09375-0.15625q-0.09375-0.15625-0.28125-0.21875l-0.1875-0.0625 0.5625 0.1875-0.375-0.125q-0.375-0.125-0.375-0.375"/>
   <path d="m13.25 17.5q0-0.25 0.375-0.375t0.75 0 0.5 0.5l0.125 0.375-0.1875-0.5625 0.0625 0.1875q0.0625 0.1875 0.09375 0.40625l0.03125 0.21875-0.03125-0.21875-1.0625 0.0625 0.04687 0.07813 0.04688 0.07812-0.09375-0.15625q-0.09375-0.15625-0.28125-0.21875l-0.1875-0.0625 0.5625 0.1875-0.375-0.125q-0.375-0.125-0.375-0.375"/>
  </g>
  <path d="m0 18.5v-0.5h0.5q0.5 0 0.375 0.375t-0.5 0.5l-0.375 0.125v-0.5" fill-opacity="0"/>
  <g>
   <path d="m2 18.5v-0.5 0.75-0.25q0-0.25 0.03125-0.46875l0.03125-0.21875-0.03125 0.21875 1.0625 0.0625 0.09375-0.15625-0.09375 0.15625q-0.09375 0.15625-0.09375 0.40625v0.25-0.75 1l-1.0938-0.09375-0.09375 0.15625 0.09375-0.15625q0.09375-0.15625 0.09375-0.40625v-0.25 0.75-0.5m1 0.625v-0.875 0.25q0 0.25 0 0.5v0.25-0.125" fill="#97d2a5"/>
   <path d="m4.125 18.625q0.125-0.375 0.5-0.5t0.875-0.125 0.875 0.125 0.5 0.5 0.125 0.875-0.125 0.875-0.5 0.5-0.875 0.125-0.875-0.125-0.5-0.5-0.125-0.875 0.125-0.875" fill="#fff"/>
   <path d="m8 18.5v-0.5 0.75-0.25q0-0.25-0.09375-0.40625l-0.09375-0.15625 0.09375 0.15625h1.1875l0.09375-0.15625-0.09375 0.15625q-0.09375 0.15625-0.09375 0.40625v0.25-0.75 1h-1v-0.5m0 0.125v0.625-0.25q0-0.25 0-0.5v-0.25 0.375m1 0.5v-0.875 0.25q0 0.25 0 0.5v0.25-0.125" fill="#97d2a5"/>
   <path d="m10.125 18.625q0.125-0.375 0.5-0.5t0.875-0.125 0.875 0.125 0.5 0.5 0.125 0.875-0.125 0.875-0.5 0.5-0.875 0.125-0.875-0.125-0.5-0.5-0.125-0.875 0.125-0.875" fill="#fff"/>
   <path d="m14 18.5v-0.5 0.75-0.25q0-0.25-0.09375-0.40625l-0.09375-0.15625 0.09374 0.15626 1.0625-0.0625-0.03126-0.21875 0.03125 0.21875q0.03127 0.21874 0.03127 0.46874v0.25-0.75 1-0.75 0.25q0 0.25 0.09375 0.40625l0.09375 0.15625-0.09374-0.15626-1.0938 0.09376v-0.5m0 0.125v0.625-0.25q0-0.25 0-0.5v-0.25 0.375" fill="#97d2a5"/>
  </g>
  <g fill="#fff">
   <path d="m1.125 19.625q0.125-0.375 0.5-0.5l0.375-0.125-0.5625 0.1875 0.1875-0.0625q0.1875-0.0625 0.28125-0.21875l0.09375-0.15625-0.09375 0.15625 1.0938 0.09375v0.5q0 0.5 0.125 0.875t0.375 0.625 0.5 0.5 0.625 0.375 0.875 0.125 0.875-0.125 0.625-0.375 0.60938-0.39062l0.35938-0.14062 0.03125-0.21875-0.03125 0.21875q-0.03125 0.21875-0.09375 0.40625l-0.0625 0.1875 0.1875-0.5625-0.125 0.375q-0.125 0.375-0.375 0.625t-0.25 0.5 0.375 0.375l0.375 0.125-0.5625-0.1875 0.1875 0.0625q0.1875 0.0625 0.40625 0.09375l0.21875 0.03125-0.21875-0.03125-0.03125 1.0312h-1l-0.125-0.375q-0.125-0.375-0.375-0.375t-0.375 0.375l-0.125 0.375h-1l-0.125-0.375q-0.125-0.375-0.375-0.375t-0.375 0.375l-0.125 0.375h-1l-0.125-0.375q-0.125-0.375-0.53125-0.46875l-0.40625-0.09375 0.125 0.125-0.125-0.125q-0.125-0.125-0.3125-0.1875l-0.1875-0.0625 0.5625 0.1875-0.375-0.125q-0.375-0.125-0.5-0.5t-0.125-0.875 0-1 0.125-0.875m2.5 4.375h0.625-0.25q-0.25 0-0.5 0h-0.25 0.375m1.25 0h0.875-0.25q-0.25 0-0.5 0h-0.25 0.125m0.75 0h0.625-0.25q-0.25 0-0.5 0h-0.25 0.375m1.25 0h0.875-0.25q-0.25 0-0.5 0h-0.25 0.125m0.75 0h0.625-0.25q-0.25 0-0.5 0h-0.25 0.375m-4.625-4.625v-0.625 0.25q0 0.25 0 0.5v0.25-0.375"/>
   <path d="m8 19.5v-0.5h1v1h-1v-0.5m0 0.125v0.625-0.25q0-0.25 0-0.5v-0.25 0.375m1 0.5v-0.875 0.25q0 0.25 0 0.5v0.25-0.125m0-0.75v-0.625 0.25q0 0.25 0 0.5v0.25-0.375m-1-0.5v0.875-0.25q0-0.25 0-0.5v-0.25 0.125"/>
   <path d="m14 19.5v-0.5l1.0938-0.09374-0.04687-0.07813-0.04688-0.07813 0.09375 0.15625q0.09375 0.15625 0.28125 0.21875l0.1875 0.0625-0.5625-0.1875 0.375 0.125q0.375 0.125 0.5 0.5t0.125 0.875 0 1-0.125 0.875-0.5 0.5l-0.375 0.125 0.5625-0.1875-0.1875 0.0625q-0.1875 0.0625-0.3125 0.1875l-0.125 0.125 0.125-0.125-0.40625 0.09375q-0.40625 0.09375-0.53125 0.46875l-0.125 0.375h-1l-0.125-0.375q-0.125-0.375-0.375-0.375t-0.375 0.375l-0.125 0.375h-1l-0.125-0.375q-0.125-0.375-0.375-0.375t-0.375 0.375l-0.125 0.375h-1l-0.03125-1.0312-0.21875 0.03125 0.21875-0.03125q0.21875-0.03125 0.40625-0.09375l0.1875-0.0625-0.5625 0.1875 0.375-0.125q0.375-0.125 0.375-0.375t-0.25-0.5-0.375-0.625l-0.125-0.375 0.1875 0.5625-0.0625-0.1875q-0.0625-0.1875-0.09375-0.40625l-0.03125-0.21875 0.03125 0.21875 0.35938 0.14062q0.35938 0.14062 0.60938 0.39062t0.625 0.375 0.875 0.125 0.875-0.125 0.625-0.375 0.5-0.5 0.375-0.625 0.125-0.875m-5.125 4.5h0.875-0.25q-0.25 0-0.5 0h-0.25 0.125m0.75 0h0.625-0.25q-0.25 0-0.5 0h-0.25 0.375m1.25 0h0.875-0.25q-0.25 0-0.5 0h-0.25 0.125m0.75 0h0.625-0.25q-0.25 0-0.5 0h-0.25 0.375m1.25 0h0.875-0.25q-0.25 0-0.5 0h-0.25 0.125m1.125-5.125v0.875-0.25q0-0.25 0-0.5v-0.25 0.125"/>
  </g>
  <path d="m8 20.5v-0.5h1v0.5q0 0.5 0.125 0.875t0.375 0.625 0.25 0.5-0.375 0.375-0.875 0.125-0.875-0.125-0.375-0.375 0.25-0.5 0.375-0.625 0.125-0.875m1-0.125v-0.625 0.25q0 0.25 0 0.5v0.25-0.375m-1-0.5v0.875-0.25q0-0.25 0-0.5v-0.25 0.125" fill="#da0000"/>
  <path d="m0 23.5v-0.5l0.375 0.125q0.375 0.125 0.5 0.5t0.125 0.875 0.5 0.5 0.5 0.5 0.5 0.5 0.875 0.125 0.5 0.5 0.625 0.375 0.5 0.5v0.5h-5v-4.5" fill-opacity="0"/>
  <g fill="#ec7f7f">
   <path d="m2.125 23.375-0.125-0.375 0.1875 0.5625-0.0625-0.1875q-0.0625-0.1875-0.1875-0.3125l-0.125-0.125 0.125 0.125 0.40625 0.09375q0.40625 0.09375 0.53125 0.46875l0.125 0.375-0.375-0.125q-0.375-0.125-0.5-0.5"/>
   <path d="m4.125 23.625q0.125-0.375 0.375-0.375t0.375 0.375l0.125 0.375h-1l0.125-0.375m-0.25 0.375h0.875-0.25q-0.25 0-0.5 0h-0.25 0.125m0.75 0h0.625-0.25q-0.25 0-0.5 0h-0.25 0.375"/>
   <path d="m6.125 23.625q0.125-0.375 0.375-0.375t0.375 0.375l0.125 0.375h-1l0.125-0.375m-0.25 0.375h0.875-0.25q-0.25 0-0.5 0h-0.25 0.125m0.75 0h0.625-0.25q-0.25 0-0.5 0h-0.25 0.375"/>
   <path d="m8.0156 23.484 0.015625-0.51562-0.21875-0.03125 0.21875 0.03125q0.21875 0.03125 0.46875 0.03125h0.25-0.75 1-0.75 0.25q0.25 0 0.46875-0.03125l0.21875-0.03125-0.21875 0.03125 0.03125 1.0312h-1l0.015625-0.51562m-0.14062 0.51562h0.875-0.25q-0.25 0-0.5 0h-0.25 0.125m0.75 0h0.625-0.25q-0.25 0-0.5 0h-0.25 0.375"/>
   <path d="m10.125 23.625q0.125-0.375 0.375-0.375t0.375 0.375l0.125 0.375h-1l0.125-0.375m-0.25 0.375h0.875-0.25q-0.25 0-0.5 0h-0.25 0.125m0.75 0h0.625-0.25q-0.25 0-0.5 0h-0.25 0.375"/>
   <path d="m12.125 23.625q0.125-0.375 0.375-0.375t0.375 0.375l0.125 0.375h-1l0.125-0.375m-0.25 0.375h0.875-0.25q-0.25 0-0.5 0h-0.25 0.125m0.75 0h0.625-0.25q-0.25 0-0.5 0h-0.25 0.375"/>
   <path d="m14.125 23.625q0.125-0.375 0.53125-0.46875l0.40625-0.09375 0.125-0.125-0.125 0.125q-0.125 0.125-0.1875 0.3125l-0.0625 0.1875 0.1875-0.5625-0.125 0.375q-0.125 0.375-0.5 0.5l-0.375 0.125 0.125-0.375"/>
  </g>
  <path d="m3.125 24.375-0.125-0.375h0.5q0.5 0 1 0t1 0 1 0 1 0 1 0 1 0 1 0 1 0 1 0 1 0h0.5l-0.125 0.375q-0.125 0.375-0.375 0.625t-0.5 0.5-0.625 0.375-0.75 0.25-0.625 0.375-0.625 0.375-0.875 0.125-1 0-1 0-0.875-0.125-0.625-0.375-0.625-0.375-0.75-0.25-0.625-0.375-0.5-0.5-0.375-0.625" fill="#da0000"/>
 </g>
</svg>
