<svg width="17" height="25" version="1.1" viewBox="0 0 17 25" xmlns="http://www.w3.org/2000/svg">
 <g transform="translate(0)">
  <path d="m0 0.5v-0.5h13l-0.125 0.375q-0.125 0.375-0.5 0.5t-0.375 0.625-0.5 0.5-1 0-0.625 0.375-0.5 0.5-0.875 0.125-0.625 0.375-0.5 0.5-0.875 0.125-0.625 0.375-0.5 0.5-0.5 0.5-0.5 0.5-0.5 0.5-0.5 0.5-0.5 0.5-0.5 0.5-0.5 0.5-0.5 0.5-0.375 0.625 0 1 0 1-0.5 0.5h-0.5v-11.5" fill-opacity="0"/>
  <path d="m12.875 0.375 0.125-0.375h3l0.125 0.375q0.125 0.375 0.5 0.5l0.375 0.125v3l-0.375 0.125q-0.375 0.125-0.5 0.5t-0.625 0.375-1 0-0.875 0.125-0.5 0.5 0 0.75 0.5 0.5 0.5 0.5 0.5 0.5 0.5 0.5 0.5 0.5 0.375 0.625 0 1 0 1 0.5 0.5h0.5v3h-0.5q-0.5 0-0.375 0.375t0.5 0.5l0.375 0.125v4l-0.375 0.125q-0.375 0.125-0.5 0.5t-0.125 0.875-0.5 0.5-0.5 0.5-0.5 0.5-0.875 0.125-0.5 0.5-0.625 0.375-0.5 0.5v0.5h-7v-0.5q0-0.5-0.5-0.5t-0.625-0.375-0.5-0.5-0.875-0.125-0.5-0.5-0.5-0.5-0.5-0.5-0.125-0.875-0.5-0.5l-0.375-0.125v-4l0.375-0.125q0.375-0.125 0.5-0.5t-0.375-0.375h-0.5v-3h0.5q0.5 0 0.5-0.5t0-1 0-1 0.375-0.625 0.5-0.5 0.5-0.5 0.5-0.5 0.5-0.5 0.5-0.5 0.5-0.5 0.5-0.5 0.5-0.5 0.5-0.5 0.625-0.375 0.875-0.125 0.5-0.5 0.625-0.375 0.875-0.125 0.5-0.5 0.625-0.375 1 0 0.5-0.5 0.375-0.625 0.5-0.5m-10.625 20.125q0 0.25 0.25 0.25t0.25-0.25-0.25-0.25-0.25 0.25m7.25 3.5q0.5 0 0.875-0.125t0.625-0.375 0.6875-0.4375l0.4375-0.1875-0.125-0.125 0.125 0.125q0.125 0.125 0.375 0.125h0.25-0.75l0.375-0.125q0.375-0.125 0.625-0.375t0.5-0.5 0.25-0.5-0.25-0.5-0.25-0.5 0.25-0.5 0.5-0.5 0.5-0.25 0.5 0.25 0.5 0.25 0.375-0.375 0-0.75-0.375-0.625-0.25-0.5 0.25-0.5 0.25-0.5-0.25-0.5-0.375-0.625 0-0.75 0.375-0.625 0.25-0.5-0.25-0.5-0.375-0.625-0.25-0.75-0.5-0.5-0.75-0.25-0.625-0.375-0.625-0.375-0.875-0.125-1 0-1 0-1 0-1 0-1 0-1 0-0.875 0.125-0.625 0.375-0.625 0.375-0.75 0.25-0.5 0.5-0.25 0.75-0.375 0.625-0.25 0.5 0.25 0.5 0.375 0.625 0 0.75-0.375 0.625-0.25 0.5 0.25 0.5 0.25 0.5-0.25 0.5-0.375 0.625 0 0.75 0.375 0.375 0.5-0.25 0.5-0.25 0.5 0.25 0.5 0.5 0.25 0.5-0.25 0.5-0.25 0.5 0.25 0.5 0.5 0.5 0.625 0.375l0.375 0.125h-0.75 0.25q0.25 0 0.375-0.125l0.125-0.125-0.125 0.125 0.4375 0.1875q0.4375 0.1875 0.6875 0.4375t0.625 0.375 0.875 0.125 1 0 1 0m4.75-3.5q0 0.25 0.25 0.25t0.25-0.25-0.25-0.25-0.25 0.25m-0.625-10.625q0.375 0.125 0.75 0t0.375-0.375-0.25-0.5-0.5-0.5-0.5-0.5-0.5-0.5-0.5-0.5-0.375-0.625 0-0.75 0.375-0.625 0.25-0.5-0.25-0.5-0.5-0.5-0.625-0.375-0.75 0-0.625 0.375-0.625 0.375-0.75 0.25-0.625 0.375-0.625 0.375-0.75 0.25-0.625 0.375-0.5 0.5-0.5 0.5-0.5 0.5-0.5 0.5-0.5 0.5-0.5 0.5-0.5 0.5-0.25 0.5 0.375 0.375 0.75 0 0.625-0.375 0.625-0.375 0.875-0.125 1 0 1 0 1 0 1 0 1 0 1 0 0.875 0.125 0.625 0.375 0.625 0.375m0.875-5.875q0.5 0 0.875-0.125t0.5-0.5 0.125-0.875-0.125-0.875-0.5-0.5-0.875-0.125-0.875 0.125-0.5 0.5-0.125 0.875 0.125 0.875 0.5 0.5 0.875 0.125"/>
  <path d="m16.125 0.375-0.125-0.375h1v1l-0.375-0.125q-0.375-0.125-0.5-0.5" fill-opacity="0"/>
  <path d="m13.125 1.625q0.125-0.375 0.5-0.5t0.875-0.125 0.875 0.125 0.5 0.5 0.125 0.875-0.125 0.875-0.5 0.5-0.875 0.125-0.875-0.125-0.5-0.5-0.125-0.875 0.125-0.875" fill="#fff"/>
  <path d="m10 3.5q0.25-0.25 0.625-0.375t0.75 0 0.625 0.375 0.5 0.5 0.25 0.5-0.25 0.5-0.375 0.625 0 0.75 0.375 0.625 0.5 0.5 0.5 0.5 0.5 0.5 0.5 0.5 0.25 0.5-0.375 0.375-0.75 0-0.625-0.375-0.625-0.375-0.875-0.125-1 0-1 0-1 0-1 0-1 0-1 0-0.875 0.125-0.625 0.375-0.625 0.375-0.75 0-0.375-0.375 0.25-0.5 0.5-0.5 0.5-0.5 0.5-0.5 0.5-0.5 0.5-0.5 0.5-0.5 0.5-0.5 0.625-0.375 0.75-0.25 0.625-0.375 0.625-0.375 0.75-0.25 0.625-0.375" fill="#fecd21"/>
  <path d="m16.125 4.625q0.125-0.375 0.5-0.5l0.375-0.125v8h-0.5q-0.5 0-0.5-0.5t0-1 0-1-0.375-0.625-0.5-0.5-0.5-0.5-0.5-0.5-0.5-0.5-0.5-0.5 0-0.75 0.5-0.5 0.875-0.125 1 0 0.625-0.375" fill-opacity="0"/>
  <g>
   <path d="m4 10.5q0.25-0.25 0.625-0.375t0.875-0.125 1 0 1 0 1 0 1 0 1 0 1 0 0.875 0.125 0.625 0.375 0.625 0.375 0.75 0.25 0.5 0.5 0.25 0.75 0.375 0.625 0.25 0.5-0.25 0.5-0.375 0.625 0 0.75 0.375 0.625 0.25 0.5-0.25 0.5-0.25 0.5 0.25 0.5 0.375 0.625 0 0.75-0.375 0.375-0.5-0.25-0.5-0.25-0.5 0.25-0.5 0.5-0.25 0.5 0.25 0.5 0.25 0.5-0.25 0.5-0.5 0.5-0.625 0.375-0.375-0.375 0-1 0-1 0-1 0.375-0.625 0.625-0.375 0.5-0.5 0.5-0.5 0.5-0.5 0.25-0.5-0.25-0.5-0.5-0.5-0.5-0.25-0.375 0.375-0.125 0.875-0.125 0.875-0.5 0.5-0.875 0.125-0.875-0.125-0.5-0.5-0.125-0.875 0.125-0.875 0.5-0.5 0.875-0.125 0.875-0.125 0.625-0.375 0.625-0.375 0.75-0.25 0.375-0.375-0.375-0.375-0.875-0.125-1 0-1 0-1 0-1 0-1 0-1 0-1 0-1 0-1 0-1 0-0.875 0.125-0.375 0.375 0.375 0.375 0.75 0.25 0.625 0.375 0.625 0.375 0.875 0.125 0.875 0.125 0.5 0.5 0.125 0.875-0.125 0.875-0.5 0.5-0.875 0.125-0.875-0.125-0.5-0.5-0.125-0.875-0.125-0.875-0.375-0.375-0.5 0.25-0.5 0.5-0.25 0.5 0.25 0.5 0.5 0.5 0.5 0.5 0.5 0.5 0.625 0.375 0.375 0.625 0 1 0 1 0 1-0.375 0.375-0.625-0.375-0.5-0.5-0.25-0.5 0.25-0.5 0.25-0.5-0.25-0.5-0.5-0.5-0.5-0.25-0.5 0.25-0.5 0.25-0.375-0.375 0-0.75 0.375-0.625 0.25-0.5-0.25-0.5-0.25-0.5 0.25-0.5 0.375-0.625 0-0.75-0.375-0.625-0.25-0.5 0.25-0.5 0.375-0.625 0.25-0.75 0.5-0.5 0.75-0.25 0.625-0.375" fill="#fff"/>
   <path d="m2.25 13.5q0-0.25 0.375-0.375t0.875-0.125 1 0 1 0 1 0 1 0 1 0 1 0 1 0 1 0 1 0 1 0 0.875 0.125 0.375 0.375-0.375 0.375-0.75 0.25-0.625 0.375-0.625 0.375-0.875 0.125-0.875 0.125-0.5 0.5-0.125 0.875 0.125 0.875 0.5 0.5 0.875 0.125 0.875-0.125 0.5-0.5 0.125-0.875 0.125-0.875 0.375-0.375 0.5 0.25 0.5 0.5 0.25 0.5-0.25 0.5-0.5 0.5-0.5 0.5-0.5 0.5-0.625 0.375l-0.375 0.125 0.5625-0.1875-0.1875 0.0625q-0.1875 0.0625-0.28125 0.21875l-0.09375 0.15625 0.09374-0.15626-0.54688-0.04687q-0.54686-0.04687-0.92186-0.17187t-0.625-0.375-0.6875-0.4375l-0.4375-0.1875-0.125 0.125 0.125-0.125q0.125-0.125 0.125-0.375v-0.25 0.75-0.5q0-0.5 0-1t0.125-0.875 0.375-0.625 0.25-0.5-0.375-0.375-0.875-0.125-0.875 0.125-0.375 0.375 0.25 0.5 0.375 0.625 0.125 0.875 0 1v0.5-0.75 0.25q0 0.25 0.125 0.375l0.125 0.125-0.125-0.125-0.4375 0.1875q-0.4375 0.1875-0.6875 0.4375t-0.625 0.375-0.92188 0.17188l-0.54688 0.046875 0.09375 0.15625-0.09375-0.15625q-0.09375-0.15625-0.28125-0.21875l-0.1875-0.0625 0.5625 0.1875-0.375-0.125q-0.375-0.125-0.625-0.375t-0.5-0.5-0.5-0.5-0.5-0.5-0.25-0.5 0.25-0.5 0.5-0.5 0.5-0.25 0.375 0.375 0.125 0.875 0.125 0.875 0.5 0.5 0.875 0.125 0.875-0.125 0.5-0.5 0.125-0.875-0.125-0.875-0.5-0.5-0.875-0.125-0.875-0.125-0.625-0.375-0.625-0.375-0.75-0.25-0.375-0.375"/>
   <path d="m7.25 14.5q0-0.25 0.375-0.375t0.875-0.125 0.875 0.125 0.375 0.375-0.25 0.5-0.375 0.625-0.125 0.875 0 1-0.5 0.5-0.5-0.5 0-1-0.125-0.875-0.375-0.625-0.25-0.5" fill="#fff"/>
  </g>
  <path d="m0 15.5v-0.5h0.5q0.5 0 0.375 0.375t-0.5 0.5l-0.375 0.125v-0.5" fill-opacity="0"/>
  <path d="m16.125 15.375q-0.125-0.375 0.375-0.375h0.5v1l-0.375-0.125q-0.375-0.125-0.5-0.5" fill-opacity="0"/>
  <path d="m7 18.5q0.25-0.25 0.6875-0.4375l0.4375-0.1875-0.125-0.125 0.125 0.125q0.125 0.125 0.375 0.125h0.25-0.75 1-0.75 0.25q0.25 0 0.375-0.125l0.125-0.125-0.125 0.125 0.4375 0.1875q0.4375 0.1875 0.6875 0.4375t0.625 0.375 0.92188 0.17188l0.54688 0.04687 0.09374-0.15626-0.09375 0.15625q-0.09374 0.15626-0.09374 0.40626v0.25-0.75 0.5q0 0.5 0 1v0.5l-0.375-0.125q-0.375-0.125-0.625-0.375t-0.625-0.375-0.75 0-0.625 0.375-0.5 0.5-0.5 0.5-0.625 0.375-0.75 0-0.625-0.375-0.625-0.375l-0.375-0.125v-0.5q0-0.5 0-1v-0.5 0.75-0.25q0-0.25-0.09375-0.40625l-0.09375-0.15625 0.09375 0.15626 0.54688-0.04687q0.54688-0.04689 0.92188-0.17189t0.625-0.375m-2 2.125v0.625-0.25q0-0.25 0-0.5v-0.25 0.375m7 0.5v-0.875 0.25q0 0.25 0 0.5v0.25-0.125" fill="#c60c30"/>
  <path d="m0 20.5v-0.5l0.375 0.125q0.375 0.125 0.5 0.5t0.125 0.875 0.5 0.5 0.5 0.5 0.5 0.5 0.875 0.125 0.5 0.5 0.625 0.375 0.5 0.5v0.5h-5v-4.5" fill-opacity="0"/>
  <g>
   <path d="m2.25 20.5q0-0.25 0.25-0.25t0.25 0.25-0.25 0.25-0.25-0.25" fill="#fff"/>
   <path d="m9 20.5q0.25-0.25 0.625-0.375t0.75 0 0.625 0.375 0.625 0.375l0.375 0.125v0.5q0 0.5 0 1v0.5-0.75 0.25q0 0.25 0.125 0.375l0.125 0.125-0.125-0.125-0.4375 0.1875q-0.4375 0.1875-0.6875 0.4375t-0.625 0.375-0.875 0.125-1 0-1 0-0.875-0.125-0.625-0.375-0.6875-0.4375l-0.4375-0.1875-0.125 0.125 0.125-0.125q0.125-0.125 0.125-0.375v-0.25 0.75-0.5q0-0.5 0-1v-0.5l0.375 0.125q0.375 0.125 0.625 0.375t0.625 0.375 0.75 0 0.625-0.375 0.5-0.5 0.5-0.5m-4 0.375v0.875-0.25q0-0.25 0-0.5v-0.25 0.125m7 0.5v-0.625 0.25q0 0.25 0 0.5v0.25-0.375" fill="#003478"/>
   <path d="m14.25 20.5q0-0.25 0.25-0.25t0.25 0.25-0.25 0.25-0.25-0.25" fill="#fff"/>
  </g>
  <path d="m16.125 20.625q0.125-0.375 0.5-0.5l0.375-0.125v5h-5v-0.5q0-0.5 0.5-0.5t0.625-0.375 0.5-0.5 0.875-0.125 0.5-0.5 0.5-0.5 0.5-0.5 0.125-0.875" fill-opacity="0"/>
 </g>
</svg>
