<svg width="31" height="25" version="1.1" viewBox="0 0 31 25" xmlns="http://www.w3.org/2000/svg">
 <g transform="translate(0)">
  <path d="m0 0.5v-0.5h14l-0.125 0.375q-0.125 0.375-0.5 0.5t-0.375 0.625-0.125 0.875-0.5 0.5-0.375 0.625-0.125 0.875-0.5 0.5-0.75 0-0.5-0.5-0.625-0.375-0.875-0.125-0.5-0.5-0.625-0.375-1 0-1 0-0.625 0.375-0.5 0.5-0.875 0.125-0.625 0.375-0.5 0.5-0.375 0.625-0.5 0.5-0.625 0.375-0.5 0.5l-0.375 0.125v-6.5" fill-opacity="0"/>
  <path d="m13.875 0.375 0.125-0.375h3l0.125 0.375q0.125 0.375 0.5 0.5t0.375 0.625 0.125 0.875 0.5 0.5 0.375 0.625 0.125 0.875 0.5 0.5 0.875 0.125h0.5v0.5q0 0.5-0.5 0.5t-0.5 0.5 0 1 0 1 0.125 0.875 0.5 0.5 0.875 0.125 0.5-0.5 0-1 0.5-0.5h0.5v0.5q0 0.5 0 1t0 1 0 1 0.5 0.5 0.5 0.5 0 1 0 1-0.5 0.5-0.375 0.375 0.5 0.5 0.375 0.625 0 1 0 1 0 1-0.375 0.625-0.5 0.5-0.125 0.875-0.5 0.5-0.5 0.5-0.5 0.5-0.875 0.125-0.5 0.5-0.625 0.375-0.5 0.5v0.5h-7v-0.5q0-0.5-0.5-0.5t-0.625-0.375-0.5-0.5-0.875-0.125-0.5-0.5-0.5-0.5-0.5-0.5-0.125-0.875-0.5-0.5-0.375-0.625 0-1 0-1 0-1 0.375-0.625 0.5-0.5-0.375-0.375-0.5-0.5 0-1 0-1 0.5-0.5 0.5-0.5 0-1 0-1-0.125-0.875-0.5-0.5-0.5-0.5-0.5-0.5-0.75 0-0.5 0.5-0.125 0.875 0 1-0.375 0.625-0.5 0.5-0.625 0.375-1 0-1 0-0.625-0.375-0.5-0.5l-0.375-0.125v-3l0.375-0.125q0.375-0.125 0.5-0.5t0.625-0.375 0.5-0.5 0.375-0.625 0.5-0.5 0.625-0.375 0.875-0.125 0.5-0.5 0.625-0.375 1 0 1 0 0.625 0.375 0.5 0.5 0.875 0.125 0.625 0.375 0.5 0.5 0.75 0 0.5-0.5 0.125-0.875 0.375-0.625 0.5-0.5 0.125-0.875 0.375-0.625 0.5-0.5m-11.375 9.625q0.5 0 0.875-0.125t0.5-0.5 0.125-0.875-0.125-0.875-0.5-0.5-0.875-0.125-0.875 0.125-0.5 0.5-0.125 0.875 0.125 0.875 0.5 0.5 0.875 0.125m5.75 3.5q0 0.25 0.25 0.25t0.25-0.25-0.25-0.25-0.25 0.25m8.25 10.5q0.5 0 0.875-0.125t0.625-0.375 0.625-0.375 0.75-0.25 0.625-0.375 0.5-0.5 0.35938-0.64062l0.10938-0.39062-0.21875 0.03125 0.21875-0.03125q0.21875-0.03125 0.40625-0.09375l0.1875-0.0625-0.5625 0.1875 0.375-0.125q0.375-0.125 0.625-0.375t0.5-0.5 0.375-0.625 0.125-0.875 0-1-0.125-0.875-0.375-0.625-0.375-0.625-0.25-0.75-0.5-0.5-0.75 0-0.375 0.375 0.375 0.375l0.375 0.125-0.5625-0.1875 0.1875 0.0625q0.1875 0.0625 0.40625 0.09375l0.21875 0.03125-0.21875-0.03125-0.015625 0.51562q-0.015625 0.51562-0.015625 1.0156t-0.125 0.875-0.375 0.625-0.5 0.5-0.625 0.375-0.875 0.125-1 0-0.625-0.375-0.375-0.625-0.375-0.625-0.125-0.875-0.015625-1.0156l-0.015625-0.51562-0.21875 0.03125 0.21875-0.03125q0.21875-0.03125 0.40625-0.09375l0.1875-0.0625-0.5625 0.1875 0.375-0.125q0.375-0.125 0.375-0.375t-0.375-0.375-0.875-0.125-0.875 0.125-0.375 0.375 0.375 0.375l0.375 0.125-0.5625-0.1875 0.1875 0.0625q0.1875 0.0625 0.40625 0.09375l0.21875 0.03125-0.21875-0.03125-0.015625 0.51562q-0.015625 0.51562-0.015625 1.0156t-0.125 0.875-0.375 0.625-0.375 0.625-0.625 0.375-1 0-0.875-0.125-0.625-0.375-0.5-0.5-0.375-0.625-0.125-0.875-0.015625-1.0156l-0.015625-0.51562-0.21875 0.03125 0.21875-0.03125q0.21875-0.03125 0.40625-0.09375l0.1875-0.0625-0.5625 0.1875 0.375-0.125q0.375-0.125 0.375-0.375t-0.375-0.375-0.75 0-0.5 0.5-0.25 0.75-0.375 0.625-0.375 0.625-0.125 0.875 0 1 0.125 0.875 0.375 0.625 0.5 0.5 0.625 0.375l0.375 0.125-0.5625-0.1875 0.1875 0.0625q0.1875 0.0625 0.40625 0.09375l0.21875 0.03125-0.21875-0.03125 0.10938 0.39062q0.10938 0.39062 0.35938 0.64062t0.5 0.5 0.625 0.375 0.75 0.25 0.625 0.375 0.625 0.375 0.875 0.125 1 0 1 0m5.75-10.5q0 0.25 0.25 0.25t0.25-0.25-0.25-0.25-0.25 0.25m-1.75-0.5q0.5 0 0.875-0.125t0.5-0.5 0-0.75-0.5-0.5-0.75-0.25-0.625-0.375-0.625-0.375-0.875-0.125-1 0-1 0-1 0-1 0-1 0-1 0-0.875 0.125-0.625 0.375-0.625 0.375-0.75 0.25-0.5 0.5 0 0.75 0.5 0.5 0.875 0.125 1 0 1 0 1 0 1 0 1 0 1 0 1 0 1 0 1 0 1 0m-3-4q0.5 0 0.875-0.125t0.5-0.5 0.125-0.875 0-1-0.125-0.875-0.375-0.375-0.375 0.375-0.25 0.75-0.375 0.625-0.5 0.5-0.625 0.375-0.875 0.125-0.875-0.125-0.625-0.375-0.5-0.5-0.375-0.625-0.25-0.75-0.375-0.375-0.375 0.375-0.125 0.875 0 1 0.125 0.875 0.5 0.5 0.875 0.125 1 0 1 0 1 0 1 0m-2-2q0.5 0 0.875-0.125t0.5-0.5 0.125-0.875-0.125-0.875-0.5-0.5-0.875-0.125-0.875 0.125-0.5 0.5-0.125 0.875 0.125 0.875 0.5 0.5 0.875 0.125m1.75-3.5q0 0.25 0.25 0.25t0.25-0.25-0.25-0.25-0.25 0.25m-1.75-0.5q0.5 0 0.875-0.125t0.5-0.5 0-0.75-0.5-0.5-0.875-0.125-0.875 0.125-0.5 0.5 0 0.75 0.5 0.5 0.875 0.125m-2.25 0.5q0 0.25 0.25 0.25t0.25-0.25-0.25-0.25-0.25 0.25m-3.625 6.375q0.375 0.125 0.75 0t0.5-0.5 0.125-0.875 0-1-0.125-0.875-0.375-0.625-0.5-0.5-0.625-0.375-0.75-0.25-0.625-0.375-0.625-0.375-0.875-0.125-0.875 0.125-0.625 0.375-0.625 0.375-0.75 0.25-0.375 0.375 0.25 0.5 0.5 0.5 0.5 0.25 0.5-0.25 0.625-0.375 0.75 0 0.625 0.375 0.5 0.5 0.5 0.5 0.5 0.5 0.375 0.625 0.25 0.75 0.5 0.5m8.875 8.125q0.5 0 0.875-0.125t0.5-0.5 0.125-0.875-0.125-0.875-0.5-0.5-0.875-0.125-0.875 0.125-0.5 0.5-0.125 0.875 0.125 0.875 0.5 0.5 0.875 0.125m-6 0q0.5 0 0.875-0.125t0.5-0.5 0.125-0.875-0.125-0.875-0.5-0.5-0.875-0.125-0.875 0.125-0.5 0.5-0.125 0.875 0.125 0.875 0.5 0.5 0.875 0.125"/>
  <path d="m17.125 0.375-0.125-0.375h14v7l-0.375-0.125q-0.375-0.125-0.5-0.5t-0.625-0.375-0.5-0.5-0.5-0.5h-0.5v-0.5q0-0.5-0.5-0.5t-1 0h-0.5v-0.5q0-0.5-0.5-0.5t-1 0-1 0-0.5 0.5v0.5h-0.5q-0.5 0-1 0t-0.5 0.5v0.5h-0.5q-0.5 0-0.875-0.125t-0.5-0.5-0.125-0.875-0.375-0.625-0.5-0.5-0.125-0.875-0.375-0.625-0.5-0.5" fill-opacity="0"/>
  <g fill="#009530">
   <path d="m14.125 1.625q0.125-0.375 0.5-0.5t0.875-0.125 0.875 0.125 0.5 0.5 0 0.75-0.5 0.5-0.875 0.125-0.875-0.125-0.5-0.5 0-0.75"/>
   <path d="m13.25 3.5q0-0.25 0.25-0.25t0.25 0.25-0.25 0.25-0.25-0.25"/>
   <path d="m17.25 3.5q0-0.25 0.25-0.25t0.25 0.25-0.25 0.25-0.25-0.25"/>
  </g>
  <g>
   <path d="m23 3.5q0-0.5 0.5-0.5t1 0 1 0 0.5 0.5v0.5h-0.5q-0.5 0-1 0t-1 0h-0.5v-0.5"/>
   <path d="m5 4.5q0.25-0.25 0.625-0.375t0.875-0.125 0.875 0.125 0.625 0.375 0.625 0.375 0.75 0.25 0.625 0.375 0.5 0.5 0.375 0.625 0.125 0.875 0 1-0.125 0.875-0.5 0.5-0.75 0-0.5-0.5-0.25-0.75-0.375-0.625-0.5-0.5-0.5-0.5-0.5-0.5-0.625-0.375-0.75 0-0.625 0.375-0.5 0.25-0.5-0.25-0.5-0.5-0.25-0.5 0.375-0.375 0.75-0.25 0.625-0.375" fill="#dc143c"/>
   <path d="m14.125 4.625q0.125-0.375 0.5-0.5t0.875-0.125 0.875 0.125 0.5 0.5 0.125 0.875-0.125 0.875-0.5 0.5-0.875 0.125-0.875-0.125-0.5-0.5-0.125-0.875 0.125-0.875" fill="#fff"/>
   <path d="m21 4.5q0-0.5 0.5-0.5t1 0h0.5v0.5q0 0.5-0.5 0.5t-1 0h-0.5v-0.5"/>
   <path d="m23 4.5v-0.5h0.5q0.5 0 1 0t1 0h0.5v0.5q0 0.5 0.5 0.5t1 0h0.5v0.5q0 0.5-0.5 0.5t-0.625 0.375-0.5 0.5l-0.375 0.125v-0.5q0-0.5-0.5-0.5t-1 0-0.5 0.5v0.5h-0.5q-0.5 0-0.5 0.5v0.5h-0.5q-0.5 0-0.5 0.5t0 1-0.5 0.5-0.875-0.125-0.5-0.5-0.125-0.875 0-1 0-1 0.5-0.5 0.5-0.5v-0.5h0.5q0.5 0 1 0t0.5-0.5" fill="#0f0f0f"/>
   <path d="m26 4.5v-0.5h0.5q0.5 0 1 0t0.5 0.5v0.5h-0.5q-0.5 0-1 0t-0.5-0.5"/>
   <path d="m12.125 5.625q0.125-0.375 0.375-0.375t0.375 0.375 0.25 0.75 0.375 0.625 0.5 0.5 0.625 0.375 0.875 0.125 0.875-0.125 0.625-0.375 0.5-0.5 0.375-0.625 0.25-0.75 0.375-0.375 0.375 0.375 0.125 0.875 0 1-0.125 0.875-0.5 0.5-0.875 0.125-1 0-1 0-1 0-1 0-0.875-0.125-0.5-0.5-0.125-0.875 0-1 0.125-0.875" fill="#009530"/>
   <path d="m28 5.5v-0.5h0.5q0.5 0 0.5 0.5t0.5 0.5 0.625 0.375 0.5 0.5l0.375 0.125v3l-0.375 0.125q-0.375 0.125-0.5 0.5t-0.625 0.375-1 0-1 0-0.625-0.375-0.5-0.5-0.375-0.625 0-1 0-1v-0.5l0.375-0.125q0.375-0.125 0.5-0.5t0.625-0.375 0.5-0.5m0.5 4.5q0.5 0 0.875-0.125t0.5-0.5 0.125-0.875-0.125-0.875-0.5-0.5-0.875-0.125-0.875 0.125-0.5 0.5-0.125 0.875 0.125 0.875 0.5 0.5 0.875 0.125"/>
   <path d="m24 6.5q0-0.5 0.5-0.5t1 0 0.5 0.5v0.5h-0.5q-0.5 0-1 0h-0.5v-0.5"/>
   <path d="m1.125 7.625q0.125-0.375 0.5-0.5t0.875-0.125 0.875 0.125 0.5 0.5 0.125 0.875-0.125 0.875-0.5 0.5-0.875 0.125-0.875-0.125-0.5-0.5-0.125-0.875 0.125-0.875" fill="#fff"/>
  </g>
  <path d="m5.125 7.625q0.125-0.375 0.5-0.5t0.75 0 0.5 0.5 0.5 0.5 0.5 0.5 0.125 0.875 0 1 0 1-0.5 0.5-0.5 0.5 0 1 0 1 0.5 0.5 0.375 0.375-0.5 0.5-0.375 0.625 0 1 0 1 0 1 0.375 0.625 0.5 0.5 0.125 0.875 0.5 0.5 0.5 0.5 0.5 0.5 0.875 0.125 0.5 0.5 0.625 0.375 0.5 0.5v0.5h-12v-15l0.375 0.125q0.375 0.125 0.5 0.5t0.625 0.375 1 0 1 0 0.625-0.375 0.5-0.5 0.375-0.625 0-1 0.125-0.875" fill-opacity="0"/>
  <path d="m23 7.5q0-0.5 0.5-0.5h0.5v0.5q0 0.5-0.5 0.5h-0.5v-0.5"/>
  <path d="m24 7.5v-0.5h0.5q0.5 0 1 0h0.5v0.5q0 0.5 0 1t0 1 0.375 0.625 0.5 0.5 0.625 0.375 1 0 1 0 0.625-0.375 0.5-0.5l0.375-0.125v15h-12v-0.5q0-0.5 0.5-0.5t0.625-0.375 0.5-0.5 0.875-0.125 0.5-0.5 0.5-0.5 0.5-0.5 0.125-0.875 0.5-0.5 0.375-0.625 0-1 0-1 0-1-0.375-0.625-0.5-0.5 0.375-0.375 0.5-0.5 0-1 0-1-0.5-0.5-0.5-0.5 0-1 0-1 0-1v-0.5h0.5q0.5 0 0.5-0.5" fill-opacity="0"/>
  <g fill="#fff">
   <path d="m27.125 7.625q0.125-0.375 0.5-0.5t0.875-0.125 0.875 0.125 0.5 0.5 0.125 0.875-0.125 0.875-0.5 0.5-0.875 0.125-0.875-0.125-0.5-0.5-0.125-0.875 0.125-0.875"/>
   <path d="m11 10.5q0.25-0.25 0.625-0.375t0.875-0.125 1 0 1 0 1 0 1 0 1 0 1 0 0.875 0.125 0.625 0.375 0.625 0.375 0.75 0.25 0.5 0.5 0 0.75-0.5 0.5-0.875 0.125-1 0-1 0-1 0-1 0-1 0-1 0-1 0-1 0-1 0-1 0-0.875-0.125-0.5-0.5 0-0.75 0.5-0.5 0.75-0.25 0.625-0.375"/>
   <path d="m8.25 13.5q0-0.25 0.25-0.25t0.25 0.25-0.25 0.25-0.25-0.25"/>
   <path d="m22.25 13.5q0-0.25 0.25-0.25t0.25 0.25-0.25 0.25-0.25-0.25"/>
  </g>
  <g fill="#ed1c24">
   <path d="m9.125 14.625q0.125-0.375 0.5-0.5t0.75 0 0.375 0.375-0.375 0.375-0.875 0.125h-0.5l0.125-0.375m-0.03125 0.09375-0.15625 0.46875 0.0625-0.1875q0.0625-0.1875 0.125-0.375l0.0625-0.1875-0.09375 0.28125"/>
   <path d="m14.25 14.5q0-0.25 0.375-0.375t0.875-0.125 0.875 0.125 0.375 0.375-0.375 0.375-0.875 0.125-0.875-0.125-0.375-0.375"/>
   <path d="m20.25 14.5q0-0.25 0.375-0.375t0.75 0 0.5 0.5l0.125 0.375h-0.5q-0.5 0-0.875-0.125t-0.375-0.375m1.7812 0.59375-0.21875-0.65625 0.0625 0.1875q0.0625 0.1875 0.125 0.375l0.0625 0.1875-0.03125-0.09375"/>
  </g>
  <g fill="#fff">
   <path d="m8.875 15.375 0.125-0.375h1-0.75 0.25q0.25 0 0.46875-0.03125l0.21875-0.03125-0.21875 0.03126 0.015625 0.51562q0.015625 0.51562 0.015625 1.0156t0.125 0.875 0.375 0.625 0.5 0.5 0.625 0.375 0.875 0.125h0.5l0.125 0.375q0.125 0.375 0.5 0.5t0.75 0.25 0.5 0.5l0.125 0.375h-0.5q-0.5 0-1 0t-1 0-1 0-1 0-0.875-0.125-0.625-0.375-0.5-0.5-0.375-0.625-0.125-0.875 0-1 0.125-0.875 0.375-0.625 0.375-0.625m5.75 5.625h0.625-0.25q-0.25 0-0.5 0h-0.25 0.375m-1.5-2h-0.875 0.25q0.25 0 0.5 0h0.25-0.125m-4.0938-4.0938-0.21875 0.65625 0.0625-0.1875q0.0625-0.1875 0.125-0.375l0.0625-0.1875-0.03125 0.09375"/>
   <path d="m11.125 15.625q0.125-0.375 0.5-0.5t0.875-0.125 0.875 0.125 0.5 0.5 0.125 0.875-0.125 0.875-0.5 0.5-0.875 0.125-0.875-0.125-0.5-0.5-0.125-0.875 0.125-0.875"/>
   <path d="m15.016 15.484 0.015625-0.51562-0.21875-0.03125 0.21875 0.03125q0.21875 0.03125 0.46875 0.03125h0.25-0.75 1-0.75 0.25q0.25 0 0.46875-0.03125l0.21875-0.03125-0.21875 0.03126 0.01563 0.51562 0.01562 0.51562h-1l0.01563-0.51562m-0.01563 0.14062v0.625-0.25q0-0.25 0-0.5v-0.25 0.375m1 0.5v-0.875 0.25q0 0.25 0 0.5v0.25-0.125"/>
   <path d="m17.125 15.625q0.125-0.375 0.5-0.5t0.875-0.125 0.875 0.125 0.5 0.5 0.125 0.875-0.125 0.875-0.5 0.5-0.875 0.125-0.875-0.125-0.5-0.5-0.125-0.875 0.125-0.875"/>
   <path d="m21.016 15.484 0.015625-0.51562-0.21875-0.03125 0.21875 0.03125q0.21875 0.03125 0.46875 0.03125h0.25-0.75 1l0.125 0.375q0.125 0.375 0.375 0.625t0.375 0.625 0.125 0.875 0 1-0.125 0.875-0.375 0.625-0.5 0.5-0.625 0.375-0.875 0.125-1 0-1 0-1 0-1 0h-0.5l0.125-0.375q0.125-0.375 0.5-0.5t0.75-0.25 0.5-0.5l0.125-0.375h0.5q0.5 0 0.875-0.125t0.625-0.375 0.5-0.5 0.375-0.625 0.125-0.875 0.015625-1.0156m-2.6406 3.5156h-0.625 0.25q0.25 0 0.5 0h0.25-0.375m-2.5 2h0.875-0.25q-0.25 0-0.5 0h-0.25 0.125m6.2188-5.7188-0.15625-0.46875 0.0625 0.1875q0.0625 0.1875 0.125 0.375l0.0625 0.1875-0.09375-0.28125"/>
  </g>
  <g>
   <path d="m15 16.5v-0.5h1v1-0.75 0.25q0 0.25 0.03125 0.46875l0.03125 0.21875-0.03125-0.21875h-1.0625l-0.03126 0.21875 0.03125-0.21875q0.03126-0.21875 0.03126-0.46875v-0.25 0.75-0.5m1-0.125v-0.625 0.25q0 0.25 0 0.5v0.25-0.375m-1-0.5v0.875-0.25q0-0.25 0-0.5v-0.25 0.125" fill="#00a651"/>
   <path d="m14.875 17.375 0.125-0.375-0.1875 0.5625 0.0625-0.1875q0.0625-0.1875 0.09375-0.40625l0.03125-0.21875-0.03125 0.21875h1.0625l-0.03125-0.21875 0.03125 0.21875q0.03125 0.21875 0.09375 0.40625l0.0625 0.1875-0.1875-0.5625 0.125 0.375q0.125 0.375 0.375 0.625t0.375 0.625l0.125 0.375-0.1875-0.5625 0.0625 0.1875q0.0625 0.1875 0.21875 0.28125l0.15625 0.09375-0.15626-0.09374-0.42188-0.07813q-0.42186-0.07813-0.67186-0.32813t-0.5-0.25-0.5 0.25-0.67188 0.32812l-0.42188 0.07813-0.07813 0.04687-0.07812 0.046875 0.15625-0.09375q0.15625-0.09375 0.21875-0.28125l0.0625-0.1875-0.1875 0.5625 0.125-0.375q0.125-0.375 0.375-0.625t0.375-0.625" fill="#5dc690"/>
   <path d="m15 18.5q0.25-0.25 0.5-0.25t0.5 0.25 0.67188 0.32812l0.42188 0.07813-0.15626-0.09374 0.15625 0.09375q0.15626 0.093735 0.40626 0.093735h0.25-0.75 1l-0.125 0.375q-0.125 0.375-0.5 0.5t-0.75 0.25-0.5 0.5l-0.125 0.375h-1l-0.125-0.375q-0.125-0.375-0.5-0.5t-0.75-0.25-0.5-0.5l-0.125-0.375h1-0.75 0.25q0.25 0 0.40625-0.09375l0.15625-0.09375-0.15626 0.09374 0.42188-0.07813q0.42188-0.07811 0.67188-0.32811m-1.625 0.5h-0.625 0.25q0.25 0 0.5 0h0.25-0.375m1.5 2h0.875-0.25q-0.25 0-0.5 0h-0.25 0.125m0.75 0h0.625-0.25q-0.25 0-0.5 0h-0.25 0.375m2.5-2h-0.875 0.25q0.25 0 0.5 0h0.25-0.125" fill="#00a651"/>
   <path d="m10.141 21.359-0.10938-0.39062-0.21875-0.03125 0.21875 0.03125q0.21875 0.03125 0.46875 0.03125h0.25-0.75 0.5q0.5 0 1 0t1 0 1 0 1 0 1 0 1 0 1 0 1 0 1 0 1 0h0.5-0.75 0.25q0.25 0 0.46875-0.03125l0.21875-0.03125-0.21875 0.03126-0.10938 0.39062q-0.10938 0.39062-0.35938 0.64062t-0.5 0.5-0.625 0.375-0.75 0.25-0.625 0.375-0.625 0.375-0.875 0.125-1 0-1 0-0.875-0.125-0.625-0.375-0.625-0.375-0.75-0.25-0.625-0.375-0.5-0.5-0.35938-0.64062" fill="#ed1c24"/>
  </g>
 </g>
</svg>
