<svg width="17" height="25" version="1.1" viewBox="0 0 17 25" xmlns="http://www.w3.org/2000/svg">
 <g transform="translate(0)">
  <path d="m0 0.5v-0.5h13l-0.125 0.375q-0.125 0.375-0.5 0.5t-0.375 0.625-0.5 0.5-1 0-0.625 0.375-0.5 0.5-0.875 0.125-0.625 0.375-0.5 0.5-0.875 0.125-0.625 0.375-0.5 0.5-0.5 0.5-0.5 0.5-0.5 0.5-0.5 0.5-0.5 0.5-0.5 0.5-0.5 0.5-0.5 0.5-0.375 0.625 0 1 0 1-0.5 0.5h-0.5v-11.5" fill-opacity="0"/>
  <path d="m12.875 0.375 0.125-0.375h3l0.125 0.375q0.125 0.375 0.5 0.5l0.375 0.125v3l-0.375 0.125q-0.375 0.125-0.5 0.5t-0.625 0.375-1 0-0.875 0.125-0.5 0.5 0 0.75 0.5 0.5 0.5 0.5 0.5 0.5 0.5 0.5 0.5 0.5 0.375 0.625 0 1 0 1 0.5 0.5h0.5v3h-0.5q-0.5 0-0.375 0.375t0.5 0.5l0.375 0.125v4l-0.375 0.125q-0.375 0.125-0.5 0.5t-0.125 0.875-0.5 0.5-0.5 0.5-0.5 0.5-0.875 0.125-0.5 0.5-0.625 0.375-0.5 0.5v0.5h-7v-0.5q0-0.5-0.5-0.5t-0.625-0.375-0.5-0.5-0.875-0.125-0.5-0.5-0.5-0.5-0.5-0.5-0.125-0.875-0.5-0.5l-0.375-0.125v-4l0.375-0.125q0.375-0.125 0.5-0.5t-0.375-0.375h-0.5v-3h0.5q0.5 0 0.5-0.5t0-1 0-1 0.375-0.625 0.5-0.5 0.5-0.5 0.5-0.5 0.5-0.5 0.5-0.5 0.5-0.5 0.5-0.5 0.5-0.5 0.5-0.5 0.625-0.375 0.875-0.125 0.5-0.5 0.625-0.375 0.875-0.125 0.5-0.5 0.625-0.375 1 0 0.5-0.5 0.375-0.625 0.5-0.5m-11.625 13.125q0 0.25 0.25 0.25t0.25-0.25-0.25-0.25-0.25 0.25m8.25 10.5q0.5 0 0.875-0.125t0.625-0.375 0.625-0.375 0.75-0.25 0.625-0.375 0.5-0.5 0.5-0.5 0.5-0.5 0.5-0.5 0.5-0.5 0.3125-0.6875l0.0625-0.4375-0.125 0.125 0.125-0.125q0.125-0.125 0.125-0.375v-0.25 0.75-1 0.75-0.25q0-0.25-0.125-0.375l-0.125-0.125 0.125 0.125 0.0625-0.5625q0.0625-0.5625-0.0625-0.9375t-0.375-0.625-0.375-0.625-0.25-0.75-0.5625-0.4375l-0.4375-0.0625 0.125 0.125-0.125-0.125q-0.125-0.125-0.375-0.125h-0.25 0.75l-0.375 0.125q-0.375 0.125-0.375 0.375t0.375 0.375l0.375 0.125h-0.75 0.25q0.25 0 0.375-0.125l0.125-0.125-0.125 0.125 0.0625 0.5625q0.0625 0.5625 0.0625 1.0625t-0.125 0.875-0.375 0.625-0.5 0.5-0.625 0.375-0.875 0.125-1 0h-0.5l-0.125-0.375q-0.125-0.375-0.375-0.625t-0.375-0.625l-0.125-0.375 0.1875 0.5625-0.0625-0.1875q-0.0625-0.1875-0.21875-0.28125l-0.15625-0.09375 0.15625 0.09375 0.046875-0.54688q0.046875-0.54688 0.17188-0.92188t0.375-0.625 0.25-0.5-0.375-0.375-0.875-0.125-0.875 0.125-0.375 0.375 0.25 0.5 0.375 0.625 0.17188 0.92188l0.046875 0.54688 0.15625-0.09375-0.15625 0.09375q-0.15625 0.09375-0.21875 0.28125l-0.0625 0.1875 0.1875-0.5625-0.125 0.375q-0.125 0.375-0.375 0.625t-0.375 0.625l-0.125 0.375h-0.5q-0.5 0-1 0t-0.875-0.125-0.625-0.375-0.5-0.5-0.375-0.625-0.125-0.875 0.0625-1.0625l0.0625-0.5625-0.125-0.125 0.125 0.125q0.125 0.125 0.375 0.125h0.25-0.75l0.375-0.125q0.375-0.125 0.375-0.375t-0.375-0.375l-0.375-0.125h0.75-0.25q-0.25 0-0.375 0.125l-0.125 0.125 0.125-0.125-0.4375 0.0625q-0.4375 0.0625-0.5625 0.4375t-0.25 0.75-0.375 0.625-0.375 0.625-0.0625 0.9375l0.0625 0.5625 0.125-0.125-0.125 0.125q-0.125 0.125-0.125 0.375v0.25-0.75 1-0.75 0.25q0 0.25 0.125 0.375l0.125 0.125-0.125-0.125 0.0625 0.4375q0.0625 0.4375 0.3125 0.6875t0.5 0.5 0.5 0.5 0.5 0.5 0.5 0.5 0.5 0.5 0.625 0.375 0.75 0.25 0.625 0.375 0.625 0.375 0.875 0.125 1 0 1 0m5.75-10.5q0 0.25 0.25 0.25t0.25-0.25-0.25-0.25-0.25 0.25m-1.75-0.5q0.5 0 0.875-0.125t0.5-0.5 0-0.75-0.5-0.5-0.75-0.25-0.625-0.375-0.625-0.375-0.875-0.125-1 0-1 0-1 0-1 0-1 0-1 0-0.875 0.125-0.625 0.375-0.625 0.375-0.75 0.25-0.5 0.5 0 0.75 0.5 0.5 0.875 0.125 1 0 1 0 1 0 1 0 1 0 1 0 1 0 1 0 1 0 1 0m0.125-3.125q0.375 0.125 0.75 0t0.375-0.375-0.25-0.5-0.5-0.5-0.5-0.5-0.5-0.5-0.5-0.5-0.375-0.625 0-0.75 0.375-0.625 0.25-0.5-0.25-0.5-0.5-0.5-0.625-0.375-0.75 0-0.625 0.375-0.625 0.375-0.75 0.25-0.625 0.375-0.625 0.375-0.75 0.25-0.625 0.375-0.5 0.5-0.5 0.5-0.5 0.5-0.5 0.5-0.5 0.5-0.5 0.5-0.5 0.5-0.25 0.5 0.375 0.375 0.75 0 0.625-0.375 0.625-0.375 0.875-0.125 1 0 1 0 1 0 1 0 1 0 1 0 0.875 0.125 0.625 0.375 0.625 0.375m-2.125 8.125q0.5 0 0.875-0.125t0.5-0.5 0.125-0.875-0.125-0.875-0.5-0.5-0.875-0.125-0.875 0.125-0.5 0.5-0.125 0.875 0.125 0.875 0.5 0.5 0.875 0.125m-1.5938 0.71875 0.15625 0.46875-0.0625-0.1875q-0.0625-0.1875-0.125-0.375l-0.0625-0.1875 0.09375 0.28125m-2.9375 0.375 0.21875-0.65625-0.0625 0.1875q-0.0625 0.1875-0.125 0.375l-0.0625 0.1875 0.03125-0.09375m-1.4688-1.0938q0.5 0 0.875-0.125t0.5-0.5 0.125-0.875-0.125-0.875-0.5-0.5-0.875-0.125-0.875 0.125-0.5 0.5-0.125 0.875 0.125 0.875 0.5 0.5 0.875 0.125m9-14q0.5 0 0.875-0.125t0.5-0.5 0.125-0.875-0.125-0.875-0.5-0.5-0.875-0.125-0.875 0.125-0.5 0.5-0.125 0.875 0.125 0.875 0.5 0.5 0.875 0.125"/>
  <path d="m16.125 0.375-0.125-0.375h1v1l-0.375-0.125q-0.375-0.125-0.5-0.5" fill-opacity="0"/>
  <path d="m13.125 1.625q0.125-0.375 0.5-0.5t0.875-0.125 0.875 0.125 0.5 0.5 0.125 0.875-0.125 0.875-0.5 0.5-0.875 0.125-0.875-0.125-0.5-0.5-0.125-0.875 0.125-0.875" fill="#fff"/>
  <path d="m10 3.5q0.25-0.25 0.625-0.375t0.75 0 0.625 0.375 0.5 0.5 0.25 0.5-0.25 0.5-0.375 0.625 0 0.75 0.375 0.625 0.5 0.5 0.5 0.5 0.5 0.5 0.5 0.5 0.25 0.5-0.375 0.375-0.75 0-0.625-0.375-0.625-0.375-0.875-0.125-1 0-1 0-1 0-1 0-1 0-1 0-0.875 0.125-0.625 0.375-0.625 0.375-0.75 0-0.375-0.375 0.25-0.5 0.5-0.5 0.5-0.5 0.5-0.5 0.5-0.5 0.5-0.5 0.5-0.5 0.5-0.5 0.625-0.375 0.75-0.25 0.625-0.375 0.625-0.375 0.75-0.25 0.625-0.375" fill="#dc143c"/>
  <path d="m16.125 4.625q0.125-0.375 0.5-0.5l0.375-0.125v8h-0.5q-0.5 0-0.5-0.5t0-1 0-1-0.375-0.625-0.5-0.5-0.5-0.5-0.5-0.5-0.5-0.5-0.5-0.5 0-0.75 0.5-0.5 0.875-0.125 1 0 0.625-0.375" fill-opacity="0"/>
  <g fill="#fff">
   <path d="m4 10.5q0.25-0.25 0.625-0.375t0.875-0.125 1 0 1 0 1 0 1 0 1 0 1 0 0.875 0.125 0.625 0.375 0.625 0.375 0.75 0.25 0.5 0.5 0 0.75-0.5 0.5-0.875 0.125-1 0-1 0-1 0-1 0-1 0-1 0-1 0-1 0-1 0-1 0-0.875-0.125-0.5-0.5 0-0.75 0.5-0.5 0.75-0.25 0.625-0.375"/>
   <path d="m1.25 13.5q0-0.25 0.25-0.25t0.25 0.25-0.25 0.25-0.25-0.25"/>
   <path d="m15.25 13.5q0-0.25 0.25-0.25t0.25 0.25-0.25 0.25-0.25-0.25"/>
  </g>
  <g>
   <path d="m2.125 14.625q0.125-0.375 0.5625-0.4375l0.4375-0.0625 0.125-0.125-0.125 0.125q-0.125 0.125-0.125 0.375v0.25-0.75 1-0.75 0.25q0 0.25 0.125 0.375l0.125 0.125-0.125-0.125-0.0625 0.5625q-0.0625 0.5625-0.0625 1.0625t0.125 0.875 0.375 0.625 0.5 0.5 0.625 0.375 0.875 0.125 1 0h0.5l-0.125 0.375q-0.125 0.375-0.5 0.5t-0.875 0.125-0.875 0.125-0.375 0.375 0.25 0.5 0.5 0.5 0.625 0.375 0.75 0.25 0.625 0.375 0.625 0.375 0.875 0.125 0.875-0.125 0.625-0.375 0.625-0.375 0.75-0.25 0.625-0.375 0.5-0.5 0.25-0.5-0.375-0.375-0.875-0.125-0.875-0.125-0.5-0.5l-0.125-0.375h0.5q0.5 0 1 0t0.875-0.125 0.625-0.375 0.5-0.5 0.375-0.625 0.125-0.875-0.0625-1.0625l-0.0625-0.5625-0.125 0.125 0.125-0.125q0.125-0.125 0.125-0.375v-0.25 0.75-1 0.75-0.25q0-0.25-0.125-0.375l-0.125-0.125 0.125 0.125 0.4375 0.0625q0.4375 0.0625 0.5625 0.4375t0.25 0.75 0.375 0.625 0.375 0.625 0.0625 0.9375l-0.0625 0.5625 0.125 0.125-0.125-0.125q-0.125-0.125-0.375-0.125h-0.25 0.75l-0.375 0.125q-0.375 0.125-0.375 0.375t0.375 0.375l0.375 0.125h-0.75 0.25q0.25 0 0.375-0.125l0.125-0.125-0.125 0.125-0.0625 0.4375q-0.0625 0.4375-0.3125 0.6875t-0.5 0.5-0.5 0.5-0.5 0.5-0.5 0.5-0.5 0.5-0.625 0.375-0.75 0.25-0.625 0.375-0.625 0.375-0.875 0.125-1 0-1 0-0.875-0.125-0.625-0.375-0.625-0.375-0.75-0.25-0.625-0.375-0.5-0.5-0.5-0.5-0.5-0.5-0.5-0.5-0.5-0.5-0.3125-0.6875l-0.0625-0.4375-0.125-0.125 0.125 0.125q0.125 0.125 0.375 0.125h0.25-0.75l0.375-0.125q0.375-0.125 0.375-0.375t-0.375-0.375l-0.375-0.125h0.75-0.25q-0.25 0-0.375 0.125l-0.125 0.125 0.125-0.125-0.0625-0.5625q-0.0625-0.5625 0.0625-0.9375t0.375-0.625 0.375-0.625 0.25-0.75m7.8438 4.2812 0.21875 0.65625-0.0625-0.1875q-0.0625-0.1875-0.125-0.375l-0.0625-0.1875 0.03125 0.09375m-3.0625 0.375 0.15625-0.46875-0.0625 0.1875q-0.0625 0.1875-0.125 0.375l-0.0625 0.1875 0.09375-0.28125" fill="#00785e"/>
   <path d="m3 14.5q0-0.5 0.375-0.375t0.375 0.375-0.375 0.375-0.375-0.375" fill="#fbd116"/>
   <path d="m7.25 14.5q0-0.25 0.375-0.375t0.875-0.125 0.875 0.125 0.375 0.375-0.25 0.5-0.375 0.625-0.17188 0.92188l-0.046875 0.54688 0.15625 0.09375-0.15625-0.09375q-0.15625-0.09375-0.40625-0.09375h-0.25 0.75-1 0.75-0.25q-0.25 0-0.40625 0.09375l-0.15625 0.09375 0.15625-0.09375-0.046875-0.54688q-0.046875-0.54688-0.17188-0.92188t-0.375-0.625-0.25-0.5" fill="#00785e"/>
   <path d="m13.25 14.5q0-0.25 0.375-0.375t0.375 0.375-0.375 0.375-0.375-0.375" fill="#fbd116"/>
  </g>
  <path d="m0 15.5v-0.5h0.5q0.5 0 0.375 0.375t-0.5 0.5l-0.375 0.125v-0.5" fill-opacity="0"/>
  <path d="m4.125 15.625q0.125-0.375 0.5-0.5t0.875-0.125 0.875 0.125 0.5 0.5 0.125 0.875-0.125 0.875-0.5 0.5-0.875 0.125-0.875-0.125-0.5-0.5-0.125-0.875 0.125-0.875" fill="#fff"/>
  <path d="m10.125 15.625q0.125-0.375 0.5-0.5t0.875-0.125 0.875 0.125 0.5 0.5 0.125 0.875-0.125 0.875-0.5 0.5-0.875 0.125-0.875-0.125-0.5-0.5-0.125-0.875 0.125-0.875" fill="#fff"/>
  <path d="m16.125 15.375q-0.125-0.375 0.375-0.375h0.5v1l-0.375-0.125q-0.375-0.125-0.5-0.5" fill-opacity="0"/>
  <g>
   <path d="m7.875 17.375q0.125-0.375 0.625-0.375t0.625 0.375 0.375 0.625 0.375 0.625 0.25 0.75 0.5 0.5 0.875 0.125 0.875 0.125 0.375 0.375-0.25 0.5-0.5 0.5-0.625 0.375-0.75 0.25-0.625 0.375-0.625 0.375l-0.375 0.125 0.5625-0.1875-0.1875 0.0625q-0.1875 0.0625-0.40625 0.09375l-0.21875 0.03125 0.21875-0.03125 0.14062-0.35938q0.14062-0.35938 0.39062-0.60938t0.25-0.5-0.25-0.5-0.5-0.5-0.5-0.25-0.5 0.25-0.5 0.5-0.25 0.5 0.25 0.5 0.39062 0.60938l0.14062 0.35938 0.21875 0.03125-0.21875-0.03125q-0.21875-0.03125-0.40625-0.09375l-0.1875-0.0625 0.5625 0.1875-0.375-0.125q-0.375-0.125-0.625-0.375t-0.625-0.375-0.75-0.25-0.625-0.375-0.5-0.5-0.25-0.5 0.375-0.375 0.875-0.125 0.875-0.125 0.5-0.5 0.25-0.75 0.375-0.625 0.375-0.625" fill="#fff"/>
   <path d="m1 18.5q0-0.5 0.375-0.375t0.375 0.375-0.375 0.375-0.375-0.375" fill="#fbd116"/>
   <path d="m15.25 18.5q0-0.25 0.375-0.375t0.375 0.375-0.375 0.375-0.375-0.375" fill="#fbd116"/>
  </g>
  <path d="m0 20.5v-0.5l0.375 0.125q0.375 0.125 0.5 0.5t0.125 0.875 0.5 0.5 0.5 0.5 0.5 0.5 0.875 0.125 0.5 0.5 0.625 0.375 0.5 0.5v0.5h-5v-4.5" fill-opacity="0"/>
  <path d="m8 20.5q0.25-0.25 0.5-0.25t0.5 0.25 0.5 0.5 0.25 0.5-0.25 0.5-0.39062 0.60938l-0.14062 0.35938 0.21875-0.03125-0.21875 0.03125q-0.21875 0.03125-0.46875 0.03125h-0.25 0.75-1 0.75-0.25q-0.25 0-0.46875-0.03125l-0.21875-0.03125 0.21875 0.03125-0.14062-0.35938q-0.14062-0.35938-0.39062-0.60938t-0.25-0.5 0.25-0.5 0.5-0.5m0.25 1q0 0.25 0.25 0.25t0.25-0.25-0.25-0.25-0.25 0.25" fill="#88c0b4"/>
  <path d="m16.125 20.625q0.125-0.375 0.5-0.5l0.375-0.125v5h-5v-0.5q0-0.5 0.5-0.5t0.625-0.375 0.5-0.5 0.875-0.125 0.5-0.5 0.5-0.5 0.5-0.5 0.125-0.875" fill-opacity="0"/>
  <path d="m8.25 21.5q0-0.25 0.25-0.25t0.25 0.25-0.25 0.25-0.25-0.25" fill="#fff"/>
 </g>
</svg>
