<svg width="30" height="21" version="1.1" viewBox="0 0 30 21" xmlns="http://www.w3.org/2000/svg">
 <g transform="translate(0)">
  <path d="m0 0.5v-0.5h12v0.5q0 0.5-0.5 0.5t-1 0-1 0-0.625 0.375-0.5 0.5-0.5 0.5-0.5 0.5-0.5 0.5-0.5 0.5-0.5 0.5-0.5 0.5-0.5 0.5-0.5 0.5-0.375 0.625-0.125 0.875-0.5 0.5-0.375 0.625-0.125 0.875-0.5 0.5-0.375 0.625 0 1-0.5 0.5-0.625 0.375-0.5 0.5l-0.375 0.125v-12.5" fill-opacity="0"/>
  <path d="m12 0.5v-0.5h3v0.5q0 0.5 0 1t0.5 0.5 0.625 0.375 0.375 0.375 0.375-0.375 0.625-0.375h0.5l0.125 0.375q0.125 0.375 0.5 0.5l0.375 0.125 0.125 0.375q0.125 0.375 0.5 0.5l0.375 0.125 0.125 0.375q0.125 0.375 0.5 0.5t0.875 0.125 0.875-0.125 0.5-0.5l0.125-0.375 0.375-0.125q0.375-0.125 0.5-0.5l0.125-0.375 0.375-0.125q0.375-0.125 0.5-0.5l0.125-0.375h0.5q0.5 0 0.625 0.375t0.5 0.5 0.375 0.625 0 1 0 1-0.375 0.625-0.5 0.5 0 0.75 0.5 0.5 0.875 0.125 0.625 0.375 0.5 0.5 0.875 0.125h0.5v3l-0.375 0.125q-0.375 0.125-0.5 0.5t-0.625 0.375-0.625-0.375-0.5-0.5-0.375-0.625-0.5-0.5-0.5 0.5-0.375 0.625-0.5 0.5l-0.125 0.375h0.5q0.5 0 1 0t0.5 0.5 0 1-0.375 0.625-0.375 0.375 0.375 0.375 0.5 0.5 0.375 0.375 0.375-0.375 0.625-0.375 1 0h0.5v2l-0.375 0.125q-0.375 0.125-0.375 0.375t0.375 0.375l0.375 0.125v2h-17v-0.5q0-0.5 0-1t0-1 0-1-0.5-0.5-0.625-0.375-0.5-0.5-0.875-0.125-1 0-0.625-0.375-0.5-0.5-0.5-0.5-0.5-0.5-0.5-0.5-0.5-0.5-0.75 0-0.5 0.5-0.125 0.875 0 1-0.375 0.625-0.5 0.5-0.625 0.375-1 0-1 0-0.625-0.375-0.5-0.5l-0.375-0.125v-3l0.375-0.125q0.375-0.125 0.5-0.5t0.625-0.375 0.5-0.5 0-1 0.375-0.625 0.5-0.5 0.125-0.875 0.375-0.625 0.5-0.5 0.125-0.875 0.375-0.625 0.5-0.5 0.5-0.5 0.5-0.5 0.5-0.5 0.5-0.5 0.5-0.5 0.5-0.5 0.5-0.5 0.5-0.5 0.625-0.375 1 0 1 0 0.5-0.5m-9.5 15.5q0.5 0 0.875-0.125t0.5-0.5 0.125-0.875-0.125-0.875-0.5-0.5-0.875-0.125-0.875 0.125-0.5 0.5-0.125 0.875 0.125 0.875 0.5 0.5 0.875 0.125m6.5-1.5q0.25 0.25 0.5 0.25t0.375-0.375 0-0.75-0.375-0.625-0.375-0.625-0.125-0.875 0-1 0-1 0-1 0-1 0-1 0-1 0.125-0.875 0.375-0.625 0.375-0.625 0-0.75-0.375-0.375-0.5 0.25-0.5 0.5-0.5 0.5-0.5 0.5-0.5 0.5-0.5 0.5-0.5 0.5-0.5 0.5-0.375 0.625-0.25 0.75-0.375 0.625-0.375 0.625-0.25 0.75-0.375 0.625-0.375 0.625 0 0.75 0.375 0.625 0.5 0.5 0.5 0.25 0.5-0.25 0.625-0.375 0.75 0 0.625 0.375 0.5 0.5 0.5 0.5 0.5 0.5 0.5 0.5m3 1q0.25 0.25 0.5 0.25t0.375-0.375 0.125-0.875 0-1 0-1 0-1 0-1 0-1 0-1 0-1 0-1 0-1 0-1 0-1-0.125-0.875-0.5-0.5-0.75 0-0.5 0.5-0.25 0.75-0.375 0.625-0.375 0.625-0.125 0.875 0 1 0 1 0 1 0 1 0 1 0 1 0.125 0.875 0.375 0.625 0.375 0.625 0.25 0.75 0.375 0.625 0.5 0.5m1.25-14q0 0.25 0.25 0.25t0.25-0.25-0.25-0.25-0.25 0.25m14.25 18.5q0.5 0 0.875-0.125t0.375-0.375-0.25-0.5-0.5-0.5-0.5-0.5-0.5-0.5-0.5-0.5-0.5-0.5-0.5-0.5-0.5-0.5-0.5-0.5-0.5-0.5-0.5-0.5-0.5-0.5-0.5-0.5-0.5-0.5-0.5-0.5-0.5-0.5-0.5-0.5-0.25-0.5 0.375-0.375 0.875-0.125 1 0 1 0 1 0 1 0 1 0 0.875-0.125 0.375-0.375-0.375-0.375-0.75-0.25-0.625-0.375-0.625-0.375-0.875-0.125h-0.5 0.75-0.25q-0.25 0-0.46875-0.03125l-0.21875-0.03125 0.21875 0.03125-0.14062-0.35938q-0.14062-0.35938-0.51562-0.48438t-0.875-0.125h-0.5 0.75-0.25q-0.25 0-0.46875-0.03125l-0.21875-0.03125 0.21875 0.03125-0.14062-0.35938q-0.14062-0.35938-0.51562-0.48438t-0.75 0-0.5625 0.5625l-0.1875 0.4375 0.125 0.125-0.125-0.125q-0.125-0.125-0.375-0.125h-0.25 0.75-1 0.75-0.25q-0.25 0-0.40625 0.09375l-0.15625 0.09375 0.15625-0.09375h-1.1875l0.15625 0.09375-0.15625-0.09375q-0.15625-0.09375-0.40625-0.09375h-0.25 0.75-1 0.75-0.25q-0.25 0-0.40625 0.09375l-0.15625 0.09375 0.15625-0.09375-0.17188-0.42188q-0.17188-0.42188-0.42188-0.67188t-0.375-0.625-0.125-0.875-0.125-0.875-0.5-0.5-0.75 0-0.5 0.5-0.125 0.875 0 1 0 1 0 1 0 1 0 1 0 1 0 1 0 1 0 1 0 1 0 1 0 1 0 1 0 1 0.125 0.875 0.5 0.5 0.875 0.125 1 0 1 0 1 0 1 0 1 0 1 0 1 0 1 0 1 0 1 0 1 0 1 0m0.75-2.5q0 0.25 0.25 0.25t0.25-0.25-0.25-0.25-0.25 0.25m-3-3q0 0.25 0.25 0.25t0.25-0.25-0.25-0.25-0.25 0.25m-0.75-8.5q0.5 0 0.875-0.125t0.5-0.5 0.125-0.875-0.125-0.875-0.375-0.375-0.5 0.25-0.5 0.5-0.5 0.5-0.5 0.5-0.25 0.5 0.375 0.375 0.875 0.125m-6 0q0.5 0 0.875-0.125t0.375-0.375-0.25-0.5-0.5-0.5-0.5-0.5-0.5-0.5-0.5-0.25-0.375 0.375-0.125 0.875 0.125 0.875 0.5 0.5 0.875 0.125m6.375 7.375 0.125-0.375h-1l0.125 0.375q0.125 0.375 0.375 0.375t0.375-0.375m-1.25-0.5 0.375 0.125-0.125-0.375q-0.125-0.375-0.5-0.5l-0.375-0.125 0.125 0.375q0.125 0.375 0.5 0.5m0.625-1.375q0 0.25 0.25 0.25t0.25-0.25-0.25-0.25-0.25 0.25m-1.625 0.375 0.375 0.125v-0.5q0-0.5-0.5-0.5t-0.375 0.375 0.5 0.5m5.625-0.375q0 0.25 0.25 0.25t0.25-0.25-0.25-0.25-0.25 0.25"/>
  <path d="m15 0.5v-0.5h15v9h-0.5q-0.5 0-0.875-0.125t-0.5-0.5-0.625-0.375-0.875-0.125-0.5-0.5 0-0.75 0.5-0.5 0.375-0.625 0-1 0-1-0.375-0.625-0.5-0.5-0.625-0.375h-0.5v-0.5q0-0.5-0.5-0.5t-1 0-0.5 0.5-0.5 0.5-0.5 0.5-0.5 0.5-0.5-0.5-0.5-0.5-0.5-0.5-0.5-0.5-1 0-0.5 0.5v0.5h-0.5q-0.5 0-0.625 0.375t-0.375 0.375-0.375-0.375-0.625-0.375-0.5-0.5 0-1" fill-opacity="0"/>
  <g>
   <path d="m13.25 1.5q0-0.25 0.25-0.25t0.25 0.25-0.25 0.25-0.25-0.25" fill="#fff"/>
   <path d="m18 1.5q0-0.5 0.5-0.5t1 0 0.5 0.5 0.5 0.5 0.5 0.5 0.5 0.5 0.5-0.5 0.5-0.5 0.5-0.5 0.5-0.5 1 0 0.5 0.5v0.5h-0.5q-0.5 0-0.5 0.5v0.5h-0.5q-0.5 0-0.5 0.5v0.5h-0.5q-0.5 0-1 0t-1 0h-0.5v-0.5q0-0.5-0.5-0.5h-0.5v-0.5q0-0.5-0.5-0.5h-0.5v-0.5"/>
   <path d="m9 2.5q0.25-0.25 0.5-0.25t0.375 0.375 0 0.75-0.375 0.625-0.375 0.625-0.125 0.875 0 1 0 1 0 1 0 1 0 1 0 1 0.125 0.875 0.375 0.625 0.375 0.625 0 0.75-0.375 0.375-0.5-0.25-0.5-0.5-0.5-0.5-0.5-0.5-0.5-0.5-0.625-0.375-0.75 0-0.625 0.375-0.5 0.25-0.5-0.25-0.5-0.5-0.375-0.625 0-0.75 0.375-0.625 0.375-0.625 0.25-0.75 0.375-0.625 0.375-0.625 0.25-0.75 0.375-0.625 0.5-0.5 0.5-0.5 0.5-0.5 0.5-0.5 0.5-0.5 0.5-0.5 0.5-0.5" fill="#ff9700"/>
   <path d="m11.125 2.625q0.125-0.375 0.5-0.5t0.75 0 0.5 0.5 0.125 0.875 0 1 0 1 0 1 0 1 0 1 0 1 0 1 0 1 0 1 0 1 0 1-0.125 0.875-0.375 0.375-0.5-0.25-0.5-0.5-0.375-0.625-0.25-0.75-0.375-0.625-0.375-0.625-0.125-0.875 0-1 0-1 0-1 0-1 0-1 0-1 0.125-0.875 0.375-0.625 0.375-0.625 0.25-0.75" fill="#fff"/>
  </g>
  <path d="m18.125 2.375-0.125-0.375h0.5q0.5 0 0.5 0.5v0.5l-0.375-0.125q-0.375-0.125-0.5-0.5" fill-opacity="0"/>
  <path d="m24 2.5q0-0.5 0.5-0.5h0.5l-0.125 0.375q-0.125 0.375-0.5 0.5l-0.375 0.125v-0.5" fill-opacity="0"/>
  <path d="m14.125 3.625q0.125-0.375 0.5-0.5t0.75 0 0.5 0.5l0.125 0.375-0.1875-0.5625 0.0625 0.1875q0.0625 0.1875 0.09375 0.40625l0.03125 0.21875-0.03125-0.21875-0.35938 0.10938q-0.35938 0.10938-0.48438 0.48438t-0.125 0.875 0 1 0 1 0 1 0 1 0 1 0 1 0 1 0 1 0 1 0 1 0 1 0 1 0.125 0.875 0.5 0.5 0.875 0.125 1 0 1 0 1 0 1 0 1 0 1 0 1 0 1 0 1 0 0.875-0.125 0.375-0.375-0.25-0.5-0.5-0.5-0.5-0.5-0.5-0.5-0.5-0.5-0.5-0.5-0.5-0.5-0.5-0.5-0.5-0.5-0.5-0.5-0.5-0.5-0.5-0.5-0.5-0.5-0.5-0.5-0.5-0.5-0.375-0.625 0-0.75 0.5-0.5 0.875-0.125 1 0 1 0 1 0 0.875-0.125 0.48438-0.48438l0.10938-0.35938-0.21875-0.03125 0.21875 0.03125q0.21875 0.03125 0.40625 0.09375l0.1875 0.0625-0.5625-0.1875 0.375 0.125q0.375 0.125 0.625 0.375t0.625 0.375 0.75 0.25 0.375 0.375-0.375 0.375-0.875 0.125-1 0-1 0-1 0-1 0-1 0-0.875 0.125-0.375 0.375 0.25 0.5 0.5 0.5 0.5 0.5 0.5 0.5 0.5 0.5 0.5 0.5 0.5 0.5 0.5 0.5 0.5 0.5 0.5 0.5 0.5 0.5 0.5 0.5 0.5 0.5 0.5 0.5 0.5 0.5 0.5 0.5 0.5 0.5 0.25 0.5-0.375 0.375-0.875 0.125-1 0-1 0-1 0-1 0-1 0-1 0-1 0-1 0-1 0-1 0-1 0-1 0-0.875-0.125-0.5-0.5-0.125-0.875 0-1 0-1 0-1 0-1 0-1 0-1 0-1 0-1 0-1 0-1 0-1 0-1 0-1 0-1 0.125-0.875" fill="#002e89"/>
  <path d="m17.125 3.625q0.125-0.375 0.375-0.375t0.5 0.25 0.5 0.5 0.5 0.5 0.5 0.5 0.25 0.5-0.375 0.375-0.875 0.125-0.875-0.125-0.5-0.5-0.125-0.875 0.125-0.875" fill="#fff"/>
  <path d="m19.125 3.375-0.125-0.375h0.5q0.5 0 0.5 0.5v0.5l-0.375-0.125q-0.375-0.125-0.5-0.5" fill-opacity="0"/>
  <path d="m23 3.5q0-0.5 0.5-0.5h0.5l-0.125 0.375q-0.125 0.375-0.5 0.5l-0.375 0.125v-0.5" fill-opacity="0"/>
  <path d="m25 3.5q0.25-0.25 0.5-0.25t0.375 0.375 0.125 0.875-0.125 0.875-0.5 0.5-0.875 0.125-0.875-0.125-0.375-0.375 0.25-0.5 0.5-0.5 0.5-0.5 0.5-0.5" fill="#fff"/>
  <path d="m15.125 4.625q0.125-0.375 0.48438-0.48438l0.35938-0.10938-0.03125-0.21875 0.03125 0.21875q0.03125 0.21875 0.03125 0.46875v0.25-0.75 0.5q0 0.5 0.125 0.875t0.375 0.625 0.42188 0.67188l0.17188 0.42188 0.15625-0.09375-0.15625 0.09375q-0.15625 0.09375-0.21875 0.28125l-0.0625 0.1875 0.1875-0.5625-0.125 0.375q-0.125 0.375-0.375 0.625t-0.25 0.5 0.375 0.375 0.875 0.125 0.875-0.125 0.625-0.375 0.5-0.5 0.375-0.625l0.125-0.375v0.75-0.25q0-0.25-0.125-0.375l-0.125-0.125 0.125 0.125 0.1875-0.4375q0.1875-0.4375 0.5625-0.5625l0.375-0.125-0.5625 0.1875 0.1875-0.0625q0.1875-0.0625 0.375-0.0625h0.1875-0.1875l0.125 0.34375q0.125 0.34375 0.5 0.46875t0.875 0.125h0.5-0.75 0.25q0.25 0 0.46875 0.03125l0.21875 0.03125-0.21875-0.03125 0.14062 0.35938q0.14062 0.35938 0.51562 0.48438t0.875 0.125h0.5-0.75 0.25q0.25 0 0.46875 0.03125l0.21875 0.03125-0.21875-0.03125-0.10938 0.35938q-0.10938 0.35938-0.48438 0.48438t-0.875 0.125-1 0-1 0-1 0-0.875 0.125-0.5 0.5 0 0.75 0.375 0.625 0.5 0.5 0.5 0.5 0.5 0.5 0.5 0.5 0.5 0.5 0.5 0.5 0.5 0.5 0.5 0.5 0.5 0.5 0.5 0.5 0.5 0.5 0.5 0.5 0.5 0.5 0.5 0.5 0.25 0.5-0.375 0.375-0.875 0.125-1 0-1 0-1 0-1 0-1 0-1 0-1 0-1 0-1 0-0.875-0.125-0.5-0.5-0.125-0.875v-0.5l0.375-0.125q0.375-0.125 0.375-0.375t-0.375-0.375l-0.375-0.125v-1l0.375 0.125q0.375 0.125 0.625 0.375t0.5 0.5 0.5 0.5 0.5 0.25 0.5-0.25 0.5-0.5 0.5-0.5 0.5-0.5 0.25-0.5-0.25-0.5-0.5-0.5-0.5-0.5-0.5-0.5-0.5-0.25-0.5 0.25-0.5 0.5-0.5 0.5-0.625 0.375l-0.375 0.125v-1l0.375-0.125q0.375-0.125 0.375-0.375t-0.375-0.375l-0.375-0.125v-0.5q0-0.5 0-1t0-1 0-1v-0.5l0.375-0.125q0.375-0.125 0.375-0.375t-0.375-0.375l-0.375-0.125v-0.5q0-0.5 0-1t0.125-0.875m-0.125 2v0.625-0.25q0-0.25 0-0.5v-0.25 0.375m0 1.25v0.875-0.25q0-0.25 0-0.5v-0.25 0.125m0 3.75v0.625-0.25q0-0.25 0-0.5v-0.25 0.375m0 1.25v0.875-0.25q0-0.25 0-0.5v-0.25 0.125m0 0.75v0.625-0.25q0-0.25 0-0.5v-0.25 0.375m4.25-1.125q0 0.25 0.25 0.25t0.25-0.25-0.25-0.25-0.25 0.25m-4.25 2.375v0.875-0.25q0-0.25 0-0.5v-0.25 0.125m0 0.75v0.625-0.25q0-0.25 0-0.5v-0.25 0.375m0 1.25v0.875-0.25q0-0.25 0-0.5v-0.25 0.125m4.25-0.375q0 0.25 0.25 0.25t0.25-0.25-0.25-0.25-0.25 0.25" fill="#c90c1e"/>
  <path d="m20.125 4.375-0.125-0.375h0.5q0.5 0 1 0t1 0h0.5l-0.125 0.375q-0.125 0.375-0.5 0.5t-0.875 0.125-0.875-0.125-0.5-0.5" fill-opacity="0"/>
  <g>
   <path d="m21.125 6.4062-0.125-0.34375h-0.1875 0.1875q0.1875 0 0.375 0.0625l0.1875 0.0625-0.5625-0.1875 0.375 0.125q0.375 0.125 0.51562 0.48438l0.14062 0.35938 0.21875 0.03125-0.21875-0.03125q-0.21875-0.03125-0.40625-0.09375l-0.1875-0.0625 0.5625 0.1875-0.375-0.125q-0.375-0.125-0.5-0.46875" fill="#002e89"/>
   <path d="m15 7.5v-0.5l0.375 0.125q0.375 0.125 0.375 0.375t-0.375 0.375l-0.375 0.125v-0.5m0 0.125v0.625-0.25q0-0.25 0-0.5v-0.25 0.375m0-0.75v0.875-0.25q0-0.25 0-0.5v-0.25 0.125" fill="#fff"/>
   <path d="m16.875 7.375q0.125-0.375 0.625-0.375t0.625 0.375 0.375 0.375 0.375-0.375 0.625-0.375 0.375 0.375-0.375 0.625-0.5 0.5-0.625 0.375-0.875 0.125-0.875-0.125-0.375-0.375 0.25-0.5 0.375-0.625" fill="#fff"/>
   <path d="m18.125 7.375-0.125-0.375 0.1875 0.5625-0.0625-0.1875q-0.0625-0.1875-0.21875-0.28125l-0.15625-0.09375 0.15625 0.09375h1.1875l0.15625-0.09375-0.15625 0.09375q-0.15625 0.09375-0.21875 0.28125l-0.0625 0.1875 0.1875-0.5625-0.125 0.375q-0.125 0.375-0.375 0.375t-0.375-0.375" fill="#c90c1e"/>
   <path d="m23.109 7.3906-0.14062-0.35938-0.21875-0.03125 0.21875 0.03125q0.21875 0.03125 0.40625 0.09375l0.1875 0.0625-0.5625-0.1875 0.375 0.125q0.375 0.125 0.51562 0.48438l0.14062 0.35938 0.21875 0.03125-0.21875-0.03125q-0.21875-0.03125-0.40625-0.09375l-0.1875-0.0625 0.5625 0.1875-0.375-0.125q-0.375-0.125-0.51562-0.48438" fill="#002e89"/>
  </g>
  <path d="m22.125 11.375q-0.125-0.375 0.375-0.375t0.5 0.5v0.5l-0.375-0.125q-0.375-0.125-0.5-0.5" fill-opacity="0"/>
  <path d="m24.25 11.5q0-0.25 0.25-0.25t0.25 0.25-0.25 0.25-0.25-0.25" fill="#fff"/>
  <path d="m26 11.5q0-0.5 0.5-0.5t0.5 0.5 0.375 0.625 0.5 0.5 0.625 0.375 0.625-0.375 0.5-0.5l0.375-0.125v4h-0.5q-0.5 0-1 0t-0.625 0.375-0.375 0.375-0.375-0.375-0.5-0.5-0.375-0.375 0.375-0.375 0.375-0.625 0-1-0.5-0.5-1 0h-0.5l0.125-0.375q0.125-0.375 0.5-0.5t0.375-0.625" fill-opacity="0"/>
  <g fill="#fff">
   <path d="m28.25 11.5q0-0.25 0.25-0.25t0.25 0.25-0.25 0.25-0.25-0.25"/>
   <path d="m15 12.5v-0.5l0.375 0.125q0.375 0.125 0.375 0.375t-0.375 0.375l-0.375 0.125v-0.5m0 0.125v0.625-0.25q0-0.25 0-0.5v-0.25 0.375m0-0.75v0.875-0.25q0-0.25 0-0.5v-0.25 0.125"/>
   <path d="m17 12.5q0.25-0.25 0.5-0.25t0.5 0.25 0.5 0.5 0.5 0.5 0.5 0.5 0.25 0.5-0.25 0.5-0.5 0.5-0.5 0.5-0.5 0.5-0.5 0.25-0.5-0.25-0.5-0.5-0.5-0.5-0.625-0.375l-0.375-0.125v-1l0.375-0.125q0.375-0.125 0.625-0.375t0.5-0.5 0.5-0.5m-2 1.375v0.875-0.25q0-0.25 0-0.5v-0.25 0.125m0 0.75v0.625-0.25q0-0.25 0-0.5v-0.25 0.375"/>
   <path d="m19.25 12.5q0-0.25 0.25-0.25t0.25 0.25-0.25 0.25-0.25-0.25"/>
  </g>
  <path d="m23.125 12.375-0.125-0.375 0.375 0.125q0.375 0.125 0.5 0.5l0.125 0.375-0.375-0.125q-0.375-0.125-0.5-0.5" fill-opacity="0"/>
  <path d="m1.125 13.625q0.125-0.375 0.5-0.5t0.875-0.125 0.875 0.125 0.5 0.5 0.125 0.875-0.125 0.875-0.5 0.5-0.875 0.125-0.875-0.125-0.5-0.5-0.125-0.875 0.125-0.875" fill="#fff"/>
  <path d="m5.125 13.625q0.125-0.375 0.5-0.5t0.75 0 0.5 0.5 0.5 0.5 0.5 0.5 0.5 0.5 0.5 0.5 0.625 0.375 1 0 0.875 0.125 0.5 0.5 0.625 0.375 0.5 0.5 0 1 0 1 0 1v0.5h-13v-5l0.375 0.125q0.375 0.125 0.5 0.5t0.625 0.375 1 0 1 0 0.625-0.375 0.5-0.5 0.375-0.625 0-1 0.125-0.875" fill-opacity="0"/>
  <path d="m24.125 13.375-0.125-0.375h1l-0.125 0.375q-0.125 0.375-0.375 0.375t-0.375-0.375" fill-opacity="0"/>
  <g fill="#fff">
   <path d="m25.25 14.5q0-0.25 0.25-0.25t0.25 0.25-0.25 0.25-0.25-0.25"/>
   <path d="m15 16.5v-0.5l0.375 0.125q0.375 0.125 0.375 0.375t-0.375 0.375l-0.375 0.125v-0.5m0 0.125v0.625-0.25q0-0.25 0-0.5v-0.25 0.375m0-0.75v0.875-0.25q0-0.25 0-0.5v-0.25 0.125"/>
   <path d="m19.25 16.5q0-0.25 0.25-0.25t0.25 0.25-0.25 0.25-0.25-0.25"/>
   <path d="m28.25 17.5q0-0.25 0.25-0.25t0.25 0.25-0.25 0.25-0.25-0.25"/>
  </g>
  <path d="m29.25 18.5q0-0.25 0.375-0.375l0.375-0.125v1l-0.375-0.125q-0.375-0.125-0.375-0.375" fill-opacity="0"/>
 </g>
</svg>
