<svg width="17" height="25" version="1.1" viewBox="0 0 17 25" xmlns="http://www.w3.org/2000/svg">
 <g transform="translate(0)">
  <path d="m0 0.5v-0.5h13l-0.125 0.375q-0.125 0.375-0.5 0.5t-0.375 0.625-0.5 0.5-1 0-0.625 0.375-0.5 0.5-0.875 0.125-0.625 0.375-0.5 0.5-0.875 0.125-0.625 0.375-0.5 0.5-0.5 0.5-0.5 0.5-0.5 0.5-0.5 0.5-0.5 0.5-0.5 0.5-0.5 0.5-0.5 0.5-0.375 0.625 0 1 0 1-0.5 0.5h-0.5v-11.5" fill-opacity="0"/>
  <path d="m12.875 0.375 0.125-0.375h3l0.125 0.375q0.125 0.375 0.5 0.5l0.375 0.125v3l-0.375 0.125q-0.375 0.125-0.5 0.5t-0.625 0.375-1 0-0.875 0.125-0.5 0.5 0 0.75 0.5 0.5 0.5 0.5 0.5 0.5 0.5 0.5 0.5 0.5 0.375 0.625 0 1 0 1 0.5 0.5h0.5v3h-0.5q-0.5 0-0.375 0.375t0.5 0.5l0.375 0.125v4l-0.375 0.125q-0.375 0.125-0.5 0.5t-0.125 0.875-0.5 0.5-0.5 0.5-0.5 0.5-0.875 0.125-0.5 0.5-0.625 0.375-0.5 0.5v0.5h-7v-0.5q0-0.5-0.5-0.5t-0.625-0.375-0.5-0.5-0.875-0.125-0.5-0.5-0.5-0.5-0.5-0.5-0.125-0.875-0.5-0.5l-0.375-0.125v-4l0.375-0.125q0.375-0.125 0.5-0.5t-0.375-0.375h-0.5v-3h0.5q0.5 0 0.5-0.5t0-1 0-1 0.375-0.625 0.5-0.5 0.5-0.5 0.5-0.5 0.5-0.5 0.5-0.5 0.5-0.5 0.5-0.5 0.5-0.5 0.5-0.5 0.625-0.375 0.875-0.125 0.5-0.5 0.625-0.375 0.875-0.125 0.5-0.5 0.625-0.375 1 0 0.5-0.5 0.375-0.625 0.5-0.5m-11.625 13.125q0 0.25 0.25 0.25t0.25-0.25-0.25-0.25-0.25 0.25m8.2031 10.453q0.54688 0.046875 0.92188-0.078125t0.625-0.375 0.625-0.375 0.75-0.25 0.625-0.375 0.5-0.5 0.5-0.5 0.5-0.5 0.5-0.5 0.5-0.5 0.375-0.625 0.125-0.875 0-1-0.125-0.875-0.375-0.625-0.375-0.625-0.25-0.75-0.5-0.5-0.75 0-0.375 0.375 0.25 0.5 0.375 0.625 0.125 0.875-0.125 0.875-0.375 0.625-0.5 0.5-0.625 0.375-0.92188 0.17188l-0.54688 0.04687 0.04687 0.07813 0.04688 0.078125-0.09375-0.15625q-0.09375-0.15625-0.28125-0.21875l-0.1875-0.0625 0.5625 0.1875-0.375-0.125q-0.375-0.125-0.625-0.375t-0.5-0.5-0.375-0.625-0.125-0.875 0.125-0.875 0.375-0.625 0.25-0.5-0.375-0.375-0.875-0.125-0.875 0.125-0.375 0.375 0.25 0.5 0.375 0.625 0.125 0.875-0.125 0.875-0.375 0.625-0.5 0.5-0.625 0.375-0.875 0.125-0.875-0.125-0.625-0.375-0.5-0.5-0.375-0.625-0.125-0.875 0.125-0.875 0.375-0.625 0.25-0.5-0.375-0.375-0.75 0-0.5 0.5-0.25 0.75-0.375 0.625-0.375 0.625-0.125 0.875 0 1 0.125 0.875 0.375 0.625 0.5 0.5 0.5 0.5 0.5 0.5 0.5 0.5 0.5 0.5 0.625 0.375 0.75 0.25 0.625 0.375 0.625 0.375 0.875 0.125 1 0h0.5-0.75 0.25q0.25 0 0.40625-0.09375l0.15625-0.09375-0.15625 0.09375 0.54688 0.046875m5.7969-10.453q0 0.25 0.25 0.25t0.25-0.25-0.25-0.25-0.25 0.25m-1.75-0.5q0.5 0 0.875-0.125t0.5-0.5 0-0.75-0.5-0.5-0.75-0.25-0.625-0.375-0.625-0.375-0.875-0.125-1 0-1 0-1 0-1 0-1 0-1 0-0.875 0.125-0.625 0.375-0.625 0.375-0.75 0.25-0.5 0.5 0 0.75 0.5 0.5 0.875 0.125 1 0 1 0 1 0 1 0 1 0 1 0 1 0 1 0 1 0 1 0m0.125-3.125q0.375 0.125 0.75 0t0.375-0.375-0.25-0.5-0.5-0.5-0.5-0.5-0.5-0.5-0.5-0.5-0.375-0.625 0-0.75 0.375-0.625 0.25-0.5-0.25-0.5-0.5-0.5-0.625-0.375-0.75 0-0.625 0.375-0.625 0.375-0.75 0.25-0.625 0.375-0.625 0.375-0.75 0.25-0.625 0.375-0.5 0.5-0.5 0.5-0.5 0.5-0.5 0.5-0.5 0.5-0.5 0.5-0.5 0.5-0.25 0.5 0.375 0.375 0.75 0 0.625-0.375 0.625-0.375 0.875-0.125 1 0 1 0 1 0 1 0 1 0 1 0 0.875 0.125 0.625 0.375 0.625 0.375m-2.125 8.125q0.5 0 0.875-0.125t0.5-0.5 0.125-0.875-0.125-0.875-0.5-0.5-0.875-0.125-0.875 0.125-0.5 0.5-0.125 0.875 0.125 0.875 0.5 0.5 0.875 0.125m-6 0q0.5 0 0.875-0.125t0.5-0.5 0.125-0.875-0.125-0.875-0.5-0.5-0.875-0.125-0.875 0.125-0.5 0.5-0.125 0.875 0.125 0.875 0.5 0.5 0.875 0.125m9-14q0.5 0 0.875-0.125t0.5-0.5 0.125-0.875-0.125-0.875-0.5-0.5-0.875-0.125-0.875 0.125-0.5 0.5-0.125 0.875 0.125 0.875 0.5 0.5 0.875 0.125"/>
  <path d="m16.125 0.375-0.125-0.375h1v1l-0.375-0.125q-0.375-0.125-0.5-0.5" fill-opacity="0"/>
  <path d="m13.125 1.625q0.125-0.375 0.5-0.5t0.875-0.125 0.875 0.125 0.5 0.5 0.125 0.875-0.125 0.875-0.5 0.5-0.875 0.125-0.875-0.125-0.5-0.5-0.125-0.875 0.125-0.875" fill="#fff"/>
  <path d="m10 3.5q0.25-0.25 0.625-0.375t0.75 0 0.625 0.375 0.5 0.5 0.25 0.5-0.25 0.5-0.375 0.625 0 0.75 0.375 0.625 0.5 0.5 0.5 0.5 0.5 0.5 0.5 0.5 0.25 0.5-0.375 0.375-0.75 0-0.625-0.375-0.625-0.375-0.875-0.125-1 0-1 0-1 0-1 0-1 0-1 0-0.875 0.125-0.625 0.375-0.625 0.375-0.75 0-0.375-0.375 0.25-0.5 0.5-0.5 0.5-0.5 0.5-0.5 0.5-0.5 0.5-0.5 0.5-0.5 0.5-0.5 0.625-0.375 0.75-0.25 0.625-0.375 0.625-0.375 0.75-0.25 0.625-0.375" fill="#dc143c"/>
  <path d="m16.125 4.625q0.125-0.375 0.5-0.5l0.375-0.125v8h-0.5q-0.5 0-0.5-0.5t0-1 0-1-0.375-0.625-0.5-0.5-0.5-0.5-0.5-0.5-0.5-0.5-0.5-0.5 0-0.75 0.5-0.5 0.875-0.125 1 0 0.625-0.375" fill-opacity="0"/>
  <g fill="#fff">
   <path d="m4 10.5q0.25-0.25 0.625-0.375t0.875-0.125 1 0 1 0 1 0 1 0 1 0 1 0 0.875 0.125 0.625 0.375 0.625 0.375 0.75 0.25 0.5 0.5 0 0.75-0.5 0.5-0.875 0.125-1 0-1 0-1 0-1 0-1 0-1 0-1 0-1 0-1 0-1 0-0.875-0.125-0.5-0.5 0-0.75 0.5-0.5 0.75-0.25 0.625-0.375"/>
   <path d="m1.25 13.5q0-0.25 0.25-0.25t0.25 0.25-0.25 0.25-0.25-0.25"/>
   <path d="m15.25 13.5q0-0.25 0.25-0.25t0.25 0.25-0.25 0.25-0.25-0.25"/>
  </g>
  <path d="m2.125 14.625q0.125-0.375 0.5-0.5t0.75 0 0.375 0.375-0.25 0.5-0.375 0.625-0.125 0.875 0.125 0.875 0.375 0.625 0.5 0.5 0.625 0.375 0.875 0.125 0.875-0.125 0.625-0.375 0.5-0.5 0.375-0.625 0.125-0.875-0.125-0.875-0.375-0.625-0.25-0.5 0.375-0.375 0.875-0.125 0.875 0.125 0.375 0.375-0.25 0.5-0.375 0.625-0.125 0.875 0.125 0.875 0.375 0.625 0.5 0.5 0.625 0.375 0.25 0.5-0.375 0.625-0.375 0.625-0.125 0.875-0.125 0.875-0.375 0.625-0.375 0.625-0.625 0.375-1 0-0.875-0.125-0.625-0.375-0.625-0.375-0.75-0.25-0.625-0.375-0.5-0.5-0.5-0.5-0.5-0.5-0.5-0.5-0.5-0.5-0.375-0.625-0.125-0.875 0-1 0.125-0.875 0.375-0.625 0.375-0.625 0.25-0.75" fill="#f9f7d8"/>
  <path d="m13.25 14.5q0-0.25 0.375-0.375t0.75 0 0.5 0.5 0.25 0.75 0.375 0.625 0.375 0.625 0.125 0.875 0 1-0.125 0.875-0.375 0.625-0.5 0.5-0.5 0.5-0.5 0.5-0.5 0.5-0.5 0.5-0.625 0.375-0.75 0.25-0.625 0.375-0.625 0.375l-0.375 0.125 0.5625-0.1875-0.1875 0.0625q-0.1875 0.0625-0.40625 0.09375l-0.21875 0.03125 0.21875-0.03125 0.14062-0.35938q0.14062-0.35938 0.39062-0.60938t0.375-0.625 0.25-0.75 0.375-0.625 0.375-0.625 0.10938-0.89062l-0.015625-0.51562-0.21875 0.03125 0.21875-0.03125q0.21875-0.03125 0.40625-0.09375l0.1875-0.0625-0.5625 0.1875 0.375-0.125q0.375-0.125 0.625-0.375t0.5-0.5 0.375-0.625 0.125-0.875-0.125-0.875-0.375-0.625-0.25-0.5" fill="#8248a0"/>
  <path d="m0 15.5v-0.5h0.5q0.5 0 0.375 0.375t-0.5 0.5l-0.375 0.125v-0.5" fill-opacity="0"/>
  <path d="m4.125 15.625q0.125-0.375 0.5-0.5t0.875-0.125 0.875 0.125 0.5 0.5 0.125 0.875-0.125 0.875-0.5 0.5-0.875 0.125-0.875-0.125-0.5-0.5-0.125-0.875 0.125-0.875" fill="#fff"/>
  <path d="m10.125 15.625q0.125-0.375 0.5-0.5t0.875-0.125 0.875 0.125 0.5 0.5 0.125 0.875-0.125 0.875-0.5 0.5-0.875 0.125-0.875-0.125-0.5-0.5-0.125-0.875 0.125-0.875" fill="#fff"/>
  <path d="m16.125 15.375q-0.125-0.375 0.375-0.375h0.5v1l-0.375-0.125q-0.375-0.125-0.5-0.5" fill-opacity="0"/>
  <path d="m10.875 19.375 0.125-0.375v0.75-0.25q0-0.25-0.09375-0.40625l-0.09375-0.15625 0.09374 0.15626 1.0938-0.09376h-0.75 0.25q0.25 0 0.46875-0.03125l0.21875-0.03125-0.21875 0.03126 0.01563 0.51562q0.01562 0.51562-0.10938 0.89062t-0.375 0.625-0.375 0.625-0.25 0.75-0.375 0.625-0.39062 0.60938l-0.14062 0.35938 0.21875-0.03125-0.21875 0.03125q-0.21875 0.03125-0.46875 0.03125h-0.25 0.75l-1.0938-0.09375-0.15625 0.09375 0.15625-0.09375q0.15625-0.09375 0.21875-0.28125l0.0625-0.1875-0.1875 0.5625 0.125-0.375q0.125-0.375 0.375-0.625t0.375-0.625 0.125-0.875 0.125-0.875 0.375-0.625 0.375-0.625" fill="#56554a"/>
  <path d="m0 20.5v-0.5l0.375 0.125q0.375 0.125 0.5 0.5t0.125 0.875 0.5 0.5 0.5 0.5 0.5 0.5 0.875 0.125 0.5 0.5 0.625 0.375 0.5 0.5v0.5h-5v-4.5" fill-opacity="0"/>
  <path d="m16.125 20.625q0.125-0.375 0.5-0.5l0.375-0.125v5h-5v-0.5q0-0.5 0.5-0.5t0.625-0.375 0.5-0.5 0.875-0.125 0.5-0.5 0.5-0.5 0.5-0.5 0.125-0.875" fill-opacity="0"/>
 </g>
</svg>
