<svg width="17" height="25" version="1.1" viewBox="0 0 17 25" xmlns="http://www.w3.org/2000/svg">
 <g transform="translate(0)">
  <path d="m0 0.5v-0.5h7l-0.125 0.375q-0.125 0.375-0.5 0.5t-0.375 0.625 0 1-0.125 0.875-0.5 0.5-0.375 0.625-0.125 0.875-0.5 0.5-0.5 0.5-0.5 0.5-0.375 0.625-0.125 0.875-0.5 0.5-0.375 0.625-0.5 0.5-0.5 0.5 0 1-0.5 0.5h-0.5v-11.5" fill-opacity="0"/>
  <path d="m6.875 0.375 0.125-0.375h3l0.125 0.375q0.125 0.375 0.5 0.5t0.375 0.625 0 1 0.125 0.875 0.5 0.5 0.375 0.625 0.125 0.875 0.5 0.5 0.5 0.5 0.5 0.5 0.375 0.625 0.125 0.875 0.5 0.5 0.375 0.625 0.5 0.5 0.5 0.5 0 1 0.5 0.5h0.5v3h-0.5q-0.5 0-0.375 0.375t0.5 0.5l0.375 0.125v4l-0.375 0.125q-0.375 0.125-0.5 0.5t-0.125 0.875-0.5 0.5-0.5 0.5-0.5 0.5-0.875 0.125-0.5 0.5-0.625 0.375-0.5 0.5v0.5h-7v-0.5q0-0.5-0.5-0.5t-0.625-0.375-0.5-0.5-0.875-0.125-0.5-0.5-0.5-0.5-0.5-0.5-0.125-0.875-0.5-0.5l-0.375-0.125v-4l0.375-0.125q0.375-0.125 0.5-0.5t-0.375-0.375h-0.5v-3h0.5q0.5 0 0.5-0.5t0-1 0.5-0.5 0.5-0.5 0.375-0.625 0.5-0.5 0.125-0.875 0.375-0.625 0.5-0.5 0.5-0.5 0.5-0.5 0.125-0.875 0.375-0.625 0.5-0.5 0.125-0.875 0-1 0.375-0.625 0.5-0.5m2.625 23.625q0.5 0 0.875-0.125t0.625-0.375 0.625-0.375 0.75-0.25 0.625-0.375 0.5-0.5 0.5-0.5 0.5-0.5 0.5-0.5 0.5-0.5 0.375-0.625 0.125-0.875v-0.5 0.75-0.25q0-0.25-0.125-0.375l-0.125-0.125 0.125 0.125 0.0625-0.5625q0.0625-0.5625-0.0625-0.9375t-0.375-0.625-0.375-0.625 0-0.75 0.375-0.625 0.25-0.5-0.25-0.5-0.375-0.625-0.25-0.75-0.375-0.375-0.5 0.25-0.5 0.25-0.5-0.25-0.5-0.25-0.5 0.25-0.5 0.25-0.5-0.25-0.5-0.25-0.5 0.25-0.5 0.25-0.5-0.25-0.5-0.25-0.5 0.25-0.5 0.25-0.5-0.25-0.5-0.25-0.5 0.25-0.5 0.25-0.5-0.25-0.5-0.25-0.5 0.25-0.5 0.25-0.5-0.25-0.5-0.25-0.375 0.375-0.25 0.75-0.375 0.625-0.25 0.5 0.25 0.5 0.375 0.625 0 0.75-0.375 0.625-0.375 0.625-0.0625 0.9375l0.0625 0.5625 0.125-0.125-0.125 0.125q-0.125 0.125-0.125 0.375v0.25-0.75 0.5q0 0.5 0.125 0.875t0.375 0.625 0.5 0.5 0.5 0.5 0.5 0.5 0.5 0.5 0.5 0.5 0.625 0.375 0.75 0.25 0.625 0.375 0.625 0.375 0.875 0.125 1 0 1 0m3.5-13.5q0.25 0.25 0.5 0.25t0.375-0.375 0-0.75-0.375-0.625-0.375-0.625-0.25-0.75-0.375-0.625-0.5-0.5-0.5-0.5-0.375-0.625-0.25-0.75-0.375-0.375-0.5 0.25-0.625 0.375-0.875 0.125-0.875-0.125-0.625-0.375-0.5-0.25-0.375 0.375-0.25 0.75-0.375 0.625-0.5 0.5-0.5 0.5-0.375 0.625-0.25 0.75-0.375 0.625-0.375 0.625 0 0.75 0.375 0.375 0.5-0.25 0.5-0.25 0.5 0.25 0.5 0.25 0.5-0.25 0.5-0.25 0.5 0.25 0.5 0.25 0.5-0.25 0.5-0.25 0.5 0.25 0.5 0.25 0.5-0.25 0.5-0.25 0.5 0.25 0.5 0.25 0.5-0.25 0.5-0.25 0.5 0.25m-4.5-6.5q0.5 0 0.875-0.125t0.5-0.5 0.125-0.875-0.125-0.875-0.5-0.5-0.875-0.125-0.875 0.125-0.5 0.5-0.125 0.875 0.125 0.875 0.5 0.5 0.875 0.125"/>
  <path d="m10.125 0.375-0.125-0.375h7v12h-0.5q-0.5 0-0.5-0.5t0-1-0.5-0.5-0.5-0.5-0.375-0.625-0.5-0.5-0.125-0.875-0.375-0.625-0.5-0.5-0.5-0.5-0.5-0.5-0.125-0.875-0.375-0.625-0.5-0.5-0.125-0.875 0-1-0.375-0.625-0.5-0.5" fill-opacity="0"/>
  <g>
   <path d="m7.125 1.625q0.125-0.375 0.5-0.5t0.875-0.125 0.875 0.125 0.5 0.5 0.125 0.875-0.125 0.875-0.5 0.5-0.875 0.125-0.875-0.125-0.5-0.5-0.125-0.875 0.125-0.875" fill="#dc143c"/>
   <path d="m6.125 4.625q0.125-0.375 0.375-0.375t0.5 0.25 0.625 0.375 0.875 0.125 0.875-0.125 0.625-0.375 0.5-0.25 0.375 0.375 0.25 0.75 0.375 0.625 0.5 0.5 0.5 0.5 0.375 0.625 0.25 0.75 0.375 0.625 0.375 0.625 0 0.75-0.375 0.375-0.5-0.25-0.5-0.25-0.5 0.25-0.5 0.25-0.5-0.25-0.5-0.25-0.5 0.25-0.5 0.25-0.5-0.25-0.5-0.25-0.5 0.25-0.5 0.25-0.5-0.25-0.5-0.25-0.5 0.25-0.5 0.25-0.5-0.25-0.5-0.25-0.5 0.25-0.5 0.25-0.375-0.375 0-0.75 0.375-0.625 0.375-0.625 0.25-0.75 0.375-0.625 0.5-0.5 0.5-0.5 0.375-0.625 0.25-0.75" fill="#009530"/>
   <path d="m2.125 11.625q0.125-0.375 0.375-0.375t0.5 0.25 0.5 0.25 0.5-0.25 0.5-0.25 0.5 0.25 0.5 0.25 0.5-0.25 0.5-0.25 0.5 0.25 0.5 0.25 0.5-0.25 0.5-0.25 0.5 0.25 0.5 0.25 0.5-0.25 0.5-0.25 0.5 0.25 0.5 0.25 0.5-0.25 0.5-0.25 0.5 0.25 0.5 0.25 0.5-0.25 0.5-0.25 0.375 0.375 0.25 0.75 0.375 0.625 0.25 0.5-0.25 0.5-0.375 0.625 0 0.75 0.375 0.625 0.375 0.625 0.0625 0.9375l-0.0625 0.5625 0.125 0.125-0.125-0.125q-0.125-0.125-0.375-0.125h-0.25 0.75-0.5q-0.5 0-1 0h-0.5 0.75-0.25q-0.25 0-0.46875 0.03125l-0.21875 0.03125 0.21875-0.03126-0.01563-0.51562q-0.01562-0.51562-0.01562-1.0156t-0.125-0.875-0.375-0.625-0.25-0.5 0.375-0.375 0.75-0.25 0.375-0.375-0.375-0.375-0.875-0.125-1 0-1 0-1 0-1 0-1 0-1 0-1 0-1 0-1 0-1 0-0.875 0.125-0.375 0.375 0.375 0.375 0.75 0.25 0.375 0.375-0.25 0.5-0.375 0.625-0.125 0.875-0.015625 1.0156l-0.015625 0.51562 0.21875 0.03125-0.21875-0.03125q-0.21875-0.03125-0.46875-0.03125h-0.25 0.75-0.5q-0.5 0-1 0h-0.5 0.75-0.25q-0.25 0-0.375 0.125l-0.125 0.125 0.125-0.125-0.0625-0.5625q-0.0625-0.5625 0.0625-0.9375t0.375-0.625 0.375-0.625 0-0.75-0.375-0.625-0.25-0.5 0.25-0.5 0.375-0.625 0.25-0.75" fill="#dc143c"/>
   <path d="m2.25 13.5q0-0.25 0.375-0.375t0.875-0.125 1 0 1 0 1 0 1 0 1 0 1 0 1 0 1 0 1 0 1 0 0.875 0.125 0.375 0.375-0.375 0.375-0.75 0.25-0.375 0.375 0.25 0.5 0.375 0.625 0.125 0.875 0.01563 1.0156l0.01563 0.51562 0.10938-0.01563 0.10936-0.01562-0.21875 0.03125q-0.21875 0.03125-0.40625 0.09375l-0.1875 0.0625 0.5625-0.1875-0.375 0.125q-0.375 0.125-0.625 0.375t-0.625 0.375-0.875 0.125-0.875-0.125-0.625-0.375-0.625-0.375l-0.375-0.125 0.5625 0.1875-0.1875-0.0625q-0.1875-0.0625-0.40625-0.09375l-0.21875-0.03125 0.21875 0.03125 0.015625-0.51562q0.015625-0.51562 0.015625-1.0156t0.125-0.875 0.375-0.625 0.25-0.5-0.375-0.375-0.875-0.125-0.875 0.125-0.375 0.375 0.25 0.5 0.375 0.625 0.125 0.875 0.015625 1.0156l0.015625 0.51562 0.21875-0.03125-0.21875 0.03125q-0.21875 0.03125-0.40625 0.09375l-0.1875 0.0625 0.5625-0.1875-0.375 0.125q-0.375 0.125-0.625 0.375t-0.625 0.375-0.875 0.125-0.875-0.125-0.625-0.375-0.625-0.375l-0.375-0.125 0.5625 0.1875-0.1875-0.0625q-0.1875-0.0625-0.40625-0.09375l-0.21875-0.03125 0.21875 0.03125 0.015625-0.51562q0.015625-0.51562 0.015625-1.0156t0.125-0.875 0.375-0.625 0.25-0.5-0.375-0.375-0.75-0.25-0.375-0.375m3.25 4.5q0.5 0 0.875-0.125t0.5-0.5 0.125-0.875-0.125-0.875-0.5-0.5-0.875-0.125-0.875 0.125-0.5 0.5-0.125 0.875 0.125 0.875 0.5 0.5 0.875 0.125m6 0q0.5 0 0.875-0.125t0.5-0.5 0.125-0.875-0.125-0.875-0.5-0.5-0.875-0.125-0.875 0.125-0.5 0.5-0.125 0.875 0.125 0.875 0.5 0.5 0.875 0.125"/>
   <path d="m7.25 14.5q0-0.25 0.375-0.375t0.875-0.125 0.875 0.125 0.375 0.375-0.25 0.5-0.375 0.625-0.125 0.875-0.015625 1.0156l-0.015625 0.51562 0.21875 0.03125-0.21875-0.03125q-0.21875-0.03125-0.46875-0.03125h-0.25 0.75-1 0.75-0.25q-0.25 0-0.46875 0.03125l-0.21875 0.03125 0.21875-0.03125-0.015625-0.51562q-0.015625-0.51562-0.015625-1.0156t-0.125-0.875-0.375-0.625-0.25-0.5" fill="#dc143c"/>
  </g>
  <path d="m0 15.5v-0.5h0.5q0.5 0 0.375 0.375t-0.5 0.5l-0.375 0.125v-0.5" fill-opacity="0"/>
  <path d="m4.125 15.625q0.125-0.375 0.5-0.5t0.875-0.125 0.875 0.125 0.5 0.5 0.125 0.875-0.125 0.875-0.5 0.5-0.875 0.125-0.875-0.125-0.5-0.5-0.125-0.875 0.125-0.875" fill="#fff"/>
  <path d="m10.125 15.625q0.125-0.375 0.5-0.5t0.875-0.125 0.875 0.125 0.5 0.5 0.125 0.875-0.125 0.875-0.5 0.5-0.875 0.125-0.875-0.125-0.5-0.5-0.125-0.875 0.125-0.875" fill="#fff"/>
  <path d="m16.125 15.375q-0.125-0.375 0.375-0.375h0.5v1l-0.375-0.125q-0.375-0.125-0.5-0.5" fill-opacity="0"/>
  <path d="m1 18.5q0-0.5 0.5-0.5t1 0 0.875 0.125 0.625 0.375 0.625 0.375 0.875 0.125 0.875-0.125 0.625-0.375 0.625-0.375 0.875-0.125 0.875 0.125 0.625 0.375 0.625 0.375 0.875 0.125 0.875-0.125 0.625-0.375 0.625-0.375 0.875-0.125 1 0 0.5 0.5-0.125 0.875-0.375 0.625-0.5 0.5-0.5 0.5-0.5 0.5-0.5 0.5-0.5 0.5-0.625 0.375-0.75 0.25-0.625 0.375-0.625 0.375-0.875 0.125-1 0-1 0-0.875-0.125-0.625-0.375-0.625-0.375-0.75-0.25-0.625-0.375-0.5-0.5-0.5-0.5-0.5-0.5-0.5-0.5-0.5-0.5-0.375-0.625-0.125-0.875" fill="#fff"/>
  <path d="m0 20.5v-0.5l0.375 0.125q0.375 0.125 0.5 0.5t0.125 0.875 0.5 0.5 0.5 0.5 0.5 0.5 0.875 0.125 0.5 0.5 0.625 0.375 0.5 0.5v0.5h-5v-4.5" fill-opacity="0"/>
  <path d="m16.125 20.625q0.125-0.375 0.5-0.5l0.375-0.125v5h-5v-0.5q0-0.5 0.5-0.5t0.625-0.375 0.5-0.5 0.875-0.125 0.5-0.5 0.5-0.5 0.5-0.5 0.125-0.875" fill-opacity="0"/>
 </g>
</svg>
