<svg width="31" height="25" version="1.1" viewBox="0 0 31 25" xmlns="http://www.w3.org/2000/svg">
 <g transform="translate(0)">
  <path d="m0 0.5v-0.5h14l-0.125 0.375q-0.125 0.375-0.5 0.5t-0.375 0.625-0.125 0.875-0.5 0.5-0.375 0.625-0.125 0.875-0.5 0.5-0.75 0-0.5-0.5-0.625-0.375-0.875-0.125-0.5-0.5-0.625-0.375-1 0-1 0-0.625 0.375-0.5 0.5-0.875 0.125-0.625 0.375-0.5 0.5-0.375 0.625-0.5 0.5-0.625 0.375-0.5 0.5l-0.375 0.125v-6.5" fill-opacity="0"/>
  <path d="m13.875 0.375 0.125-0.375h3l0.125 0.375q0.125 0.375 0.5 0.5t0.375 0.625 0.125 0.875 0.5 0.5 0.375 0.625 0.125 0.875 0.5 0.5 0.75 0 0.5-0.5 0.625-0.375 0.875-0.125 0.5-0.5 0.625-0.375 1 0 1 0 0.625 0.375 0.5 0.5 0.875 0.125 0.625 0.375 0.5 0.5 0.375 0.625 0.5 0.5 0.625 0.375 0.5 0.5l0.375 0.125v3l-0.375 0.125q-0.375 0.125-0.5 0.5t-0.625 0.375-1 0-1 0-0.625-0.375-0.5-0.5-0.375-0.625 0-1-0.125-0.875-0.5-0.5-0.75 0-0.5 0.5-0.5 0.5-0.5 0.5-0.125 0.875 0 1 0 1 0.5 0.5 0.5 0.5 0 1 0 1-0.5 0.5-0.375 0.375 0.5 0.5 0.375 0.625 0 1 0 1 0 1-0.375 0.625-0.5 0.5-0.125 0.875-0.5 0.5-0.5 0.5-0.5 0.5-0.875 0.125-0.5 0.5-0.625 0.375-0.5 0.5v0.5h-7v-0.5q0-0.5-0.5-0.5t-0.625-0.375-0.5-0.5-0.875-0.125-0.5-0.5-0.5-0.5-0.5-0.5-0.125-0.875-0.5-0.5-0.375-0.625 0-1 0-1 0-1 0.375-0.625 0.5-0.5-0.375-0.375-0.5-0.5 0-1 0-1 0.5-0.5 0.5-0.5 0-1 0-1-0.125-0.875-0.5-0.5-0.5-0.5-0.5-0.5-0.75 0-0.5 0.5-0.125 0.875 0 1-0.375 0.625-0.5 0.5-0.625 0.375-1 0-1 0-0.625-0.375-0.5-0.5l-0.375-0.125v-3l0.375-0.125q0.375-0.125 0.5-0.5t0.625-0.375 0.5-0.5 0.375-0.625 0.5-0.5 0.625-0.375 0.875-0.125 0.5-0.5 0.625-0.375 1 0 1 0 0.625 0.375 0.5 0.5 0.875 0.125 0.625 0.375 0.5 0.5 0.75 0 0.5-0.5 0.125-0.875 0.375-0.625 0.5-0.5 0.125-0.875 0.375-0.625 0.5-0.5m-11.375 9.625q0.5 0 0.875-0.125t0.5-0.5 0.125-0.875-0.125-0.875-0.5-0.5-0.875-0.125-0.875 0.125-0.5 0.5-0.125 0.875 0.125 0.875 0.5 0.5 0.875 0.125m14 14q0.5 0 0.875-0.125t0.625-0.375 0.625-0.375 0.75-0.25 0.48438-0.51562l0.10938-0.39062-0.21875 0.03125 0.21875-0.03125q0.21875-0.03125 0.40625-0.09375l0.1875-0.0625-0.5625 0.1875 0.375-0.125q0.375-0.125 0.5-0.5l0.125-0.375v0.75-0.25q0-0.25-0.125-0.375l-0.125-0.125 0.125 0.125 0.4375-0.1875q0.4375-0.1875 0.6875-0.4375t0.5-0.5 0.375-0.625 0.125-0.875 0-1-0.125-0.875-0.375-0.625-0.42188-0.67188l-0.17188-0.42188-0.15625 0.09375 0.15625-0.09375q0.15625-0.09375 0.21875-0.28125l0.0625-0.1875-0.1875 0.5625 0.125-0.375q0.125-0.375 0.375-0.625t0.25-0.5-0.25-0.5-0.375-0.625-0.25-0.75-0.5-0.5-0.75-0.25-0.625-0.375-0.625-0.375-0.875-0.125-1 0-1 0-1 0-1 0-1 0-1 0-0.875 0.125-0.625 0.375-0.625 0.375-0.75 0.25-0.5 0.5-0.25 0.75-0.375 0.625-0.25 0.5 0.25 0.5 0.375 0.625l0.125 0.375-0.1875-0.5625 0.0625 0.1875q0.0625 0.1875 0.21875 0.28125l0.15625 0.09375-0.15625-0.09375-0.17188 0.42188q-0.17188 0.42188-0.42188 0.67188t-0.375 0.625-0.125 0.875 0 1 0.125 0.875 0.375 0.625 0.5 0.5 0.6875 0.4375l0.4375 0.1875 0.125-0.125-0.125 0.125q-0.125 0.125-0.125 0.375v0.25-0.75l0.125 0.375q0.125 0.375 0.5 0.5l0.375 0.125-0.5625-0.1875 0.1875 0.0625q0.1875 0.0625 0.40625 0.09375l0.21875 0.03125-0.21875-0.03125 0.10938 0.39062q0.10938 0.39062 0.48438 0.51562t0.75 0.25 0.625 0.375 0.625 0.375 0.875 0.125 1 0 1 0m4.125-14.125q0.375 0.125 0.75 0t0.5-0.5 0.25-0.75 0.375-0.625 0.5-0.5 0.5-0.5 0.5-0.5 0.625-0.375 0.75 0 0.625 0.375 0.5 0.25 0.5-0.25 0.5-0.5 0.25-0.5-0.375-0.375-0.75-0.25-0.625-0.375-0.625-0.375-0.875-0.125-0.875 0.125-0.625 0.375-0.625 0.375-0.75 0.25-0.625 0.375-0.5 0.5-0.375 0.625-0.125 0.875 0 1 0.125 0.875 0.5 0.5m-3.125-0.875q0.5 0 0.875-0.125t0.5-0.5 0.125-0.875 0-1-0.125-0.875-0.375-0.375-0.375 0.375-0.25 0.75-0.375 0.625-0.5 0.5-0.625 0.375-0.875 0.125-0.875-0.125-0.625-0.375-0.5-0.5-0.375-0.625-0.25-0.75-0.375-0.375-0.375 0.375-0.125 0.875 0 1 0.125 0.875 0.5 0.5 0.875 0.125 1 0 1 0 1 0 1 0m-2-2q0.5 0 0.875-0.125t0.5-0.5 0.125-0.875-0.125-0.875-0.5-0.5-0.875-0.125-0.875 0.125-0.5 0.5-0.125 0.875 0.125 0.875 0.5 0.5 0.875 0.125m1.75-3.5q0 0.25 0.25 0.25t0.25-0.25-0.25-0.25-0.25 0.25m-1.75-0.5q0.5 0 0.875-0.125t0.5-0.5 0-0.75-0.5-0.5-0.875-0.125-0.875 0.125-0.5 0.5 0 0.75 0.5 0.5 0.875 0.125m-2.25 0.5q0 0.25 0.25 0.25t0.25-0.25-0.25-0.25-0.25 0.25m-3.625 6.375q0.375 0.125 0.75 0t0.5-0.5 0.125-0.875 0-1-0.125-0.875-0.375-0.625-0.5-0.5-0.625-0.375-0.75-0.25-0.625-0.375-0.625-0.375-0.875-0.125-0.875 0.125-0.625 0.375-0.625 0.375-0.75 0.25-0.375 0.375 0.25 0.5 0.5 0.5 0.5 0.25 0.5-0.25 0.625-0.375 0.75 0 0.625 0.375 0.5 0.5 0.5 0.5 0.5 0.5 0.375 0.625 0.25 0.75 0.5 0.5m18.875 0.125q0.5 0 0.875-0.125t0.5-0.5 0.125-0.875-0.125-0.875-0.5-0.5-0.875-0.125-0.875 0.125-0.5 0.5-0.125 0.875 0.125 0.875 0.5 0.5 0.875 0.125"/>
  <path d="m17.125 0.375-0.125-0.375h14v7l-0.375-0.125q-0.375-0.125-0.5-0.5t-0.625-0.375-0.5-0.5-0.375-0.625-0.5-0.5-0.625-0.375-0.875-0.125-0.5-0.5-0.625-0.375-1 0-1 0-0.625 0.375-0.5 0.5-0.875 0.125-0.625 0.375-0.5 0.5-0.75 0-0.5-0.5-0.125-0.875-0.375-0.625-0.5-0.5-0.125-0.875-0.375-0.625-0.5-0.5" fill-opacity="0"/>
  <g fill="#009530">
   <path d="m14.125 1.625q0.125-0.375 0.5-0.5t0.875-0.125 0.875 0.125 0.5 0.5 0 0.75-0.5 0.5-0.875 0.125-0.875-0.125-0.5-0.5 0-0.75"/>
   <path d="m13.25 3.5q0-0.25 0.25-0.25t0.25 0.25-0.25 0.25-0.25-0.25"/>
   <path d="m17.25 3.5q0-0.25 0.25-0.25t0.25 0.25-0.25 0.25-0.25-0.25"/>
  </g>
  <g>
   <path d="m5 4.5q0.25-0.25 0.625-0.375t0.875-0.125 0.875 0.125 0.625 0.375 0.625 0.375 0.75 0.25 0.625 0.375 0.5 0.5 0.375 0.625 0.125 0.875 0 1-0.125 0.875-0.5 0.5-0.75 0-0.5-0.5-0.25-0.75-0.375-0.625-0.5-0.5-0.5-0.5-0.5-0.5-0.625-0.375-0.75 0-0.625 0.375-0.5 0.25-0.5-0.25-0.5-0.5-0.25-0.5 0.375-0.375 0.75-0.25 0.625-0.375" fill="#dc143c"/>
   <path d="m14.125 4.625q0.125-0.375 0.5-0.5t0.875-0.125 0.875 0.125 0.5 0.5 0.125 0.875-0.125 0.875-0.5 0.5-0.875 0.125-0.875-0.125-0.5-0.5-0.125-0.875 0.125-0.875" fill="#fff"/>
   <path d="m23 4.5q0.25-0.25 0.625-0.375t0.875-0.125 0.875 0.125 0.625 0.375 0.625 0.375 0.75 0.25 0.375 0.375-0.25 0.5-0.5 0.5-0.5 0.25-0.5-0.25-0.625-0.375-0.75 0-0.625 0.375-0.5 0.5-0.5 0.5-0.5 0.5-0.375 0.625-0.25 0.75-0.5 0.5-0.75 0-0.5-0.5-0.125-0.875 0-1 0.125-0.875 0.375-0.625 0.5-0.5 0.625-0.375 0.75-0.25 0.625-0.375" fill="#ff9700"/>
   <path d="m12.125 5.625q0.125-0.375 0.375-0.375t0.375 0.375 0.25 0.75 0.375 0.625 0.5 0.5 0.625 0.375 0.875 0.125 0.875-0.125 0.625-0.375 0.5-0.5 0.375-0.625 0.25-0.75 0.375-0.375 0.375 0.375 0.125 0.875 0 1-0.125 0.875-0.5 0.5-0.875 0.125-1 0-1 0-1 0-1 0-0.875-0.125-0.5-0.5-0.125-0.875 0-1 0.125-0.875" fill="#009530"/>
   <path d="m1.125 7.625q0.125-0.375 0.5-0.5t0.875-0.125 0.875 0.125 0.5 0.5 0.125 0.875-0.125 0.875-0.5 0.5-0.875 0.125-0.875-0.125-0.5-0.5-0.125-0.875 0.125-0.875" fill="#fff"/>
  </g>
  <path d="m5.125 7.625q0.125-0.375 0.5-0.5t0.75 0 0.5 0.5 0.5 0.5 0.5 0.5 0.125 0.875 0 1 0 1-0.5 0.5-0.5 0.5 0 1 0 1 0.5 0.5 0.375 0.375-0.5 0.5-0.375 0.625 0 1 0 1 0 1 0.375 0.625 0.5 0.5 0.125 0.875 0.5 0.5 0.5 0.5 0.5 0.5 0.875 0.125 0.5 0.5 0.625 0.375 0.5 0.5v0.5h-12v-15l0.375 0.125q0.375 0.125 0.5 0.5t0.625 0.375 1 0 1 0 0.625-0.375 0.5-0.5 0.375-0.625 0-1 0.125-0.875" fill-opacity="0"/>
  <path d="m24.125 7.625q0.125-0.375 0.5-0.5t0.75 0 0.5 0.5 0.125 0.875 0 1 0.375 0.625 0.5 0.5 0.625 0.375 1 0 1 0 0.625-0.375 0.5-0.5l0.375-0.125v15h-12v-0.5q0-0.5 0.5-0.5t0.625-0.375 0.5-0.5 0.875-0.125 0.5-0.5 0.5-0.5 0.5-0.5 0.125-0.875 0.5-0.5 0.375-0.625 0-1 0-1 0-1-0.375-0.625-0.5-0.5 0.375-0.375 0.5-0.5 0-1 0-1-0.5-0.5-0.5-0.5 0-1 0-1 0.125-0.875 0.5-0.5 0.5-0.5" fill-opacity="0"/>
  <g>
   <path d="m27.125 7.625q0.125-0.375 0.5-0.5t0.875-0.125 0.875 0.125 0.5 0.5 0.125 0.875-0.125 0.875-0.5 0.5-0.875 0.125-0.875-0.125-0.5-0.5-0.125-0.875 0.125-0.875" fill="#fff"/>
   <path d="m11 10.5q0.25-0.25 0.625-0.375t0.875-0.125 1 0 1 0 1 0 1 0 1 0 1 0 0.875 0.125 0.625 0.375 0.625 0.375 0.75 0.25 0.5 0.5 0.25 0.75 0.375 0.625 0.25 0.5-0.25 0.5-0.375 0.625-0.625 0.375-0.875-0.125-0.375-0.375 0.375-0.375 0.75-0.25 0.375-0.375-0.375-0.375-0.875-0.125-1 0-1 0-1 0-1 0-1 0-1 0-1 0-1 0-1 0-1 0-0.875 0.125-0.375 0.375 0.375 0.375 0.75 0.25 0.375 0.375-0.375 0.375-0.875 0.125-0.625-0.375-0.375-0.625-0.25-0.5 0.25-0.5 0.375-0.625 0.25-0.75 0.5-0.5 0.75-0.25 0.625-0.375" fill="#fff"/>
   <path d="m9.25 13.5q0-0.25 0.375-0.375t0.875-0.125 1 0 1 0 1 0 1 0 1 0 1 0 1 0 1 0 1 0 1 0 0.875 0.125 0.375 0.375-0.375 0.375-0.75 0.25-0.375 0.375 0.375 0.375l0.375 0.125-0.5625-0.1875 0.1875 0.0625q0.1875 0.0625 0.40625 0.09375l0.21875 0.03125-0.21875-0.03125-0.015625 0.51562q-0.015625 0.51562-0.015625 1.0156t-0.125 0.875-0.375 0.625-0.5 0.5-0.625 0.375-0.875 0.125-1.0156 0.015625l-0.51562 0.01563 0.01563 0.10938 0.01562 0.10937-0.03125-0.21875q-0.03125-0.21875-0.09375-0.40625l-0.0625-0.1875 0.1875 0.5625-0.125-0.375q-0.125-0.375-0.375-0.625t-0.375-0.625-0.125-0.875v-0.5 0.75-0.25q0-0.25-0.125-0.375l-0.125-0.125 0.125 0.125 0.09374-1.1562-0.10938 0.01563-0.10936 0.01562 0.21875-0.03125q0.21875-0.03125 0.40625-0.09375l0.1875-0.0625-0.5625 0.1875 0.375-0.125q0.375-0.125 0.375-0.375t-0.375-0.375-0.875-0.125-0.875 0.125-0.375 0.375 0.375 0.375l0.375 0.125-0.5625-0.1875 0.1875 0.0625q0.1875 0.0625 0.40625 0.09375l0.21875 0.03125-0.21875-0.03125 0.09375 1.1562 0.125-0.125-0.125 0.125q-0.125 0.125-0.125 0.375v0.25-0.75 0.5q0 0.5-0.125 0.875t-0.375 0.625-0.375 0.625l-0.125 0.375 0.1875-0.5625-0.0625 0.1875q-0.0625 0.1875-0.09375 0.40625l-0.03125 0.21875 0.03126-0.21875-0.51562-0.01563q-0.51564-0.01562-1.0156-0.01562t-0.875-0.125-0.625-0.375-0.5-0.5-0.375-0.625-0.125-0.875-0.015625-1.0156l-0.015625-0.51562-0.21875 0.03125 0.21875-0.03125q0.21875-0.03125 0.40625-0.09375l0.1875-0.0625-0.5625 0.1875 0.375-0.125q0.375-0.125 0.375-0.375t-0.375-0.375-0.75-0.25-0.375-0.375m3.25 4.5q0.5 0 0.875-0.125t0.5-0.5 0.125-0.875-0.125-0.875-0.5-0.5-0.875-0.125-0.875 0.125-0.5 0.5-0.125 0.875 0.125 0.875 0.5 0.5 0.875 0.125m6 0q0.5 0 0.875-0.125t0.5-0.5 0.125-0.875-0.125-0.875-0.5-0.5-0.875-0.125-0.875 0.125-0.5 0.5-0.125 0.875 0.125 0.875 0.5 0.5 0.875 0.125"/>
   <path d="m14.25 14.5q0-0.25 0.375-0.375t0.875-0.125 0.875 0.125 0.375 0.375-0.375 0.375-0.875 0.125-0.875-0.125-0.375-0.375" fill="#fff"/>
   <path d="m8.9219 15.328 0.17188-0.42188-0.15625-0.09375 0.15625 0.09375q0.15625 0.09375 0.40625 0.09375h0.25-0.75 1-0.75 0.25q0.25 0 0.46875-0.03125l0.21875-0.03125-0.21875 0.03126 0.015625 0.51562q0.015625 0.51562 0.015625 1.0156t0.125 0.875 0.375 0.625 0.5 0.5 0.625 0.375 0.875 0.125 1.0156 0.01563l0.51562 0.01563 0.03126-0.21875-0.03125 0.21875q-0.03126 0.21874-0.03126 0.46874v0.25-0.75 0.5q0 0.5 0 1v0.5h-0.5q-0.5 0-1 0t-1 0-1 0h-0.5 0.75-0.25q-0.25 0-0.375 0.125l-0.125 0.125 0.125-0.125-0.4375-0.1875q-0.4375-0.1875-0.6875-0.4375t-0.5-0.5-0.375-0.625-0.125-0.875 0-1 0.125-0.875 0.375-0.625 0.42188-0.67188m4.7031 5.6719h0.625-0.25q-0.25 0-0.5 0h-0.25 0.375" fill="#d21034"/>
   <path d="m11.125 15.625q0.125-0.375 0.5-0.5t0.875-0.125 0.875 0.125 0.5 0.5 0.125 0.875-0.125 0.875-0.5 0.5-0.875 0.125-0.875-0.125-0.5-0.5-0.125-0.875 0.125-0.875" fill="#fff"/>
   <path d="m15.078 15.547-0.046875-0.57812-0.21875-0.03125 0.21875 0.03125q0.21875 0.03125 0.46875 0.03125h0.25-0.75 1-0.75 0.25q0.25 0 0.46875-0.03125l0.21875-0.03125-0.21875 0.03126-0.04687 0.57812-0.04688 0.57812 0.125 0.125-0.125-0.125q-0.125-0.125-0.375-0.125h-0.25 0.75-1 0.75-0.25q-0.25 0-0.375 0.125l-0.125 0.125 0.125-0.125-0.046875-0.57812" fill="#d21034"/>
   <path d="m17.125 15.625q0.125-0.375 0.5-0.5t0.875-0.125 0.875 0.125 0.5 0.5 0.125 0.875-0.125 0.875-0.5 0.5-0.875 0.125-0.875-0.125-0.5-0.5-0.125-0.875 0.125-0.875" fill="#fff"/>
   <path d="m21.016 15.484 0.015625-0.51562-0.21875-0.03125 0.21875 0.03125q0.21875 0.03125 0.46875 0.03125h0.25-0.75 1-0.75 0.25q0.25 0 0.40625-0.09375l0.15625-0.09375-0.15626 0.09374 0.17188 0.42188q0.17188 0.42188 0.42188 0.67188t0.375 0.625 0.125 0.875 0 1-0.125 0.875-0.375 0.625-0.5 0.5-0.6875 0.4375l-0.4375 0.1875 0.125 0.125-0.125-0.125q-0.125-0.125-0.375-0.125h-0.25 0.75-0.5q-0.5 0-1 0t-1 0-1 0h-0.5v-0.5q0-0.5 0-1v-0.5 0.75-0.25q0-0.25-0.03125-0.46875l-0.03125-0.21875 0.03126 0.21875 0.51562-0.01563q0.51562-0.01562 1.0156-0.01562t0.875-0.125 0.625-0.375 0.5-0.5 0.375-0.625 0.125-0.875 0.015625-1.0156m-4.1406 5.5156h0.875-0.25q-0.25 0-0.5 0h-0.25 0.125" fill="#d21034"/>
   <path d="m15 16.5q0-0.5 0.5-0.5t0.5 0.5 0.125 0.875 0.375 0.625 0.375 0.625 0.125 0.875 0 1v0.5h-1l-0.125-0.375q-0.125-0.375-0.375-0.375t-0.375 0.375l-0.125 0.375h-1v-0.5q0-0.5 0-1t0.125-0.875 0.375-0.625 0.375-0.625 0.125-0.875m-1.125 4.5h0.875-0.25q-0.25 0-0.5 0h-0.25 0.125m0.75 0h0.625-0.25q-0.25 0-0.5 0h-0.25 0.375m1.25 0h0.875-0.25q-0.25 0-0.5 0h-0.25 0.125m0.75 0h0.625-0.25q-0.25 0-0.5 0h-0.25 0.375" fill="#ffce00"/>
   <path d="m15.125 20.625q0.125-0.375 0.375-0.375t0.375 0.375l0.125 0.375h-1l0.125-0.375m-0.25 0.375h0.875-0.25q-0.25 0-0.5 0h-0.25 0.125m0.75 0h0.625-0.25q-0.25 0-0.5 0h-0.25 0.375" fill="#d21034"/>
   <path d="m10.125 21.375q-0.125-0.375 0.375-0.375t1 0 1 0 1 0 1 0 1 0 1 0 1 0 1 0 1 0 1 0 0.375 0.375-0.5 0.5-0.875 0.125-1 0-1 0-1 0-1 0-1 0-1 0-1 0-1 0-0.875-0.125-0.5-0.5" fill="#fff"/>
   <path d="m11.141 22.359-0.10938-0.39062-0.21875-0.03125 0.21875 0.03125q0.21875 0.03125 0.46875 0.03125h0.25-0.75 0.5q0.5 0 1 0t1 0 1 0 1 0 1 0 1 0 1 0 1 0h0.5-0.75 0.25q0.25 0 0.46875-0.03125l0.21875-0.03125-0.21875 0.03126-0.10938 0.39062q-0.10938 0.39062-0.48438 0.51562t-0.75 0.25-0.625 0.375-0.625 0.375-0.875 0.125-1 0-1 0-0.875-0.125-0.625-0.375-0.625-0.375-0.75-0.25-0.48438-0.51562" fill="#007229"/>
  </g>
 </g>
</svg>
