<svg width="37" height="25" version="1.1" viewBox="0 0 37 25" xmlns="http://www.w3.org/2000/svg">
 <g transform="translate(0)">
  <path d="m0 0.5v-0.5h1l-0.125 0.375q-0.125 0.375-0.5 0.5l-0.375 0.125v-0.5" fill-opacity="0"/>
  <path d="m0.875 0.375 0.125-0.375h3l0.125 0.375q0.125 0.375 0.5 0.5t0.375 0.625 0 1 0.5 0.5 0.625 0.375 0.5 0.5 0.5 0.5 0.5 0.5 0.5 0.5 0.5 0.5 0.5 0.5 0.5 0.5 0.5 0.5 0.5 0.5 0.375 0.625 0.5 0.5 0.5-0.5 0.375-0.625 0.5-0.5 0.5-0.5 0.5-0.5 0.5-0.5 0.5-0.5 0.5-0.5 0.5-0.5 0.5-0.5 0.5-0.5 0.625-0.375 0.5-0.5 0-1 0.375-0.625 0.5-0.5l0.125-0.375h3l0.125 0.375q0.125 0.375 0.5 0.5t0.375 0.625 0 1 0 1-0.375 0.625-0.5 0.5-0.625 0.375-0.5 0.5 0 1-0.375 0.625-0.5 0.5-0.125 0.875-0.375 0.625-0.5 0.5-0.125 0.875 0 1 0.5 0.5 0.5 0.5 0 1 0 1-0.5 0.5-0.375 0.375 0.5 0.5 0.375 0.625 0 1 0 1 0 1-0.375 0.625-0.5 0.5-0.125 0.875-0.5 0.5-0.5 0.5-0.5 0.5-0.875 0.125-0.5 0.5-0.625 0.375-0.5 0.5v0.5h-7v-0.5q0-0.5-0.5-0.5t-0.625-0.375-0.5-0.5-0.875-0.125-0.5-0.5-0.5-0.5-0.5-0.5-0.125-0.875-0.5-0.5-0.375-0.625 0-1 0-1 0-1 0.375-0.625 0.5-0.5-0.375-0.375-0.5-0.5 0-1 0-1 0.5-0.5 0.5-0.5 0-1-0.125-0.875-0.5-0.5-0.375-0.625-0.125-0.875-0.5-0.5-0.375-0.625 0-1-0.5-0.5-0.625-0.375-0.5-0.5l-0.375-0.125v-3l0.375-0.125q0.375-0.125 0.5-0.5m1.625 3.625q0.5 0 0.875-0.125t0.5-0.5 0.125-0.875-0.125-0.875-0.5-0.5-0.875-0.125-0.875 0.125-0.5 0.5-0.125 0.875 0.125 0.875 0.5 0.5 0.875 0.125m1.75 9.5q0 0.25 0.25 0.25t0.25-0.25-0.25-0.25-0.25 0.25m8.25 10.5q0.5 0 0.875-0.125t0.625-0.375 0.625-0.375 0.75-0.25 0.625-0.375 0.5-0.5 0.5-0.5 0.5-0.5 0.5-0.5 0.5-0.5 0.375-0.625 0.125-0.875 0-1-0.125-0.875-0.375-0.625-0.375-0.625-0.25-0.75-0.5-0.5-0.75 0-0.5 0.5-0.125 0.875 0 1-0.125 0.875-0.5 0.5-0.875 0.125-1 0-1 0-1 0-1 0-1 0-1 0-0.875-0.125-0.5-0.5-0.125-0.875 0-1-0.125-0.875-0.5-0.5-0.75 0-0.5 0.5-0.25 0.75-0.375 0.625-0.375 0.625-0.125 0.875 0 1 0.125 0.875 0.375 0.625 0.5 0.5 0.5 0.5 0.5 0.5 0.625 0.375l0.375 0.125-0.5625-0.1875 0.1875 0.0625q0.1875 0.0625 0.375 0.0625h0.1875-0.1875l0.125 0.40625q0.125 0.40625 0.5 0.53125t0.75 0.25 0.625 0.375 0.625 0.375 0.875 0.125 1 0 1 0m5.75-10.5q0 0.25 0.25 0.25t0.25-0.25-0.25-0.25-0.25 0.25m-1.75-0.5q0.5 0 0.875-0.125t0.5-0.5 0-0.75-0.5-0.5-0.75-0.25-0.625-0.375-0.625-0.375-0.875-0.125-1 0-1 0-1 0-1 0-1 0-1 0-0.875 0.125-0.625 0.375-0.625 0.375-0.75 0.25-0.5 0.5 0 0.75 0.5 0.5 0.875 0.125 1 0 1 0 1 0 1 0 1 0 1 0 1 0 1 0 1 0 1 0m0.125-3.125q0.375 0.125 0.75 0t0.625-0.375 0.5-0.5 0.375-0.625 0.25-0.75 0.375-0.625 0.375-0.625 0-0.75-0.375-0.625-0.5-0.5-0.625-0.375-0.75 0-0.625 0.375-0.5 0.5-0.5 0.5-0.5 0.5-0.5 0.5-0.5 0.5-0.5 0.5-0.5 0.5-0.25 0.5 0.375 0.375 0.875 0.125 0.875 0.125 0.625 0.375 0.625 0.375m-11 0q0.375 0.125 0.75 0t0.625-0.375 0.625-0.375 0.875-0.125 0.875-0.125 0.375-0.375-0.25-0.5-0.5-0.5-0.5-0.5-0.5-0.5-0.5-0.5-0.5-0.5-0.5-0.5-0.5-0.5-0.625-0.375-0.75 0-0.625 0.375-0.5 0.5-0.375 0.625 0 0.75 0.375 0.625 0.375 0.625 0.25 0.75 0.375 0.625 0.5 0.5 0.625 0.375m7.875 7.125q0.5 0 0.875-0.125t0.5-0.5 0-0.75-0.5-0.5-0.875-0.125-1 0-1 0-1 0-1 0-0.875 0.125-0.5 0.5 0 0.75 0.5 0.5 0.875 0.125 1 0 1 0 1 0 1 0m7-13q0.5 0 0.875-0.125t0.5-0.5 0.125-0.875-0.125-0.875-0.5-0.5-0.875-0.125-0.875 0.125-0.5 0.5-0.125 0.875 0.125 0.875 0.5 0.5 0.875 0.125"/>
  <path d="m4.125 0.375-0.125-0.375h15l-0.125 0.375q-0.125 0.375-0.5 0.5t-0.375 0.625 0 1-0.5 0.5-0.625 0.375-0.5 0.5-0.5 0.5-0.5 0.5-0.5 0.5-0.5 0.5-0.5 0.5-0.5 0.5-0.5 0.5-0.5 0.5-0.375 0.625-0.5 0.5-0.5-0.5-0.375-0.625-0.5-0.5-0.5-0.5-0.5-0.5-0.5-0.5-0.5-0.5-0.5-0.5-0.5-0.5-0.5-0.5-0.5-0.5-0.625-0.375-0.5-0.5 0-1-0.375-0.625-0.5-0.5" fill-opacity="0"/>
  <path d="m22.125 0.375-0.125-0.375h15v15l-0.375 0.125q-0.375 0.125-0.375 0.375t0.375 0.375l0.375 0.125v9h-22v-0.5q0-0.5 0.5-0.5t0.625-0.375 0.5-0.5 0.875-0.125 0.5-0.5 0.5-0.5 0.5-0.5 0.125-0.875 0.5-0.5 0.375-0.625 0-1 0-1 0-1-0.375-0.625-0.5-0.5 0.375-0.375 0.5-0.5 0-1 0-1-0.5-0.5-0.5-0.5 0-1 0.125-0.875 0.5-0.5 0.375-0.625 0.125-0.875 0.5-0.5 0.375-0.625 0-1 0.5-0.5 0.625-0.375 0.5-0.5 0.375-0.625 0-1 0-1-0.375-0.625-0.5-0.5m2.375 19.625q0.5 0 0.625-0.375t0.5-0.5 0.5-0.5 0.5-0.5 0.375-0.625 0.5-0.5 0.875 0.125 0.5 0.5 0.625 0.375 0.625-0.375 0.5-0.5 0.875-0.125 0.625-0.375 0.5-0.5 0.375-0.625-0.375-0.625-0.5-0.5-0.625-0.375-0.875-0.125-0.5-0.5-0.625-0.375-0.625 0.375-0.5 0.5-0.875 0.125-1 0-1 0-0.625 0.375-0.5 0.5-0.375 0.625-0.5 0.5-0.5 0.5-0.125 0.875-0.5 0.5-0.375 0.625 0 1 0.5 0.5 1 0 1 0m5.75-9.5q0 0.25 0.25 0.25t0.25-0.25-0.25-0.25-0.25 0.25m0 10q0 0.25 0.25 0.25t0.25-0.25-0.25-0.25-0.25 0.25m1.375-1.625q0.375 0.125 0.75 0t0.625-0.375 0.5-0.5 0.5-0.5 0.5-0.5 0.375-0.625 0.125-0.875-0.125-0.875-0.375-0.625-0.5-0.5-0.5-0.5-0.5-0.5-0.625-0.375-0.75 0-0.375 0.375 0.375 0.375 0.75 0.25 0.625 0.375 0.5 0.5 0.375 0.625 0.125 0.875-0.125 0.875-0.375 0.625-0.5 0.5-0.625 0.375-0.75 0.25-0.375 0.375 0.375 0.375m3.625-6.375q0 0.25 0.25 0.25t0.25-0.25-0.25-0.25-0.25 0.25m-2-2q0 0.25 0.25 0.25t0.25-0.25-0.25-0.25-0.25 0.25m0 10q0 0.25 0.25 0.25t0.25-0.25-0.25-0.25-0.25 0.25m2-2q0 0.25 0.25 0.25t0.25-0.25-0.25-0.25-0.25 0.25" fill-opacity="0"/>
  <path d="m1.125 1.625q0.125-0.375 0.5-0.5t0.875-0.125 0.875 0.125 0.5 0.5 0.125 0.875-0.125 0.875-0.5 0.5-0.875 0.125-0.875-0.125-0.5-0.5-0.125-0.875 0.125-0.875" fill="#fff"/>
  <path d="m19.125 1.625q0.125-0.375 0.5-0.5t0.875-0.125 0.875 0.125 0.5 0.5 0.125 0.875-0.125 0.875-0.5 0.5-0.875 0.125-0.875-0.125-0.5-0.5-0.125-0.875 0.125-0.875" fill="#fff"/>
  <path d="m0 4.5v-0.5l0.375 0.125q0.375 0.125 0.5 0.5t0.625 0.375 0.5 0.5 0 1 0.375 0.625 0.5 0.5 0.125 0.875 0.375 0.625 0.5 0.5 0.125 0.875 0 1-0.5 0.5-0.5 0.5 0 1 0 1 0.5 0.5 0.375 0.375-0.5 0.5-0.375 0.625 0 1 0 1 0 1 0.375 0.625 0.5 0.5 0.125 0.875 0.5 0.5 0.5 0.5 0.5 0.5 0.875 0.125 0.5 0.5 0.625 0.375 0.5 0.5v0.5h-8v-20.5" fill-opacity="0"/>
  <g>
   <path d="m4 4.5q0.25-0.25 0.625-0.375t0.75 0 0.625 0.375 0.5 0.5 0.5 0.5 0.5 0.5 0.5 0.5 0.5 0.5 0.5 0.5 0.5 0.5 0.25 0.5-0.375 0.375-0.875 0.125-0.875 0.125-0.625 0.375-0.625 0.375-0.75 0-0.625-0.375-0.5-0.5-0.375-0.625-0.25-0.75-0.375-0.625-0.375-0.625 0-0.75 0.375-0.625 0.5-0.5" fill="#c0c0c0"/>
   <path d="m17 4.5q0.25-0.25 0.625-0.375t0.75 0 0.625 0.375 0.5 0.5 0.375 0.625 0 0.75-0.375 0.625-0.375 0.625-0.25 0.75-0.375 0.625-0.5 0.5-0.625 0.375-0.75 0-0.625-0.375-0.625-0.375-0.875-0.125-0.875-0.125-0.375-0.375 0.25-0.5 0.5-0.5 0.5-0.5 0.5-0.5 0.5-0.5 0.5-0.5 0.5-0.5 0.5-0.5" fill="#c0c0c0"/>
   <path d="m7 10.5q0.25-0.25 0.625-0.375t0.875-0.125 1 0 1 0 1 0 1 0 1 0 1 0 0.875 0.125 0.625 0.375 0.625 0.375 0.75 0.25 0.5 0.5 0 0.75-0.5 0.5-0.875 0.125-1 0-1 0-1 0-1 0-1 0-1 0-1 0-1 0-1 0-1 0-0.875-0.125-0.5-0.5 0-0.75 0.5-0.5 0.75-0.25 0.625-0.375" fill="#fff"/>
  </g>
  <g fill="#0f0">
   <path d="m30.25 10.5q0-0.25 0.25-0.25t0.25 0.25-0.25 0.25-0.25-0.25"/>
   <path d="m33.25 10.5q0-0.25 0.25-0.25t0.25 0.25-0.25 0.25-0.25-0.25"/>
   <path d="m31.25 12.5q0-0.25 0.375-0.375t0.75 0 0.625 0.375 0.5 0.5 0.5 0.5 0.5 0.5 0.375 0.625 0.125 0.875-0.125 0.875-0.375 0.625-0.5 0.5-0.5 0.5-0.5 0.5-0.625 0.375-0.75 0-0.375-0.375 0.375-0.375 0.75-0.25 0.625-0.375 0.5-0.5 0.375-0.625 0.125-0.875-0.125-0.875-0.375-0.625-0.5-0.5-0.625-0.375-0.75-0.25-0.375-0.375"/>
   <path d="m35.25 12.5q0-0.25 0.25-0.25t0.25 0.25-0.25 0.25-0.25-0.25"/>
  </g>
  <g>
   <path d="m4.25 13.5q0-0.25 0.25-0.25t0.25 0.25-0.25 0.25-0.25-0.25" fill="#fff"/>
   <path d="m18.25 13.5q0-0.25 0.25-0.25t0.25 0.25-0.25 0.25-0.25-0.25" fill="#fff"/>
   <path d="m28.875 13.375q0.125-0.375 0.625-0.375t0.625 0.375 0.5 0.5 0.875 0.125 0.625 0.375 0.5 0.5 0.375 0.625-0.375 0.625-0.5 0.5-0.625 0.375-0.875 0.125-0.5 0.5-0.625 0.375-0.625-0.375-0.5-0.5-0.875-0.125-0.5 0.5-0.375 0.625-0.5 0.5-0.5 0.5-0.5 0.5-0.625 0.375-1 0-1 0-0.5-0.5 0-1 0.375-0.625 0.5-0.5 0.125-0.875 0.5-0.5 0.5-0.5 0.375-0.625 0.5-0.5 0.625-0.375 1 0 1 0 0.875-0.125 0.5-0.5m-5.25 5.5q0.375 0.125 0.75 0t0.625-0.375 0.5-0.5 0.25-0.5-0.375-0.375-0.75 0-0.625 0.375-0.5 0.5-0.25 0.5 0.375 0.375m2.875-2.875q0.5 0 0.875-0.125t0.375-0.375-0.375-0.375-0.875-0.125-0.875 0.125-0.375 0.375 0.375 0.375 0.875 0.125m2.625 0.375q0.125 0.375 0.375 0.375t0.375-0.375 0.125-0.875-0.125-0.875-0.375-0.375-0.375 0.375-0.125 0.875 0.125 0.875m2.125-0.875q0 0.25 0.25 0.25t0.25-0.25-0.25-0.25-0.25 0.25"/>
   <path d="m5.125 14.625q0.125-0.375 0.5-0.5t0.75 0 0.5 0.5 0.125 0.875 0 1 0.125 0.875 0.5 0.5 0.875 0.125 1 0 1 0h0.5l-0.125 0.375q-0.125 0.375-0.375 0.625t-0.5 0.5-0.5 0.5-0.5 0.5-0.5 0.5-0.5 0.5-0.625 0.375-0.75 0-0.625-0.375-0.5-0.5-0.5-0.5-0.5-0.5-0.375-0.625-0.125-0.875 0-1 0.125-0.875 0.375-0.625 0.375-0.625 0.25-0.75m6 3.375h-0.875 0.25q0.25 0 0.5 0h0.25-0.125" fill="#c0c0c0"/>
   <path d="m16.125 14.625q0.125-0.375 0.5-0.5t0.75 0 0.5 0.5 0.25 0.75 0.375 0.625 0.375 0.625 0.125 0.875 0 1-0.125 0.875-0.375 0.625-0.5 0.5-0.5 0.5-0.5 0.5-0.5 0.5-0.5 0.5-0.625 0.375-0.75 0.25-0.625 0.375-0.625 0.375-0.875 0.125-1 0-1 0-0.875-0.125-0.625-0.375-0.625-0.375-0.75-0.25-0.5-0.53125l-0.125-0.40625h-0.1875 0.1875q0.1875 0 0.375-0.0625l0.1875-0.0625-0.5625 0.1875 0.375-0.125q0.375-0.125 0.625-0.375t0.5-0.5 0.5-0.5 0.5-0.5 0.5-0.5 0.5-0.5 0.375-0.625l0.125-0.375h0.5q0.5 0 1 0t1 0 1 0 0.875-0.125 0.5-0.5 0.125-0.875 0-1 0.125-0.875m-4.75 3.375h-0.625 0.25q0.25 0 0.5 0h0.25-0.375" fill="#f00"/>
   <path d="m29.125 14.625q0.125-0.375 0.375-0.375t0.375 0.375 0.125 0.875-0.125 0.875-0.375 0.375-0.375-0.375-0.125-0.875 0.125-0.875" fill="#808080"/>
   <path d="m8.125 15.625q0.125-0.375 0.5-0.5t0.875-0.125 1 0 1 0 1 0 1 0 0.875 0.125 0.5 0.5 0 0.75-0.5 0.5-0.875 0.125-1 0-1 0-1 0-1 0-0.875-0.125-0.5-0.5 0-0.75" fill="#fff"/>
   <path d="m25.25 15.5q0-0.25 0.375-0.375t0.875-0.125 0.875 0.125 0.375 0.375-0.375 0.375-0.875 0.125-0.875-0.125-0.375-0.375" fill="#c0c0c0"/>
   <path d="m31.25 15.5q0-0.25 0.25-0.25t0.25 0.25-0.25 0.25-0.25-0.25" fill="#f00"/>
   <path d="m36.25 15.5q0-0.25 0.375-0.375l0.375-0.125v1l-0.375-0.125q-0.375-0.125-0.375-0.375" fill="#0f0"/>
   <path d="m24 17.5q0.25-0.25 0.625-0.375t0.75 0 0.375 0.375-0.25 0.5-0.5 0.5-0.625 0.375-0.75 0-0.375-0.375 0.25-0.5 0.5-0.5" fill="#808080"/>
  </g>
  <g fill="#0f0">
   <path d="m35.25 18.5q0-0.25 0.25-0.25t0.25 0.25-0.25 0.25-0.25-0.25"/>
   <path d="m30.25 20.5q0-0.25 0.25-0.25t0.25 0.25-0.25 0.25-0.25-0.25"/>
   <path d="m33.25 20.5q0-0.25 0.25-0.25t0.25 0.25-0.25 0.25-0.25-0.25"/>
  </g>
 </g>
</svg>
