<svg width="25" height="25" version="1.1" viewBox="0 0 25 25" xmlns="http://www.w3.org/2000/svg">
 <g transform="translate(0)">
  <path d="m0 0.5v-0.5h13l-0.125 0.375q-0.125 0.375-0.5 0.5t-0.375 0.625-0.5 0.5-1 0-0.5 0.5v0.5h-0.5q-0.5 0-1 0t-0.5 0.5v0.5h-0.5q-0.5 0-1 0t-0.5 0.5v0.5h-0.5q-0.5 0-0.5 0.5v0.5h-0.5q-0.5 0-0.625 0.375t-0.5 0.5-0.375 0.625v0.5h-0.5q-0.5 0-0.5 0.5v0.5h-0.5q-0.5 0-0.5 0.5t0 1 0 1-0.5 0.5h-0.5v-11.5" fill-opacity="0"/>
  <path d="m12.875 0.375 0.125-0.375h3l0.125 0.375q0.125 0.375 0.5 0.5t0.375 0.625 0 1 0 1-0.375 0.625-0.5 0.5-0.625 0.375-1 0-1 0h-0.5l-0.125-0.375q-0.125-0.375-0.5-0.5t-0.375-0.625-0.5-0.5-1 0h-0.5v-0.5q0-0.5 0.5-0.5t1 0 0.5-0.5 0.375-0.625 0.5-0.5m1.625 3.625q0.5 0 0.875-0.125t0.5-0.5 0.125-0.875-0.125-0.875-0.5-0.5-0.875-0.125-0.875 0.125-0.5 0.5-0.125 0.875 0.125 0.875 0.5 0.5 0.875 0.125"/>
  <path d="m16.125 0.375-0.125-0.375h9v20l-0.375-0.125q-0.375-0.125-0.5-0.5t-0.5-0.5-0.5-0.5-0.125-0.875 0-1 0-1 0-1 0-1 0-1 0-1 0-1-0.375-0.625-0.5-0.5-0.125-0.875 0-1 0-1-0.375-0.625-0.5-0.5-0.125-0.875-0.375-0.625-0.5-0.5-0.625-0.375-1 0-0.5 0.5 0 1 0 1 0.375 0.625 0.5 0.5 0.125 0.875 0 1 0 1 0.375 0.625 0.5 0.5 0.125 0.875 0 1 0 1 0 1 0 1 0 1 0 1-0.5 0.5-0.5 0.5 0 1 0.375 0.625 0.5 0.5 0.125 0.875 0 1 0 1 0.375 0.625 0.5 0.5l0.125 0.375h-9v-0.5q0-0.5 0.5-0.5t0.625-0.375 0.5-0.5 0.875-0.125 0.5-0.5 0.5-0.5 0.5-0.5 0.125-0.875 0.5-0.5 0.375-0.625 0-1 0-1 0-1-0.375-0.625-0.5-0.5 0.375-0.375 0.5-0.5 0-1 0-1-0.5-0.5-0.5-0.5 0-1 0-1-0.5-0.5h-0.5v-0.5q0-0.5-0.5-0.5h-0.5v-0.5q0-0.5-0.375-0.625t-0.5-0.5-0.125-0.875v-0.5h0.5q0.5 0 1 0t1 0 0.625-0.375 0.5-0.5 0.375-0.625 0-1 0-1-0.375-0.625-0.5-0.5" fill-opacity="0"/>
  <g>
   <path d="m13.125 1.625q0.125-0.375 0.5-0.5t0.875-0.125 0.875 0.125 0.5 0.5 0.125 0.875-0.125 0.875-0.5 0.5-0.875 0.125-0.875-0.125-0.5-0.5-0.125-0.875 0.125-0.875" fill="#fff"/>
   <path d="m8 3.5q0-0.5 0.5-0.5t1 0h0.5v0.5q0 0.5-0.5 0.5t-1 0h-0.5v-0.5"/>
   <path d="m10 3.5v-0.5h0.5q0.5 0 1 0t0.5 0.5 0.375 0.625 0.5 0.5l0.125 0.375h-0.5q-0.5 0-0.5 0.5t-0.125 0.875 0.15625 0.65625l0.28125 0.28125 0.0625-0.0625-0.0625 0.0625q-0.0625 0.0625-0.0625 0.1875v0.125-0.375 0.25q0 0.25 0.25 0.25h0.25-0.375 0.125q0.125 0 0.1875-0.0625l0.0625-0.0625-0.0625 0.0625 0.28125 0.28125q0.28125 0.28125 0.65625 0.15625l0.375-0.125v0.5q0 0.5 0.5 0.5h0.5v0.5q0 0.5-0.5 0.5t-0.875-0.125-0.5-0.5-0.5-0.25-0.65625-0.15625l-0.28125-0.28125-0.0625 0.0625 0.0625-0.0625q0.0625-0.0625 0.0625-0.1875v-0.125 0.375-0.25q0-0.25-0.25-0.5t-0.375-0.625-0.25-0.75-0.375-0.375-0.5 0.25-0.5 0.5-0.5 0.5-0.5 0.25-0.5-0.25-0.5-0.5-0.5-0.5-0.5-0.25-0.375 0.375-0.25 0.75-0.375 0.625-0.25 0.5v0.25-0.375 0.125q0 0.125 0.0625 0.1875l0.0625 0.0625-0.0625-0.0625-0.28125 0.28125q-0.28125 0.28125-0.65625 0.15625t-0.5 0.25-0.5 0.5-0.875 0.125-0.5-0.5v-0.5h0.5q0.5 0 0.5-0.5v-0.5l0.375 0.125q0.375 0.125 0.65625-0.15625l0.28125-0.28125-0.0625-0.0625 0.0625 0.0625q0.0625 0.0625 0.1875 0.0625h0.125-0.375 0.25q0.25 0 0.25-0.25v-0.25 0.375-0.125q0-0.125-0.0625-0.1875l-0.0625-0.0625 0.0625 0.0625 0.28125-0.28125q0.28125-0.28125 0.15625-0.65625l-0.125-0.375 0.375-0.125q0.375-0.125 0.5-0.5l0.125-0.375 0.375-0.125q0.375-0.125 0.67188 0.14062l0.29688 0.26562 0.09375-0.09375-0.09375 0.09375q-0.09375 0.09375-0.09375 0.21875v0.125-0.375 0.25q0 0.25 0.25 0.5t0.5 0.5 0.5 0.25 0.5-0.25 0.5-0.5 0.25-0.5-0.375-0.375-0.875-0.125h-0.5v-1h0.5q0.5 0 1 0t0.5-0.5" fill="#1f1f1f"/>
   <path d="m18 3.5q0-0.5 0.5-0.5t1 0 0.625 0.375 0.5 0.5 0.375 0.625 0.125 0.875 0.5 0.5 0.375 0.625 0 1 0 1 0.125 0.875 0.5 0.5 0.375 0.625 0 1 0 1 0 1 0 1 0 1 0 1 0 1 0.125 0.875 0.5 0.5 0.5 0.5 0.5 0.5l0.375 0.125v3l-0.375 0.125q-0.375 0.125-0.5 0.5t-0.5 0.5-0.5 0.5l-0.125 0.375h-2l-0.125-0.375q-0.125-0.375-0.5-0.5t-0.375-0.625 0-1 0-1-0.125-0.875-0.5-0.5-0.375-0.625 0-1 0.5-0.5 0.5-0.5 0-1 0-1 0-1 0-1 0-1 0-1-0.125-0.875-0.5-0.5-0.375-0.625 0-1 0-1-0.125-0.875-0.5-0.5-0.375-0.625 0-1 0-1m3.625 20.375q0.375 0.125 0.75 0t0.625-0.375 0.5-0.5 0.375-0.625 0.125-0.875-0.125-0.875-0.375-0.625-0.5-0.5-0.625-0.375-0.875-0.125-0.875 0.125-0.375 0.375 0.25 0.5 0.375 0.625 0.125 0.875 0 1 0.125 0.875 0.5 0.5m-0.5-6.5q0.125 0.375 0.375 0.375t0.375-0.375 0.125-0.875 0-1 0-1 0-1 0-1 0-1-0.125-0.875-0.375-0.625-0.375-0.625-0.125-0.875 0-1-0.125-0.875-0.375-0.625-0.375-0.625-0.25-0.75-0.375-0.375-0.375 0.375 0 0.75 0.375 0.625 0.375 0.625 0.125 0.875 0 1 0.125 0.875 0.375 0.625 0.375 0.625 0.125 0.875 0 1 0 1 0 1 0 1 0 1 0.125 0.875"/>
   <path d="m6 4.5q0-0.5 0.5-0.5t1 0h0.5v1l-0.75 0.25 0.5625-0.1875-0.1875 0.0625q-0.1875 0.0625-0.28125 0.15625l-0.09375 0.09375 0.09375-0.09375-0.29688-0.26562q-0.29688-0.26562-0.67188-0.14062l-0.375 0.125v-0.5"/>
   <path d="m19.125 4.625q0.125-0.375 0.375-0.375t0.375 0.375 0.25 0.75 0.375 0.625 0.375 0.625 0.125 0.875 0 1 0.125 0.875 0.375 0.625 0.375 0.625 0.125 0.875 0 1 0 1 0 1 0 1 0 1-0.125 0.875-0.375 0.375-0.375-0.375-0.125-0.875 0-1 0-1 0-1 0-1 0-1-0.125-0.875-0.375-0.625-0.375-0.625-0.125-0.875 0-1-0.125-0.875-0.375-0.625-0.375-0.625 0-0.75" fill="#d9cfd7"/>
   <path d="M 5,5.5 Q 5,5 5.5,5 H 6 L 5.875,5.375 Q 5.75,5.75 5.375,5.875 L 5,6 V 5.5"/>
   <path d="m7.25 5.5q0-0.25 0.375-0.375l0.375-0.125h0.5q0.5 0 0.875 0.125t0.375 0.375-0.25 0.5-0.5 0.5-0.5 0.25-0.5-0.25-0.5-0.5-0.25-0.5" fill="#fff"/>
   <path d="m12 5.5q0-0.5 0.5-0.5h0.5v0.5q0 0.5 0.125 0.875t0.5 0.5 0.375 0.625v0.5l-0.375 0.125q-0.375 0.125-0.65625-0.15625l-0.28125-0.28125-0.0625 0.0625 0.0625-0.0625q0.0625-0.0625 0.0625-0.1875v-0.125 0.375-0.25q0-0.25-0.25-0.25h-0.25 0.375-0.125q-0.125 0-0.1875 0.0625l-0.0625 0.0625 0.0625-0.0625-0.28125-0.28125q-0.28125-0.28125-0.15625-0.65625t0.125-0.875"/>
   <path d="m3.875 6.375q0.125-0.375 0.625-0.375h0.5l0.125 0.375q0.125 0.375-0.15625 0.65625l-0.28125 0.28125 0.0625 0.0625-0.0625-0.0625q-0.0625-0.0625-0.1875-0.0625h-0.125 0.375-0.25q-0.25 0-0.25 0.25v0.25-0.375 0.125q0 0.125 0.0625 0.1875l0.0625 0.0625-0.0625-0.0625-0.28125 0.28125q-0.28125 0.28125-0.65625 0.15625l-0.375-0.125v-0.5q0-0.5 0.375-0.625t0.5-0.5"/>
  </g>
  <g fill="#fff">
   <path d="m6.125 6.625q0.125-0.375 0.375-0.375t0.5 0.25 0.5 0.5 0.5 0.5 0.5 0.25 0.5-0.25 0.5-0.5 0.5-0.5 0.5-0.25 0.375 0.375 0.25 0.75 0.375 0.625 0.25 0.5-0.25 0.25-0.5-0.25-0.5-0.25-0.5 0.25-0.625 0.375-0.875 0.125-0.875-0.125-0.625-0.375-0.5-0.25-0.5 0.25-0.5 0.25-0.25-0.25 0.25-0.5 0.375-0.625 0.25-0.75"/>
   <path d="m4.25 7.5q0-0.25 0.25-0.25t0.25 0.25-0.25 0.25-0.25-0.25"/>
   <path d="m12.25 7.5q0-0.25 0.25-0.25t0.25 0.25-0.25 0.25-0.25-0.25"/>
  </g>
  <g>
   <path d="M 2,8.5 Q 2,8 2.5,8 H 3 V 8.5 Q 3,9 2.5,9 H 2 V 8.5"/>
   <path d="m6 8.5q0.25-0.25 0.5-0.25t0.5 0.25l0.25 0.25-0.375-0.375 0.125 0.125q0.125 0.125 0.28125 0.21875l0.15625 0.09375-0.15625-0.09375-0.26562 0.26562q-0.26562 0.26562-0.51562 0.26562t-0.5-0.28125l-0.25-0.28125-0.125 0.0625 0.125-0.0625q0.125-0.0625 0.25-0.1875l0.125-0.125-0.375 0.375 0.25-0.25" fill="#1f1f1f"/>
   <path d="m10 8.5q0.25-0.25 0.5-0.25t0.5 0.25l0.25 0.25-0.375-0.375 0.125 0.125q0.125 0.125 0.25 0.1875l0.125 0.0625-0.125-0.0625-0.25 0.28125q-0.25 0.28125-0.5 0.28125t-0.51562-0.26562l-0.26562-0.26562-0.15625 0.09375 0.15625-0.09375q0.15625-0.09375 0.28125-0.21875l0.125-0.125-0.375 0.375 0.25-0.25" fill="#1f1f1f"/>
   <path d="m14 8.5v-0.5h0.5q0.5 0 0.5 0.5v0.5h-0.5q-0.5 0-0.5-0.5"/>
   <path d="m1 9.5q0-0.5 0.5-0.5h0.5v0.5q0 0.5 0.5 0.5t0.875-0.125 0.5-0.5 0.5-0.25 0.65625-0.15625l0.28125-0.28125-0.0625-0.0625 0.0625 0.0625q0.0625 0.0625 0.1875 0.0625h0.125-0.375 0.5-0.375 0.125q0.125 0 0.25-0.0625l0.125-0.0625-0.125 0.0625 0.25 0.28125q0.25 0.28125 0.5 0.28125t0.51562-0.26562l0.26562-0.26562-0.15625-0.09375 0.15625 0.09375q0.15625 0.09375 0.34375 0.15625l0.1875 0.0625-0.5625-0.1875 0.375 0.125q0.375 0.125 0.875 0.125t0.875-0.125l0.375-0.125-0.5625 0.1875 0.1875-0.0625q0.1875-0.0625 0.34375-0.15625l0.15625-0.09375-0.15625 0.09375 0.26562 0.26562q0.26562 0.26562 0.51562 0.26562t0.5-0.28125l0.25-0.28125-0.125-0.0625 0.125 0.0625q0.125 0.0625 0.25 0.0625h0.125-0.375 0.5-0.375 0.125q0.125 0 0.1875-0.0625l0.0625-0.0625-0.0625 0.0625 0.28125 0.28125q0.28125 0.28125 0.65625 0.15625t0.5 0.25 0.5 0.5 0.875 0.125 0.5-0.5v-0.5h0.5q0.5 0 0.5 0.5t0 1 0 1 0.5 0.5 0.5 0.5 0 1 0 1-0.5 0.5-0.375 0.375 0.5 0.5 0.375 0.625 0 1 0 1 0 1-0.375 0.625-0.5 0.5-0.125 0.875-0.5 0.5-0.5 0.5-0.5 0.5-0.875 0.125-0.5 0.5-0.625 0.375-0.5 0.5v0.5h-7v-0.5q0-0.5-0.5-0.5t-0.625-0.375-0.5-0.5-0.875-0.125-0.5-0.5-0.5-0.5-0.5-0.5-0.125-0.875-0.5-0.5l-0.375-0.125v-4l0.375-0.125q0.375-0.125 0.5-0.5t-0.375-0.375h-0.5v-3h0.5q0.5 0 0.5-0.5t0-1 0-1m0.25 4q0 0.25 0.25 0.25t0.25-0.25-0.25-0.25-0.25 0.25m8.25 10.5q0.5 0 0.875-0.125t0.625-0.375 0.625-0.375 0.75-0.25 0.625-0.375 0.5-0.5 0.5-0.5 0.5-0.5 0.5-0.5 0.5-0.5 0.375-0.625 0.125-0.875 0-1-0.125-0.875-0.375-0.625-0.375-0.625-0.25-0.75-0.5-0.5-0.75 0-0.375 0.375 0.25 0.5 0.375 0.625 0.125 0.875-0.125 0.875-0.375 0.625-0.5 0.5-0.625 0.375-0.875 0.125-0.875-0.125-0.625-0.375-0.5-0.5-0.375-0.625-0.125-0.875 0.125-0.875 0.375-0.625 0.25-0.5-0.375-0.375-0.875-0.125-0.875 0.125-0.375 0.375 0.25 0.5 0.375 0.625 0.125 0.875-0.125 0.875-0.375 0.625-0.5 0.5-0.625 0.375-0.875 0.125-0.875-0.125-0.625-0.375-0.5-0.5-0.375-0.625-0.125-0.875 0.125-0.875 0.375-0.625 0.25-0.5-0.375-0.375-0.75 0-0.5 0.5-0.25 0.75-0.375 0.625-0.375 0.625-0.125 0.875 0 1 0.125 0.875 0.375 0.625 0.5 0.5 0.5 0.5 0.5 0.5 0.5 0.5 0.5 0.5 0.625 0.375 0.75 0.25 0.625 0.375 0.625 0.375 0.875 0.125 1 0 1 0m5.75-10.5q0 0.25 0.25 0.25t0.25-0.25-0.25-0.25-0.25 0.25m-1.75-0.5q0.5 0 0.875-0.125t0.5-0.5 0-0.75-0.5-0.5-0.75-0.25-0.625-0.375-0.625-0.375-0.875-0.125-1 0-1 0-1 0-1 0-1 0-1 0-0.875 0.125-0.625 0.375-0.625 0.375-0.75 0.25-0.5 0.5 0 0.75 0.5 0.5 0.875 0.125 1 0 1 0 1 0 1 0 1 0 1 0 1 0 1 0 1 0 1 0m-2 5q0.5 0 0.875-0.125t0.5-0.5 0.125-0.875-0.125-0.875-0.5-0.5-0.875-0.125-0.875 0.125-0.5 0.5-0.125 0.875 0.125 0.875 0.5 0.5 0.875 0.125m-6 0q0.5 0 0.875-0.125t0.5-0.5 0.125-0.875-0.125-0.875-0.5-0.5-0.875-0.125-0.875 0.125-0.5 0.5-0.125 0.875 0.125 0.875 0.5 0.5 0.875 0.125"/>
  </g>
  <g fill="#fff">
   <path d="m4 10.5q0.25-0.25 0.625-0.375t0.875-0.125 1 0 1 0 1 0 1 0 1 0 1 0 0.875 0.125 0.625 0.375 0.625 0.375 0.75 0.25 0.5 0.5 0 0.75-0.5 0.5-0.875 0.125-1 0-1 0-1 0-1 0-1 0-1 0-1 0-1 0-1 0-1 0-0.875-0.125-0.5-0.5 0-0.75 0.5-0.5 0.75-0.25 0.625-0.375"/>
   <path d="m1.25 13.5q0-0.25 0.25-0.25t0.25 0.25-0.25 0.25-0.25-0.25"/>
   <path d="m15.25 13.5q0-0.25 0.25-0.25t0.25 0.25-0.25 0.25-0.25-0.25"/>
  </g>
  <path d="m2.125 14.625q0.125-0.375 0.5-0.5t0.75 0 0.375 0.375-0.25 0.5-0.375 0.625-0.125 0.875 0.125 0.875 0.375 0.625 0.5 0.5 0.625 0.375 0.875 0.125 0.875-0.125 0.625-0.375 0.5-0.5 0.375-0.625 0.125-0.875-0.125-0.875-0.375-0.625-0.25-0.5 0.375-0.375 0.875-0.125 0.875 0.125 0.375 0.375-0.25 0.5-0.375 0.625-0.125 0.875 0.125 0.875 0.375 0.625 0.5 0.5 0.625 0.375 0.875 0.125 0.875-0.125 0.625-0.375 0.5-0.5 0.375-0.625 0.125-0.875-0.125-0.875-0.375-0.625-0.25-0.5 0.375-0.375 0.75 0 0.5 0.5 0.25 0.75 0.375 0.625 0.375 0.625 0.125 0.875 0 1-0.125 0.875-0.375 0.625-0.5 0.5-0.5 0.5-0.5 0.5-0.5 0.5-0.5 0.5-0.625 0.375-0.75 0.25-0.625 0.375-0.625 0.375-0.875 0.125-1 0-1 0-0.875-0.125-0.625-0.375-0.625-0.375-0.75-0.25-0.625-0.375-0.5-0.5-0.5-0.5-0.5-0.5-0.5-0.5-0.5-0.5-0.375-0.625-0.125-0.875 0-1 0.125-0.875 0.375-0.625 0.375-0.625 0.25-0.75" fill="#444"/>
  <path d="m0 15.5v-0.5h0.5q0.5 0 0.375 0.375t-0.5 0.5l-0.375 0.125v-0.5" fill-opacity="0"/>
  <g>
   <path d="m4.125 15.625q0.125-0.375 0.5-0.5t0.875-0.125 0.875 0.125 0.5 0.5 0.125 0.875-0.125 0.875-0.5 0.5-0.875 0.125-0.875-0.125-0.5-0.5-0.125-0.875 0.125-0.875" fill="#fff"/>
   <path d="m10.125 15.625q0.125-0.375 0.5-0.5t0.875-0.125 0.875 0.125 0.5 0.5 0.125 0.875-0.125 0.875-0.5 0.5-0.875 0.125-0.875-0.125-0.5-0.5-0.125-0.875 0.125-0.875" fill="#fff"/>
   <path d="m20.25 19.5q0-0.25 0.375-0.375t0.875-0.125 0.875 0.125 0.625 0.375 0.5 0.5 0.375 0.625 0.125 0.875-0.125 0.875-0.375 0.625-0.5 0.5-0.625 0.375-0.75 0-0.5-0.5-0.125-0.875 0-1-0.125-0.875-0.375-0.625-0.25-0.5m1.875 2.875q0.125 0.375 0.375 0.375t0.375-0.375 0.125-0.875-0.125-0.875-0.375-0.375-0.375 0.375-0.125 0.875 0.125 0.875" fill="#f4b611"/>
  </g>
  <path d="m0 20.5v-0.5l0.375 0.125q0.375 0.125 0.5 0.5t0.125 0.875 0.5 0.5 0.5 0.5 0.5 0.5 0.875 0.125 0.5 0.5 0.625 0.375 0.5 0.5v0.5h-5v-4.5" fill-opacity="0"/>
  <path d="m22.125 20.625q0.125-0.375 0.375-0.375t0.375 0.375 0.125 0.875-0.125 0.875-0.375 0.375-0.375-0.375-0.125-0.875 0.125-0.875"/>
  <path d="m24.125 23.625q0.125-0.375 0.5-0.5l0.375-0.125v2h-2l0.125-0.375q0.125-0.375 0.5-0.5t0.5-0.5" fill-opacity="0"/>
 </g>
</svg>
