<svg width="17" height="25" version="1.1" viewBox="0 0 17 25" xmlns="http://www.w3.org/2000/svg">
 <g transform="translate(0)">
  <path d="m0 0.5v-0.5h7l-0.125 0.375q-0.125 0.375-0.5 0.5t-0.375 0.625 0 1-0.125 0.875-0.5 0.5-0.375 0.625-0.125 0.875-0.5 0.5-0.5 0.5-0.5 0.5-0.375 0.625-0.125 0.875-0.5 0.5-0.375 0.625-0.5 0.5-0.5 0.5 0 1-0.5 0.5h-0.5v-11.5" fill-opacity="0"/>
  <path d="m6.875 0.375 0.125-0.375h3l0.125 0.375q0.125 0.375 0.5 0.5t0.375 0.625 0 1 0.125 0.875 0.5 0.5 0.375 0.625 0.125 0.875 0.5 0.5 0.5 0.5 0.5 0.5 0.375 0.625 0.125 0.875 0.5 0.5 0.375 0.625 0.5 0.5 0.5 0.5 0 1 0.5 0.5h0.5v7l-0.375 0.125q-0.375 0.125-0.375 0.375t0.375 0.375l0.375 0.125v1l-0.375 0.125q-0.375 0.125-0.5 0.5t-0.625 0.375-0.5 0.5-0.5 0.5-0.875 0.125-0.5 0.5-0.125 0.875v0.5h-8l-0.125-0.375q-0.125-0.375-0.5-0.5t-0.5-0.5-0.5-0.5-0.875-0.125-0.625-0.375-0.5-0.5-0.375-0.625-0.125-0.875-0.5-0.5l-0.375-0.125v-8h0.5q0.5 0 0.5-0.5t0-1 0.5-0.5 0.5-0.5 0.375-0.625 0.5-0.5 0.125-0.875 0.375-0.625 0.5-0.5 0.5-0.5 0.5-0.5 0.125-0.875 0.375-0.625 0.5-0.5 0.125-0.875 0-1 0.375-0.625 0.5-0.5m-5.625 13.125q0 0.25 0.25 0.25t0.25-0.25-0.25-0.25-0.25 0.25m9.25 10.5q0.5 0 0.875-0.125t0.625-0.375 0.5-0.5 0.35938-0.64062l0.10938-0.39062-0.21875 0.03125 0.21875-0.03125q0.21875-0.03125 0.40625-0.09375l0.1875-0.0625-0.5625 0.1875 0.375-0.125q0.375-0.125 0.625-0.375t0.625-0.375 0.75-0.25 0.375-0.375-0.375-0.375-0.875-0.125-1 0-1 0-0.875-0.125-0.375-0.375 0.375-0.375 0.875-0.125 1 0 1 0 0.875-0.125 0.375-0.375-0.375-0.375-0.75-0.25-0.625-0.375-0.625-0.375-0.875-0.125-0.375-0.375 0.375-0.625 0.25-0.5-0.25-0.5-0.5-0.5-0.5-0.25-0.5 0.25-0.5 0.5-0.25 0.5 0.25 0.5 0.375 0.625-0.25 0.5-0.625 0.375-0.625 0.375-0.75 0.25-0.625 0.375-0.5 0.5-0.25 0.5 0.25 0.5 0.5 0.5 0.625 0.375 0.75 0.25 0.5 0.5l0.125 0.375-0.1875-0.5625 0.0625 0.1875q0.0625 0.1875 0.21875 0.28125l0.15625 0.09375-0.15625-0.09375-0.42188 0.17188q-0.42188 0.17188-0.67188 0.42188t-0.5 0.25-0.5-0.25-0.625-0.375-0.75-0.25-0.625-0.375-0.5-0.5-0.5-0.5-0.5-0.5-0.5-0.5-0.5-0.5-0.375-0.625-0.25-0.75-0.375-0.625-0.375-0.625-0.25-0.75-0.375-0.375-0.375 0.375-0.125 0.875 0 1 0 1 0.125 0.875 0.375 0.625 0.375 0.625 0.25 0.75 0.5 0.5 0.75 0.25 0.625 0.375 0.5 0.5 0.5 0.5 0.625 0.375 0.875 0.125 1 0 1 0 1 0 1 0m4.625-7.625q0.125 0.375 0.375 0.375t0.375-0.375 0-0.75-0.375-0.375-0.375 0.375 0 0.75m-0.875-1.875q0 0.25 0.25 0.25t0.25-0.25-0.25-0.25-0.25 0.25m1-1q0 0.25 0.25 0.25t0.25-0.25-0.25-0.25-0.25 0.25m-1.75-0.5q0.5 0 0.875-0.125t0.5-0.5 0-0.75-0.375-0.375-0.5 0.25-0.5 0.25-0.5-0.25-0.5-0.25-0.5 0.25-0.5 0.25-0.5-0.25-0.5-0.25-0.5 0.25-0.5 0.25-0.5-0.25-0.5-0.25-0.5 0.25-0.5 0.25-0.5-0.25-0.5-0.25-0.5 0.25-0.5 0.25-0.5-0.25-0.5-0.25-0.5 0.25-0.5 0.25-0.5-0.25-0.5-0.25-0.375 0.375 0 0.75 0.5 0.5 0.875 0.125 1 0 1 0 1 0 1 0 1 0 1 0 1 0 1 0 1 0 1 0m-0.5-2.5q0.25 0.25 0.5 0.25t0.375-0.375 0-0.75-0.375-0.625-0.375-0.625-0.25-0.75-0.375-0.625-0.5-0.5-0.5-0.5-0.375-0.625-0.25-0.75-0.375-0.375-0.5 0.25-0.625 0.375-0.875 0.125-0.875-0.125-0.625-0.375-0.5-0.25-0.375 0.375-0.25 0.75-0.375 0.625-0.5 0.5-0.5 0.5-0.375 0.625-0.25 0.75-0.375 0.625-0.375 0.625 0 0.75 0.375 0.375 0.5-0.25 0.5-0.25 0.5 0.25 0.5 0.25 0.5-0.25 0.5-0.25 0.5 0.25 0.5 0.25 0.5-0.25 0.5-0.25 0.5 0.25 0.5 0.25 0.5-0.25 0.5-0.25 0.5 0.25 0.5 0.25 0.5-0.25 0.5-0.25 0.5 0.25m-4.5-6.5q0.5 0 0.875-0.125t0.5-0.5 0.125-0.875-0.125-0.875-0.5-0.5-0.875-0.125-0.875 0.125-0.5 0.5-0.125 0.875 0.125 0.875 0.5 0.5 0.875 0.125m-3.5 12.5q0.25 0.25 0.5 0.25t0.5-0.25 0.5-0.5 0.25-0.5-0.25-0.5-0.5-0.5-0.5-0.25-0.5 0.25-0.5 0.5-0.25 0.5 0.25 0.5 0.5 0.5m-2.75-2q0 0.25 0.25 0.25t0.25-0.25-0.25-0.25-0.25 0.25"/>
  <path d="m10.125 0.375-0.125-0.375h7v12h-0.5q-0.5 0-0.5-0.5t0-1-0.5-0.5-0.5-0.5-0.375-0.625-0.5-0.5-0.125-0.875-0.375-0.625-0.5-0.5-0.5-0.5-0.5-0.5-0.125-0.875-0.375-0.625-0.5-0.5-0.125-0.875 0-1-0.375-0.625-0.5-0.5" fill-opacity="0"/>
  <path d="m7.125 1.625q0.125-0.375 0.5-0.5t0.875-0.125 0.875 0.125 0.5 0.5 0.125 0.875-0.125 0.875-0.5 0.5-0.875 0.125-0.875-0.125-0.5-0.5-0.125-0.875 0.125-0.875" fill="#dc143c"/>
  <path d="m6.125 4.625q0.125-0.375 0.375-0.375t0.5 0.25 0.625 0.375 0.875 0.125 0.875-0.125 0.625-0.375 0.5-0.25 0.375 0.375 0.25 0.75 0.375 0.625 0.5 0.5 0.5 0.5 0.375 0.625 0.25 0.75 0.375 0.625 0.375 0.625 0 0.75-0.375 0.375-0.5-0.25-0.5-0.25-0.5 0.25-0.5 0.25-0.5-0.25-0.5-0.25-0.5 0.25-0.5 0.25-0.5-0.25-0.5-0.25-0.5 0.25-0.5 0.25-0.5-0.25-0.5-0.25-0.5 0.25-0.5 0.25-0.5-0.25-0.5-0.25-0.5 0.25-0.5 0.25-0.375-0.375 0-0.75 0.375-0.625 0.375-0.625 0.25-0.75 0.375-0.625 0.5-0.5 0.5-0.5 0.375-0.625 0.25-0.75" fill="#009530"/>
  <g fill="#dc143c">
   <path d="m2.125 11.625q0.125-0.375 0.375-0.375t0.5 0.25 0.5 0.25 0.5-0.25 0.5-0.25 0.5 0.25 0.5 0.25 0.5-0.25 0.5-0.25 0.5 0.25 0.5 0.25 0.5-0.25 0.5-0.25 0.5 0.25 0.5 0.25 0.5-0.25 0.5-0.25 0.5 0.25 0.5 0.25 0.5-0.25 0.5-0.25 0.5 0.25 0.5 0.25 0.5-0.25 0.5-0.25 0.375 0.375 0 0.75-0.5 0.5-0.875 0.125-1 0-1 0-1 0-1 0-1 0-1 0-1 0-1 0-1 0-1 0-0.875-0.125-0.5-0.5 0-0.75"/>
   <path d="m1.25 13.5q0-0.25 0.25-0.25t0.25 0.25-0.25 0.25-0.25-0.25"/>
   <path d="m15.25 13.5q0-0.25 0.25-0.25t0.25 0.25-0.25 0.25-0.25-0.25"/>
  </g>
  <g>
   <path d="m2.25 14.5q0-0.25 0.25-0.25t0.25 0.25-0.25 0.25-0.25-0.25" fill="#c30000"/>
   <path d="m5 14.5q0.25-0.25 0.5-0.25t0.5 0.25 0.5 0.5 0.25 0.5-0.25 0.5-0.5 0.5-0.5 0.25-0.5-0.25-0.5-0.5-0.25-0.5 0.25-0.5 0.5-0.5m0.25 1q0 0.25 0.25 0.25t0.25-0.25-0.25-0.25-0.25 0.25" fill="#f00"/>
   <path d="m11 14.5q0.25-0.25 0.5-0.25t0.5 0.25 0.5 0.5 0.25 0.5-0.25 0.5-0.375 0.625l-0.125 0.375v-0.75 0.25q0 0.25 0.125 0.375l0.125 0.125-0.125-0.125-1.2188 0.03126-0.09374 0.15626 0.09375-0.15625q0.09374-0.15627 0.09374-0.40627v-0.25 0.75l-0.125-0.375q-0.125-0.375-0.375-0.625t-0.25-0.5 0.25-0.5 0.5-0.5m0.25 1q0 0.25 0.25 0.25t0.25-0.25-0.25-0.25-0.25 0.25" fill="#f00"/>
   <path d="m14.25 14.5q0-0.25 0.25-0.25t0.25 0.25-0.25 0.25-0.25-0.25" fill="#c30000"/>
   <path d="m1.125 15.625q0.125-0.375 0.375-0.375t0.375 0.375 0.25 0.75 0.375 0.625 0.375 0.625 0.25 0.75 0.375 0.625 0.5 0.5 0.5 0.5 0.5 0.5 0.5 0.5 0.5 0.5 0.625 0.375 0.75 0.25 0.625 0.375 0.5 0.25 0.5-0.25 0.67188-0.42188l0.42188-0.17188-0.15625-0.09375 0.15625 0.09375q0.15625 0.09375 0.40625 0.09375h0.25-0.75 0.5q0.5 0 1 0t1 0h0.5-0.75 0.25q0.25 0 0.46875-0.03125l0.21875-0.03125-0.21875 0.03126-0.10938 0.39062q-0.10938 0.39062-0.35938 0.64062t-0.5 0.5-0.625 0.375-0.875 0.125-1 0-1 0-1 0-1 0-0.875-0.125-0.625-0.375-0.5-0.5-0.5-0.5-0.625-0.375-0.75-0.25-0.5-0.5-0.25-0.75-0.375-0.625-0.375-0.625-0.125-0.875 0-1 0-1 0.125-0.875" fill="#c30000"/>
   <path d="m5.25 15.5q0-0.25 0.25-0.25t0.25 0.25-0.25 0.25-0.25-0.25" fill="#fff"/>
   <path d="m11.25 15.5q0-0.25 0.25-0.25t0.25 0.25-0.25 0.25-0.25-0.25" fill="#fff"/>
   <path d="m15.125 15.625q0.125-0.375 0.375-0.375t0.375 0.375 0 0.75-0.375 0.375-0.375-0.375 0-0.75" fill="#c30000"/>
   <path d="m10 17.5q0.25-0.25 0.625-0.375l0.375-0.125-0.5625 0.1875 0.1875-0.0625q0.1875-0.0625 0.28125-0.21875l0.09375-0.15625-0.09374 0.15626 1.2187-0.03126-0.125-0.125 0.125 0.125q0.125 0.125 0.375 0.125h0.25-0.75 0.5q0.5 0 0.875 0.125t0.625 0.375 0.625 0.375 0.75 0.25 0.375 0.375-0.375 0.375-0.875 0.125-1 0-1 0-0.875 0.125-0.375 0.375 0.375 0.375 0.875 0.125 1 0 1 0 0.875 0.125 0.375 0.375-0.375 0.375-0.75 0.25-0.625 0.375-0.625 0.375-0.875 0.125-1 0-1 0-0.625-0.375-0.5-0.5-0.75-0.25-0.625-0.375-0.5-0.5-0.25-0.5 0.25-0.5 0.5-0.5 0.625-0.375 0.75-0.25 0.625-0.375" fill="#eaa539"/>
  </g>
  <g fill-opacity="0">
   <path d="m16.25 19.5q0-0.25 0.375-0.375l0.375-0.125v1l-0.375-0.125q-0.375-0.125-0.375-0.375"/>
   <path d="m0 20.5v-0.5l0.375 0.125q0.375 0.125 0.5 0.5t0.125 0.875 0.375 0.625 0.5 0.5 0.625 0.375 0.875 0.125 0.5 0.5 0.5 0.5 0.5 0.5l0.125 0.375h-5v-4.5"/>
   <path d="m16.125 21.625q0.125-0.375 0.5-0.5l0.375-0.125v4h-4v-0.5q0-0.5 0.125-0.875t0.5-0.5 0.875-0.125 0.5-0.5 0.5-0.5 0.625-0.375"/>
  </g>
 </g>
</svg>
