<svg width="17" height="25" version="1.1" viewBox="0 0 17 25" xmlns="http://www.w3.org/2000/svg">
 <g transform="translate(0)">
  <path d="m0 0.5v-0.5h13l-0.125 0.375q-0.125 0.375-0.5 0.5t-0.375 0.625-0.5 0.5-1 0-0.625 0.375-0.5 0.5-0.875 0.125-0.625 0.375-0.5 0.5-0.875 0.125-0.625 0.375-0.5 0.5-0.5 0.5-0.5 0.5-0.5 0.5-0.5 0.5-0.5 0.5-0.5 0.5-0.5 0.5-0.5 0.5-0.375 0.625 0 1 0 1-0.5 0.5h-0.5v-11.5" fill-opacity="0"/>
  <path d="m12.875 0.375 0.125-0.375h3l0.125 0.375q0.125 0.375 0.5 0.5l0.375 0.125v3l-0.375 0.125q-0.375 0.125-0.5 0.5t-0.625 0.375-1 0-0.875 0.125-0.5 0.5 0 0.75 0.5 0.5 0.5 0.5 0.5 0.5 0.5 0.5 0.5 0.5 0.375 0.625 0 1 0 1 0.5 0.5h0.5v3h-0.5q-0.5 0-0.375 0.375t0.5 0.5l0.375 0.125v4l-0.375 0.125q-0.375 0.125-0.5 0.5t-0.125 0.875-0.5 0.5-0.5 0.5-0.5 0.5-0.875 0.125-0.5 0.5-0.625 0.375-0.5 0.5v0.5h-7v-0.5q0-0.5-0.5-0.5t-0.625-0.375-0.5-0.5-0.875-0.125-0.5-0.5-0.5-0.5-0.5-0.5-0.125-0.875-0.5-0.5l-0.375-0.125v-4l0.375-0.125q0.375-0.125 0.5-0.5t-0.375-0.375h-0.5v-3h0.5q0.5 0 0.5-0.5t0-1 0-1 0.375-0.625 0.5-0.5 0.5-0.5 0.5-0.5 0.5-0.5 0.5-0.5 0.5-0.5 0.5-0.5 0.5-0.5 0.5-0.5 0.625-0.375 0.875-0.125 0.5-0.5 0.625-0.375 0.875-0.125 0.5-0.5 0.625-0.375 1 0 0.5-0.5 0.375-0.625 0.5-0.5m-11.625 13.125q0 0.25 0.25 0.25t0.25-0.25-0.25-0.25-0.25 0.25m8.25 10.5q0.5 0 0.875-0.125t0.5-0.5l0.125-0.375v0.75-0.25q0-0.25-0.125-0.375l-0.125-0.125 0.125 0.125 0.5625-0.0625q0.5625-0.0625 0.9375-0.1875t0.48438-0.51562l0.10938-0.39062-0.21875 0.03125 0.21875-0.03125q0.21875-0.03125 0.40625-0.09375l0.1875-0.0625-0.5625 0.1875 0.375-0.125q0.375-0.125 0.5-0.5l0.125-0.375v0.75-0.25q0-0.25-0.125-0.375l-0.125-0.125 0.125 0.125 0.4375-0.1875q0.4375-0.1875 0.54688-0.57812l0.10938-0.39062-0.21875 0.03125 0.21875-0.03125q0.21875-0.03125 0.40625-0.09375l0.1875-0.0625-0.5625 0.1875 0.375-0.125q0.375-0.125 0.5-0.5t0.125-0.875v-0.5 0.75-0.25q0-0.25-0.125-0.375l-0.125-0.125 0.125 0.125 0.0625-0.5625q0.0625-0.5625-0.0625-0.9375t-0.5625-0.5625l-0.4375-0.1875-0.125 0.125 0.125-0.125q0.125-0.125 0.125-0.375v-0.25 0.75-0.5q0-0.5 0.125-0.875t0.375-0.625 0.25-0.5-0.25-0.5-0.375-0.625-0.25-0.75-0.5-0.5-0.75-0.25-0.625-0.375-0.625-0.375-0.875-0.125-1 0-1 0-1 0-1 0-1 0-1 0-0.875 0.125-0.625 0.375-0.625 0.375-0.75 0.25-0.5 0.5 0 0.75 0.5 0.5 0.875 0.125 1 0 1 0 1 0 1 0 1 0 1 0 1 0 1 0 1 0 1 0 0.875 0.125 0.375 0.375-0.375 0.375-0.75 0.25-0.375 0.375 0.25 0.5 0.375 0.625l0.125 0.375-0.1875-0.5625 0.0625 0.1875q0.0625 0.1875 0.21875 0.28125l0.15625 0.09375-0.15626-0.09374-0.04687 0.54688q-0.04687 0.54686-0.031245 1.0625l0.01563 0.51562 0.10938-0.01563 0.10937-0.01562-0.21875 0.03125q-0.21875 0.03125-0.40625 0.09375l-0.1875 0.0625 0.5625-0.1875-0.375 0.125q-0.375 0.125-0.625 0.375t-0.625 0.375-0.875 0.125-0.875-0.125-0.625-0.375-0.625-0.375l-0.375-0.125v-0.5q0-0.5-0.03125-1.0312l-0.03125-0.53125-0.125 0.125 0.125-0.125q0.125-0.125 0.1875-0.3125l0.0625-0.1875-0.1875 0.5625 0.125-0.375q0.125-0.375 0.375-0.625t0.25-0.5-0.375-0.375-0.875-0.125-1 0-1 0-1 0-1 0-1 0-0.875 0.125-0.5 0.5-0.25 0.75-0.375 0.625-0.375 0.625-0.125 0.875 0 1 0.125 0.875 0.5 0.5l0.375 0.125-0.5625-0.1875 0.1875 0.0625q0.1875 0.0625 0.40625 0.09375l0.21875 0.03125-0.21875-0.03125 0.10938 0.39062q0.10938 0.39062 0.54688 0.57812l0.4375 0.1875 0.125-0.125-0.125 0.125q-0.125 0.125-0.125 0.375v0.25-0.75l0.125 0.375q0.125 0.375 0.5 0.5l0.375 0.125-0.5625-0.1875 0.1875 0.0625q0.1875 0.0625 0.40625 0.09375l0.21875 0.03125-0.21875-0.03125 0.10938 0.39062q0.10938 0.39062 0.48438 0.51562t0.9375 0.1875l0.5625 0.0625 0.125-0.125-0.125 0.125q-0.125 0.125-0.125 0.375v0.25-0.75l0.125 0.375q0.125 0.375 0.5 0.5t0.875 0.125 1 0 1 0m4.125-14.125q0.375 0.125 0.75 0t0.375-0.375-0.25-0.5-0.5-0.5-0.5-0.5-0.5-0.5-0.5-0.5-0.375-0.625 0-0.75 0.375-0.625 0.25-0.5-0.25-0.5-0.5-0.5-0.625-0.375-0.75 0-0.625 0.375-0.625 0.375-0.75 0.25-0.625 0.375-0.625 0.375-0.75 0.25-0.625 0.375-0.5 0.5-0.5 0.5-0.5 0.5-0.5 0.5-0.5 0.5-0.5 0.5-0.5 0.5-0.25 0.5 0.375 0.375 0.75 0 0.625-0.375 0.625-0.375 0.875-0.125 1 0 1 0 1 0 1 0 1 0 1 0 0.875 0.125 0.625 0.375 0.625 0.375m-2.125 8.125q0.5 0 0.875-0.125t0.5-0.5 0.125-0.875-0.125-0.875-0.5-0.5-0.875-0.125-0.875 0.125-0.5 0.5-0.125 0.875 0.125 0.875 0.5 0.5 0.875 0.125m-2.5938-0.03125 0.65625 0.21875-0.1875-0.0625q-0.1875-0.0625-0.375-0.125l-0.1875-0.0625 0.09375 0.03125m5.5938-13.969q0.5 0 0.875-0.125t0.5-0.5 0.125-0.875-0.125-0.875-0.5-0.5-0.875-0.125-0.875 0.125-0.5 0.5-0.125 0.875 0.125 0.875 0.5 0.5 0.875 0.125"/>
  <path d="m16.125 0.375-0.125-0.375h1v1l-0.375-0.125q-0.375-0.125-0.5-0.5" fill-opacity="0"/>
  <path d="m13.125 1.625q0.125-0.375 0.5-0.5t0.875-0.125 0.875 0.125 0.5 0.5 0.125 0.875-0.125 0.875-0.5 0.5-0.875 0.125-0.875-0.125-0.5-0.5-0.125-0.875 0.125-0.875" fill="#fff"/>
  <path d="m10 3.5q0.25-0.25 0.625-0.375t0.75 0 0.625 0.375 0.5 0.5 0.25 0.5-0.25 0.5-0.375 0.625 0 0.75 0.375 0.625 0.5 0.5 0.5 0.5 0.5 0.5 0.5 0.5 0.25 0.5-0.375 0.375-0.75 0-0.625-0.375-0.625-0.375-0.875-0.125-1 0-1 0-1 0-1 0-1 0-1 0-0.875 0.125-0.625 0.375-0.625 0.375-0.75 0-0.375-0.375 0.25-0.5 0.5-0.5 0.5-0.5 0.5-0.5 0.5-0.5 0.5-0.5 0.5-0.5 0.5-0.5 0.625-0.375 0.75-0.25 0.625-0.375 0.625-0.375 0.75-0.25 0.625-0.375" fill="#dc143c"/>
  <path d="m16.125 4.625q0.125-0.375 0.5-0.5l0.375-0.125v8h-0.5q-0.5 0-0.5-0.5t0-1 0-1-0.375-0.625-0.5-0.5-0.5-0.5-0.5-0.5-0.5-0.5-0.5-0.5 0-0.75 0.5-0.5 0.875-0.125 1 0 0.625-0.375" fill-opacity="0"/>
  <g>
   <path d="m4 10.5q0.25-0.25 0.625-0.375t0.875-0.125 1 0 1 0 1 0 1 0 1 0 1 0 0.875 0.125 0.625 0.375 0.625 0.375 0.75 0.25 0.5 0.5 0.25 0.75 0.375 0.625 0.25 0.5-0.25 0.5-0.375 0.625-0.125 0.875-0.5 0.5-0.625-0.375-0.375-0.625-0.25-0.5 0.375-0.375 0.75-0.25 0.375-0.375-0.375-0.375-0.875-0.125-1 0-1 0-1 0-1 0-1 0-1 0-1 0-1 0-1 0-1 0-0.875-0.125-0.5-0.5 0-0.75 0.5-0.5 0.75-0.25 0.625-0.375" fill="#fff"/>
   <path d="m1.25 13.5q0-0.25 0.25-0.25t0.25 0.25-0.25 0.25-0.25-0.25" fill="#fff"/>
   <path d="m2.125 14.625q0.125-0.375 0.5-0.5l0.375-0.125-0.5625 0.1875 0.1875-0.0625q0.1875-0.0625 0.40625-0.09375l0.21875-0.03125-0.21875 0.03125-0.14062 0.35938q-0.14062 0.35938-0.51562 0.48438l-0.375 0.125 0.125-0.375m-0.03125 0.09375-0.15625 0.46875 0.0625-0.1875q0.0625-0.1875 0.125-0.375l0.0625-0.1875-0.09375 0.28125" fill="#b1930f"/>
   <path d="m2.8906 14.391 0.14062-0.35938-0.21875 0.03125 0.21875-0.03125q0.21875-0.03125 0.46875-0.03125h0.25-0.75 1v1l-0.375 0.125q-0.375 0.125-0.5 0.5l-0.125 0.375-0.375 0.125q-0.375 0.125-0.375 0.375t0.375 0.375l0.375 0.125 0.125 0.375q0.125 0.375 0.5 0.5l0.375 0.125 0.125 0.375q0.125 0.375 0.375 0.375t0.375-0.375l0.125-0.375 0.375-0.125q0.375-0.125 0.5-0.5l0.125-0.375 0.375-0.125q0.375-0.125 0.375-0.375t-0.375-0.375l-0.375-0.125-0.125-0.375q-0.125-0.375-0.5-0.5l-0.375-0.125v-1h1l0.125 0.375q0.125 0.375 0.375 0.375t0.375-0.375l0.125-0.375h0.5q0.5 0 1 0t0.875 0.125 0.375 0.375-0.25 0.5-0.375 0.625-0.5 0.5-0.5 0.5 0 0.75 0.5 0.5 0.75 0.25 0.625 0.375 0.625 0.375 0.875 0.125 0.875-0.125 0.625-0.375 0.625-0.375 0.875-0.125 1 0 0.5 0.5-0.125 0.875-0.5 0.5-0.875 0.125-1 0-1 0-1 0-1 0-1 0-1 0-1 0-1 0-1 0-1 0-1 0-1 0-0.875-0.125-0.5-0.5-0.125-0.875 0-1 0.125-0.875 0.375-0.625 0.375-0.625l0.125-0.375 0.375-0.125q0.375-0.125 0.51562-0.48438m-0.85938 0.51562-0.21875 0.65625 0.0625-0.1875q0.0625-0.1875 0.125-0.375l0.0625-0.1875-0.03125 0.09375m0.21875 3.5938q0 0.25 0.25 0.25t0.25-0.25-0.25-0.25-0.25 0.25m4 0q0 0.25 0.25 0.25t0.25-0.25-0.25-0.25-0.25 0.25m1.125-4.5h-0.625 0.25q0.25 0 0.5 0h0.25-0.375m-1.25 0h-0.875 0.25q0.25 0 0.5 0h0.25-0.125m-0.75 0h-0.625 0.25q0.25 0 0.5 0h0.25-0.375m-1.25 0h-0.875 0.25q0.25 0 0.5 0h0.25-0.125" fill="#fff"/>
   <path d="m4 14.5v-0.5h1v1h-1v-0.5m1.125-0.5h-0.875 0.25q0.25 0 0.5 0h0.25-0.125m-0.75 0h-0.625 0.25q0.25 0 0.5 0h0.25-0.375" fill="#b1930f"/>
   <path d="m6.125 14.375-0.125-0.375h1l-0.125 0.375q-0.125 0.375-0.375 0.375t-0.375-0.375m1-0.375h-0.875 0.25q0.25 0 0.5 0h0.25-0.125m-0.75 0h-0.625 0.25q0.25 0 0.5 0h0.25-0.375" fill="#b1930f"/>
  </g>
  <path d="m0 15.5v-0.5h0.5q0.5 0 0.375 0.375t-0.5 0.5l-0.375 0.125v-0.5" fill-opacity="0"/>
  <g>
   <path d="m 3.125,15.625 q 0.125,-0.375 0.5,-0.5 L 4,15 3.875,15.375 q -0.125,0.375 -0.5,0.5 L 3,16 3.125,15.625" fill="#dbb614"/>
   <path d="m3.875 15.375 0.125-0.375h1l0.125 0.375q0.125 0.375 0.5 0.5l0.375 0.125v1l-0.375 0.125q-0.375 0.125-0.5 0.5l-0.125 0.375h-1l-0.125-0.375q-0.125-0.375-0.5-0.5l-0.375-0.125v-1l0.375-0.125q0.375-0.125 0.5-0.5" fill="#fbd016"/>
   <path d="M 5.125,15.375 5,15 5.375,15.125 q 0.375,0.125 0.5,0.5 L 6,16 5.625,15.875 q -0.375,-0.125 -0.5,-0.5" fill="#dbb614"/>
   <path d="m10.125 15.625q0.125-0.375 0.5-0.5t0.875-0.125 0.875 0.125 0.5 0.5 0.125 0.875-0.125 0.875-0.5 0.5-0.875 0.125-0.875-0.125-0.5-0.5-0.125-0.875 0.125-0.875" fill="#fff"/>
  </g>
  <path d="m16.125 15.375q-0.125-0.375 0.375-0.375h0.5v1l-0.375-0.125q-0.375-0.125-0.5-0.5" fill-opacity="0"/>
  <g>
   <path d="m2.25 16.5q0-0.25 0.375-0.375l0.375-0.125v1l-0.375-0.125q-0.375-0.125-0.375-0.375" fill="#b1930f"/>
   <path d="m6 16.5v-0.5l0.375 0.125q0.375 0.125 0.375 0.375t-0.375 0.375l-0.375 0.125v-0.5" fill="#b1930f"/>
   <path d="m8.125 16.625q0.125-0.375 0.5-0.5l0.375-0.125-0.5625 0.1875 0.1875-0.0625q0.1875-0.0625 0.3125-0.1875l0.125-0.125-0.125 0.125 0.03125 0.53125q0.03125 0.53125 0.03125 1.0312v0.5l-0.375-0.125q-0.375-0.125-0.5-0.5t0-0.75m0.59375 1.2812 0.46875 0.15625-0.1875-0.0625q-0.1875-0.0625-0.375-0.125l-0.1875-0.0625 0.28125 0.09375" fill="#0038a8"/>
   <path d="m14.047 16.453 0.04687-0.54688-0.15626-0.09374 0.15625 0.09375q0.15626 0.09374 0.40626 0.09374h0.25-0.75 1-0.75 0.25q0.25 0 0.375-0.125l0.125-0.125-0.125 0.125 0.4375 0.1875q0.4375 0.1875 0.5625 0.5625t0.0625 0.9375l-0.0625 0.5625 0.125 0.125-0.125-0.125q-0.125-0.125-0.375-0.125h-0.25 0.75-0.5q-0.5 0-1 0h-0.5 0.75-0.25q-0.25 0-0.46875 0.03125l-0.21875 0.03125 0.21875-0.03126-0.01563-0.51562q-0.01562-0.51562 0.031255-1.0625" fill="#0038a8"/>
   <path d="M 3.125,17.375 3,17 3.375,17.125 q 0.375,0.125 0.5,0.5 L 4,18 3.625,17.875 q -0.375,-0.125 -0.5,-0.5" fill="#dbb614"/>
   <path d="m 5.125,17.625 q 0.125,-0.375 0.5,-0.5 L 6,17 5.875,17.375 q -0.125,0.375 -0.5,0.5 L 5,18 5.125,17.625" fill="#dbb614"/>
  </g>
  <g fill="#b1930f">
   <path d="m2.25 18.5q0-0.25 0.25-0.25t0.25 0.25-0.25 0.25-0.25-0.25"/>
   <path d="m4.125 18.375-0.125-0.375h1l-0.125 0.375q-0.125 0.375-0.375 0.375t-0.375-0.375"/>
   <path d="m6.25 18.5q0-0.25 0.25-0.25t0.25 0.25-0.25 0.25-0.25-0.25"/>
  </g>
  <path d="m0 20.5v-0.5l0.375 0.125q0.375 0.125 0.5 0.5t0.125 0.875 0.5 0.5 0.5 0.5 0.5 0.5 0.875 0.125 0.5 0.5 0.625 0.375 0.5 0.5v0.5h-5v-4.5" fill-opacity="0"/>
  <path d="m2.1406 20.359-0.10938-0.39062-0.21875-0.03125 0.21875 0.03125q0.21875 0.03125 0.46875 0.03125h0.25-0.75 0.5q0.5 0 1 0t1 0 1 0 1 0 1 0 1 0 1 0 1 0 1 0 1 0 1 0 1 0h0.5-0.75 0.25q0.25 0 0.46875-0.03125l0.21875-0.03125-0.21875 0.03126-0.10938 0.39062q-0.10938 0.39062-0.54688 0.57812l-0.4375 0.1875 0.125 0.125-0.125-0.125q-0.125-0.125-0.375-0.125h-0.25 0.75-0.5q-0.5 0-1 0t-1 0-1 0-1 0-1 0-1 0-1 0-1 0-1 0-1 0h-0.5 0.75-0.25q-0.25 0-0.375 0.125l-0.125 0.125 0.125-0.125-0.4375-0.1875q-0.4375-0.1875-0.54688-0.57812" fill="#0038a8"/>
  <path d="m16.125 20.625q0.125-0.375 0.5-0.5l0.375-0.125v5h-5v-0.5q0-0.5 0.5-0.5t0.625-0.375 0.5-0.5 0.875-0.125 0.5-0.5 0.5-0.5 0.5-0.5 0.125-0.875" fill-opacity="0"/>
  <g>
   <path d="m3.125 21.375q-0.125-0.375 0.375-0.375t1 0 1 0 1 0 1 0 1 0 1 0 1 0 1 0 1 0 1 0 0.375 0.375-0.5 0.5-0.875 0.125-1 0-1 0-1 0-1 0-1 0-1 0-1 0-1 0-0.875-0.125-0.5-0.5" fill="#fff"/>
   <path d="m4.1406 22.359-0.10938-0.39062-0.21875-0.03125 0.21875 0.03125q0.21875 0.03125 0.46875 0.03125h0.25-0.75 0.5q0.5 0 1 0t1 0 1 0 1 0 1 0 1 0 1 0 1 0h0.5-0.75 0.25q0.25 0 0.46875-0.03125l0.21875-0.03125-0.21875 0.03126-0.10938 0.39062q-0.10938 0.39062-0.48438 0.51562t-0.9375 0.1875l-0.5625 0.0625 0.125 0.125-0.125-0.125q-0.125-0.125-0.375-0.125h-0.25 0.75-0.5q-0.5 0-1 0t-1 0-1 0-1 0h-0.5 0.75-0.25q-0.25 0-0.375 0.125l-0.125 0.125 0.125-0.125-0.5625-0.0625q-0.5625-0.0625-0.9375-0.1875t-0.48438-0.51562" fill="#0038a8"/>
   <path d="m6.125 23.375q-0.125-0.375 0.375-0.375t1 0 1 0 1 0 1 0 0.375 0.375-0.5 0.5-0.875 0.125-1 0-1 0-0.875-0.125-0.5-0.5" fill="#fff"/>
  </g>
 </g>
</svg>
