<svg width="17" height="14" version="1.1" viewBox="0 0 17 14" xmlns="http://www.w3.org/2000/svg">
 <g transform="translate(0)">
  <path d="m0 0.5v-0.5h5l-0.125 0.375q-0.125 0.375-0.5 0.5t-0.5 0.5-0.5 0.5-0.875 0.125-0.625 0.375-0.5 0.5-0.375 0.625-0.125 0.875-0.5 0.5l-0.375 0.125v-4.5" fill-opacity="0"/>
  <path d="m4.875 0.375 0.125-0.375h7v0.5q0 0.5 0.5 0.5t0.625 0.375 0.5 0.5 0.875 0.125 0.5 0.5 0.5 0.5 0.5 0.5 0.125 0.875 0.5 0.5l0.375 0.125v4h-0.5q-0.5 0-0.5 0.5t0 1-0.5 0.5-0.5 0.5-0.5 0.5-0.875 0.125-0.5 0.5-0.625 0.375-0.5 0.5v0.5h-7v-0.5q0-0.5-0.5-0.5t-0.625-0.375-0.5-0.5-0.875-0.125-0.5-0.5-0.5-0.5-0.5-0.5 0-1-0.5-0.5h-0.5v-4l0.375-0.125q0.375-0.125 0.5-0.5t0.125-0.875 0.375-0.625 0.5-0.5 0.625-0.375 0.875-0.125 0.5-0.5 0.5-0.5 0.5-0.5m6.625 11.625q0.5 0 0.875-0.125t0.375-0.375-0.375-0.375-0.875-0.125-1 0-1 0-1 0-1 0-1 0-1 0-0.875 0.125-0.375 0.375 0.375 0.375 0.875 0.125 1 0 1 0 1 0 1 0 1 0 1 0m2-2q0.5 0 0.875-0.125t0.375-0.375-0.375-0.375-0.875-0.125-1 0-1 0-1 0-0.875-0.125-0.5-0.5-0.125-0.875 0-1 0-1 0-1 0.125-0.875 0.5-0.5 0.875-0.125 1 0 0.875-0.125 0.375-0.375-0.375-0.375-0.875-0.125-1 0-0.875-0.125-0.625-0.375-0.625-0.375-0.875-0.125-1 0-0.875 0.125-0.375 0.375 0.375 0.375 0.5 0.5 0.375 0.625 0.5 0.5 0.5 0.5 0.375 0.625 0.125 0.875 0 1-0.375 0.625-0.375 0.375 0.375 0.375 0.25 0.5-0.375 0.375-0.5-0.25-0.5-0.25-0.5 0.25-0.5 0.25-0.5-0.25-0.5-0.25-0.5 0.25-0.5 0.25-0.375-0.375 0.25-0.5 0.375-0.375-0.375-0.375-0.5-0.5-0.375-0.625-0.5-0.5-0.5-0.25-0.375 0.375-0.125 0.875 0.125 0.875 0.5 0.5 0.375 0.625 0.125 0.875 0.5 0.5 0.875 0.125 1 0 1 0 1 0 1 0 1 0 1 0 1 0 1 0 1 0 1 0m1.125-3.125q0.375 0.125 0.75 0t0.5-0.5 0-0.75-0.5-0.5-0.75 0-0.5 0.5 0 0.75 0.5 0.5m-3.125 0.125q0.5 0 0.875-0.125t0.5-0.5 0.125-0.875-0.125-0.875-0.5-0.5-0.875-0.125-0.875 0.125-0.5 0.5-0.125 0.875 0.125 0.875 0.5 0.5 0.875 0.125m-6 0q0.5 0 0.875-0.125t0.5-0.5 0.125-0.875-0.125-0.875-0.5-0.5-0.875-0.125-0.875-0.125-0.625-0.375-0.625-0.375-0.75 0-0.5 0.5 0 0.75 0.375 0.375 0.375-0.375 0.5-0.25 0.5 0.5 0.125 0.875 0.125 0.875 0.5 0.5 0.875 0.125m-1.25-4.5q0 0.25 0.25 0.25t0.25-0.25-0.25-0.25-0.25 0.25"/>
  <path d="m12 0.5v-0.5h5v5l-0.375-0.125q-0.375-0.125-0.5-0.5t-0.125-0.875-0.5-0.5-0.5-0.5-0.5-0.5-0.875-0.125-0.5-0.5-0.625-0.375-0.5-0.5" fill-opacity="0"/>
  <g>
   <path d="m5.25 1.5q0-0.25 0.375-0.375l0.375-0.125-0.5625 0.1875 0.1875-0.0625q0.1875-0.0625 0.40625-0.09375l0.21875-0.03125-0.21875 0.03125-0.09375 1.0312 0.125 0.125-0.125-0.125q-0.125-0.125-0.3125-0.1875l-0.1875-0.0625 0.5625 0.1875-0.375-0.125q-0.375-0.125-0.375-0.375" fill="#b1b1b1"/>
   <path d="m5.9844 1.5469 0.046875-0.51562-0.21875 0.03125 0.21875-0.03125q0.21875-0.03125 0.46875-0.03125h0.25-0.75 1l0.125 1.125 0.125-0.125-0.125 0.125q-0.125 0.125-0.125 0.375v0.25-0.75l0.125 0.375q0.125 0.375 0.375 0.375t0.375-0.375l0.125-0.375v0.75-0.25q0-0.25-0.125-0.375l-0.125-0.125 0.125 0.125 0.09375-1.0938-0.21875-0.03125 0.21875 0.03125q0.21875 0.03125 0.40625 0.09375l0.1875 0.0625-0.5625-0.1875 0.375 0.125q0.375 0.125 0.625 0.375t0.625 0.375 0.875 0.125 1 0 0.875 0.125 0.375 0.375-0.375 0.375-0.875 0.125-1 0-0.875 0.125-0.5 0.5-0.125 0.875 0 1 0 1 0 1 0.125 0.875 0.5 0.5 0.875 0.125 1 0 1 0 1 0 0.875 0.125 0.375 0.375-0.375 0.375-0.875 0.125-1 0-1 0-1 0-1 0-1 0-1 0-1 0-1 0-1 0-1 0-0.875-0.125-0.5-0.5-0.125-0.875v-0.5 0.75-0.25q0-0.25-0.09375-0.40625l-0.09375-0.15625 0.09375 0.15625-0.078125-0.42188q-0.078125-0.42188-0.4375-0.5625l-0.35938-0.14062 0.03125 0.21875-0.03125-0.21875q-0.03125-0.21875-0.03125-0.46875v-0.25 0.75-0.5q0-0.5 0.125-0.875t0.375-0.375 0.5 0.25 0.5 0.5 0.375 0.625l0.125 0.375-0.1875-0.5625 0.0625 0.1875q0.0625 0.1875 0.1875 0.3125l0.125 0.125-0.125-0.125 0.03125 1.1562 0.09375-0.15625-0.09375 0.15625q-0.09375 0.15625-0.09375 0.40625v0.25-0.75l0.125 0.375q0.125 0.375 0.375 0.375t0.5-0.25 0.5-0.25 0.5 0.25 0.5 0.25 0.5-0.25 0.5-0.25 0.5 0.25 0.5 0.25 0.375-0.375l0.125-0.375v0.75-0.25q0-0.25-0.09375-0.40625l-0.09375-0.15625 0.09375 0.15625v-1.1875l-0.09375 0.15625 0.09375-0.15625q0.09375-0.15625 0.09375-0.40625v-0.25 0.75-0.5q0-0.5 0-1t-0.125-0.875-0.375-0.625-0.5-0.5-0.5-0.5-0.375-0.625l-0.125-0.375 0.1875 0.5625-0.0625-0.1875q-0.0625-0.1875-0.1875-0.3125l-0.125-0.125 0.125 0.125 0.046875-0.51562m1.1406-0.54688h-0.875 0.25q0.25 0 0.5 0h0.25-0.125" fill="#fff"/>
   <path d="m7.0625 1.5625-0.0625-0.5625h1-0.75 0.25q0.25 0 0.46875 0.03125l0.21875 0.03125-0.21875-0.03125-0.09375 1.0938 0.125 0.125-0.125-0.125q-0.125-0.125-0.375-0.125h-0.25 0.75-1 0.75-0.25q-0.25 0-0.375 0.125l-0.125 0.125 0.125-0.125-0.0625-0.5625m0.3125-0.5625h-0.625 0.25q0.25 0 0.5 0h0.25-0.375" fill="#b1b1b1"/>
   <path d="m4.25 2.5q0-0.25 0.25-0.25t0.25 0.25-0.25 0.25-0.25-0.25" fill="#fff"/>
   <path d="m7.125 2.375q-0.125-0.375 0.375-0.375t0.375 0.375-0.375 0.375-0.375-0.375"/>
   <path d="m2.125 3.625q0.125-0.375 0.5-0.5t0.75 0 0.625 0.375 0.625 0.375 0.875 0.125 0.875 0.125 0.5 0.5 0.125 0.875-0.125 0.875-0.5 0.5-0.875 0.125-0.875-0.125-0.5-0.5-0.125-0.875-0.125-0.875-0.5-0.5l-0.375-0.125h0.75-0.25q-0.25 0-0.40625 0.09375l-0.15625 0.09375 0.15625-0.09375-1.0312-0.09375v0.1875-0.1875q0-0.1875 0.0625-0.375l0.0625-0.1875-0.1875 0.5625 0.125-0.375" fill="#fff"/>
   <path d="m2.125 4.375-0.125-0.375 0.1875 0.5625-0.0625-0.1875q-0.0625-0.1875-0.0625-0.375v-0.1875 0.1875l1.0312 0.09375 0.15625-0.09375-0.15625 0.09375q-0.15625 0.09375-0.21875 0.28125l-0.0625 0.1875 0.1875-0.5625-0.125 0.375q-0.125 0.375-0.375 0.375t-0.375-0.375" fill="#b1b1b1"/>
   <path d="m10.125 4.625q0.125-0.375 0.5-0.5t0.875-0.125 0.875 0.125 0.5 0.5 0.125 0.875-0.125 0.875-0.5 0.5-0.875 0.125-0.875-0.125-0.5-0.5-0.125-0.875 0.125-0.875" fill="#fff"/>
   <path d="m14.125 5.625q0.125-0.375 0.5-0.5t0.75 0 0.5 0.5 0 0.75-0.5 0.5-0.75 0-0.5-0.5 0-0.75" fill="#fff"/>
  </g>
  <g fill="#b1b1b1">
   <path d="m1.125 7.375-0.125-0.375 0.1875 0.5625-0.0625-0.1875q-0.0625-0.1875-0.09375-0.40625l-0.03125-0.21875 0.03125 0.21875 0.35938 0.14062q0.35938 0.14062 0.4375 0.5625l0.078125 0.42188 0.09375 0.15625-0.09375-0.15625q-0.09375-0.15625-0.28125-0.21875l-0.1875-0.0625 0.5625 0.1875-0.375-0.125q-0.375-0.125-0.5-0.5"/>
   <path d="m3.0781 7.5156-0.015625-0.57812-0.125-0.125 0.125 0.125q0.125 0.125 0.3125 0.1875l0.1875 0.0625-0.5625-0.1875 0.375 0.125q0.375 0.125 0.375 0.375t-0.375 0.375l-0.375 0.125 0.5625-0.1875-0.1875 0.0625q-0.1875 0.0625-0.28125 0.21875l-0.09375 0.15625 0.09375-0.15625-0.015625-0.57812"/>
   <path d="m7.25 7.5q0-0.25 0.375-0.375l0.375-0.125-0.5625 0.1875 0.1875-0.0625q0.1875-0.0625 0.28125-0.21875l0.09375-0.15625-0.09375 0.15625v1.1875l0.09375 0.15625-0.09375-0.15625q-0.09375-0.15625-0.28125-0.21875l-0.1875-0.0625 0.5625 0.1875-0.375-0.125q-0.375-0.125-0.375-0.375"/>
  </g>
  <path d="m0 9.5v-0.5h0.5q0.5 0 0.5 0.5t0 1 0.5 0.5 0.5 0.5 0.5 0.5 0.875 0.125 0.5 0.5 0.625 0.375 0.5 0.5v0.5h-5v-4.5" fill-opacity="0"/>
  <path d="m16 9.5q0-0.5 0.5-0.5h0.5v5h-5v-0.5q0-0.5 0.5-0.5t0.625-0.375 0.5-0.5 0.875-0.125 0.5-0.5 0.5-0.5 0.5-0.5 0-1" fill-opacity="0"/>
  <path d="m4.25 11.5q0-0.25 0.375-0.375t0.875-0.125 1 0 1 0 1 0 1 0 1 0 1 0 0.875 0.125 0.375 0.375-0.375 0.375-0.875 0.125-1 0-1 0-1 0-1 0-1 0-1 0-0.875-0.125-0.375-0.375" fill="#fff"/>
 </g>
</svg>
