<svg width="17" height="14" version="1.1" viewBox="0 0 17 14" xmlns="http://www.w3.org/2000/svg">
 <g transform="translate(0)">
  <path d="m0 0.5v-0.5h5l-0.125 0.375q-0.125 0.375-0.5 0.5t-0.5 0.5-0.5 0.5-0.875 0.125-0.625 0.375-0.5 0.5-0.375 0.625-0.125 0.875-0.5 0.5l-0.375 0.125v-4.5" fill-opacity="0"/>
  <path d="m4.875 0.375 0.125-0.375h7l0.125 0.375q0.125 0.375 0.5 0.5t0.5 0.5 0.5 0.5 0.875 0.125 0.625 0.375 0.5 0.5 0.375 0.625 0.125 0.875 0.5 0.5l0.375 0.125v4l-0.375 0.125q-0.375 0.125-0.5 0.5t-0.125 0.875-0.5 0.5-0.5 0.5-0.5 0.5-0.875 0.125-0.5 0.5-0.625 0.375-0.5 0.5v0.5h-7v-0.5q0-0.5-0.5-0.5t-0.625-0.375-0.5-0.5-0.875-0.125-0.5-0.5-0.5-0.5-0.5-0.5-0.125-0.875-0.5-0.5l-0.375-0.125v-4l0.375-0.125q0.375-0.125 0.5-0.5t0.125-0.875 0.375-0.625 0.5-0.5 0.625-0.375 0.875-0.125 0.5-0.5 0.5-0.5 0.5-0.5m4.625 12.625q0.5 0 0.875-0.125t0.5-0.5l0.125-0.375h0.5q0.5 0 0.875-0.125t0.5-0.5l0.125-0.375 0.375-0.125q0.375-0.125 0.625-0.375t0.5-0.5 0.375-0.625l0.125-0.375 0.375-0.125q0.375-0.125 0.5-0.5t0.125-0.875 0-1-0.125-0.875-0.5-0.5l-0.375-0.125v-0.5q0-0.5-0.125-0.875t-0.5-0.5-0.75 0-0.375 0.375 0.375 0.375l0.375 0.125v1-0.75 0.25q0 0.25 0.125 0.375l0.125 0.125-0.125-0.125-0.0625 0.5625q-0.0625 0.5625-0.10938 1.1094l-0.046875 0.54688 0.15625 0.09375-0.15625-0.09375q-0.15625-0.09375-0.40625-0.09375h-0.25 0.75l-0.375 0.125q-0.375 0.125-0.625 0.375t-0.625 0.375l-0.375 0.125 0.5625-0.1875-0.1875 0.0625q-0.1875 0.0625-0.28125 0.21875l-0.09375 0.15625 0.09375-0.15625-0.54688-0.046875q-0.54688-0.046875-0.92188-0.17188t-0.625-0.375-0.5-0.5-0.375-0.625-0.17188-0.92188l-0.046875-0.54688-0.15625 0.09375 0.15625-0.09375q0.15625-0.09375 0.21875-0.28125l0.0625-0.1875-0.1875 0.5625 0.125-0.375q0.125-0.375 0.375-0.625t0.375-0.625l0.125-0.375v0.75-0.25q0-0.25-0.125-0.375l-0.125-0.125 0.125 0.125 0.5625-0.0625q0.5625-0.0625 1.125-0.125l0.5625-0.0625-0.125-0.125 0.125 0.125q0.125 0.125 0.375 0.125h0.25-0.75l0.375-0.125q0.375-0.125 0.375-0.375t-0.375-0.375l-0.375-0.125-0.125-0.375q-0.125-0.375-0.5-0.5t-0.875-0.125-1 0-1 0-1 0-1 0-0.875 0.125-0.625 0.375-0.5 0.5-0.25 0.5 0.375 0.375l0.375 0.125h-0.75 0.25q0.25 0 0.40625-0.09375l0.15625-0.09375-0.15625 0.09375 0.54688 0.046875q0.54688 0.046875 1.1094 0.10938l0.5625 0.0625 0.125-0.125-0.125 0.125q-0.125 0.125-0.125 0.375v0.25-0.75l0.125 0.375q0.125 0.375 0.375 0.625t0.375 0.625l0.125 0.375-0.1875-0.5625 0.0625 0.1875q0.0625 0.1875 0.21875 0.28125l0.15625 0.09375-0.15625-0.09375-0.046875 0.54688q-0.046875 0.54688-0.17188 0.92188t-0.375 0.625-0.5 0.5-0.625 0.375-0.92188 0.17188l-0.54688 0.046875 0.09375 0.15625-0.09375-0.15625q-0.09375-0.15625-0.28125-0.21875l-0.1875-0.0625 0.5625 0.1875-0.375-0.125q-0.375-0.125-0.625-0.375t-0.625-0.375l-0.375-0.125h0.75-0.25q-0.25 0-0.40625 0.09375l-0.15625 0.09375 0.15625-0.09375-0.046875-0.54688q-0.046875-0.54688-0.09375-1.0938l-0.046875-0.54688-0.09375 0.15625 0.09375-0.15625q0.09375-0.15625 0.09375-0.40625v-0.25 0.75l-0.03125-1.0312-0.21875 0.03125 0.21875-0.03125q0.21875-0.03125 0.40625-0.09375l0.1875-0.0625-0.5625 0.1875 0.375-0.125q0.375-0.125 0.375-0.375t-0.375-0.375-0.75 0-0.5 0.5-0.25 0.75-0.375 0.625-0.375 0.625-0.125 0.875 0 1 0.125 0.875 0.375 0.625 0.5 0.5 0.625 0.375l0.375 0.125 0.125 0.375q0.125 0.375 0.375 0.625t0.5 0.5 0.625 0.375 0.75 0.25 0.625 0.375 0.625 0.375 0.875 0.125 1 0 1 0m4.5-8.625v-0.625 0.25q0 0.25 0 0.5v0.25-0.375m-2.5 2.625q0.5 0 0.875-0.125t0.5-0.5 0.125-0.875-0.125-0.875-0.5-0.5-0.875-0.125-0.875 0.125-0.5 0.5-0.125 0.875 0.125 0.875 0.5 0.5 0.875 0.125m-6 0q0.5 0 0.875-0.125t0.5-0.5 0.125-0.875-0.125-0.875-0.5-0.5-0.875-0.125-0.875 0.125-0.5 0.5-0.125 0.875 0.125 0.875 0.5 0.5 0.875 0.125"/>
  <path d="m12.125 0.375-0.125-0.375h5v5l-0.375-0.125q-0.375-0.125-0.5-0.5t-0.125-0.875-0.375-0.625-0.5-0.5-0.625-0.375-0.875-0.125-0.5-0.5-0.5-0.5-0.5-0.5" fill-opacity="0"/>
  <g>
   <path d="m5 1.5q0.25-0.25 0.625-0.375l0.375-0.125-0.5625 0.1875 0.1875-0.0625q0.1875-0.0625 0.40625-0.09375l0.21875-0.03125-0.21875 0.03125v1l0.21875-0.03125-0.21875 0.03125q-0.21875 0.03125-0.40625 0.09375l-0.1875 0.0625 0.5625-0.1875-0.375 0.125q-0.375 0.125-0.5 0.5t-0.5 0.25-0.375-0.375 0.25-0.5 0.5-0.5" fill="#f00"/>
   <path d="m6.0312 1.5312v-0.5l-0.21875 0.03125 0.21875-0.03125q0.21875-0.03125 0.46875-0.03125h0.25-0.75 0.5q0.5 0 1 0h0.5v1h-0.5q-0.5 0-1 0h-0.5 0.75-0.25q-0.25 0-0.46875 0.03125l-0.21875 0.03125 0.21875-0.03125v-0.5m1.5938 0.46875h0.625-0.25q-0.25 0-0.5 0h-0.25 0.375m0.5-1h-0.875 0.25q0.25 0 0.5 0h0.25-0.125" fill="#fff"/>
   <path d="m8 1.5v-0.5h0.5q0.5 0 1 0h0.5v1h-0.5q-0.5 0-1 0h-0.5v-0.5m-0.125 0.5h0.875-0.25q-0.25 0-0.5 0h-0.25 0.125m1.75 0h0.625-0.25q-0.25 0-0.5 0h-0.25 0.375m0.5-1h-0.875 0.25q0.25 0 0.5 0h0.25-0.125m-1.75 0h-0.625 0.25q0.25 0 0.5 0h0.25-0.375" fill="#f00"/>
   <path d="m10 1.5v-0.5h0.5q0.5 0 0.875 0.125t0.5 0.5l0.125 0.375h-0.5q-0.5 0-1 0h-0.5v-0.5m-0.125 0.5h0.875-0.25q-0.25 0-0.5 0h-0.25 0.125m0.5-1h-0.625 0.25q0.25 0 0.5 0h0.25-0.375" fill="#fff"/>
   <path d="m5.125 2.625q0.125-0.375 0.5-0.5t0.875-0.125 1 0 1 0 1 0 1 0 1 0h0.5v1-0.75 0.25q0 0.25 0.125 0.375l0.125 0.125-0.125-0.125-0.5625 0.0625q-0.5625 0.0625-1.125 0.125l-0.5625 0.0625 0.125 0.125-0.125-0.125q-0.125-0.125-0.375-0.125h-0.25 0.75-0.5q-0.5 0-1 0t-1 0h-0.5 0.75-0.25q-0.25 0-0.375 0.125l-0.125 0.125 0.125-0.125-0.5625-0.0625q-0.5625-0.0625-1.1094-0.10938l-0.54688-0.046875-0.15625 0.09375 0.15625-0.09375q0.15625-0.09375 0.21875-0.28125l0.0625-0.1875-0.1875 0.5625 0.125-0.375" fill="#009"/>
   <path d="m12 2.5v-0.5l0.375 0.125q0.375 0.125 0.375 0.375t-0.375 0.375-0.375-0.375" fill="#f00"/>
   <path d="m2.125 3.625q0.125-0.375 0.5-0.5t0.75 0 0.375 0.375-0.375 0.375-0.875 0.125h-0.5l0.125-0.375m-0.03125 0.09375-0.15625 0.46875 0.0625-0.1875q0.0625-0.1875 0.125-0.375l0.0625-0.1875-0.09375 0.28125" fill="#fff"/>
   <path d="m7.125 3.375q-0.125-0.375 0.375-0.375t1 0 1 0 0.375 0.375-0.375 0.625-0.375 0.625-0.625 0.375-0.625-0.375-0.375-0.625-0.375-0.625" fill="#fff"/>
   <path d="m13.25 3.5q0-0.25 0.375-0.375l0.375-0.125-0.5625 0.1875 0.1875-0.0625q0.1875-0.0625 0.375-0.0625h0.1875-0.1875v0.9375l-0.375-0.125q-0.375-0.125-0.375-0.375m0.75 0.625v-0.875 0.25q0 0.25 0 0.5v0.25-0.125" fill="#f00"/>
   <path d="m14 3.5312v-0.46875h-0.1875 0.1875q0.1875 0 0.375 0.0625l0.1875 0.0625-0.5625-0.1875 0.375 0.125q0.375 0.125 0.5 0.5t0.125 0.875v0.5h-0.5q-0.5 0-0.5-0.5t0-0.96875" fill="#fff"/>
   <path d="m1.875 4.375 0.125-0.375h1-0.75 0.25q0.25 0 0.46875-0.03125l0.21875-0.03125-0.21875 0.03125 0.015625 0.51562q0.015625 0.51562-0.35938 0.64062t-0.5 0.5l-0.125 0.375 0.1875-0.5625-0.0625 0.1875q-0.0625 0.1875-0.09375 0.40625l-0.03125 0.21875 0.03125-0.21875h-1l-0.03125 0.21875 0.03125-0.21875q0.03125-0.21875 0.09375-0.40625l0.0625-0.1875-0.1875 0.5625 0.125-0.375q0.125-0.375 0.375-0.625t0.375-0.625m0.15625-0.46875-0.21875 0.65625 0.0625-0.1875q0.0625-0.1875 0.125-0.375l0.0625-0.1875-0.03125 0.09375" fill="#f00"/>
   <path d="m4.125 4.625q0.125-0.375 0.5-0.5t0.875-0.125 0.875 0.125 0.5 0.5 0.125 0.875-0.125 0.875-0.5 0.5-0.875 0.125-0.875-0.125-0.5-0.5-0.125-0.875 0.125-0.875" fill="#fff"/>
   <path d="m10.125 4.625q0.125-0.375 0.5-0.5t0.875-0.125 0.875 0.125 0.5 0.5 0.125 0.875-0.125 0.875-0.5 0.5-0.875 0.125-0.875-0.125-0.5-0.5-0.125-0.875 0.125-0.875" fill="#fff"/>
  </g>
  <g fill="#009">
   <path d="m2.125 5.625q0.125-0.375 0.5-0.5l0.375-0.125-0.5625 0.1875 0.1875-0.0625q0.1875-0.0625 0.28125-0.21875l0.09375-0.15625-0.09375 0.15625 0.046875 0.54688q0.046875 0.54688 0.09375 1.0938l0.046875 0.54688 0.15625-0.09375-0.15625 0.09375q-0.15625 0.09375-0.21875 0.28125l-0.0625 0.1875 0.1875-0.5625-0.125 0.375q-0.125 0.375-0.5 0.5l-0.375 0.125v-0.5q0-0.5 0-1t0.125-0.875"/>
   <path d="m8.0469 5.4531 0.046875-0.54688-0.15625-0.09375 0.15625 0.09375q0.15625 0.09375 0.40625 0.09375h0.25-0.75 1-0.75 0.25q0.25 0 0.40625-0.09375l0.15625-0.09375-0.15625 0.09375 0.046875 0.54688q0.046875 0.54688 0.17188 0.92188t0.375 0.625 0.5 0.5 0.625 0.375 0.92188 0.17188l0.54688 0.046875 0.09375-0.15625-0.09375 0.15625q-0.09375 0.15625-0.09375 0.40625v0.25-0.75l0.125 0.375q0.125 0.375 0.5 0.5t0.375 0.625 0 1v0.5h-0.5q-0.5 0-0.875 0.125t-0.5 0.5l-0.125 0.375h-0.5q-0.5 0-1 0t-1 0-1 0-0.875-0.125-0.625-0.375-0.625-0.375-0.75-0.25-0.5-0.5-0.125-0.875 0.375-0.625 0.5-0.5l0.125-0.375v0.75-0.25q0-0.25-0.09375-0.40625l-0.09375-0.15625 0.09375 0.15625 0.54688-0.046875q0.54688-0.046875 0.92188-0.17188t0.625-0.375 0.5-0.5 0.375-0.625 0.17188-0.92188m0.078125 4.9219q0.125 0.375 0.375 0.375t0.375-0.375 0.5-0.5 0.375-0.375-0.25-0.5-0.5-0.5-0.5-0.25-0.5 0.25-0.5 0.5-0.25 0.5 0.375 0.375 0.5 0.5"/>
   <path d="m14.062 5.4375 0.0625-0.5625-0.125-0.125 0.125 0.125q0.125 0.125 0.375 0.125h0.25-0.75 1v0.5q0 0.5 0 1t0 1v0.5l-0.375-0.125q-0.375-0.125-0.5-0.5l-0.125-0.375 0.1875 0.5625-0.0625-0.1875q-0.0625-0.1875-0.21875-0.28125l-0.15625-0.09375 0.15626 0.09375 0.04687-0.54688q0.04687-0.54688 0.10937-1.1094m0.9375 2.6875v-0.875 0.25q0 0.25 0 0.5v0.25-0.125"/>
  </g>
  <g>
   <path d="m15 5.5v-0.5l0.375 0.125q0.375 0.125 0.5 0.5t0.125 0.875v0.5h-1v-0.5q0-0.5 0-1m0 1.125v0.625-0.25q0-0.25 0-0.5v-0.25 0.375m1 0.5v-0.875 0.25q0 0.25 0 0.5v0.25-0.125" fill="#f00"/>
   <path d="m1 6.5v-0.5 0.75-0.25q0-0.25 0.03125-0.46875l0.03125-0.21875-0.03125 0.21875h1l0.03125-0.21875-0.03125 0.21875q-0.03125 0.21875-0.03125 0.46875v0.25-0.75 0.5q0 0.5 0 1v0.5l-0.96875-0.03125 0.03125 0.21875-0.03125-0.21875q-0.03125-0.21875-0.03125-0.46875v-0.25 0.75-0.5q0-0.5 0-1" fill="#fff"/>
   <path d="m2.875 7.375q0.125-0.375 0.5-0.25t0.625 0.375 0.625 0.375 0.25 0.5-0.5 0.5l-0.375 0.125 0.5625-0.1875-0.1875 0.0625q-0.1875 0.0625-0.28125 0.21875l-0.09375 0.15625 0.09375-0.15625-0.17188-0.42188q-0.17188-0.42188-0.42188-0.42188t-0.42188 0.42188l-0.17188 0.42188 0.09375 0.15625-0.09375-0.15625q-0.09375-0.15625-0.28125-0.21875l-0.1875-0.0625 0.5625 0.1875-0.375-0.125q-0.375-0.125-0.5-0.5l-0.125-0.375 0.375-0.125q0.375-0.125 0.5-0.5" fill="#ffd700"/>
   <path d="m13 7.5q0.25-0.25 0.625-0.375t0.5 0.25 0.5 0.5l0.375 0.125v1h-1 0.75-0.25q-0.25 0-0.40625 0.09375l-0.15625 0.09375 0.15625-0.09375-0.17188-0.42188q-0.17188-0.42188-0.42188-0.42188t-0.42188 0.42188l-0.17188 0.42188 0.09375 0.15625-0.09375-0.15625q-0.09375-0.15625-0.28125-0.21875l-0.1875-0.0625 0.5625 0.1875-0.375-0.125q-0.375-0.125-0.5-0.5t0.25-0.5 0.625-0.375m2 0.875v-0.625 0.25q0 0.25 0 0.5v0.25-0.375" fill="#ffd700"/>
   <path d="m15 7.5v-0.5h1v0.5q0 0.5-0.125 0.875t-0.5 0.5l-0.375 0.125v-0.5q0-0.5 0-1m1-0.125v-0.625 0.25q0 0.25 0 0.5v0.25-0.375m-1-0.5v0.875-0.25q0-0.25 0-0.5v-0.25 0.125" fill="#fff"/>
   <path d="m1.125 8.375-0.125-0.375 0.1875 0.5625-0.0625-0.1875q-0.0625-0.1875-0.09375-0.40625l-0.03125-0.21875 0.03125 0.21875 0.96875 0.03125 0.125 0.375q0.125 0.375 0.5 0.5t0.375 0.625v0.5l-0.375-0.125q-0.375-0.125-0.625-0.375t-0.5-0.5-0.375-0.625" fill="#f00"/>
   <path d="m3.0781 8.6719q0.17188-0.42188 0.42188-0.42188t0.42188 0.42188l0.17188 0.42188 0.09375-0.15625-0.09375 0.15625q-0.09375 0.15625-0.09375 0.40625v0.25-0.75 1-0.75 0.25q0 0.25 0.03125 0.46875l0.03125 0.21875-0.03125-0.21875-1.0312 0.03125v-1 0.75-0.25q0-0.25-0.09375-0.40625l-0.09375-0.15625 0.09375 0.15625 0.17188-0.42188" fill="#b3972e"/>
   <path d="m8 8.5q0.25-0.25 0.5-0.25t0.5 0.25 0.5 0.5 0.25 0.5-0.375 0.375l-0.375 0.125 0.5625-0.1875-0.1875 0.0625q-0.1875 0.0625-0.3125 0.1875l-0.125 0.125 0.125-0.125-0.15625-0.40625q-0.15625-0.40625-0.40625-0.40625t-0.40625 0.40625l-0.15625 0.40625 0.125 0.125-0.125-0.125q-0.125-0.125-0.3125-0.1875l-0.1875-0.0625 0.5625 0.1875-0.375-0.125q-0.375-0.125-0.375-0.375t0.25-0.5 0.5-0.5" fill="#ffd700"/>
   <path d="m13.078 8.6719q0.17188-0.42188 0.42188-0.42188t0.42188 0.42188l0.17188 0.42188 0.15625-0.09375-0.15625 0.09375q-0.15625 0.09375-0.21875 0.28125l-0.0625 0.1875 0.1875-0.5625-0.125 0.375q-0.125 0.375-0.5 0.5l-0.375 0.125v-1 0.75-0.25q0-0.25-0.09375-0.40625l-0.09375-0.15625 0.09375 0.15625 0.17188-0.42188m-0.078125 0.95312v0.625-0.25q0-0.25 0-0.5v-0.25 0.375" fill="#b3972e"/>
  </g>
  <path d="m0 9.5v-0.5l0.375 0.125q0.375 0.125 0.5 0.5t0.125 0.875 0.5 0.5 0.5 0.5 0.5 0.5 0.875 0.125 0.5 0.5 0.625 0.375 0.5 0.5v0.5h-5v-4.5" fill-opacity="0"/>
  <path d="m8.0938 9.6562q0.15625-0.40625 0.40625-0.40625t0.40625 0.40625l0.15625 0.40625 0.125-0.125-0.125 0.125q-0.125 0.125-0.1875 0.3125l-0.0625 0.1875 0.1875-0.5625-0.125 0.375q-0.125 0.375-0.375 0.375t-0.375-0.375l-0.125-0.375 0.1875 0.5625-0.0625-0.1875q-0.0625-0.1875-0.1875-0.3125l-0.125-0.125 0.125 0.125 0.15625-0.40625" fill="#b3972e"/>
  <path d="m13.875 9.375q0.125-0.375 0.625-0.375h0.5l-0.125 0.375q-0.125 0.375-0.375 0.625t-0.5 0.5-0.625 0.375l-0.375 0.125v-1l0.375-0.125q0.375-0.125 0.5-0.5m-0.875 0.5v0.875-0.25q0-0.25 0-0.5v-0.25 0.125" fill="#f00"/>
  <path d="m16.125 9.625q0.125-0.375 0.5-0.5l0.375-0.125v5h-5v-0.5q0-0.5 0.5-0.5t0.625-0.375 0.5-0.5 0.875-0.125 0.5-0.5 0.5-0.5 0.5-0.5 0.125-0.875" fill-opacity="0"/>
  <g>
   <path d="m3.125 10.375-0.125-0.375 1.0312-0.03125-0.03125-0.21875 0.03125 0.21875q0.03125 0.21875 0.09375 0.40625l0.0625 0.1875-0.1875-0.5625 0.125 0.375q0.125 0.375 0.5 0.5l0.375 0.125v1l-0.375-0.125q-0.375-0.125-0.625-0.375t-0.5-0.5-0.375-0.625m1.5938 1.5312 0.46875 0.15625-0.1875-0.0625q-0.1875-0.0625-0.375-0.125l-0.1875-0.0625 0.28125 0.09375m0.375-0.875-0.65625-0.21875 0.1875 0.0625q0.1875 0.0625 0.375 0.125l0.1875 0.0625-0.09375-0.03125" fill="#fff"/>
   <path d="m5 11.5v-0.5l0.375 0.125q0.375 0.125 0.625 0.375t0.625 0.375l0.375 0.125-0.5625-0.1875 0.1875 0.0625q0.1875 0.0625 0.40625 0.09375l0.21875 0.03125-0.21875-0.03125v1l0.21875 0.03125-0.21875-0.03125q-0.21875-0.03125-0.40625-0.09375l-0.1875-0.0625 0.5625 0.1875-0.375-0.125q-0.375-0.125-0.625-0.375t-0.625-0.375l-0.375-0.125v-0.5m-0.09375 0.46875 0.65625 0.21875-0.1875-0.0625q-0.1875-0.0625-0.375-0.125l-0.1875-0.0625 0.09375 0.03125m0.375-0.875-0.46875-0.15625 0.1875 0.0625q0.1875 0.0625 0.375 0.125l0.1875 0.0625-0.28125-0.09375" fill="#f00"/>
   <path d="m11.125 11.625q0.125-0.375 0.5-0.5t0.875-0.125h0.5l-0.125 0.375q-0.125 0.375-0.5 0.5t-0.875 0.125h-0.5l0.125-0.375" fill="#fff"/>
   <path d="m7.0312 12.469v-0.5l-0.21875-0.03125 0.21875 0.03125q0.21875 0.03125 0.46875 0.03125h0.25-0.75 0.5q0.5 0 1 0h0.5v1h-0.5q-0.5 0-1 0h-0.5 0.75-0.25q-0.25 0-0.46875-0.03125l-0.21875-0.03125 0.21875 0.03126v-0.5m1.5938 0.53124h0.625-0.25q-0.25 0-0.5 0h-0.25 0.375m0.5-1h-0.875 0.25q0.25 0 0.5 0h0.25-0.125" fill="#fff"/>
   <path d="m9 12.5v-0.5h0.5q0.5 0 1 0h0.5l-0.125 0.375q-0.125 0.375-0.5 0.5t-0.875 0.125h-0.5v-0.5m-0.125 0.5h0.875-0.25q-0.25 0-0.5 0h-0.25 0.125m0.5-1h-0.625 0.25q0.25 0 0.5 0h0.25-0.375" fill="#f00"/>
  </g>
 </g>
</svg>
