<svg width="17" height="14" version="1.1" viewBox="0 0 17 14" xmlns="http://www.w3.org/2000/svg">
 <g transform="translate(0)">
  <path d="m0 0.5v-0.5h5l-0.125 0.375q-0.125 0.375-0.5 0.5t-0.5 0.5-0.5 0.5-0.875 0.125-0.625 0.375-0.5 0.5-0.375 0.625-0.125 0.875-0.5 0.5l-0.375 0.125v-4.5" fill-opacity="0"/>
  <path d="m4.875 0.375 0.125-0.375h7l0.125 0.375q0.125 0.375 0.5 0.5t0.5 0.5 0.5 0.5 0.875 0.125 0.625 0.375 0.5 0.5 0.375 0.625 0.125 0.875 0.5 0.5l0.375 0.125v4l-0.375 0.125q-0.375 0.125-0.5 0.5t-0.125 0.875-0.5 0.5-0.5 0.5-0.5 0.5-0.875 0.125-0.5 0.5-0.625 0.375-0.5 0.5v0.5h-7v-0.5q0-0.5-0.5-0.5t-0.625-0.375-0.5-0.5-0.875-0.125-0.5-0.5-0.5-0.5-0.5-0.5-0.125-0.875-0.5-0.5l-0.375-0.125v-4l0.375-0.125q0.375-0.125 0.5-0.5t0.125-0.875 0.375-0.625 0.5-0.5 0.625-0.375 0.875-0.125 0.5-0.5 0.5-0.5 0.5-0.5m4.625 12.625q0.5 0 0.875-0.125t0.625-0.375 0.625-0.375 0.75-0.25 0.5-0.5l0.125-0.375 0.375-0.125q0.375-0.125 0.5-0.5l0.125-0.375 0.375-0.125q0.375-0.125 0.5-0.5l0.125-0.375 0.375-0.125q0.375-0.125 0.5-0.5t0.125-0.875 0-1-0.125-0.875-0.375-0.625-0.375-0.625-0.25-0.75-0.5-0.5-0.75-0.25-0.625-0.375-0.5-0.5-0.5-0.5-0.625-0.375-0.875-0.125-1 0-1 0-1 0-1 0-0.875 0.125-0.625 0.375-0.5 0.5-0.5 0.5-0.625 0.375-0.75 0.25-0.5 0.5-0.25 0.75-0.375 0.625-0.375 0.625-0.125 0.875 0 1 0.125 0.875 0.5 0.5l0.375 0.125 0.125 0.375q0.125 0.375 0.5 0.5l0.375 0.125 0.125 0.375q0.125 0.375 0.5 0.5l0.375 0.125 0.125 0.375q0.125 0.375 0.5 0.5t0.75 0.25 0.625 0.375 0.625 0.375 0.875 0.125 1 0 1 0m3.7812-2.0938-0.46875 0.15625 0.1875-0.0625q0.1875-0.0625 0.375-0.125l0.1875-0.0625-0.28125 0.09375m0.75-1-0.21875 0.65625 0.0625-0.1875q0.0625-0.1875 0.125-0.375l0.0625-0.1875-0.03125 0.09375m1.25-1-0.46875 0.15625 0.1875-0.0625q0.1875-0.0625 0.375-0.125l0.1875-0.0625-0.28125 0.09375m-13.188 0.125-0.65625-0.21875 0.1875 0.0625q0.1875 0.0625 0.375 0.125l0.1875 0.0625-0.09375-0.03125m1 1.25-0.15625-0.46875 0.0625 0.1875q0.0625 0.1875 0.125 0.375l0.0625 0.1875-0.09375-0.28125m1 0.75-0.65625-0.21875 0.1875 0.0625q0.1875 0.0625 0.375 0.125l0.1875 0.0625-0.09375-0.03125"/>
  <path d="m12.125 0.375-0.125-0.375h5v5l-0.375-0.125q-0.375-0.125-0.5-0.5t-0.125-0.875-0.375-0.625-0.5-0.5-0.625-0.375-0.875-0.125-0.5-0.5-0.5-0.5-0.5-0.5" fill-opacity="0"/>
  <g>
   <path d="m5 1.5q0.25-0.25 0.625-0.375l0.375-0.125-0.5625 0.1875 0.1875-0.0625q0.1875-0.0625 0.40625-0.09375l0.21875-0.03125-0.21875 0.03125-0.015625 0.48438q-0.015625 0.48438-0.015625 0.98438v0.5h-0.5q-0.5 0-0.875 0.125t-0.625 0.375-0.5 0.5-0.375 0.625l-0.125 0.375 0.1875-0.5625-0.0625 0.1875q-0.0625 0.1875-0.09375 0.40625l-0.03125 0.21875 0.03125-0.21875-0.39062 0.10938q-0.39062 0.10938-0.51562 0.48438t0 0.75 0.5 0.5 0.75 0.25 0.5 0.5 0.25 0.75 0.375 0.375 0.375-0.375l0.125-0.375h0.5q0.5 0 0.875-0.125t0.625-0.375 0.625-0.375l0.375-0.125v0.5q0 0.5-0.375 0.625t-0.5 0.5l-0.125 0.375 0.1875-0.5625-0.0625 0.1875q-0.0625 0.1875-0.09375 0.40625l-0.03125 0.21875 0.03125-0.21875-0.39062 0.10938q-0.39062 0.10938-0.51562 0.48438t0 0.75 0.375 0.375 0.375-0.375l0.125-0.375 0.375-0.125q0.375-0.125 0.625-0.375t0.5-0.25 0.5 0.25 0.625 0.375l0.375 0.125-0.5625-0.1875 0.1875 0.0625q0.1875 0.0625 0.40625 0.09375l0.21875 0.03125-0.21875-0.03125 0.10938 0.39062q0.10938 0.39062 0.35938 0.39062t0.375-0.375 0-0.75-0.375-0.625-0.375-0.625l-0.125-0.375h0.5q0.5 0 1 0h0.5l0.125 0.375q0.125 0.375 0.375 0.375t0.375-0.375 0.25-0.75 0.5-0.5 0.75-0.25 0.5-0.5 0-0.75-0.51562-0.48438l-0.39062-0.10938 0.03125 0.21875-0.03125-0.21875q-0.03125-0.21875-0.09375-0.40625l-0.0625-0.1875 0.1875 0.5625-0.125-0.375q-0.125-0.375-0.375-0.625t-0.5-0.5-0.625-0.375-0.875-0.125h-0.5v-0.5q0-0.5-0.015625-0.98438l-0.015625-0.48438-0.21875-0.03125 0.21875 0.03125q0.21875 0.03125 0.40625 0.09375l0.1875 0.0625-0.5625-0.1875 0.375 0.125q0.375 0.125 0.625 0.375t0.5 0.5 0.5 0.5 0.625 0.375 0.75 0.25 0.5 0.5 0.25 0.75 0.375 0.625 0.375 0.625 0.125 0.875 0 1-0.125 0.875-0.5 0.5-0.75 0.25-0.5 0.5-0.25 0.75-0.5 0.5-0.75 0.25-0.5 0.5l-0.125 0.375-0.375 0.125q-0.375 0.125-0.625 0.375t-0.625 0.375-0.875 0.125h-0.5v-0.5q0-0.5-0.125-0.875t-0.375-0.375-0.375 0.375-0.125 0.875v0.5h-0.5q-0.5 0-0.875-0.125t-0.625-0.375-0.625-0.375l-0.375-0.125-0.125-0.375q-0.125-0.375-0.5-0.5t-0.75-0.25-0.5-0.5-0.25-0.75-0.5-0.5-0.75-0.25-0.5-0.5-0.125-0.875 0-1 0.125-0.875 0.375-0.625 0.375-0.625 0.25-0.75 0.5-0.5 0.75-0.25 0.625-0.375 0.5-0.5 0.5-0.5m-0.09375 10.469 0.65625 0.21875-0.1875-0.0625q-0.1875-0.0625-0.375-0.125l-0.1875-0.0625 0.09375 0.03125m2.7188 1.0312h0.625-0.25q-0.25 0-0.5 0h-0.25 0.375m1.25 0h0.875-0.25q-0.25 0-0.5 0h-0.25 0.125m2.8438-0.90625 0.46875-0.15625-0.1875 0.0625q-0.1875 0.0625-0.375 0.125l-0.1875 0.0625 0.28125-0.09375m-0.84375-9.0938h0.875-0.25q-0.25 0-0.5 0h-0.25 0.125m1.25 5h-0.875 0.25q0.25 0 0.5 0h0.25-0.125m-2.1562-0.09375 0.21875 0.65625-0.0625-0.1875q-0.0625-0.1875-0.125-0.375l-0.0625-0.1875 0.03125 0.09375m-4.5938 0.09375h-0.625 0.25q0.25 0 0.5 0h0.25-0.375m0.25-5h0.625-0.25q-0.25 0-0.5 0h-0.25 0.375" fill="#0000d7"/>
   <path d="m6.0156 1.5156 0.015625-0.48438-0.21875 0.03125 0.21875-0.03125q0.21875-0.03125 0.46875-0.03125h0.25-0.75 1v0.5q0 0.5 0 1v0.5h-1v-0.5q0-0.5 0.015625-0.98438m-0.14062 1.4844h0.875-0.25q-0.25 0-0.5 0h-0.25 0.125m1.25-2h-0.875 0.25q0.25 0 0.5 0h0.25-0.125" fill="#c3a433"/>
   <path d="m7 1.5v-0.5h0.5q0.5 0 1 0t1 0h0.5v0.5q0 0.5 0 1t-0.125 0.875-0.51562 0.51562l-0.39062 0.14062 0.03125 0.21875-0.03125-0.21875q-0.03125-0.21875-0.09375-0.40625l-0.0625-0.1875 0.1875 0.5625-0.125-0.375q-0.125-0.375-0.5-0.5t-0.875-0.125h-0.5v-0.5q0-0.5 0-1m3.125-0.5h-0.875 0.25q0.25 0 0.5 0h0.25-0.125m-2.75 0h-0.625 0.25q0.25 0 0.5 0h0.25-0.375" fill="#0000d7"/>
   <path d="m10 1.5v-0.5h1-0.75 0.25q0.25 0 0.46875 0.03125l0.21875 0.03125-0.21875-0.03125 0.015625 0.48438q0.015625 0.48438 0.015625 0.98438v0.5l-1.0312-0.03125-0.03125 0.21875 0.03125-0.21875q0.03125-0.21875 0.03125-0.46875v-0.25 0.75-0.5q0-0.5 0-1m0.625 1.5h0.625-0.25q-0.25 0-0.5 0h-0.25 0.375m-0.25-2h-0.625 0.25q0.25 0 0.5 0h0.25-0.375" fill="#c3a433"/>
   <path d="m4 3.5q0.25-0.25 0.625-0.375t0.875-0.125 1 0h0.5l0.125 0.375q0.125 0.375 0.5 0.5l0.375 0.125v0.5q0 0.5 0 1t0 1v0.5l-0.375 0.125q-0.375 0.125-0.625 0.375t-0.625 0.375-0.875 0.125-1 0h-0.5l-0.125-0.375q-0.125-0.375-0.5-0.5l-0.375-0.125v-0.5q0-0.5 0-1t0.125-0.875 0.375-0.625 0.5-0.5m-1.0938 3.4688 0.65625 0.21875-0.1875-0.0625q-0.1875-0.0625-0.375-0.125l-0.1875-0.0625 0.09375 0.03125m1 0.75 0.15625 0.46875-0.0625-0.1875q-0.0625-0.1875-0.125-0.375l-0.0625-0.1875 0.09375 0.28125m1.5938-0.71875q0.5 0 0.875-0.125t0.5-0.5 0.125-0.875-0.125-0.875-0.5-0.5-0.875-0.125-0.875 0.125-0.5 0.5-0.125 0.875 0.125 0.875 0.5 0.5 0.875 0.125m2.5-2.625v-0.625 0.25q0 0.25 0 0.5v0.25-0.375"/>
   <path d="m7.125 3.375-0.125-0.375h1-0.75 0.25q0.25 0 0.46875 0.03125l0.21875 0.03125-0.21875-0.03125 0.03125 0.96875-0.375-0.125q-0.375-0.125-0.5-0.5m0.875 0.75v-0.875 0.25q0 0.25 0 0.5v0.25-0.125" fill="#f00"/>
   <path d="m7.9844 3.5156-0.015625-0.48438-0.21875-0.03125 0.21875 0.03125q0.21875 0.03125 0.40625 0.09375l0.1875 0.0625-0.5625-0.1875 0.375 0.125q0.375 0.125 0.5 0.5t0.125 0.875 0 1 0.125 0.875 0.375 0.625 0.375 0.625 0.25 0.75 0.375 0.625 0.375 0.625l0.125 0.375-0.1875-0.5625 0.0625 0.1875q0.0625 0.1875 0.0625 0.375v0.1875-0.1875h-0.46875q-0.46875 0-0.84375-0.125t-0.625-0.375-0.5-0.25-0.5 0.25-0.625 0.375l-0.375 0.125v-0.5q0-0.5 0.125-0.875t0.5-0.5l0.375-0.125-0.5625 0.1875 0.1875-0.0625q0.1875-0.0625 0.28125-0.21875l0.09375-0.15625-0.09375 0.15625 0.42188-0.078125q0.42188-0.078125 0.42188-0.32812t-0.375-0.375l-0.375-0.125v-0.5q0-0.5 0-1t0-1-0.015625-0.98438" fill="#ffd700"/>
   <path d="m9.875 3.375 0.125-0.375-0.1875 0.5625 0.0625-0.1875q0.0625-0.1875 0.09375-0.40625l0.03125-0.21875-0.03125 0.21875 0.51562 0.015625q0.51562 0.015625 1.0156 0.015625t0.875 0.125 0.625 0.375 0.5 0.5 0.375 0.625 0.125 0.875 0 1v0.5l-0.375 0.125q-0.375 0.125-0.5 0.5l-0.125 0.375h-0.5q-0.5 0-1 0t-1 0h-0.5l-0.125-0.375q-0.125-0.375-0.375-0.625t-0.375-0.625-0.125-0.875 0-1v-0.5 0.75-0.25q0-0.25-0.03125-0.46875l-0.03125-0.21875 0.03125 0.21875 0.39062-0.14062q0.39062-0.14062 0.51562-0.51562m0.03125 4.3438 0.15625 0.46875-0.0625-0.1875q-0.0625-0.1875-0.125-0.375l-0.0625-0.1875 0.09375 0.28125m1.5938-0.71875q0.5 0 0.875-0.125t0.5-0.5 0.125-0.875-0.125-0.875-0.5-0.5-0.875-0.125-0.875 0.125-0.5 0.5-0.125 0.875 0.125 0.875 0.5 0.5 0.875 0.125m1.4688 1.0938 0.21875-0.65625-0.0625 0.1875q-0.0625 0.1875-0.125 0.375l-0.0625 0.1875 0.03125-0.09375m0.75-1 0.46875-0.15625-0.1875 0.0625q-0.1875 0.0625-0.375 0.125l-0.1875 0.0625 0.28125-0.09375"/>
   <path d="m4.125 4.625q0.125-0.375 0.5-0.5t0.875-0.125 0.875 0.125 0.5 0.5 0.125 0.875-0.125 0.875-0.5 0.5-0.875 0.125-0.875-0.125-0.5-0.5-0.125-0.875 0.125-0.875" fill="#fff"/>
   <path d="m10.125 4.625q0.125-0.375 0.5-0.5t0.875-0.125 0.875 0.125 0.5 0.5 0.125 0.875-0.125 0.875-0.5 0.5-0.875 0.125-0.875-0.125-0.5-0.5-0.125-0.875 0.125-0.875" fill="#fff"/>
  </g>
  <g fill="#c3a433">
   <path d="m2.125 5.625q0.125-0.375 0.51562-0.48438l0.39062-0.10938 0.03125-0.21875-0.03125 0.21875q-0.03125 0.21875-0.03125 0.46875v0.25-0.75 0.5q0 0.5 0 1v0.5l-0.375-0.125q-0.375-0.125-0.5-0.5t0-0.75m0.59375 1.2812 0.46875 0.15625-0.1875-0.0625q-0.1875-0.0625-0.375-0.125l-0.1875-0.0625 0.28125 0.09375"/>
   <path d="m14 5.5v-0.5 0.75-0.25q0-0.25-0.03125-0.46875l-0.03125-0.21875 0.03126 0.21875 0.39062 0.10938q0.39062 0.10938 0.51562 0.48438t0 0.75-0.5 0.5l-0.375 0.125v-0.5q0-0.5 0-1m-0.09375 1.5312 0.65625-0.21875-0.1875 0.0625q-0.1875 0.0625-0.375 0.125l-0.1875 0.0625 0.09375-0.03125"/>
   <path d="m8 7.5v-0.5l0.375 0.125q0.375 0.125 0.375 0.375t-0.42188 0.32812l-0.42188 0.078125-0.09375 0.15625 0.09375-0.15625q0.09375-0.15625 0.09375-0.40625v-0.25 0.75-0.5"/>
   <path d="m4.125 8.375-0.125-0.375h1l-0.125 0.375q-0.125 0.375-0.375 0.375t-0.375-0.375m1-0.375h-0.875 0.25q0.25 0 0.5 0h0.25-0.125m-1.1562-0.09375 0.21875 0.65625-0.0625-0.1875q-0.0625-0.1875-0.125-0.375l-0.0625-0.1875 0.03125 0.09375"/>
   <path d="m12.125 8.375-0.125-0.375h1l-0.125 0.375q-0.125 0.375-0.375 0.375t-0.375-0.375m0.78125-0.09375 0.15625-0.46875-0.0625 0.1875q-0.0625 0.1875-0.125 0.375l-0.0625 0.1875 0.09375-0.28125m-0.53125-0.28125h-0.625 0.25q0.25 0 0.5 0h0.25-0.375"/>
  </g>
  <path d="m0 9.5v-0.5l0.375 0.125q0.375 0.125 0.5 0.5t0.125 0.875 0.5 0.5 0.5 0.5 0.5 0.5 0.875 0.125 0.5 0.5 0.625 0.375 0.5 0.5v0.5h-5v-4.5" fill-opacity="0"/>
  <g>
   <path d="m2.125 9.375-0.125-0.375 0.375 0.125q0.375 0.125 0.5 0.5l0.125 0.375-0.375-0.125q-0.375-0.125-0.5-0.5m0.90625 0.71875-0.21875-0.65625 0.0625 0.1875q0.0625 0.1875 0.125 0.375l0.0625 0.1875-0.03125-0.09375m-0.75-1-0.46875-0.15625 0.1875 0.0625q0.1875 0.0625 0.375 0.125l0.1875 0.0625-0.28125-0.09375" fill="#c3a433"/>
   <path d="m6.125 9.625q0.125-0.375 0.51562-0.48438l0.39062-0.10938 0.03125-0.21875-0.03125 0.21875q-0.03125 0.21875-0.03125 0.46875v0.25-0.75 1h-0.9375v0.1875-0.1875q0-0.1875 0.0625-0.375l0.0625-0.1875-0.1875 0.5625 0.125-0.375" fill="#f00"/>
   <path d="m14.125 9.625q0.125-0.375 0.5-0.5l0.375-0.125-0.125 0.375q-0.125 0.375-0.5 0.5l-0.375 0.125 0.125-0.375m-0.03125 0.09375-0.15625 0.46875 0.0625-0.1875q0.0625-0.1875 0.125-0.375l0.0625-0.1875-0.09375 0.28125m1-0.75-0.65625 0.21875 0.1875-0.0625q0.1875-0.0625 0.375-0.125l0.1875-0.0625-0.09375 0.03125" fill="#c3a433"/>
  </g>
  <path d="m16.125 9.625q0.125-0.375 0.5-0.5l0.375-0.125v5h-5v-0.5q0-0.5 0.5-0.5t0.625-0.375 0.5-0.5 0.875-0.125 0.5-0.5 0.5-0.5 0.5-0.5 0.125-0.875" fill-opacity="0"/>
  <path d="m6.125 10.375-0.125-0.375 0.1875 0.5625-0.0625-0.1875q-0.0625-0.1875-0.0625-0.375v-0.1875 0.1875h0.9375l-0.125 0.375q-0.125 0.375-0.375 0.375t-0.375-0.375" fill="#c3a433"/>
  <path d="m10.141 10.359-0.10938-0.39062-0.21875-0.03125 0.21875 0.03125q0.21875 0.03125 0.46875 0.03125h0.25-0.75 0.9375v-0.1875 0.1875q0 0.1875-0.0625 0.375l-0.0625 0.1875 0.1875-0.5625-0.125 0.375q-0.125 0.375-0.375 0.375t-0.35938-0.39062" fill="#f00"/>
  <g fill="#c3a433">
   <path d="m4.125 11.375-0.125-0.375 0.375 0.125q0.375 0.125 0.5 0.5l0.125 0.375-0.375-0.125q-0.375-0.125-0.5-0.5m0.59375 0.53125 0.46875 0.15625-0.1875-0.0625q-0.1875-0.0625-0.375-0.125l-0.1875-0.0625 0.28125 0.09375m-0.4375-0.8125-0.46875-0.15625 0.1875 0.0625q0.1875 0.0625 0.375 0.125l0.1875 0.0625-0.28125-0.09375"/>
   <path d="m8.125 11.625q0.125-0.375 0.375-0.375t0.375 0.375 0.125 0.875v0.5h-1v-0.5q0-0.5 0.125-0.875m-0.25 1.375h0.875-0.25q-0.25 0-0.5 0h-0.25 0.125m0.75 0h0.625-0.25q-0.25 0-0.5 0h-0.25 0.375"/>
   <path d="m12.125 11.625q0.125-0.375 0.5-0.5l0.375-0.125-0.125 0.375q-0.125 0.375-0.5 0.5l-0.375 0.125 0.125-0.375m-0.21875 0.40625 0.65625-0.21875-0.1875 0.0625q-0.1875 0.0625-0.375 0.125l-0.1875 0.0625 0.09375-0.03125m1.1875-1.0625-0.65625 0.21875 0.1875-0.0625q0.1875-0.0625 0.375-0.125l0.1875-0.0625-0.09375 0.03125"/>
  </g>
 </g>
</svg>
