<svg width="17" height="14" version="1.1" viewBox="0 0 17 14" xmlns="http://www.w3.org/2000/svg">
 <g transform="translate(0)">
  <path d="m0 0.5v-0.5h5l-0.125 0.375q-0.125 0.375-0.5 0.5t-0.5 0.5-0.5 0.5-0.875 0.125-0.625 0.375-0.5 0.5-0.375 0.625-0.125 0.875-0.5 0.5l-0.375 0.125v-4.5" fill-opacity="0"/>
  <path d="m4.875 0.375 0.125-0.375h7l0.125 0.375q0.125 0.375 0.5 0.5t0.5 0.5 0.5 0.5 0.875 0.125 0.625 0.375 0.5 0.5 0.375 0.625 0.125 0.875 0.5 0.5l0.375 0.125v4l-0.375 0.125q-0.375 0.125-0.5 0.5t-0.125 0.875-0.5 0.5-0.5 0.5-0.5 0.5-0.875 0.125-0.5 0.5-0.625 0.375-0.5 0.5v0.5h-7v-0.5q0-0.5-0.5-0.5t-0.625-0.375-0.5-0.5-0.875-0.125-0.5-0.5-0.5-0.5-0.5-0.5-0.125-0.875-0.5-0.5l-0.375-0.125v-4l0.375-0.125q0.375-0.125 0.5-0.5t0.125-0.875 0.375-0.625 0.5-0.5 0.625-0.375 0.875-0.125 0.5-0.5 0.5-0.5 0.5-0.5m4.625 12.625q0.5 0 0.875-0.125t0.5-0.5l0.125-0.375h0.5q0.5 0 0.875-0.125t0.5-0.5l0.125-0.375 0.375-0.125q0.375-0.125 0.625-0.375t0.5-0.5 0.5-0.5 0.5-0.5 0.375-0.625 0.125-0.875 0-1-0.125-0.875-0.5-0.5l-0.375-0.125v-0.5q0-0.5-0.125-0.875t-0.5-0.5-0.75-0.25-0.625-0.375-0.625-0.375l-0.375-0.125 0.5625 0.1875-0.1875-0.0625q-0.1875-0.0625-0.375-0.0625h-0.1875 0.1875l-0.125-0.40625q-0.125-0.40625-0.5-0.53125t-0.875-0.125-1 0-1 0-1 0-1 0-0.875 0.125-0.5 0.5l-0.125 0.375 0.1875-0.5625-0.0625 0.1875q-0.0625 0.1875-0.09375 0.40625l-0.03125 0.21875 0.03125-0.21875-0.39062 0.10938q-0.39062 0.10938-0.39062 0.35938t0.375 0.375 0.875 0.125 1.0156-0.015625l0.51562-0.015625-0.03125-0.21875 0.03125 0.21875q0.03125 0.21875 0.09375 0.40625l0.0625 0.1875-0.1875-0.5625 0.125 0.375q0.125 0.375 0.5 0.5l0.375 0.125v0.5q0 0.5 0 1t0 1v0.5l-0.375 0.125q-0.375 0.125-0.5 0.5l-0.125 0.375 0.1875-0.5625-0.0625 0.1875q-0.0625 0.1875-0.09375 0.40625l-0.03125 0.21875 0.03125-0.21875-0.51562-0.015625q-0.51562-0.015625-1.0156-0.015625t-1.0156 0.015625l-0.51562 0.015625 0.03125 0.21875-0.03125-0.21875q-0.03125-0.21875-0.09375-0.40625l-0.0625-0.1875 0.1875 0.5625-0.125-0.375q-0.125-0.375-0.5-0.5l-0.375-0.125v-0.5q0-0.5 0-1t0-1v-0.5l0.375-0.125q0.375-0.125 0.375-0.375t-0.375-0.375-0.75 0-0.5 0.5-0.125 0.875v0.5l-0.375 0.125q-0.375 0.125-0.5 0.5t-0.125 0.875 0 1 0.125 0.875 0.51562 0.48438l0.39062 0.10938-0.03125-0.21875 0.03125 0.21875q0.03125 0.21875 0.09375 0.40625l0.0625 0.1875-0.1875-0.5625 0.125 0.375q0.125 0.375 0.51562 0.48438l0.39062 0.10938-0.03125-0.21875 0.03125 0.21875q0.03125 0.21875 0.09375 0.40625l0.0625 0.1875-0.1875-0.5625 0.125 0.375q0.125 0.375 0.51562 0.48438l0.39062 0.10938-0.03125-0.21875 0.03125 0.21875q0.03125 0.21875 0.09375 0.40625l0.0625 0.1875-0.1875-0.5625 0.125 0.375q0.125 0.375 0.5 0.5t0.89062 0.10938l0.51562-0.015625-0.03125-0.21875 0.03125 0.21875q0.03125 0.21875 0.09375 0.40625l0.0625 0.1875-0.1875-0.5625 0.125 0.375q0.125 0.375 0.5 0.5t0.875 0.125 1 0 1 0m-1.5-8.625v-0.625 0.25q0 0.25 0 0.5v0.25-0.375m0 2.75v-0.875 0.25q0 0.25 0 0.5v0.25-0.125m-2.5-0.125q0.5 0 0.875-0.125t0.5-0.5 0.125-0.875-0.125-0.875-0.5-0.5-0.875-0.125-0.875 0.125-0.5 0.5-0.125 0.875 0.125 0.875 0.5 0.5 0.875 0.125m-2.5-0.375v0.625-0.25q0-0.25 0-0.5v-0.25 0.375m0-2.75v0.875-0.25q0-0.25 0-0.5v-0.25 0.125m-1 1.25v-0.875 0.25q0 0.25 0 0.5v0.25-0.125"/>
  <path d="m12.125 0.375-0.125-0.375h5v5l-0.375-0.125q-0.375-0.125-0.5-0.5t-0.125-0.875-0.375-0.625-0.5-0.5-0.625-0.375-0.875-0.125-0.5-0.5-0.5-0.5-0.5-0.5" fill-opacity="0"/>
  <g>
   <path d="m5.125 1.625q0.125-0.375 0.5-0.5l0.375-0.125-0.5625 0.1875 0.1875-0.0625q0.1875-0.0625 0.40625-0.09375l0.21875-0.03125-0.21875 0.03125-0.015625 0.48438q-0.015625 0.48438-0.015625 0.98438v0.5h-1 0.75-0.25q-0.25 0-0.46875-0.03125l-0.21875-0.03125 0.21875 0.03125-0.015625-0.48438q-0.015625-0.48438 0.10938-0.85938m0.5 1.375h0.625-0.25q-0.25 0-0.5 0h-0.25 0.375" fill="#ffd700"/>
   <path d="m6.0156 1.5156 0.015625-0.48438-0.21875 0.03125 0.21875-0.03125q0.21875-0.03125 0.46875-0.03125h0.25-0.75 1v0.5q0 0.5 0 1v0.5-0.75 0.25q0 0.25 0.03125 0.46875l0.03125 0.21875-0.03125-0.21875-1.0312 0.03125v-0.5q0-0.5 0.015625-0.98438m-0.14062 1.4844h0.875-0.25q-0.25 0-0.5 0h-0.25 0.125m1.25-2h-0.875 0.25q0.25 0 0.5 0h0.25-0.125" fill="#f00"/>
   <path d="m7 1.5v-0.5h1v0.5q0 0.5 0 1t0 1v0.5l-0.375-0.125q-0.375-0.125-0.5-0.5t-0.125-0.875 0-1m1 2.625v-0.875 0.25q0 0.25 0 0.5v0.25-0.125m0.125-3.125h-0.875 0.25q0.25 0 0.5 0h0.25-0.125m-0.75 0h-0.625 0.25q0.25 0 0.5 0h0.25-0.375" fill="#ffd700"/>
   <path d="m8 1.5v-0.5h1v0.5q0 0.5 0 1t0 1 0 1 0 1 0 1 0 1 0 1 0 1 0 1 0 1 0 1v0.5h-1v-0.5q0-0.5 0-1t0-1 0-1 0-1 0-1 0-1 0-1 0-1 0-1 0-1 0-1m-0.125 11.5h0.875-0.25q-0.25 0-0.5 0h-0.25 0.125m0.75 0h0.625-0.25q-0.25 0-0.5 0h-0.25 0.375m0.5-12h-0.875 0.25q0.25 0 0.5 0h0.25-0.125m-0.75 0h-0.625 0.25q0.25 0 0.5 0h0.25-0.375" fill="#f00"/>
   <path d="m9 1.5v-0.5h0.5q0.5 0 1 0t0.875 0.125 0.5 0.53125l0.125 0.40625h0.1875-0.1875q-0.1875 0-0.375 0.0625l-0.1875 0.0625 0.5625-0.1875-0.375 0.125q-0.375 0.125-0.48438 0.51562l-0.10938 0.39062 0.21875-0.03125-0.21875 0.03125q-0.21875 0.03125-0.40625 0.09375l-0.1875 0.0625 0.5625-0.1875-0.375 0.125q-0.375 0.125-0.625 0.375t-0.625 0.375l-0.375 0.125v-0.5q0-0.5 0-1t0-1m0 2.125v0.625-0.25q0-0.25 0-0.5v-0.25 0.375m0.375-2.625h-0.625 0.25q0.25 0 0.5 0h0.25-0.375" fill="#ffd700"/>
   <path d="m4.25 2.5q0-0.25 0.39062-0.35938l0.39062-0.10938 0.03125-0.21875-0.03125 0.21875q-0.03125 0.21875-0.03125 0.46875v0.25-0.75l0.03125 0.96875 0.21875 0.03125-0.21875-0.03125q-0.21875-0.03125-0.40625-0.09375l-0.1875-0.0625 0.5625 0.1875-0.375-0.125q-0.375-0.125-0.375-0.375" fill="#f00"/>
   <path d="m11.141 2.6406q0.10938-0.39062 0.48438-0.51562t0.75 0 0.625 0.375 0.625 0.375l0.375 0.125 0.125 0.375q0.125 0.375 0.48438 0.51562l0.35938 0.14062-0.03125-0.21875 0.03125 0.21875q0.03125 0.21875 0.03125 0.46875v0.25-0.75 1l-1.0312 0.03125 0.03125 0.21875-0.03125-0.21875q-0.03125-0.21875-0.09375-0.40625l-0.0625-0.1875 0.1875 0.5625-0.125-0.375q-0.125-0.375-0.375-0.625t-0.5-0.5-0.625-0.375-0.875-0.125h-0.5 0.75-0.25q-0.25 0-0.46875 0.03125l-0.21875 0.03125 0.21875-0.03125 0.10938-0.39062m2.9531 0.39062-0.65625-0.21875 0.1875 0.0625q0.1875 0.0625 0.375 0.125l0.1875 0.0625-0.09375-0.03125" fill="#0000d7"/>
   <path d="m2.125 3.625q0.125-0.375 0.5-0.5l0.375-0.125-0.5625 0.1875 0.1875-0.0625q0.1875-0.0625 0.375-0.0625h0.1875-0.1875v0.46875q0 0.46875 0 0.96875t0 1 0 1 0 1 0 1 0 1v0.5-0.75 0.25q0 0.25 0.03125 0.46875l0.03125 0.21875-0.03125-0.21875-0.39062-0.10938q-0.39062-0.10938-0.51562-0.48438t-0.125-0.875 0-1 0-1 0-1 0-1 0.125-0.875" fill="#f00"/>
   <path d="m3 3.5312v-0.46875h-0.1875 0.1875q0.1875 0 0.375 0.0625l0.1875 0.0625-0.5625-0.1875 0.375 0.125q0.375 0.125 0.375 0.375t-0.375 0.375l-0.375 0.125v-0.46875m0 0.09375v0.625-0.25q0-0.25 0-0.5v-0.25 0.375" fill="#ffd700"/>
   <path d="m10 3.5q0.25-0.25 0.625-0.375t0.875-0.125 0.875 0.125 0.625 0.375 0.5 0.5 0.375 0.625 0.125 0.875 0 1v0.5l-0.375 0.125q-0.375 0.125-0.5 0.5l-0.125 0.375h-0.5q-0.5 0-1 0t-1.0156 0.015625l-0.51562 0.015625 0.03125 0.21875-0.03125-0.21875q-0.03125-0.21875-0.09375-0.40625l-0.0625-0.1875 0.1875 0.5625-0.125-0.375q-0.125-0.375-0.5-0.5l-0.375-0.125v-0.5q0-0.5 0-1t0-1v-0.5l0.375-0.125q0.375-0.125 0.625-0.375m-1 0.375v0.875-0.25q0-0.25 0-0.5v-0.25 0.125m0 2.75v0.625-0.25q0-0.25 0-0.5v-0.25 0.375m2.5 0.375q0.5 0 0.875-0.125t0.5-0.5 0.125-0.875-0.125-0.875-0.5-0.5-0.875-0.125-0.875 0.125-0.5 0.5-0.125 0.875 0.125 0.875 0.5 0.5 0.875 0.125m1.4688 1.0938 0.21875-0.65625-0.0625 0.1875q-0.0625 0.1875-0.125 0.375l-0.0625 0.1875 0.03125-0.09375"/>
   <path d="m14.125 3.375-0.125-0.375 0.375 0.125q0.375 0.125 0.5 0.5l0.125 0.375-0.1875-0.5625 0.0625 0.1875q0.0625 0.1875 0.09375 0.40625l0.03125 0.21875-0.03125-0.21875-0.35938-0.14062q-0.35938-0.14062-0.48438-0.51562m0.15625-0.28125-0.46875-0.15625 0.1875 0.0625q0.1875 0.0625 0.375 0.125l0.1875 0.0625-0.28125-0.09375" fill="#d70000"/>
   <path d="m4.125 4.625q0.125-0.375 0.5-0.5t0.875-0.125 0.875 0.125 0.5 0.5 0.125 0.875-0.125 0.875-0.5 0.5-0.875 0.125-0.875-0.125-0.5-0.5-0.125-0.875 0.125-0.875" fill="#fff"/>
   <path d="m10.125 4.625q0.125-0.375 0.5-0.5t0.875-0.125 0.875 0.125 0.5 0.5 0.125 0.875-0.125 0.875-0.5 0.5-0.875 0.125-0.875-0.125-0.5-0.5-0.125-0.875 0.125-0.875" fill="#fff"/>
   <path d="m1.125 5.625q0.125-0.375 0.5-0.5l0.375-0.125v0.5q0 0.5 0 1t0 1 0 1v0.5-0.75 0.25q0 0.25 0.03125 0.46875l0.03125 0.21875-0.03125-0.21875-0.39062-0.10938q-0.39062-0.10938-0.51562-0.48438t-0.125-0.875 0-1 0.125-0.875m0.875-0.25v-0.625 0.25q0 0.25 0 0.5v0.25-0.375" fill="#ffd700"/>
   <path d="m14 5.5v-0.5 0.75-0.25q0-0.25-0.03125-0.46875l-0.03125-0.21875 0.03125 0.21875 1.0312-0.03125-0.125 0.375q-0.125 0.375-0.5 0.5l-0.375 0.125v-0.5m0 0.125v0.625-0.25q0-0.25 0-0.5v-0.25 0.375" fill="#d70000"/>
  </g>
  <g fill="#ffd700">
   <path d="m14.875 5.375 0.125-0.375 0.375 0.125q0.375 0.125 0.5 0.5t0.125 0.875v0.5h-0.5q-0.5 0-1 0h-0.5v-1l0.375-0.125q0.375-0.125 0.5-0.5m-0.875 0.5v0.875-0.25q0-0.25 0-0.5v-0.25 0.125m2 1.25v-0.875 0.25q0 0.25 0 0.5v0.25-0.125"/>
   <path d="m3 7.5v-0.5l0.375 0.125q0.375 0.125 0.5 0.5t0.125 0.875 0 1 0 1v0.5-0.75 0.25q0 0.25 0.03125 0.46875l0.03125 0.21875-0.03125-0.21875-0.39062-0.10938q-0.39062-0.10938-0.51562-0.48438t-0.125-0.875 0-1 0-1m0-0.625v0.875-0.25q0-0.25 0-0.5v-0.25 0.125"/>
   <path d="m7.125 7.625q0.125-0.375 0.5-0.5l0.375-0.125v0.5q0 0.5 0 1t0 1 0 1 0 1 0 1v0.5h-1 0.75-0.25q-0.25 0-0.46875-0.03125l-0.21875-0.03125 0.21875 0.03125-0.015625-0.48438q-0.015625-0.48438-0.015625-0.98438t0-1 0-1 0-1 0.125-0.875m0.5 5.375h0.625-0.25q-0.25 0-0.5 0h-0.25 0.375m0.375-5.625v-0.625 0.25q0 0.25 0 0.5v0.25-0.375"/>
   <path d="m9 7.5v-0.5l0.375 0.125q0.375 0.125 0.5 0.5t0.125 0.875 0 1 0 1 0 1-0.015625 0.98438l-0.015625 0.48438 0.21875-0.03125-0.21875 0.03125q-0.21875 0.03125-0.46875 0.03125h-0.25 0.75-1v-0.5q0-0.5 0-1t0-1 0-1 0-1 0-1m-0.125 5.5h0.875-0.25q-0.25 0-0.5 0h-0.25 0.125m0.125-6.125v0.875-0.25q0-0.25 0-0.5v-0.25 0.125"/>
  </g>
  <g>
   <path d="m13.125 7.625q0.125-0.375 0.5-0.5l0.375-0.125v0.5q0 0.5 0.125 0.875t0.375 0.375 0.5-0.25 0.60938-0.39062l0.35938-0.14062 0.03125-0.21875-0.03125 0.21875q-0.03125 0.21875-0.09375 0.40625l-0.0625 0.1875 0.1875-0.5625-0.125 0.375q-0.125 0.375-0.375 0.625t-0.5 0.5-0.5 0.5-0.5 0.5-0.625 0.375l-0.375 0.125-0.125-0.375q-0.125-0.375-0.5-0.5t-0.75-0.25-0.5-0.5-0.125-0.875v-0.5h1l0.125 0.375q0.125 0.375 0.375 0.375t0.375-0.375 0.25-0.75m-1 0.375h-0.875 0.25q0.25 0 0.5 0h0.25-0.125m-0.75 0h-0.625 0.25q0.25 0 0.5 0h0.25-0.375" fill="#f00"/>
   <path d="m14 7.5v-0.5h0.5q0.5 0 1 0h0.5v1-0.75 0.25q0 0.25-0.03125 0.46875l-0.03125 0.21875 0.03125-0.21875-0.35938 0.14062q-0.35938 0.14062-0.60938 0.39062t-0.5 0.25-0.375-0.375-0.125-0.875m2-0.125v-0.625 0.25q0 0.25 0 0.5v0.25-0.375" fill="#fff"/>
   <path d="m4 8.5v-0.5 0.75-0.25q0-0.25-0.03125-0.46875l-0.03125-0.21875 0.03125 0.21875 1.0312-0.03125v0.5q0 0.5 0 1t0 1 0.015625 0.98438l0.015625 0.48438 0.21875 0.03125-0.21875-0.03125q-0.21875-0.03125-0.40625-0.09375l-0.1875-0.0625 0.5625 0.1875-0.375-0.125q-0.375-0.125-0.5-0.5t-0.125-0.875 0-1 0-1m1.125-0.5h-0.875 0.25q0.25 0 0.5 0h0.25-0.125" fill="#f00"/>
   <path d="m5 8.5v-0.5h1v0.5q0 0.5 0 1t0 1 0 1v0.5-0.75 0.25q0 0.25 0.03125 0.46875l0.03125 0.21875-0.03125-0.21875-1.0312 0.03125h0.75-0.25q-0.25 0-0.46875-0.03125l-0.21875-0.03125 0.21875 0.03125-0.015625-0.48438q-0.015625-0.48438-0.015625-0.98438t0-1 0-1m1.125-0.5h-0.875 0.25q0.25 0 0.5 0h0.25-0.125m-0.75 0h-0.625 0.25q0.25 0 0.5 0h0.25-0.375" fill="#ffd700"/>
   <path d="m6 8.5v-0.5l1.0312 0.03125 0.03125-0.21875-0.03125 0.21875q-0.03125 0.21875-0.03125 0.46875v0.25-0.75 0.5q0 0.5 0 1t0 1 0 1 0.015625 0.98438l0.015625 0.48438 0.21875 0.03125-0.21875-0.03125q-0.21875-0.03125-0.40625-0.09375l-0.1875-0.0625 0.5625 0.1875-0.375-0.125q-0.375-0.125-0.5-0.5t-0.125-0.875 0-1 0-1 0-1m0.375-0.5h-0.625 0.25q0.25 0 0.5 0h0.25-0.375" fill="#f00"/>
   <path d="m10 8.5v-0.5 0.75-0.25q0-0.25-0.03125-0.46875l-0.03125-0.21875 0.03125 0.21875 1.0312-0.03125v0.5q0 0.5 0.125 0.875t0.5 0.5 0.75 0.25 0.5 0.5l0.125 0.375h-0.5q-0.5 0-0.875 0.125t-0.5 0.5l-0.125 0.375h-1v-0.5q0-0.5 0-1t0-1 0-1m0 3.125v0.625-0.25q0-0.25 0-0.5v-0.25 0.375m1.125-3.625h-0.875 0.25q0.25 0 0.5 0h0.25-0.125" fill="#fff"/>
   <path d="m12.125 8.375-0.125-0.375h1l-0.125 0.375q-0.125 0.375-0.375 0.375t-0.375-0.375m0.78125-0.09375 0.15625-0.46875-0.0625 0.1875q-0.0625 0.1875-0.125 0.375l-0.0625 0.1875 0.09375-0.28125m-0.53125-0.28125h-0.625 0.25q0.25 0 0.5 0h0.25-0.375" fill="#fff"/>
  </g>
  <path d="m0 9.5v-0.5l0.375 0.125q0.375 0.125 0.5 0.5t0.125 0.875 0.5 0.5 0.5 0.5 0.5 0.5 0.875 0.125 0.5 0.5 0.625 0.375 0.5 0.5v0.5h-5v-4.5" fill-opacity="0"/>
  <path d="m16.125 9.625q0.125-0.375 0.5-0.5l0.375-0.125v5h-5v-0.5q0-0.5 0.5-0.5t0.625-0.375 0.5-0.5 0.875-0.125 0.5-0.5 0.5-0.5 0.5-0.5 0.125-0.875" fill-opacity="0"/>
  <path d="m11.125 11.625q0.125-0.375 0.5-0.5t0.875-0.125h0.5l-0.125 0.375q-0.125 0.375-0.5 0.5t-0.875 0.125h-0.5l0.125-0.375" fill="#00d700"/>
  <path d="m9.9844 12.484 0.015625-0.48438h1l-0.125 0.375q-0.125 0.375-0.5 0.5l-0.375 0.125 0.5625-0.1875-0.1875 0.0625q-0.1875 0.0625-0.40625 0.09375l-0.21875 0.03125 0.21875-0.03125 0.015625-0.48438m0.015625-0.60938v0.875-0.25q0-0.25 0-0.5v-0.25 0.125" fill="#0000d7"/>
 </g>
</svg>
