<svg width="17" height="14" version="1.1" viewBox="0 0 17 14" xmlns="http://www.w3.org/2000/svg">
 <g transform="translate(0)">
  <path d="m0 0.5v-0.5h5l-0.125 0.375q-0.125 0.375-0.5 0.5t-0.5 0.5-0.5 0.5-0.875 0.125-0.625 0.375-0.5 0.5-0.375 0.625-0.125 0.875-0.5 0.5l-0.375 0.125v-4.5" fill-opacity="0"/>
  <path d="m4.875 0.375 0.125-0.375h7l0.125 0.375q0.125 0.375 0.5 0.5t0.5 0.5 0.5 0.5 0.875 0.125 0.625 0.375 0.5 0.5 0.375 0.625 0.125 0.875 0.5 0.5l0.375 0.125v4l-0.375 0.125q-0.375 0.125-0.5 0.5t-0.125 0.875-0.5 0.5-0.5 0.5-0.5 0.5-0.875 0.125-0.5 0.5-0.625 0.375-0.5 0.5v0.5h-7v-0.5q0-0.5-0.5-0.5t-0.625-0.375-0.5-0.5-0.875-0.125-0.5-0.5-0.5-0.5-0.5-0.5-0.125-0.875-0.5-0.5l-0.375-0.125v-4l0.375-0.125q0.375-0.125 0.5-0.5t0.125-0.875 0.375-0.625 0.5-0.5 0.625-0.375 0.875-0.125 0.5-0.5 0.5-0.5 0.5-0.5m4.5625 12.562q0.5625 0.0625 0.9375-0.0625t0.625-0.375 0.6875-0.4375l0.4375-0.1875-0.125-0.125 0.125 0.125q0.125 0.125 0.375 0.125h0.25-0.75l0.375-0.125q0.375-0.125 0.5-0.5l0.125-0.375 0.375-0.125q0.375-0.125 0.5625-0.5625l0.1875-0.4375-0.125-0.125 0.125 0.125q0.125 0.125 0.375 0.125h0.25-0.75l0.375-0.125q0.375-0.125 0.5-0.5l0.125-0.375 0.375-0.125q0.375-0.125 0.5-0.5t0.0625-0.9375l-0.0625-0.5625-0.125 0.125 0.125-0.125q0.125-0.125 0.125-0.375v-0.25 0.75-0.5q0-0.5-0.125-0.875t-0.375-0.625-0.375-0.625l-0.125-0.375 0.1875 0.5625-0.0625-0.1875q-0.0625-0.1875-0.21875-0.28125l-0.15625-0.09375 0.15625 0.09375-0.078125-0.42188q-0.078125-0.42188-0.45312-0.54688t-0.75 0-0.375 0.375 0.375 0.375l0.375 0.125v0.5q0 0.5 0 1t0 1v0.5-0.75 0.25q0 0.25 0.125 0.375l0.125 0.125-0.125-0.125-0.4375 0.1875q-0.4375 0.1875-0.6875 0.4375t-0.625 0.375-0.9375 0.1875l-0.5625 0.0625 0.125 0.125-0.125-0.125q-0.125-0.125-0.375-0.125h-0.25 0.75-1 0.75-0.25q-0.25 0-0.375 0.125l-0.125 0.125 0.125-0.125-0.1875-0.4375q-0.1875-0.4375-0.5625-0.5625l-0.375-0.125v-0.5q0-0.5 0-1t0-1v-0.5l0.375-0.125q0.375-0.125 0.625-0.375t0.625-0.375 0.875-0.125 0.875-0.125 0.375-0.375-0.25-0.5-0.5-0.5-0.625-0.375-0.875-0.125-1 0-1 0h-0.5 0.75-0.25q-0.25 0-0.375 0.125l-0.125 0.125 0.125-0.125-0.5625-0.0625q-0.5625-0.0625-1.0625-0.0625t-0.875 0.125-0.625 0.375-0.5 0.5-0.5 0.5-0.6875 0.4375l-0.4375 0.1875 0.125 0.125-0.125-0.125q-0.125-0.125-0.375-0.125h-0.25 0.75l-0.375 0.125q-0.375 0.125-0.5 0.5l-0.125 0.375v-0.75 0.25q0 0.25 0.125 0.375l0.125 0.125-0.125-0.125-0.1875 0.4375q-0.1875 0.4375-0.4375 0.6875t-0.375 0.625-0.0625 0.9375l0.0625 0.5625 0.125-0.125-0.125 0.125q-0.125 0.125-0.125 0.375v0.25-0.75 0.5q0 0.5 0.125 0.875t0.5 0.5l0.375 0.125 0.125 0.375q0.125 0.375 0.5 0.5l0.375 0.125 0.125 0.375q0.125 0.375 0.5 0.5l0.375 0.125 0.125 0.375q0.125 0.375 0.5 0.5t0.89062 0.10938l0.51562-0.015625-0.03125-0.21875 0.03125 0.21875q0.03125 0.21875 0.09375 0.40625l0.0625 0.1875-0.1875-0.5625 0.125 0.375q0.125 0.375 0.5 0.5t0.875 0.125 1 0h0.5-0.75 0.25q0.25 0 0.375-0.125l0.125-0.125-0.125 0.125 0.5625 0.0625m2.0625-5.9375q0.5 0 0.875-0.125t0.5-0.5 0.125-0.875-0.125-0.875-0.5-0.5-0.875-0.125-0.875 0.125-0.5 0.5-0.125 0.875 0.125 0.875 0.5 0.5 0.875 0.125m-2.5-0.375v0.625-0.25q0-0.25 0-0.5v-0.25 0.375m0-2.75v0.875-0.25q0-0.25 0-0.5v-0.25 0.125"/>
  <path d="m12.125 0.375-0.125-0.375h5v5l-0.375-0.125q-0.375-0.125-0.5-0.5t-0.125-0.875-0.375-0.625-0.5-0.5-0.625-0.375-0.875-0.125-0.5-0.5-0.5-0.5-0.5-0.5" fill-opacity="0"/>
  <g>
   <path d="m5 1.5q0.25-0.25 0.625-0.375t0.875-0.125 1.0625 0.0625l0.5625 0.0625 0.125-0.125-0.125 0.125q-0.125 0.125-0.125 0.375v0.25-0.75 0.5q0 0.5 0 1t0 1v0.5l-0.375-0.125q-0.375-0.125-0.5625-0.5625l-0.1875-0.4375-0.125 0.125 0.125-0.125q0.125-0.125 0.125-0.375v-0.25 0.75l-0.125-0.375q-0.125-0.375-0.375-0.375t-0.375 0.375l-0.125 0.375v-0.75 0.25q0 0.25 0.125 0.375l0.125 0.125-0.125-0.125-0.5625 0.0625q-0.5625 0.0625-0.9375 0.1875t-0.625 0.375-0.5 0.5-0.375 0.625-0.125 0.875-0.015625 1.0156l-0.015625 0.51562 0.21875 0.03125-0.21875-0.03125q-0.21875-0.03125-0.46875-0.03125h-0.25 0.75-0.5q-0.5 0-1 0h-0.5 0.75-0.25q-0.25 0-0.375 0.125l-0.125 0.125 0.125-0.125-0.0625-0.5625q-0.0625-0.5625 0.0625-0.9375t0.375-0.625 0.4375-0.6875l0.1875-0.4375-0.125-0.125 0.125 0.125q0.125 0.125 0.375 0.125h0.25-0.75l0.375-0.125q0.375-0.125 0.5-0.5l0.125-0.375v0.75-0.25q0-0.25-0.125-0.375l-0.125-0.125 0.125 0.125 0.4375-0.1875q0.4375-0.1875 0.6875-0.4375t0.5-0.5 0.5-0.5m3 2.625v-0.875 0.25q0 0.25 0 0.5v0.25-0.125" fill="#009"/>
   <path d="m8 1.5q0-0.5 0.5-0.5t1 0 1 0 0.875 0.125 0.625 0.375 0.5 0.5 0.25 0.5-0.375 0.375-0.875 0.125h-0.5 0.75-0.25q-0.25 0-0.46875 0.03125l-0.21875 0.03125 0.21875-0.03125-0.14062-0.39062q-0.14062-0.39062-0.51562-0.51562t-0.75 0-0.5 0.5-0.125 0.875 0 1 0 1 0 1 0 1 0 1 0 1 0 1 0 1 0 1-0.5 0.5-1 0-0.875-0.125-0.5-0.5-0.125-0.875 0.125-0.875 0.5-0.5 0.75-0.25 0.5-0.5 0-0.75-0.5-0.5l-0.375-0.125 0.125-0.375q0.125-0.375 0.375-0.625t0.375-0.625 0.125-0.875 0-1 0-1 0-1 0-1" fill="#fff"/>
   <path d="m6.125 2.625q0.125-0.375 0.375-0.375t0.375 0.375-0.375 0.375-0.375-0.375" fill="#ffd700"/>
   <path d="m9.125 2.625q0.125-0.375 0.5-0.5l0.375-0.125-0.5625 0.1875 0.1875-0.0625q0.1875-0.0625 0.375-0.0625h0.1875-0.1875l-0.125 0.34375q-0.125 0.34375-0.48438 0.48438l-0.35938 0.14062-0.03125 0.21875 0.03125-0.21875q0.03125-0.21875 0.09375-0.40625l0.0625-0.1875-0.1875 0.5625 0.125-0.375" fill="#c43030"/>
   <path d="m9.875 2.4062 0.125-0.34375h-0.1875 0.1875q0.1875 0 0.375 0.0625l0.1875 0.0625-0.5625-0.1875 0.375 0.125q0.375 0.125 0.51562 0.51562l0.14062 0.39062 0.21875-0.03125-0.21875 0.03125q-0.21875 0.03125-0.40625 0.09375l-0.1875 0.0625 0.5625-0.1875-0.375 0.125q-0.375 0.125-0.625 0.375t-0.625 0.375l-0.375 0.125v-1 0.75-0.25q0-0.25 0.03125-0.46875l0.03125-0.21875-0.03125 0.21875 0.35938-0.14062q0.35938-0.14062 0.48438-0.48438m-0.875 1.2188v0.625-0.25q0-0.25 0-0.5v-0.25 0.375" fill="#f00"/>
   <path d="m2.125 3.625q0.125-0.375 0.5-0.5t0.25 0.25-0.5 0.5-0.25-0.25" fill="#a18706"/>
   <path d="m4 3.5q0.25-0.25 0.625-0.375t0.9375-0.1875l0.5625-0.0625-0.125-0.125 0.125 0.125q0.125 0.125 0.375 0.125h0.25-0.75 1-0.75 0.25q0.25 0 0.375-0.125l0.125-0.125-0.125 0.125 0.1875 0.4375q0.1875 0.4375 0.5625 0.5625l0.375 0.125v0.5q0 0.5 0 1t-0.125 0.875-0.375 0.625-0.375 0.625l-0.125 0.375-1.125 0.125 0.125 0.125-0.125-0.125q-0.125-0.125-0.375-0.125h-0.25 0.75-0.5q-0.5 0-0.875-0.125t-0.625-0.375-0.625-0.375l-0.375-0.125 0.5625 0.1875-0.1875-0.0625q-0.1875-0.0625-0.40625-0.09375l-0.21875-0.03125 0.21875 0.03125 0.015625-0.51562q0.015625-0.51562 0.015625-1.0156t0.125-0.875 0.375-0.625 0.5-0.5m1.5 3.5q0.5 0 0.875-0.125t0.5-0.5 0.125-0.875-0.125-0.875-0.5-0.5-0.875-0.125-0.875 0.125-0.5 0.5-0.125 0.875 0.125 0.875 0.5 0.5 0.875 0.125m2.5-2.625v-0.625 0.25q0 0.25 0 0.5v0.25-0.375"/>
   <path d="m13.25 3.5q0-0.25 0.375-0.375l0.375-0.125-0.5625 0.1875 0.1875-0.0625q0.1875-0.0625 0.375-0.0625h0.1875-0.1875v0.9375l-0.375-0.125q-0.375-0.125-0.375-0.375" fill="#f00"/>
   <path d="m14 3.5312v-0.46875h-0.1875 0.1875q0.1875 0 0.375 0.0625l0.1875 0.0625-0.5625-0.1875 0.375 0.125q0.375 0.125 0.45312 0.54688l0.078125 0.42188 0.15625 0.09375-0.15625-0.09375q-0.15625-0.09375-0.40625-0.09375h-0.25 0.75-1v-0.46875" fill="#c43030"/>
  </g>
  <g fill="#fff">
   <path d="m4.125 4.625q0.125-0.375 0.5-0.5t0.875-0.125 0.875 0.125 0.5 0.5 0.125 0.875-0.125 0.875-0.5 0.5-0.875 0.125-0.875-0.125-0.5-0.5-0.125-0.875 0.125-0.875"/>
   <path d="m10.125 4.625q0.125-0.375 0.5-0.5t0.875-0.125 0.875 0.125 0.5 0.5 0.125 0.875-0.125 0.875-0.5 0.5-0.875 0.125-0.875-0.125-0.5-0.5-0.125-0.875 0.125-0.875"/>
   <path d="m14 4.5v-0.5h0.5q0.5 0 0.625 0.375t0.375 0.625 0.375 0.625 0.125 0.875-0.5 0.5-1 0-0.5-0.5 0-1 0-1"/>
   <path d="m1 7.5q0-0.5 0.5-0.5t1 0 0.875 0.125 0.625 0.375 0.625 0.375 0.875 0.125 0.5 0.5-0.125 0.875-0.5 0.5-0.75 0-0.5-0.5-0.25-0.75-0.5-0.5-0.75 0-0.5 0.5l-0.125 0.375-0.375-0.125q-0.375-0.125-0.5-0.5t-0.125-0.875"/>
  </g>
  <g>
   <path d="m9 7.5v-0.5l0.375 0.125q0.375 0.125 0.5625 0.5625l0.1875 0.4375 0.125-0.125-0.125 0.125q-0.125 0.125-0.125 0.375v0.25-0.75 0.5q0 0.5 0.125 0.875t0.375 0.375 0.375-0.375 0.125-0.875v-0.5 0.75-0.25q0-0.25-0.125-0.375l-0.125-0.125 0.125 0.125 0.5625-0.0625q0.5625-0.0625 0.9375-0.1875t0.625-0.375 0.6875-0.4375l0.4375-0.1875-0.125-0.125 0.125 0.125q0.125 0.125 0.375 0.125h0.25-0.75 0.5q0.5 0 1 0h0.5-0.75 0.25q0.25 0 0.375-0.125l0.125-0.125-0.125 0.125 0.0625 0.5625q0.0625 0.5625-0.0625 0.9375t-0.5 0.5l-0.375 0.125-0.125-0.375q-0.125-0.375-0.375-0.375t-0.375 0.375-0.125 0.875v0.5-0.75 0.25q0 0.25 0.125 0.375l0.125 0.125-0.125-0.125-0.1875 0.4375q-0.1875 0.4375-0.5625 0.5625l-0.375 0.125-0.125-0.375q-0.125-0.375-0.375-0.375t-0.375 0.375-0.125 0.875v0.5-0.75 0.25q0 0.25 0.125 0.375l0.125 0.125-0.125-0.125-0.4375 0.1875q-0.4375 0.1875-0.6875 0.4375t-0.625 0.375-0.9375 0.0625l-0.5625-0.0625-0.125 0.125 0.125-0.125q0.125-0.125 0.125-0.375v-0.25 0.75-0.5q0-0.5 0-1t0-1 0-1 0-1 0-1m0-0.625v0.875-0.25q0-0.25 0-0.5v-0.25 0.125" fill="#009"/>
   <path d="m2.125 8.625q0.125-0.375 0.5-0.5l0.375-0.125-0.5625 0.1875 0.1875-0.0625q0.1875-0.0625 0.375-0.0625h0.1875-0.1875l0.125 0.34375q0.125 0.34375 0.5 0.46875l0.375 0.125 0.125 0.375q0.125 0.375 0.5 0.5l0.375 0.125-0.5625-0.1875 0.1875 0.0625q0.1875 0.0625 0.375 0.0625h0.1875-0.1875v1.0625h-1l-0.125-0.375q-0.125-0.375-0.5-0.5l-0.375-0.125-0.125-0.375q-0.125-0.375-0.5-0.5l-0.375-0.125 0.125-0.375m1.9688 0.65625-0.15625-0.46875 0.0625 0.1875q0.0625 0.1875 0.125 0.375l0.0625 0.1875-0.09375-0.28125" fill="#c43030"/>
   <path d="m3.125 8.4062-0.125-0.34375h-0.1875 0.1875q0.1875 0 0.375 0.0625l0.1875 0.0625-0.5625-0.1875 0.375 0.125q0.375 0.125 0.5 0.5l0.125 0.375-0.375-0.125q-0.375-0.125-0.5-0.46875m0.90625 0.6875-0.21875-0.65625 0.0625 0.1875q0.0625 0.1875 0.125 0.375l0.0625 0.1875-0.03125-0.09375" fill="#f00"/>
   <path d="m6 8.5v-0.5 0.75-0.25q0-0.25-0.125-0.375l-0.125-0.125 0.125 0.125 1.125-0.125-0.125 0.375q-0.125 0.375-0.51562 0.48438l-0.39062 0.10938-0.03125 0.21875 0.03125-0.21875q0.03125-0.21875 0.03125-0.46875v-0.25 0.75-0.5" fill="#c43030"/>
   <path d="m6.875 8.375 0.125-0.375 0.375 0.125q0.375 0.125 0.5 0.5l0.125 0.375-0.1875-0.5625 0.0625 0.1875q0.0625 0.1875 0.0625 0.375v0.1875-0.1875l-0.34375 0.125q-0.34375 0.125-0.46875 0.5l-0.125 0.375-0.375 0.125q-0.375 0.125-0.5 0.5l-0.125 0.375 0.1875-0.5625-0.0625 0.1875q-0.0625 0.1875-0.09375 0.40625l-0.03125 0.21875 0.03125-0.21875-1.0312-0.03125v-1.0625h-0.1875 0.1875q0.1875 0 0.375-0.0625l0.1875-0.0625-0.5625 0.1875 0.375-0.125q0.375-0.125 0.5-0.5l0.125-0.375-0.1875 0.5625 0.0625-0.1875q0.0625-0.1875 0.09375-0.40625l0.03125-0.21875-0.03125 0.21875 0.39062-0.10938q0.39062-0.10938 0.51562-0.48438m-0.15625 1.7188 0.46875-0.15625-0.1875 0.0625q-0.1875 0.0625-0.375 0.125l-0.1875 0.0625 0.28125-0.09375" fill="#f00"/>
   <path d="m10 8.5q0-0.5 0.5-0.5t0.5 0.5v0.5-0.75 0.25q0 0.25-0.03125 0.46875l-0.03125 0.21875 0.03125-0.21875h-0.9375l0.03125 0.21875-0.03125-0.21875q-0.03125-0.21875-0.03125-0.46875v-0.25 0.75-0.5" fill="#ffd700"/>
   <path d="m14.125 8.625q0.125-0.375 0.375-0.375t0.375 0.375l0.125 0.375-0.96875 0.03125-0.03125 0.21875 0.03125-0.21875q0.03125-0.21875 0.09375-0.40625l0.0625-0.1875-0.1875 0.5625 0.125-0.375" fill="#ffd700"/>
  </g>
  <path d="m0 9.5v-0.5l0.375 0.125q0.375 0.125 0.5 0.5t0.125 0.875 0.5 0.5 0.5 0.5 0.5 0.5 0.875 0.125 0.5 0.5 0.625 0.375 0.5 0.5v0.5h-5v-4.5" fill-opacity="0"/>
  <g>
   <path d="M 2.125,9.375 2,9 2.375,9.125 q 0.375,0.125 0.5,0.5 L 3,10 2.625,9.875 Q 2.25,9.75 2.125,9.375" fill="#f00"/>
   <path d="m7.125 9.625q0.125-0.375 0.46875-0.5l0.34375-0.125v-0.1875 0.1875q0 0.1875-0.0625 0.375l-0.0625 0.1875 0.1875-0.5625-0.125 0.375q-0.125 0.375-0.5 0.5l-0.375 0.125 0.125-0.375m-0.21875 0.40625 0.65625-0.21875-0.1875 0.0625q-0.1875 0.0625-0.375 0.125l-0.1875 0.0625 0.09375-0.03125" fill="#c43030"/>
   <path d="m10.125 9.375-0.125-0.375 0.1875 0.5625-0.0625-0.1875q-0.0625-0.1875-0.09375-0.40625l-0.03125-0.21875 0.03125 0.21875h0.9375l0.03125-0.21875-0.03125 0.21875q-0.03125 0.21875-0.09375 0.40625l-0.0625 0.1875 0.1875-0.5625-0.125 0.375q-0.125 0.375-0.375 0.375t-0.375-0.375" fill="#a18706"/>
   <path d="m14 9.5v-0.5 0.75-0.25q0-0.25 0.03125-0.46875l0.03125-0.21875-0.03125 0.21875 0.96875-0.03125-0.125 0.375q-0.125 0.375-0.5 0.5t-0.375-0.375" fill="#a18706"/>
  </g>
  <path d="m16.125 9.625q0.125-0.375 0.5-0.5l0.375-0.125v5h-5v-0.5q0-0.5 0.5-0.5t0.625-0.375 0.5-0.5 0.875-0.125 0.5-0.5 0.5-0.5 0.5-0.5 0.125-0.875" fill-opacity="0"/>
  <g>
   <path d="M 3.125,10.375 3,10 3.375,10.125 q 0.375,0.125 0.5,0.5 L 4,11 3.625,10.875 q -0.375,-0.125 -0.5,-0.5" fill="#fff"/>
   <path d="m12.125 10.625q0.125-0.375 0.375-0.375t0.375 0.375l0.125 0.375-0.96875 0.03125-0.03125 0.21875 0.03125-0.21875q0.03125-0.21875 0.09375-0.40625l0.0625-0.1875-0.1875 0.5625 0.125-0.375" fill="#ffd700"/>
   <path d="m4.125 11.375-0.125-0.375h1l0.03125 0.96875 0.21875 0.03125-0.21875-0.03125q-0.21875-0.03125-0.40625-0.09375l-0.1875-0.0625 0.5625 0.1875-0.375-0.125q-0.375-0.125-0.5-0.5" fill="#f00"/>
   <path d="m5.0156 11.484-0.015625-0.48438 1.0312 0.03125 0.03125-0.21875-0.03125 0.21875q-0.03125 0.21875-0.03125 0.46875v0.25-0.75 1-0.75 0.25q0 0.25 0.03125 0.46875l0.03125 0.21875-0.03125-0.21875-1.0312 0.03125h0.75-0.25q-0.25 0-0.46875-0.03125l-0.21875-0.03125 0.21875 0.03125-0.015625-0.48438" fill="#c43030"/>
   <path d="m12 11.5v-0.5 0.75-0.25q0-0.25 0.03125-0.46875l0.03125-0.21875-0.03126 0.21875 0.48438-0.01563 0.48438-0.01562-0.125 0.375q-0.125 0.375-0.5 0.5t-0.375-0.375" fill="#a18706"/>
  </g>
 </g>
</svg>
