<svg width="17" height="14" version="1.1" viewBox="0 0 17 14" xmlns="http://www.w3.org/2000/svg">
 <g transform="translate(0)">
  <path d="m0 0.5v-0.5h5l-0.125 0.375q-0.125 0.375-0.5 0.5t-0.5 0.5-0.5 0.5-0.875 0.125-0.625 0.375-0.5 0.5-0.375 0.625-0.125 0.875-0.5 0.5l-0.375 0.125v-4.5" fill-opacity="0"/>
  <path d="m4.875 0.375 0.125-0.375h7l0.125 0.375q0.125 0.375 0.5 0.5t0.5 0.5 0.5 0.5 0.875 0.125 0.625 0.375 0.5 0.5 0.375 0.625 0.125 0.875 0.5 0.5l0.375 0.125v4h-0.5q-0.5 0-0.5 0.5t0 1-0.5 0.5-0.5 0.5-0.5 0.5-1 0-0.5 0.5-0.5 0.5-0.5 0.5v0.5h-7v-0.5q0-0.5-0.5-0.5t-0.5-0.5-0.5-0.5-1 0-0.5-0.5-0.5-0.5-0.5-0.5 0-1-0.5-0.5h-0.5v-4l0.375-0.125q0.375-0.125 0.5-0.5t0.125-0.875 0.375-0.625 0.5-0.5 0.625-0.375 0.875-0.125 0.5-0.5 0.5-0.5 0.5-0.5m4.25 12q0.125 0.375 0.375 0.375t0.5-0.25 0.625-0.375 0.75-0.25 0.625-0.375 0.5-0.5 0.375-0.625 0.125-0.875-0.125-0.875-0.375-0.375-0.375 0.375-0.25 0.75-0.375 0.625-0.5 0.5-0.625 0.375-0.75 0-0.625-0.375-0.5-0.5-0.5-0.5-0.5-0.5-0.25-0.5 0.25-0.25 0.5 0.25 0.5 0.25 0.5-0.25 0.5-0.5 0.25-0.5-0.25-0.5-0.375-0.625l-0.125-0.375 0.1875 0.5625-0.0625-0.1875q-0.0625-0.1875-0.21875-0.28125l-0.15625-0.09375 0.15625 0.09375 0.046875-0.54688q0.046875-0.54688 0.046875-1.0781v-0.53125h-0.1875 0.1875q0.1875 0 0.375-0.0625l0.1875-0.0625-0.5625 0.1875 0.375-0.125q0.375-0.125 0.5-0.5l0.125-0.375v0.75-0.25q0-0.25-0.125-0.375l-0.125-0.125 0.125 0.125 0.5625-0.0625q0.5625-0.0625 1.0625-0.0625t0.875 0.125 0.625 0.375 0.5 0.5 0.375 0.625 0.125 0.875 0.125 0.875 0.5 0.5 0.75 0 0.5-0.5 0-0.75-0.375-0.625-0.375-0.625-0.25-0.75-0.5-0.5-0.75-0.25-0.625-0.375-0.5-0.5-0.5-0.5-0.625-0.375-0.875-0.125-1 0-1 0-1 0-1 0-0.875 0.125-0.625 0.375-0.5 0.5-0.5 0.5-0.625 0.375-0.75 0.25-0.5 0.5-0.25 0.75-0.375 0.625-0.375 0.625 0 0.75 0.5 0.5 0.75 0 0.5-0.5 0.125-0.875 0.125-0.875 0.375-0.625 0.5-0.5 0.625-0.375 0.875-0.125 0.875 0.125 0.625 0.375 0.5 0.5 0.375 0.625 0.17188 0.92188l0.046875 0.54688 0.15625-0.09375-0.15625 0.09375q-0.15625 0.09375-0.21875 0.28125l-0.0625 0.1875 0.1875-0.5625-0.125 0.375q-0.125 0.375-0.375 0.625t-0.5 0.5-0.5 0.5-0.375 0.625 0 0.75 0.375 0.625 0.375 0.625-0.25 0.25-0.625-0.375-0.625-0.375-0.75 0-0.375 0.375 0.25 0.5 0.5 0.5 0.625 0.375 0.875 0.125 1 0 1 0 0.625 0.375m2.375-5.375q0.5 0 0.875-0.125t0.5-0.5 0.125-0.875-0.125-0.875-0.5-0.5-0.875-0.125-0.875 0.125-0.5 0.5-0.125 0.875 0.125 0.875 0.5 0.5 0.875 0.125m-6 0q0.5 0 0.875-0.125t0.5-0.5 0.125-0.875-0.125-0.875-0.5-0.5-0.875-0.125-0.875 0.125-0.5 0.5-0.125 0.875 0.125 0.875 0.5 0.5 0.875 0.125"/>
  <path d="m12.125 0.375-0.125-0.375h5v5l-0.375-0.125q-0.375-0.125-0.5-0.5t-0.125-0.875-0.375-0.625-0.5-0.5-0.625-0.375-0.875-0.125-0.5-0.5-0.5-0.5-0.5-0.5" fill-opacity="0"/>
  <g>
   <path d="m5 1.5q0.25-0.25 0.625-0.375t0.875-0.125 1 0 1 0 1 0 1 0 0.875 0.125 0.625 0.375 0.5 0.5 0.5 0.5 0.625 0.375 0.75 0.25 0.5 0.5 0.25 0.75 0.375 0.625 0.375 0.625 0 0.75-0.5 0.5-0.75 0-0.5-0.5-0.125-0.875-0.125-0.875-0.375-0.625-0.5-0.5-0.625-0.375-0.875-0.125-1.0625 0.0625l-0.5625 0.0625 0.125 0.125-0.125-0.125q-0.125-0.125-0.375-0.125h-0.25 0.75-0.5q-0.5 0-0.875 0.125t-0.375 0.375 0.375 0.375l0.375 0.125-0.5625-0.1875 0.1875 0.0625q0.1875 0.0625 0.375 0.0625h0.1875-0.1875v0.53125q0 0.53125-0.046875 1.0781l-0.046875 0.54688 0.15625 0.09375-0.15625-0.09375q-0.15625-0.09375-0.40625-0.09375h-0.25 0.75-1 0.75-0.25q-0.25 0-0.40625 0.09375l-0.15625 0.09375 0.15625-0.09375-0.046875-0.54688q-0.046875-0.54688-0.17188-0.92188t-0.375-0.625-0.5-0.5-0.625-0.375-0.875-0.125-0.875 0.125-0.625 0.375-0.5 0.5-0.375 0.625-0.125 0.875-0.125 0.875-0.5 0.5-0.75 0-0.5-0.5 0-0.75 0.375-0.625 0.375-0.625 0.25-0.75 0.5-0.5 0.75-0.25 0.625-0.375 0.5-0.5 0.5-0.5" fill="#ce1126"/>
   <path d="m8.25 3.5q0-0.25 0.375-0.375t0.875-0.125 0.375 0.375-0.5 0.5-0.75 0-0.375-0.375" fill="#f9d616"/>
   <path d="m4.125 4.625q0.125-0.375 0.5-0.5t0.875-0.125 0.875 0.125 0.5 0.5 0.125 0.875-0.125 0.875-0.5 0.5-0.875 0.125-0.875-0.125-0.5-0.5-0.125-0.875 0.125-0.875" fill="#fff"/>
   <path d="m10.125 4.625q0.125-0.375 0.5-0.5t0.875-0.125 0.875 0.125 0.5 0.5 0.125 0.875-0.125 0.875-0.5 0.5-0.875 0.125-0.875-0.125-0.5-0.5-0.125-0.875 0.125-0.875" fill="#fff"/>
   <path d="m7.875 6.375q0.125-0.375 0.625-0.375t0.625 0.375 0.375 0.625 0.25 0.5-0.25 0.5-0.5 0.5-0.5 0.25-0.5-0.25-0.5-0.25-0.25 0.25 0.25 0.5 0.5 0.5 0.5 0.5 0.5 0.5 0.625 0.375 0.75 0 0.625-0.375 0.5-0.5 0.375-0.625 0.25-0.75 0.375-0.375 0.375 0.375 0.125 0.875v0.5-0.75 0.25q0 0.25-0.03125 0.46875l-0.03125 0.21875 0.03126-0.21875-0.35938 0.14062q-0.35938 0.14062-0.60938 0.39062t-0.5 0.5-0.375 0.625l-0.125 0.375-0.375 0.125q-0.375 0.125-0.625 0.375t-0.5 0.25-0.375-0.375l-0.125-0.375 0.1875 0.5625-0.0625-0.1875q-0.0625-0.1875-0.21875-0.28125l-0.15625-0.09375 0.15625 0.09375-0.078125-0.42188q-0.078125-0.42188-0.32812-0.42188t-0.375 0.375l-0.125 0.375h-0.5q-0.5 0-1 0h-0.5 0.75-0.25q-0.25 0-0.46875-0.03125l-0.21875-0.03125 0.21875 0.03125-0.14062-0.35938q-0.14062-0.35938-0.39062-0.60938t-0.375-0.59375l-0.125-0.34375h-0.1875 0.1875q0.1875 0 0.375 0.0625l0.1875 0.0625-0.5625-0.1875 0.375 0.125q0.375 0.125 0.625 0.375t0.625 0.375l0.375 0.125h-0.75 0.25q0.25 0 0.375-0.125l0.125-0.125-0.125 0.125 0.4375-0.0625q0.4375-0.0625 0.4375-0.3125t-0.25-0.5-0.5-0.5-0.59375-0.375l-0.34375-0.125v0.1875-0.1875q0-0.1875 0.0625-0.375l0.0625-0.1875-0.1875 0.5625 0.125-0.375q0.125-0.375 0.375-0.625t0.5-0.5 0.5-0.5 0.375-0.625m-0.25 5.625h0.625-0.25q-0.25 0-0.5 0h-0.25 0.375m3.0938 0.09375 0.46875-0.15625-0.1875 0.0625q-0.1875 0.0625-0.375 0.125l-0.1875 0.0625 0.28125-0.09375" fill="#f9d616"/>
  </g>
  <path d="m0 9.5v-0.5h0.5q0.5 0 0.5 0.5t0 1 0.5 0.5 0.5 0.5 0.5 0.5 1 0 0.5 0.5 0.5 0.5 0.5 0.5v0.5h-5v-4.5" fill-opacity="0"/>
  <path d="m6.125 9.375-0.125-0.375 0.1875 0.5625-0.0625-0.1875q-0.0625-0.1875-0.0625-0.375v-0.1875 0.1875l0.34375 0.125q0.34375 0.125 0.59375 0.375t0.5 0.5 0.25 0.5-0.4375 0.3125l-0.4375 0.0625-0.125 0.125 0.125-0.125q0.125-0.125 0.125-0.375v-0.25 0.75l-0.125-0.375q-0.125-0.375-0.375-0.625t-0.375-0.625" fill="#c5aa11"/>
  <path d="m16 9.5q0-0.5 0.5-0.5h0.5v5h-5v-0.5q0-0.5 0.5-0.5t0.5-0.5 0.5-0.5 1 0 0.5-0.5 0.5-0.5 0.5-0.5 0-1" fill-opacity="0"/>
  <g fill="#c5aa11">
   <path d="m4.25 10.5q0-0.25 0.375-0.375l0.375-0.125-0.5625 0.1875 0.1875-0.0625q0.1875-0.0625 0.375-0.0625h0.1875-0.1875l0.125 0.34375q0.125 0.34375 0.375 0.59375t0.39062 0.60938l0.14062 0.35938 0.21875 0.03125-0.21875-0.03125q-0.21875-0.03125-0.40625-0.09375l-0.1875-0.0625 0.5625 0.1875-0.375-0.125q-0.375-0.125-0.625-0.375t-0.5-0.5-0.25-0.5"/>
   <path d="m12 10.5q0.25-0.25 0.60938-0.39062l0.35938-0.14062 0.03125-0.21875-0.03125 0.21875q-0.03125 0.21875-0.09375 0.40625l-0.0625 0.1875 0.1875-0.5625-0.125 0.375q-0.125 0.375-0.375 0.625t-0.5 0.5-0.625 0.375l-0.375 0.125 0.125-0.375q0.125-0.375 0.375-0.625t0.5-0.5m-1.0938 1.5312 0.65625-0.21875-0.1875 0.0625q-0.1875 0.0625-0.375 0.125l-0.1875 0.0625 0.09375-0.03125"/>
   <path d="m8.125 11.625q0.125-0.375 0.375-0.375t0.32812 0.42188l0.078125 0.42188 0.15625 0.09375-0.15625-0.09375q-0.15625-0.09375-0.40625-0.09375h-0.25 0.75-1l0.125-0.375m-0.25 0.375h0.875-0.25q-0.25 0-0.5 0h-0.25 0.125"/>
  </g>
 </g>
</svg>
