<svg width="17" height="18" version="1.1" viewBox="0 0 17 18" xmlns="http://www.w3.org/2000/svg">
 <g transform="translate(0)">
  <path d="m0 0.5v-0.5h5l-0.125 0.375q-0.125 0.375-0.5 0.5t-0.375 0.625-0.5 0.5-1 0-0.5 0.5-0.5 0.5-0.5 0.5-0.125 0.875-0.5 0.5l-0.375 0.125v-4.5" fill-opacity="0"/>
  <path d="m4.875 0.375 0.125-0.375h7l0.125 0.375q0.125 0.375 0.5 0.5t0.375 0.625 0.5 0.5 1 0 0.5 0.5 0.5 0.5 0.5 0.5 0.125 0.875 0.5 0.5l0.375 0.125v9l-0.375 0.125q-0.375 0.125-0.5 0.5t-0.125 0.875 0 1-0.375 0.625-0.5 0.5l-0.125 0.375h-13l-0.125-0.375q-0.125-0.375-0.5-0.5t-0.375-0.625 0-1-0.125-0.875-0.5-0.5l-0.375-0.125v-9l0.375-0.125q0.375-0.125 0.5-0.5t0.125-0.875 0.5-0.5 0.5-0.5 0.5-0.5 1 0 0.5-0.5 0.375-0.625 0.5-0.5m-3.625 8.125q0 0.25 0.25 0.25t0.25-0.25-0.25-0.25-0.25 0.25m1.6875 8.3125-0.0625 0.0625 0.4375-0.0625q0.4375-0.0625 0.4375-0.3125t-0.4375-0.3125l-0.4375-0.0625 0.125 0.125-0.125-0.125q-0.125-0.125-0.375-0.125h-0.25 0.75l-0.375 0.125q-0.375 0.125-0.375 0.375t0.375 0.375l0.375 0.125h-0.75 0.25q0.25 0 0.375-0.125l0.125-0.125-0.0625 0.0625m10.562 0.1875q0.5 0 0.875-0.125t0.375-0.375-0.375-0.375l-0.375-0.125 0.125-0.375q0.125-0.375 0.375-0.625t0.5-0.5 0.5-0.5 0.3125-0.6875l0.0625-0.4375-0.125 0.125 0.125-0.125q0.125-0.125 0.125-0.375v-0.25 0.75-1 0.75-0.25q0-0.25-0.125-0.375l-0.125-0.125 0.125 0.125-0.0625-0.4375q-0.0625-0.4375-0.3125-0.4375t-0.5 0.25-0.625 0.375-0.75 0.25-0.4375 0.5625l-0.0625 0.4375 0.125-0.125-0.125 0.125q-0.125 0.125-0.125 0.375v0.25-0.75l0.125 0.375q0.125 0.375 0.5 0.5l0.375 0.125-0.125 0.375q-0.125 0.375-0.375 0.375t-0.5-0.25-0.625-0.375-0.875-0.125-1 0-1 0-1 0-1 0-1 0-0.875-0.125-0.625-0.375-0.5-0.5-0.5-0.5-0.625-0.375-0.75-0.25-0.625-0.375-0.5-0.25-0.3125 0.4375l-0.0625 0.4375 0.125-0.125-0.125 0.125q-0.125 0.125-0.125 0.375v0.25-0.75 1-0.75 0.25q0 0.25 0.125 0.375l0.125 0.125-0.125-0.125 0.0625 0.4375q0.0625 0.4375 0.3125 0.6875t0.5 0.5 0.625 0.375 0.75 0.25 0.625 0.375 0.5 0.5 0.5 0.5 0.625 0.375 0.875 0.125 1 0 1 0 1 0 1 0 1 0 1.0625-0.0625l0.5625-0.0625-0.125-0.125 0.125 0.125q0.125 0.125 0.375 0.125h0.25-0.75 0.5m-4-4q0.5 0 0.875-0.125t0.625-0.375 0.625-0.375 0.75-0.25 0.625-0.375 0.5-0.5 0.5-0.5 0.5-0.5 0.25-0.5-0.25-0.25-0.5 0.25-0.625 0.375-0.875 0.125-1 0-0.875-0.125-0.625-0.375-0.625-0.375-0.875-0.125-0.875 0.125-0.5 0.5l-0.125 0.375h-0.5q-0.5 0-1 0t-1 0-0.875-0.125-0.625-0.375-0.5-0.25-0.25 0.25 0.25 0.5 0.5 0.5 0.5 0.5 0.5 0.5 0.625 0.375 0.75 0.25 0.625 0.375 0.625 0.375 0.875 0.125 1 0 1 0m5.75-4.5q0 0.25 0.25 0.25t0.25-0.25-0.25-0.25-0.25 0.25m-2.75 0.5q0.5 0 0.875-0.125t0.5-0.5l0.125-0.375-0.1875 0.5625 0.0625-0.1875q0.0625-0.1875 0.09375-0.40625l0.03125-0.21875-0.03125 0.21875 0.39062-0.10938q0.39062-0.10938 0.51562-0.48438l0.125-0.375-0.1875 0.5625 0.0625-0.1875q0.0625-0.1875 0.09375-0.40625l0.03125-0.21875-0.03125 0.21875 0.39062-0.10938q0.39062-0.10938 0.51562-0.48438t0-0.75-0.51562-0.48438l-0.39062-0.10938 0.03125 0.21875-0.03125-0.21875q-0.03125-0.21875-0.09375-0.40625l-0.0625-0.1875 0.1875 0.5625-0.125-0.375q-0.125-0.375-0.375-0.375t-0.375 0.375-0.125 0.875-0.0625 1.0625l-0.0625 0.5625 0.125 0.125-0.125-0.125q-0.125-0.125-0.375-0.125h-0.25 0.75l-0.375 0.125q-0.375 0.125-0.625 0.375t-0.625 0.375-0.875 0.125-0.875-0.125-0.625-0.375-0.5-0.5-0.375-0.625-0.125-0.875 0.125-0.875 0.375-0.625 0.25-0.5-0.375-0.375-0.875-0.125h-0.5 0.75-0.25q-0.25 0-0.375 0.125l-0.125 0.125 0.125-0.125-0.4375 0.0625q-0.4375 0.0625-0.4375 0.3125t0.375 0.375l0.375 0.125v0.5q0 0.5 0 1t-0.125 0.875-0.375 0.625-0.5 0.5-0.625 0.375-0.875 0.125-1 0h-0.5 0.75-0.25q-0.25 0-0.375 0.125l-0.125 0.125 0.125-0.125-0.1875-0.4375q-0.1875-0.4375-0.4375-0.6875t-0.375-0.625-0.125-0.875-0.125-0.875-0.375-0.375-0.375 0.375l-0.125 0.375 0.1875-0.5625-0.0625 0.1875q-0.0625 0.1875-0.09375 0.40625l-0.03125 0.21875 0.03125-0.21875-0.39062 0.10938q-0.39062 0.10938-0.51562 0.48438t0 0.75 0.51562 0.48438l0.39062 0.10938-0.03125-0.21875 0.03125 0.21875q0.03125 0.21875 0.09375 0.40625l0.0625 0.1875-0.1875-0.5625 0.125 0.375q0.125 0.375 0.375 0.625t0.5 0.5 0.6875 0.3125l0.4375 0.0625-0.125-0.125 0.125 0.125q0.125 0.125 0.375 0.125h0.25-0.75 0.5q0.5 0 1 0t0.875-0.125 0.625-0.375 0.625-0.375 0.875-0.125 0.875 0.125 0.625 0.375 0.625 0.375 0.875 0.125 1 0m-1-2q0.5 0 0.875-0.125t0.5-0.5 0.125-0.875-0.125-0.875-0.5-0.5-0.875-0.125-0.875 0.125-0.5 0.5-0.125 0.875 0.125 0.875 0.5 0.5 0.875 0.125m1.75-3.5q0 0.25 0.25 0.25t0.25-0.25-0.25-0.25-0.25 0.25m-2.75-1.5q0.5 0 0.875-0.125t0.375-0.375-0.375-0.375-0.875-0.125-1 0-1 0-1 0-1 0-0.875 0.125-0.375 0.375 0.375 0.375 0.875 0.125 1 0 1 0 1 0 1 0m-2.5 2.375v-0.625 0.25q0 0.25 0 0.5v0.25-0.375m-2.5 2.625q0.5 0 0.875-0.125t0.5-0.5 0.125-0.875-0.125-0.875-0.5-0.5-0.875-0.125-0.875 0.125-0.5 0.5-0.125 0.875 0.125 0.875 0.5 0.5 0.875 0.125m-2.25-3.5q0 0.25 0.25 0.25t0.25-0.25-0.25-0.25-0.25 0.25m3.375 6.5h0.625-0.25q-0.25 0-0.5 0h-0.25 0.375"/>
  <path d="m12.125 0.375-0.125-0.375h5v5l-0.375-0.125q-0.375-0.125-0.5-0.5t-0.125-0.875-0.5-0.5-0.5-0.5-0.5-0.5-1 0-0.5-0.5-0.375-0.625-0.5-0.5" fill-opacity="0"/>
  <g>
   <path d="m5.25 1.5q0-0.25 0.375-0.375t0.875-0.125 1 0 1 0 1 0 1 0 0.875 0.125 0.375 0.375-0.375 0.375-0.875 0.125-1 0-1 0-1 0-1 0-0.875-0.125-0.375-0.375" fill="#3a7dce"/>
   <path d="m3.25 3.5q0-0.25 0.25-0.25t0.25 0.25-0.25 0.25-0.25-0.25" fill="#740df2"/>
   <path d="m7.25 3.5q0-0.25 0.4375-0.3125l0.4375-0.0625 0.125-0.125-0.125 0.125q-0.125 0.125-0.125 0.375v0.25-0.75 1l-0.375-0.125q-0.375-0.125-0.375-0.375m0.75 0.625v-0.875 0.25q0 0.25 0 0.5v0.25-0.125" fill="#740df2"/>
   <path d="m8 3.5q0-0.5 0.5-0.5t0.875 0.125 0.375 0.375-0.25 0.5-0.375 0.625-0.125 0.875 0.125 0.875 0.375 0.625 0.5 0.5 0.625 0.375 0.875 0.125 0.875-0.125 0.625-0.375 0.625-0.375 0.375 0.375-0.125 0.875-0.5 0.5-0.875 0.125-1 0-0.875-0.125-0.625-0.375-0.625-0.375-0.875-0.125-0.875 0.125-0.625 0.375-0.625 0.375-0.875 0.125-1 0-0.5-0.5 0.5-0.5 1 0 0.875-0.125 0.625-0.375 0.5-0.5 0.375-0.625 0.125-0.875 0-1 0-1" fill="#ffbfff"/>
   <path d="m13.25 3.5q0-0.25 0.25-0.25t0.25 0.25-0.25 0.25-0.25-0.25" fill="#740df2"/>
   <path d="m2.125 4.625q0.125-0.375 0.375-0.375t0.375 0.375 0.125 0.875 0.125 0.875 0.375 0.625 0.4375 0.6875l0.1875 0.4375 0.125-0.125-0.125 0.125q-0.125 0.125-0.125 0.375v0.25-0.75 1-0.75 0.25q0 0.25 0.125 0.375l0.125 0.125-0.125-0.125-0.4375-0.0625q-0.4375-0.0625-0.6875-0.3125t-0.5-0.5-0.375-0.625-0.125-0.875 0-1 0.125-0.875" fill="#740df2"/>
   <path d="m4.125 4.625q0.125-0.375 0.5-0.5t0.875-0.125 0.875 0.125 0.5 0.5 0.125 0.875-0.125 0.875-0.5 0.5-0.875 0.125-0.875-0.125-0.5-0.5-0.125-0.875 0.125-0.875" fill="#ffbfff"/>
   <path d="m10.125 4.625q0.125-0.375 0.5-0.5t0.875-0.125 0.875 0.125 0.5 0.5 0.125 0.875-0.125 0.875-0.5 0.5-0.875 0.125-0.875-0.125-0.5-0.5-0.125-0.875 0.125-0.875" fill="#ffbfff"/>
   <path d="m14.125 4.625q0.125-0.375 0.375-0.375t0.375 0.375 0.125 0.875 0 1-0.125 0.875-0.51562 0.48438l-0.39062 0.10938-0.03125 0.21875 0.03125-0.21875q0.03125-0.21875 0.03125-0.46875v-0.25 0.75-1 0.75-0.25q0-0.25-0.125-0.375l-0.125-0.125 0.125 0.125 0.0625-0.5625q0.0625-0.5625 0.0625-1.0625t0.125-0.875" fill="#740df2"/>
   <path d="m1.125 5.625q0.125-0.375 0.51562-0.48438l0.39062-0.10938 0.03125-0.21875-0.03125 0.21875q-0.03125 0.21875-0.03125 0.46875v0.25-0.75 0.5q0 0.5 0 1v0.5-0.75 0.25q0 0.25 0.03125 0.46875l0.03125 0.21875-0.03125-0.21875-0.39062-0.10938q-0.39062-0.10938-0.51562-0.48438t0-0.75" fill="#808080"/>
   <path d="m15 5.5v-0.5 0.75-0.25q0-0.25-0.03125-0.46875l-0.03125-0.21875 0.03126 0.21875 0.39062 0.10938q0.39062 0.10938 0.51562 0.48438t0 0.75-0.51562 0.48438l-0.39062 0.10938-0.03125 0.21875 0.03125-0.21875q0.03125-0.21875 0.03125-0.46875v-0.25 0.75-0.5q0-0.5 0-1" fill="#808080"/>
  </g>
  <g fill="#3a7dce">
   <path d="m1.25 8.5q0-0.25 0.25-0.25t0.25 0.25-0.25 0.25-0.25-0.25"/>
   <path d="m15.25 8.5q0-0.25 0.25-0.25t0.25 0.25-0.25 0.25-0.25-0.25"/>
   <path d="m2.25 9.5q0-0.25 0.25-0.25t0.5 0.25 0.625 0.375 0.875 0.125 1 0 1 0 1 0 0.875 0.125 0.375 0.375-0.25 0.5-0.25 0.5 0.375 0.375 0.75 0 0.625-0.375 0.625-0.375 0.75-0.25 0.5-0.5l0.125-0.375h0.5q0.5 0 0.875-0.125t0.625-0.375 0.5-0.25 0.25 0.25-0.25 0.5-0.5 0.5-0.5 0.5-0.5 0.5-0.625 0.375-0.75 0.25-0.625 0.375-0.625 0.375-0.875 0.125-1 0-1 0-0.875-0.125-0.625-0.375-0.625-0.375-0.75-0.25-0.625-0.375-0.5-0.5-0.5-0.5-0.5-0.5-0.25-0.5m10.125 0.5h-0.625 0.25q0.25 0 0.5 0h0.25-0.375"/>
  </g>
  <g>
   <path d="m7.125 9.625q0.125-0.375 0.5-0.5t0.875-0.125 0.875 0.125 0.625 0.375 0.625 0.375 0.875 0.125h0.5l-0.125 0.375q-0.125 0.375-0.5 0.5t-0.75 0.25-0.625 0.375-0.625 0.375-0.75 0-0.375-0.375 0.25-0.5 0.25-0.5-0.375-0.375-0.875-0.125h-0.5l0.125-0.375m-0.25 0.375h0.875-0.25q-0.25 0-0.5 0h-0.25 0.125m5.25 0h-0.875 0.25q0.25 0 0.5 0h0.25-0.125" fill="#fff"/>
   <path d="m1.1875 11.688q0.0625-0.4375 0.3125-0.4375t0.5 0.25 0.625 0.375 0.75 0.25 0.625 0.375 0.5 0.5 0.5 0.5 0.625 0.375 0.875 0.125 1 0 1 0 1 0 1 0 1 0 0.875 0.125 0.625 0.375 0.5 0.25 0.375-0.375l0.125-0.375 0.375-0.125q0.375-0.125 0.375-0.375t-0.375-0.375-0.875-0.125h-0.5 0.75-0.25q-0.25 0-0.375 0.125l-0.125 0.125 0.125-0.125 0.0625-0.4375q0.0625-0.4375 0.4375-0.5625t0.75-0.25 0.625-0.375 0.5-0.25 0.3125 0.4375l0.0625 0.4375 0.125 0.125-0.125-0.125q-0.125-0.125-0.375-0.125h-0.25 0.75l-0.375 0.125q-0.375 0.125-0.375 0.375t0.375 0.375l0.375 0.125h-0.75 0.25q0.25 0 0.375-0.125l0.125-0.125-0.125 0.125-0.0625 0.4375q-0.0625 0.4375-0.3125 0.6875t-0.5 0.5-0.5 0.5-0.375 0.625l-0.125 0.375-0.375 0.125q-0.375 0.125-0.5 0.5l-0.125 0.375v-0.75 0.25q0 0.25 0.125 0.375l0.125 0.125-0.125-0.125-0.5625 0.0625q-0.5625 0.0625-1.0625 0.0625t-1 0-1 0-1 0-1 0-1 0-0.875-0.125-0.625-0.375-0.5-0.5-0.5-0.5-0.625-0.375-0.75-0.25-0.625-0.375-0.5-0.5-0.3125-0.6875l-0.0625-0.4375-0.125-0.125 0.125 0.125q0.125 0.125 0.375 0.125h0.25-0.75l0.375-0.125q0.375-0.125 0.375-0.375t-0.375-0.375l-0.375-0.125h0.75-0.25q-0.25 0-0.375 0.125l-0.125 0.125 0.125-0.125 0.0625-0.4375m1.4375 2.1875q0.375 0.125 0.75 0t0.375-0.375-0.375-0.375-0.75 0-0.375 0.375 0.375 0.375m1.625 0.625q0 0.25 0.25 0.25t0.25-0.25-0.25-0.25-0.25 0.25m7.25 1.5q0.5 0 0.875-0.125t0.375-0.375-0.375-0.375-0.875-0.125-1 0-1 0-1 0-1 0-1 0-0.875 0.125-0.375 0.375 0.375 0.375 0.875 0.125 1 0 1 0 1 0 1 0 1 0" fill="#000080"/>
   <path d="m1 12.5q0-0.5 0.375-0.375t0.375 0.375-0.375 0.375-0.375-0.375" fill="#ff0080"/>
   <path d="m15.25 12.5q0-0.25 0.375-0.375t0.375 0.375-0.375 0.375-0.375-0.375" fill="#fff"/>
   <path d="m2.25 13.5q0-0.25 0.375-0.375l0.375-0.125-0.5625 0.1875 0.1875-0.0625q0.1875-0.0625 0.375-0.0625h0.1875-0.1875v0.875h0.1875-0.1875q-0.1875 0-0.375-0.0625l-0.1875-0.0625 0.5625 0.1875-0.375-0.125q-0.375-0.125-0.375-0.375" fill="#fff"/>
   <path d="m3 13.5v-0.4375h-0.1875 0.1875q0.1875 0 0.375 0.0625l0.1875 0.0625-0.5625-0.1875 0.375 0.125q0.375 0.125 0.375 0.375t-0.375 0.375l-0.375 0.125 0.5625-0.1875-0.1875 0.0625q-0.1875 0.0625-0.375 0.0625h-0.1875 0.1875v-0.4375" fill="#ff0080"/>
   <path d="m13.125 13.375q-0.125-0.375 0.375-0.375h0.5-0.75 0.25q0.25 0 0.46875 0.03125l0.21875 0.03125-0.21875-0.03126 0.01563 0.48438 0.01562 0.48438-0.375-0.125q-0.375-0.125-0.5-0.5" fill="#fff"/>
   <path d="m13.984 13.516-0.015625-0.48438-0.21875-0.03125 0.21875 0.03125q0.21875 0.03125 0.40625 0.09375l0.1875 0.0625-0.5625-0.1875 0.375 0.125q0.375 0.125 0.375 0.375t-0.375 0.375l-0.375 0.125-0.015625-0.48438" fill="#ff0080"/>
  </g>
  <path d="m0 14.5v-0.5l0.375 0.125q0.375 0.125 0.5 0.5t0.125 0.875 0 1 0.375 0.625 0.5 0.5l0.125 0.375h-2v-3.5" fill-opacity="0"/>
  <path d="m4.25 14.5q0-0.25 0.25-0.25t0.25 0.25-0.25 0.25-0.25-0.25" fill="#fff"/>
  <path d="m16.125 14.625q0.125-0.375 0.5-0.5l0.375-0.125v4h-2l0.125-0.375q0.125-0.375 0.5-0.5t0.375-0.625 0-1 0.125-0.875" fill-opacity="0"/>
  <g>
   <path d="m5.25 15.5q0-0.25 0.375-0.375l0.375-0.125-0.5625 0.1875 0.1875-0.0625q0.1875-0.0625 0.40625-0.09375l0.21875-0.03125-0.21875 0.03125v0.9375l0.21875 0.03125-0.21875-0.03125q-0.21875-0.03125-0.40625-0.09375l-0.1875-0.0625 0.5625 0.1875-0.375-0.125q-0.375-0.125-0.375-0.375" fill="#ff0080"/>
   <path d="m6.0312 15.5v-0.46875l-0.21875 0.03125 0.21875-0.03125q0.21875-0.03125 0.46875-0.03125h0.25-0.75 1v1h-1 0.75-0.25q-0.25 0-0.46875-0.03125l-0.21875-0.03125 0.21875 0.03125v-0.46875m0.59375 0.5h0.625-0.25q-0.25 0-0.5 0h-0.25 0.375m0.5-1h-0.875 0.25q0.25 0 0.5 0h0.25-0.125" fill="#fff"/>
   <path d="m7 15.5v-0.5h1v1h-1v-0.5m-0.125 0.5h0.875-0.25q-0.25 0-0.5 0h-0.25 0.125m0.75 0h0.625-0.25q-0.25 0-0.5 0h-0.25 0.375m0.5-1h-0.875 0.25q0.25 0 0.5 0h0.25-0.125m-0.75 0h-0.625 0.25q0.25 0 0.5 0h0.25-0.375" fill="#ff0080"/>
   <path d="m8 15.5v-0.5h1v1h-1v-0.5m-0.125 0.5h0.875-0.25q-0.25 0-0.5 0h-0.25 0.125m0.75 0h0.625-0.25q-0.25 0-0.5 0h-0.25 0.375m0.5-1h-0.875 0.25q0.25 0 0.5 0h0.25-0.125m-0.75 0h-0.625 0.25q0.25 0 0.5 0h0.25-0.375" fill="#fff"/>
   <path d="m9 15.5v-0.5h1v1h-1v-0.5m-0.125 0.5h0.875-0.25q-0.25 0-0.5 0h-0.25 0.125m0.75 0h0.625-0.25q-0.25 0-0.5 0h-0.25 0.375m0.5-1h-0.875 0.25q0.25 0 0.5 0h0.25-0.125m-0.75 0h-0.625 0.25q0.25 0 0.5 0h0.25-0.375" fill="#ff0080"/>
   <path d="m10 15.5v-0.5h1v1h-1v-0.5m-0.125 0.5h0.875-0.25q-0.25 0-0.5 0h-0.25 0.125m0.75 0h0.625-0.25q-0.25 0-0.5 0h-0.25 0.375m0.5-1h-0.875 0.25q0.25 0 0.5 0h0.25-0.125m-0.75 0h-0.625 0.25q0.25 0 0.5 0h0.25-0.375" fill="#fff"/>
   <path d="m11 15.5v-0.5h1-0.75 0.25q0.25 0 0.46875 0.03125l0.21875 0.03125-0.21875-0.03125v0.9375l0.21875-0.03126-0.21875 0.03125q-0.21875 0.03126-0.46875 0.03126h-0.25 0.75-1v-0.5m-0.125 0.5h0.875-0.25q-0.25 0-0.5 0h-0.25 0.125m0.5-1h-0.625 0.25q0.25 0 0.5 0h0.25-0.375" fill="#ff0080"/>
   <path d="m11.969 15.5v-0.46875l-0.21875-0.03125 0.21875 0.03125q0.21875 0.03125 0.40625 0.09375l0.1875 0.0625-0.5625-0.1875 0.375 0.125q0.375 0.125 0.375 0.375t-0.375 0.375l-0.375 0.125 0.5625-0.1875-0.1875 0.0625q-0.1875 0.0625-0.40625 0.09375l-0.21875 0.03125 0.21875-0.03125v-0.46875" fill="#fff"/>
   <path d="m2.25 16.5q0-0.25 0.375-0.375t0.375 0.375-0.375 0.375-0.375-0.375" fill="#fff"/>
   <path d="m3 16.5v-0.5 0.75-0.25q0-0.25-0.125-0.375l-0.125-0.125 0.125 0.125 0.4375 0.0625q0.4375 0.0625 0.4375 0.3125t-0.4375 0.3125l-0.4375 0.0625-0.125 0.125 0.125-0.125q0.125-0.125 0.125-0.375v-0.25 0.75-0.5" fill="#000080"/>
   <path d="m13.125 16.625q0.125-0.375 0.5-0.5l0.375-0.125-0.03126 0.96875 0.21875-0.03126-0.21875 0.03125q-0.21874 0.03126-0.46874 0.03126h-0.25 0.75-0.5q-0.5 0-0.375-0.375" fill="#ff0080"/>
   <path d="m13.984 16.484 0.015625-0.48438 0.375 0.125q0.375 0.125 0.375 0.375t-0.375 0.375l-0.375 0.125 0.5625-0.1875-0.1875 0.0625q-0.1875 0.0625-0.40625 0.09375l-0.21875 0.03125 0.21875-0.03126 0.01563-0.48438" fill="#fff"/>
  </g>
 </g>
</svg>
