<svg width="17" height="14" version="1.1" viewBox="0 0 17 14" xmlns="http://www.w3.org/2000/svg">
 <g transform="translate(0)">
  <path d="m0 0.5v-0.5h5l-0.125 0.375q-0.125 0.375-0.5 0.5t-0.5 0.5-0.5 0.5-0.875 0.125-0.625 0.375-0.5 0.5-0.375 0.625-0.125 0.875-0.5 0.5l-0.375 0.125v-4.5" fill-opacity="0"/>
  <path d="m4.875 0.375 0.125-0.375h7l0.125 0.375q0.125 0.375 0.5 0.5t0.5 0.5 0.5 0.5 0.875 0.125 0.625 0.375 0.5 0.5 0.375 0.625 0.125 0.875 0.5 0.5l0.375 0.125v4l-0.375 0.125q-0.375 0.125-0.5 0.5t-0.125 0.875-0.5 0.5-0.5 0.5-0.5 0.5-0.875 0.125-0.5 0.5-0.5 0.5-0.5 0.5l-0.125 0.375h-7l-0.125-0.375q-0.125-0.375-0.5-0.5t-0.5-0.5-0.5-0.5-0.875-0.125-0.5-0.5-0.5-0.5-0.5-0.5-0.125-0.875-0.5-0.5l-0.375-0.125v-4l0.375-0.125q0.375-0.125 0.5-0.5t0.125-0.875 0.375-0.625 0.5-0.5 0.625-0.375 0.875-0.125 0.5-0.5 0.5-0.5 0.5-0.5m5.625 12.625q0.5 0 0.875-0.125t0.625-0.375 0.5-0.5 0.5-0.5 0.5-0.5 0.5-0.5 0.5-0.5 0.35938-0.64062l0.10938-0.39062-0.21875 0.03125 0.21875-0.03125q0.21875-0.03125 0.40625-0.09375l0.1875-0.0625-0.5625 0.1875 0.375-0.125q0.375-0.125 0.5-0.5l0.125-0.375v0.75-0.25q0-0.25-0.125-0.375l-0.125-0.125 0.125 0.125 0.0625-0.5625q0.0625-0.5625 0-1.125l-0.0625-0.5625-0.125 0.125 0.125-0.125q0.125-0.125 0.125-0.375v-0.25 0.75l-0.125-0.375q-0.125-0.375-0.5-0.5l-0.375-0.125 0.5625 0.1875-0.1875-0.0625q-0.1875-0.0625-0.40625-0.09375l-0.21875-0.03125 0.21875 0.03125 0.015625-0.51562q0.015625-0.51562-0.10938-0.89062t-0.5-0.5-0.75-0.25-0.625-0.375-0.5-0.5-0.5-0.5-0.625-0.375-0.875-0.125-1.0625 0.0625l-0.5625 0.0625 0.125 0.125-0.125-0.125q-0.125-0.125-0.375-0.125h-0.25 0.75-1 0.75-0.25q-0.25 0-0.375 0.125l-0.125 0.125 0.125-0.125-0.5625-0.0625q-0.5625-0.0625-1.125 0l-0.5625 0.0625 0.125 0.125-0.125-0.125q-0.125-0.125-0.375-0.125h-0.25 0.75l-0.375 0.125q-0.375 0.125-0.5 0.5l-0.125 0.375 0.1875-0.5625-0.0625 0.1875q-0.0625 0.1875-0.09375 0.40625l-0.03125 0.21875 0.03125-0.21875-0.39062 0.10938q-0.39062 0.10938-0.39062 0.35938t0.4375 0.3125l0.4375 0.0625-0.125-0.125 0.125 0.125q0.125 0.125 0.375 0.125h0.25-0.75 1-0.75 0.25q0.25 0 0.375-0.125l0.125-0.125-0.125 0.125 0.4375 0.1875q0.4375 0.1875 0.6875 0.4375t0.625 0.375l0.375 0.125v0.5q0 0.5 0 1v0.5-0.75 0.25q0 0.25 0.125 0.375l0.125 0.125-0.125-0.125-0.1875 0.4375q-0.1875 0.4375-0.4375 0.6875t-0.5 0.5-0.6875 0.4375l-0.4375 0.1875 0.125 0.125-0.125-0.125q-0.125-0.125-0.375-0.125h-0.25 0.75-0.5q-0.5 0-1 0h-0.5l-0.125-0.375q-0.125-0.375-0.375-0.625t-0.4375-0.6875l-0.1875-0.4375-0.125 0.125 0.125-0.125q0.125-0.125 0.125-0.375v-0.25 0.75-1 0.75-0.25q0-0.25-0.125-0.375l-0.125-0.125 0.125 0.125 0.1875-0.4375q0.1875-0.4375 0.4375-0.6875t0.25-0.5-0.375-0.375-0.75 0-0.5 0.5-0.10938 0.89062l0.015625 0.51562 0.21875-0.03125-0.21875 0.03125q-0.21875 0.03125-0.40625 0.09375l-0.1875 0.0625 0.5625-0.1875-0.375 0.125q-0.375 0.125-0.5 0.5l-0.125 0.375v-0.75 0.25q0 0.25 0.125 0.375l0.125 0.125-0.125-0.125-0.0625 0.5625q-0.0625 0.5625 0 1.125l0.0625 0.5625 0.125-0.125-0.125 0.125q-0.125 0.125-0.125 0.375v0.25-0.75l0.125 0.375q0.125 0.375 0.5 0.5l0.375 0.125-0.5625-0.1875 0.1875 0.0625q0.1875 0.0625 0.40625 0.09375l0.21875 0.03125-0.21875-0.03125 0.10938 0.39062q0.10938 0.39062 0.35938 0.64062t0.5 0.5 0.5 0.5 0.5 0.5 0.64062 0.35938l0.39062 0.10938-0.03125-0.21875 0.03125 0.21875q0.03125 0.21875 0.09375 0.40625l0.0625 0.1875-0.1875-0.5625 0.125 0.375q0.125 0.375 0.5 0.5l0.375 0.125h-0.75 0.25q0.25 0 0.375-0.125l0.125-0.125-0.125 0.125 0.5625 0.0625q0.5625 0.0625 1.125 0l0.5625-0.0625-0.125-0.125 0.125 0.125q0.125 0.125 0.375 0.125h0.25-0.75 1-0.75 0.25q0.25 0 0.375-0.125l0.125-0.125-0.125 0.125 0.5625 0.0625q0.5625 0.0625 1.0625 0.0625m-2.5-8.625v-0.625 0.25q0 0.25 0 0.5v0.25-0.375m-2.5 2.625q0.5 0 0.875-0.125t0.5-0.5 0.125-0.875-0.125-0.875-0.5-0.5-0.875-0.125-0.875 0.125-0.5 0.5-0.125 0.875 0.125 0.875 0.5 0.5 0.875 0.125m-1.625 1h0.875-0.25q-0.25 0-0.5 0h-0.25 0.125"/>
  <path d="m12.125 0.375-0.125-0.375h5v5l-0.375-0.125q-0.375-0.125-0.5-0.5t-0.125-0.875-0.375-0.625-0.5-0.5-0.625-0.375-0.875-0.125-0.5-0.5-0.5-0.5-0.5-0.5" fill-opacity="0"/>
  <g>
   <path d="m5.125 1.625q0.125-0.375 0.5-0.5t0.375 0.375 0 1-0.5 0.5-0.5-0.5 0.125-0.875" fill="#ffce00"/>
   <path d="m6 1.5v-0.5 0.75-0.25q0-0.25-0.125-0.375l-0.125-0.125 0.125 0.125 0.5625-0.0625q0.5625-0.0625 1.125 0l0.5625 0.0625 0.125-0.125-0.125 0.125q-0.125 0.125-0.125 0.375v0.25-0.75 0.5q0 0.5 0 1t0 1v0.5l-0.375-0.125q-0.375-0.125-0.625-0.375t-0.6875-0.4375l-0.4375-0.1875-0.125 0.125 0.125-0.125q0.125-0.125 0.125-0.375v-0.25 0.75-0.5q0-0.5 0-1m2 2.625v-0.875 0.25q0 0.25 0 0.5v0.25-0.125" fill="#d21034"/>
   <path d="m8 1.5q0-0.5 0.5-0.5t0.5 0.5 0 1 0 1 0 1 0 1-0.5 0.5-0.5-0.5 0-1 0-1 0-1 0-1" fill="#ffce00"/>
  </g>
  <g fill="#0053a5">
   <path d="m9 1.5v-0.5 0.75-0.25q0-0.25-0.125-0.375l-0.125-0.125 0.125 0.125 0.5625-0.0625q0.5625-0.0625 1.0625-0.0625t0.875 0.125 0.625 0.375 0.5 0.5 0.5 0.5 0.625 0.375 0.75 0.25 0.5 0.5 0.10938 0.89062l-0.015625 0.51562 0.21875 0.03125-0.21875-0.03125q-0.21875-0.03125-0.46875-0.03125h-0.25 0.75-1 0.75-0.25q-0.25 0-0.375 0.125l-0.125 0.125 0.125-0.125-0.1875-0.4375q-0.1875-0.4375-0.4375-0.6875t-0.5-0.5-0.625-0.375-0.875-0.125-0.875 0.125-0.625 0.375-0.625 0.375l-0.375 0.125v-0.5q0-0.5 0-1t0-1m0 2.125v0.625-0.25q0-0.25 0-0.5v-0.25 0.375"/>
   <path d="m4.25 2.5q0-0.25 0.39062-0.35938l0.39062-0.10938 0.03125-0.21875-0.03125 0.21875q-0.03125 0.21875-0.03125 0.46875v0.25-0.75 1-0.75 0.25q0 0.25 0.125 0.375l0.125 0.125-0.125-0.125-0.4375-0.0625q-0.4375-0.0625-0.4375-0.3125"/>
   <path d="m2.125 3.625q0.125-0.375 0.5-0.5t0.75 0 0.375 0.375-0.25 0.5-0.4375 0.6875l-0.1875 0.4375 0.125 0.125-0.125-0.125q-0.125-0.125-0.375-0.125h-0.25 0.75-1 0.75-0.25q-0.25 0-0.46875 0.03125l-0.21875 0.03125 0.21875-0.03125-0.015625-0.51562q-0.015625-0.51562 0.10938-0.89062"/>
  </g>
  <g>
   <path d="m10 3.5q0.25-0.25 0.625-0.375t0.875-0.125 0.875 0.125 0.625 0.375 0.5 0.5 0.4375 0.6875l0.1875 0.4375 0.125-0.125-0.125 0.125q-0.125 0.125-0.125 0.375v0.25-0.75 1-0.75 0.25q0 0.25 0.125 0.375l0.125 0.125-0.125-0.125-0.1875 0.4375q-0.1875 0.4375-0.4375 0.6875t-0.375 0.625l-0.125 0.375h-0.5q-0.5 0-1 0t-1 0h-0.5l-0.125-0.375q-0.125-0.375-0.375-0.625t-0.4375-0.6875l-0.1875-0.4375-0.125 0.125 0.125-0.125q0.125-0.125 0.125-0.375v-0.25 0.75-0.5q0-0.5 0-1v-0.5l0.375-0.125q0.375-0.125 0.625-0.375m-1 0.375v0.875-0.25q0-0.25 0-0.5v-0.25 0.125m0.875 4.125h0.875-0.25q-0.25 0-0.5 0h-0.25 0.125m1.625-1q0.5 0 0.875-0.125t0.5-0.5 0.125-0.875-0.125-0.875-0.5-0.5-0.875-0.125-0.875 0.125-0.5 0.5-0.125 0.875 0.125 0.875 0.5 0.5 0.875 0.125m1.125 1h0.625-0.25q-0.25 0-0.5 0h-0.25 0.375"/>
   <path d="m4.125 4.625q0.125-0.375 0.5-0.5t0.875-0.125 0.875 0.125 0.5 0.5 0.125 0.875-0.125 0.875-0.5 0.5-0.875 0.125-0.875-0.125-0.5-0.5-0.125-0.875 0.125-0.875" fill="#fff"/>
   <path d="m10.125 4.625q0.125-0.375 0.5-0.5t0.875-0.125 0.875 0.125 0.5 0.5 0.125 0.875-0.125 0.875-0.5 0.5-0.875 0.125-0.875-0.125-0.5-0.5-0.125-0.875 0.125-0.875" fill="#fff"/>
   <path d="m1.125 5.625q0.125-0.375 0.5-0.5t0.875-0.125 0.5 0.5-0.5 0.5-1 0-0.375-0.375" fill="#ffce00"/>
   <path d="m14 5.5q0-0.5 0.5-0.5t0.875 0.125 0.5 0.5-0.375 0.375-1 0-0.5-0.5" fill="#ffce00"/>
  </g>
  <g fill="#d21034">
   <path d="m1.0625 6.4375 0.0625-0.5625-0.125-0.125 0.125 0.125q0.125 0.125 0.375 0.125h0.25-0.75 0.5q0.5 0 1 0h0.5-0.75 0.25q0.25 0 0.375-0.125l0.125-0.125-0.125 0.125 0.1875 0.4375q0.1875 0.4375 0.4375 0.6875t0.375 0.625l0.125 0.375h-0.5q-0.5 0-1 0t-1 0h-0.5 0.75-0.25q-0.25 0-0.375 0.125l-0.125 0.125 0.125-0.125-0.0625-0.5625q-0.0625-0.5625 0-1.125m2.5625 1.5625h0.625-0.25q-0.25 0-0.5 0h-0.25 0.375"/>
   <path d="m7.9375 6.3125 0.1875-0.4375-0.125-0.125 0.125 0.125q0.125 0.125 0.375 0.125h0.25-0.75 1-0.75 0.25q0.25 0 0.375-0.125l0.125-0.125-0.125 0.125 0.1875 0.4375q0.1875 0.4375 0.4375 0.6875t0.375 0.625l0.125 0.375h-0.5q-0.5 0-0.875 0.125t-0.5 0.5-0.125 0.875 0 1 0 1 0 1v0.5-0.75 0.25q0 0.25 0.125 0.375l0.125 0.125-0.125-0.125-0.5625 0.0625q-0.5625 0.0625-1.125 0l-0.5625-0.0625-0.125 0.125 0.125-0.125q0.125-0.125 0.125-0.375v-0.25 0.75-0.5q0-0.5 0-1t0-1 0-1 0-1v-0.5 0.75-0.25q0-0.25-0.125-0.375l-0.125-0.125 0.125 0.125 0.4375-0.1875q0.4375-0.1875 0.6875-0.4375t0.5-0.5 0.4375-0.6875m1.6875 1.6875h0.625-0.25q-0.25 0-0.5 0h-0.25 0.375"/>
   <path d="m13.938 6.3125 0.1875-0.4375-0.125-0.125 0.125 0.125q0.125 0.125 0.375 0.125h0.25-0.75 0.5q0.5 0 1 0h0.5-0.75 0.25q0.25 0 0.375-0.125l0.125-0.125-0.125 0.125 0.0625 0.5625q0.0625 0.5625 0 1.125l-0.0625 0.5625 0.125 0.125-0.125-0.125q-0.125-0.125-0.375-0.125h-0.25 0.75-0.5q-0.5 0-1 0t-1 0h-0.5l0.125-0.375q0.125-0.375 0.375-0.625t0.4375-0.6875m-1.0625 1.6875h0.875-0.25q-0.25 0-0.5 0h-0.25 0.125"/>
  </g>
  <path d="m1.125 8.375q-0.125-0.375 0.375-0.375t1 0 1 0 1 0 1 0 0.5 0.5 0 1 0 1 0 1 0 1-0.375 0.375-0.5-0.5-0.125-0.875 0-1-0.125-0.875-0.5-0.5-0.875-0.125-1 0-0.875-0.125-0.5-0.5" fill="#ffce00"/>
  <path d="m8.125 8.625q0.125-0.375 0.5-0.5t0.875-0.125 1 0 1 0 1 0 1 0 1 0 1 0 0.375 0.375-0.5 0.5-0.875 0.125-1 0-1 0-1 0-1 0-0.875 0.125-0.5 0.5-0.125 0.875 0 1 0 1-0.5 0.5-0.5-0.5 0-1 0-1 0-1 0.125-0.875" fill="#ffce00"/>
  <path d="m0 9.5v-0.5l0.375 0.125q0.375 0.125 0.5 0.5t0.125 0.875 0.5 0.5 0.5 0.5 0.5 0.5 0.875 0.125 0.5 0.5 0.5 0.5 0.5 0.5l0.125 0.375h-5v-4.5" fill-opacity="0"/>
  <path d="m2.1406 9.3594-0.10938-0.39062-0.21875-0.03125 0.21875 0.03125q0.21875 0.03125 0.46875 0.03125h0.25-0.75 0.5q0.5 0 1 0t0.875 0.125 0.5 0.5 0.125 0.875 0 1v0.5-0.75 0.25q0 0.25 0.03125 0.46875l0.03125 0.21875-0.03125-0.21875-0.39062-0.10938q-0.39062-0.10938-0.64062-0.35938t-0.5-0.5-0.5-0.5-0.5-0.5-0.35938-0.64062" fill="#0053a5"/>
  <path d="m9.125 9.625q0.125-0.375 0.5-0.5t0.875-0.125 1 0 1 0 1 0 1 0h0.5-0.75 0.25q0.25 0 0.46875-0.03125l0.21875-0.03125-0.21875 0.03125-0.10938 0.39062q-0.10938 0.39062-0.35938 0.64062t-0.5 0.5-0.5 0.5-0.5 0.5-0.5 0.5-0.5 0.5-0.625 0.375-0.875 0.125-1.0625-0.0625l-0.5625-0.0625-0.125 0.125 0.125-0.125q0.125-0.125 0.125-0.375v-0.25 0.75-0.5q0-0.5 0-1t0-1 0.125-0.875" fill="#0053a5"/>
  <path d="m16.125 9.625q0.125-0.375 0.5-0.5l0.375-0.125v5h-5l0.125-0.375q0.125-0.375 0.5-0.5t0.5-0.5 0.5-0.5 0.875-0.125 0.5-0.5 0.5-0.5 0.5-0.5 0.125-0.875" fill-opacity="0"/>
 </g>
</svg>
