<svg width="17" height="14" version="1.1" viewBox="0 0 17 14" xmlns="http://www.w3.org/2000/svg">
 <g transform="translate(0)">
  <path d="m0 0.5v-0.5h5l-0.125 0.375q-0.125 0.375-0.5 0.5t-0.5 0.5-0.5 0.5-0.875 0.125-0.625 0.375-0.5 0.5-0.375 0.625-0.125 0.875-0.5 0.5l-0.375 0.125v-4.5" fill-opacity="0"/>
  <path d="m4.875 0.375 0.125-0.375h7l0.125 0.375q0.125 0.375 0.5 0.5t0.5 0.5 0.5 0.5 0.875 0.125 0.625 0.375 0.5 0.5 0.375 0.625 0.125 0.875 0.5 0.5l0.375 0.125v4l-0.375 0.125q-0.375 0.125-0.5 0.5t-0.125 0.875-0.5 0.5-0.5 0.5-0.5 0.5-0.875 0.125-0.5 0.5-0.625 0.375-0.5 0.5v0.5h-7v-0.5q0-0.5-0.5-0.5t-0.625-0.375-0.5-0.5-0.875-0.125-0.5-0.5-0.5-0.5-0.5-0.5-0.125-0.875-0.5-0.5l-0.375-0.125v-4l0.375-0.125q0.375-0.125 0.5-0.5t0.125-0.875 0.375-0.625 0.5-0.5 0.625-0.375 0.875-0.125 0.5-0.5 0.5-0.5 0.5-0.5m4.625 12.625q0.5 0 0.875-0.125t0.625-0.375 0.67188-0.42188l0.42188-0.17188-0.15626-0.09374 0.15625 0.09375q0.15626 0.09374 0.40626 0.09374h0.25-0.75l0.375-0.125q0.375-0.125 0.5-0.5l0.125-0.375-0.1875 0.5625 0.0625-0.1875q0.0625-0.1875 0.09375-0.40625l0.03125-0.21875-0.03126 0.21875 0.39062-0.10938q0.39064-0.10938 0.64064-0.35938t0.5-0.5 0.5-0.5 0.5-0.5 0.375-0.625 0.125-0.875 0-1-0.125-0.875-0.375-0.625-0.375-0.625-0.25-0.75-0.5-0.5-0.75 0-0.375 0.375 0.25 0.5 0.375 0.625 0.125 0.875-0.125 0.875-0.375 0.625-0.4375 0.6875l-0.1875 0.4375 0.125 0.125-0.125-0.125q-0.125-0.125-0.375-0.125h-0.25 0.75-0.5q-0.5 0-1 0t-0.875-0.125-0.625-0.375-0.5-0.5-0.375-0.625-0.125-0.875 0.125-0.875 0.375-0.625 0.5-0.5 0.625-0.375 0.875-0.125 0.875-0.125 0.375-0.375-0.25-0.5-0.5-0.5-0.625-0.375-0.875-0.125-1 0-1 0-1 0-1 0-0.875 0.125-0.625 0.375-0.5 0.5-0.25 0.5 0.375 0.375 0.875 0.125 0.875 0.125 0.625 0.375 0.5 0.5 0.375 0.625 0.125 0.875 0 1v0.5-0.75 0.25q0 0.25 0.03125 0.46875l0.03125 0.21875-0.03125-0.21875-0.39062 0.14062q-0.39062 0.14062-0.64062 0.39062t-0.625 0.375-0.875 0.125-0.875-0.125-0.625-0.375-0.5-0.5-0.375-0.625-0.125-0.875 0.125-0.875 0.375-0.625 0.25-0.5-0.4375-0.3125l-0.4375-0.0625 0.125 0.125-0.125-0.125q-0.125-0.125-0.375-0.125h-0.25 0.75l-0.375 0.125q-0.375 0.125-0.5 0.5l-0.125 0.375v-0.75 0.25q0 0.25 0.125 0.375l0.125 0.125-0.125-0.125-0.1875 0.4375q-0.1875 0.4375-0.4375 0.6875t-0.375 0.625-0.125 0.875 0 1 0.125 0.875 0.375 0.625 0.5 0.5 0.5 0.5 0.5 0.5 0.5 0.5 0.5 0.5 0.625 0.375 0.75 0.25 0.625 0.375 0.625 0.375 0.875 0.125 1 0 1 0m2-6q0.5 0 0.875-0.125t0.5-0.5 0.125-0.875-0.125-0.875-0.5-0.5-0.875-0.125-0.875 0.125-0.5 0.5-0.125 0.875 0.125 0.875 0.5 0.5 0.875 0.125m-6 0q0.5 0 0.875-0.125t0.5-0.5 0.125-0.875-0.125-0.875-0.5-0.5-0.875-0.125-0.875 0.125-0.5 0.5-0.125 0.875 0.125 0.875 0.5 0.5 0.875 0.125"/>
  <path d="m12.125 0.375-0.125-0.375h5v5l-0.375-0.125q-0.375-0.125-0.5-0.5t-0.125-0.875-0.375-0.625-0.5-0.5-0.625-0.375-0.875-0.125-0.5-0.5-0.5-0.5-0.5-0.5" fill-opacity="0"/>
  <g>
   <path d="m5 1.5q0.25-0.25 0.625-0.375t0.875-0.125 1 0 1 0 1 0 1 0 0.875 0.125 0.625 0.375 0.5 0.5 0.25 0.5-0.375 0.375-0.875 0.125-0.875 0.125-0.625 0.375-0.5 0.5-0.375 0.625-0.125 0.875 0.125 0.875 0.375 0.625 0.5 0.5 0.625 0.375 0.875 0.125 1 0 0.5 0.5 0 1 0 1-0.125 0.875-0.5 0.5-0.5-0.25-0.375-0.625-0.5-0.5-0.5-0.5-0.5-0.5-0.5-0.5-0.5-0.5-0.5-0.5-0.375-0.625-0.125-0.875 0-1-0.125-0.875-0.375-0.625-0.5-0.5-0.625-0.375-0.875-0.125-0.875-0.125-0.375-0.375 0.25-0.5 0.5-0.5" fill="#fc0"/>
   <path d="m2.125 3.625q0.125-0.375 0.5-0.5t0.25 0.25-0.5 0.5-0.25-0.25" fill="#fff"/>
   <path d="m2.875 3.375 0.125-0.375v0.75-0.25q0-0.25-0.125-0.375l-0.125-0.125 0.125 0.125 0.4375 0.0625q0.4375 0.0625 0.4375 0.3125t-0.25 0.5-0.375 0.625-0.125 0.875 0.125 0.875 0.375 0.625 0.5 0.5 0.625 0.375 0.875 0.125 0.875-0.125 0.625-0.375 0.64062-0.39062l0.39062-0.14062-0.03125-0.21875 0.03125 0.21875q0.03125 0.21875 0.09375 0.40625l0.0625 0.1875-0.1875-0.5625 0.125 0.375q0.125 0.375 0.375 0.625t0.5 0.5 0.5 0.5 0.5 0.5 0.5 0.5 0.5 0.5 0.5 0.5 0.375 0.625l0.125 0.375-0.1875-0.5625 0.0625 0.1875q0.0625 0.1875 0.21875 0.28125l0.15625 0.09375-0.15626-0.09374-0.42188 0.17188q-0.42186 0.17186-0.67186 0.42186t-0.625 0.375-0.875 0.125-1 0-1 0-0.875-0.125-0.625-0.375-0.625-0.375-0.75-0.25-0.625-0.375-0.5-0.5-0.5-0.5-0.5-0.5-0.5-0.5-0.5-0.5-0.375-0.625-0.125-0.875 0-1 0.125-0.875 0.375-0.625 0.4375-0.6875l0.1875-0.4375-0.125-0.125 0.125 0.125q0.125 0.125 0.375 0.125h0.25-0.75l0.375-0.125q0.375-0.125 0.5-0.5m4.375 5.125q0 0.25 0.25 0.25t0.25-0.25-0.25-0.25-0.25 0.25m1.75 2q0.25 0.25 0.5 0.25t0.25-0.25-0.25-0.5-0.5-0.5-0.5-0.25-0.25 0.25 0.25 0.5 0.5 0.5m1.25 1q0 0.25 0.25 0.25t0.25-0.25-0.25-0.25-0.25 0.25" fill="#0d2b88"/>
   <path d="m13.25 3.5q0-0.25 0.375-0.375t0.75 0 0.5 0.5 0.25 0.75 0.375 0.625 0.375 0.625 0.125 0.875 0 1-0.125 0.875-0.375 0.625-0.5 0.5-0.5 0.5-0.5 0.5-0.64062 0.35938l-0.39062 0.10938-0.03125 0.21875 0.03125-0.21875q0.03125-0.21875 0.03125-0.46875v-0.25 0.75-0.5q0-0.5 0-1t0-1v-0.5 0.75-0.25q0-0.25-0.125-0.375l-0.125-0.125 0.125 0.125 0.1875-0.4375q0.1875-0.4375 0.4375-0.6875t0.375-0.625 0.125-0.875-0.125-0.875-0.375-0.625-0.25-0.5" fill="#0d2b88"/>
  </g>
  <g fill="#fff">
   <path d="m4.125 4.625q0.125-0.375 0.5-0.5t0.875-0.125 0.875 0.125 0.5 0.5 0.125 0.875-0.125 0.875-0.5 0.5-0.875 0.125-0.875-0.125-0.5-0.5-0.125-0.875 0.125-0.875"/>
   <path d="m10.125 4.625q0.125-0.375 0.5-0.5t0.875-0.125 0.875 0.125 0.5 0.5 0.125 0.875-0.125 0.875-0.5 0.5-0.875 0.125-0.875-0.125-0.5-0.5-0.125-0.875 0.125-0.875"/>
   <path d="m7.25 8.5q0-0.25 0.25-0.25t0.25 0.25-0.25 0.25-0.25-0.25"/>
  </g>
  <path d="m0 9.5v-0.5l0.375 0.125q0.375 0.125 0.5 0.5t0.125 0.875 0.5 0.5 0.5 0.5 0.5 0.5 0.875 0.125 0.5 0.5 0.625 0.375 0.5 0.5v0.5h-5v-4.5" fill-opacity="0"/>
  <path d="m8.25 9.5q0-0.25 0.25-0.25t0.5 0.25 0.5 0.5 0.25 0.5-0.25 0.25-0.5-0.25-0.5-0.5-0.25-0.5" fill="#fff"/>
  <path d="m16.125 9.625q0.125-0.375 0.5-0.5l0.375-0.125v5h-5v-0.5q0-0.5 0.5-0.5t0.625-0.375 0.5-0.5 0.875-0.125 0.5-0.5 0.5-0.5 0.5-0.5 0.125-0.875" fill-opacity="0"/>
  <path d="m10.25 11.5q0-0.25 0.25-0.25t0.25 0.25-0.25 0.25-0.25-0.25" fill="#fff"/>
 </g>
</svg>
