<svg width="17" height="14" version="1.1" viewBox="0 0 17 14" xmlns="http://www.w3.org/2000/svg">
 <g transform="translate(0)">
  <path d="m0 0.5v-0.5h2v0.5q0 0.5-0.125 0.875t-0.5 0.5-0.875 0.125h-0.5v-1.5" fill-opacity="0"/>
  <path d="m2 0.5v-0.5h2l0.125 0.375q0.125 0.375 0.5 0.5l0.375 0.125-0.5625-0.1875 0.1875 0.0625q0.1875 0.0625 0.40625 0.09375l0.21875 0.03125-0.21875-0.03125-0.015625 0.51562q-0.015625 0.51562-0.015625 1.0156v0.5h-0.5q-0.5 0-0.875 0.125t-0.5 0.5-0.125 0.875v0.5h-0.5q-0.5 0-1.0156 0.015625l-0.51562 0.015625 0.03125 0.21875-0.03125-0.21875q-0.03125-0.21875-0.09375-0.40625l-0.0625-0.1875 0.1875 0.5625-0.125-0.375q-0.125-0.375-0.5-0.5l-0.375-0.125v-2h0.5q0.5 0 0.875-0.125t0.5-0.5 0.125-0.875m1 4.625v-0.875 0.25q0 0.25 0 0.5v0.25-0.125m1.625-2.125h0.625-0.25q-0.25 0-0.5 0h-0.25 0.375" fill="#ed1c24"/>
  <path d="m4.125 0.375-0.125-0.375h1v1l-0.375-0.125q-0.375-0.125-0.5-0.5" fill-opacity="0"/>
  <path d="m5 0.5v-0.5h7l0.125 0.375q0.125 0.375 0.5 0.5t0.5 0.5 0.5 0.5 0.875 0.125 0.625 0.375 0.5 0.5 0.375 0.625 0.125 0.875 0.5 0.5l0.375 0.125v4l-0.375 0.125q-0.375 0.125-0.5 0.5t-0.125 0.875-0.5 0.5-0.5 0.5-0.5 0.5-0.875 0.125-0.5 0.5-0.625 0.375-0.5 0.5v0.5h-7v-0.5q0-0.5-0.5-0.5t-0.625-0.375-0.5-0.5-0.875-0.125-0.5-0.5-0.5-0.5-0.5-0.5-0.125-0.875-0.5-0.5l-0.375-0.125v-4h1v0.5q0 0.5 0 1t0 1 0.125 0.875 0.375 0.625 0.5 0.5 0.625 0.375l0.375 0.125h-0.75 0.25q0.25 0 0.375-0.125l0.125-0.125-0.125 0.125 0.1875 0.4375q0.1875 0.4375 0.625 0.625l0.4375 0.1875 0.125-0.125-0.125 0.125q-0.125 0.125-0.125 0.375v0.25-0.75l0.125 0.375q0.125 0.375 0.5 0.5t0.875 0.125h0.5l0.125 0.375q0.125 0.375 0.5 0.5t0.875 0.125 1 0 1 0 0.875-0.125 0.5-0.5l0.125-0.375v0.75-0.25q0-0.25-0.125-0.375l-0.125-0.125 0.125 0.125 1.25-0.25-0.125-0.125 0.125 0.125q0.125 0.125 0.375 0.125h0.25-0.75l0.375-0.125q0.375-0.125 0.48438-0.51562l0.10938-0.39062-0.21875 0.03125 0.21875-0.03125q0.21875-0.03125 0.40625-0.09375l0.1875-0.0625-0.5625 0.1875 0.375-0.125q0.375-0.125 0.5-0.5l0.125-0.375-0.1875 0.5625 0.0625-0.1875q0.0625-0.1875 0.09375-0.40625l0.03125-0.21875-0.03125 0.21875 0.39062-0.10938q0.39062-0.10938 0.64062-0.35938t0.5-0.5 0.375-0.625 0.125-0.875 0-1-0.125-0.875-0.375-0.625-0.375-0.625-0.25-0.75-0.5-0.5-0.875-0.125h-0.5l-0.125-0.375q-0.125-0.375-0.375-0.625t-0.5-0.5-0.625-0.375-0.875-0.125-1 0-1 0-1 0-1 0-1 0h-0.5v-0.5m1.125 11.5h-0.875 0.25q0.25 0 0.5 0h0.25-0.125"/>
  <path d="m12.125 0.375-0.125-0.375h5v5l-0.375-0.125q-0.375-0.125-0.5-0.5t-0.125-0.875-0.375-0.625-0.5-0.5-0.625-0.375-0.875-0.125-0.5-0.5-0.5-0.5-0.5-0.5" fill-opacity="0"/>
  <g>
   <path d="m5.0156 1.4844 0.015625-0.51562-0.21875-0.03125 0.21875 0.03125q0.21875 0.03125 0.46875 0.03125h0.25-0.75 0.5q0.5 0 1 0t1 0 1 0 1 0 1 0 0.875 0.125 0.625 0.375 0.5 0.5 0.375 0.625l0.125 0.375h-0.5q-0.5 0-1 0t-0.875 0.125-0.625 0.375-0.5 0.5-0.375 0.625-0.125 0.875 0.125 0.875 0.375 0.625 0.25 0.5-0.375 0.375-0.875 0.125-0.875-0.125-0.375-0.375 0.25-0.5 0.375-0.625 0.125-0.875-0.125-0.875-0.375-0.625-0.5-0.5-0.625-0.375-0.875-0.125h-0.5v-0.5q0-0.5 0.015625-1.0156m-0.14062 1.5156h0.875-0.25q-0.25 0-0.5 0h-0.25 0.125" fill="#fff"/>
   <path d="m3.125 3.625q0.125-0.375 0.5-0.5l0.375-0.125-0.5625 0.1875 0.1875-0.0625q0.1875-0.0625 0.40625-0.09375l0.21875-0.03125-0.21875 0.03125-0.14062 0.35938q-0.14062 0.35938-0.5 0.5l-0.35938 0.14062-0.03125 0.21875 0.03125-0.21875q0.03125-0.21875 0.09375-0.40625l0.0625-0.1875-0.1875 0.5625 0.125-0.375" fill="#fff"/>
   <path d="m3.8906 3.3906 0.14062-0.35938-0.21875 0.03125 0.21875-0.03125q0.21875-0.03125 0.46875-0.03125h0.25-0.75 0.5q0.5 0 1 0t0.875 0.125 0.625 0.375 0.5 0.5 0.375 0.625 0.125 0.875-0.125 0.875-0.375 0.625-0.25 0.5 0.375 0.375 0.875 0.125 0.875-0.125 0.375-0.375-0.25-0.5-0.375-0.625-0.125-0.875 0.125-0.875 0.375-0.625 0.5-0.5 0.625-0.375 0.875-0.125 1 0h0.5l0.125 0.375q0.125 0.375 0.375 0.625t0.375 0.625 0.125 0.875-0.125 0.875-0.375 0.625-0.39062 0.64062l-0.14062 0.39062 0.21875 0.03125-0.21875-0.03125q-0.21875-0.03125-0.46875-0.03125h-0.25 0.75-0.5q-0.5 0-1 0t-0.875 0.125-0.5 0.5l-0.125 0.375v-0.75 0.25q0 0.25 0.125 0.375l0.125 0.125-0.125-0.125-0.1875 0.4375q-0.1875 0.4375-0.4375 0.6875t-0.42188 0.67188l-0.17188 0.42188 0.15625 0.09375-0.15625-0.09375q-0.15625-0.09375-0.40625-0.09375h-0.25 0.75-0.5q-0.5 0-1 0h-0.5 0.75-0.25q-0.25 0-0.46875-0.03125l-0.21875-0.03125 0.21875 0.03125v-0.9375l-0.21875 0.03125 0.21875-0.03125q0.21875-0.03125 0.46875-0.03125h0.25-0.75 0.5q0.5 0 0.875-0.125t0.375-0.375-0.375-0.375-0.875-0.125h-0.5l-0.125-0.375q-0.125-0.375-0.5-0.5l-0.375-0.125h0.75-0.25q-0.25 0-0.375 0.125l-0.125 0.125 0.125-0.125-0.5625-0.0625q-0.5625-0.0625-1.1094-0.10938l-0.54688-0.046875-0.09375 0.15625 0.09375-0.15625q0.09375-0.15625 0.09375-0.40625v-0.25 0.75l-0.125-0.375q-0.125-0.375-0.375-0.625t-0.375-0.625-0.125-0.875 0-1v-0.5 0.75-0.25q0-0.25 0.03125-0.46875l0.03125-0.21875-0.03125 0.21875 0.35938-0.14062q0.35938-0.14062 0.5-0.5m1.6094 3.6094q0.5 0 0.875-0.125t0.5-0.5 0.125-0.875-0.125-0.875-0.5-0.5-0.875-0.125-0.875 0.125-0.5 0.5-0.125 0.875 0.125 0.875 0.5 0.5 0.875 0.125m1.375 2h0.875-0.25q-0.25 0-0.5 0h-0.25 0.125m4.625-2q0.5 0 0.875-0.125t0.5-0.5 0.125-0.875-0.125-0.875-0.5-0.5-0.875-0.125-0.875 0.125-0.5 0.5-0.125 0.875 0.125 0.875 0.5 0.5 0.875 0.125"/>
   <path d="m13.125 3.375-0.125-0.375h0.5q0.5 0 0.875 0.125t0.5 0.5 0.25 0.75 0.375 0.625 0.375 0.625 0.125 0.875 0 1-0.125 0.875-0.375 0.625-0.5 0.5-0.64062 0.35938l-0.39062 0.10938-0.03125 0.21875 0.03125-0.21875q0.03125-0.21875 0.03125-0.46875v-0.25 0.75-0.5q0-0.5-0.125-0.875t-0.5-0.5l-0.375-0.125 0.5625 0.1875-0.1875-0.0625q-0.1875-0.0625-0.40625-0.09375l-0.21875-0.03125 0.21875 0.03125 0.14062-0.39062q0.14062-0.39062 0.39062-0.64062t0.375-0.625 0.125-0.875-0.125-0.875-0.375-0.625-0.375-0.625" fill="#fff"/>
  </g>
  <path d="m0 4.5v-0.5l0.375 0.125q0.375 0.125 0.5 0.5l0.125 0.375h-1v-0.5" fill-opacity="0"/>
  <g fill="#fff">
   <path d="m4.125 4.625q0.125-0.375 0.5-0.5t0.875-0.125 0.875 0.125 0.5 0.5 0.125 0.875-0.125 0.875-0.5 0.5-0.875 0.125-0.875-0.125-0.5-0.5-0.125-0.875 0.125-0.875"/>
   <path d="m10.125 4.625q0.125-0.375 0.5-0.5t0.875-0.125 0.875 0.125 0.5 0.5 0.125 0.875-0.125 0.875-0.5 0.5-0.875 0.125-0.875-0.125-0.5-0.5-0.125-0.875 0.125-0.875"/>
   <path d="m1 5.5v-0.5 0.75-0.25q0-0.25-0.03125-0.46875l-0.03125-0.21875 0.03125 0.21875 0.51562-0.015625q0.51562-0.015625 1.0156-0.015625h0.5v0.5q0 0.5 0.125 0.875t0.375 0.625 0.375 0.625-0.25 0.5-0.5 0.5-0.125 0.875-0.375 0.375-0.625-0.375-0.5-0.5-0.375-0.625-0.125-0.875 0-1 0-1m2-0.125v-0.625 0.25q0 0.25 0 0.5v0.25-0.375"/>
  </g>
  <g>
   <path d="m3.125 8.625q0.125-0.375 0.5-0.5l0.375-0.125-0.5625 0.1875 0.1875-0.0625q0.1875-0.0625 0.28125-0.21875l0.09375-0.15625-0.09375 0.15625 0.54688 0.046875q0.54688 0.046875 1.1094 0.10938l0.5625 0.0625 0.125-0.125-0.125 0.125q-0.125 0.125-0.125 0.375v0.25-0.75 0.5q0 0.5-0.125 0.875t-0.375 0.625-0.375 0.625l-0.125 0.375 0.1875-0.5625-0.0625 0.1875q-0.0625 0.1875-0.09375 0.40625l-0.03125 0.21875 0.03125-0.21875-1.0312-0.03125h0.75-0.25q-0.25 0-0.375 0.125l-0.125 0.125 0.125-0.125-0.4375-0.1875q-0.4375-0.1875-0.625-0.625l-0.1875-0.4375-0.125 0.125 0.125-0.125q0.125-0.125 0.125-0.375v-0.25 0.75-0.5q0-0.5 0.125-0.875m1.125 0.875q0 0.25 0.25 0.25t0.25-0.25-0.25-0.25-0.25 0.25" fill="#0085c7"/>
   <path d="m6 8.5q0-0.5 0.375-0.375t0.5 0.5l0.125 0.375-1.0312-0.03125-0.03125 0.21875 0.03125-0.21875q0.03125-0.21875 0.03125-0.46875v-0.25 0.75-0.5m0.625 0.5h0.625-0.25q-0.25 0-0.5 0h-0.25 0.375" fill="#fff"/>
   <path d="m10.125 8.625q0.125-0.375 0.5-0.5l0.375-0.125-0.5625 0.1875 0.1875-0.0625q0.1875-0.0625 0.40625-0.09375l0.21875-0.03125-0.21875 0.03125-0.03125 0.96875h-0.5q-0.5 0-0.375-0.375m0.5 0.375h0.625-0.25q-0.25 0-0.5 0h-0.25 0.375" fill="#fff"/>
   <path d="m11.016 8.5156 0.015625-0.48438-0.21875 0.03125 0.21875-0.03125q0.21875-0.03125 0.46875-0.03125h0.25-0.75 0.5q0.5 0 1 0t0.875 0.125 0.5 0.5 0.125 0.875-0.125 0.875-0.5 0.5-0.875 0.125-1 0h-0.5 0.75-0.25q-0.25 0-0.46875-0.03125l-0.21875-0.03125 0.21875 0.03126v-0.93751l-0.21875 0.03126 0.21875-0.03125q0.21875-0.03126 0.46875-0.03126h0.25-0.75 0.5q0.5 0 0.875-0.125t0.375-0.375-0.375-0.375-0.875-0.125h-0.5l0.01563-0.48438m-0.14063 0.48438h0.875-0.25q-0.25 0-0.5 0h-0.25 0.125" fill="#df0024"/>
  </g>
  <path d="m0 9.5v-0.5l0.375 0.125q0.375 0.125 0.5 0.5t0.125 0.875 0.5 0.5 0.5 0.5 0.5 0.5 0.875 0.125 0.5 0.5 0.625 0.375 0.5 0.5v0.5h-5v-4.5" fill-opacity="0"/>
  <g>
   <path d="m4.25 9.5q0-0.25 0.25-0.25t0.25 0.25-0.25 0.25-0.25-0.25" fill="#fff"/>
   <path d="m5.875 9.375 0.125-0.375-0.1875 0.5625 0.0625-0.1875q0.0625-0.1875 0.09375-0.40625l0.03125-0.21875-0.03125 0.21875 0.51562 0.015625q0.51562 0.015625 1.0156 0.015625h0.5-0.75 0.25q0.25 0 0.46875 0.03125l0.21875 0.03125-0.21875-0.03125v0.9375l0.21875-0.03125-0.21875 0.03125q-0.21875 0.03125-0.46875 0.03125h-0.25 0.75-0.5q-0.5 0-0.875 0.125t-0.375 0.375 0.375 0.375 0.875 0.125h0.5l-0.125 0.375q-0.125 0.375-0.5 0.5t-0.875 0.125-1 0h-0.5 0.75-0.25q-0.25 0-0.46875-0.03125l-0.21875-0.03125 0.21875 0.03125-0.015625-0.48438q-0.015625-0.48438 0.10938-0.85938t0.375-0.625 0.375-0.625m2.25 1.625h-0.875 0.25q0.25 0 0.5 0h0.25-0.125" fill="#f4c300"/>
   <path d="m7.9688 9.5v-0.46875l-0.21875-0.03125 0.21875 0.03125q0.21875 0.03125 0.40625 0.09375l0.1875 0.0625-0.5625-0.1875 0.375 0.125q0.375 0.125 0.375 0.375t-0.375 0.375l-0.375 0.125 0.5625-0.1875-0.1875 0.0625q-0.1875 0.0625-0.40625 0.09375l-0.21875 0.03125 0.21875-0.03125v-0.46875" fill="#fff"/>
   <path d="m9.9375 9.3125 0.1875-0.4375-0.125-0.125 0.125 0.125q0.125 0.125 0.375 0.125h0.25-0.75 0.5q0.5 0 1 0h0.5-0.75 0.25q0.25 0 0.46875 0.03125l0.21875 0.03125-0.21875-0.03125v0.9375l0.21875-0.03125-0.21875 0.03125q-0.21875 0.03125-0.46875 0.03125h-0.25 0.75-0.5q-0.5 0-0.875 0.125t-0.375 0.375 0.375 0.375 0.875 0.125h0.5v1-0.75 0.25q0 0.25 0.125 0.375l0.125 0.125-0.125-0.125-1.25 0.25 0.125 0.125-0.125-0.125q-0.125-0.125-0.375-0.125h-0.25 0.75-0.5q-0.5 0-0.875-0.125t-0.5-0.5l-0.125-0.375 0.1875 0.5625-0.0625-0.1875q-0.0625-0.1875-0.21875-0.28125l-0.15625-0.09375 0.15625 0.09375 0.17188-0.42188q0.17188-0.42188 0.42188-0.67188t0.4375-0.6875m2.1875 1.6875h-0.875 0.25q0.25 0 0.5 0h0.25-0.125" fill="#009f3d"/>
   <path d="m11.969 9.5v-0.46875l-0.21875-0.03125 0.21875 0.03125q0.21875 0.03125 0.40625 0.09375l0.1875 0.0625-0.5625-0.1875 0.375 0.125q0.375 0.125 0.375 0.375t-0.375 0.375l-0.375 0.125 0.5625-0.1875-0.1875 0.0625q-0.1875 0.0625-0.40625 0.09375l-0.21875 0.03125 0.21875-0.03125v-0.46875" fill="#fff"/>
  </g>
  <path d="m16.125 9.625q0.125-0.375 0.5-0.5l0.375-0.125v5h-5v-0.5q0-0.5 0.5-0.5t0.625-0.375 0.5-0.5 0.875-0.125 0.5-0.5 0.5-0.5 0.5-0.5 0.125-0.875" fill-opacity="0"/>
  <g fill="#fff">
   <path d="m6.25 10.5q0-0.25 0.375-0.375l0.375-0.125-0.5625 0.1875 0.1875-0.0625q0.1875-0.0625 0.40625-0.09375l0.21875-0.03125-0.21875 0.03125v0.9375l0.21875 0.03125-0.21875-0.03125q-0.21875-0.03125-0.40625-0.09375l-0.1875-0.0625 0.5625 0.1875-0.375-0.125q-0.375-0.125-0.375-0.375"/>
   <path d="m10.25 10.5q0-0.25 0.375-0.375l0.375-0.125-0.5625 0.1875 0.1875-0.0625q0.1875-0.0625 0.40625-0.09375l0.21875-0.03125-0.21875 0.03125v0.9375l0.10938 0.01563 0.10938 0.01562-0.21875-0.03125q-0.21875-0.03125-0.40625-0.09375l-0.1875-0.0625 0.5625 0.1875-0.375-0.125q-0.375-0.125-0.375-0.375"/>
   <path d="m4.125 11.375q-0.125-0.375 0.39062-0.35938l0.51562 0.015625 0.03125-0.21875-0.03125 0.21875q-0.03125 0.21875-0.03125 0.46875v0.25-0.75l0.03125 0.96875 0.21875 0.03125-0.21875-0.03125q-0.21875-0.03125-0.40625-0.09375l-0.1875-0.0625 0.5625 0.1875-0.375-0.125q-0.375-0.125-0.5-0.5"/>
   <path d="m7.875 11.375 0.125-0.375h0.5q0.5 0 0.625 0.375t0.5 0.5 0.875 0.125 0.375 0.375-0.5 0.5-0.875 0.125-1 0-1 0-0.875-0.125-0.5-0.5l-0.125-0.375h0.5q0.5 0 0.875-0.125t0.5-0.5m-1.5 0.625h-0.625 0.25q0.25 0 0.5 0h0.25-0.375m2-1h-0.625 0.25q0.25 0 0.5 0h0.25-0.375"/>
   <path d="m12 11.5v-0.5h1-0.75 0.25q0.25 0 0.46875-0.03125l0.21875-0.03125-0.21875 0.03126-0.10938 0.39062q-0.10938 0.39062-0.48438 0.51562t-0.375-0.375m0.375-0.5h-0.625 0.25q0.25 0 0.5 0h0.25-0.375"/>
  </g>
 </g>
</svg>
