<svg width="17" height="18" version="1.1" viewBox="0 0 17 18" xmlns="http://www.w3.org/2000/svg">
 <g transform="translate(0)">
  <g>
   <path d="m0 0.5v-0.5h17v2l-0.375 0.125q-0.375 0.125-0.5 0.5t-0.125 0.875-0.375 0.625-0.5 0.5-0.125 0.875-0.5 0.5-0.5 0.5 0 1-0.5 0.5-0.5 0.5 0 1-0.375 0.625-0.5 0.5-0.125 0.875-0.375 0.625-0.5 0.5-0.125 0.875-0.375 0.625-0.5 0.5-0.125 0.875-0.375 0.625-0.5 0.5-0.125 0.875v0.5h-1v-0.5q0-0.5-0.125-0.875t-0.5-0.5-0.375-0.625-0.125-0.875-0.5-0.5-0.375-0.625-0.125-0.875-0.5-0.5-0.375-0.625-0.125-0.875-0.5-0.5-0.375-0.625 0-1-0.5-0.5-0.5-0.5 0-1-0.5-0.5-0.5-0.5-0.125-0.875-0.5-0.5-0.375-0.625-0.125-0.875-0.5-0.5l-0.375-0.125v-1.5m8.125 14.875q0.125 0.375 0.375 0.375t0.375-0.375 0.125-0.875v-0.5 0.75-0.25q0-0.25-0.03125-0.46875l-0.03125-0.21875 0.03125 0.21875 0.39062-0.14062q0.39062-0.14062 0.51562-0.51562t0.125-0.875v-0.5l0.375-0.125q0.375-0.125 0.5-0.5t0.125-0.875v-0.5l0.375-0.125q0.375-0.125 0.5-0.5t0-0.75-0.5-0.5-0.75-0.25-0.625-0.375-0.625-0.375-0.375-0.625v-0.5 0.75-0.25q0-0.25-0.125-0.375l-0.125-0.125 0.125 0.125v-1.25l-0.125 0.125 0.125-0.125q0.125-0.125 0.125-0.375v-0.25 0.75-0.5q0-0.5 0.375-0.625t0.625-0.375 0.625-0.375 0.875-0.125 0.875 0.125 0.625 0.375 0.625 0.375 0.75 0 0.5-0.5 0.25-0.75 0.375-0.625 0.25-0.5-0.375-0.375-0.875-0.125-1 0-1 0-1 0-1 0-1 0-1 0-1 0-1 0-1 0h-0.5l-1.125 0.125 0.125 0.125-0.125-0.125q-0.125-0.125-0.375-0.125h-0.25 0.75-2 0.75-0.25q-0.25 0-0.375 0.125l-0.125 0.125 0.125-0.125-0.4375 0.0625q-0.4375 0.0625-0.4375 0.3125t0.375 0.375l0.375 0.125v0.5q0 0.5 0.125 0.875t0.5 0.5 0.75 0 0.5-0.5l0.125-0.375h0.5q0.5 0 1 0t1 0h0.5l0.125 0.375q0.125 0.375 0.375 0.625t0.375 0.625l0.125 0.375-0.1875-0.5625 0.0625 0.1875q0.0625 0.1875 0.21875 0.28125l0.15625 0.09375-0.15625-0.09375 0.03125 1.2188 0.125-0.125-0.125 0.125q-0.125 0.125-0.125 0.375v0.25-0.75 0.5q0 0.5-0.375 0.625t-0.625 0.375-0.625 0.375-0.75 0.25-0.5 0.5 0 0.75 0.375 0.625 0.375 0.625 0.25 0.75 0.375 0.625 0.375 0.625 0.25 0.75 0.375 0.625 0.375 0.625 0.25 0.75m3.375-8.375q0.5 0 0.875-0.125t0.5-0.5 0.125-0.875-0.125-0.875-0.5-0.5-0.875-0.125-0.875 0.125-0.5 0.5-0.125 0.875 0.125 0.875 0.5 0.5 0.875 0.125m-9.5-4.625v-0.625 0.25q0 0.25 0 0.5v0.25-0.375m3.5 4.625q0.5 0 0.875-0.125t0.5-0.5 0.125-0.875-0.125-0.875-0.5-0.5-0.875-0.125-0.875 0.125-0.5 0.5-0.125 0.875 0.125 0.875 0.5 0.5 0.875 0.125"/>
   <path d="m1.25 1.5q0-0.25 0.4375-0.3125l0.4375-0.0625 0.125-0.125-0.125 0.125q-0.125 0.125-0.125 0.375v0.25-0.75 1l-0.375-0.125q-0.375-0.125-0.375-0.375m0.75 0.625v-0.875 0.25q0 0.25 0 0.5v0.25-0.125" fill="#000e75"/>
   <path d="m2 1.5q0-0.5 0.5-0.5h0.5v1h-1v-0.5m0 0.125v0.625-0.25q0-0.25 0-0.5v-0.25 0.375" fill="#fc7a7f"/>
   <path d="m3 1.5v-0.5h0.5q0.5 0 0.5 0.5v0.5h-1v-0.5" fill="#fd7a7f"/>
   <path d="m4 1.5v-0.5 0.75-0.25q0-0.25-0.125-0.375l-0.125-0.125 0.125 0.125 1.125-0.125v1h-1v-0.5" fill="#00137a"/>
   <path d="m5 1.5v-0.5h1v1h-1v-0.5m1.125-0.5h-0.875 0.25q0.25 0 0.5 0h0.25-0.125" fill="#001b7e"/>
   <path d="m6 1.5v-0.5h1v1h-1v-0.5m1.125-0.5h-0.875 0.25q0.25 0 0.5 0h0.25-0.125m-0.75 0h-0.625 0.25q0.25 0 0.5 0h0.25-0.375" fill="#504482"/>
   <path d="m7 1.5v-0.5h1v1h-1v-0.5m1.125-0.5h-0.875 0.25q0.25 0 0.5 0h0.25-0.125m-0.75 0h-0.625 0.25q0.25 0 0.5 0h0.25-0.375" fill="#e67c89"/>
   <path d="m8 1.5v-0.5h1v1h-1v-0.5m1 0.625v-0.875 0.25q0 0.25 0 0.5v0.25-0.125m0.125-1.125h-0.875 0.25q0.25 0 0.5 0h0.25-0.125m-0.75 0h-0.625 0.25q0.25 0 0.5 0h0.25-0.375" fill="#f2c2c8"/>
   <path d="m9 1.5v-0.5h0.5q0.5 0 1 0t1 0 1 0 1 0 1 0 0.875 0.125 0.375 0.375-0.25 0.5-0.375 0.625-0.25 0.75-0.5 0.5-0.75 0-0.625-0.375-0.625-0.375-0.875-0.125-0.875 0.125-0.625 0.375-0.625 0.375l-0.375 0.125 0.5625-0.1875-0.1875 0.0625q-0.1875 0.0625-0.28125 0.21875l-0.09375 0.15625 0.09375-0.15625-0.21875-1.2188-0.125 0.125 0.125-0.125q0.125-0.125 0.125-0.375v-0.25 0.75-0.5q0-0.5 0-1m0.375-0.5h-0.625 0.25q0.25 0 0.5 0h0.25-0.375" fill="#c00"/>
  </g>
  <path d="m0 2.5v-0.5l0.375 0.125q0.375 0.125 0.5 0.5t0.125 0.875 0.375 0.625 0.5 0.5 0.125 0.875 0.5 0.5 0.5 0.5 0 1 0.5 0.5 0.5 0.5 0 1 0.375 0.625 0.5 0.5 0.125 0.875 0.375 0.625 0.5 0.5 0.125 0.875 0.375 0.625 0.5 0.5 0.125 0.875 0.375 0.625 0.5 0.5 0.125 0.875v0.5h-8v-15.5" fill-opacity="0"/>
  <g>
   <path d="m2 2.5v-0.5h1v1l-0.96875-0.03125 0.03125 0.21875-0.03125-0.21875q-0.03125-0.21875-0.03125-0.46875v-0.25 0.75-0.5m0-0.625v0.875-0.25q0-0.25 0-0.5v-0.25 0.125" fill="#f1767e"/>
   <path d="m3 2.5v-0.5h1v1h-1v-0.5" fill="#f27c84"/>
   <path d="m4 2.5v-0.5h1v1h-1v-0.5m0.625 0.5h0.625-0.25q-0.25 0-0.5 0h-0.25 0.375m0.5-1h-0.875 0.25q0.25 0 0.5 0h0.25-0.125" fill="#40498c"/>
   <path d="m5 2.5v-0.5h1v1h-1v-0.5m-0.125 0.5h0.875-0.25q-0.25 0-0.5 0h-0.25 0.125m0.75 0h0.625-0.25q-0.25 0-0.5 0h-0.25 0.375m-0.25-1h-0.625 0.25q0.25 0 0.5 0h0.25-0.375" fill="#f08991"/>
   <path d="m6 2.5v-0.5h1v1h-1v-0.5m-0.125 0.5h0.875-0.25q-0.25 0-0.5 0h-0.25 0.125" fill="#f3cbd0"/>
   <path d="m7 2.5v-0.5h1v1-0.75 0.25q0 0.25 0.125 0.375l0.125 0.125-0.125-0.125-1.125 0.125v-0.5" fill="#4f87c3"/>
   <path d="m8 2.5v-0.5h1v0.5q0 0.5-0.5 0.5t-0.5-0.5m1-0.125v-0.625 0.25q0 0.25 0 0.5v0.25-0.375" fill="#000673"/>
  </g>
  <path d="m16.125 2.625q0.125-0.375 0.5-0.5l0.375-0.125v16h-8v-0.5q0-0.5 0.125-0.875t0.5-0.5 0.375-0.625 0.125-0.875 0.5-0.5 0.375-0.625 0.125-0.875 0.5-0.5 0.375-0.625 0.125-0.875 0.5-0.5 0.375-0.625 0-1 0.5-0.5 0.5-0.5 0-1 0.5-0.5 0.5-0.5 0.125-0.875 0.5-0.5 0.375-0.625 0.125-0.875" fill-opacity="0"/>
  <g>
   <path d="m2.125 3.375-0.125-0.375 0.1875 0.5625-0.0625-0.1875q-0.0625-0.1875-0.09375-0.40625l-0.03125-0.21875 0.03125 0.21875 0.96875 0.03125h1l-0.125 0.375q-0.125 0.375-0.5 0.5t-0.75 0-0.5-0.5" fill="#d32b3f"/>
   <path d="m7.125 3.375-0.125-0.375 1.125-0.125 0.0625 0.4375q0.0625 0.4375-0.20312 0.70312l-0.26562 0.26562 0.09375 0.15625-0.09375-0.15625q-0.09375-0.15625-0.21875-0.28125l-0.125-0.125 0.375 0.375-0.25-0.25q-0.25-0.25-0.375-0.625" fill="#f06f78"/>
   <path d="m8.1875 3.3125-0.0625-0.4375-0.125-0.125 0.125 0.125q0.125 0.125 0.375 0.125h0.25-0.75 1-0.75 0.25q0.25 0 0.375-0.125l0.125-0.125-0.125 0.125 0.21875 1.2188 0.09375-0.15625-0.09375 0.15625q-0.09375 0.15625-0.09375 0.40625v0.25-0.75 0.5q0 0.5-0.5 0.5t-0.625-0.375l-0.125-0.375 0.1875 0.5625-0.0625-0.1875q-0.0625-0.1875-0.15625-0.34375l-0.09375-0.15625 0.09375 0.15625 0.26562-0.26562q0.26562-0.26562 0.20312-0.70312" fill="#fc797e"/>
   <path d="m4.125 4.625q0.125-0.375 0.5-0.5t0.875-0.125 0.875 0.125 0.5 0.5 0.125 0.875-0.125 0.875-0.5 0.5-0.875 0.125-0.875-0.125-0.5-0.5-0.125-0.875 0.125-0.875" fill="#fff"/>
   <path d="m10.125 4.625q0.125-0.375 0.5-0.5t0.875-0.125 0.875 0.125 0.5 0.5 0.125 0.875-0.125 0.875-0.5 0.5-0.875 0.125-0.875-0.125-0.5-0.5-0.125-0.875 0.125-0.875" fill="#fff"/>
   <path d="m8.1094 5.5156-0.015625-0.60938-0.15625-0.09375 0.15625 0.09375q0.15625 0.09375 0.40625 0.09375h0.25-0.75 1-0.75 0.25q0.25 0 0.375-0.125l0.125-0.125-0.125 0.125v1.25l0.125 0.125-0.125-0.125q-0.125-0.125-0.375-0.125h-0.25 0.75-1 0.75-0.25q-0.25 0-0.375 0.125l-0.125 0.125 0.125-0.125-0.015625-0.60938" fill="#00127e"/>
   <path d="m8 6.5q0-0.5 0.5-0.5t0.5 0.5v0.5-0.75 0.25q0 0.25 0.09375 0.40625l0.09375 0.15625-0.09375-0.15625h-1.1875l-0.09375 0.15625 0.09375-0.15625q0.09375-0.15625 0.09375-0.40625v-0.25 0.75-0.5" fill="#e5828e"/>
   <path d="m7 7.5q0.25-0.25 0.625-0.375l0.375-0.125-0.5625 0.1875 0.1875-0.0625q0.1875-0.0625 0.28125-0.21875l0.09375-0.15625-0.09375 0.15625h1.1875l-0.09375-0.15625 0.09375 0.15625q0.09375 0.15625 0.28125 0.21875l0.1875 0.0625-0.5625-0.1875 0.375 0.125q0.375 0.125 0.625 0.375l0.25 0.25-0.375-0.375 0.125 0.125q0.125 0.125 0.28125 0.21875l0.15625 0.09375-0.15625-0.09375-0.59375 0.59375 0.125 0.125-0.125-0.125q-0.125-0.125-0.3125-0.1875l-0.1875-0.0625 0.5625 0.1875-0.375-0.125q-0.375-0.125-0.75 0t-0.5 0.5-0.125 0.875 0 1 0 1 0.125 0.875 0.375 0.625 0.375 0.625 0.125 0.875-0.125 0.875-0.375 0.375-0.375-0.375-0.25-0.75-0.375-0.625-0.375-0.625-0.25-0.75-0.375-0.625-0.375-0.625-0.25-0.75-0.375-0.625-0.375-0.625 0-0.75 0.5-0.5 0.75-0.25 0.625-0.375" fill="#c00"/>
   <path d="m8.125 8.625q0.125-0.375 0.5-0.5t0.75 0 0.5 0.5 0.125 0.875v0.5l-0.375 0.125q-0.375 0.125-0.5 0.5t-0.125 0.875v0.5l-0.96875-0.03125 0.03125 0.21875-0.03125-0.21875q-0.03125-0.21875-0.03125-0.46875v-0.25 0.75-0.5q0-0.5 0-1t0-1 0.125-0.875" fill="#fff"/>
   <path d="m9.875 8.625-0.125-0.375 0.1875 0.5625-0.0625-0.1875q-0.0625-0.1875-0.1875-0.3125l-0.125-0.125 0.125 0.125 0.59375-0.59375-0.15625-0.09375 0.15625 0.09375q0.15625 0.09375 0.34375 0.15625l0.1875 0.0625-0.5625-0.1875 0.75 0.25v0.5q0 0.5 0 1v0.5h-1v-0.5q0-0.5-0.125-0.875m1.2188-0.59375-0.65625-0.21875 0.1875 0.0625q0.1875 0.0625 0.375 0.125l0.1875 0.0625-0.09375-0.03125" fill="#d40000"/>
   <path d="m11 8.5v-0.5l0.375 0.125q0.375 0.125 0.5 0.5t0 0.75-0.5 0.5l-0.375 0.125v-0.5q0-0.5 0-1m0.28125-0.40625-0.46875-0.15625 0.1875 0.0625q0.1875 0.0625 0.375 0.125l0.1875 0.0625-0.28125-0.09375" fill="#fff"/>
   <path d="m9.125 10.625q0.125-0.375 0.5-0.5l0.375-0.125v1l-0.96875 0.03125-0.03125 0.21875 0.03125-0.21875q0.03125-0.21875 0.09375-0.40625l0.0625-0.1875-0.1875 0.5625 0.125-0.375" fill="#e4cb5e"/>
   <path d="m10 10.5v-0.5h1v1-0.75 0.25q0 0.25-0.03125 0.46875l-0.03125 0.21875 0.03126-0.21875-0.48438 0.01563-0.48438 0.01562v-0.5" fill="#64b4d1"/>
   <path d="m9 11.5v-0.5 0.75-0.25q0-0.25 0.03125-0.46875l0.03125-0.21875-0.03125 0.21875 0.96875-0.03125v1h-1v-0.5" fill="#ccc"/>
   <path d="m10 11.5v-0.5l0.96875-0.03126 0.01563-0.10938 0.01562-0.10936-0.03125 0.21875q-0.03125 0.21875-0.09375 0.40625l-0.0625 0.1875 0.1875-0.5625-0.125 0.375q-0.125 0.375-0.5 0.5l-0.375 0.125v-0.5" fill="#784421"/>
   <path d="m8.125 12.375-0.125-0.375 0.1875 0.5625-0.0625-0.1875q-0.0625-0.1875-0.09375-0.40625l-0.03125-0.21875 0.03125 0.21875 0.96875 0.03125 0.125 0.375q0.125 0.375 0.48438 0.48438l0.35938 0.10938 0.03125-0.21875-0.03125 0.21875q-0.03125 0.21875-0.09375 0.40625l-0.0625 0.1875 0.1875-0.5625-0.125 0.375q-0.125 0.375-0.51562 0.51562l-0.39062 0.14062 0.03125 0.21875-0.03125-0.21875q-0.03125-0.21875-0.09375-0.40625l-0.0625-0.1875 0.1875 0.5625-0.125-0.375q-0.125-0.375-0.375-0.625t-0.375-0.625" fill="#2f8f22"/>
   <path d="m9.125 12.375-0.125-0.375h1v1-0.75 0.25q0 0.25-0.03125 0.46875l-0.03125 0.21875 0.03125-0.21875-0.35938-0.10938q-0.35938-0.10938-0.48438-0.48438" fill="#d40000"/>
  </g>
 </g>
</svg>
