<svg width="17" height="14" version="1.1" viewBox="0 0 17 14" xmlns="http://www.w3.org/2000/svg">
 <g transform="translate(0)">
  <path d="m0 0.5v-0.5h5l-0.125 0.375q-0.125 0.375-0.5 0.5t-0.5 0.5-0.5 0.5-0.875 0.125-0.625 0.375-0.5 0.5-0.375 0.625-0.125 0.875-0.5 0.5l-0.375 0.125v-4.5" fill-opacity="0"/>
  <path d="m4.875 0.375 0.125-0.375h7l0.125 0.375q0.125 0.375 0.5 0.5t0.5 0.5 0.5 0.5 0.875 0.125 0.625 0.375 0.5 0.5 0.375 0.625 0.125 0.875 0.5 0.5l0.375 0.125v4l-0.375 0.125q-0.375 0.125-0.5 0.5t-0.125 0.875-0.5 0.5-0.5 0.5-0.5 0.5-1 0-0.5 0.5-0.375 0.625-0.5 0.5l-0.125 0.375h-7l-0.125-0.375q-0.125-0.375-0.5-0.5t-0.375-0.625-0.5-0.5-1 0-0.5-0.5-0.5-0.5-0.5-0.5-0.125-0.875-0.5-0.5l-0.375-0.125v-4l0.375-0.125q0.375-0.125 0.5-0.5t0.125-0.875 0.375-0.625 0.5-0.5 0.625-0.375 0.875-0.125 0.5-0.5 0.5-0.5 0.5-0.5m-2.875 9.125q0.25 0.25 0.5 0.25t0.375-0.375l0.125-0.375 0.375-0.125q0.375-0.125 0.5-0.5t0-0.75-0.5-0.5l-0.375-0.125v-0.5q0-0.5 0-1t0-1v-0.5l0.375-0.125q0.375-0.125 0.375-0.375t-0.375-0.375-0.75 0-0.5 0.5-0.25 0.75-0.375 0.625-0.375 0.625-0.125 0.875 0 1 0.125 0.875 0.375 0.625 0.5 0.5m8.5 3.5q0.5 0 0.875-0.125t0.375-0.375-0.375-0.375-0.75-0.25-0.625-0.375-0.5-0.5-0.5-0.5-0.5-0.25-0.5 0.25-0.5 0.5-0.5 0.5-0.625 0.375-0.75 0.25-0.375 0.375 0.375 0.375 0.875 0.125 1 0 1 0 1 0 1 0m-5-2q0.5 0 0.875-0.125t0.625-0.375 0.5-0.5 0.375-0.625 0-0.75-0.5-0.5-0.75 0-0.625 0.375-0.625 0.375-0.75 0.25-0.625 0.375-0.5 0.5-0.25 0.5 0.375 0.375 0.875 0.125 1 0m0-4q0.5 0 0.875-0.125t0.5-0.5 0.125-0.875-0.125-0.875-0.5-0.5-0.875-0.125-0.875 0.125-0.5 0.5-0.125 0.875 0.125 0.875 0.5 0.5 0.875 0.125m7 4q0.5 0 0.875-0.125t0.375-0.375-0.25-0.5-0.5-0.5-0.625-0.375-0.75-0.25-0.625-0.375-0.625-0.375-0.75 0-0.5 0.5 0 0.75 0.375 0.625 0.5 0.5 0.625 0.375 0.875 0.125 1 0m1.6406-1.6406q0.10938 0.39062 0.35938 0.39062t0.35938-0.39062l0.10938-0.39062-0.21875 0.03125 0.21875-0.03125q0.21875-0.03125 0.40625-0.09375l0.1875-0.0625-0.5625 0.1875 0.375-0.125q0.375-0.125 0.5-0.5t0.125-0.875 0-1-0.125-0.875-0.375-0.625-0.375-0.625-0.25-0.75-0.5-0.5-0.75-0.25-0.625-0.375-0.5-0.5-0.5-0.5-0.625-0.375-0.875-0.125-1 0-1 0-1 0-1 0-0.875 0.125-0.625 0.375-0.5 0.5-0.25 0.5 0.375 0.375 0.875 0.125 0.875 0.125 0.625 0.375 0.5 0.5 0.375 0.625 0.125 0.875 0 1 0.125 0.875 0.375 0.375 0.375-0.375 0.125-0.875 0-1 0.125-0.875 0.375-0.625 0.5-0.5 0.625-0.375 0.875-0.125 0.875 0.125 0.625 0.375 0.5 0.5 0.375 0.625 0.125 0.875-0.125 0.875-0.375 0.625-0.375 0.625 0 0.75 0.5 0.5l0.375 0.125-0.5625-0.1875 0.1875 0.0625q0.1875 0.0625 0.40625 0.09375l0.21875 0.03125-0.21875-0.03125 0.10938 0.39062m-2.6406-2.3594q0.5 0 0.875-0.125t0.5-0.5 0.125-0.875-0.125-0.875-0.5-0.5-0.875-0.125-0.875 0.125-0.5 0.5-0.125 0.875 0.125 0.875 0.5 0.5 0.875 0.125"/>
  <path d="m12.125 0.375-0.125-0.375h5v5l-0.375-0.125q-0.375-0.125-0.5-0.5t-0.125-0.875-0.375-0.625-0.5-0.5-0.625-0.375-0.875-0.125-0.5-0.5-0.5-0.5-0.5-0.5" fill-opacity="0"/>
  <g>
   <path d="m5 1.5q0.25-0.25 0.625-0.375t0.875-0.125 1 0 1 0 1 0 1 0 0.875 0.125 0.625 0.375 0.5 0.5 0.5 0.5 0.625 0.375 0.75 0.25 0.5 0.5 0.25 0.75 0.375 0.625 0.375 0.625 0.125 0.875 0 1-0.125 0.875-0.5 0.5-0.875 0.125-0.875-0.125-0.5-0.5 0-0.75 0.375-0.625 0.375-0.625 0.125-0.875-0.125-0.875-0.375-0.625-0.5-0.5-0.625-0.375-0.875-0.125-0.875 0.125-0.625 0.375-0.5 0.5-0.375 0.625-0.125 0.875 0 1-0.125 0.875-0.375 0.375-0.375-0.375-0.125-0.875 0-1-0.125-0.875-0.375-0.625-0.5-0.5-0.625-0.375-0.875-0.125-0.875-0.125-0.375-0.375 0.25-0.5 0.5-0.5" fill="#c00"/>
   <path d="m2.125 3.625q0.125-0.375 0.5-0.5l0.375-0.125-0.5625 0.1875 0.1875-0.0625q0.1875-0.0625 0.375-0.0625h0.1875-0.1875v0.9375h-1l0.125-0.375m-0.03125 0.09375-0.15625 0.46875 0.0625-0.1875q0.0625-0.1875 0.125-0.375l0.0625-0.1875-0.09375 0.28125" fill="#c00"/>
   <path d="m3 3.5312v-0.46875h-0.1875 0.1875q0.1875 0 0.375 0.0625l0.1875 0.0625-0.5625-0.1875 0.375 0.125q0.375 0.125 0.375 0.375t-0.375 0.375l-0.375 0.125v-0.46875" fill="#fff"/>
   <path d="m1.875 4.375 0.125-0.375h1v1l-0.375 0.125q-0.375 0.125-0.375 0.375t0.375 0.375l0.375 0.125v1h-1l-0.125-0.375q-0.125-0.375-0.48438-0.48438l-0.35938-0.10938-0.03125 0.21875 0.03125-0.21875q0.03125-0.21875 0.09375-0.40625l0.0625-0.1875-0.1875 0.5625 0.125-0.375q0.125-0.375 0.375-0.625t0.375-0.625m1.125 2v-0.625 0.25q0 0.25 0 0.5v0.25-0.375m0-1.25v-0.875 0.25q0 0.25 0 0.5v0.25-0.125m-0.96875-1.2188-0.21875 0.65625 0.0625-0.1875q0.0625-0.1875 0.125-0.375l0.0625-0.1875-0.03125 0.09375" fill="#f2bebe"/>
   <path d="m4.125 4.625q0.125-0.375 0.5-0.5t0.875-0.125 0.875 0.125 0.5 0.5 0.125 0.875-0.125 0.875-0.5 0.5-0.875 0.125-0.875-0.125-0.5-0.5-0.125-0.875 0.125-0.875" fill="#fff"/>
   <path d="m10.125 4.625q0.125-0.375 0.5-0.5t0.875-0.125 0.875 0.125 0.5 0.5 0.125 0.875-0.125 0.875-0.5 0.5-0.875 0.125-0.875-0.125-0.5-0.5-0.125-0.875 0.125-0.875" fill="#fff"/>
   <path d="m2.25 5.5q0-0.25 0.375-0.375l0.375-0.125v1l-0.375-0.125q-0.375-0.125-0.375-0.375m0.75 0.625v-0.875 0.25q0 0.25 0 0.5v0.25-0.125m0-0.75v-0.625 0.25q0 0.25 0 0.5v0.25-0.375" fill="#c00"/>
   <path d="m1 6.5v-0.5 0.75-0.25q0-0.25 0.03125-0.46875l0.03125-0.21875-0.03125 0.21875 0.35938 0.10938q0.35938 0.10938 0.48438 0.48438l0.125 0.375h-1v-0.5m0 0.125v0.625-0.25q0-0.25 0-0.5v-0.25 0.375" fill="#c00"/>
   <path d="m1 7.5v-0.5h1l-0.125 0.375q-0.125 0.375-0.48438 0.48438l-0.35938 0.10938 0.03125 0.21875-0.03125-0.21875q-0.03125-0.21875-0.03125-0.46875v-0.25 0.75-0.5m0-0.625v0.875-0.25q0-0.25 0-0.5v-0.25 0.125" fill="#f2bebe"/>
   <path d="m1.875 7.375 0.125-0.375h1v0.5q0 0.5-0.375 0.625t-0.375 0.375 0.375 0.375l0.375 0.125-0.125 0.375q-0.125 0.375-0.375 0.375t-0.5-0.25-0.5-0.5-0.375-0.625l-0.125-0.375 0.1875 0.5625-0.0625-0.1875q-0.0625-0.1875-0.09375-0.40625l-0.03125-0.21875 0.03125 0.21875 0.35938-0.10938q0.35938-0.10938 0.48438-0.48438" fill="#c00"/>
   <path d="m3 7.5v-0.5l0.375 0.125q0.375 0.125 0.5 0.5t0 0.75-0.5 0.5l-0.375 0.125-0.09375-1.0938-0.09375 0.15625 0.09375-0.15625q0.09375-0.15625 0.09375-0.40625v-0.25 0.75-0.5" fill="#fff"/>
   <path d="m2.25 8.5q0-0.25 0.375-0.375l0.375-0.125-0.5625 0.1875 0.1875-0.0625q0.1875-0.0625 0.28125-0.21875l0.09375-0.15625-0.09375 0.15625 0.09375 1.0938-0.375-0.125q-0.375-0.125-0.375-0.375" fill="#f2bebe"/>
   <path d="m6 8.5q0.25-0.25 0.625-0.375t0.75 0 0.5 0.5 0 0.75-0.375 0.625-0.5 0.5-0.625 0.375-0.875 0.125-1 0-0.875-0.125-0.375-0.375 0.25-0.5 0.5-0.5 0.625-0.375 0.75-0.25 0.625-0.375" fill="#78430b"/>
   <path d="m9.125 8.625q0.125-0.375 0.5-0.5t0.75 0 0.625 0.375 0.625 0.375 0.75 0.25 0.625 0.375 0.5 0.5 0.25 0.5-0.375 0.375-0.875 0.125-1 0-0.875-0.125-0.625-0.375-0.5-0.5-0.375-0.625 0-0.75" fill="#78430b"/>
  </g>
  <path d="m0 9.5v-0.5l0.375 0.125q0.375 0.125 0.5 0.5t0.125 0.875 0.5 0.5 0.5 0.5 0.5 0.5 1 0 0.5 0.5 0.375 0.625 0.5 0.5l0.125 0.375h-5v-4.5" fill-opacity="0"/>
  <path d="m14.141 9.3594-0.10938-0.39062-0.21875-0.03125 0.21875 0.03125q0.21875 0.03125 0.46875 0.03125h0.25-0.75 1-0.75 0.25q0.25 0 0.46875-0.03125l0.21875-0.03125-0.21875 0.03125-0.10938 0.39062q-0.10938 0.39062-0.35938 0.39062t-0.35938-0.39062" fill="#090"/>
  <path d="m16.125 9.625q0.125-0.375 0.5-0.5l0.375-0.125v5h-5l0.125-0.375q0.125-0.375 0.5-0.5t0.375-0.625 0.5-0.5 1 0 0.5-0.5 0.5-0.5 0.5-0.5 0.125-0.875" fill-opacity="0"/>
  <path d="m8 10.5q0.25-0.25 0.5-0.25t0.5 0.25 0.5 0.5 0.5 0.5 0.625 0.375 0.75 0.25 0.375 0.375-0.375 0.375-0.875 0.125-1 0-1 0-1 0-1 0-0.875-0.125-0.375-0.375 0.375-0.375 0.75-0.25 0.625-0.375 0.5-0.5 0.5-0.5" fill="#090"/>
 </g>
</svg>
