<svg width="17" height="14" version="1.1" viewBox="0 0 17 14" xmlns="http://www.w3.org/2000/svg">
 <g transform="translate(0)">
  <path d="m0 0.5v-0.5h5v1h-0.5q-0.5 0-0.5 0.5v0.5h-0.5q-0.5 0-1 0t-0.5 0.5v0.5h-0.5q-0.5 0-0.5 0.5t0 1v0.5h-1v-4.5" fill-opacity="0"/>
  <path d="m5 0.5v-0.5h7v1h-0.5q-0.5 0-1 0t-1 0-1 0-1 0-1 0-1 0h-0.5v-0.5"/>
  <path d="m12 0.5v-0.5h5v5h-1v-0.5q0-0.5 0-1t-0.5-0.5h-0.5v-0.5q0-0.5-0.5-0.5t-1 0h-0.5v-0.5q0-0.5-0.5-0.5h-0.5v-0.5" fill-opacity="0"/>
  <path d="M 4,1.5 Q 4,1 4.5,1 H 5 V 1.5 Q 5,2 4.5,2 H 4 V 1.5"/>
  <path d="m5 1.5v-0.5h0.5q0.5 0 1 0t1 0 1 0 1 0 1 0 1 0h0.5v0.5q0 0.5 0.5 0.5h0.5v1h0.5q0.5 0 1 0h0.5v0.5q0 0.5 0 1t0.5 0.5h0.5v0.5q0 0.5 0 1t0 1 0 1v0.5h-0.5q-0.5 0-0.5 0.5t-0.5 0.5-0.5 0.5-0.5 0.5-0.5 0.5v0.5h-0.5q-0.5 0-0.5 0.5v0.5h-0.5q-0.5 0-1 0t-1 0-1 0-1 0-1 0-1 0h-0.5v-0.5q0-0.5-0.5-0.5h-0.5v-0.5q0-0.5-0.5-0.5t-0.5-0.5-0.5-0.5-0.5-0.5-0.5-0.5h-0.5v-0.5q0-0.5 0-1t0-1 0-1v-0.5h0.5q0.5 0 0.5-0.5t0-1v-0.5h0.5q0.5 0 1 0h0.5v-1h0.5q0.5 0 0.5-0.5m-0.5 1.5h-0.5v1h-0.5q-0.5 0-0.5 0.5t0 1 0 1 0.5 0.5h0.5v0.5q0 0.5 0.5 0.5t1 0 1 0 0.5-0.5v-0.5h0.5q0.5 0 0.5-0.5t0-1 0-1-0.5-0.5h-0.5v-0.5q0-0.5-0.5-0.5t-1 0-1 0m8.5 0.5v-0.5h-0.5q-0.5 0-1 0t-1 0-0.5 0.5v0.5h-0.5q-0.5 0-0.5 0.5t0 1 0 1 0.5 0.5h0.5v0.5q0 0.5 0.5 0.5t1 0 1 0 0.5-0.5v-0.5h0.5q0.5 0 0.5-0.5t0-1 0-1-0.5-0.5h-0.5v-0.5" fill-opacity="0"/>
  <g>
   <path d="m12 1.5v-0.5h0.5q0.5 0 0.5 0.5v0.5h-0.5q-0.5 0-0.5-0.5"/>
   <path d="m2 2.5q0-0.5 0.5-0.5t1 0h0.5v1h-0.5q-0.5 0-1 0h-0.5v-0.5"/>
   <path d="m13 2.5v-0.5h0.5q0.5 0 1 0t0.5 0.5v0.5h-0.5q-0.5 0-1 0h-0.5v-0.5"/>
   <path d="m1 3.5q0-0.5 0.5-0.5h0.5v0.5q0 0.5 0 1t-0.5 0.5h-0.5v-0.5q0-0.5 0-1"/>
   <path d="m4 3.5v-0.5h0.5q0.5 0 1 0t1 0 0.5 0.5v0.5h-0.5q-0.5 0-1 0t-1 0h-0.5v-0.5"/>
   <path d="m10 3.5q0-0.5 0.5-0.5t1 0 1 0h0.5v1h-0.5q-0.5 0-1 0t-1 0h-0.5v-0.5"/>
   <path d="m15 3.5v-0.5h0.5q0.5 0 0.5 0.5t0 1v0.5h-0.5q-0.5 0-0.5-0.5t0-1"/>
   <path d="m3 4.5q0-0.5 0.5-0.5h0.5v0.5q0 0.5 0 1t0 1v0.5h-0.5q-0.5 0-0.5-0.5t0-1 0-1"/>
  </g>
  <path d="m4 4.5v-0.5h0.5q0.5 0 1 0t1 0h0.5v0.5q0 0.5 0 1t0 1v0.5h-0.5q-0.5 0-1 0t-1 0h-0.5v-0.5q0-0.5 0-1t0-1" fill-opacity="0"/>
  <path d="m7 4.5v-0.5h0.5q0.5 0 0.5 0.5t0 1 0 1-0.5 0.5h-0.5v-0.5q0-0.5 0-1t0-1"/>
  <path d="m9 4.5q0-0.5 0.5-0.5h0.5v0.5q0 0.5 0 1t0 1v0.5h-0.5q-0.5 0-0.5-0.5t0-1 0-1"/>
  <path d="m10 4.5v-0.5h0.5q0.5 0 1 0t1 0h0.5v0.5q0 0.5 0 1t0 1v0.5h-0.5q-0.5 0-1 0t-1 0h-0.5v-0.5q0-0.5 0-1t0-1" fill-opacity="0"/>
  <g>
   <path d="m13 4.5v-0.5h0.5q0.5 0 0.5 0.5t0 1 0 1-0.5 0.5h-0.5v-0.5q0-0.5 0-1t0-1"/>
   <path d="m0 5.5v-0.5h1v0.5q0 0.5 0 1t0 1 0 1v0.5h-1v-3.5"/>
   <path d="m16 5.5v-0.5h1v4h-1v-0.5q0-0.5 0-1t0-1 0-1"/>
   <path d="m4 7.5v-0.5h0.5q0.5 0 1 0t1 0h0.5v0.5q0 0.5-0.5 0.5t-1 0-1 0-0.5-0.5"/>
   <path d="m10 7.5v-0.5h0.5q0.5 0 1 0t1 0h0.5v0.5q0 0.5-0.5 0.5t-1 0-1 0-0.5-0.5"/>
  </g>
  <path d="m0 9.5v-0.5h1v0.5q0 0.5 0 1t0.5 0.5 0.5 0.5 0.5 0.5 1 0h0.5v0.5q0 0.5 0.5 0.5h0.5v1h-5v-4.5" fill-opacity="0"/>
  <path d="m1 9.5v-0.5h0.5q0.5 0 0.5 0.5t0.5 0.5 0.5 0.5 0.5 0.5 0.5 0.5v0.5h-0.5q-0.5 0-1 0t-0.5-0.5-0.5-0.5-0.5-0.5 0-1"/>
  <path d="m15 9.5q0-0.5 0.5-0.5h0.5v0.5q0 0.5 0 1t-0.5 0.5-0.5 0.5-0.5 0.5-1 0h-0.5v-0.5q0-0.5 0.5-0.5t0.5-0.5 0.5-0.5 0.5-0.5"/>
  <path d="m16 9.5v-0.5h1v5h-5v-1h0.5q0.5 0 0.5-0.5v-0.5h0.5q0.5 0 1 0t0.5-0.5 0.5-0.5 0.5-0.5 0-1" fill-opacity="0"/>
  <g>
   <path d="m4 12.5v-0.5h0.5q0.5 0 0.5 0.5v0.5h-0.5q-0.5 0-0.5-0.5"/>
   <path d="m12 12.5q0-0.5 0.5-0.5h0.5v0.5q0 0.5-0.5 0.5h-0.5v-0.5"/>
   <path d="m5 13.5v-0.5h0.5q0.5 0 1 0t1 0 1 0 1 0 1 0 1 0h0.5v1h-7v-0.5"/>
  </g>
 </g>
</svg>
