<svg width="17" height="14" version="1.1" viewBox="0 0 17 14" xmlns="http://www.w3.org/2000/svg">
 <g transform="translate(0)">
  <path d="m0 0.5v-0.5h5l-0.125 0.375q-0.125 0.375-0.5 0.5t-0.5 0.5-0.5 0.5-0.875 0.125-0.625 0.375-0.5 0.5-0.375 0.625-0.125 0.875-0.5 0.5l-0.375 0.125v-4.5" fill-opacity="0"/>
  <path d="m4.875 0.375 0.125-0.375h7l0.125 0.375q0.125 0.375 0.5 0.5t0.5 0.5 0.5 0.5 0.875 0.125 0.625 0.375 0.5 0.5 0.375 0.625 0.125 0.875 0.5 0.5l0.375 0.125v4l-0.375 0.125q-0.375 0.125-0.5 0.5t-0.125 0.875-0.5 0.5-0.5 0.5-0.5 0.5-0.875 0.125-0.5 0.5-0.625 0.375-0.5 0.5v0.5h-7v-0.5q0-0.5-0.5-0.5t-0.625-0.375-0.5-0.5-0.875-0.125-0.5-0.5-0.5-0.5-0.5-0.5-0.125-0.875-0.5-0.5l-0.375-0.125v-4l0.375-0.125q0.375-0.125 0.5-0.5t0.125-0.875 0.375-0.625 0.5-0.5 0.625-0.375 0.875-0.125 0.5-0.5 0.5-0.5 0.5-0.5m5.0625 12.438-0.0625 0.0625 0.4375-0.0625q0.4375-0.0625 0.6875-0.3125t0.625-0.375 0.75-0.25 0.625-0.375 0.5-0.5 0.5-0.5 0.5-0.5 0.35938-0.64062l0.10938-0.39062-0.21875 0.03125 0.21875-0.03125q0.21875-0.03125 0.40625-0.09375l0.1875-0.0625-0.5625 0.1875 0.375-0.125q0.375-0.125 0.5-0.5t0.125-0.875 0-1v-0.5 0.75-0.25q0-0.25-0.125-0.375l-0.125-0.125 0.125 0.125-0.0625-0.4375q-0.0625-0.4375-0.3125-0.6875t-0.375-0.625-0.25-0.75-0.5-0.5-0.75-0.25-0.625-0.375-0.5-0.5-0.5-0.5-0.625-0.375-0.9375-0.0625l-0.5625 0.0625 0.125 0.125-0.125-0.125q-0.125-0.125-0.375-0.125h-0.25 0.75-0.5q-0.5 0-1 0t-1 0h-0.5 0.75-0.25q-0.25 0-0.375 0.125l-0.125 0.125 0.125-0.125-0.5625-0.0625q-0.5625-0.0625-0.9375 0.0625t-0.625 0.375-0.5 0.5-0.5 0.5-0.625 0.375-0.75 0.25-0.5 0.5-0.25 0.75-0.375 0.625-0.3125 0.6875l-0.0625 0.4375 0.125-0.125-0.125 0.125q-0.125 0.125-0.125 0.375v0.25-0.75 0.5q0 0.5 0 1t0.125 0.875 0.5 0.5l0.375 0.125-0.5625-0.1875 0.1875 0.0625q0.1875 0.0625 0.40625 0.09375l0.21875 0.03125-0.21875-0.03125 0.10938 0.39062q0.10938 0.39062 0.35938 0.64062t0.5 0.5 0.5 0.5 0.5 0.5 0.625 0.375 0.75 0.25 0.625 0.375 0.6875 0.3125l0.4375 0.0625-0.125-0.125 0.125 0.125q0.125 0.125 0.375 0.125h0.25-0.75 0.5q0.5 0 1 0t1 0h0.5-0.75 0.25q0.25 0 0.375-0.125l0.125-0.125-0.0625 0.0625"/>
  <path d="m12.125 0.375-0.125-0.375h5v5l-0.375-0.125q-0.375-0.125-0.5-0.5t-0.125-0.875-0.375-0.625-0.5-0.5-0.625-0.375-0.875-0.125-0.5-0.5-0.5-0.5-0.5-0.5" fill-opacity="0"/>
  <g>
   <path d="m5 1.5q0.25-0.25 0.625-0.375t0.9375-0.0625l0.5625 0.0625 0.125-0.125-0.125 0.125q-0.125 0.125-0.125 0.375v0.25-0.75 0.5q0 0.5 0 1v0.5-0.75 0.25q0 0.25 0.03125 0.46875l0.03125 0.21875-0.03125-0.21875-0.51562 0.015625q-0.51562 0.015625-1.0156 0.015625t-0.875 0.125-0.625 0.375-0.5 0.5-0.375 0.625-0.17188 0.92188l-0.046875 0.54688 0.15625 0.09375-0.15625-0.09375q-0.15625-0.09375-0.40625-0.09375h-0.25 0.75-0.5q-0.5 0-1 0h-0.5 0.75-0.25q-0.25 0-0.375 0.125l-0.125 0.125 0.125-0.125 0.0625-0.4375q0.0625-0.4375 0.3125-0.6875t0.375-0.625 0.25-0.75 0.5-0.5 0.75-0.25 0.625-0.375 0.5-0.5 0.5-0.5" fill="#002d62"/>
   <path d="m7 1.5q0-0.5 0.5-0.5t1 0 1 0 0.5 0.5 0 1-0.125 0.875-0.375 0.625-0.375 0.625-0.625 0.375-0.625-0.375-0.375-0.625-0.375-0.625-0.125-0.875 0-1" fill="#fff"/>
   <path d="m10 1.5v-0.5 0.75-0.25q0-0.25-0.125-0.375l-0.125-0.125 0.125 0.125 0.5625-0.0625q0.5625-0.0625 0.9375 0.0625t0.625 0.375 0.5 0.5 0.5 0.5 0.625 0.375 0.75 0.25 0.5 0.5 0.25 0.75 0.375 0.625 0.3125 0.6875l0.0625 0.4375 0.125 0.125-0.125-0.125q-0.125-0.125-0.375-0.125h-0.25 0.75-0.5q-0.5 0-1 0h-0.5 0.75-0.25q-0.25 0-0.40625 0.09375l-0.15625 0.09375 0.15625-0.09375-0.046875-0.54688q-0.046875-0.54688-0.17188-0.92188t-0.375-0.625-0.5-0.5-0.625-0.375-0.875-0.125-1.0156-0.015625l-0.51562-0.015625-0.03125 0.21875 0.03125-0.21875q0.03125-0.21875 0.03125-0.46875v-0.25 0.75-0.5q0-0.5 0-1" fill="#ce1126"/>
   <path d="m4 3.5q0.25-0.25 0.625-0.375t0.875-0.125 1.0156-0.015625l0.51562-0.015625-0.03125-0.21875 0.03125 0.21875q0.03125 0.21875 0.09375 0.40625l0.0625 0.1875-0.1875-0.5625 0.125 0.375q0.125 0.375 0.375 0.625t0.375 0.625l0.125 0.375-0.1875-0.5625 0.0625 0.1875q0.0625 0.1875 0.21875 0.28125l0.15625 0.09375-0.15625-0.09375-0.046875 0.54688q-0.046875 0.54688-0.046875 1.0469v0.5l-0.375 0.125q-0.375 0.125-0.54688 0.54688l-0.17188 0.42188 0.15625 0.09375-0.15625-0.09375q-0.15625-0.09375-0.40625-0.09375h-0.25 0.75-0.5q-0.5 0-1 0t-0.875-0.125-0.625-0.375-0.5-0.5-0.375-0.625l-0.125-0.375 0.1875 0.5625-0.0625-0.1875q-0.0625-0.1875-0.21875-0.28125l-0.15625-0.09375 0.15625 0.09375 0.046875-0.54688q0.046875-0.54688 0.17188-0.92188t0.375-0.625 0.5-0.5m1.5 3.5q0.5 0 0.875-0.125t0.5-0.5 0.125-0.875-0.125-0.875-0.5-0.5-0.875-0.125-0.875 0.125-0.5 0.5-0.125 0.875 0.125 0.875 0.5 0.5 0.875 0.125"/>
   <path d="m9.875 3.375 0.125-0.375-0.1875 0.5625 0.0625-0.1875q0.0625-0.1875 0.09375-0.40625l0.03125-0.21875-0.03125 0.21875 0.51562 0.015625q0.51562 0.015625 1.0156 0.015625t0.875 0.125 0.625 0.375 0.5 0.5 0.375 0.625 0.17188 0.92188l0.046875 0.54688 0.15625-0.09375-0.15625 0.09375q-0.15625 0.09375-0.21875 0.28125l-0.0625 0.1875 0.1875-0.5625-0.125 0.375q-0.125 0.375-0.375 0.625t-0.5 0.5-0.625 0.375-0.875 0.125-1 0h-0.5 0.75-0.25q-0.25 0-0.40625 0.09375l-0.15625 0.09375 0.15625-0.09375-0.17188-0.42188q-0.17188-0.42188-0.54688-0.54688l-0.375-0.125v-0.5q0-0.5-0.046875-1.0469l-0.046875-0.54688-0.15625 0.09375 0.15625-0.09375q0.15625-0.09375 0.21875-0.28125l0.0625-0.1875-0.1875 0.5625 0.125-0.375q0.125-0.375 0.375-0.625t0.375-0.625m1.625 3.625q0.5 0 0.875-0.125t0.5-0.5 0.125-0.875-0.125-0.875-0.5-0.5-0.875-0.125-0.875 0.125-0.5 0.5-0.125 0.875 0.125 0.875 0.5 0.5 0.875 0.125"/>
   <path d="m4.125 4.625q0.125-0.375 0.5-0.5t0.875-0.125 0.875 0.125 0.5 0.5 0.125 0.875-0.125 0.875-0.5 0.5-0.875 0.125-0.875-0.125-0.5-0.5-0.125-0.875 0.125-0.875" fill="#fff"/>
   <path d="m10.125 4.625q0.125-0.375 0.5-0.5t0.875-0.125 0.875 0.125 0.5 0.5 0.125 0.875-0.125 0.875-0.5 0.5-0.875 0.125-0.875-0.125-0.5-0.5-0.125-0.875 0.125-0.875" fill="#fff"/>
   <path d="m8.0469 5.4531 0.046875-0.54688-0.15625-0.09375 0.15625 0.09375q0.15625 0.09375 0.40625 0.09375h0.25-0.75 1-0.75 0.25q0.25 0 0.40625-0.09375l0.15625-0.09375-0.15625 0.09375 0.09375 1.0938h-1l0.046875-0.54688m-0.046875 0.17188v0.625-0.25q0-0.25 0-0.5v-0.25 0.375m1 0.5v-0.875 0.25q0 0.25 0 0.5v0.25-0.125" fill="#002d62"/>
   <path d="m1 6.5q0-0.5 0.5-0.5t1 0 0.625 0.375 0.375 0.625 0.5 0.5 0.625 0.375 0.875 0.125 1 0 0.625 0.375 0.5 0.5 0.875 0.125 0.875-0.125 0.5-0.5 0.625-0.375 1 0 0.875-0.125 0.625-0.375 0.5-0.5 0.375-0.625 0.625-0.375 1 0 0.5 0.5 0 1-0.125 0.875-0.5 0.5-0.875 0.125-1 0-1 0-1 0-0.875 0.125-0.5 0.5-0.125 0.875 0 1 0 1-0.5 0.5-1 0-1 0-0.5-0.5 0-1 0-1-0.125-0.875-0.5-0.5-0.875-0.125-1 0-1 0-1 0-0.875-0.125-0.5-0.5-0.125-0.875 0-1" fill="#fff"/>
   <path d="m8 6.5v-0.5h1v1h-1v-0.5m1-0.125v-0.625 0.25q0 0.25 0 0.5v0.25-0.375m-1-0.5v0.875-0.25q0-0.25 0-0.5v-0.25 0.125" fill="#ce1126"/>
   <path d="m7.0781 7.6719q0.17188-0.42188 0.54688-0.54688l0.375-0.125 0.125 1.125 0.125-0.125-0.125 0.125q-0.125 0.125-0.125 0.375v0.25-0.75l0.03125 0.96875 0.21875 0.03125-0.21875-0.03125q-0.21875-0.03125-0.40625-0.09375l-0.1875-0.0625 0.5625 0.1875-0.375-0.125q-0.375-0.125-0.5-0.5l-0.125-0.375 0.1875 0.5625-0.0625-0.1875q-0.0625-0.1875-0.21875-0.28125l-0.15625-0.09375 0.15625 0.09375 0.17188-0.42188" fill="#007b63"/>
   <path d="m8.0625 7.5625-0.0625-0.5625h1l-0.125 1.125 0.125 0.125-0.125-0.125q-0.125-0.125-0.375-0.125h-0.25 0.75-1 0.75-0.25q-0.25 0-0.375 0.125l-0.125 0.125 0.125-0.125-0.0625-0.5625" fill="#002d62"/>
   <path d="m8.9375 7.5625 0.0625-0.5625 0.375 0.125q0.375 0.125 0.54688 0.54688l0.17188 0.42188 0.15625-0.09375-0.15625 0.09375q-0.15625 0.09375-0.21875 0.28125l-0.0625 0.1875 0.1875-0.5625-0.125 0.375q-0.125 0.375-0.5 0.5l-0.375 0.125 0.5625-0.1875-0.1875 0.0625q-0.1875 0.0625-0.40625 0.09375l-0.21875 0.03125 0.21875-0.03125 0.03125-0.96875v0.75-0.25q0-0.25-0.125-0.375l-0.125-0.125 0.125 0.125 0.0625-0.5625" fill="#007b63"/>
   <path d="m8.0156 8.4844q-0.015625-0.48438 0.48438-0.48438t0.48438 0.48438l-0.015625 0.48438 0.21875-0.03125-0.21875 0.03125q-0.21875 0.03125-0.46875 0.03125h-0.25 0.75-1 0.75-0.25q-0.25 0-0.46875-0.03125l-0.21875-0.03125 0.21875 0.03125-0.015625-0.48438" fill="#ce1126"/>
  </g>
  <path d="m0 9.5v-0.5l0.375 0.125q0.375 0.125 0.5 0.5t0.125 0.875 0.5 0.5 0.5 0.5 0.5 0.5 0.875 0.125 0.5 0.5 0.625 0.375 0.5 0.5v0.5h-5v-4.5" fill-opacity="0"/>
  <path d="m2.1406 9.3594-0.10938-0.39062-0.21875-0.03125 0.21875 0.03125q0.21875 0.03125 0.46875 0.03125h0.25-0.75 0.5q0.5 0 1 0t1 0 1 0 0.875 0.125 0.5 0.5 0.125 0.875 0 1 0 1v0.5-0.75 0.25q0 0.25 0.125 0.375l0.125 0.125-0.125-0.125-0.4375-0.0625q-0.4375-0.0625-0.6875-0.3125t-0.625-0.375-0.75-0.25-0.625-0.375-0.5-0.5-0.5-0.5-0.5-0.5-0.35938-0.64062" fill="#ce1126"/>
  <path d="m10.125 9.625q0.125-0.375 0.5-0.5t0.875-0.125 1 0 1 0 1 0h0.5-0.75 0.25q0.25 0 0.46875-0.03125l0.21875-0.03125-0.21875 0.03125-0.10938 0.39062q-0.10938 0.39062-0.35938 0.64062t-0.5 0.5-0.5 0.5-0.5 0.5-0.625 0.375-0.75 0.25-0.625 0.375-0.6875 0.3125l-0.4375 0.0625-0.125 0.125 0.125-0.125q0.125-0.125 0.125-0.375v-0.25 0.75-0.5q0-0.5 0-1t0-1 0.125-0.875" fill="#002d62"/>
  <path d="m16.125 9.625q0.125-0.375 0.5-0.5l0.375-0.125v5h-5v-0.5q0-0.5 0.5-0.5t0.625-0.375 0.5-0.5 0.875-0.125 0.5-0.5 0.5-0.5 0.5-0.5 0.125-0.875" fill-opacity="0"/>
 </g>
</svg>
