<svg width="17" height="14" version="1.1" viewBox="0 0 17 14" xmlns="http://www.w3.org/2000/svg">
 <g transform="translate(0)">
  <path d="m0 0.5v-0.5h5l-0.125 0.375q-0.125 0.375-0.5 0.5t-0.5 0.5-0.5 0.5-0.875 0.125-0.625 0.375-0.5 0.5-0.375 0.625-0.125 0.875 0.15625 0.65625l0.28125 0.28125 0.125-0.125-0.125 0.125q-0.125 0.125-0.1875 0.3125l-0.0625 0.1875 0.1875-0.5625-0.125 0.375q-0.125 0.375-0.125 0.875t0 1 0.125 0.875 0.375 0.625 0.375 0.625 0.125 0.875 0 1 0.125 0.875 0.5 0.5 0.875 0.125 1 0h0.5v1h-5v-13.5" fill-opacity="0"/>
  <path d="m4.875 0.375 0.125-0.375h7l0.125 0.375q0.125 0.375 0.5 0.5t0.5 0.5 0.5 0.5 0.875 0.125 0.625 0.375 0.5 0.5 0.375 0.625 0.125 0.875-0.15625 0.65625l-0.28125 0.28125 0.125 0.125-0.125-0.125q-0.125-0.125-0.3125-0.1875l-0.1875-0.0625 0.5625 0.1875-0.75-0.25 0.5625 0.1875-0.1875-0.0625q-0.1875-0.0625-0.40625-0.09375l-0.21875-0.03125 0.21875 0.03125 0.015625-0.51562q0.015625-0.51562-0.10938-0.89062t-0.5-0.5-0.75-0.25-0.625-0.375-0.5-0.5-0.5-0.5-0.625-0.375-0.875-0.125-1 0-1 0-1 0-1 0h-0.5 0.75-0.25q-0.25 0-0.375 0.125l-0.125 0.125 0.125-0.125-0.4375 0.0625q-0.4375 0.0625-0.6875 0.3125t-0.5 0.5-0.5 0.5-0.625 0.375-0.75 0.25-0.5 0.5-0.10938 0.89062l0.015625 0.51562 0.21875-0.03125-0.21875 0.03125q-0.21875 0.03125-0.40625 0.09375l-0.1875 0.0625 0.5625-0.1875-0.75 0.25 0.5625-0.1875-0.1875 0.0625q-0.1875 0.0625-0.3125 0.1875l-0.125 0.125 0.125-0.125-0.28125-0.28125q-0.28125-0.28125-0.15625-0.65625t0.125-0.875 0.375-0.625 0.5-0.5 0.625-0.375 0.875-0.125 0.5-0.5 0.5-0.5 0.5-0.5"/>
  <path d="m12.125 0.375-0.125-0.375h5v14h-5v-1h0.5q0.5 0 1 0t0.875-0.125 0.5-0.5 0.125-0.875 0-1 0.125-0.875 0.375-0.625 0.375-0.625 0.125-0.875 0-1-0.125-0.875l-0.125-0.375 0.1875 0.5625-0.0625-0.1875q-0.0625-0.1875-0.1875-0.3125l-0.125-0.125 0.125 0.125 0.28125-0.28125q0.28125-0.28125 0.15625-0.65625t-0.125-0.875-0.375-0.625-0.5-0.5-0.625-0.375-0.875-0.125-0.5-0.5-0.5-0.5-0.5-0.5" fill-opacity="0"/>
  <g>
   <path d="m5 1.5q0.25-0.25 0.6875-0.3125l0.4375-0.0625 0.125-0.125-0.125 0.125q-0.125 0.125-0.125 0.375v0.25-0.75 0.5q0 0.5 0 1v0.5-0.75 0.25q0 0.25 0.03125 0.46875l0.03125 0.21875-0.03125-0.21875-0.51562 0.015625q-0.51562 0.015625-0.89062 0.14062t-0.625 0.375-0.5 0.5-0.42188 0.67188l-0.17188 0.42188 0.15625 0.09375-0.15625-0.09375q-0.15625-0.09375-0.40625-0.09375h-0.25 0.75-1 0.75-0.25q-0.25 0-0.46875 0.03125l-0.21875 0.03125 0.21875-0.03125-0.015625-0.51562q-0.015625-0.51562 0.10938-0.89062t0.5-0.5 0.75-0.25 0.625-0.375 0.5-0.5 0.5-0.5" fill="#002395"/>
   <path d="m6 1.5q0-0.5 0.5-0.5t1 0 1 0 1 0 1 0h0.5-0.75 0.25q0.25 0 0.46875 0.03125l0.21875 0.03125-0.21875-0.03125 0.015625 0.48438q0.015625 0.48438 0.015625 0.98438t-0.125 0.875-0.375 0.625-0.5 0.5-0.5 0.5-0.375 0.625 0 0.75 0.375 0.375 0.5-0.25 0.5-0.5 0.5-0.5 0.5-0.5 0.5-0.5 0.5-0.25 0.375 0.375 0.125 0.875-0.125 0.875-0.5 0.5-0.875 0.125-0.875 0.125-0.5 0.5l-0.125 0.375-0.375 0.125q-0.375 0.125-0.5 0.5t-0.125 0.875 0 1v0.5-0.75 0.25q0 0.25 0.125 0.375l0.125 0.125-0.125-0.125 0.0625 0.4375q0.0625 0.4375 0.4375 0.5625t0.9375 0.1875l0.5625 0.0625 0.125-0.125-0.125 0.125q-0.125 0.125-0.125 0.375v0.25-0.75 1h-0.5q-0.5 0-1 0t-1 0-1 0-1 0h-0.5v-1 0.75-0.25q0-0.25-0.125-0.375l-0.125-0.125 0.125 0.125 0.5625-0.0625q0.5625-0.0625 0.9375-0.1875t0.4375-0.5625l0.0625-0.4375-0.125 0.125 0.125-0.125q0.125-0.125 0.125-0.375v-0.25 0.75-0.5q0-0.5 0-1t-0.125-0.875-0.5-0.5l-0.375-0.125-0.125-0.375q-0.125-0.375-0.5-0.5t-0.875-0.125-0.875-0.125-0.5-0.5-0.125-0.875 0.125-0.875 0.375-0.375 0.5 0.25 0.5 0.5 0.5 0.5 0.5 0.5 0.5 0.5 0.5 0.25 0.375-0.375 0-0.75-0.375-0.625-0.5-0.5-0.5-0.5-0.375-0.625-0.125-0.875 0-1m0.90625 6.4688 0.65625 0.21875-0.1875-0.0625q-0.1875-0.0625-0.375-0.125l-0.1875-0.0625 0.09375 0.03125m-1.0312 5.0312h0.875-0.25q-0.25 0-0.5 0h-0.25 0.125m4.75 0h0.625-0.25q-0.25 0-0.5 0h-0.25 0.375m-0.90625-4.9062 0.46875-0.15625-0.1875 0.0625q-0.1875 0.0625-0.375 0.125l-0.1875 0.0625 0.28125-0.09375" fill="#fff"/>
   <path d="m10.984 1.5156-0.015625-0.48438-0.21875-0.03125 0.21875 0.03125q0.21875 0.03125 0.40625 0.09375l0.1875 0.0625-0.5625-0.1875 0.375 0.125q0.375 0.125 0.625 0.375t0.5 0.5 0.5 0.5 0.625 0.375 0.75 0.25 0.5 0.5 0.10938 0.89062l-0.015625 0.51562 0.21875 0.03125-0.21875-0.03125q-0.21875-0.03125-0.46875-0.03125h-0.25 0.75-1.0625v0.1875-0.1875q0-0.1875-0.0625-0.375l-0.0625-0.1875 0.1875 0.5625-0.125-0.375q-0.125-0.375-0.375-0.625t-0.5-0.5-0.625-0.375-0.89062-0.14062l-0.51562-0.015625-0.03125 0.21875 0.03125-0.21875q0.03125-0.21875 0.03125-0.46875v-0.25 0.75-0.5q0-0.5-0.015625-0.98438" fill="#ed2939"/>
   <path d="m4 3.5q0.25-0.25 0.625-0.375t0.89062-0.14062l0.51562-0.015625-0.03125-0.21875 0.03125 0.21875q0.03125 0.21875 0.09375 0.40625l0.0625 0.1875-0.1875-0.5625 0.125 0.375q0.125 0.375 0.375 0.625t0.5 0.5 0.5 0.5 0.375 0.625 0 0.75-0.375 0.375-0.5-0.25-0.5-0.5-0.5-0.5-0.5-0.5-0.5-0.5-0.5-0.25-0.375 0.375-0.125 0.875v0.5-0.75 0.25q0 0.25 0.03125 0.46875l0.03125 0.21875-0.03125-0.21875-0.39062-0.10938q-0.39062-0.10938-0.51562-0.48438l-0.125-0.375 0.1875 0.5625-0.0625-0.1875q-0.0625-0.1875-0.21875-0.28125l-0.15625-0.09375 0.15625 0.09375 0.17188-0.42188q0.17188-0.42188 0.42188-0.67188t0.5-0.5"/>
   <path d="m10.875 3.375 0.125-0.375-0.1875 0.5625 0.0625-0.1875q0.0625-0.1875 0.09375-0.40625l0.03125-0.21875-0.03125 0.21875 0.51562 0.015625q0.51562 0.015625 0.89062 0.14062t0.625 0.375 0.5 0.5 0.375 0.625 0 0.75-0.51562 0.48438l-0.39062 0.10938-0.03125 0.21875 0.03125-0.21875q0.03125-0.21875 0.03125-0.46875v-0.25 0.75-0.5q0-0.5-0.125-0.875t-0.375-0.375-0.5 0.25-0.5 0.5-0.5 0.5-0.5 0.5-0.5 0.5-0.5 0.25-0.375-0.375 0-0.75 0.375-0.625 0.5-0.5 0.5-0.5 0.375-0.625"/>
   <path d="m1.125 5.625q0.125-0.375 0.5-0.5t0.875-0.125 0.625 0.375 0.51562 0.48438l0.39062 0.10938-0.03125-0.21875 0.03125 0.21875q0.03125 0.21875 0.09375 0.40625l0.0625 0.1875-0.1875-0.5625 0.125 0.375q0.125 0.375 0.5 0.5t0.875 0.125h0.5-0.75 0.25q0.25 0 0.46875 0.03125l0.21875 0.03125-0.21875-0.03125 0.14062 0.35938q0.14062 0.35938 0.51562 0.48438t0.75 0.25 0.5 0.5 0.125 0.875 0 1-0.5 0.5-1 0-1 0-0.875-0.125-0.5-0.5-0.125-0.875 0-1-0.125-0.875-0.375-0.375-0.375 0.375-0.125 0.875 0 1-0.125 0.875-0.5 0.5l-0.375 0.125v-0.5q0-0.5-0.125-0.875t-0.375-0.625-0.375-0.625-0.125-0.875 0-1 0.125-0.875m0.875 5v0.625-0.25q0-0.25 0-0.5v-0.25 0.375" fill="#fff200"/>
   <path d="m13.875 5.375 0.125-0.375-0.1875 0.5625 0.0625-0.1875q0.0625-0.1875 0.0625-0.375v-0.1875 0.1875h0.53125q0.53125 0 0.90625 0.125t0.5 0.5 0.125 0.875 0 1-0.125 0.875-0.375 0.625-0.375 0.625-0.125 0.875v0.5l-0.375-0.125q-0.375-0.125-0.5-0.5t-0.125-0.875 0-1-0.125-0.875-0.375-0.375-0.375 0.375-0.125 0.875 0 1-0.125 0.875-0.5 0.5-0.875 0.125-1 0-1 0-0.5-0.5 0-1 0.125-0.875 0.5-0.5 0.75-0.25 0.51562-0.48438l0.14062-0.35938-0.21875 0.03125 0.21875-0.03125q0.21875-0.03125 0.46875-0.03125h0.25-0.75 0.5q0.5 0 0.875-0.125t0.5-0.5l0.125-0.375-0.1875 0.5625 0.0625-0.1875q0.0625-0.1875 0.09375-0.40625l0.03125-0.21875-0.03125 0.21875 0.39062-0.10938q0.39062-0.10938 0.51562-0.48438m1.125 5.75v-0.875 0.25q0 0.25 0 0.5v0.25-0.125" fill="#fff200"/>
   <path d="m3.125 7.625q0.125-0.375 0.375-0.375t0.375 0.375 0.125 0.875 0 1 0.125 0.875 0.5 0.5 0.875 0.125 1 0 1 0h0.5-0.75 0.25q0.25 0 0.375-0.125l0.125-0.125-0.125 0.125-0.0625 0.4375q-0.0625 0.4375-0.4375 0.5625t-0.9375 0.1875l-0.5625 0.0625 0.125 0.125-0.125-0.125q-0.125-0.125-0.375-0.125h-0.25 0.75-0.5q-0.5 0-1 0t-1 0-0.98438-0.015625l-0.48438-0.015625 0.03125 0.21875-0.03125-0.21875q-0.03125-0.21875-0.03125-0.46875v-0.25 0.75-1l0.375-0.125q0.375-0.125 0.5-0.5t0.125-0.875 0-1 0.125-0.875m-1.125 3.25v0.875-0.25q0-0.25 0-0.5v-0.25 0.125" fill="#c3c3c3"/>
   <path d="m6.1094 7.3906-0.14062-0.35938-0.21875-0.03125 0.21875 0.03125q0.21875 0.03125 0.40625 0.09375l0.1875 0.0625-0.5625-0.1875 0.375 0.125q0.375 0.125 0.5 0.5l0.125 0.375-0.375-0.125q-0.375-0.125-0.51562-0.48438m0.60938 0.51562 0.46875 0.15625-0.1875-0.0625q-0.1875-0.0625-0.375-0.125l-0.1875-0.0625 0.28125 0.09375"/>
   <path d="m10.125 7.625q0.125-0.375 0.5-0.5l0.375-0.125-0.5625 0.1875 0.1875-0.0625q0.1875-0.0625 0.40625-0.09375l0.21875-0.03125-0.21875 0.03125-0.14062 0.35938q-0.14062 0.35938-0.51562 0.48438l-0.375 0.125 0.125-0.375m-0.21875 0.40625 0.65625-0.21875-0.1875 0.0625q-0.1875 0.0625-0.375 0.125l-0.1875 0.0625 0.09375-0.03125"/>
   <path d="m13.125 7.625q0.125-0.375 0.375-0.375t0.375 0.375 0.125 0.875 0 1 0.125 0.875 0.5 0.5l0.375 0.125v1-0.75 0.25q0 0.25-0.03125 0.46875l-0.03125 0.21875 0.03126-0.21875-0.48438 0.01563q-0.48438 0.01562-0.98438 0.01562t-1 0-1 0h-0.5 0.75-0.25q-0.25 0-0.375 0.125l-0.125 0.125 0.125-0.125-0.5625-0.0625q-0.5625-0.0625-0.9375-0.1875t-0.4375-0.5625l-0.0625-0.4375-0.125-0.125 0.125 0.125q0.125 0.125 0.375 0.125h0.25-0.75 0.5q0.5 0 1 0t1 0 0.875-0.125 0.5-0.5 0.125-0.875 0-1 0.125-0.875m1.875 3.75v-0.625 0.25q0 0.25 0 0.5v0.25-0.375" fill="#c3c3c3"/>
   <path d="m2.125 12.375-0.125-0.375 0.1875 0.5625-0.0625-0.1875q-0.0625-0.1875-0.09375-0.40625l-0.03125-0.21875 0.03125 0.21875 0.48438 0.015625q0.48438 0.015625 0.98438 0.015625t1 0 1 0 0.5 0.5v0.5h-1.5q-0.5 0-1 0t-0.875-0.125-0.5-0.5m3.5 0.625h0.625-0.25q-0.25 0-0.5 0h-0.25 0.375" fill="#fff200"/>
   <path d="m11 12.5q0-0.5 0.5-0.5t1 0 1 0 0.98438-0.01563l0.48438-0.01562 0.03125-0.21875-0.03125 0.21875q-0.03125 0.21875-0.09375 0.40625l-0.0625 0.1875 0.1875-0.5625-0.125 0.375q-0.125 0.375-0.5 0.5t-0.875 0.125-1 0h-1.5v-0.5m-0.125 0.5h0.875-0.25q-0.25 0-0.5 0h-0.25 0.125" fill="#fff200"/>
   <path d="m5 13.5v-0.5h0.5q0.5 0 1 0t1 0 1 0 1 0 1 0 1 0h0.5v1h-7v-0.5"/>
  </g>
 </g>
</svg>
