<svg width="17" height="25" version="1.1" viewBox="0 0 17 25" xmlns="http://www.w3.org/2000/svg">
 <g transform="translate(0)">
  <path d="m0 0.5v-0.5h8v0.5q0 0.5 0 1t-0.375 0.625-0.5 0.5-0.125 0.875-0.375 0.625-0.5 0.5-0.125 0.875-0.375 0.625-0.5 0.5-0.125 0.875-0.375 0.625-0.5 0.5-0.125 0.875-0.375 0.625-0.5 0.5-0.125 0.875-0.375 0.625-0.5 0.5-0.5 0.5-0.375 0.375v0.25-0.375 0.125q0 0.125 0.09375 0.21875l0.09375 0.09375-0.09375-0.09375-0.29688 0.26562q-0.29688 0.26562-0.17188 0.64062t0.125 0.875-0.125 0.875 0.15625 0.65625l0.28125 0.28125 0.125-0.125-0.125 0.125q-0.125 0.125-0.1875 0.3125l-0.0625 0.1875 0.1875-0.5625-0.125 0.375q-0.125 0.375-0.125 0.875t0 1 0 1 0.125 0.875 0.5 0.5l0.375 0.125-0.5625-0.1875 0.1875 0.0625q0.1875 0.0625 0.375 0.0625h0.1875-0.1875v0.53125q0 0.53125 0 1.0312t0 1v0.5h-2v-24.5" fill-opacity="0"/>
  <path d="m8 0.5v-0.5h1v1h-1v-0.5m0 0.125v0.625-0.25q0-0.25 0-0.5v-0.25 0.375m1 0.5v-0.875 0.25q0 0.25 0 0.5v0.25-0.125" fill="#ff6d00"/>
  <path d="m9 0.5v-0.5h8v25h-2v-0.5q0-0.5 0-1t0-1.0312v-0.53125h-0.1875 0.1875q0.1875 0 0.375-0.0625l0.1875-0.0625-0.5625 0.1875 0.375-0.125q0.375-0.125 0.5-0.5t0.125-0.875 0-1 0-1-0.125-0.875l-0.125-0.375 0.1875 0.5625-0.0625-0.1875q-0.0625-0.1875-0.1875-0.3125l-0.125-0.125 0.125 0.125 0.28125-0.28125q0.28125-0.28125 0.15625-0.65625t-0.125-0.875 0.125-0.875-0.17188-0.64062l-0.29688-0.26562-0.09374 0.09374 0.09375-0.09375q0.09374-0.09374 0.09374-0.21874v-0.125 0.375-0.25q0-0.25-0.375-0.375t-0.5-0.5-0.5-0.5-0.375-0.625-0.125-0.875-0.5-0.5-0.375-0.625-0.125-0.875-0.5-0.5-0.375-0.625-0.125-0.875-0.5-0.5-0.375-0.625-0.125-0.875-0.5-0.5-0.375-0.625-0.125-0.875-0.5-0.5-0.375-0.625 0-1" fill-opacity="0"/>
  <g>
   <path d="m8 1.5v-0.5h1v1-0.75 0.25q0 0.25 0.09375 0.40625l0.09375 0.15625-0.09375-0.15625h-1.1875l-0.09375 0.15625 0.09375-0.15625q0.09375-0.15625 0.09375-0.40625v-0.25 0.75-0.5m1-0.125v-0.625 0.25q0 0.25 0 0.5v0.25-0.375m-1-0.5v0.875-0.25q0-0.25 0-0.5v-0.25 0.125" fill="#878787"/>
   <path d="m7.125 2.625q0.125-0.375 0.5-0.5l0.375-0.125-0.5625 0.1875 0.1875-0.0625q0.1875-0.0625 0.28125-0.21875l0.09375-0.15625-0.09375 0.15625h1.1875l-0.09375-0.15625 0.09375 0.15625q0.09375 0.15625 0.28125 0.21875l0.1875 0.0625-0.5625-0.1875 0.375 0.125q0.375 0.125 0.5 0.5t0.125 0.875v0.5-0.75 0.25q0 0.25 0.09375 0.40625l0.09375 0.15625-0.09375-0.15625-0.54688 0.046875q-0.54688 0.046875-1.0469 0.046875t-1.0469-0.046875l-0.54688-0.046875-0.09375 0.15625 0.09375-0.15625q0.09375-0.15625 0.09375-0.40625v-0.25 0.75-0.5q0-0.5 0.125-0.875" fill="#ff6d00"/>
   <path d="m6.125 4.625q0.125-0.375 0.5-0.5l0.375-0.125-0.5625 0.1875 0.1875-0.0625q0.1875-0.0625 0.28125-0.21875l0.09375-0.15625-0.09375 0.15625 0.54688 0.046875q0.54688 0.046875 1.0469 0.046875t1.0469-0.046875l0.54688-0.046875-0.09375-0.15625 0.09375 0.15625q0.09375 0.15625 0.28125 0.21875l0.1875 0.0625-0.5625-0.1875 0.375 0.125q0.375 0.125 0.5 0.5t0.125 0.875v0.5-0.75 0.25q0 0.25 0.09375 0.40625l0.09375 0.15625-0.09375-0.15625-0.54688 0.046875q-0.54688 0.046875-1.0469 0.046875t-1 0-1 0-1.0469-0.046875l-0.54688-0.046875-0.09375 0.15625 0.09375-0.15625q0.09375-0.15625 0.09375-0.40625v-0.25 0.75-0.5q0-0.5 0.125-0.875" fill="#878787"/>
   <path d="m5.125 6.625q0.125-0.375 0.5-0.5l0.375-0.125-0.5625 0.1875 0.1875-0.0625q0.1875-0.0625 0.28125-0.21875l0.09375-0.15625-0.09375 0.15625 0.54688 0.046875q0.54688 0.046875 1.0469 0.046875t1 0 1 0 1.0469-0.046875l0.54688-0.046875-0.09375-0.15625 0.09375 0.15625q0.09375 0.15625 0.28125 0.21875l0.1875 0.0625-0.5625-0.1875 0.375 0.125q0.375 0.125 0.5 0.5t0.125 0.875v0.5-0.75 0.25q0 0.25 0.09375 0.40625l0.09375 0.15625-0.09375-0.15625-0.54688 0.046875q-0.54688 0.046875-1.0469 0.046875t-1 0-1 0-1 0-1 0-1.0469-0.046875l-0.54688-0.046875-0.09375 0.15625 0.09375-0.15625q0.09375-0.15625 0.09375-0.40625v-0.25 0.75-0.5q0-0.5 0.125-0.875" fill="#ff6d00"/>
   <path d="m4.125 8.625q0.125-0.375 0.5-0.5l0.375-0.125-0.5625 0.1875 0.1875-0.0625q0.1875-0.0625 0.28125-0.21875l0.09375-0.15625-0.09375 0.15625 0.54688 0.046875q0.54688 0.046875 1.0469 0.046875t1 0 1 0 1 0 1 0 1.0469-0.046875l0.54688-0.046875-0.09375-0.15625 0.09375 0.15625q0.09375 0.15625 0.28125 0.21875l0.1875 0.0625-0.5625-0.1875 0.375 0.125q0.375 0.125 0.5 0.5t0.125 0.875v0.5-0.75 0.25q0 0.25 0.09375 0.40625l0.09375 0.15625-0.09375-0.15625-0.54688 0.046875q-0.54688 0.046875-1.0469 0.046875t-1 0-1 0-1 0-1 0-1 0-1 0-1.0469-0.046875l-0.54688-0.046875-0.09375 0.15625 0.09375-0.15625q0.09375-0.15625 0.09375-0.40625v-0.25 0.75-0.5q0-0.5 0.125-0.875" fill="#878787"/>
   <path d="m3.125 10.625q0.125-0.375 0.5-0.5l0.375-0.125-0.5625 0.1875 0.1875-0.0625q0.1875-0.0625 0.28125-0.21875l0.09375-0.15625-0.09375 0.15625 0.54688 0.046875q0.54688 0.046875 1.0469 0.046875t1 0 1 0 1 0 1 0 1 0 1 0 1.0469-0.046875l0.54688-0.046875-0.09375-0.15625 0.09375 0.15625q0.09375 0.15625 0.28125 0.21875l0.1875 0.0625-0.5625-0.1875 0.375 0.125q0.375 0.125 0.5 0.5t0.125 0.875v0.5-0.75 0.25q0 0.25 0.09375 0.40625l0.09375 0.15625-0.09374-0.15626-0.54688 0.04687q-0.54688 0.04689-1.0469 0.04689t-1 0-1 0-1 0-1 0-1 0-1 0-1 0-1 0-1.0469-0.046875l-0.54688-0.046875-0.09375 0.15625 0.09375-0.15625q0.09375-0.15625 0.09375-0.40625v-0.25 0.75-0.5q0-0.5 0.125-0.875" fill="#ff6d00"/>
   <path d="m2.125 12.625q0.125-0.375 0.5-0.5l0.375-0.125-0.5625 0.1875 0.1875-0.0625q0.1875-0.0625 0.28125-0.21875l0.09375-0.15625-0.09375 0.15625 0.54688 0.046875q0.54688 0.046875 1.0469 0.046875t1 0 1 0 1 0 1 0 1 0 1 0 1 0 1 0 1.0469-0.04687l0.54688-0.04688-0.09375-0.15625 0.09375 0.15625q0.09375 0.15625 0.28125 0.21875l0.1875 0.0625-0.5625-0.1875 0.375 0.125q0.375 0.125 0.5 0.5l0.125 0.375-0.1875-0.5625 0.0625 0.1875q0.0625 0.1875 0.1875 0.3125l0.125 0.125-0.125-0.125-0.53125 0.03125q-0.53125 0.03125-1.0312 0.03125t-1 0-1 0-1 0-1 0-1 0-1 0-1 0-1 0-1 0-1 0-1.0312-0.03125l-0.53125-0.03125-0.125 0.125 0.125-0.125q0.125-0.125 0.1875-0.3125l0.0625-0.1875-0.1875 0.5625 0.125-0.375" fill="#878787"/>
   <path d="m1.25 13.5q0-0.25 0.375-0.375l0.375-0.125-0.5625 0.1875 0.1875-0.0625q0.1875-0.0625 0.3125-0.1875l0.125-0.125-0.125 0.125 0.53125 0.03125q0.53125 0.03125 1.0312 0.03125t1 0 1 0 1 0 1 0 1 0 1 0 1 0 1 0 1 0 1 0 1.0312-0.03125l0.53125-0.03125-0.125-0.125 0.125 0.125q0.125 0.125 0.3125 0.1875l0.1875 0.0625-0.5625-0.1875 0.375 0.125q0.375 0.125 0.375 0.375t-0.375 0.375l-0.375 0.125 0.5625-0.1875-0.1875 0.0625q-0.1875 0.0625-0.28125 0.21875l-0.09375 0.15625 0.09374-0.15626-0.54688-0.04687q-0.54686-0.04687-1.0937 5e-6l-0.54688 0.04687 0.15626 0.09374-0.15625-0.09375q-0.15626-0.093735-0.40626-0.093735h-0.25 0.75-0.5q-0.5 0-1 0t-1 0-1 0-1 0-1 0-1 0-1 0-1 0-1 0-1 0-0.875-0.125-0.375-0.375" fill="#ff6d00"/>
   <path d="m0.875 14.625q-0.125-0.375 0.17188-0.64062l0.29688-0.26562-0.09375-0.09375 0.09375 0.09375q0.09375 0.09375 0.28125 0.15625l0.1875 0.0625-0.5625-0.1875 0.75 0.25-0.5625-0.1875 0.1875 0.0625q0.1875 0.0625 0.40625 0.09375l0.21875 0.03125-0.21875-0.03125-0.015625 0.51562q-0.015625 0.51562-0.015625 1.0156t-0.046875 1.0469l-0.046875 0.54688 0.15625 0.09375-0.15625-0.09375q-0.15625-0.09375-0.40625-0.09375h-0.25 0.75l-0.75 0.25 0.5625-0.1875-0.1875 0.0625q-0.1875 0.0625-0.3125 0.1875l-0.125 0.125 0.125-0.125-0.28125-0.28125q-0.28125-0.28125-0.15625-0.65625t0.125-0.875-0.125-0.875"/>
   <path d="m2.0156 14.484 0.015625-0.51562-0.21875-0.03125 0.21875 0.03125q0.21875 0.03125 0.46875 0.03125h0.25-0.75 0.5q0.5 0 1 0h0.5l-0.125 0.375q-0.125 0.375-0.375 0.625t-0.375 0.625-0.125 0.875 0.125 0.875 0.375 0.625 0.5 0.5 0.625 0.375 0.92188 0.17188l0.54688 0.046875 0.09375-0.15625-0.09375 0.15625q-0.09375 0.15625-0.09375 0.40625v0.25-0.75 1h-0.5q-0.5 0-0.875-0.125t-0.625-0.375-0.5-0.5-0.5-0.5-0.5-0.5-0.375-0.625l-0.125-0.375 0.1875 0.5625-0.0625-0.1875q-0.0625-0.1875-0.21875-0.28125l-0.15625-0.09375 0.15625 0.09375 0.046875-0.54688q0.046875-0.54688 0.046875-1.0469t0.015625-1.0156m3.6094 5.5156h0.625-0.25q-0.25 0-0.5 0h-0.25 0.375m-1.5-6h-0.875 0.25q0.25 0 0.5 0h0.25-0.125" fill="#002395"/>
   <path d="m3.875 14.375 0.125-0.375h0.5q0.5 0 1 0t1 0h0.5l0.125 0.375q0.125 0.375 0.375 0.625t0.375 0.625 0.125 0.875-0.125 0.875-0.375 0.625-0.5 0.5-0.625 0.375l-0.375 0.125 0.5625-0.1875-0.1875 0.0625q-0.1875 0.0625-0.28125 0.21875l-0.09375 0.15625 0.09375-0.15625-0.54688-0.046875q-0.54688-0.046875-0.92188-0.17188t-0.625-0.375-0.5-0.5-0.375-0.625-0.125-0.875 0.125-0.875 0.375-0.625 0.375-0.625m1.625 3.625q0.5 0 0.875-0.125t0.5-0.5 0.125-0.875-0.125-0.875-0.5-0.5-0.875-0.125-0.875 0.125-0.5 0.5-0.125 0.875 0.125 0.875 0.5 0.5 0.875 0.125m1.625-4h-0.875 0.25q0.25 0 0.5 0h0.25-0.125m-2.75 0h-0.625 0.25q0.25 0 0.5 0h0.25-0.375"/>
   <path d="m7.125 14.375-0.125-0.375h0.5q0.5 0 1 0t1 0h0.5l-0.125 0.375q-0.125 0.375-0.375 0.625t-0.375 0.625-0.125 0.875 0.125 0.875 0.375 0.625 0.5 0.5 0.625 0.375l0.375 0.125-0.5625-0.1875 0.1875 0.0625q0.1875 0.0625 0.40625 0.09375l0.21875 0.03125-0.21875-0.03125-0.03125 1.0312h-0.5q-0.5 0-0.875 0.125t-0.5 0.5-0.125 0.875 0 1 0 1v0.5h-1v-0.5q0-0.5 0-1t0-1-0.125-0.875-0.5-0.5-0.875-0.125h-0.5v-0.5q0-0.5 0.375-0.625t0.625-0.375 0.5-0.5 0.375-0.625 0.125-0.875-0.125-0.875-0.375-0.625-0.375-0.625m-1.25 5.625h0.875-0.25q-0.25 0-0.5 0h-0.25 0.125m2.125 3.625v0.625-0.25q0-0.25 0-0.5v-0.25 0.375m1 0.5v-0.875 0.25q0 0.25 0 0.5v0.25-0.125m1.625-4.125h0.625-0.25q-0.25 0-0.5 0h-0.25 0.375m-0.5-6h-0.875 0.25q0.25 0 0.5 0h0.25-0.125m-2.75 0h-0.625 0.25q0.25 0 0.5 0h0.25-0.375" fill="#fff"/>
   <path d="m9.875 14.375 0.125-0.375h0.5q0.5 0 1 0t1 0 0.625 0.375 0.375 0.625 0.375 0.625 0.125 0.875-0.125 0.875-0.375 0.625-0.5 0.5-0.625 0.375-0.875 0.125-0.875-0.125-0.625-0.375-0.5-0.5-0.375-0.625-0.125-0.875 0.125-0.875 0.375-0.625 0.375-0.625m1.625 3.625q0.5 0 0.875-0.125t0.5-0.5 0.125-0.875-0.125-0.875-0.5-0.5-0.875-0.125-0.875 0.125-0.5 0.5-0.125 0.875 0.125 0.875 0.5 0.5 0.875 0.125m-1.125-4h-0.625 0.25q0.25 0 0.5 0h0.25-0.375"/>
   <path d="m13.125 14.375-0.125-0.375 0.1875 0.5625-0.0625-0.1875q-0.0625-0.1875-0.21875-0.28125l-0.15625-0.09375 0.15626 0.09374 0.54688-0.04687q0.54686-0.04687 1.0937 5e-6l0.54688 0.04687 0.09374-0.15626-0.09375 0.15625q-0.09374 0.15626-0.09374 0.40626v0.25-0.75 0.5q0 0.5 0 1t0 1-0.125 0.875-0.375 0.625-0.5 0.5-0.5 0.5-0.5 0.5-0.625 0.375-0.875 0.125h-0.5l0.03126-1.0312-0.21875-0.03126 0.21875 0.03125q0.21874 0.03126 0.46874 0.03126h0.25-0.75 0.5q0.5 0 0.875-0.125t0.625-0.375 0.5-0.5 0.375-0.625 0.125-0.875-0.125-0.875-0.375-0.625-0.375-0.625m-2.25 5.625h0.875-0.25q-0.25 0-0.5 0h-0.25 0.125" fill="#ed2939"/>
   <path d="m15 14.5q0-0.5 0.375-0.625l0.375-0.125-0.5625 0.1875 0.1875-0.0625q0.1875-0.0625 0.28125-0.15625l0.09375-0.09375-0.09374 0.09374 0.29688 0.26562q0.29686 0.26564 0.17186 0.64064t-0.125 0.875 0.125 0.875-0.15625 0.65625l-0.28125 0.28125 0.125 0.125-0.125-0.125q-0.125-0.125-0.3125-0.1875l-0.1875-0.0625 0.5625 0.1875-0.78125-0.28125-0.03125 0.21875 0.03125-0.21875q0.03125-0.21875 0.03125-0.46875v-0.25 0.75-0.5q0-0.5 0-1t0-1"/>
   <path d="m4.125 15.625q0.125-0.375 0.5-0.5t0.875-0.125 0.875 0.125 0.5 0.5 0.125 0.875-0.125 0.875-0.5 0.5-0.875 0.125-0.875-0.125-0.5-0.5-0.125-0.875 0.125-0.875" fill="#fff"/>
   <path d="m10.125 15.625q0.125-0.375 0.5-0.5t0.875-0.125 0.875 0.125 0.5 0.5 0.125 0.875-0.125 0.875-0.5 0.5-0.875 0.125-0.875-0.125-0.5-0.5-0.125-0.875 0.125-0.875" fill="#fff"/>
   <path d="m1.125 17.625q0.125-0.375 0.5-0.5t0.5 0.25 0.375 0.625 0.5 0.5 0.5 0.5 0.5 0.5 0.625 0.375 0.875 0.125 1 0 0.875 0.125 0.5 0.5 0.125 0.875v0.5h-0.5q-0.5 0-1 0t-1 0-0.875-0.125-0.5-0.5-0.25-0.75-0.375-0.375-0.375 0.375-0.25 0.75-0.5 0.5-0.75 0-0.5-0.5-0.125-0.875 0-1 0-1 0.125-0.875m6.875 4.5v-0.875 0.25q0 0.25 0 0.5v0.25-0.125" fill="#ff0"/>
   <path d="m14.875 17.375 0.125-0.375-0.1875 0.5625 0.0625-0.1875q0.0625-0.1875 0.09375-0.40625l0.03125-0.21875-0.03126 0.21875 0.39062 0.14062q0.39064 0.14062 0.51564 0.51562t0.125 0.875 0 1 0 1-0.125 0.875-0.5 0.5-0.75 0-0.5-0.5-0.25-0.75-0.375-0.375-0.375 0.375-0.25 0.75-0.5 0.5-0.875 0.125-1 0-1 0h-0.5v-0.5q0-0.5 0.125-0.875t0.5-0.5 0.875-0.125 1 0 0.875-0.125 0.625-0.375 0.5-0.5 0.5-0.5 0.5-0.5 0.375-0.625m-5.875 4.25v0.625-0.25q0-0.25 0-0.5v-0.25 0.375" fill="#ff0"/>
   <path d="m3.125 20.625q0.125-0.375 0.375-0.375t0.375 0.375 0.25 0.75 0.5 0.5 0.875 0.125 1 0 1 0h0.5v1h-0.5q-0.5 0-1 0t-1 0-1 0-1 0-1 0h-0.5v-1.0625h-0.1875 0.1875q0.1875 0 0.375-0.0625l0.1875-0.0625-0.5625 0.1875 0.375-0.125q0.375-0.125 0.5-0.5t0.25-0.75m-1.125 2v0.625-0.25q0-0.25 0-0.5v-0.25 0.375m6 0.5v-0.875 0.25q0 0.25 0 0.5v0.25-0.125m0-0.75v-0.625 0.25q0 0.25 0 0.5v0.25-0.375" fill="#878787"/>
   <path d="m13.125 20.625q0.125-0.375 0.375-0.375t0.375 0.375 0.25 0.75 0.5 0.5l0.375 0.125-0.5625-0.1875 0.1875 0.0625q0.1875 0.0625 0.375 0.0625h0.1875-0.1875v1.0625h-0.5q-0.5 0-1 0t-1 0-1 0-1 0-1 0h-0.5v-1h0.5q0.5 0 1 0t1 0 0.875-0.125 0.5-0.5 0.25-0.75m-4.125 1.25v0.875-0.25q0-0.25 0-0.5v-0.25 0.125m0 0.75v0.625-0.25q0-0.25 0-0.5v-0.25 0.375m6 0.5v-0.875 0.25q0 0.25 0 0.5v0.25-0.125" fill="#878787"/>
   <path d="m2 23.5v-0.5h0.5q0.5 0 1 0t1 0 1 0 1 0 1 0h0.5v0.5q0 0.5 0 1v0.5h-6v-0.5q0-0.5 0-1m6-0.125v-0.625 0.25q0 0.25 0 0.5v0.25-0.375m-6-0.5v0.875-0.25q0-0.25 0-0.5v-0.25 0.125" fill="#ff0"/>
   <path d="m9 23.5v-0.5h0.5q0.5 0 1 0t1 0 1 0 1 0 1 0h0.5v0.5q0 0.5 0 1v0.5h-6v-0.5q0-0.5 0-1m6-0.125v-0.625 0.25q0 0.25 0 0.5v0.25-0.375m-6-0.5v0.875-0.25q0-0.25 0-0.5v-0.25 0.125" fill="#ff0"/>
   <path d="m8 24.5v-0.5h1v1h-1v-0.5m1-0.125v-0.625 0.25q0 0.25 0 0.5v0.25-0.375m-1-0.5v0.875-0.25q0-0.25 0-0.5v-0.25 0.125"/>
  </g>
 </g>
</svg>
