<svg width="17" height="26" version="1.1" viewBox="0 0 17 26" xmlns="http://www.w3.org/2000/svg">
 <g transform="translate(0)">
  <path d="m0 0.5v-0.5h8l-0.125 0.375q-0.125 0.375-0.5 0.5t-0.375 0.625-0.125 0.875-0.5 0.5-0.5 0.5-0.5 0.5-0.375 0.625 0.375 0.625 0.5 0.5 0.625 0.375 0.5 0.5-0.5 0.5-1 0-0.625 0.375-0.5 0.5-0.875 0.125-0.625 0.375-0.5 0.5-0.375 0.625-0.125 0.875-0.5 0.5-0.375 0.625 0 1 0 1 0 1 0 1-0.125 0.875-0.5 0.5l-0.375 0.125v-16.5" fill-opacity="0"/>
  <path d="m7.875 0.375 0.125-0.375h1l0.125 0.375q0.125 0.375 0.5 0.5t0.375 0.625 0.125 0.875 0.5 0.5 0.5 0.5 0.5 0.5 0.375 0.625-0.375 0.625-0.5 0.5-0.625 0.375-0.5 0.5 0.5 0.5 1 0 0.625 0.375 0.5 0.5 0.875 0.125 0.5 0.5v0.5h0.5q0.5 0 0.5 0.5t0.125 0.875 0.5 0.5 0.375 0.625 0 1 0 1 0 1 0 1 0.125 0.875 0.5 0.5l0.375 0.125v4l-0.375 0.125q-0.375 0.125-0.5 0.5t-0.125 0.875-0.5 0.5-0.5 0.5-0.5 0.5-0.875 0.125-0.5 0.5-0.625 0.375-0.5 0.5v0.5h-7v-0.5q0-0.5-0.5-0.5t-0.625-0.375-0.5-0.5-0.875-0.125-0.5-0.5-0.5-0.5-0.5-0.5-0.125-0.875-0.5-0.5l-0.375-0.125v-4l0.375-0.125q0.375-0.125 0.5-0.5t0.125-0.875 0-1 0-1 0-1 0-1 0.375-0.625 0.5-0.5 0.125-0.875 0.375-0.625 0.5-0.5 0.625-0.375 0.875-0.125 0.5-0.5 0.625-0.375 1 0 0.5-0.5-0.5-0.5-0.625-0.375-0.5-0.5-0.375-0.625 0.375-0.625 0.5-0.5 0.5-0.5 0.5-0.5 0.125-0.875 0.375-0.625 0.5-0.5m1.625 24.625q0.5 0 0.875-0.125t0.625-0.375 0.625-0.375 0.75-0.25 0.625-0.375 0.5-0.5 0.5-0.5 0.5-0.5 0.35938-0.64062l0.10938-0.39062-0.21875 0.03125 0.21875-0.03125q0.21875-0.03125 0.40625-0.09375l0.1875-0.0625-0.5625 0.1875 0.375-0.125q0.375-0.125 0.5-0.5t0.125-0.875 0-1-0.125-0.875-0.5-0.5-0.75 0-0.5 0.5-0.25 0.75-0.375 0.625-0.5 0.5-0.625 0.375-0.875 0.125-0.875-0.125-0.625-0.375-0.5-0.5-0.375-0.625-0.25-0.75-0.375-0.375-0.375 0.375-0.25 0.75-0.375 0.625-0.5 0.5-0.625 0.375-0.875 0.125-0.875-0.125-0.625-0.375-0.5-0.5-0.375-0.625-0.25-0.75-0.5-0.5-0.75 0-0.5 0.5-0.125 0.875 0 1 0.125 0.875 0.5 0.5l0.375 0.125-0.5625-0.1875 0.1875 0.0625q0.1875 0.0625 0.40625 0.09375l0.21875 0.03125-0.21875-0.03125 0.10938 0.39062q0.10938 0.39062 0.35938 0.64062t0.5 0.5 0.5 0.5 0.5 0.5 0.625 0.375 0.75 0.25 0.625 0.375 0.625 0.375 0.875 0.125 1 0 1 0m2-6q0.5 0 0.875-0.125t0.5-0.5 0.125-0.875-0.125-0.875-0.5-0.5-0.875-0.125-0.875 0.125-0.5 0.5-0.125 0.875 0.125 0.875 0.5 0.5 0.875 0.125m1-4q0.5 0 0.5-0.5t0.5-0.5 1 0 0.5-0.5-0.5-0.5-1 0-0.875 0.125-0.5 0.5-0.625 0.375-1 0h-1q-0.5 0-1 0t-0.875-0.125-0.67188 0.14062l-0.29688 0.26562 0.09375 0.09375-0.09375-0.09375q-0.09375-0.09375-0.28125-0.15625l-0.1875-0.0625 0.5625 0.1875-0.375-0.125q-0.375-0.125-0.75-0.25t-0.625-0.375-0.625-0.375-0.875-0.125-0.875 0.125-0.375 0.375 0.375 0.375 0.75 0.25 0.625 0.375 0.625 0.375 0.875 0.125 0.875-0.125l0.375-0.125-0.5625 0.1875 0.1875-0.0625q0.1875-0.0625 0.28125-0.15625l0.09375-0.09375-0.09375 0.09375 0.29688 0.26562q0.29688 0.26562 0.67188 0.14062t0.875-0.125 1 0h1q0.5 0 1 0t1 0m-7 4q0.5 0 0.875-0.125t0.5-0.5 0.125-0.875-0.125-0.875-0.5-0.5-0.875-0.125-0.875 0.125-0.5 0.5-0.125 0.875 0.125 0.875 0.5 0.5 0.875 0.125m8.5-9.5v-0.5h-0.5q-0.5 0-0.875 0.125t-0.65625-0.125l-0.28125-0.25-0.0625 0.125 0.0625-0.125q0.0625-0.125 0.0625-0.25v-0.125 0.375-0.25q0-0.25-0.375-0.375t-0.75 0l-0.375 0.125 0.5625-0.1875-0.1875 0.0625q-0.1875 0.0625-0.3125 0.1875l-0.125 0.125 0.125-0.125-0.28125-0.28125q-0.28125-0.28125-0.53125-0.28125t-0.5 0.28125l-0.25 0.28125 0.125 0.0625-0.125-0.0625q-0.125-0.0625-0.25-0.0625h-0.125 0.375-0.5 0.375-0.125q-0.125 0-0.25 0.0625l-0.125 0.0625 0.125-0.0625-0.25-0.28125q-0.25-0.28125-0.5-0.28125t-0.53125 0.28125l-0.28125 0.28125 0.125 0.125-0.125-0.125q-0.125-0.125-0.3125-0.1875l-0.1875-0.0625 0.5625 0.1875-0.375-0.125q-0.375-0.125-0.75 0t-0.5 0.5l-0.125 0.375v-0.75 0.25q0 0.25 0.09375 0.40625l0.09375 0.15625-0.09375-0.15625-0.54688 0.046875q-0.54688 0.046875-0.92188 0.17188t-0.5 0.5-0.10938 0.89062l0.015625 0.51562 0.21875-0.03125-0.21875 0.03125q-0.21875 0.03125-0.40625 0.09375l-0.1875 0.0625 0.5625-0.1875-0.375 0.125q-0.375 0.125-0.375 0.375t0.375 0.375 0.875 0.125 0.875 0.125 0.625 0.375 0.625 0.375 0.875 0.125 1 0 1 0 1 0 1 0 0.875-0.125 0.625-0.375 0.625-0.375 0.875-0.125 0.875-0.125 0.375-0.375-0.375-0.375l-0.375-0.125v-0.5q0-0.5 0-1m-5.875-3.125q0.125 0.375 0.375 0.375t0.375-0.375 0.25-0.75 0.5-0.5 0.75-0.25 0.375-0.375-0.375-0.375-0.5-0.5-0.375-0.625-0.375-0.625-0.25-0.75-0.375-0.375-0.375 0.375-0.25 0.75-0.375 0.625-0.375 0.625-0.5 0.5-0.375 0.375 0.375 0.375 0.75 0.25 0.5 0.5 0.25 0.75"/>
  <path d="m9.125 0.375-0.125-0.375h8v17l-0.375-0.125q-0.375-0.125-0.5-0.5t-0.125-0.875 0-1 0-1 0-1 0-1-0.375-0.625-0.5-0.5-0.125-0.875-0.5-0.5h-0.5v-0.5q0-0.5-0.5-0.5t-0.875-0.125-0.5-0.5-0.625-0.375-1 0-0.5-0.5 0.5-0.5 0.625-0.375 0.5-0.5 0.375-0.625-0.375-0.625-0.5-0.5-0.5-0.5-0.5-0.5-0.125-0.875-0.375-0.625-0.5-0.5" fill-opacity="0"/>
  <g>
   <path d="m8.125 1.625q0.125-0.375 0.375-0.375t0.375 0.375 0.25 0.75 0.375 0.625 0.375 0.625l0.125 0.375-0.1875-0.5625 0.0625 0.1875q0.0625 0.1875 0.1875 0.3125l0.125 0.125-0.125-0.125-0.0625 1.0625-0.375 0.125q-0.375 0.125-0.5 0.5t-0.25 0.75-0.375 0.375-0.375-0.375-0.25-0.75-0.5-0.5l-0.375-0.125-0.0625-1.0625-0.125 0.125 0.125-0.125q0.125-0.125 0.1875-0.3125l0.0625-0.1875-0.1875 0.5625 0.125-0.375q0.125-0.375 0.375-0.625t0.375-0.625 0.25-0.75m-1.2188 3.3438 0.65625 0.21875-0.1875-0.0625q-0.1875-0.0625-0.375-0.125l-0.1875-0.0625 0.09375 0.03125m2.8125 0.125 0.46875-0.15625-0.1875 0.0625q-0.1875 0.0625-0.375 0.125l-0.1875 0.0625 0.28125-0.09375" fill="#edd2a5"/>
   <path d="m6.25 4.5q0-0.25 0.375-0.375l0.375-0.125-0.5625 0.1875 0.1875-0.0625q0.1875-0.0625 0.3125-0.1875l0.125-0.125-0.125 0.125 0.0625 1.0625-0.375-0.125q-0.375-0.125-0.375-0.375m0.46875 0.40625 0.46875 0.15625-0.1875-0.0625q-0.1875-0.0625-0.375-0.125l-0.1875-0.0625 0.28125 0.09375" fill="#feeecd"/>
   <path d="m10.031 4.4688 0.03125-0.53125-0.125-0.125 0.125 0.125q0.125 0.125 0.3125 0.1875l0.1875 0.0625-0.5625-0.1875 0.375 0.125q0.375 0.125 0.375 0.375t-0.375 0.375l-0.375 0.125 0.03125-0.53125m-0.125 0.5625 0.65625-0.21875-0.1875 0.0625q-0.1875 0.0625-0.375 0.125l-0.1875 0.0625 0.09375-0.03125" fill="#bb9c6d"/>
   <path d="m5.125 8.625q0.125-0.375 0.5-0.5t0.75 0 0.5 0.5l0.125 0.375-0.1875-0.5625 0.0625 0.1875q0.0625 0.1875 0.21875 0.28125l0.15625 0.09375-0.15625-0.09375-0.09375 1.0938-0.375-0.125q-0.375-0.125-0.625-0.375t-0.625-0.375-0.25-0.5" fill="#feeecd"/>
   <path d="m6.875 8.625-0.125-0.375 0.1875 0.5625-0.0625-0.1875q-0.0625-0.1875-0.1875-0.3125l-0.125-0.125 0.125 0.125 0.28125-0.28125q0.28125-0.28125 0.53125-0.28125t0.5 0.28125l0.25 0.28125 0.125-0.0625-0.125 0.0625q-0.125 0.0625-0.25 0.1875l-0.125 0.125 0.375-0.375-0.25 0.25q-0.25 0.25-0.625 0.375t-0.5-0.25" fill="#21212d"/>
   <path d="m8 8.5q0.25-0.25 0.5-0.25t0.5 0.25 0.625 0.375l0.375 0.125h-0.75 0.25q0.25 0 0.40625-0.09375l0.15625-0.09375-0.15625 0.09375 0.09375 1.0938-0.375 0.125q-0.375 0.125-0.625 0.375t-0.5 0.25-0.5-0.25-0.625-0.375l-0.375-0.125 0.09375-1.0938-0.15625-0.09375 0.15625 0.09375q0.15625 0.09375 0.40625 0.09375h0.25-0.75l0.375-0.125q0.375-0.125 0.625-0.375m1.7188 1.5938 0.46875-0.15625-0.1875 0.0625q-0.1875 0.0625-0.375 0.125l-0.1875 0.0625 0.28125-0.09375" fill="#edd2a5"/>
   <path d="m9 8.5-0.25-0.25 0.375 0.375-0.125-0.125q-0.125-0.125-0.25-0.1875l-0.125-0.0625 0.125 0.0625 0.25-0.28125q0.25-0.28125 0.5-0.28125t0.53125 0.28125l0.28125 0.28125 0.125-0.125-0.125 0.125q-0.125 0.125-0.1875 0.3125l-0.0625 0.1875 0.1875-0.5625-0.125 0.375q-0.125 0.375-0.5 0.25t-0.625-0.375" fill="#21212d"/>
   <path d="m10.125 8.625q0.125-0.375 0.5-0.5t0.75 0 0.375 0.375-0.25 0.5-0.5 0.5-0.625 0.375l-0.375 0.125-0.09375-1.0938-0.15625 0.09375 0.15625-0.09375q0.15625-0.09375 0.21875-0.28125l0.0625-0.1875-0.1875 0.5625 0.125-0.375m-0.21875 1.4062 0.65625-0.21875-0.1875 0.0625q-0.1875 0.0625-0.375 0.125l-0.1875 0.0625 0.09375-0.03125" fill="#bb9c6d"/>
   <path d="m3.125 9.625q0.125-0.375 0.5-0.5t0.92188-0.17188l0.54688-0.046875-0.09375-0.15625 0.09375 0.15625q0.09375 0.15625 0.28125 0.21875l0.1875 0.0625-0.5625-0.1875 0.375 0.125q0.375 0.125 0.625 0.375t0.625 0.375l0.375 0.125v0.5q0 0.5 0 1v0.5h-0.5q-0.5 0-0.875-0.125t-0.625-0.375-0.625-0.375-0.875-0.125h-0.5 0.75-0.25q-0.25 0-0.46875 0.03125l-0.21875 0.03125 0.21875-0.03125-0.015625-0.51562q-0.015625-0.51562 0.10938-0.89062" fill="#444f6d"/>
   <path d="m11 9.5q0.25-0.25 0.5-0.5l0.25-0.25-0.375 0.375 0.125-0.125q0.125-0.125 0.1875-0.25l0.0625-0.125-0.0625 0.125 0.28125 0.25q0.28125 0.25 0.65625 0.125t0.875-0.125h0.5v0.5q0 0.5 0 1v0.5h-0.5q-0.5 0-0.875 0.125t-0.625 0.375-0.625 0.375-0.875 0.125h-0.5v-0.5q0-0.5 0-1v-0.5l0.375-0.125q0.375-0.125 0.625-0.375m-0.71875 0.40625-0.46875 0.15625 0.1875-0.0625q0.1875-0.0625 0.375-0.125l0.1875-0.0625-0.28125 0.09375m-0.40625 2.0938h0.875-0.25q-0.25 0-0.5 0h-0.25 0.125" fill="#181319"/>
   <path d="m7 10.5v-0.5l0.375 0.125q0.375 0.125 0.625 0.375t0.5 0.25 0.5-0.25 0.625-0.375l0.375-0.125v0.5q0 0.5 0 1v0.5h-0.5q-0.5 0-1 0t-1 0h-0.5v-0.5q0-0.5 0-1m2.625 1.5h0.625-0.25q-0.25 0-0.5 0h-0.25 0.375m0.46875-2.0312-0.65625 0.21875 0.1875-0.0625q0.1875-0.0625 0.375-0.125l0.1875-0.0625-0.09375 0.03125" fill="#21212d"/>
   <path d="m2.25 11.5q0-0.25 0.375-0.375t0.875-0.125 0.875 0.125 0.625 0.375 0.625 0.375 0.875 0.125h0.5v1h-0.5q-0.5 0-0.875-0.125t-0.625-0.375-0.625-0.375-0.875-0.125-0.875-0.125-0.375-0.375m4.375 1.5h0.625-0.25q-0.25 0-0.5 0h-0.25 0.375" fill="#feeecd"/>
   <path d="m12 11.5q0.25-0.25 0.625-0.375t0.875-0.125h0.5l0.375 0.125q0.375 0.125 0.375 0.375t-0.375 0.375-0.875 0.125-0.875 0.125-0.625 0.375-0.625 0.375-0.875 0.125h-0.5v-1h0.5q0.5 0 0.875-0.125t0.625-0.375m-1.625 0.5h-0.625 0.25q0.25 0 0.5 0h0.25-0.375m-0.5 1h0.875-0.25q-0.25 0-0.5 0h-0.25 0.125" fill="#bb9c6d"/>
   <path d="m7 12.5v-0.5h0.5q0.5 0 1 0t1 0h0.5v1h-0.5q-0.5 0-1 0t-1 0h-0.5v-0.5m-0.125 0.5h0.875-0.25q-0.25 0-0.5 0h-0.25 0.125m2.75 0h0.625-0.25q-0.25 0-0.5 0h-0.25 0.375m0.5-1h-0.875 0.25q0.25 0 0.5 0h0.25-0.125" fill="#edd2a5"/>
   <path d="m2.25 13.5q0-0.25 0.375-0.375t0.875-0.125 0.875 0.125 0.625 0.375 0.625 0.375 0.75 0.25 0.375 0.375-0.375 0.375-0.875 0.125-0.875-0.125-0.625-0.375-0.625-0.375-0.75-0.25-0.375-0.375" fill="#444f6d"/>
   <path d="m12.125 13.625q0.125-0.375 0.5-0.5t0.875-0.125 1 0 0.5 0.5-0.5 0.5-1 0-0.5 0.5-0.5 0.5-1 0-1 0h-0.5v-1h0.5q0.5 0 1 0t0.625-0.375" fill="#181319"/>
   <path d="m6.75 14.5v-0.25 0.375-0.125q0-0.125-0.09375-0.21875l-0.09375-0.09375 0.09375 0.09375 0.29688-0.26562q0.29688-0.26562 0.67188-0.14062t0.875 0.125 1 0h0.5v1h-0.5q-0.5 0-1 0t-0.875 0.125-0.67188-0.14062l-0.29688-0.26562-0.09375 0.09375 0.09375-0.09375q0.09375-0.09375 0.09375-0.21875v-0.125 0.375-0.25" fill="#21212d"/>
  </g>
  <g fill="#feffff">
   <path d="m4.125 16.625q0.125-0.375 0.5-0.5t0.875-0.125 0.875 0.125 0.5 0.5 0.125 0.875-0.125 0.875-0.5 0.5-0.875 0.125-0.875-0.125-0.5-0.5-0.125-0.875 0.125-0.875"/>
   <path d="m10.125 16.625q0.125-0.375 0.5-0.5t0.875-0.125 0.875 0.125 0.5 0.5 0.125 0.875-0.125 0.875-0.5 0.5-0.875 0.125-0.875-0.125-0.5-0.5-0.125-0.875 0.125-0.875"/>
   <path d="m1.125 17.625q0.125-0.375 0.5-0.5t0.75 0 0.5 0.5 0.25 0.75 0.375 0.625 0.5 0.5 0.625 0.375 0.875 0.125 0.875-0.125 0.625-0.375 0.5-0.5 0.375-0.625 0.25-0.75 0.375-0.375 0.375 0.375 0.25 0.75 0.375 0.625 0.5 0.5 0.625 0.375 0.875 0.125 0.875-0.125 0.625-0.375 0.5-0.5 0.375-0.625 0.25-0.75 0.5-0.5 0.75 0 0.5 0.5 0.125 0.875 0 1-0.125 0.875-0.5 0.5-0.875 0.125-1 0-1 0-1 0-1 0-1 0-1 0-1 0-1 0-1 0-1 0-1 0-1 0-0.875-0.125-0.5-0.5-0.125-0.875 0-1 0.125-0.875"/>
  </g>
  <path d="m0 21.5v-0.5l0.375 0.125q0.375 0.125 0.5 0.5t0.125 0.875 0.5 0.5 0.5 0.5 0.5 0.5 0.875 0.125 0.5 0.5 0.625 0.375 0.5 0.5v0.5h-5v-4.5" fill-opacity="0"/>
  <path d="m2.1406 21.359-0.10938-0.39062-0.21875-0.03125 0.21875 0.03125q0.21875 0.03125 0.46875 0.03125h0.25-0.75 0.5q0.5 0 1 0t1 0 1 0 1 0 1 0 1 0 1 0 1 0 1 0 1 0 1 0 1 0h0.5-0.75 0.25q0.25 0 0.46875-0.03125l0.21875-0.03125-0.21875 0.03126-0.10938 0.39062q-0.10938 0.39062-0.35938 0.64062t-0.5 0.5-0.5 0.5-0.5 0.5-0.625 0.375-0.75 0.25-0.625 0.375-0.625 0.375-0.875 0.125-1 0-1 0-0.875-0.125-0.625-0.375-0.625-0.375-0.75-0.25-0.625-0.375-0.5-0.5-0.5-0.5-0.5-0.5-0.35938-0.64062" fill="#d00"/>
  <path d="m16.125 21.625q0.125-0.375 0.5-0.5l0.375-0.125v5h-5v-0.5q0-0.5 0.5-0.5t0.625-0.375 0.5-0.5 0.875-0.125 0.5-0.5 0.5-0.5 0.5-0.5 0.125-0.875" fill-opacity="0"/>
 </g>
</svg>
