<svg width="17" height="14" version="1.1" viewBox="0 0 17 14" xmlns="http://www.w3.org/2000/svg">
 <g transform="translate(0)">
  <path d="m0 0.5v-0.5h5l-0.125 0.375q-0.125 0.375-0.5 0.5t-0.5 0.5-0.5 0.5-0.875 0.125-0.625 0.375-0.5 0.5-0.375 0.625 0 1-0.5 0.5h-0.5v-4.5" fill-opacity="0"/>
  <path d="m4.875 0.375 0.125-0.375h7l0.125 0.375q0.125 0.375 0.5 0.5t0.5 0.5 0.5 0.5 0.875 0.125 0.625 0.375 0.5 0.5 0.375 0.625 0 1 0.5 0.5h0.5v4h-0.5q-0.5 0-0.5 0.5t0 1-0.5 0.5-0.5 0.5-0.5 0.5-0.875 0.125-0.5 0.5-0.5 0.5-0.5 0.5l-0.125 0.375h-7v-0.5q0-0.5-0.5-0.5t-0.5-0.5-0.5-0.5-1 0-0.5-0.5-0.5-0.5-0.5-0.5 0-1-0.5-0.5h-0.5v-4h0.5q0.5 0 0.5-0.5t0-1 0.375-0.625 0.5-0.5 0.625-0.375 0.875-0.125 0.5-0.5 0.5-0.5 0.5-0.5m-2.1875 3.4375 0.4375 0.0625-0.125-0.125 0.125 0.125q0.125 0.125 0.375 0.125h0.25-0.75l0.375-0.125q0.375-0.125 0.375-0.375t-0.375-0.375l-0.375-0.125h0.75-0.25q-0.25 0-0.375 0.125l-0.125 0.125 0.125-0.125-0.4375 0.0625q-0.4375 0.0625-0.4375 0.3125t0.4375 0.3125m0.5625 3.6875q0 0.25 0.25 0.25t0.25-0.25-0.25-0.25-0.25 0.25m7.75 5q0.25 0.25 0.5 0.25t0.5-0.25 0.5-0.5 0.25-0.5-0.25-0.5-0.5-0.5-0.64062-0.39062l-0.39062-0.14062-0.03125 0.21875 0.03125-0.21875q0.03125-0.21875 0.03125-0.46875v-0.25 0.75-0.5q0-0.5-0.125-0.875t-0.375-0.625-0.5-0.5-0.625-0.375-0.875-0.125-0.875 0.125-0.625 0.375-0.625 0.375l-0.375 0.125 0.5625-0.1875-0.1875 0.0625q-0.1875 0.0625-0.28125 0.21875l-0.09375 0.15625 0.09375-0.15625-0.54688-0.046875q-0.54688-0.046875-0.92188 0.078125t-0.375 0.375 0.25 0.5 0.5 0.5 0.64062 0.35938l0.39062 0.10938-0.03125-0.21875 0.03125 0.21875q0.03125 0.21875 0.09375 0.40625l0.0625 0.1875-0.1875-0.5625 0.125 0.375q0.125 0.375 0.375 0.625t0.5 0.5 0.625 0.375 0.875 0.125 1 0h0.5-0.75 0.25q0.25 0 0.40625-0.09375l0.15625-0.09375-0.15625 0.09374 0.42188 0.17188q0.42188 0.17188 0.67188 0.42188m0.5-5.5q0.5 0 0.875-0.125t0.5-0.5 0.125-0.875-0.125-0.875-0.5-0.5-0.875-0.125-0.875 0.125-0.5 0.5-0.125 0.875 0.125 0.875 0.5 0.5 0.875 0.125m-2.5156-3.1406-0.078125 0.046875 0.42188-0.078125q0.42188-0.078125 0.67188-0.32812t0.625-0.375 0.9375-0.1875l0.5625-0.0625-0.125-0.125 0.125 0.125q0.125 0.125 0.375 0.125h0.25-0.75l0.375-0.125q0.375-0.125 0.375-0.375t-0.375-0.375l-0.375-0.125h0.75-0.25q-0.25 0-0.375 0.125l-0.125 0.125 0.125-0.125-0.1875-0.4375q-0.1875-0.4375-0.5625-0.5625t-0.875-0.125-1.0469 0.046875l-0.54688 0.046875 0.15625 0.09375-0.15625-0.09375q-0.15625-0.09375-0.40625-0.09375h-0.25 0.75-1 0.75-0.25q-0.25 0-0.40625 0.09375l-0.15625 0.09375 0.15625-0.09375-0.54688-0.046875q-0.54688-0.046875-1.0469-0.046875t-0.875 0.125-0.5625 0.5625l-0.1875 0.4375 0.125 0.125-0.125-0.125q-0.125-0.125-0.375-0.125h-0.25 0.75l-0.375 0.125q-0.375 0.125-0.375 0.375t0.375 0.375l0.375 0.125h-0.75 0.25q0.25 0 0.375-0.125l0.125-0.125-0.125 0.125 0.5625 0.0625q0.5625 0.0625 0.9375 0.1875t0.625 0.375 0.67188 0.32812l0.42188 0.078125-0.15625-0.09375 0.15625 0.09375q0.15625 0.09375 0.40625 0.09375h0.25-0.75 1-0.75 0.25q0.25 0 0.40625-0.09375l0.15625-0.09375-0.078125 0.046875m-3.4844 3.1406q0.5 0 0.875-0.125t0.5-0.5 0.125-0.875-0.125-0.875-0.5-0.5-0.875-0.125-0.875 0.125-0.5 0.5-0.125 0.875 0.125 0.875 0.5 0.5 0.875 0.125m8.4375-3.1875-0.0625 0.0625 0.4375-0.0625q0.4375-0.0625 0.4375-0.3125t-0.4375-0.3125l-0.4375-0.0625 0.125 0.125-0.125-0.125q-0.125-0.125-0.375-0.125h-0.25 0.75l-0.375 0.125q-0.375 0.125-0.375 0.375t0.375 0.375l0.375 0.125h-0.75 0.25q0.25 0 0.375-0.125l0.125-0.125-0.0625 0.0625"/>
  <path d="m12.125 0.375-0.125-0.375h5v5h-0.5q-0.5 0-0.5-0.5t0-1-0.375-0.625-0.5-0.5-0.625-0.375-0.875-0.125-0.5-0.5-0.5-0.5-0.5-0.5" fill-opacity="0"/>
  <g>
   <path d="m5.0625 1.6875q0.1875-0.4375 0.5625-0.5625t0.875-0.125 1.0469 0.046875l0.54688 0.046875 0.15625-0.09375-0.15625 0.09375q-0.15625 0.09375-0.21875 0.28125l-0.0625 0.1875 0.1875-0.5625-0.125 0.375q-0.125 0.375-0.375 0.625t-0.25 0.5 0.25 0.5 0.375 0.625l0.125 0.375-0.1875-0.5625 0.0625 0.1875q0.0625 0.1875 0.21875 0.28125l0.15625 0.09375-0.15625-0.09375-0.42188-0.078125q-0.42188-0.078125-0.67188-0.32812t-0.625-0.375-0.9375-0.1875l-0.5625-0.0625-0.125 0.125 0.125-0.125q0.125-0.125 0.125-0.375v-0.25 0.75-1 0.75-0.25q0-0.25-0.125-0.375l-0.125-0.125 0.125 0.125 0.1875-0.4375" fill="#002488"/>
   <path d="m7.875 1.375q0.125-0.375 0.625-0.375t0.625 0.375 0.375 0.625 0.25 0.5-0.25 0.5-0.375 0.625-0.625 0.375-0.625-0.375-0.375-0.625-0.25-0.5 0.25-0.5 0.375-0.625" fill="#fcdd09"/>
   <path d="m9.125 1.375-0.125-0.375 0.1875 0.5625-0.0625-0.1875q-0.0625-0.1875-0.21875-0.28125l-0.15625-0.09375 0.15625 0.09375 0.54688-0.046875q0.54688-0.046875 1.0469-0.046875t0.875 0.125 0.5625 0.5625l0.1875 0.4375 0.125-0.125-0.125 0.125q-0.125 0.125-0.125 0.375v0.25-0.75 1-0.75 0.25q0 0.25 0.125 0.375l0.125 0.125-0.125-0.125-0.5625 0.0625q-0.5625 0.0625-0.9375 0.1875t-0.625 0.375-0.67188 0.32812l-0.42188 0.078125-0.15625 0.09375 0.15625-0.09375q0.15625-0.09375 0.21875-0.28125l0.0625-0.1875-0.1875 0.5625 0.125-0.375q0.125-0.375 0.375-0.625t0.25-0.5-0.25-0.5-0.375-0.625" fill="#002488"/>
   <path d="m4.25 2.5q0-0.25 0.375-0.375t0.375 0.375-0.375 0.375-0.375-0.375" fill="#fcdd09"/>
   <path d="m12 2.5q0-0.5 0.375-0.375t0.375 0.375-0.375 0.375-0.375-0.375" fill="#fcdd09"/>
   <path d="m2.25 3.5q0-0.25 0.4375-0.3125l0.4375-0.0625 0.125-0.125-0.125 0.125q-0.125 0.125-0.125 0.375v0.25-0.75 1-0.75 0.25q0 0.25 0.125 0.375l0.125 0.125-0.125-0.125-0.4375-0.0625q-0.4375-0.0625-0.4375-0.3125" fill="#002488"/>
   <path d="m3 3.5q0-0.5 0.375-0.375t0.375 0.375-0.375 0.375-0.375-0.375" fill="#fcdd09"/>
   <path d="m13.25 3.5q0-0.25 0.375-0.375t0.375 0.375-0.375 0.375-0.375-0.375" fill="#fcdd09"/>
   <path d="m14 3.5v-0.5 0.75-0.25q0-0.25-0.125-0.375l-0.125-0.125 0.125 0.125 0.4375 0.0625q0.4375 0.0625 0.4375 0.3125t-0.4375 0.3125l-0.4375 0.0625-0.125 0.125 0.125-0.125q0.125-0.125 0.125-0.375v-0.25 0.75-0.5" fill="#002488"/>
   <path d="m4.125 4.625q0.125-0.375 0.5-0.5t0.875-0.125 0.875 0.125 0.5 0.5 0.125 0.875-0.125 0.875-0.5 0.5-0.875 0.125-0.875-0.125-0.5-0.5-0.125-0.875 0.125-0.875" fill="#fff"/>
   <path d="m10.125 4.625q0.125-0.375 0.5-0.5t0.875-0.125 0.875 0.125 0.5 0.5 0.125 0.875-0.125 0.875-0.5 0.5-0.875 0.125-0.875-0.125-0.5-0.5-0.125-0.875 0.125-0.875" fill="#fff"/>
   <path d="m3.25 7.5q0-0.25 0.25-0.25t0.25 0.25-0.25 0.25-0.25-0.25" fill="#008000"/>
   <path d="m7 7.5q0.25-0.25 0.625-0.375t0.875-0.125 0.875 0.125 0.625 0.375 0.5 0.5 0.375 0.625 0.125 0.875-0.125 0.875-0.375 0.625-0.375 0.625-0.625 0.375-1 0-0.875-0.125-0.625-0.375-0.5-0.5-0.375-0.625-0.125-0.875 0-1 0.375-0.625 0.625-0.375" fill="#fcdd09"/>
   <path d="m4.25 8.5q0-0.25 0.375-0.375t0.92188-0.078125l0.54688 0.046875 0.09375-0.15625-0.09375 0.15625q-0.09375 0.15625-0.09375 0.40625v0.25-0.75 0.5q0 0.5 0 1v0.5-0.75 0.25q0 0.25 0.03125 0.46875l0.03125 0.21875-0.03125-0.21875-0.39062-0.10938q-0.39062-0.10938-0.64062-0.35938t-0.5-0.5-0.25-0.5" fill="#008000"/>
  </g>
  <path d="m0 9.5v-0.5h0.5q0.5 0 0.5 0.5t0 1 0.5 0.5 0.5 0.5 0.5 0.5 1 0 0.5 0.5 0.5 0.5 0.5 0.5v0.5h-5v-4.5" fill-opacity="0"/>
  <path d="m16 9.5q0-0.5 0.5-0.5h0.5v5h-5l0.125-0.375q0.125-0.375 0.5-0.5t0.5-0.5 0.5-0.5 0.875-0.125 0.5-0.5 0.5-0.5 0.5-0.5 0-1" fill-opacity="0"/>
  <path d="m10.875 10.375 0.125-0.375-0.1875 0.5625 0.0625-0.1875q0.0625-0.1875 0.09375-0.40625l0.03125-0.21875-0.03125 0.21875 0.39062 0.14062q0.39062 0.14062 0.64062 0.39062t0.5 0.5 0.25 0.5-0.25 0.5-0.5 0.5-0.5 0.25-0.5-0.25-0.67188-0.42188l-0.42188-0.17188-0.15625 0.09375 0.15625-0.09375q0.15625-0.09375 0.21875-0.28125l0.0625-0.1875-0.1875 0.5625 0.125-0.375q0.125-0.375 0.375-0.625t0.375-0.625" fill="#008000"/>
 </g>
</svg>
