<svg width="18" height="18" version="1.1" viewBox="0 0 18 18" xmlns="http://www.w3.org/2000/svg">
 <g transform="translate(0)">
  <path d="m0 0.5v-0.5h3l-0.125 0.375q-0.125 0.375-0.5 0.5t-0.5 0.5-0.5 0.5-0.375 0.625-0.5 0.5h-0.5v-2.5" fill-opacity="0"/>
  <g>
   <path d="m2.875 0.375 0.125-0.375h15v15l-0.375 0.125q-0.375 0.125-0.5 0.5t-0.5 0.5-0.5 0.5-0.625 0.375-0.5 0.5v0.5h-15v-15h0.5q0.5 0 0.5-0.5t0.375-0.625 0.5-0.5 0.5-0.5 0.5-0.5m9.625 16.625q0.5 0 0.875-0.125t0.5-0.5 0.125-0.875v-0.5l-0.125-1.125-0.125 0.125 0.125-0.125q0.125-0.125 0.125-0.375v-0.25 0.75-0.5q0-0.5 0-1t0-1 0-1 0-1 0-1 0-1 0-1 0-1-0.125-0.875-0.5-0.5-0.875-0.125-1 0-1 0-1 0-1 0-1 0-1 0-1 0-1 0-1 0h-1q-0.5 0-0.875 0.125t-0.5 0.5-0.125 0.875 0.0625 1.0625l0.0625 0.5625 0.125-0.125-0.125 0.125q-0.125 0.125-0.125 0.375v0.25-0.75 0.5q0 0.5 0 1t0 1 0 1 0 1 0 1 0 1v0.5-0.75 0.25q0 0.25 0.125 0.375l0.125 0.125-0.125-0.125-0.0625 0.5625q-0.0625 0.5625-0.0625 1.0625t0.125 0.875 0.5 0.5 0.875 0.125 1 0 1 0 1 0 1 0 1 0 1 0 1 0 1 0 1 0 1 0m1-14q0.5 0 0.875-0.125t0.625-0.375 0.5-0.5 0.25-0.5-0.375-0.375-0.875-0.125-1 0-1 0-1 0-1 0-1 0-1 0-1 0-1 0-1 0-1 0-0.875 0.125-0.5 0.5-0.5 0.5-0.375 0.375 0.375 0.375 0.875 0.125 1 0 1 0 1 0 1 0 1 0 1 0 1 0 1 0 1 0 1 0m1.625 12.375q0.125 0.375 0.375 0.375t0.375-0.375l0.125-0.375 0.375-0.125q0.375-0.125 0.5-0.5t0.125-0.875-0.0625-1.0625l-0.0625-0.5625-0.125 0.125 0.125-0.125q0.125-0.125 0.125-0.375v-0.25 0.75-0.5q0-0.5 0-1t0-1 0-1 0-1 0-1 0-1v-0.5 0.75-0.25q0-0.25-0.125-0.375l-0.125-0.125 0.125 0.125 0.0625-0.5625q0.0625-0.5625 0.015625-1.1094l-0.046875-0.54688-0.09375 0.15625 0.09375-0.15625q0.09375-0.15625 0.09375-0.40625v-0.25 0.75l-0.125-0.375q-0.125-0.375-0.375-0.375t-0.5 0.25-0.5 0.5-0.375 0.625l-0.125 0.375v-0.75 0.25q0 0.25 0.125 0.375l0.125 0.125-0.125-0.125-0.0625 0.5625q-0.0625 0.5625-0.015625 1.1094l0.046875 0.54688 0.09375-0.15625-0.09375 0.15625q-0.09375 0.15625-0.09375 0.40625v0.25-0.75 0.5q0 0.5 0 1t0 1 0 1 0 1 0 1 0 1 0 1 0.0625 1.0625l0.0625 0.5625 0.125-0.125-0.125 0.125q-0.125 0.125-0.125 0.375v0.25-0.75l0.125 0.375"/>
   <path d="m3.125 1.625q0.125-0.375 0.5-0.5t0.875-0.125h0.5v1l-0.375 0.125q-0.375 0.125-0.5 0.5l-0.125 0.375h-1 0.75-0.25q-0.25 0-0.46875-0.03125l-0.21875-0.03125 0.21875 0.03125-0.09375-1.0312-0.125 0.125 0.125-0.125q0.125-0.125 0.1875-0.3125l0.0625-0.1875-0.1875 0.5625 0.125-0.375m0.5 1.375h0.625-0.25q-0.25 0-0.5 0h-0.25 0.375m1.5-2h-0.875 0.25q0.25 0 0.5 0h0.25-0.125" fill="#6767c4"/>
   <path d="m5 1.5v-0.5h0.5q0.5 0 1 0t1 0h0.5l-0.125 0.375q-0.125 0.375-0.375 0.625t-0.375 0.625l-0.125 0.375h-1l-0.125-0.375q-0.125-0.375-0.5-0.5l-0.375-0.125v-0.5m0.875 1.5h0.875-0.25q-0.25 0-0.5 0h-0.25 0.125m0.75 0h0.625-0.25q-0.25 0-0.5 0h-0.25 0.375m1.5-2h-0.875 0.25q0.25 0 0.5 0h0.25-0.125m-2.75 0h-0.625 0.25q0.25 0 0.5 0h0.25-0.375" fill="#b9b9fb"/>
   <path d="m7.875 1.375 0.125-0.375h0.5q0.5 0 1 0t1 0 1 0h0.5l-0.125 0.375q-0.125 0.375-0.375 0.625t-0.375 0.625l-0.125 0.375h-0.5q-0.5 0-1 0t-1 0-1 0h-0.5l0.125-0.375q0.125-0.375 0.375-0.625t0.375-0.625m-1 1.625h0.875-0.25q-0.25 0-0.5 0h-0.25 0.125m3.75 0h0.625-0.25q-0.25 0-0.5 0h-0.25 0.375m1.5-2h-0.875 0.25q0.25 0 0.5 0h0.25-0.125m-3.75 0h-0.625 0.25q0.25 0 0.5 0h0.25-0.375" fill="#9393f1"/>
  </g>
  <g fill="#b9b9fb">
   <path d="m11.875 1.375 0.125-0.375h0.5q0.5 0 1 0t1 0 0.875 0.125 0.375 0.375-0.25 0.5-0.5 0.5-0.625 0.375-0.875 0.125-1 0-1 0h-0.5l0.125-0.375q0.125-0.375 0.375-0.625t0.375-0.625m-1 1.625h0.875-0.25q-0.25 0-0.5 0h-0.25 0.125m1.5-2h-0.625 0.25q0.25 0 0.5 0h0.25-0.375"/>
   <path d="m2.25 2.5q0-0.25 0.375-0.375l0.375-0.125-0.5625 0.1875 0.1875-0.0625q0.1875-0.0625 0.3125-0.1875l0.125-0.125-0.125 0.125 0.09375 1.0312 0.21875 0.03125-0.21875-0.03125q-0.21875-0.03125-0.40625-0.09375l-0.1875-0.0625 0.5625 0.1875-0.375-0.125q-0.375-0.125-0.375-0.375"/>
   <path d="m4.125 2.625q0.125-0.375 0.5-0.5l0.375-0.125v1h-1l0.125-0.375m-0.25 0.375h0.875-0.25q-0.25 0-0.5 0h-0.25 0.125m0.75 0h0.625-0.25q-0.25 0-0.5 0h-0.25 0.375"/>
  </g>
  <g>
   <path d="m5 2.5v-0.5l0.375 0.125q0.375 0.125 0.5 0.5l0.125 0.375h-1v-0.5m-0.125 0.5h0.875-0.25q-0.25 0-0.5 0h-0.25 0.125m0.75 0h0.625-0.25q-0.25 0-0.5 0h-0.25 0.375" fill="#6767c4"/>
   <path d="m16 2.5q0.25-0.25 0.5-0.25t0.375 0.375-0.25 0.5-0.625 0.375-0.625 0.375-0.25-0.25 0.375-0.625 0.5-0.5" fill="#fff"/>
   <path d="m16 3.5q0.25-0.25 0.625-0.375l0.375-0.125-0.5625 0.1875 0.1875-0.0625q0.1875-0.0625 0.28125-0.21875l0.09375-0.15625-0.09375 0.15625 0.046875 0.54688q0.046875 0.54688-0.015625 1.1094l-0.0625 0.5625 0.125 0.125-0.125-0.125q-0.125-0.125-0.375-0.125h-0.25 0.75l-0.375 0.125q-0.375 0.125-0.625 0.375t-0.625 0.375l-0.375 0.125 0.5625-0.1875-0.1875 0.0625q-0.1875 0.0625-0.28125 0.21875l-0.09375 0.15625 0.09375-0.15625-0.046875-0.54688q-0.046875-0.54688 0.015625-1.1094l0.0625-0.5625-0.125-0.125 0.125 0.125q0.125 0.125 0.375 0.125h0.25-0.75l0.375-0.125q0.375-0.125 0.625-0.375" fill="#3f3fe5"/>
   <path d="m1.125 4.625q0.125-0.375 0.5-0.5t0.875-0.125h0.5v1h-0.5q-0.5 0-0.98438 0.015625l-0.48438 0.015625-0.03125 0.21875 0.03125-0.21875q0.03125-0.21875 0.09375-0.40625l0.0625-0.1875-0.1875 0.5625 0.125-0.375" fill="#707070"/>
   <path d="m3 4.5v-0.5h1v1-0.75 0.25q0 0.25 0.125 0.375l0.125 0.125-0.125-0.125-1.125 0.125v-0.5m1.125-0.5h-0.875 0.25q0.25 0 0.5 0h0.25-0.125" fill="#828282"/>
   <path d="m4 4.5v-0.5h0.5q0.5 0 1 0t1 0h0.5v0.5q0 0.5-0.5 0.5t-1 0-1 0-0.5-0.5m3.125-0.5h-0.875 0.25q0.25 0 0.5 0h0.25-0.125m-2.75 0h-0.625 0.25q0.25 0 0.5 0h0.25-0.375" fill="#fff"/>
   <path d="m7 4.5v-0.5h0.5q0.5 0 1 0t1 0 1 0 1 0 1 0 0.875 0.125 0.5 0.5l0.125 0.375-0.1875-0.5625 0.0625 0.1875q0.0625 0.1875 0.09375 0.40625l0.03125 0.21875-0.03125-0.21875-0.96875-0.03125h-0.5q-0.5 0-1 0t-1 0-1 0-1 0-1.0625-0.0625l-0.5625-0.0625-0.125 0.125 0.125-0.125q0.125-0.125 0.125-0.375v-0.25 0.75-0.5m0.375-0.5h-0.625 0.25q0.25 0 0.5 0h0.25-0.375" fill="#828282"/>
   <path d="m1 5.5v-0.5 0.75-0.25q0-0.25 0.03125-0.46875l0.03125-0.21875-0.03125 0.21875 0.48438-0.015625q0.48438-0.015625 0.98438-0.015625h0.5v2h-0.5q-0.5 0-1 0h-0.5 0.75-0.25q-0.25 0-0.375 0.125l-0.125 0.125 0.125-0.125-0.0625-0.5625q-0.0625-0.5625-0.0625-1.0625m2.125-0.5h-0.875 0.25q0.25 0 0.5 0h0.25-0.125" fill="#3f3fe5"/>
   <path d="m3 5.5v-0.5l1.125-0.125-0.125-0.125 0.125 0.125q0.125 0.125 0.375 0.125h0.25-0.75 1l0.125 0.375q0.125 0.375 0.375 0.375t0.375-0.375l0.125-0.375h1-0.75 0.25q0.25 0 0.375-0.125l0.125-0.125-0.125 0.125 0.0625 0.5625q0.0625 0.5625 0.4375 0.6875t0.65625-0.15625l0.28125-0.28125-0.125-0.125 0.125 0.125q0.125 0.125 0.3125 0.1875l0.1875 0.0625-0.5625-0.1875 0.375 0.125q0.375 0.125 0.875 0.125t1 0 0.875-0.125 0.5-0.5l0.125-0.375h1l0.125 0.375q0.125 0.375-0.14062 0.67188l-0.26562 0.29688 0.09375 0.09375-0.09375-0.09375q-0.09375-0.09375-0.21875-0.09375h-0.125 0.375-0.25q-0.25 0-0.375 0.375l-0.125 0.375-1.125 0.125 0.125 0.125-0.125-0.125q-0.125-0.125-0.375-0.125h-0.25 0.75-0.5q-0.5 0-1 0t-1 0h-0.5l-1.125 0.125 0.125 0.125-0.125-0.125q-0.125-0.125-0.375-0.125h-0.25 0.75-1 0.75-0.25q-0.25 0-0.375 0.125l-0.125 0.125 0.125-0.125-1.125-0.125-0.125-0.375q-0.125-0.375-0.375-0.375h-0.25 0.375-0.125q-0.125 0-0.21875 0.09375l-0.09375 0.09375 0.09375-0.09375-0.26562-0.29688q-0.26562-0.29688-0.64062-0.17188l-0.375 0.125v-0.5m9.375-0.5h-0.625 0.25q0.25 0 0.5 0h0.25-0.375m-6 0h-0.625 0.25q0.25 0 0.5 0h0.25-0.375m-1.25 0h-0.875 0.25q0.25 0 0.5 0h0.25-0.125m-1.75 0h-0.625 0.25q0.25 0 0.5 0h0.25-0.375" fill="#2f2fb2"/>
   <path d="m5.125 5.375-0.125-0.375h1l-0.125 0.375q-0.125 0.375-0.375 0.375t-0.375-0.375m1-0.375h-0.875 0.25q0.25 0 0.5 0h0.25-0.125m-0.75 0h-0.625 0.25q0.25 0 0.5 0h0.25-0.375" fill="#3f3fe5"/>
   <path d="m6.9375 5.4375-0.0625-0.5625 1.125 0.125 0.25 0.75-0.1875-0.5625 0.0625 0.1875q0.0625 0.1875 0.1875 0.3125l0.125 0.125-0.125-0.125-0.28125 0.28125q-0.28125 0.28125-0.65625 0.15625t-0.4375-0.6875m1.1875-0.4375h-0.875 0.25q0.25 0 0.5 0h0.25-0.125" fill="#3434b8"/>
   <path d="m8.125 5.375-0.125-0.375h0.5q0.5 0 1 0t1 0 1 0h0.5l-0.125 0.375q-0.125 0.375-0.5 0.5t-0.875 0.125-1 0-0.875-0.125-0.5-0.5m4-0.375h-0.875 0.25q0.25 0 0.5 0h0.25-0.125m-3.75 0h-0.625 0.25q0.25 0 0.5 0h0.25-0.375" fill="#3f3fe5"/>
   <path d="m13.125 5.375-0.125-0.375 0.96875 0.03125-0.03125-0.21875 0.03125 0.21875q0.03125 0.21875 0.03125 0.46875v0.25-0.75 0.5q0 0.5 0 1v0.5h-1l-0.25-0.75 0.1875 0.5625-0.0625-0.1875q-0.0625-0.1875-0.15625-0.28125l-0.09375-0.09375 0.09375 0.09375 0.26562-0.29688q0.26562-0.29688 0.14062-0.67188m0.875 1.75v-0.875 0.25q0 0.25 0 0.5v0.25-0.125" fill="#3434b8"/>
   <path d="m16 5.5q0.25-0.25 0.625-0.375t0.375 0.375 0 1v0.5l-0.375 0.125q-0.375 0.125-0.625 0.375t-0.625 0.375l-0.375 0.125v-0.5q0-0.5 0-1t0.375-0.625 0.625-0.375m-1 2.125v0.625-0.25q0-0.25 0-0.5v-0.25 0.375m2-0.5v-0.875 0.25q0 0.25 0 0.5v0.25-0.125" fill="#fff"/>
   <path d="m3 6.5v-0.5l0.375-0.125q0.375-0.125 0.64062 0.17188l0.26562 0.29688 0.09375-0.09375-0.09375 0.09375q-0.09375 0.09375-0.15625 0.28125l-0.0625 0.1875 0.1875-0.5625-0.25 0.75h-1v-0.5" fill="#3434b8"/>
   <path d="m4.125 6.625q0.125-0.375 0.375-0.375t0.375 0.375l0.125 0.375h-1l0.125-0.375" fill="#3f3fe5"/>
   <path d="m12.125 6.625q0.125-0.375 0.375-0.375t0.375 0.375l0.125 0.375h-1l0.125-0.375" fill="#3f3fe5"/>
   <path d="m1 7.5q0-0.5 0.5-0.5t1 0h0.5v0.5q0 0.5 0 1t0 1 0 1 0 1 0 1 0 1v0.5h-0.5q-0.5 0-1 0t-0.5-0.5 0-1 0-1 0-1 0-1 0-1 0-1" fill="#fff"/>
   <path d="m3 7.5v-0.5h1v0.5q0 0.5 0 1t0 1 0 1 0 1 0.125 0.875l0.125 0.375-0.1875-0.5625 0.0625 0.1875q0.0625 0.1875 0.15625 0.34375l0.09375 0.15625-0.09375-0.15625-0.26562 0.26562q-0.26562 0.26562-0.14062 0.64062l0.125 0.375h-1v-0.5q0-0.5 0-1t0-1 0-1 0-1 0-1 0-1" fill="#828282"/>
   <path d="m4 7.5v-0.5h1v0.5q0 0.5 0 1t0 1 0 1 0 1 0.125 0.875 0.5 0.5 0.875 0.125h0.5v1h-0.5q-0.5 0-1 0t-0.625-0.375-0.375-0.625-0.375-0.625-0.125-0.875 0-1 0-1 0-1 0-1m2.625 6.5h0.625-0.25q-0.25 0-0.5 0h-0.25 0.375m0.5-1h-0.875 0.25q0.25 0 0.5 0h0.25-0.125" fill="#fff"/>
   <path d="m5 7.5v-0.5l1.125 0.125 0.125-0.125-0.125 0.125q-0.125 0.125-0.125 0.375v0.25-0.75 1-0.75 0.25q0 0.25 0.125 0.375l0.125 0.125-0.125-0.125-0.125 1.125h-1v-0.5q0-0.5 0-1m0 1.125v0.625-0.25q0-0.25 0-0.5v-0.25 0.375m1 0.5v-0.875 0.25q0 0.25 0 0.5v0.25-0.125" fill="#707070"/>
   <path d="M 6,7.5 Q 6,7 6.5,7 7,7 7,7.5 V 8 H 6.5 Q 6,8 6,7.5" fill="#fff"/>
   <path d="m7 7.5v-0.5 0.75-0.25q0-0.25-0.125-0.375l-0.125-0.125 0.125 0.125 1.125-0.125v1h-1v-0.5" fill="#6767c4"/>
   <path d="m8 7.5v-0.5h1l-0.03125 1.0312 0.21875 0.03125-0.21875-0.03125q-0.21875-0.03125-0.46875-0.03125h-0.25 0.75-1v-0.5m1.125-0.5h-0.875 0.25q0.25 0 0.5 0h0.25-0.125" fill="#9393f1"/>
   <path d="m8.9844 7.5156 0.015625-0.51562h0.5q0.5 0 1 0t0.5 0.5 0 1-0.375 0.375-0.625-0.375-0.625-0.375l-0.375-0.125 0.5625 0.1875-0.1875-0.0625q-0.1875-0.0625-0.40625-0.09375l-0.21875-0.03125 0.21875 0.03125 0.015625-0.51562m0.39062-0.51562h-0.625 0.25q0.25 0 0.5 0h0.25-0.375" fill="#fff"/>
   <path d="m11 7.5v-0.5 0.75-0.25q0-0.25-0.125-0.375l-0.125-0.125 0.125 0.125 1.125-0.125v0.5q0 0.5 0 1t0.125 0.875l0.125 0.375-0.1875-0.5625 0.0625 0.1875q0.0625 0.1875 0.15625 0.28125l0.09375 0.09375-0.09375-0.09375-0.26562 0.29688q-0.26562 0.29688-0.14062 0.67188t0.5 0.25 0.64062 0.14062l0.26562 0.26562 0.15626-0.09374-0.15625 0.09375q-0.15626 0.09374-0.28126 0.21874l-0.125 0.125 0.375-0.375-0.25 0.25q-0.25 0.25-0.5 0.5t-0.5 0.5-0.625 0.375-0.875 0.125h-0.5l-0.03125-1.0312-0.21875 0.03125 0.21875-0.03125q0.21875-0.03125 0.40625-0.09375l0.1875-0.0625-0.5625 0.1875 0.375-0.125q0.375-0.125 0.375-0.375v-0.25 0.375-0.125q0-0.125-0.09375-0.21875l-0.09375-0.09375 0.09374 0.09374 0.29688-0.26562q0.29688-0.26562 0.29688-0.51562t-0.28125-0.53125l-0.28125-0.28125-0.125 0.125 0.125-0.125q0.125-0.125 0.1875-0.3125l0.0625-0.1875-0.1875 0.5625 0.125-0.875-0.125 0.125 0.125-0.125q0.125-0.125 0.125-0.375v-0.25 0.75-0.5q0-0.5 0-1m-1.125 5.5h0.875-0.25q-0.25 0-0.5 0h-0.25 0.125" fill="#707070"/>
   <path d="m12 7.5v-0.5h1v0.5q0 0.5 0 1t-0.125 0.875-0.375 0.375-0.375-0.375-0.125-0.875 0-1" fill="#fff"/>
   <path d="m13 7.5v-0.5h1v0.5q0 0.5 0 1t0 1 0 1v0.5l-0.75 0.25 0.5625-0.1875-0.1875 0.0625q-0.1875 0.0625-0.34375 0.15625l-0.15625 0.09375 0.15626-0.09374-0.26562-0.26562q-0.26564-0.26564-0.64064-0.14064t-0.5-0.25 0.14062-0.67188l0.26562-0.29688-0.09375-0.09375 0.09375 0.09375q0.09375 0.09375 0.21875 0.09375h0.125-0.375 0.25q0.25 0 0.375-0.375t0.125-0.875 0-1m1 3.625v-0.875 0.25q0 0.25 0 0.5v0.25-0.125m0-3.75v-0.625 0.25q0 0.25 0 0.5v0.25-0.375" fill="#828282"/>
   <path d="m16 7.5q0.25-0.25 0.625-0.375l0.375-0.125v0.5q0 0.5 0 1t0 1v0.5l-0.375 0.125q-0.375 0.125-0.625 0.375t-0.625 0.375l-0.375 0.125v-0.5q0-0.5 0-1t0-1v-0.5l0.375-0.125q0.375-0.125 0.625-0.375m-1 0.375v0.875-0.25q0-0.25 0-0.5v-0.25 0.125m0 2.75v0.625-0.25q0-0.25 0-0.5v-0.25 0.375m2-0.5v-0.875 0.25q0 0.25 0 0.5v0.25-0.125m0-2.75v-0.625 0.25q0 0.25 0 0.5v0.25-0.375" fill="#9393f1"/>
   <path d="m6.0625 8.4375 0.0625-0.5625-0.125-0.125 0.125 0.125q0.125 0.125 0.375 0.125h0.25-0.75 1v0.5q0 0.5 0 1t0.125 0.875 0.5 0.5 0.875 0.125 1 0 0.875 0.125 0.375 0.375-0.375 0.375-0.875 0.125-1 0-0.875-0.125-0.625-0.375-0.625-0.375l-0.375-0.125 0.5625 0.1875-0.1875-0.0625q-0.1875-0.0625-0.40625-0.09375l-0.21875-0.03125 0.21875 0.03125 0.015625-0.51562q0.015625-0.51562 0.015625-1.0156t0.0625-1.0625" fill="#3f3fe5"/>
   <path d="m7 8.5v-0.5h1v0.5q0 0.5 0 1v0.5l-0.96875-0.03125 0.03125 0.21875-0.03125-0.21875q-0.03125-0.21875-0.03125-0.46875v-0.25 0.75-0.5q0-0.5 0-1m0.625 1.5h0.625-0.25q-0.25 0-0.5 0h-0.25 0.375m0.5-2h-0.875 0.25q0.25 0 0.5 0h0.25-0.125" fill="#3434b8"/>
   <path d="m8 8.5v-0.5h0.5q0.5 0 0.875 0.125t0.625 0.375 0.625 0.375l0.375 0.125h-0.75 0.25q0.25 0 0.375-0.125l0.125-0.125-0.125 0.125-0.0625 0.4375q-0.0625 0.4375-0.4375 0.5625t-0.875 0.125-1 0h-0.5v-0.5q0-0.5 0-1m-0.125 1.5h0.875-0.25q-0.25 0-0.5 0h-0.25 0.125m0.5-2h-0.625 0.25q0.25 0 0.5 0h0.25-0.375" fill="#3f3fe5"/>
   <path d="m5 9.5v-0.5h1v1h-1v-0.5m0 0.125v0.625-0.25q0-0.25 0-0.5v-0.25 0.375m1 0.5v-0.875 0.25q0 0.25 0 0.5v0.25-0.125m0-0.75v-0.625 0.25q0 0.25 0 0.5v0.25-0.375m-1-0.5v0.875-0.25q0-0.25 0-0.5v-0.25 0.125" fill="#2f2fb2"/>
   <path d="m5 10.5v-0.5h1l-0.03125 1.0312 0.21875 0.03125-0.21875-0.03125q-0.21875-0.03125-0.46875-0.03125h-0.25 0.75-1v-0.5m0 0.125v0.625-0.25q0-0.25 0-0.5v-0.25 0.375m1-0.25v-0.625 0.25q0 0.25 0 0.5v0.25-0.375m-1-0.5v0.875-0.25q0-0.25 0-0.5v-0.25 0.125" fill="#707070"/>
   <path d="m7.125 10.375-0.125-0.375 0.1875 0.5625-0.0625-0.1875q-0.0625-0.1875-0.09375-0.40625l-0.03125-0.21875 0.03125 0.21875 0.48438 0.015625q0.48438 0.015625 0.98438 0.015625h0.5v1h-0.5q-0.5 0-0.875-0.125t-0.5-0.5m1.5 0.625h0.625-0.25q-0.25 0-0.5 0h-0.25 0.375m0.5-1h-0.875 0.25q0.25 0 0.5 0h0.25-0.125" fill="#828282"/>
   <path d="m9 10.5v-0.5h1-0.75 0.25q0.25 0 0.46875-0.03125l0.21875-0.03125-0.21875 0.03125v1.0625l0.10938 0.01563 0.10938 0.01562-0.21875-0.03125q-0.21875-0.03125-0.46875-0.03125h-0.25 0.75-1v-0.5m-0.125 0.5h0.875-0.25q-0.25 0-0.5 0h-0.25 0.125m0.5-1h-0.625 0.25q0.25 0 0.5 0h0.25-0.375" fill="#3434b8"/>
   <path d="m9.9688 10.5v-0.53125l-0.21875 0.03125 0.21875-0.03125q0.21875-0.03125 0.40625-0.09375l0.1875-0.0625-0.5625 0.1875 0.75-0.25-0.5625 0.1875 0.1875-0.0625q0.1875-0.0625 0.3125-0.1875l0.125-0.125-0.125 0.125 0.28125 0.28125q0.28125 0.28125 0.28125 0.53125t-0.29688 0.51562l-0.29688 0.26562 0.09375 0.09375-0.09375-0.09375q-0.09375-0.09375-0.28125-0.15625l-0.1875-0.0625 0.5625 0.1875-0.75-0.25 0.5625 0.1875-0.1875-0.0625q-0.1875-0.0625-0.40625-0.09375l-0.21875-0.03125 0.21875 0.03125v-0.53125" fill="#828282"/>
   <path d="m16 10.5q0.25-0.25 0.625-0.375l0.375-0.125v0.5q0 0.5 0 1t-0.5 0.5-1 0h-0.5v-1l0.375-0.125q0.375-0.125 0.625-0.375m-1 0.375v0.875-0.25q0-0.25 0-0.5v-0.25 0.125m0 0.75v0.625-0.25q0-0.25 0-0.5v-0.25 0.375m2-1.25v-0.625 0.25q0 0.25 0 0.5v0.25-0.375" fill="#fff"/>
   <path d="m5 11.5v-0.5h0.5q0.5 0 0.875 0.125t0.625 0.375 0.625 0.375 0.875 0.125 1 0h0.5-0.75 0.25q0.25 0 0.46875-0.03125l0.21875-0.03125-0.21875 0.03125 0.03125 1.0312h-0.5q-0.5 0-1 0t-1 0-1 0h-0.5 0.75-0.25q-0.25 0-0.46875-0.03125l-0.21875-0.03125 0.21875 0.03125-0.14062-0.35938q-0.14062-0.35938-0.5-0.5l-0.35938-0.14062 0.03125 0.21875-0.03125-0.21875q-0.03125-0.21875-0.03125-0.46875v-0.25 0.75-0.5m4.625 1.5h0.625-0.25q-0.25 0-0.5 0h-0.25 0.375m-4.625-2.125v0.875-0.25q0-0.25 0-0.5v-0.25 0.125" fill="#2f2fb2"/>
   <path d="m13 11.5q0.25-0.25 0.625-0.375l0.375-0.125v0.5q0 0.5 0 1t0 1-0.5 0.5-0.625-0.375-0.375-0.375-0.375 0.375-0.625 0.375-1 0-1 0h-0.5v-1h0.5q0.5 0 1 0t0.875-0.125 0.625-0.375 0.5-0.5 0.5-0.5m-3.625 1.5h-0.625 0.25q0.25 0 0.5 0h0.25-0.375m-0.5 1h0.875-0.25q-0.25 0-0.5 0h-0.25 0.125m5.125-2.625v-0.625 0.25q0 0.25 0 0.5v0.25-0.375" fill="#fff"/>
   <path d="m5.125 12.375-0.125-0.375 0.1875 0.5625-0.0625-0.1875q-0.0625-0.1875-0.09375-0.40625l-0.03125-0.21875 0.03125 0.21875 0.35938 0.14062q0.35938 0.14062 0.5 0.5l0.14062 0.35938 0.21875 0.03125-0.21875-0.03125q-0.21875-0.03125-0.40625-0.09375l-0.1875-0.0625 0.5625 0.1875-0.375-0.125q-0.375-0.125-0.5-0.5" fill="#707070"/>
   <path d="m15 12.5v-0.5h1v1h-1v-0.5m0 0.125v0.625-0.25q0-0.25 0-0.5v-0.25 0.375m1 0.5v-0.875 0.25q0 0.25 0 0.5v0.25-0.125m0.125-1.125h-0.875 0.25q0.25 0 0.5 0h0.25-0.125m-1.125-0.125v0.875-0.25q0-0.25 0-0.5v-0.25 0.125" fill="#828282"/>
   <path d="m16 12.5v-0.5h1-0.75 0.25q0.25 0 0.375-0.125l0.125-0.125-0.125 0.125 0.0625 0.5625q0.0625 0.5625 0.0625 1.0625v0.5-0.75 0.25q0 0.25-0.03125 0.46875l-0.03125 0.21875 0.03126-0.21875-0.48438 0.01563-0.48438 0.01562v-0.5q0-0.5 0-1m0 1.125v0.625-0.25q0-0.25 0-0.5v-0.25 0.375m0.375-1.625h-0.625 0.25q0.25 0 0.5 0h0.25-0.375" fill="#3f3fe5"/>
   <path d="m3.875 13.625q-0.125-0.375 0.14062-0.64062l0.26562-0.26562-0.09375-0.15625 0.09375 0.15625q0.09375 0.15625 0.21875 0.28125l0.125 0.125-0.375-0.375 0.25 0.25q0.25 0.25 0.375 0.625l0.125 0.375-0.1875-0.5625 0.0625 0.1875q0.0625 0.1875 0.21875 0.28125l0.15625 0.09375-0.15625-0.09375-1.0938 0.09375-0.125-0.375" fill="#707070"/>
   <path d="m7 13.5v-0.5h0.5q0.5 0 1 0h0.5v1h-0.5q-0.5 0-1 0h-0.5v-0.5m-0.125 0.5h0.875-0.25q-0.25 0-0.5 0h-0.25 0.125m1.75 0h0.625-0.25q-0.25 0-0.5 0h-0.25 0.375m0.5-1h-0.875 0.25q0.25 0 0.5 0h0.25-0.125m-1.75 0h-0.625 0.25q0.25 0 0.5 0h0.25-0.375" fill="#9393f1"/>
   <path d="m12.125 13.625q0.125-0.375 0.375-0.375t0.375 0.375l0.125 0.375-0.1875-0.5625 0.0625 0.1875q0.0625 0.1875 0.21875 0.28125l0.15625 0.09375-0.15625-0.09375h-1.1875l-0.07813 0.04687-0.07812 0.04688 0.15625-0.09375q0.15625-0.09375 0.21875-0.28125l0.0625-0.1875-0.1875 0.5625 0.125-0.375" fill="#707070"/>
   <path d="m15 13.5v-0.5h1v0.5q0 0.5 0 1v0.5h-1 0.75-0.25q-0.25 0-0.375 0.125l-0.125 0.125 0.125-0.125-0.0625-0.5625q-0.0625-0.5625-0.0625-1.0625m1-0.125v-0.625 0.25q0 0.25 0 0.5v0.25-0.375m-1-0.5v0.875-0.25q0-0.25 0-0.5v-0.25 0.125" fill="#2f2fb2"/>
   <path d="m1.0625 14.438 0.0625-0.5625-0.125-0.125 0.125 0.125q0.125 0.125 0.375 0.125h0.25-0.75 0.5q0.5 0 1 0h0.5l0.125 0.375q0.125 0.375 0.5 0.5t0.875 0.125 1 0 1 0 1 0 1 0 1 0 1 0 1 0h0.5l0.375 0.125q0.375 0.125 0.5 0.5l0.125 0.375h-0.5q-0.5 0-1 0t-1 0-1 0-1 0-1 0-1 0-1 0-1 0-1 0h-0.5l-0.125-0.375q-0.125-0.375-0.375-0.375t-0.375 0.375l-0.125 0.375-0.96875-0.03125 0.03125 0.21875-0.03125-0.21875q-0.03125-0.21875-0.03125-0.46875v-0.25 0.75-0.5q0-0.5 0.0625-1.0625m1.8125 1.5625h0.875-0.25q-0.25 0-0.5 0h-0.25 0.125" fill="#3f3fe5"/>
   <path d="m3.125 14.375-0.125-0.375h1l1.0938-0.09375-0.15625-0.09375 0.15625 0.09375q0.15625 0.09375 0.40625 0.09375h0.25-0.75 0.5q0.5 0 1 0t1 0 1 0 1 0 1 0 1 0h0.5-0.75 0.25q0.25 0 0.40625-0.09375l0.15625-0.09375-0.15626 0.09374 0.04687 0.54688 0.04689 0.54688h-0.5q-0.5 0-1 0t-1 0-1 0-1 0-1 0-1 0-1 0-0.875-0.125-0.5-0.5" fill="#3434b8"/>
   <path d="m11.953 14.453-0.046875-0.54688h1.1875l0.07813 0.42188q0.07812 0.42188 0.45312 0.54688l0.375 0.125v1-0.75 0.25q0 0.25-0.03125 0.46875l-0.03125 0.21875 0.03126-0.21875-0.48438 0.01563-0.48438 0.01562-0.125-0.375q-0.125-0.375-0.5-0.5l-0.375-0.125-0.046875-0.54688" fill="#2f2fb2"/>
   <path d="m13.172 14.328-0.07813-0.42188-0.15626-0.09374 0.15625 0.09375q0.15626 0.09374 0.40626 0.09374h0.25-0.75 1-0.75 0.25q0.25 0 0.375-0.125l0.125-0.125-0.125 0.125 0.125 1.125-0.375-0.125q-0.375-0.125-0.45312-0.54688" fill="#3434b8"/>
   <path d="m16 14.5v-0.5l0.96875-0.03126 0.01563-0.10938 0.01562-0.10936-0.03125 0.21875q-0.03125 0.21875-0.09375 0.40625l-0.0625 0.1875 0.1875-0.5625-0.125 0.375q-0.125 0.375-0.5 0.5l-0.375 0.125v-0.5m0-0.625v0.875-0.25q0-0.25 0-0.5v-0.25 0.125" fill="#707070"/>
   <path d="m2.125 15.625q0.125-0.375 0.375-0.375t0.375 0.375l0.125 0.375h-1l0.125-0.375m0.5 0.375h0.625-0.25q-0.25 0-0.5 0h-0.25 0.375" fill="#2f2fb2"/>
   <path d="m15.125 15.375q-0.125-0.375 0.375-0.375h0.5l-0.125 0.375q-0.125 0.375-0.375 0.375t-0.375-0.375" fill="#fff"/>
  </g>
  <path d="m17.125 15.625q0.125-0.375 0.5-0.5l0.375-0.125v3h-3v-0.5q0-0.5 0.5-0.5t0.625-0.375 0.5-0.5 0.5-0.5" fill-opacity="0"/>
  <g>
   <path d="m1.125 16.375-0.125-0.375 0.1875 0.5625-0.0625-0.1875q-0.0625-0.1875-0.09375-0.40625l-0.03125-0.21875 0.03125 0.21875 0.96875 0.03125 0.03125 0.96875 0.21875 0.03125-0.21875-0.03125q-0.21875-0.03125-0.40625-0.09375l-0.1875-0.0625 0.5625 0.1875-0.375-0.125q-0.375-0.125-0.5-0.5" fill="#707070"/>
   <path d="m2.0156 16.484-0.015625-0.48438h0.5q0.5 0 1 0t1 0 1 0 1 0 1 0 1 0 1 0 1 0 1 0 1 0h0.5l-0.03126 0.96875 0.21875-0.03126-0.21875 0.03125q-0.21874 0.03126-0.46874 0.03126h-0.25 0.75-0.5q-0.5 0-1 0t-1 0-1 0-1 0-1 0-1 0-1 0-1 0-1 0-1 0h-0.5 0.75-0.25q-0.25 0-0.46875-0.03125l-0.21875-0.03125 0.21875 0.03125-0.015625-0.48438" fill="#fff"/>
   <path d="m12.984 16.484 0.015625-0.48438 0.96875-0.03125 0.03125-0.21875-0.03125 0.21875q-0.03125 0.21875-0.09375 0.40625l-0.0625 0.1875 0.1875-0.5625-0.125 0.375q-0.125 0.375-0.5 0.5l-0.375 0.125 0.5625-0.1875-0.1875 0.0625q-0.1875 0.0625-0.40625 0.09375l-0.21875 0.03125 0.21875-0.03126 0.01563-0.48438" fill="#707070"/>
  </g>
 </g>
</svg>
