<svg width="17" height="14" version="1.1" viewBox="0 0 17 14" xmlns="http://www.w3.org/2000/svg">
 <g transform="translate(0)">
  <g fill-opacity="0">
   <path d="m0 0h1v1h-1"/>
   <path d="m1 0h1v1h-1"/>
   <path d="m2 0h1v1h-1"/>
   <path d="m3 0h1v1h-1"/>
   <path d="M 4,0 H 5 L 4.75,0.75 4,1"/>
  </g>
  <g>
   <path d="m5 0h1v1l-0.75 0.25-0.5-0.5"/>
   <path d="m6 0h1v1h-1"/>
   <path d="m7 0h1v1h-1"/>
   <path d="m8 0h1v1h-1"/>
   <path d="m9 0h1v1h-1"/>
   <path d="m10 0h1v1h-1"/>
   <path d="m11 0h1l0.25 0.75-0.5 0.5-0.75-0.25"/>
  </g>
  <g fill-opacity="0">
   <path d="m12 0h1v1l-0.75-0.25"/>
   <path d="m13 0h1v1h-1"/>
   <path d="m14 0h1v1h-1"/>
   <path d="m15 0h1v1h-1"/>
   <path d="m16 0h1v1h-1"/>
   <path d="m0 1h1v1h-1"/>
   <path d="m1 1h1v1h-1"/>
   <path d="m2 1h1v1h-1"/>
   <path d="M 3,1 H 4 L 3.75,1.75 3,2"/>
  </g>
  <path d="M 4,1 4.75,0.75 5.25,1.25 5,2 4.25,2.25 3.75,1.75"/>
  <g fill="#002b7f">
   <path d="M 5.25,1.25 6,1 V 2 H 5"/>
   <path d="m6 1h1v1h-1"/>
   <path d="m7 1h1v1h-1"/>
   <path d="m8 1h1v1h-1"/>
   <path d="m9 1h1v1h-1"/>
   <path d="m10 1h1v1h-1"/>
   <path d="m 11,1 0.75,0.25 0.5,0.5 -0.5,0.5 L 11,2"/>
  </g>
  <path d="m11.75 1.25 0.5-0.5 0.75 0.25 0.25 0.75-0.5 0.5-0.5-0.5"/>
  <g fill-opacity="0">
   <path d="m13 1h1v1l-0.75-0.25"/>
   <path d="m14 1h1v1h-1"/>
   <path d="m15 1h1v1h-1"/>
   <path d="m16 1h1v1h-1"/>
   <path d="m0 2h1v1h-1"/>
   <path d="M 1,2 H 2 L 1.75,2.75 1,3"/>
  </g>
  <g>
   <path d="m2 2h1v1l-0.75 0.25-0.5-0.5"/>
   <path d="M 3,2 3.75,1.75 4.25,2.25 3.75,2.75 3,3"/>
   <path d="m4.25 2.25 0.75-0.25v1l-0.75 0.25-0.5-0.5" fill="#ffd83d"/>
  </g>
  <g fill="#002b7f">
   <path d="m5 2h1v1h-1"/>
   <path d="m6 2h1l0.25 0.75-0.5 0.5-0.75-0.25"/>
   <path d="m7 2h1v1l-0.75-0.25"/>
   <path d="m8 2h1v1h-1"/>
   <path d="m 9,2 h 1 L 9.75,2.75 9,3"/>
   <path d="m10 2h1v1l-0.75 0.25-0.5-0.5"/>
   <path d="M 11,2 11.75,2.25 12,3 h -1"/>
   <path d="m11.75 2.25 0.5-0.5 1 1-0.5 0.5-0.75-0.25"/>
  </g>
  <path d="m12.75 2.25 0.5-0.5 0.75 0.25v1l-0.75-0.25"/>
  <path d="m14 2h1l0.25 0.75-0.5 0.5-0.75-0.25"/>
  <g fill-opacity="0">
   <path d="m15 2h1v1l-0.75-0.25"/>
   <path d="m16 2h1v1h-1"/>
   <path d="m0 3h1v1h-1"/>
  </g>
  <g>
   <path d="M 1,3 1.75,2.75 2.25,3.25 2,4 H 1"/>
   <path d="M 2.25,3.25 3,3 2.75,3.75 2,4" fill="#ffd83d"/>
   <path d="m3 3 0.75-0.25 0.5 0.5-1 1-0.5-0.5" fill="#ffd83d"/>
  </g>
  <g>
   <path d="m4.25 3.25 0.75-0.25v1l-0.75 0.25-0.5-0.5"/>
   <path d="m5 3h1v1h-1"/>
   <path d="m 6,3 0.75,0.25 0.5,0.5 -0.5,0.5 L 6,4"/>
  </g>
  <g fill="#002b7f">
   <path d="m6.75 3.25 0.5-0.5 0.75 0.25 0.25 0.75-0.5 0.5-0.5-0.5"/>
   <path d="m8 3h1l-0.25 0.75h-0.5"/>
   <path d="m9 3 0.75-0.25 0.5 0.5-1 1-0.5-0.5"/>
  </g>
  <g>
   <path d="m10.25 3.25 0.75-0.25v1l-0.75 0.25-0.5-0.5"/>
   <path d="m11 3h1v1h-1"/>
   <path d="m 12,3 0.75,0.25 0.5,0.5 -0.5,0.5 L 12,4"/>
  </g>
  <g>
   <path d="m12.75 3.25 0.5-0.5 0.75 0.25 0.25 0.75-0.5 0.5-0.5-0.5" fill="#002b7f"/>
   <path d="M 14,3 14.75,3.25 15,4 14.25,3.75" fill="#002b7f"/>
   <path d="m14.75 3.25 0.5-0.5 0.75 0.25v1h-1"/>
  </g>
  <path d="m16 3h1v1h-1" fill-opacity="0"/>
  <path d="M 0,4 H 1 L 0.75,4.75 0,5" fill-opacity="0"/>
  <g>
   <path d="m1 4h1v1l-0.75 0.25-0.5-0.5"/>
   <path d="M 2,4 2.75,3.75 3.25,4.25 3,5 H 2" fill="#ffd83d"/>
   <path d="m 3.25,4.25 0.5,-0.5 0.5,0.5 L 4,5 H 3"/>
  </g>
  <g fill="#fff">
   <path d="M 4.25,4.25 5,4 V 5 H 4"/>
   <path d="m5 4h1v1h-1"/>
   <path d="M 6,4 6.75,4.25 7,5 H 6"/>
  </g>
  <g>
   <path d="m 6.75,4.25 0.5,-0.5 0.5,0.5 L 8,5 H 7"/>
   <path d="m7.75 4.25 0.5-0.5h0.5l0.5 0.5-0.25 0.75h-1" fill="#002b7f"/>
   <path d="m9.25 4.25 0.5-0.5 0.5 0.5-0.25 0.75h-1"/>
  </g>
  <g fill="#fff">
   <path d="m10.25 4.25 0.75-0.25v1h-1"/>
   <path d="m11 4h1v1h-1"/>
   <path d="M 12,4 12.75,4.25 13,5 h -1"/>
  </g>
  <g>
   <path d="m12.75 4.25 0.5-0.5 0.5 0.5 0.25 0.75h-1"/>
   <path d="M 13.75,4.25 14.25,3.75 15,4 15.25,4.75 14.75,5.25 14,5" fill="#002b7f"/>
   <path d="m15 4h1l0.25 0.75-0.5 0.5-0.5-0.5"/>
  </g>
  <path d="m16 4h1v1l-0.75-0.25" fill-opacity="0"/>
  <g>
   <path d="M 0,5 0.75,4.75 1.25,5.25 1,6 H 0"/>
   <path d="M 1.25,5.25 2,5 V 6 H 1" fill="#002b7f"/>
   <path d="m2 5h1v1h-1" fill="#002b7f"/>
   <path d="m3 5h1v1h-1"/>
  </g>
  <g fill="#fff">
   <path d="m4 5h1v1h-1"/>
   <path d="m5 5h1v1h-1"/>
   <path d="m6 5h1v1h-1"/>
  </g>
  <g>
   <path d="m7 5h1v1h-1"/>
   <path d="m8 5h1v1h-1" fill="#002b7f"/>
   <path d="m9 5h1v1h-1"/>
  </g>
  <g fill="#fff">
   <path d="m10 5h1v1h-1"/>
   <path d="m11 5h1v1h-1"/>
   <path d="m12 5h1v1h-1"/>
  </g>
  <g>
   <path d="m13 5h1v1h-1"/>
   <path d="M 14,5 14.75,5.25 15,6 h -1" fill="#002b7f"/>
   <path d="m14.75 5.25 0.5-0.5 0.5 0.5 0.25 0.75h-1" fill="#002b7f"/>
   <path d="m15.75 5.25 0.5-0.5 0.75 0.25v1h-1"/>
   <path d="m0 6h1v1h-1"/>
   <path d="m1 6h1v1h-1" fill="#002b7f"/>
   <path d="m2 6h1v1h-1" fill="#002b7f"/>
   <path d="m3 6h1l0.25 0.75-0.5 0.5-0.75-0.25"/>
  </g>
  <g fill="#fff">
   <path d="m4 6h1v1l-0.75-0.25"/>
   <path d="m5 6h1v1h-1"/>
   <path d="M 6,6 H 7 L 6.75,6.75 6,7"/>
  </g>
  <g>
   <path d="m7 6h1v1l-0.75 0.25-0.5-0.5"/>
   <path d="m8 6h1v1h-1" fill="#002b7f"/>
   <path d="m9 6h1l0.25 0.75-0.5 0.5-0.75-0.25"/>
  </g>
  <g fill="#fff">
   <path d="m10 6h1v1l-0.75-0.25"/>
   <path d="m11 6h1v1h-1"/>
   <path d="m12 6h1l-0.25 0.75-0.75 0.25"/>
  </g>
  <g>
   <path d="m13 6h1v1l-0.75 0.25-0.5-0.5"/>
   <path d="m14 6h1v1h-1" fill="#002b7f"/>
   <path d="m15 6h1v1h-1" fill="#002b7f"/>
   <path d="m16 6h1v1h-1"/>
   <path d="m0 7h1v1h-1"/>
  </g>
  <g fill="#ce1126">
   <path d="m1 7h1v1h-1"/>
   <path d="m2 7h1v1h-1"/>
   <path d="m 3,7 0.75,0.25 0.5,0.5 -0.5,0.5 L 3,8"/>
  </g>
  <g>
   <path d="m3.75 7.25 0.5-0.5 0.75 0.25v1l-0.75-0.25"/>
   <path d="m5 7h1v1h-1"/>
   <path d="M 6,7 6.75,6.75 7.25,7.25 6.75,7.75 6,8"/>
  </g>
  <g fill="#ce1126">
   <path d="m7.25 7.25 0.75-0.25v1l-0.75 0.25-0.5-0.5"/>
   <path d="m8 7h1v1h-1"/>
   <path d="m 9,7 0.75,0.25 0.5,0.5 -0.5,0.5 L 9,8"/>
  </g>
  <g>
   <path d="m9.75 7.25 0.5-0.5 0.75 0.25v1l-0.75-0.25"/>
   <path d="m11 7h1v1h-1"/>
   <path d="m12 7 0.75-0.25 0.5 0.5-0.5 0.5-0.75 0.25"/>
  </g>
  <g fill="#ce1126">
   <path d="m13.25 7.25 0.75-0.25v1l-0.75 0.25-0.5-0.5"/>
   <path d="m14 7h1v1h-1"/>
   <path d="m15 7h1v1h-1"/>
  </g>
  <path d="m16 7h1v1h-1"/>
  <path d="m0 8h1l0.25 0.75-0.5 0.5-0.75-0.25"/>
  <g fill="#ce1126">
   <path d="m1 8h1l0.25 0.75-0.5 0.5-0.5-0.5"/>
   <path d="m2 8h1v1l-0.75-0.25"/>
   <path d="M 3,8 3.75,8.25 4,9 H 3"/>
   <path d="m3.75 8.25 0.5-0.5 0.75 0.25v1h-1"/>
   <path d="m5 8h1v1h-1"/>
   <path d="M 6,8 6.75,7.75 7.25,8.25 7,9 H 6"/>
   <path d="M 7.25,8.25 8,8 V 9 H 7"/>
   <path d="m8 8h1v1h-1"/>
   <path d="M 9,8 9.75,8.25 10,9 H 9"/>
   <path d="m9.75 8.25 0.5-0.5 0.75 0.25v1h-1"/>
   <path d="m11 8h1v1h-1"/>
   <path d="m12 8 0.75-0.25 0.5 0.5-0.25 0.75h-1"/>
   <path d="m13.25 8.25 0.75-0.25v1h-1"/>
   <path d="m14 8h1l-0.25 0.75-0.75 0.25"/>
   <path d="m15 8h1l-0.25 0.75-0.5 0.5-0.5-0.5"/>
  </g>
  <path d="m16 8h1v1l-0.75 0.25-0.5-0.5"/>
  <path d="M 0,9 0.75,9.25 1,10 H 0" fill-opacity="0"/>
  <path d="m0.75 9.25 0.5-0.5 1 1-0.5 0.5-0.75-0.25"/>
  <g fill="#ce1126">
   <path d="m1.75 9.25 0.5-0.5 0.75 0.25 0.25 0.75-0.5 0.5-0.5-0.5"/>
   <path d="m3 9h1v1l-0.75-0.25"/>
   <path d="m4 9h1v1h-1"/>
   <path d="m5 9h1v1h-1"/>
   <path d="m6 9h1v1h-1"/>
   <path d="m7 9h1v1h-1"/>
   <path d="m8 9h1v1h-1"/>
   <path d="m9 9h1v1h-1"/>
   <path d="m10 9h1v1h-1"/>
   <path d="m11 9h1v1h-1"/>
   <path d="m12 9h1v1h-1"/>
   <path d="m13 9h1l-0.25 0.75-0.75 0.25"/>
   <path d="m14 9 0.75-0.25 0.5 0.5-1 1-0.5-0.5"/>
  </g>
  <path d="m15.25 9.25 0.5-0.5 0.5 0.5-0.25 0.75-0.75 0.25-0.5-0.5"/>
  <path d="m16.25 9.25 0.75-0.25v1h-1" fill-opacity="0"/>
  <path d="m0 10h1v1h-1" fill-opacity="0"/>
  <path d="M 1,10 1.75,10.25 2,11 H 1"/>
  <path d="m1.75 10.25 0.5-0.5 1 1-0.5 0.5-0.75-0.25"/>
  <g fill="#ce1126">
   <path d="m2.75 10.25 0.5-0.5 0.75 0.25 0.25 0.75-0.5 0.5-0.5-0.5"/>
   <path d="m4 10h1v1l-0.75-0.25"/>
   <path d="m5 10h1v1h-1"/>
   <path d="m6 10h1v1h-1"/>
   <path d="m7 10h1v1h-1"/>
   <path d="m8 10h1v1h-1"/>
   <path d="m9 10h1v1h-1"/>
   <path d="m10 10h1v1h-1"/>
   <path d="m11 10h1v1h-1"/>
   <path d="m12 10h1l-0.25 0.75-0.75 0.25"/>
   <path d="m13 10 0.75-0.25 0.5 0.5-1 1-0.5-0.5"/>
  </g>
  <path d="m14.25 10.25 0.5-0.5 0.5 0.5-0.25 0.75-0.75 0.25-0.5-0.5"/>
  <path d="m15.25 10.25 0.75-0.25v1h-1"/>
  <g fill-opacity="0">
   <path d="m16 10h1v1h-1"/>
   <path d="m0 11h1v1h-1"/>
   <path d="m1 11h1v1h-1"/>
  </g>
  <path d="M 2,11 2.75,11.25 3,12 H 2"/>
  <path d="m2.75 11.25 0.5-0.5 1 1-0.5 0.5-0.75-0.25"/>
  <g fill="#ce1126">
   <path d="m3.75 11.25 0.5-0.5 0.75 0.25v1l-0.75-0.25"/>
   <path d="m5 11h1l0.25 0.75-0.5 0.5-0.75-0.25"/>
   <path d="m6 11h1v1l-0.75-0.25"/>
   <path d="m7 11h1v1h-1"/>
   <path d="m8 11h1v1h-1"/>
   <path d="m9 11h1v1h-1"/>
   <path d="m10 11h1l-0.25 0.75-0.75 0.25"/>
   <path d="m11 11h1v1l-0.75 0.25-0.5-0.5"/>
   <path d="m12 11 0.75-0.25 0.5 0.5-0.5 0.5-0.75 0.25"/>
  </g>
  <path d="m13.25 11.25 0.5-0.5 0.5 0.5-0.25 0.75-0.75 0.25-0.5-0.5"/>
  <path d="m14.25 11.25 0.75-0.25v1h-1"/>
  <g fill-opacity="0">
   <path d="m15 11h1v1h-1"/>
   <path d="m16 11h1v1h-1"/>
   <path d="m0 12h1v1h-1"/>
   <path d="m1 12h1v1h-1"/>
   <path d="m2 12h1v1h-1"/>
   <path d="M 3,12 3.75,12.25 4,13 H 3"/>
  </g>
  <path d="m3.75 12.25 0.5-0.5 0.75 0.25v1h-1"/>
  <path d="m 5,12 0.75,0.25 0.5,0.5 -0.5,0.5 L 5,13"/>
  <g fill="#ce1126">
   <path d="m5.75 12.25 0.5-0.5 0.75 0.25v1l-0.75-0.25"/>
   <path d="m7 12h1v1h-1"/>
   <path d="m8 12h1v1h-1"/>
   <path d="m9 12h1v1h-1"/>
   <path d="m10 12 0.75-0.25 0.5 0.5-0.5 0.5-0.75 0.25"/>
  </g>
  <path d="m11.25 12.25 0.75-0.25v1l-0.75 0.25-0.5-0.5"/>
  <path d="m12 12 0.75-0.25 0.5 0.5-0.25 0.75h-1"/>
  <g fill-opacity="0">
   <path d="m13.25 12.25 0.75-0.25v1h-1"/>
   <path d="m14 12h1v1h-1"/>
   <path d="m15 12h1v1h-1"/>
   <path d="m16 12h1v1h-1"/>
   <path d="m0 13h1v1h-1"/>
   <path d="m1 13h1v1h-1"/>
   <path d="m2 13h1v1h-1"/>
   <path d="m3 13h1v1h-1"/>
   <path d="m4 13h1v1h-1"/>
  </g>
  <g>
   <path d="M 5,13 5.75,13.25 6,14 H 5"/>
   <path d="m5.75 13.25 0.5-0.5 0.75 0.25v1h-1"/>
   <path d="m7 13h1v1h-1"/>
   <path d="m8 13h1v1h-1"/>
   <path d="m9 13h1v1h-1"/>
   <path d="m10 13 0.75-0.25 0.5 0.5-0.25 0.75h-1"/>
   <path d="m11.25 13.25 0.75-0.25v1h-1"/>
  </g>
  <g fill-opacity="0">
   <path d="m12 13h1v1h-1"/>
   <path d="m13 13h1v1h-1"/>
   <path d="m14 13h1v1h-1"/>
   <path d="m15 13h1v1h-1"/>
   <path d="m16 13h1v1h-1"/>
  </g>
 </g>
</svg>
