<svg width="17" height="14" version="1.1" viewBox="0 0 17 14" xmlns="http://www.w3.org/2000/svg">
 <g transform="translate(0)">
  <path d="m0 0.5v-0.5h5l-0.125 0.375q-0.125 0.375-0.5 0.5t-0.5 0.5-0.5 0.5-0.875 0.125-0.625 0.375-0.5 0.5-0.375 0.625-0.125 0.875-0.5 0.5l-0.375 0.125v-4.5" fill-opacity="0"/>
  <path d="m4.875 0.375 0.125-0.375h7l0.125 0.375q0.125 0.375 0.5 0.5t0.5 0.5 0.5 0.5 0.875 0.125 0.625 0.375 0.5 0.5 0.375 0.625 0.125 0.875 0.5 0.5l0.375 0.125v4l-0.375 0.125q-0.375 0.125-0.5 0.5t-0.125 0.875-0.5 0.5-0.5 0.5-0.5 0.5-0.875 0.125-0.5 0.5-0.625 0.375-0.5 0.5v0.5h-7v-0.5q0-0.5-0.5-0.5t-0.625-0.375-0.5-0.5-0.875-0.125-0.5-0.5-0.5-0.5-0.5-0.5-0.125-0.875-0.5-0.5l-0.375-0.125v-4l0.375-0.125q0.375-0.125 0.5-0.5t0.125-0.875 0.375-0.625 0.5-0.5 0.625-0.375 0.875-0.125 0.5-0.5 0.5-0.5 0.5-0.5m4.625 12.625q0.5 0 0.875-0.125t0.5-0.5l0.125-0.375-0.1875 0.5625 0.0625-0.1875q0.0625-0.1875 0.09375-0.40625l0.03125-0.21875-0.03126 0.21875 0.51562 0.01563q0.51564 0.01562 0.89064-0.10938t0.625-0.375 0.5-0.5 0.5-0.5 0.5-0.5 0.5-0.5 0.5-0.5 0.375-0.625 0.125-0.875 0-1-0.125-0.875-0.375-0.625-0.375-0.625-0.25-0.75-0.5-0.5-0.75-0.25-0.625-0.375-0.5-0.5-0.5-0.5-0.6875-0.3125l-0.4375-0.0625 0.125 0.125-0.125-0.125q-0.125-0.125-0.375-0.125h-0.25 0.75-0.5q-0.5 0-1 0t-1 0-1 0-1 0-0.875 0.125-0.625 0.375-0.5 0.5-0.5 0.5-0.625 0.375-0.75 0.25-0.5 0.5-0.25 0.75-0.375 0.625-0.375 0.625-0.125 0.875 0 1 0.125 0.875 0.375 0.625 0.5 0.5 0.5 0.5 0.5 0.5 0.5 0.5 0.5 0.5 0.625 0.375 0.89062 0.10938l0.51562-0.015625-0.03125-0.21875 0.03125 0.21875q0.03125 0.21875 0.09375 0.40625l0.0625 0.1875-0.1875-0.5625 0.125 0.375q0.125 0.375 0.5 0.5t0.875 0.125 1 0 1 0"/>
  <path d="m12.125 0.375-0.125-0.375h5v5l-0.375-0.125q-0.375-0.125-0.5-0.5t-0.125-0.875-0.375-0.625-0.5-0.5-0.625-0.375-0.875-0.125-0.5-0.5-0.5-0.5-0.5-0.5" fill-opacity="0"/>
  <g>
   <path d="m5 1.5q0.25-0.25 0.625-0.375l0.375-0.125-0.5625 0.1875 0.1875-0.0625q0.1875-0.0625 0.40625-0.09375l0.21875-0.03125-0.21875 0.03125-0.015625 0.48438q-0.015625 0.48438-0.03125 1l-0.015625 0.51562 0.21875 0.03125-0.21875-0.03125q-0.21875-0.03125-0.46875-0.03125h-0.25 0.75-0.5q-0.5 0-0.875 0.125t-0.625 0.375-0.5 0.5-0.375 0.625-0.125 0.875 0.125 0.875 0.375 0.625 0.5 0.5 0.625 0.375 0.875 0.125h0.5-0.75 0.25q0.25 0 0.46875-0.03125l0.21875-0.03125-0.21875 0.03125 0.015625 0.51562q0.015625 0.51562 0.015625 1.0156t0 1 0 1v0.5-0.75 0.25q0 0.25 0.03125 0.46875l0.03125 0.21875-0.03125-0.21875-0.51562 0.015625q-0.51562 0.015625-0.89062-0.10938t-0.625-0.375-0.5-0.5-0.5-0.5-0.5-0.5-0.5-0.5-0.5-0.5-0.375-0.625-0.125-0.875 0-1 0.125-0.875 0.375-0.625 0.375-0.625 0.25-0.75 0.5-0.5 0.75-0.25 0.625-0.375 0.5-0.5 0.5-0.5" fill="#14b53a"/>
   <path d="m6.0156 1.5156 0.015625-0.48438-0.21875 0.03125 0.21875-0.03125q0.21875-0.03125 0.46875-0.03125h0.25-0.75 0.5q0.5 0 1 0t1 0 1 0 1 0 0.5 0.5 0 1-0.375 0.625-0.625 0.375-0.5 0.5-0.375 0.625-0.125 0.875 0.125 0.875 0.375 0.625 0.5 0.5 0.625 0.375 0.375 0.625 0 1 0 1 0 1-0.125 0.875-0.5 0.5-0.875 0.125-1 0-1 0-0.875-0.125-0.5-0.5-0.125-0.875 0-1 0-1-0.015625-1.0156l-0.015625-0.51562-0.21875 0.03125 0.21875-0.03125q0.21875-0.03125 0.40625-0.09375l0.1875-0.0625-0.5625 0.1875 0.375-0.125q0.375-0.125 0.625-0.375t0.5-0.5 0.375-0.625 0.125-0.875-0.125-0.875-0.375-0.625-0.5-0.5-0.625-0.375l-0.375-0.125 0.5625 0.1875-0.1875-0.0625q-0.1875-0.0625-0.40625-0.09375l-0.21875-0.03125 0.21875 0.03125 0.015625-0.51562q0.015625-0.51562 0.03125-1" fill="#fcd116"/>
   <path d="m11 1.5v-0.5 0.75-0.25q0-0.25-0.125-0.375l-0.125-0.125 0.125 0.125 0.4375 0.0625q0.4375 0.0625 0.6875 0.3125t0.5 0.5 0.5 0.5 0.625 0.375 0.75 0.25 0.5 0.5 0.25 0.75 0.375 0.625 0.375 0.625 0.125 0.875 0 1-0.125 0.875-0.375 0.625-0.5 0.5-0.5 0.5-0.5 0.5-0.5 0.5-0.5 0.5-0.625 0.375-0.89062 0.10938l-0.51562-0.015625-0.03125 0.21875 0.03125-0.21875q0.03125-0.21875 0.03125-0.46875v-0.25 0.75-0.5q0-0.5 0-1t0-1 0-1v-0.5 0.75-0.25q0-0.25-0.09375-0.40625l-0.09375-0.15625 0.09375 0.15625 0.54688-0.046875q0.54688-0.046875 0.92188-0.17188t0.625-0.375 0.5-0.5 0.375-0.625 0.125-0.875-0.125-0.875-0.375-0.625-0.5-0.5-0.625-0.375-0.92188-0.17188l-0.54688-0.046875-0.09375 0.15625 0.09375-0.15625q0.09375-0.15625 0.09375-0.40625v-0.25 0.75-0.5q0-0.5 0-1" fill="#ce1126"/>
   <path d="m4 3.5q0.25-0.25 0.625-0.375t0.875-0.125 0.875 0.125 0.625 0.375 0.5 0.5 0.375 0.625 0.125 0.875-0.125 0.875-0.375 0.625-0.5 0.5-0.625 0.375-0.875 0.125-0.875-0.125-0.625-0.375-0.5-0.5-0.375-0.625-0.125-0.875 0.125-0.875 0.375-0.625 0.5-0.5m1.5 3.5q0.5 0 0.875-0.125t0.5-0.5 0.125-0.875-0.125-0.875-0.5-0.5-0.875-0.125-0.875 0.125-0.5 0.5-0.125 0.875 0.125 0.875 0.5 0.5 0.875 0.125"/>
   <path d="m10 3.5q0.25-0.25 0.625-0.375l0.375-0.125-0.5625 0.1875 0.1875-0.0625q0.1875-0.0625 0.28125-0.21875l0.09375-0.15625-0.09375 0.15625 0.54688 0.046875q0.54688 0.046875 0.92188 0.17188t0.625 0.375 0.5 0.5 0.375 0.625 0.125 0.875-0.125 0.875-0.375 0.625-0.5 0.5-0.625 0.375-0.92188 0.17188l-0.54688 0.046875 0.09375 0.15625-0.09375-0.15625q-0.09375-0.15625-0.28125-0.21875l-0.1875-0.0625 0.5625 0.1875-0.375-0.125q-0.375-0.125-0.625-0.375t-0.5-0.5-0.375-0.625-0.125-0.875 0.125-0.875 0.375-0.625 0.5-0.5m1.5 3.5q0.5 0 0.875-0.125t0.5-0.5 0.125-0.875-0.125-0.875-0.5-0.5-0.875-0.125-0.875 0.125-0.5 0.5-0.125 0.875 0.125 0.875 0.5 0.5 0.875 0.125"/>
   <path d="m4.125 4.625q0.125-0.375 0.5-0.5t0.875-0.125 0.875 0.125 0.5 0.5 0.125 0.875-0.125 0.875-0.5 0.5-0.875 0.125-0.875-0.125-0.5-0.5-0.125-0.875 0.125-0.875" fill="#fff"/>
   <path d="m10.125 4.625q0.125-0.375 0.5-0.5t0.875-0.125 0.875 0.125 0.5 0.5 0.125 0.875-0.125 0.875-0.5 0.5-0.875 0.125-0.875-0.125-0.5-0.5-0.125-0.875 0.125-0.875" fill="#fff"/>
  </g>
  <path d="m0 9.5v-0.5l0.375 0.125q0.375 0.125 0.5 0.5t0.125 0.875 0.5 0.5 0.5 0.5 0.5 0.5 0.875 0.125 0.5 0.5 0.625 0.375 0.5 0.5v0.5h-5v-4.5" fill-opacity="0"/>
  <path d="m16.125 9.625q0.125-0.375 0.5-0.5l0.375-0.125v5h-5v-0.5q0-0.5 0.5-0.5t0.625-0.375 0.5-0.5 0.875-0.125 0.5-0.5 0.5-0.5 0.5-0.5 0.125-0.875" fill-opacity="0"/>
 </g>
</svg>
