<svg width="17" height="14" version="1.1" viewBox="0 0 17 14" xmlns="http://www.w3.org/2000/svg">
 <g transform="translate(0)">
  <path d="m0 0.5v-0.5h5l-0.125 0.375q-0.125 0.375-0.5 0.5t-0.5 0.5-0.5 0.5-0.875 0.125-0.625 0.375-0.5 0.5-0.375 0.625-0.125 0.875-0.5 0.5l-0.375 0.125v-4.5" fill-opacity="0"/>
  <path d="m4.875 0.375 0.125-0.375h7l0.125 0.375q0.125 0.375 0.5 0.5t0.5 0.5 0.5 0.5 0.875 0.125 0.625 0.375 0.5 0.5 0.375 0.625 0.125 0.875 0.5 0.5l0.375 0.125v4l-0.375 0.125q-0.375 0.125-0.5 0.5t-0.125 0.875-0.5 0.5-0.5 0.5-0.5 0.5-0.875 0.125-0.5 0.5-0.625 0.375-0.5 0.5v0.5h-7v-0.5q0-0.5-0.5-0.5t-0.625-0.375-0.5-0.5-0.875-0.125-0.5-0.5-0.5-0.5-0.5-0.5-0.125-0.875-0.5-0.5l-0.375-0.125v-4l0.375-0.125q0.375-0.125 0.5-0.5t0.125-0.875 0.375-0.625 0.5-0.5 0.625-0.375 0.875-0.125 0.5-0.5 0.5-0.5 0.5-0.5m4.625 12.625q0.5 0 0.875-0.125t0.625-0.375 0.625-0.375 0.75-0.25 0.625-0.375 0.5-0.5 0.5-0.5 0.5-0.5 0.5-0.5 0.5-0.5 0.375-0.625 0.125-0.875 0-1-0.125-0.875-0.375-0.625-0.375-0.625-0.25-0.75-0.5-0.5-0.75-0.25-0.625-0.375-0.5-0.5-0.5-0.5-0.625-0.375-0.875-0.125-1 0-1 0-1 0-1 0-0.875 0.125-0.625 0.375-0.5 0.5-0.5 0.5-0.625 0.375-0.75 0.25-0.5 0.5-0.25 0.75-0.375 0.625-0.375 0.625-0.125 0.875 0 1 0.125 0.875 0.375 0.625 0.5 0.5 0.5 0.5 0.5 0.5 0.5 0.5 0.5 0.5 0.625 0.375 0.75 0.25 0.625 0.375 0.625 0.375 0.875 0.125 1 0 1 0"/>
  <path d="m12.125 0.375-0.125-0.375h5v5l-0.375-0.125q-0.375-0.125-0.5-0.5t-0.125-0.875-0.375-0.625-0.5-0.5-0.625-0.375-0.875-0.125-0.5-0.5-0.5-0.5-0.5-0.5" fill-opacity="0"/>
  <g>
   <path d="m5 1.5q0.25-0.25 0.625-0.375t0.875-0.125 1 0 1 0 1 0 1 0 0.875 0.125 0.625 0.375 0.5 0.5 0.5 0.5 0.625 0.375 0.75 0.25 0.5 0.5 0.25 0.75 0.375 0.625 0.375 0.625 0.125 0.875 0 1-0.125 0.875-0.375 0.625-0.5 0.5-0.5 0.5-0.5 0.5-0.5 0.5-0.5 0.5-0.625 0.375-0.75 0.25-0.625 0.375-0.625 0.375-0.875 0.125-1 0-1 0-0.875-0.125-0.625-0.375-0.625-0.375-0.75-0.25-0.625-0.375-0.5-0.5-0.5-0.5-0.5-0.5-0.5-0.5-0.5-0.5-0.375-0.625-0.125-0.875 0-1 0.125-0.875 0.375-0.625 0.375-0.625 0.25-0.75 0.5-0.5 0.75-0.25 0.625-0.375 0.5-0.5 0.5-0.5m7.5 8.5q0.5 0 0.875-0.125t0.5-0.5 0.125-0.875 0-1 0-1 0-1-0.125-0.875-0.375-0.625-0.5-0.5-0.625-0.375-0.875-0.125-0.875 0.125-0.625 0.375-0.5 0.5-0.375 0.625-0.1875 0.9375l-0.0625 0.5625 0.125 0.125-0.125-0.125q-0.125-0.125-0.375-0.125h-0.25 0.75-1 0.75-0.25q-0.25 0-0.40625 0.09375l-0.15625 0.09375 0.15625-0.09375-0.046875-0.54688q-0.046875-0.54688-0.17188-0.92188t-0.375-0.625-0.5-0.5-0.625-0.375-0.875-0.125-0.875 0.125-0.625 0.375-0.5 0.5-0.375 0.625-0.125 0.875 0 1 0 1 0 1 0.125 0.875 0.5 0.5 0.875 0.125 1 0 1 0 1 0 1 0 1 0 1 0 1 0 1 0" fill="#d21034"/>
   <path d="m4 3.5q0.25-0.25 0.625-0.375t0.875-0.125 0.875 0.125 0.625 0.375 0.5 0.5 0.375 0.625 0.17188 0.92188l0.046875 0.54688 0.15625-0.09375-0.15625 0.09375q-0.15625 0.09375-0.21875 0.28125l-0.0625 0.1875 0.1875-0.5625-0.125 0.375q-0.125 0.375-0.375 0.625t-0.375 0.625l-0.125 0.375 0.1875-0.5625-0.0625 0.1875q-0.0625 0.1875-0.0625 0.375v0.1875-0.1875h-0.53125q-0.53125 0-1.0312 0t-0.875-0.125-0.625-0.375-0.625-0.375l-0.375-0.125v-0.5q0-0.5 0-1t0.125-0.875 0.375-0.625 0.5-0.5m-1 3.125v0.625-0.25q0-0.25 0-0.5v-0.25 0.375m2.5 0.375q0.5 0 0.875-0.125t0.5-0.5 0.125-0.875-0.125-0.875-0.5-0.5-0.875-0.125-0.875 0.125-0.5 0.5-0.125 0.875 0.125 0.875 0.5 0.5 0.875 0.125"/>
   <path d="m10 3.5q0.25-0.25 0.625-0.375t0.875-0.125 0.875 0.125 0.625 0.375 0.5 0.5 0.375 0.625 0.125 0.875 0 1v0.5l-0.375 0.125q-0.375 0.125-0.625 0.375t-0.625 0.375-0.875 0.125-0.875-0.125-0.625-0.375-0.67188-0.42188l-0.42188-0.17188-0.09375 0.15625 0.09375-0.15625q0.09375-0.15625 0.09375-0.40625v-0.25 0.75-1 0.75-0.25q0-0.25-0.125-0.375l-0.125-0.125 0.125 0.125 0.0625-0.5625q0.0625-0.5625 0.1875-0.9375t0.375-0.625 0.5-0.5m1.5 3.5q0.5 0 0.875-0.125t0.5-0.5 0.125-0.875-0.125-0.875-0.5-0.5-0.875-0.125-0.875 0.125-0.5 0.5-0.125 0.875 0.125 0.875 0.5 0.5 0.875 0.125m2.5 0.125v-0.875 0.25q0 0.25 0 0.5v0.25-0.125"/>
  </g>
  <g fill="#fff">
   <path d="m4.125 4.625q0.125-0.375 0.5-0.5t0.875-0.125 0.875 0.125 0.5 0.5 0.125 0.875-0.125 0.875-0.5 0.5-0.875 0.125-0.875-0.125-0.5-0.5-0.125-0.875 0.125-0.875"/>
   <path d="m10.125 4.625q0.125-0.375 0.5-0.5t0.875-0.125 0.875 0.125 0.5 0.5 0.125 0.875-0.125 0.875-0.5 0.5-0.875 0.125-0.875-0.125-0.5-0.5-0.125-0.875 0.125-0.875"/>
   <path d="m7.875 6.375q0.125-0.375 0.625-0.375t0.5 0.5-0.375 0.625-0.5 0.5-0.25 0.75-0.375 0.375-0.375-0.375 0-0.75 0.375-0.625 0.375-0.625"/>
  </g>
  <path d="m3 7.5v-0.5l0.375 0.125q0.375 0.125 0.625 0.375t0.625 0.375 0.875 0.125 1.0312 0h0.53125v-0.1875 0.1875q0 0.1875 0.0625 0.375l0.0625 0.1875-0.1875-0.5625 0.125 0.375q0.125 0.375 0.375 0.375t0.375-0.375 0.25-0.75 0.5-0.5l0.375-0.125-0.5625 0.1875 0.1875-0.0625q0.1875-0.0625 0.28125-0.21875l0.09375-0.15625-0.09375 0.15625 0.42188 0.17188q0.42188 0.17188 0.67188 0.42188t0.625 0.375 0.875 0.125 0.875-0.125 0.625-0.375 0.625-0.375l0.375-0.125v0.5q0 0.5 0 1t-0.125 0.875-0.5 0.5-0.875 0.125-1 0-1 0-1 0h-0.5l-0.125-0.375q-0.125-0.375-0.375-0.375t-0.375 0.375l-0.125 0.375h-0.5q-0.5 0-1 0t-1 0-1 0-0.875-0.125-0.5-0.5-0.125-0.875 0-1m4.625 2.5h0.625-0.25q-0.25 0-0.5 0h-0.25 0.375m1.25 0h0.875-0.25q-0.25 0-0.5 0h-0.25 0.125m5.125-2.625v-0.625 0.25q0 0.25 0 0.5v0.25-0.375m-11-0.5v0.875-0.25q0-0.25 0-0.5v-0.25 0.125" fill="#007e3a"/>
  <path d="m0 9.5v-0.5l0.375 0.125q0.375 0.125 0.5 0.5t0.125 0.875 0.5 0.5 0.5 0.5 0.5 0.5 0.875 0.125 0.5 0.5 0.625 0.375 0.5 0.5v0.5h-5v-4.5" fill-opacity="0"/>
  <path d="m8.125 9.625q0.125-0.375 0.375-0.375t0.375 0.375l0.125 0.375h-1l0.125-0.375m-0.25 0.375h0.875-0.25q-0.25 0-0.5 0h-0.25 0.125m0.75 0h0.625-0.25q-0.25 0-0.5 0h-0.25 0.375" fill="#fff"/>
  <path d="m16.125 9.625q0.125-0.375 0.5-0.5l0.375-0.125v5h-5v-0.5q0-0.5 0.5-0.5t0.625-0.375 0.5-0.5 0.875-0.125 0.5-0.5 0.5-0.5 0.5-0.5 0.125-0.875" fill-opacity="0"/>
 </g>
</svg>
