<svg width="29" height="24" version="1.1" viewBox="0 0 29 24" xmlns="http://www.w3.org/2000/svg">
 <g transform="translate(0)">
  <path d="m0 0.5v-0.5h14l-0.125 0.375q-0.125 0.375-0.5 0.5t-0.875 0.125-1 0-0.5 0.5-0.125 0.875-0.5 0.5-0.375 0.625-0.5 0.5-0.5 0.5-0.5 0.5-0.5 0.5 0 1-0.5 0.5-0.5 0.5-0.5 0.5-0.5 0.5-0.125 0.875-0.5 0.5-0.875 0.125-1 0-1 0-1 0-0.625 0.375-0.5 0.5l-0.375 0.125v-10.5" fill-opacity="0"/>
  <path d="m13.875 0.375 0.125-0.375h1l0.125 0.375q0.125 0.375 0.5 0.5t0.875 0.125 1 0 0.5 0.5 0.125 0.875 0.5 0.5 0.875 0.125 0.875-0.125 0.5-0.5 0.625-0.375 1 0 1 0 1 0 0.5 0.5 0.125 0.875 0.5 0.5 0.375 0.625-0.375 0.625-0.375 0.375 0.375 0.375 0.5 0.5 0.5 0.5 0.375 0.625-0.375 0.625-0.5 0.5 0.375 0.375 0.5 0.5 0.5 0.5 0.625 0.375 0.5 0.5l0.375 0.125v2h-0.5q-0.5 0-0.5 0.5t-0.5 0.5-0.5 0.5-0.5 0.5-0.5 0.5-0.5 0.5-0.5 0.5-0.5 0.5-1 0-0.5 0.5 0 1-0.375 0.625-0.5 0.5-0.125 0.875-0.5 0.5-0.5 0.5-0.5 0.5-0.875 0.125-0.5 0.5-0.625 0.375-0.5 0.5v0.5h-7v-0.5q0-0.5-0.5-0.5t-0.625-0.375-0.5-0.5-0.875-0.125-0.5-0.5-0.5-0.5-0.5-0.5-0.125-0.875-0.5-0.5-0.375-0.625 0-1-0.5-0.5-1 0-0.5-0.5-0.5-0.5-0.5-0.5-0.5-0.5-0.5-0.5-0.5-0.5-0.5-0.5-0.5-0.5h-0.5v-2l0.375-0.125q0.375-0.125 0.5-0.5t0.625-0.375 1 0 1 0 1 0 0.875-0.125 0.5-0.5 0.125-0.875 0.5-0.5 0.5-0.5 0.5-0.5 0.5-0.5 0-1 0.5-0.5 0.5-0.5 0.5-0.5 0.5-0.5 0.375-0.625 0.5-0.5 0.125-0.875 0.5-0.5 1 0 0.875-0.125 0.5-0.5m2.0625 22.438-0.0625 0.0625 0.4375-0.0625q0.4375-0.0625 0.6875-0.3125t0.625-0.375 0.75-0.25 0.625-0.375 0.5-0.5 0.5-0.5 0.5-0.5 0.375-0.65625l0.125-0.40625h-0.1875 0.1875q0.1875 0 0.375-0.0625l0.1875-0.0625-0.5625 0.1875 0.375-0.125q0.375-0.125 0.5-0.5t0.125-0.875 0-1-0.125-0.875-0.375-0.625-0.375-0.625-0.25-0.75-0.5-0.5-0.75 0-0.375 0.375 0.25 0.5 0.375 0.625 0.125 0.875-0.125 0.875-0.375 0.625-0.39062 0.64062l-0.14062 0.39062 0.21875 0.03126-0.21875-0.03125q-0.21875-0.03126-0.46875-0.03126h-0.25 0.75-0.5q-0.5 0-1 0t-1 0h-0.5l-0.125-0.375q-0.125-0.375-0.375-0.625t-0.375-0.625l-0.125-0.375 0.1875 0.5625-0.0625-0.1875q-0.0625-0.1875-0.21875-0.28125l-0.15625-0.09375 0.15626 0.09374 0.04687-0.54688q0.04687-0.54686 0.04687-1.0469v-0.5 0.75-0.25q0-0.25-0.03125-0.46875l-0.03125-0.21875 0.03126 0.21875 0.39062-0.14062q0.39062-0.14062 0.64062-0.39062t0.6875-0.4375l0.4375-0.1875-0.125-0.125 0.125 0.125q0.125 0.125 0.375 0.125h0.25-0.75 0.5q0.5 0 0.875-0.125t0.375-0.375-0.25-0.5-0.375-0.625l-0.125-0.375h1-0.75 0.25q0.25 0 0.375-0.125l0.125-0.125-0.125 0.125 0.4375 0.1875q0.4375 0.1875 0.6875 0.4375t0.625 0.375 0.875 0.125 1 0 1 0 1.0625-0.0625l0.5625-0.0625-0.125-0.125 0.125 0.125q0.125 0.125 0.375 0.125h0.25-0.75 0.5q0.5 0 1 0t0.875-0.125 0.375-0.375-0.375-0.375-0.875-0.125h-0.5 0.75-0.25q-0.25 0-0.46875 0.03125l-0.21875 0.03125 0.21875-0.03126-0.14062-0.39062q-0.14062-0.39062-0.39062-0.64062t-0.42188-0.67188l-0.17188-0.42188-0.15625 0.09375 0.15625-0.09375q0.15625-0.09375 0.21875-0.28125l0.0625-0.1875-0.1875 0.5625 0.125-0.375q0.125-0.375 0.375-0.625t0.25-0.5-0.25-0.5-0.5-0.5-0.625-0.375l-0.375-0.125 0.5625 0.1875-0.1875-0.0625q-0.1875-0.0625-0.40625-0.09375l-0.21875-0.03125 0.21875 0.03125 0.14062-0.39062q0.14062-0.39062 0.39062-0.64062t0.25-0.5-0.25-0.5-0.5-0.5-0.625-0.375-0.875-0.125-0.875 0.125-0.625 0.375-0.625 0.375-0.875 0.125-1.0312 0h-0.53125v0.1875-0.1875q0-0.1875-0.0625-0.375l-0.0625-0.1875 0.1875 0.5625-0.125-0.375q-0.125-0.375-0.375-0.625t-0.5-0.5-0.625-0.375-0.75-0.25-0.625-0.375-0.5-0.25-0.5 0.25-0.625 0.375-0.75 0.25-0.625 0.375-0.5 0.5-0.375 0.625-0.25 0.75-0.375 0.625-0.5 0.5-0.5 0.5-0.375 0.625-0.25 0.75-0.375 0.625-0.5 0.5-0.5 0.5-0.5 0.5-0.5 0.5-0.5 0.5-0.625 0.375-0.875 0.125-1 0-1 0-0.875 0.125-0.375 0.375 0.375 0.375 0.875 0.125 1 0 1 0 0.875-0.125 0.625-0.375 0.625-0.375 0.75-0.25 0.625-0.375 0.5-0.5 0.5-0.5 0.5-0.5 0.375-0.625 0.25-0.75 0.375-0.625 0.375-0.625 0.25-0.75 0.375-0.625 0.375-0.625 0.25-0.75 0.5-0.5 0.75-0.25 0.625-0.375 0.5-0.25 0.5 0.25 0.625 0.375 0.75 0.25 0.5 0.5 0.125 0.875v0.5-0.75 0.25q0 0.25 0.125 0.375l0.125 0.125-0.125-0.125-0.0625 0.5625q-0.0625 0.5625-0.0625 1.0625t0 1 0.0625 1.0625l0.0625 0.5625 0.125-0.125-0.125 0.125q-0.125 0.125-0.125 0.375v0.25-0.75 0.5q0 0.5 0 1v0.5h-0.5q-0.5 0-1 0t-1 0-1 0-1 0-0.875 0.125-0.625 0.375-0.5 0.5-0.25 0.5 0.375 0.375 0.875 0.125 0.875 0.125 0.625 0.375 0.5 0.5 0.375 0.625 0.17188 0.92188l0.04687 0.54688 0.07813-0.04687 0.078125-0.04688-0.15625 0.09375q-0.15625 0.09375-0.21875 0.28125l-0.0625 0.1875 0.1875-0.5625-0.125 0.375q-0.125 0.375-0.375 0.625t-0.375 0.625l-0.125 0.375-1.0938 0.09374 0.15626 0.09374-0.15625-0.09375q-0.15626-0.09373-0.40626-0.09373h-0.25 0.75-0.5q-0.5 0-0.875-0.125t-0.625-0.375-0.5-0.5-0.375-0.625-0.125-0.875v-0.5 0.75-0.25q0-0.25-0.125-0.375l-0.125-0.125 0.125 0.125 0.1875-0.4375q0.1875-0.4375 0.4375-0.6875t0.25-0.5-0.375-0.375-0.75 0-0.5 0.5-0.10938 0.89062l0.015625 0.51562 0.21875-0.03125-0.21875 0.03125q-0.21875 0.03125-0.40625 0.09375l-0.1875 0.0625 0.5625-0.1875-0.375 0.125q-0.375 0.125-0.5 0.5t-0.125 0.875 0 1 0.125 0.875 0.375 0.625 0.5 0.5 0.5 0.5 0.5 0.5 0.5 0.5 0.5 0.5 0.625 0.375 0.75 0.25 0.625 0.375 0.625 0.375 0.875 0.125 1 0 1 0h0.5-0.75 0.25q0.25 0 0.375-0.125l0.125-0.125-0.0625 0.0625m1.5625-5.8125q0.5 0 0.875-0.125t0.5-0.5 0.125-0.875-0.125-0.875-0.5-0.5-0.875-0.125-0.875 0.125-0.5 0.5-0.125 0.875 0.125 0.875 0.5 0.5 0.875 0.125m0.875-6h-0.625 0.25q0.25 0 0.5 0h0.25-0.375m-6.875 6q0.5 0 0.875-0.125t0.5-0.5 0.125-0.875-0.125-0.875-0.5-0.5-0.875-0.125-0.875 0.125-0.5 0.5-0.125 0.875 0.125 0.875 0.5 0.5 0.875 0.125"/>
  <path d="m15.125 0.375-0.125-0.375h14v11l-0.375-0.125q-0.375-0.125-0.5-0.5t-0.625-0.375-0.5-0.5-0.5-0.5-0.375-0.375 0.5-0.5 0.375-0.625-0.375-0.625-0.5-0.5-0.5-0.5-0.375-0.375 0.375-0.375 0.375-0.625-0.375-0.625-0.5-0.5-0.125-0.875-0.5-0.5-1 0-1 0-1 0-0.625 0.375-0.5 0.5-0.875 0.125-0.875-0.125-0.5-0.5-0.125-0.875-0.5-0.5-1 0-0.875-0.125-0.5-0.5" fill-opacity="0"/>
  <g>
   <path d="m14 1.5q0.25-0.25 0.5-0.25t0.5 0.25 0.625 0.375 0.75 0.25 0.625 0.375 0.5 0.5 0.375 0.625 0 0.75-0.5 0.5-0.375-0.375-0.125-0.875-0.5-0.5-0.75-0.25-0.625-0.375-0.5-0.25-0.5 0.25-0.625 0.375-0.75 0.25-0.5 0.5-0.25 0.75-0.375 0.625-0.375 0.625-0.25 0.75-0.375 0.625-0.375 0.625-0.25 0.75-0.375 0.625-0.5 0.5-0.5 0.5-0.5 0.5-0.625 0.375-0.75 0.25-0.625 0.375-0.625 0.375-0.875 0.125-1 0-1 0-0.875-0.125-0.375-0.375 0.375-0.375 0.875-0.125 1 0 1 0 0.875-0.125 0.625-0.375 0.5-0.5 0.5-0.5 0.5-0.5 0.5-0.5 0.5-0.5 0.375-0.625 0.25-0.75 0.375-0.625 0.5-0.5 0.5-0.5 0.375-0.625 0.25-0.75 0.375-0.625 0.5-0.5 0.625-0.375 0.75-0.25 0.625-0.375" fill="#ffc90e"/>
   <path d="m21 3.5q0.25-0.25 0.625-0.375t0.875-0.125 0.875 0.125 0.625 0.375 0.5 0.5 0.25 0.5-0.25 0.5-0.39062 0.64062l-0.14062 0.39062 0.21875 0.03125-0.21875-0.03125q-0.21875-0.03125-0.46875-0.03125h-0.25 0.75-0.5q-0.5 0-1 0t-0.875 0.125-0.625 0.375-0.625 0.375-0.875 0.125-0.875 0.125-0.5 0.5-0.125 0.875v0.5h-1 0.75-0.25q-0.25 0-0.375 0.125l-0.125 0.125 0.125-0.125-0.0625-0.5625q-0.0625-0.5625-0.0625-1.0625t0-1 0.0625-1.0625l0.0625-0.5625-0.125-0.125 0.125 0.125q0.125 0.125 0.375 0.125h0.25-0.75l0.375-0.125q0.375-0.125 0.5-0.5l0.125-0.375-0.1875 0.5625 0.0625-0.1875q0.0625-0.1875 0.0625-0.375v-0.1875 0.1875h0.53125q0.53125 0 1.0312 0t0.875-0.125 0.625-0.375m-3.375 5.5h0.625-0.25q-0.25 0-0.5 0h-0.25 0.375" fill="#006847"/>
   <path d="m21 6.5q0.25-0.25 0.625-0.375t0.875-0.125 1 0 0.875 0.125 0.625 0.375 0.5 0.5 0.25 0.5-0.25 0.5-0.375 0.625-0.625 0.375-1 0-1 0-1 0-1 0-1 0-1 0h-0.5v-0.5q0-0.5 0.125-0.875t0.5-0.5 0.875-0.125 0.875-0.125 0.625-0.375m-3.125 2.5h0.875-0.25q-0.25 0-0.5 0h-0.25 0.125" fill="#fff"/>
   <path d="m17 9.5q0-0.5 0.5-0.5t1 0h0.5v0.5q0 0.5 0 1t-0.5 0.5-1 0h-0.5v-0.5q0-0.5 0-1m2.125-0.5h-0.875 0.25q0.25 0 0.5 0h0.25-0.125" fill="#ffc90e"/>
   <path d="m19 9.5v-0.5h0.5q0.5 0 1 0t1 0 1 0 1 0 1 0h0.5-0.75 0.25q0.25 0 0.40625-0.09375l0.15625-0.09375-0.15625 0.09375 0.17188 0.42188q0.17188 0.42188 0.42188 0.67188t0.39062 0.64062l0.14062 0.39062 0.21875-0.03125-0.21875 0.03125q-0.21875 0.03125-0.40625 0.09375l-0.1875 0.0625 0.5625-0.1875-0.375 0.125q-0.375 0.125-0.5 0.5l-0.125 0.375v-0.75 0.25q0 0.25 0.125 0.375l0.125 0.125-0.125-0.125-0.5625 0.0625q-0.5625 0.0625-1.0625 0.0625t-1 0-1 0-0.875-0.125-0.625-0.375-0.6875-0.4375l-0.4375-0.1875-0.125 0.125 0.125-0.125q0.125-0.125 0.125-0.375v-0.25 0.75-0.5q0-0.5 0-1m0.375-0.5h-0.625 0.25q0.25 0 0.5 0h0.25-0.375" fill="#ce1126"/>
   <path d="m11 11.5q0.25-0.25 0.625-0.375l0.375-0.125-0.5625 0.1875 0.1875-0.0625q0.1875-0.0625 0.40625-0.09375l0.21875-0.03125-0.21875 0.03126-0.01563 0.48438q-0.01562 0.48436-0.031245 0.99999l-0.01563 0.51562 0.21875 0.03126-0.21875-0.03125q-0.21874-0.03126-0.46874-0.03126h-0.25 0.75-0.5q-0.5 0-0.875-0.125t-0.375-0.375 0.25-0.5 0.5-0.5" fill="#d32927"/>
   <path d="m12.016 11.516 0.01563-0.48438-0.21875 0.03126 0.21875-0.03125q0.21874-0.03126 0.46874-0.03126h0.25-0.75 1l0.125 0.375q0.125 0.375 0.375 0.625t0.5 0.5 0.5 0.5 0.375 0.625 0.125 0.875v0.5l-1.0312 0.03126 0.01563 0.10938 0.01562 0.10936-0.03125-0.21875q-0.03125-0.21875-0.09375-0.40625l-0.0625-0.1875 0.1875 0.5625-0.125-0.375q-0.125-0.375-0.375-0.625t-0.5-0.5-0.625-0.375l-0.375-0.125 0.5625 0.1875-0.1875-0.0625q-0.1875-0.0625-0.40625-0.09375l-0.21875-0.03125 0.21875 0.03126 0.01563-0.51562q0.01562-0.51564 0.031245-1m2.9844 3.6094v-0.875 0.25q0 0.25 0 0.5v0.25-0.125m-1.875-4.125h-0.875 0.25q0.25 0 0.5 0h0.25-0.125" fill="#076d4a"/>
   <path d="m13.125 11.375-0.125-0.375h0.5q0.5 0 1 0t1 0 1 0h0.5v0.5q0 0.5 0 1v0.5-0.75 0.25q0 0.25 0.125 0.375l0.125 0.125-0.125-0.125-0.4375 0.1875q-0.4375 0.1875-0.6875 0.4375t-0.64062 0.39062l-0.39062 0.14062 0.03125 0.21875-0.03125-0.21875q-0.03125-0.21875-0.09375-0.40625l-0.0625-0.1875 0.1875 0.5625-0.125-0.375q-0.125-0.375-0.375-0.625t-0.5-0.5-0.5-0.5-0.375-0.625m0.25-0.375h-0.625 0.25q0.25 0 0.5 0h0.25-0.375" fill="#d32927"/>
   <path d="m17 11.5v-0.5h1l0.125 0.375q0.125 0.375 0.375 0.625t0.25 0.5-0.375 0.375-0.875 0.125-0.5-0.5 0-1m1.125-0.5h-0.875 0.25q0.25 0 0.5 0h0.25-0.125" fill="#fff"/>
   <path d="m25.125 11.625q0.125-0.375 0.5-0.5t0.875-0.125 0.875 0.125 0.375 0.375-0.375 0.375-0.875 0.125-1 0-0.375-0.375" fill="#ffc90e"/>
  </g>
  <path d="m0 13.5v-0.5h0.5q0.5 0 0.5 0.5t0.5 0.5 0.5 0.5 0.5 0.5 0.5 0.5 0.5 0.5 0.5 0.5 0.5 0.5 1 0 0.5 0.5 0 1 0.375 0.625 0.5 0.5 0.125 0.875 0.5 0.5 0.5 0.5 0.5 0.5 0.875 0.125 0.5 0.5 0.625 0.375 0.5 0.5v0.5h-11v-10.5" fill-opacity="0"/>
  <path d="m8.125 13.625q0.125-0.375 0.5-0.5t0.75 0 0.375 0.375-0.25 0.5-0.4375 0.6875l-0.1875 0.4375 0.125 0.125-0.125-0.125q-0.125-0.125-0.375-0.125h-0.25 0.75-1 0.75-0.25q-0.25 0-0.46875 0.03125l-0.21875 0.03125 0.21875-0.03125-0.015625-0.51562q-0.015625-0.51562 0.10938-0.89062" fill="#076d4a"/>
  <path d="m19.25 13.5q0-0.25 0.375-0.375t0.75 0 0.5 0.5 0.25 0.75 0.375 0.625 0.375 0.625 0.125 0.875 0 1-0.125 0.875-0.5 0.5-0.75 0-0.625-0.375-0.625-0.375l-0.375-0.125 0.5625 0.1875-0.1875-0.0625q-0.1875-0.0625-0.40625-0.09375l-0.21875-0.03125 0.21875 0.03126 0.14062-0.39062q0.14062-0.39064 0.39062-0.64064t0.375-0.625 0.125-0.875-0.125-0.875-0.375-0.625-0.25-0.5" fill="#d32927"/>
  <path d="m28 13.5q0-0.5 0.5-0.5h0.5v11h-11v-0.5q0-0.5 0.5-0.5t0.625-0.375 0.5-0.5 0.875-0.125 0.5-0.5 0.5-0.5 0.5-0.5 0.125-0.875 0.5-0.5 0.375-0.625 0-1 0.5-0.5 1 0 0.5-0.5 0.5-0.5 0.5-0.5 0.5-0.5 0.5-0.5 0.5-0.5 0.5-0.5" fill-opacity="0"/>
  <g fill="#fff">
   <path d="m10.125 14.625q0.125-0.375 0.5-0.5t0.875-0.125 0.875 0.125 0.5 0.5 0.125 0.875-0.125 0.875-0.5 0.5-0.875 0.125-0.875-0.125-0.5-0.5-0.125-0.875 0.125-0.875"/>
   <path d="m16.125 14.625q0.125-0.375 0.5-0.5t0.875-0.125 0.875 0.125 0.5 0.5 0.125 0.875-0.125 0.875-0.5 0.5-0.875 0.125-0.875-0.125-0.5-0.5-0.125-0.875 0.125-0.875"/>
   <path d="m7.125 15.625q0.125-0.375 0.5-0.5t0.875-0.125 0.5 0.5 0.125 0.875 0.375 0.625 0.5 0.5 0.625 0.375 0.875 0.125 0.625 0.375 0.375 0.625 0.5 0.5 0.5 0.5 0.5 0.5 0.5 0.5 0.5 0.5 0.5 0.5 0.375 0.625-0.375 0.375-1 0-1 0-0.875-0.125-0.625-0.375-0.625-0.375-0.75-0.25-0.625-0.375-0.5-0.5-0.5-0.5-0.5-0.5-0.5-0.5-0.5-0.5-0.375-0.625-0.125-0.875 0-1 0.125-0.875m2.875 4.875q0.25 0.25 0.5 0.25t0.375-0.375 0-0.75-0.5-0.5-0.75 0-0.375 0.375 0.25 0.5 0.5 0.5"/>
  </g>
  <g>
   <path d="m14.047 15.547-0.046875-0.54688v0.75-0.25q0-0.25-0.03125-0.46875l-0.03125-0.21875 0.03126 0.21875 0.51562-0.01563 0.51562-0.01562-0.09374 1.0938 0.15626 0.09374-0.15625-0.09375q-0.15627-0.09374-0.40627-0.09374h-0.25 0.75-1 0.75-0.25q-0.25 0-0.40625 0.09375l-0.15625 0.09375 0.15626-0.09374-0.04687-0.54688m0.95311-0.17188v-0.625 0.25q0 0.25 0 0.5v0.25-0.375" fill="#054931"/>
   <path d="m13.875 16.375q0.125-0.375 0.625-0.375t0.625 0.375 0.375 0.625 0.375 0.625l0.125 0.375h-1l-0.125-0.375q-0.125-0.375-0.375-0.375t-0.375 0.375l-0.125 0.375h-1l0.125-0.375q0.125-0.375 0.375-0.625t0.375-0.625" fill="#eabc00"/>
   <path d="m14.125 17.625q0.125-0.375 0.375-0.375t0.375 0.375l0.125 0.375h-1l0.125-0.375" fill="#d32927"/>
   <path d="m12.125 18.375-0.125-0.375 0.1875 0.5625-0.0625-0.1875q-0.0625-0.1875-0.21875-0.28125l-0.15625-0.09375 0.15626 0.09374 1.0937-0.09374 0.125 0.375q0.125 0.375 0.5 0.5t0.875 0.125 0.875-0.125 0.5-0.5l0.125-0.375h0.5q0.5 0 1 0t1 0 0.875 0.125 0.625 0.375 0.625 0.375l0.375 0.125-0.5625-0.1875 0.1875 0.0625q0.1875 0.0625 0.375 0.0625h0.1875-0.1875l-0.125 0.40625q-0.125 0.40625-0.375 0.65625t-0.5 0.5-0.5 0.5-0.5 0.5-0.625 0.375-0.75 0.25-0.625 0.375-0.6875 0.3125l-0.4375 0.0625-0.125 0.125 0.125-0.125q0.125-0.125 0.125-0.375v-0.25 0.75l-0.125-0.375q-0.125-0.375-0.375-0.625t-0.5-0.5-0.5-0.5-0.5-0.5-0.5-0.5-0.5-0.5-0.5-0.5-0.375-0.625" fill="#076d4a"/>
   <path d="m13.125 18.375-0.125-0.375h1l0.03126 0.96875 0.10938 0.01563 0.10936 0.01562-0.21875-0.03125q-0.21875-0.03125-0.40625-0.09375l-0.1875-0.0625 0.5625 0.1875-0.375-0.125q-0.375-0.125-0.5-0.5" fill="#033121"/>
   <path d="m14.016 18.484-0.015625-0.48438h1l-0.03126 0.96875 0.21875-0.03126-0.21875 0.03125q-0.21874 0.03126-0.46874 0.03126h-0.25 0.75-1 0.75-0.25q-0.25 0-0.46875-0.03125l-0.21875-0.03125 0.21875 0.03126-0.01563-0.48438" fill="#054931"/>
   <path d="m14.984 18.484 0.015625-0.48438h1l-0.125 0.375q-0.125 0.375-0.5 0.5l-0.375 0.125 0.5625-0.1875-0.1875 0.0625q-0.1875 0.0625-0.40625 0.09375l-0.21875 0.03125 0.21875-0.03126 0.01563-0.48438" fill="#033121"/>
   <path d="m9.25 19.5q0-0.25 0.375-0.375t0.75 0 0.5 0.5 0 0.75-0.375 0.375-0.5-0.25-0.5-0.5-0.25-0.5" fill="#076d4a"/>
  </g>
 </g>
</svg>
