<svg width="17" height="14" version="1.1" viewBox="0 0 17 14" xmlns="http://www.w3.org/2000/svg">
 <g transform="translate(0)">
  <path d="m0 0.5v-0.5h5l-0.125 0.375q-0.125 0.375-0.5 0.5t-0.5 0.5-0.5 0.5-0.875 0.125-0.625 0.375-0.5 0.5-0.375 0.625-0.125 0.875-0.5 0.5l-0.375 0.125v-4.5" fill-opacity="0"/>
  <path d="m4.875 0.375 0.125-0.375h7l0.125 0.375q0.125 0.375 0.5 0.5t0.5 0.5 0.5 0.5 0.875 0.125 0.625 0.375 0.5 0.5 0.375 0.625 0.125 0.875 0.5 0.5l0.375 0.125v4l-0.375 0.125q-0.375 0.125-0.5 0.5t-0.125 0.875-0.5 0.5-0.5 0.5-0.5 0.5-0.875 0.125-0.5 0.5-0.625 0.375-0.5 0.5v0.5h-7v-0.5q0-0.5-0.5-0.5t-0.625-0.375-0.5-0.5-0.875-0.125-0.5-0.5-0.5-0.5-0.5-0.5-0.125-0.875-0.5-0.5l-0.375-0.125v-4l0.375-0.125q0.375-0.125 0.5-0.5t0.125-0.875 0.375-0.625 0.5-0.5 0.625-0.375 0.875-0.125 0.5-0.5 0.5-0.5 0.5-0.5m4.625 12.625q0.5 0 0.875-0.125t0.625-0.375 0.625-0.375 0.75-0.25 0.625-0.375 0.5-0.5 0.5-0.5 0.5-0.5 0.35938-0.64062l0.10938-0.39062-0.21875 0.03125 0.21875-0.03125q0.21875-0.03125 0.40625-0.09375l0.1875-0.0625-0.5625 0.1875 0.375-0.125q0.375-0.125 0.5-0.5t0.125-0.875 0-1-0.125-0.875-0.5-0.5l-0.375-0.125 0.5625 0.1875-0.1875-0.0625q-0.1875-0.0625-0.40625-0.09375l-0.21875-0.03125 0.21875 0.03125 0.015625-0.51562q0.015625-0.51562-0.10938-0.89062t-0.5-0.5-0.75-0.25-0.625-0.375-0.5-0.5-0.5-0.5-0.625-0.375-0.875-0.125-1 0-1 0-1 0-1 0-0.875 0.125-0.625 0.375-0.5 0.5-0.5 0.5-0.625 0.375-0.75 0.25-0.5 0.5-0.10938 0.89062l0.015625 0.51562 0.21875-0.03125-0.21875 0.03125q-0.21875 0.03125-0.40625 0.09375l-0.1875 0.0625 0.5625-0.1875-0.375 0.125q-0.375 0.125-0.5 0.5t-0.125 0.875 0 1 0.125 0.875 0.5 0.5l0.375 0.125-0.5625-0.1875 0.1875 0.0625q0.1875 0.0625 0.40625 0.09375l0.21875 0.03125-0.21875-0.03125 0.10938 0.39062q0.10938 0.39062 0.35938 0.64062t0.5 0.5 0.5 0.5 0.5 0.5 0.625 0.375 0.75 0.25 0.625 0.375 0.625 0.375 0.875 0.125 1 0 1 0"/>
  <path d="m12.125 0.375-0.125-0.375h5v5l-0.375-0.125q-0.375-0.125-0.5-0.5t-0.125-0.875-0.375-0.625-0.5-0.5-0.625-0.375-0.875-0.125-0.5-0.5-0.5-0.5-0.5-0.5" fill-opacity="0"/>
  <g>
   <path d="m5 1.5q0.25-0.25 0.625-0.375t0.875-0.125 1 0 1 0 1 0 1 0 0.875 0.125 0.625 0.375 0.5 0.5 0.5 0.5 0.625 0.375 0.75 0.25 0.5 0.5 0.10938 0.89062l-0.015625 0.51562 0.21875 0.03125-0.21875-0.03125q-0.21875-0.03125-0.46875-0.03125h-0.25 0.75-1 0.75-0.25q-0.25 0-0.375 0.125l-0.125 0.125 0.125-0.125-0.1875-0.4375q-0.1875-0.4375-0.4375-0.6875t-0.5-0.5-0.625-0.375-0.875-0.125-0.875 0.125-0.625 0.375-0.5 0.5-0.4375 0.6875l-0.1875 0.4375 0.125 0.125-0.125-0.125q-0.125-0.125-0.375-0.125h-0.25 0.75-1 0.75-0.25q-0.25 0-0.375 0.125l-0.125 0.125 0.125-0.125-0.1875-0.4375q-0.1875-0.4375-0.4375-0.6875t-0.5-0.5-0.625-0.375-0.875-0.125-0.875 0.125-0.625 0.375-0.5 0.5-0.4375 0.6875l-0.1875 0.4375 0.125 0.125-0.125-0.125q-0.125-0.125-0.375-0.125h-0.25 0.75-1 0.75-0.25q-0.25 0-0.46875 0.03125l-0.21875 0.03125 0.21875-0.03125-0.015625-0.51562q-0.015625-0.51562 0.10938-0.89062t0.5-0.5 0.75-0.25 0.625-0.375 0.5-0.5 0.5-0.5" fill="#0067c6"/>
   <path d="m4 3.5q0.25-0.25 0.625-0.375t0.875-0.125 0.875 0.125 0.625 0.375 0.5 0.5 0.4375 0.6875l0.1875 0.4375 0.125-0.125-0.125 0.125q-0.125 0.125-0.125 0.375v0.25-0.75 0.5q0 0.5 0 1t-0.375 0.625-0.5 0.5-0.625 0.375-1 0-0.875-0.125-0.625-0.375-0.5-0.5-0.375-0.625-0.125-0.875v-0.5 0.75-0.25q0-0.25-0.125-0.375l-0.125-0.125 0.125 0.125 0.1875-0.4375q0.1875-0.4375 0.4375-0.6875t0.5-0.5m1.5 3.5q0.5 0 0.875-0.125t0.5-0.5 0.125-0.875-0.125-0.875-0.5-0.5-0.875-0.125-0.875 0.125-0.5 0.5-0.125 0.875 0.125 0.875 0.5 0.5 0.875 0.125"/>
   <path d="m10 3.5q0.25-0.25 0.625-0.375t0.875-0.125 0.875 0.125 0.625 0.375 0.5 0.5 0.4375 0.6875l0.1875 0.4375 0.125-0.125-0.125 0.125q-0.125 0.125-0.125 0.375v0.25-0.75 0.5q0 0.5-0.125 0.875t-0.375 0.625-0.5 0.5-0.625 0.375-0.875 0.125-1 0-0.625-0.375-0.5-0.5-0.375-0.625 0-1v-0.5 0.75-0.25q0-0.25-0.125-0.375l-0.125-0.125 0.125 0.125 0.1875-0.4375q0.1875-0.4375 0.4375-0.6875t0.5-0.5m1.5 3.5q0.5 0 0.875-0.125t0.5-0.5 0.125-0.875-0.125-0.875-0.5-0.5-0.875-0.125-0.875 0.125-0.5 0.5-0.125 0.875 0.125 0.875 0.5 0.5 0.875 0.125"/>
  </g>
  <g fill="#fff">
   <path d="m4.125 4.625q0.125-0.375 0.5-0.5t0.875-0.125 0.875 0.125 0.5 0.5 0.125 0.875-0.125 0.875-0.5 0.5-0.875 0.125-0.875-0.125-0.5-0.5-0.125-0.875 0.125-0.875"/>
   <path d="m10.125 4.625q0.125-0.375 0.5-0.5t0.875-0.125 0.875 0.125 0.5 0.5 0.125 0.875-0.125 0.875-0.5 0.5-0.875 0.125-0.875-0.125-0.5-0.5-0.125-0.875 0.125-0.875"/>
   <path d="m1.125 5.625q0.125-0.375 0.5-0.5t0.875-0.125 0.5 0.5 0.125 0.875 0.375 0.625 0.5 0.5 0.625 0.375 0.875 0.125h0.5v1h-0.5q-0.5 0-1 0t-1 0-1 0-0.875-0.125-0.5-0.5-0.125-0.875 0-1 0.125-0.875m4.5 3.375h0.625-0.25q-0.25 0-0.5 0h-0.25 0.375m0.5-1h-0.875 0.25q0.25 0 0.5 0h0.25-0.125"/>
  </g>
  <g>
   <path d="m8 5.5q0-0.5 0.5-0.5t0.5 0.5v0.5h-1v-0.5m0 0.125v0.625-0.25q0-0.25 0-0.5v-0.25 0.375m1 0.5v-0.875 0.25q0 0.25 0 0.5v0.25-0.125" fill="#ffd522"/>
   <path d="m14 5.5q0-0.5 0.5-0.5t0.875 0.125 0.5 0.5 0.125 0.875 0 1-0.125 0.875-0.5 0.5-0.875 0.125-1 0-1 0-1 0h-0.5v-1h0.5q0.5 0 0.875-0.125t0.625-0.375 0.5-0.5 0.375-0.625 0.125-0.875m-2.625 2.5h-0.625 0.25q0.25 0 0.5 0h0.25-0.375m-0.5 1h0.875-0.25q-0.25 0-0.5 0h-0.25 0.125" fill="#fff"/>
   <path d="m8 6.5v-0.5h1v1-0.75 0.25q0 0.25 0.09375 0.40625l0.09375 0.15625-0.09375-0.15625h-1.1875l-0.09375 0.15625 0.09375-0.15625q0.09375-0.15625 0.09375-0.40625v-0.25 0.75-0.5m1-0.125v-0.625 0.25q0 0.25 0 0.5v0.25-0.375m-1-0.5v0.875-0.25q0-0.25 0-0.5v-0.25 0.125" fill="#84d6ff"/>
   <path d="m7.125 7.625q0.125-0.375 0.5-0.5l0.375-0.125-0.5625 0.1875 0.1875-0.0625q0.1875-0.0625 0.28125-0.21875l0.09375-0.15625-0.09375 0.15625h1.1875l-0.09375-0.15625 0.09375 0.15625q0.09375 0.15625 0.28125 0.21875l0.1875 0.0625-0.5625-0.1875 0.375 0.125q0.375 0.125 0.5 0.5l0.125 0.375-0.1875-0.5625 0.0625 0.1875q0.0625 0.1875 0.21875 0.28125l0.15625 0.09375-0.15625-0.09375-0.54688 0.046875q-0.54688 0.046875-1.0469 0.046875t-1.0469-0.046875l-0.54688-0.046875-0.15625 0.09375 0.15625-0.09375q0.15625-0.09375 0.21875-0.28125l0.0625-0.1875-0.1875 0.5625 0.125-0.375" fill="#8dc32e"/>
   <path d="m6 8.5v-0.5h1-0.75 0.25q0.25 0 0.40625-0.09375l0.15625-0.09375-0.15625 0.09375 0.54688 0.046875q0.54688 0.046875 1.0469 0.046875t1.0469-0.046875l0.54688-0.046875-0.15625-0.09375 0.15625 0.09375q0.15625 0.09375 0.40625 0.09375h0.25-0.75 1v1h-0.5q-0.5 0-1 0t-1 0-1 0-1 0h-0.5v-0.5m-0.125 0.5h0.875-0.25q-0.25 0-0.5 0h-0.25 0.125m4.75 0h0.625-0.25q-0.25 0-0.5 0h-0.25 0.375m0.5-1h-0.875 0.25q0.25 0 0.5 0h0.25-0.125m-4.75 0h-0.625 0.25q0.25 0 0.5 0h0.25-0.375" fill="#ffd522"/>
  </g>
  <path d="m0 9.5v-0.5l0.375 0.125q0.375 0.125 0.5 0.5t0.125 0.875 0.5 0.5 0.5 0.5 0.5 0.5 0.875 0.125 0.5 0.5 0.625 0.375 0.5 0.5v0.5h-5v-4.5" fill-opacity="0"/>
  <path d="m2.1406 9.3594-0.10938-0.39062-0.21875-0.03125 0.21875 0.03125q0.21875 0.03125 0.46875 0.03125h0.25-0.75 0.5q0.5 0 1 0t1 0 1 0 1 0 1 0 1 0 1 0 1 0 1 0 1 0 1 0 1 0h0.5-0.75 0.25q0.25 0 0.46875-0.03125l0.21875-0.03125-0.21875 0.03125-0.10938 0.39062q-0.10938 0.39062-0.35938 0.64062t-0.5 0.5-0.5 0.5-0.5 0.5-0.625 0.375-0.75 0.25-0.625 0.375-0.625 0.375-0.875 0.125-1 0-1 0-0.875-0.125-0.625-0.375-0.625-0.375-0.75-0.25-0.625-0.375-0.5-0.5-0.5-0.5-0.5-0.5-0.35938-0.64062" fill="#0067c6"/>
  <path d="m16.125 9.625q0.125-0.375 0.5-0.5l0.375-0.125v5h-5v-0.5q0-0.5 0.5-0.5t0.625-0.375 0.5-0.5 0.875-0.125 0.5-0.5 0.5-0.5 0.5-0.5 0.125-0.875" fill-opacity="0"/>
 </g>
</svg>
