<svg width="17" height="18" version="1.1" viewBox="0 0 17 18" xmlns="http://www.w3.org/2000/svg">
 <g transform="translate(0)">
  <path d="m0 0.5v-0.5h4v0.5q0 0.5 0 1t0 1-0.125 0.875-0.375 0.625-0.25 0.5 0.25 0.5 0.25 0.5-0.375 0.375-0.75 0.25-0.625 0.375-0.5 0.5-0.375 0.625-0.25 0.75-0.5 0.5l-0.375 0.125v-8.5" fill-opacity="0"/>
  <path d="m4 0.5v-0.5h9v0.5q0 0.5 0 1t0 1 0.125 0.875 0.375 0.625 0.25 0.5-0.25 0.5-0.25 0.5 0.375 0.375 0.75 0.25 0.625 0.375 0.5 0.5 0.375 0.625 0.25 0.75 0.5 0.5l0.375 0.125v4l-0.375 0.125q-0.375 0.125-0.5 0.5t-0.25 0.75-0.375 0.625-0.5 0.5-0.625 0.375-0.75 0.25-0.625 0.375-0.5 0.5-0.375 0.625l-0.125 0.375h-7l-0.125-0.375q-0.125-0.375-0.375-0.625t-0.5-0.5-0.625-0.375-0.75-0.25-0.625-0.375-0.5-0.5-0.375-0.625-0.25-0.75-0.5-0.5l-0.375-0.125v-4l0.375-0.125q0.375-0.125 0.5-0.5t0.25-0.75 0.375-0.625 0.5-0.5 0.625-0.375 0.75-0.25 0.375-0.375-0.25-0.5-0.25-0.5 0.25-0.5 0.375-0.625 0.125-0.875 0-1 0-1m5.9375 16.312-0.0625 0.0625 0.4375-0.0625q0.4375-0.0625 0.6875-0.3125t0.625-0.375 0.75-0.25 0.5-0.5l0.125-0.375 0.375-0.125q0.375-0.125 0.5-0.53125l0.125-0.40625h-0.1875 0.1875q0.1875 0 0.375-0.0625l0.1875-0.0625-0.5625 0.1875 0.375-0.125q0.375-0.125 0.48438-0.51562l0.10938-0.39062-0.21875 0.03125 0.21875-0.03125q0.21875-0.03125 0.40625-0.09375l0.1875-0.0625-0.5625 0.1875 0.375-0.125q0.375-0.125 0.5-0.5l0.125-0.375v0.75-0.25q0-0.25-0.125-0.375l-0.125-0.125 0.125 0.125v-1.25l-0.125 0.125 0.125-0.125q0.125-0.125 0.125-0.375v-0.25 0.75-1 0.75-0.25q0-0.25-0.125-0.375l-0.125-0.125 0.125 0.125-0.0625-0.4375q-0.0625-0.4375-0.3125-0.6875t-0.4375-0.6875l-0.1875-0.4375-0.125 0.125 0.125-0.125q0.125-0.125 0.125-0.375v-0.25 0.75l-0.125-0.375q-0.125-0.375-0.5-0.5l-0.375-0.125h0.75-0.25q-0.25 0-0.375 0.125l-0.125 0.125 0.125-0.125-0.4375 0.0625q-0.4375 0.0625-0.4375 0.3125t0.375 0.375l0.375 0.125v0.5q0 0.5 0.0625 1.0625l0.0625 0.5625 0.125-0.125-0.125 0.125q-0.125 0.125-0.125 0.375v0.25-0.75 1-0.75 0.25q0 0.25 0.125 0.375l0.125 0.125-0.125-0.125-0.4375 0.1875q-0.4375 0.1875-0.5625 0.5625l-0.125 0.375h-0.5q-0.5 0-1 0t-1 0h-0.5 0.75-0.25q-0.25 0-0.46875 0.03125l-0.21875 0.03125 0.21875-0.03125-0.14062-0.39062q-0.14062-0.39062-0.39062-0.64062t-0.375-0.625-0.125-0.875 0.0625-1.0625l0.0625-0.5625-0.125-0.125 0.125 0.125q0.125 0.125 0.375 0.125h0.25-0.75l0.375-0.125q0.375-0.125 0.5-0.5l0.125-0.375-0.1875 0.5625 0.0625-0.1875q0.0625-0.1875 0.09375-0.40625l0.03125-0.21875-0.03125 0.21875 0.51562 0.015625q0.51562 0.015625 1.0156 0.015625t0.875-0.125 0.375-0.375-0.25-0.5-0.5-0.5-0.625-0.375-0.9375-0.0625l-0.5625 0.0625 0.125 0.125-0.125-0.125q-0.125-0.125-0.375-0.125h-0.25 0.75-1 0.75-0.25q-0.25 0-0.375 0.125l-0.125 0.125 0.125-0.125h-1.25l0.125 0.125-0.125-0.125q-0.125-0.125-0.375-0.125h-0.25 0.75-1 0.75-0.25q-0.25 0-0.375 0.125l-0.125 0.125 0.125-0.125-0.5625-0.0625q-0.5625-0.0625-0.9375 0.0625t-0.625 0.375-0.5 0.5-0.25 0.5 0.375 0.375 0.875 0.125 1.0156-0.015625l0.51562-0.015625-0.03125-0.21875 0.03125 0.21875q0.03125 0.21875 0.09375 0.40625l0.0625 0.1875-0.1875-0.5625 0.125 0.375q0.125 0.375 0.5 0.5l0.375 0.125h-0.75 0.25q0.25 0 0.375-0.125l0.125-0.125-0.125 0.125 0.0625 0.5625q0.0625 0.5625 0.0625 1.0625t-0.125 0.875-0.375 0.625-0.39062 0.64062l-0.14062 0.39062 0.21875 0.03125-0.21875-0.03125q-0.21875-0.03125-0.46875-0.03125h-0.25 0.75-0.5q-0.5 0-1 0t-1 0h-0.5l-0.125-0.375q-0.125-0.375-0.5625-0.5625l-0.4375-0.1875-0.125 0.125 0.125-0.125q0.125-0.125 0.125-0.375v-0.25 0.75-1 0.75-0.25q0-0.25-0.125-0.375l-0.125-0.125 0.125 0.125 0.0625-0.5625q0.0625-0.5625 0.0625-1.0625v-0.5l0.375-0.125q0.375-0.125 0.375-0.375t-0.375-0.375l-0.375-0.125h0.75-0.25q-0.25 0-0.375 0.125l-0.125 0.125 0.125-0.125-0.4375 0.0625q-0.4375 0.0625-0.5625 0.4375t-0.25 0.75-0.375 0.625-0.3125 0.6875l-0.0625 0.4375 0.125-0.125-0.125 0.125q-0.125 0.125-0.125 0.375v0.25-0.75 1-0.75 0.25q0 0.25 0.125 0.375l0.125 0.125-0.125-0.125v1.25l0.125-0.125-0.125 0.125q-0.125 0.125-0.125 0.375v0.25-0.75l0.125 0.375q0.125 0.375 0.5 0.5l0.375 0.125-0.5625-0.1875 0.1875 0.0625q0.1875 0.0625 0.40625 0.09375l0.21875 0.03125-0.21875-0.03125 0.10938 0.39062q0.10938 0.39062 0.53125 0.5625l0.42188 0.17188 0.09375-0.15625-0.09375 0.15625q-0.09375 0.15625-0.09375 0.40625v0.25-0.75l0.125 0.375q0.125 0.375 0.5 0.5l0.375 0.125 0.125 0.375q0.125 0.375 0.5 0.5t0.75 0.25 0.625 0.375 0.6875 0.3125l0.4375 0.0625-0.125-0.125 0.125 0.125q0.125 0.125 0.375 0.125h0.25-0.75 1-0.75 0.25q0.25 0 0.375-0.125l0.125-0.125-0.125 0.125h1.25l-0.125-0.125 0.125 0.125q0.125 0.125 0.375 0.125h0.25-0.75 1-0.75 0.25q0.25 0 0.375-0.125l0.125-0.125-0.0625 0.0625m2.6875-4.8125h0.625-0.25q-0.25 0-0.5 0h-0.25 0.375m-1.125-1q0.5 0 0.875-0.125t0.5-0.5 0.125-0.875-0.125-0.875-0.5-0.5-0.875-0.125-0.875 0.125-0.5 0.5-0.125 0.875 0.125 0.875 0.5 0.5 0.875 0.125m0-7q0.5 0 0.5-0.5t0-1 0-1-0.5-0.5-1 0-1 0-1 0-1 0-1 0-1 0-0.5 0.5 0 1 0 1 0.5 0.5 1 0 1 0 1 0 1 0 1 0 1 0m-6 7q0.5 0 0.875-0.125t0.5-0.5 0.125-0.875-0.125-0.875-0.5-0.5-0.875-0.125-0.875 0.125-0.5 0.5-0.125 0.875 0.125 0.875 0.5 0.5 0.875 0.125m-1.625 1h0.875-0.25q-0.25 0-0.5 0h-0.25 0.125" fill="#fff"/>
  <path d="m13 0.5v-0.5h4v9l-0.375-0.125q-0.375-0.125-0.5-0.5t-0.25-0.75-0.375-0.625-0.5-0.5-0.625-0.375-0.75-0.25-0.375-0.375 0.25-0.5 0.25-0.5-0.25-0.5-0.375-0.625-0.125-0.875 0-1 0-1" fill-opacity="0"/>
  <g>
   <path d="m5 1.5q0-0.5 0.5-0.5t1 0 1 0 1 0 1 0 1 0 1 0 0.5 0.5 0 1 0 1-0.5 0.5-1 0-1 0-1 0-1 0-1 0-1 0-0.5-0.5 0-1 0-1" fill="#f0f0f0"/>
   <path d="m5 5.5q0.25-0.25 0.625-0.375t0.9375-0.0625l0.5625 0.0625 0.125-0.125-0.125 0.125q-0.125 0.125-0.125 0.375v0.25-0.75 0.5q0 0.5 0 1v0.5-0.75 0.25q0 0.25 0.03125 0.46875l0.03125 0.21875-0.03125-0.21875-0.51562 0.015625q-0.51562 0.015625-1.0156 0.015625t-0.875-0.125-0.375-0.375 0.25-0.5 0.5-0.5" fill="#ffdb82"/>
   <path d="m7 5.5q0-0.5 0.5-0.5t0.5 0.5 0 1 0 1-0.375 0.375-0.5-0.5-0.125-0.875 0-1"/>
   <path d="m8 5.5v-0.5 0.75-0.25q0-0.25-0.125-0.375l-0.125-0.125 0.125 0.125h1.25l0.125-0.125-0.125 0.125q-0.125 0.125-0.125 0.375v0.25-0.75 0.5q0 0.5 0 1t0 1v0.5-0.75 0.25q0 0.25 0.125 0.375l0.125 0.125-0.125-0.125-0.0625 0.5625q-0.0625 0.5625-0.0625 1.0625t0.125 0.875 0.375 0.625 0.39062 0.64062l0.14062 0.39062 0.21875-0.03125-0.21875 0.03125q-0.21875 0.03125-0.40625 0.09375l-0.1875 0.0625 0.5625-0.1875-0.375 0.125q-0.375 0.125-0.5 0.5t-0.125 0.875 0 1 0 1 0 1v0.5-0.75 0.25q0 0.25 0.125 0.375l0.125 0.125-0.125-0.125h-1.25l-0.125 0.125 0.125-0.125q0.125-0.125 0.125-0.375v-0.25 0.75-0.5q0-0.5 0-1t0-1 0-1-0.125-0.875-0.5-0.5l-0.375-0.125 0.5625 0.1875-0.1875-0.0625q-0.1875-0.0625-0.40625-0.09375l-0.21875-0.03125 0.21875 0.03125 0.14062-0.39062q0.14062-0.39062 0.39062-0.64062t0.375-0.625 0.125-0.875-0.0625-1.0625l-0.0625-0.5625-0.125 0.125 0.125-0.125q0.125-0.125 0.125-0.375v-0.25 0.75-0.5q0-0.5 0-1t0-1" fill="#30ebd4"/>
   <path d="m9 5.5q0-0.5 0.5-0.5t0.5 0.5 0 1-0.125 0.875-0.5 0.5-0.375-0.375 0-1 0-1"/>
   <path d="m10 5.5v-0.5 0.75-0.25q0-0.25-0.125-0.375l-0.125-0.125 0.125 0.125 0.5625-0.0625q0.5625-0.0625 0.9375 0.0625t0.625 0.375 0.5 0.5 0.25 0.5-0.375 0.375-0.875 0.125-1.0156-0.015625l-0.51562-0.015625-0.03125 0.21875 0.03125-0.21875q0.03125-0.21875 0.03125-0.46875v-0.25 0.75-0.5q0-0.5 0-1" fill="#ffdb82"/>
   <path d="m2.125 7.625q0.125-0.375 0.5625-0.4375l0.4375-0.0625 0.125-0.125-0.125 0.125q-0.125 0.125-0.125 0.375v0.25-0.75 1h-1l0.125-0.375m-0.03125 0.09375-0.15625 0.46875 0.0625-0.1875q0.0625-0.1875 0.125-0.375l0.0625-0.1875-0.09375 0.28125" fill="#30ebd4"/>
   <path d="m3 7.5q0-0.5 0.375-0.375t0.375 0.375-0.375 0.375l-0.375 0.125v-0.5"/>
   <path d="m13.25 7.5q0-0.25 0.4375-0.3125l0.4375-0.0625 0.125-0.125-0.125 0.125q-0.125 0.125-0.125 0.375v0.25-0.75 1l-0.375-0.125q-0.375-0.125-0.375-0.375" fill="#30ebd4"/>
   <path d="m14 7.5q0-0.5 0.375-0.375t0.5 0.5-0.375 0.375h-0.5v-0.5"/>
   <path d="m1.875 8.375 0.125-0.375h1v0.5q0 0.5-0.0625 1.0625l-0.0625 0.5625 0.125 0.125-0.125-0.125q-0.125-0.125-0.375-0.125h-0.25 0.75-0.5q-0.5 0-1 0h-0.5 0.75-0.25q-0.25 0-0.375 0.125l-0.125 0.125 0.125-0.125 0.0625-0.4375q0.0625-0.4375 0.3125-0.6875t0.375-0.625m0.15625-0.46875-0.21875 0.65625 0.0625-0.1875q0.0625-0.1875 0.125-0.375l0.0625-0.1875-0.03125 0.09375" fill="#ffdb82"/>
   <path d="m4.125 8.625q0.125-0.375 0.5-0.5t0.875-0.125 0.875 0.125 0.5 0.5 0.125 0.875-0.125 0.875-0.5 0.5-0.875 0.125-0.875-0.125-0.5-0.5-0.125-0.875 0.125-0.875"/>
   <path d="m10.125 8.625q0.125-0.375 0.5-0.5t0.875-0.125 0.875 0.125 0.5 0.5 0.125 0.875-0.125 0.875-0.5 0.5-0.875 0.125-0.875-0.125-0.5-0.5-0.125-0.875 0.125-0.875"/>
   <path d="m14 8.5v-0.5h1-0.75 0.25q0.25 0 0.375-0.125l0.125-0.125-0.125 0.125 0.1875 0.4375q0.1875 0.4375 0.4375 0.6875t0.3125 0.6875l0.0625 0.4375 0.125 0.125-0.125-0.125q-0.125-0.125-0.375-0.125h-0.25 0.75-0.5q-0.5 0-1 0h-0.5 0.75-0.25q-0.25 0-0.375 0.125l-0.125 0.125 0.125-0.125-0.0625-0.5625q-0.0625-0.5625-0.0625-1.0625" fill="#ffdb82"/>
   <path d="m1 10.5q0-0.5 0.5-0.5t1 0 0.5 0.5-0.5 0.5-1 0-0.5-0.5"/>
   <path d="m14 10.5q0-0.5 0.5-0.5t1 0 0.5 0.5-0.5 0.5-1 0-0.5-0.5"/>
   <path d="m1.125 11.5v-0.625l-0.125-0.125 0.125 0.125q0.125 0.125 0.375 0.125h0.25-0.75 0.5q0.5 0 1 0h0.5-0.75 0.25q0.25 0 0.375-0.125l0.125-0.125-0.125 0.125 0.4375 0.1875q0.4375 0.1875 0.5625 0.5625l0.125 0.375h-0.5q-0.5 0-1 0t-1 0h-0.5 0.75-0.25q-0.25 0-0.375 0.125l-0.125 0.125 0.125-0.125v-0.625m2.5 0.5h0.625-0.25q-0.25 0-0.5 0h-0.25 0.375" fill="#30ebd4"/>
   <path d="m13.125 11.625q0.125-0.375 0.5625-0.5625l0.4375-0.1875-0.125-0.125 0.125 0.125q0.125 0.125 0.375 0.125h0.25-0.75 0.5q0.5 0 1 0h0.5-0.75 0.25q0.25 0 0.375-0.125l0.125-0.125-0.125 0.125v1.25l0.125 0.125-0.125-0.125q-0.125-0.125-0.375-0.125h-0.25 0.75-0.5q-0.5 0-1 0t-1 0h-0.5l0.125-0.375m-0.25 0.375h0.875-0.25q-0.25 0-0.5 0h-0.25 0.125" fill="#30ebd4"/>
   <path d="m1.125 12.375q-0.125-0.375 0.375-0.375t1 0 1 0 1 0 1 0 1 0 0.875 0.125 0.5 0.5 0.125 0.875 0 1 0 1 0 1-0.5 0.5-0.5-0.5 0-1 0-1-0.125-0.875-0.5-0.5-0.75 0-0.625 0.375-0.5 0.5-0.375 0.625l-0.125 0.375-0.375-0.125q-0.375-0.125-0.5-0.5t0.25-0.5 0.375-0.375-0.375-0.375-0.875-0.125-0.875-0.125-0.5-0.5"/>
   <path d="m9.125 12.625q0.125-0.375 0.5-0.5t0.875-0.125 1 0 1 0 1 0 1 0 1 0 0.375 0.375-0.5 0.5-0.875 0.125-1 0-0.875 0.125-0.375 0.375 0.25 0.5 0.375 0.625l0.125 0.375-0.375-0.125q-0.375-0.125-0.625-0.375t-0.5-0.5-0.5-0.5-0.5-0.25-0.375 0.375-0.125 0.875 0 1 0 1-0.5 0.5-0.5-0.5 0-1 0-1 0-1 0.125-0.875"/>
  </g>
  <path d="m0 13.5v-0.5l0.375 0.125q0.375 0.125 0.5 0.5t0.25 0.75 0.375 0.625 0.5 0.5 0.625 0.375 0.75 0.25 0.625 0.375 0.5 0.5 0.375 0.625l0.125 0.375h-5v-4.5" fill-opacity="0"/>
  <g>
   <path d="m2.1406 13.359-0.10938-0.39062-0.21875-0.03125 0.21875 0.03125q0.21875 0.03125 0.46875 0.03125h0.25-0.75 0.5q0.5 0 0.875 0.125t0.375 0.375-0.375 0.375l-0.375 0.125 0.5625-0.1875-0.1875 0.0625q-0.1875 0.0625-0.28125 0.21875l-0.09375 0.15625 0.09375-0.15625-0.42188-0.17188q-0.42188-0.17188-0.53125-0.5625" fill="#ffdb82"/>
   <path d="m5 13.5q0.25-0.25 0.625-0.375l0.375-0.125-0.5625 0.1875 0.1875-0.0625q0.1875-0.0625 0.375-0.0625h0.1875-0.1875l-0.125 0.34375q-0.125 0.34375-0.375 0.59375t-0.5 0.5-0.625 0.375l-0.375 0.125 0.125-0.375q0.125-0.375 0.375-0.625t0.5-0.5" fill="#30ebd4"/>
   <path d="m5.875 13.406 0.125-0.34375h-0.1875 0.1875q0.1875 0 0.375 0.0625l0.1875 0.0625-0.5625-0.1875 0.375 0.125q0.375 0.125 0.5 0.5t0.125 0.875 0 1 0 1v0.5-0.75 0.25q0 0.25 0.125 0.375l0.125 0.125-0.125-0.125-0.4375-0.0625q-0.4375-0.0625-0.6875-0.3125t-0.625-0.375-0.75-0.25-0.5-0.5l-0.125-0.375 0.375-0.125q0.375-0.125 0.625-0.375t0.5-0.5 0.375-0.59375" fill="#ffdb82"/>
   <path d="m10.125 13.625q0.125-0.375 0.375-0.375t0.5 0.25 0.5 0.5 0.5 0.5 0.625 0.375l0.375 0.125-0.125 0.375q-0.125 0.375-0.5 0.5t-0.75 0.25-0.625 0.375-0.6875 0.3125l-0.4375 0.0625-0.125 0.125 0.125-0.125q0.125-0.125 0.125-0.375v-0.25 0.75-0.5q0-0.5 0-1t0-1 0.125-0.875" fill="#ffdb82"/>
   <path d="m12.25 13.5q0-0.25 0.375-0.375l0.375-0.125-0.5625 0.1875 0.1875-0.0625q0.1875-0.0625 0.40625-0.09375l0.21875-0.03125-0.21875 0.03126 0.10938 0.35938q0.10938 0.35936 0.48438 0.48436l0.375 0.125-0.5625-0.1875 0.1875 0.0625q0.1875 0.0625 0.375 0.0625h0.1875-0.1875l-0.125 0.40625q-0.125 0.40625-0.5 0.53125l-0.375 0.125-0.125-0.375q-0.125-0.375-0.375-0.625t-0.25-0.5" fill="#30ebd4"/>
   <path d="m13.141 13.391-0.10938-0.35938-0.21875 0.03125 0.21875-0.03125q0.21875-0.03125 0.46875-0.03125h0.25-0.75 0.5q0.5 0 1 0h0.5-0.75 0.25q0.25 0 0.46875-0.03125l0.21875-0.03125-0.21875 0.03126-0.10938 0.39062q-0.10938 0.39062-0.48438 0.51562t-0.75 0-0.48438-0.48438" fill="#ffdb82"/>
  </g>
  <path d="m16.125 13.625q0.125-0.375 0.5-0.5l0.375-0.125v5h-5l0.125-0.375q0.125-0.375 0.375-0.625t0.5-0.5 0.625-0.375 0.75-0.25 0.625-0.375 0.5-0.5 0.375-0.625 0.25-0.75" fill-opacity="0"/>
 </g>
</svg>
