<svg width="17" height="14" version="1.1" viewBox="0 0 17 14" xmlns="http://www.w3.org/2000/svg">
 <g transform="translate(0)">
  <path d="m0 0.5v-0.5h5l-0.125 0.375q-0.125 0.375-0.375 0.625t-0.5 0.5-0.625 0.375-0.75 0.25-0.625 0.375-0.5 0.5-0.375 0.625-0.25 0.75-0.5 0.5l-0.375 0.125v-4.5" fill-opacity="0"/>
  <path d="m4.875 0.375 0.125-0.375h7l0.125 0.375q0.125 0.375 0.375 0.625t0.5 0.5 0.625 0.375 0.75 0.25 0.625 0.375 0.5 0.5 0.375 0.625 0.25 0.75 0.5 0.5l0.375 0.125v4l-0.375 0.125q-0.375 0.125-0.5 0.5t-0.25 0.75-0.375 0.625-0.5 0.5-0.625 0.375-0.75 0.25-0.625 0.375-0.5 0.5-0.375 0.625l-0.125 0.375h-7l-0.125-0.375q-0.125-0.375-0.375-0.625t-0.5-0.5-0.625-0.375-0.75-0.25-0.625-0.375-0.5-0.5-0.375-0.625-0.25-0.75-0.5-0.5l-0.375-0.125v-4l0.375-0.125q0.375-0.125 0.5-0.5t0.25-0.75 0.375-0.625 0.5-0.5 0.625-0.375 0.75-0.25 0.625-0.375 0.5-0.5 0.375-0.625m4.625 12.625q0.5 0 0.875-0.125t0.625-0.375 0.625-0.375 0.75-0.25 0.625-0.375 0.5-0.5 0.35938-0.64062l0.10938-0.39062-0.21875 0.03125 0.21875-0.03125q0.21875-0.03125 0.40625-0.09375l0.1875-0.0625-0.5625 0.1875 0.375-0.125q0.375-0.125 0.625-0.375t0.5-0.5 0.375-0.625 0.125-0.875 0-1-0.125-0.875-0.375-0.625-0.375-0.625-0.25-0.75-0.5-0.5-0.75 0-0.375 0.375 0.25 0.5 0.375 0.625 0.125 0.875-0.125 0.875-0.375 0.625-0.5 0.5-0.625 0.375-0.875 0.125-1 0h-0.5l-0.125-0.375q-0.125-0.375-0.375-0.375t-0.5 0.25-0.5 0.25-0.5-0.25-0.5-0.25-0.375 0.375l-0.125 0.375h-0.5q-0.5 0-1 0t-0.875-0.125-0.625-0.375-0.5-0.5-0.375-0.625-0.125-0.875 0.125-0.875 0.375-0.625 0.25-0.5-0.375-0.375-0.75 0-0.5 0.5-0.25 0.75-0.375 0.625-0.375 0.625-0.125 0.875 0 1 0.125 0.875 0.375 0.625 0.5 0.5 0.625 0.375l0.375 0.125-0.5625-0.1875 0.1875 0.0625q0.1875 0.0625 0.40625 0.09375l0.21875 0.03125-0.21875-0.03125 0.10938 0.39062q0.10938 0.39062 0.35938 0.64062t0.5 0.5 0.625 0.375 0.75 0.25 0.625 0.375 0.625 0.375 0.875 0.125 1 0 1 0m2-6q0.5 0 0.875-0.125t0.5-0.5 0.125-0.875-0.125-0.875-0.5-0.5-0.875-0.125-0.875 0.125-0.5 0.5-0.125 0.875 0.125 0.875 0.5 0.5 0.875 0.125m-1.5938 0.71875 0.15625 0.46875-0.0625-0.1875q-0.0625-0.1875-0.125-0.375l-0.0625-0.1875 0.09375 0.28125m-1.7812-1.3438q0.125 0.375 0.375 0.375t0.375-0.375 0.125-0.875 0.125-0.875 0.375-0.625 0.5-0.5 0.625-0.375 0.875-0.125 0.875-0.125 0.375-0.375-0.25-0.5-0.5-0.5-0.625-0.375-0.875-0.125-1 0-1 0-1 0-1 0-0.875 0.125-0.625 0.375-0.5 0.5-0.25 0.5 0.375 0.375 0.875 0.125 0.875 0.125 0.625 0.375 0.5 0.5 0.375 0.625 0.125 0.875 0.125 0.875m-1.1562 1.7188 0.21875-0.65625-0.0625 0.1875q-0.0625 0.1875-0.125 0.375l-0.0625 0.1875 0.03125-0.09375m-1.4688-1.0938q0.5 0 0.875-0.125t0.5-0.5 0.125-0.875-0.125-0.875-0.5-0.5-0.875-0.125-0.875 0.125-0.5 0.5-0.125 0.875 0.125 0.875 0.5 0.5 0.875 0.125" fill="#fff"/>
  <path d="m12.125 0.375-0.125-0.375h5v5l-0.375-0.125q-0.375-0.125-0.5-0.5t-0.25-0.75-0.375-0.625-0.5-0.5-0.625-0.375-0.75-0.25-0.625-0.375-0.5-0.5-0.375-0.625" fill-opacity="0"/>
  <g>
   <path d="m5 1.5q0.25-0.25 0.625-0.375t0.875-0.125 1 0 1 0 1 0 1 0 0.875 0.125 0.625 0.375 0.5 0.5 0.25 0.5-0.375 0.375-0.875 0.125-0.875 0.125-0.625 0.375-0.5 0.5-0.375 0.625l-0.125 0.375 0.1875-0.5625-0.0625 0.1875q-0.0625 0.1875-0.09375 0.40625l-0.03125 0.21875 0.03125-0.21875h-1.0625l0.03125 0.21875-0.03125-0.21875q-0.03125-0.21875-0.09375-0.40625l-0.0625-0.1875 0.1875 0.5625-0.125-0.375q-0.125-0.375-0.375-0.625t-0.5-0.5-0.625-0.375-0.875-0.125-0.875-0.125-0.375-0.375 0.25-0.5 0.5-0.5"/>
   <path d="m2.125 3.625q0.125-0.375 0.5-0.5t0.75 0 0.375 0.375-0.25 0.5-0.375 0.625-0.125 0.875 0.125 0.875 0.375 0.625 0.5 0.5 0.625 0.375l0.375 0.125-0.5625-0.1875 0.1875 0.0625q0.1875 0.0625 0.40625 0.09375l0.21875 0.03125-0.21875-0.03125-0.015625 0.51562q-0.015625 0.51562-0.03125 1l-0.015625 0.48438 0.21875-0.03125-0.21875 0.03125q-0.21875 0.03125-0.46875 0.03125h-0.25 0.75-0.5q-0.5 0-1 0t-0.875-0.125-0.625-0.375-0.5-0.5-0.375-0.625-0.125-0.875 0-1 0.125-0.875 0.375-0.625 0.375-0.625 0.25-0.75"/>
   <path d="m13.25 3.5q0-0.25 0.375-0.375t0.75 0 0.5 0.5 0.25 0.75 0.375 0.625 0.375 0.625 0.125 0.875 0 1-0.125 0.875-0.375 0.625-0.5 0.5-0.625 0.375-0.875 0.125-1 0h-0.5 0.75-0.25q-0.25 0-0.46875-0.03125l-0.21875-0.03125 0.21875 0.03125-0.015625-0.48438q-0.015625-0.48438-0.03125-1l-0.015625-0.51562-0.21875 0.03125 0.21875-0.03125q0.21875-0.03125 0.40625-0.09375l0.1875-0.0625-0.5625 0.1875 0.375-0.125q0.375-0.125 0.625-0.375t0.5-0.5 0.375-0.625 0.125-0.875-0.125-0.875-0.375-0.625-0.25-0.5"/>
   <path d="m4.125 4.625q0.125-0.375 0.5-0.5t0.875-0.125 0.875 0.125 0.5 0.5 0.125 0.875-0.125 0.875-0.5 0.5-0.875 0.125-0.875-0.125-0.5-0.5-0.125-0.875 0.125-0.875"/>
   <path d="m10.125 4.625q0.125-0.375 0.5-0.5t0.875-0.125 0.875 0.125 0.5 0.5 0.125 0.875-0.125 0.875-0.5 0.5-0.875 0.125-0.875-0.125-0.5-0.5-0.125-0.875 0.125-0.875"/>
  </g>
  <g>
   <path d="m8 5.5v-0.5 0.75-0.25q0-0.25-0.03125-0.46875l-0.03125-0.21875 0.03125 0.21875h1.0625l0.03125-0.21875-0.03125 0.21875q-0.03125 0.21875-0.03125 0.46875v0.25-0.75 0.5q0 0.5-0.125 0.875t-0.375 0.375-0.375-0.375-0.125-0.875" fill="#25fff3"/>
   <path d="m7.125 7.625q0.125-0.375 0.375-0.375t0.5 0.25 0.5 0.25 0.5-0.25 0.5-0.25 0.375 0.375 0.25 0.75 0.375 0.375 0.375-0.375l0.125-0.375h1-0.75 0.25q0.25 0 0.46875-0.03125l0.21875-0.03125-0.21875 0.03125 0.03125 1.0312-0.375 0.125q-0.375 0.125-0.375 0.375t0.375 0.375 0.875 0.125 1 0h0.5-0.75 0.25q0.25 0 0.46875-0.03125l0.21875-0.03125-0.21875 0.03125-0.10938 0.39062q-0.10938 0.39062-0.35938 0.64062t-0.5 0.5-0.625 0.375-0.75 0.25-0.625 0.375-0.625 0.375-0.875 0.125h-0.5v-0.5q0-0.5 0-1t0-1-0.125-0.875-0.375-0.375-0.375 0.375-0.125 0.875-0.125 0.875-0.375 0.625-0.35938 0.60938l-0.10938 0.35938 0.21875 0.03125-0.21875-0.03125q-0.21875-0.03125-0.40625-0.09375l-0.1875-0.0625 0.5625 0.1875-0.375-0.125q-0.375-0.125-0.625-0.375t-0.625-0.375-0.75-0.25-0.625-0.375-0.5-0.5-0.35938-0.64062l-0.10938-0.39062-0.21875-0.03125 0.21875 0.03125q0.21875 0.03125 0.46875 0.03125h0.25-0.75 0.5q0.5 0 1 0t0.875-0.125 0.375-0.375-0.375-0.375l-0.375-0.125 0.03125-1.0312-0.21875-0.03125 0.21875 0.03125q0.21875 0.03125 0.46875 0.03125h0.25-0.75 1l0.125 0.375q0.125 0.375 0.375 0.375t0.375-0.375 0.25-0.75m-1 0.375h-0.875 0.25q0.25 0 0.5 0h0.25-0.125m-1.125 0.625v0.625-0.25q0-0.25 0-0.5v-0.25 0.375m3.875 4.375h0.875-0.25q-0.25 0-0.5 0h-0.25 0.125m3.125-3.875v-0.875 0.25q0 0.25 0 0.5v0.25-0.125m-0.625-1.125h-0.625 0.25q0.25 0 0.5 0h0.25-0.375" fill="#25fff3"/>
   <path d="m6.125 8.375-0.125-0.375h1l-0.125 0.375q-0.125 0.375-0.375 0.375t-0.375-0.375m0.78125-0.09375 0.15625-0.46875-0.0625 0.1875q-0.0625 0.1875-0.125 0.375l-0.0625 0.1875 0.09375-0.28125m-0.53125-0.28125h-0.625 0.25q0.25 0 0.5 0h0.25-0.375"/>
   <path d="m10.125 8.375-0.125-0.375h1l-0.125 0.375q-0.125 0.375-0.375 0.375t-0.375-0.375m1-0.375h-0.875 0.25q0.25 0 0.5 0h0.25-0.125m-1.1562-0.09375 0.21875 0.65625-0.0625-0.1875q-0.0625-0.1875-0.125-0.375l-0.0625-0.1875 0.03125 0.09375"/>
  </g>
  <path d="m0 9.5v-0.5l0.375 0.125q0.375 0.125 0.5 0.5t0.25 0.75 0.375 0.625 0.5 0.5 0.625 0.375 0.75 0.25 0.625 0.375 0.5 0.5 0.375 0.625l0.125 0.375h-5v-4.5" fill-opacity="0"/>
  <g fill="#fff">
   <path d="m4.9844 9.4844 0.015625-0.48438 0.375 0.125q0.375 0.125 0.375 0.375t-0.375 0.375l-0.375 0.125 0.5625-0.1875-0.1875 0.0625q-0.1875 0.0625-0.40625 0.09375l-0.21875 0.03125 0.21875-0.03125 0.015625-0.48438m0.015625-0.60938v0.875-0.25q0-0.25 0-0.5v-0.25 0.125"/>
   <path d="m8.125 9.625q0.125-0.375 0.375-0.375t0.375 0.375l0.125 0.375-0.1875-0.5625 0.0625 0.1875q0.0625 0.1875 0.09375 0.40625l0.03125 0.21875-0.03125-0.21875h-0.9375l-0.03125 0.21875 0.03125-0.21875q0.03125-0.21875 0.09375-0.40625l0.0625-0.1875-0.1875 0.5625 0.125-0.375"/>
   <path d="m11.25 9.5q0-0.25 0.375-0.375l0.375-0.125 0.03125 0.96875 0.21875 0.03125-0.21875-0.03125q-0.21875-0.03125-0.40625-0.09375l-0.1875-0.0625 0.5625 0.1875-0.375-0.125q-0.375-0.125-0.375-0.375m0.75-0.125v-0.625 0.25q0 0.25 0 0.5v0.25-0.375"/>
  </g>
  <path d="m16.125 9.625q0.125-0.375 0.5-0.5l0.375-0.125v5h-5l0.125-0.375q0.125-0.375 0.375-0.625t0.5-0.5 0.625-0.375 0.75-0.25 0.625-0.375 0.5-0.5 0.375-0.625 0.25-0.75" fill-opacity="0"/>
  <path d="m8 10.5v-0.5 0.75-0.25q0-0.25 0.03125-0.46875l0.03125-0.21875-0.03125 0.21875h0.9375l-0.03125-0.21875 0.03125 0.21875q0.03125 0.21875 0.03125 0.46875v0.25-0.75 0.5q0 0.5 0 1t0 1v0.5h-0.5q-0.5 0-1 0h-0.5 0.75-0.25q-0.25 0-0.46875-0.03125l-0.21875-0.03125 0.21875 0.03125 0.10938-0.35938q0.10938-0.35938 0.35938-0.60938t0.375-0.625 0.125-0.875m0.625 2.5h0.625-0.25q-0.25 0-0.5 0h-0.25 0.375" fill="#0727f1"/>
 </g>
</svg>
