<svg width="17" height="14" version="1.1" viewBox="0 0 17 14" xmlns="http://www.w3.org/2000/svg">
 <g transform="translate(0)">
  <path d="m0 0.5v-0.5h5l-0.125 0.375q-0.125 0.375-0.375 0.625t-0.5 0.5-0.625 0.375-0.75 0.25-0.625 0.375-0.5 0.5-0.375 0.625-0.25 0.75-0.5 0.5l-0.375 0.125v-4.5" fill-opacity="0"/>
  <path d="m4.875 0.375 0.125-0.375h7l0.125 0.375q0.125 0.375 0.375 0.625t0.5 0.5 0.625 0.375 0.75 0.25 0.625 0.375 0.5 0.5 0.375 0.625 0.25 0.75 0.5 0.5l0.375 0.125v4l-0.375 0.125q-0.375 0.125-0.5 0.5t-0.25 0.75-0.375 0.625-0.5 0.5-0.625 0.375-0.75 0.25-0.625 0.375-0.5 0.5-0.375 0.625l-0.125 0.375h-7l-0.125-0.375q-0.125-0.375-0.375-0.625t-0.5-0.5-0.625-0.375-0.75-0.25-0.625-0.375-0.5-0.5-0.375-0.625-0.25-0.75-0.5-0.5l-0.375-0.125v-4l0.375-0.125q0.375-0.125 0.5-0.5t0.25-0.75 0.375-0.625 0.5-0.5 0.625-0.375 0.75-0.25 0.625-0.375 0.5-0.5 0.375-0.625m5.625 12.625q0.5 0 0.875-0.125t0.625-0.375 0.5-0.5 0.5-0.5 0.625-0.375 0.75-0.25 0.5-0.5 0.125-0.875v-0.5l0.375-0.125q0.375-0.125 0.5-0.5t0.125-0.875 0-1-0.125-0.875-0.375-0.625-0.375-0.625-0.25-0.75-0.5-0.5-0.75 0-0.375 0.375 0.375 0.375l0.375 0.125-0.5625-0.1875 0.1875 0.0625q0.1875 0.0625 0.40625 0.09375l0.21875 0.03125-0.21875-0.03125-0.015625 0.51562q-0.015625 0.51562-0.015625 1.0156t0.015625 1.0156l0.015625 0.51562 0.21875-0.03125-0.21875 0.03125q-0.21875 0.03125-0.40625 0.09375l-0.1875 0.0625 0.5625-0.1875-0.375 0.125q-0.375 0.125-0.625 0.375t-0.625 0.375-0.875 0.125-0.875-0.125-0.625-0.375-0.625-0.375l-0.375-0.125 0.5625 0.1875-0.1875-0.0625q-0.1875-0.0625-0.375-0.0625h-0.1875 0.1875v-0.53125q0-0.53125 0-1.0312t0.125-0.875 0.375-0.625 0.5-0.5 0.625-0.375 0.875-0.125 0.875-0.125 0.375-0.375-0.39062-0.35938l-0.39062-0.10938 0.03125 0.21875-0.03125-0.21875q-0.03125-0.21875-0.09375-0.40625l-0.0625-0.1875 0.1875 0.5625-0.125-0.375q-0.125-0.375-0.5-0.5t-0.875-0.125-1 0-1 0-1 0-1 0-0.875 0.125-0.625 0.375-0.5 0.5-0.25 0.5 0.375 0.375 0.875 0.125 0.875 0.125 0.625 0.375 0.625 0.375l0.375 0.125-0.5625-0.1875 0.1875 0.0625q0.1875 0.0625 0.375 0.0625h0.1875-0.1875v0.53125q0 0.53125 0 1.0312t-0.125 0.875-0.375 0.625-0.5 0.5-0.625 0.375-0.875 0.125-1 0h-0.5 0.75-0.25q-0.25 0-0.46875 0.03125l-0.21875 0.03125 0.21875-0.03125-0.14062-0.39062q-0.14062-0.39062-0.51562-0.51562l-0.375-0.125v-0.5q0-0.5 0-1t0.125-0.875 0.375-0.625 0.25-0.5-0.375-0.375-0.75 0-0.5 0.5-0.25 0.75-0.375 0.625-0.375 0.625-0.125 0.875 0 1 0.125 0.875 0.5 0.5l0.375 0.125v0.5q0 0.5 0.125 0.875t0.5 0.5 0.75 0.25 0.625 0.375 0.64062 0.35938l0.39062 0.10938-0.03125-0.21875 0.03125 0.21875q0.03125 0.21875 0.09375 0.40625l0.0625 0.1875-0.1875-0.5625 0.125 0.375q0.125 0.375 0.5 0.5t0.875 0.125 1 0 1 0 1 0 1 0m4.7812-4.0938-0.46875 0.15625 0.1875-0.0625q0.1875-0.0625 0.375-0.125l0.1875-0.0625-0.28125 0.09375m-3.7812-1.9062q0.5 0 0.875-0.125t0.5-0.5 0.125-0.875-0.125-0.875-0.5-0.5-0.875-0.125-0.875 0.125-0.5 0.5-0.125 0.875 0.125 0.875 0.5 0.5 0.875 0.125m-6 0q0.5 0 0.875-0.125t0.5-0.5 0.125-0.875-0.125-0.875-0.5-0.5-0.875-0.125-0.875 0.125-0.5 0.5-0.125 0.875 0.125 0.875 0.5 0.5 0.875 0.125m-2.5938-0.03125 0.65625 0.21875-0.1875-0.0625q-0.1875-0.0625-0.375-0.125l-0.1875-0.0625 0.09375 0.03125m-0.8125 2.0625-0.65625-0.21875 0.1875 0.0625q0.1875 0.0625 0.375 0.125l0.1875 0.0625-0.09375-0.03125" fill="#fff"/>
  <path d="m12.125 0.375-0.125-0.375h5v5l-0.375-0.125q-0.375-0.125-0.5-0.5t-0.25-0.75-0.375-0.625-0.5-0.5-0.625-0.375-0.75-0.25-0.625-0.375-0.5-0.5-0.375-0.625" fill-opacity="0"/>
  <path d="m5 1.5q0.25-0.25 0.625-0.375t0.875-0.125h0.5l0.125 0.375q0.125 0.375 0.375 0.375t0.375-0.375l0.125-0.375h0.5q0.5 0 1 0h0.5l0.125 0.375q0.125 0.375 0.375 0.375t0.35938-0.35938l0.10938-0.35938-0.21875-0.03125 0.21875 0.03125q0.21875 0.03125 0.40625 0.09375l0.1875 0.0625-0.5625-0.1875 0.375 0.125q0.375 0.125 0.5 0.5t0.10938 0.85938l-0.015625 0.48438 0.21875-0.03125-0.21875 0.03125q-0.21875 0.03125-0.46875 0.03125h-0.25 0.75-0.5q-0.5 0-0.875 0.125t-0.625 0.375-0.5 0.5-0.375 0.625l-0.125 0.375 0.1875-0.5625-0.0625 0.1875q-0.0625 0.1875-0.09375 0.40625l-0.03125 0.21875 0.03125-0.21875-1.0312-0.03125v-1.0625h-0.1875 0.1875q0.1875 0 0.375-0.0625l0.1875-0.0625-0.5625 0.1875 0.375-0.125q0.375-0.125 0.625-0.375t0.5-0.5 0.25-0.5-0.25-0.25-0.5 0.25-0.625 0.375-0.75 0-0.625-0.375-0.5-0.25-0.39062 0.39062l-0.14062 0.39062 0.21875 0.03125-0.21875-0.03125q-0.21875-0.03125-0.46875-0.03125h-0.25 0.75-0.5q-0.5 0-0.875-0.125t-0.375-0.375 0.25-0.5 0.5-0.5m3 3.125v0.625-0.25q0-0.25 0-0.5v-0.25 0.375m2.125-3.625h-0.875 0.25q0.25 0 0.5 0h0.25-0.125m-1.75 0h-0.625 0.25q0.25 0 0.5 0h0.25-0.375m-1.25 0h-0.875 0.25q0.25 0 0.5 0h0.25-0.125" fill="#ff7f00"/>
  <g>
   <path d="m7.125 1.375-0.125-0.375h1l-0.125 0.375q-0.125 0.375-0.375 0.375t-0.375-0.375m1-0.375h-0.875 0.25q0.25 0 0.5 0h0.25-0.125m-0.75 0h-0.625 0.25q0.25 0 0.5 0h0.25-0.375"/>
   <path d="m10.125 1.375-0.125-0.375h1-0.75 0.25q0.25 0 0.46875 0.03125l0.21875 0.03125-0.21875-0.03125-0.10938 0.35938q-0.10938 0.35938-0.35938 0.35938t-0.375-0.375m0.25-0.375h-0.625 0.25q0.25 0 0.5 0h0.25-0.375"/>
   <path d="m6.1094 2.6406q0.14062-0.39062 0.39062-0.39062t0.5 0.25 0.625 0.375 0.75 0 0.625-0.375 0.5-0.25 0.25 0.25-0.25 0.5-0.5 0.5-0.625 0.375-0.75 0-0.625-0.375-0.625-0.375l-0.375-0.125 0.5625 0.1875-0.1875-0.0625q-0.1875-0.0625-0.40625-0.09375l-0.21875-0.03125 0.21875 0.03125 0.14062-0.39062"/>
   <path d="m11.984 2.4844 0.015625-0.48438v0.75-0.25q0-0.25-0.03125-0.46875l-0.03125-0.21875 0.03126 0.21875 0.39062 0.10938q0.39062 0.10938 0.39062 0.35938t-0.375 0.375l-0.375 0.125 0.5625-0.1875-0.1875 0.0625q-0.1875 0.0625-0.40625 0.09375l-0.21875 0.03125 0.21875-0.03125 0.015625-0.48438"/>
  </g>
  <g>
   <path d="m2.125 3.625q0.125-0.375 0.5-0.5l0.375-0.125-0.5625 0.1875 0.1875-0.0625q0.1875-0.0625 0.375-0.0625h0.1875-0.1875l-0.125 0.34375q-0.125 0.34375-0.5 0.46875l-0.375 0.125 0.125-0.375m-0.03125 0.09375-0.15625 0.46875 0.0625-0.1875q0.0625-0.1875 0.125-0.375l0.0625-0.1875-0.09375 0.28125" fill="#ff7f00"/>
   <path d="m2.875 3.4062 0.125-0.34375h-0.1875 0.1875q0.1875 0 0.375 0.0625l0.1875 0.0625-0.5625-0.1875 0.375 0.125q0.375 0.125 0.375 0.375t-0.25 0.5-0.375 0.625l-0.125 0.375 0.1875-0.5625-0.0625 0.1875q-0.0625 0.1875-0.09375 0.40625l-0.03125 0.21875 0.03125-0.21875-0.39062 0.10938q-0.39062 0.10938-0.39062 0.35938t0.375 0.375l0.375 0.125v1l-0.375-0.125q-0.375-0.125-0.625-0.375t-0.60938-0.35938l-0.35938-0.10938-0.03125 0.21875 0.03125-0.21875q0.03125-0.21875 0.09375-0.40625l0.0625-0.1875-0.1875 0.5625 0.125-0.375q0.125-0.375 0.375-0.625t0.375-0.625l0.125-0.375 0.375-0.125q0.375-0.125 0.5-0.46875m-0.84375 0.5-0.21875 0.65625 0.0625-0.1875q0.0625-0.1875 0.125-0.375l0.0625-0.1875-0.03125 0.09375m0.6875 3 0.46875 0.15625-0.1875-0.0625q-0.1875-0.0625-0.375-0.125l-0.1875-0.0625 0.28125 0.09375m0.28125-0.53125v-0.625 0.25q0 0.25 0 0.5v0.25-0.375"/>
   <path d="m13.25 3.5q0-0.25 0.375-0.375t0.75 0 0.5 0.5l0.125 0.375h-0.5q-0.5 0-0.875-0.125t-0.375-0.375m1.7812 0.59375-0.21875-0.65625 0.0625 0.1875q0.0625 0.1875 0.125 0.375l0.0625 0.1875-0.03125-0.09375" fill="#ff7f00"/>
  </g>
  <g>
   <path d="m4.125 4.625q0.125-0.375 0.5-0.5t0.875-0.125 0.875 0.125 0.5 0.5 0.125 0.875-0.125 0.875-0.5 0.5-0.875 0.125-0.875-0.125-0.5-0.5-0.125-0.875 0.125-0.875"/>
   <path d="m10.125 4.625q0.125-0.375 0.5-0.5t0.875-0.125 0.875 0.125 0.5 0.5 0.125 0.875-0.125 0.875-0.5 0.5-0.875 0.125-0.875-0.125-0.5-0.5-0.125-0.875 0.125-0.875"/>
   <path d="m14.016 4.4844 0.015625-0.51562-0.21875-0.03125 0.21875 0.03125q0.21875 0.03125 0.46875 0.03125h0.25-0.75 1l0.125 0.375q0.125 0.375 0.375 0.625t0.375 0.625l0.125 0.375-0.1875-0.5625 0.0625 0.1875q0.0625 0.1875 0.09375 0.40625l0.03125 0.21875-0.03125-0.21875-0.35938 0.10938q-0.35938 0.10938-0.48438 0.48438l-0.125 0.375h-1 0.75-0.25q-0.25 0-0.46875 0.03125l-0.21875 0.03125 0.21875-0.03125-0.03125-1.0312 0.375-0.125q0.375-0.125 0.375-0.375t-0.375-0.375l-0.375-0.125 0.015625-0.51562m-0.015625 0.14062v0.625-0.25q0-0.25 0-0.5v-0.25 0.375m0 1.25v0.875-0.25q0-0.25 0-0.5v-0.25 0.125m1.0938-1.5938-0.15625-0.46875 0.0625 0.1875q0.0625 0.1875 0.125 0.375l0.0625 0.1875-0.09375-0.28125"/>
  </g>
  <path d="m2.25 5.5q0-0.25 0.39062-0.35938l0.39062-0.10938 0.03125-0.21875-0.03125 0.21875q-0.03125 0.21875-0.03125 0.46875v0.25-0.75 1l-0.375-0.125q-0.375-0.125-0.375-0.375m0.75 0.625v-0.875 0.25q0 0.25 0 0.5v0.25-0.125" fill="#ff7f00"/>
  <path d="m8 5.5v-0.5l1.0312 0.03125 0.03125-0.21875-0.03125 0.21875q-0.03125 0.21875-0.03125 0.46875v0.25-0.75 1l-1.0312-0.03125-0.03125 0.21875 0.03125-0.21875q0.03125-0.21875 0.03125-0.46875v-0.25 0.75-0.5m1 0.625v-0.875 0.25q0 0.25 0 0.5v0.25-0.125m-1-1.25v0.875-0.25q0-0.25 0-0.5v-0.25 0.125"/>
  <g fill="#ff7f00">
   <path d="m14 5.5v-0.5l0.375 0.125q0.375 0.125 0.375 0.375t-0.375 0.375l-0.375 0.125v-0.5m0 0.125v0.625-0.25q0-0.25 0-0.5v-0.25 0.375m0-0.75v0.875-0.25q0-0.25 0-0.5v-0.25 0.125"/>
   <path d="m1 6.5v-0.5 0.75-0.25q0-0.25 0.03125-0.46875l0.03125-0.21875-0.03125 0.21875 0.35938 0.10938q0.35938 0.10938 0.60938 0.35938t0.625 0.375 0.75 0.25 0.51562 0.51562l0.14062 0.39062 0.21875-0.03125-0.21875 0.03125q-0.21875 0.03125-0.40625 0.09375l-0.1875 0.0625 0.5625-0.1875-0.375 0.125q-0.375 0.125-0.375 0.375t0.375 0.375 0.75 0.25 0.375 0.375-0.25 0.5-0.25 0.5 0.375 0.375l0.375 0.125v1-0.75 0.25q0 0.25 0.03125 0.46875l0.03125 0.21875-0.03125-0.21875-0.39062-0.10938q-0.39062-0.10938-0.64062-0.35938t-0.625-0.375-0.75-0.25-0.5-0.5l-0.125-0.375 0.1875 0.5625-0.0625-0.1875q-0.0625-0.1875-0.09375-0.40625l-0.03125-0.21875 0.03125 0.21875 0.35938-0.10938q0.35938-0.10938 0.35938-0.35938t-0.375-0.375-0.75-0.25-0.5-0.5l-0.125-0.375 0.1875 0.5625-0.0625-0.1875q-0.0625-0.1875-0.09375-0.40625l-0.03125-0.21875 0.03125 0.21875 0.35938-0.10938q0.35938-0.10938 0.35938-0.35938t-0.375-0.375l-0.375-0.125v-0.5m0 0.125v0.625-0.25q0-0.25 0-0.5v-0.25 0.375"/>
   <path d="m7.875 6.375 0.125-0.375-0.1875 0.5625 0.0625-0.1875q0.0625-0.1875 0.09375-0.40625l0.03125-0.21875-0.03125 0.21875 1.0312 0.03125v1.0625h0.1875-0.1875q-0.1875 0-0.375 0.0625l-0.1875 0.0625 0.5625-0.1875-0.375 0.125q-0.375 0.125-0.625 0.375t-0.5 0.5-0.5 0.5-0.625 0.375-0.75 0-0.5-0.5l-0.125-0.375h0.5q0.5 0 0.875-0.125t0.625-0.375 0.5-0.5 0.375-0.625m-2.5 1.625h-0.625 0.25q0.25 0 0.5 0h0.25-0.375m3.625-1.625v-0.625 0.25q0 0.25 0 0.5v0.25-0.375"/>
   <path d="m15.125 6.625q0.125-0.375 0.48438-0.48438l0.35938-0.10938-0.03125-0.21875 0.03125 0.21875q0.03125 0.21875 0.03125 0.46875v0.25-0.75 1h-1l0.125-0.375m0.875 0.5v-0.875 0.25q0 0.25 0 0.5v0.25-0.125"/>
  </g>
  <g>
   <path d="m1 7.5v-0.5l0.375 0.125q0.375 0.125 0.375 0.375t-0.35938 0.35938l-0.35938 0.10938 0.03125 0.21875-0.03125-0.21875q-0.03125-0.21875-0.03125-0.46875v-0.25 0.75-0.5m0-0.625v0.875-0.25q0-0.25 0-0.5v-0.25 0.125"/>
   <path d="m8 7.5q0.25-0.25 0.625-0.375t0.75 0 0.625 0.375 0.625 0.375 0.875 0.125h0.5-0.75 0.25q0.25 0 0.46875-0.03125l0.21875-0.03125-0.21875 0.03125 0.14062 0.39062q0.14062 0.39062 0.51562 0.51562t0.75 0 0.625-0.375 0.5-0.5 0.375-0.625l0.125-0.375h1v0.5q0 0.5-0.125 0.875t-0.5 0.5-0.75 0.25-0.625 0.375-0.5 0.5-0.5 0.5-0.625 0.375-0.75 0.25-0.625 0.375-0.5 0.5-0.375 0.625l-0.125 0.375h-0.5q-0.5 0-1 0h-0.5l0.125-0.375q0.125-0.375 0.375-0.625t0.25-0.5-0.375-0.375-0.875-0.125h-0.5l-0.125-0.375q-0.125-0.375-0.5-0.5t-0.75 0-0.5 0.5l-0.125 0.375-0.375-0.125q-0.375-0.125-0.375-0.375t0.25-0.5 0.25-0.5-0.375-0.375-0.75-0.25-0.375-0.375 0.375-0.375 0.875-0.125h0.5l0.125 0.375q0.125 0.375 0.5 0.5t0.75 0 0.625-0.375 0.5-0.5 0.5-0.5m-2.875 0.5h-0.875 0.25q0.25 0 0.5 0h0.25-0.125m2.5 1.875q0.375 0.125 0.75 0t0.625-0.375 0.5-0.5 0.25-0.5-0.375-0.375-0.75 0-0.625 0.375-0.5 0.5-0.25 0.5 0.375 0.375m0.25 3.125h0.875-0.25q-0.25 0-0.5 0h-0.25 0.125m1.75-2.125q0.375 0.125 0.75 0t0.625-0.375 0.5-0.5 0.25-0.5-0.375-0.375-0.75 0-0.625 0.375-0.5 0.5-0.25 0.5 0.375 0.375m0 2.125h0.625-0.25q-0.25 0-0.5 0h-0.25 0.375m6.375-5.625v-0.625 0.25q0 0.25 0 0.5v0.25-0.375"/>
   <path d="m13 7.5q0.25-0.25 0.625-0.375t0.875-0.125h0.5l-0.125 0.375q-0.125 0.375-0.375 0.625t-0.5 0.5-0.625 0.375-0.75 0-0.51562-0.51562l-0.14062-0.39062-0.21875 0.03125 0.21875-0.03125q0.21875-0.03125 0.40625-0.09375l0.1875-0.0625-0.5625 0.1875 0.375-0.125q0.375-0.125 0.625-0.375" fill="#ff7f00"/>
   <path d="m8 8.5q0.25-0.25 0.625-0.375t0.75 0 0.375 0.375-0.25 0.5-0.5 0.5-0.625 0.375-0.75 0-0.375-0.375 0.25-0.5 0.5-0.5" fill="#ff7f00"/>
  </g>
  <path d="m0 9.5v-0.5l0.375 0.125q0.375 0.125 0.5 0.5t0.25 0.75 0.375 0.625 0.5 0.5 0.625 0.375 0.75 0.25 0.625 0.375 0.5 0.5 0.375 0.625l0.125 0.375h-5v-4.5" fill-opacity="0"/>
  <g>
   <path d="m2 9.5v-0.5l0.375 0.125q0.375 0.125 0.375 0.375t-0.35938 0.35938l-0.35938 0.10938 0.03125 0.21875-0.03125-0.21875q-0.03125-0.21875-0.03125-0.46875v-0.25 0.75-0.5m0.28125-0.40625-0.46875-0.15625 0.1875 0.0625q0.1875 0.0625 0.375 0.125l0.1875 0.0625-0.28125-0.09375"/>
   <path d="m10 9.5q0.25-0.25 0.625-0.375t0.75 0 0.375 0.375-0.25 0.5-0.5 0.5-0.625 0.375-0.75 0-0.375-0.375 0.25-0.5 0.5-0.5" fill="#ff7f00"/>
   <path d="m14 9.5q0.25-0.25 0.625-0.375l0.375-0.125v0.5q0 0.5-0.125 0.875t-0.5 0.5-0.75 0.25-0.625 0.375-0.5 0.5-0.5 0.5-0.625 0.375-0.875 0.125h-0.5l0.125-0.375q0.125-0.375 0.375-0.625t0.5-0.5 0.625-0.375 0.75-0.25 0.625-0.375 0.5-0.5 0.5-0.5m-4.125 3.5h0.875-0.25q-0.25 0-0.5 0h-0.25 0.125m5.2188-4.0312-0.65625 0.21875 0.1875-0.0625q0.1875-0.0625 0.375-0.125l0.1875-0.0625-0.09375 0.03125" fill="#ff7f00"/>
  </g>
  <path d="m16.125 9.625q0.125-0.375 0.5-0.5l0.375-0.125v5h-5l0.125-0.375q0.125-0.375 0.375-0.625t0.5-0.5 0.625-0.375 0.75-0.25 0.625-0.375 0.5-0.5 0.375-0.625 0.25-0.75" fill-opacity="0"/>
  <g>
   <path d="m5.125 10.625q0.125-0.375 0.5-0.5t0.75 0 0.5 0.5l0.125 0.375h-0.5q-0.5 0-1 0h-0.5l0.125-0.375" fill="#ff7f00"/>
   <path d="m5 11.5v-0.5h0.5q0.5 0 1 0h0.5l-0.125 0.375q-0.125 0.375-0.375 0.625t-0.35938 0.60938l-0.10938 0.35938 0.21875 0.03125-0.21875-0.03125q-0.21875-0.03125-0.40625-0.09375l-0.1875-0.0625 0.5625 0.1875-0.375-0.125q-0.375-0.125-0.5-0.5t-0.125-0.875"/>
   <path d="m6.875 11.375 0.125-0.375h0.5q0.5 0 0.875 0.125t0.375 0.375-0.25 0.5-0.375 0.625l-0.125 0.375h-0.5q-0.5 0-1 0h-0.5 0.75-0.25q-0.25 0-0.46875-0.03125l-0.21875-0.03125 0.21875 0.03125 0.10938-0.35938q0.10938-0.35938 0.35938-0.60938t0.375-0.625m0.75 1.625h0.625-0.25q-0.25 0-0.5 0h-0.25 0.375" fill="#ff7f00"/>
  </g>
 </g>
</svg>
