<svg width="17" height="14" version="1.1" viewBox="0 0 17 14" xmlns="http://www.w3.org/2000/svg">
 <g transform="translate(0)">
  <path d="m0 0.5v-0.5h5l-0.125 0.375q-0.125 0.375-0.375 0.625t-0.5 0.5-0.625 0.375-0.75 0.25-0.625 0.375-0.5 0.5-0.375 0.625-0.25 0.75-0.5 0.5l-0.375 0.125v-4.5" fill-opacity="0"/>
  <path d="m4.875 0.375 0.125-0.375h7l0.125 0.375q0.125 0.375 0.375 0.625t0.5 0.5 0.625 0.375 0.75 0.25 0.625 0.375 0.5 0.5 0.375 0.625 0.25 0.75 0.5 0.5l0.375 0.125v4l-0.375-0.125q-0.375-0.125-0.5-0.5l-0.125-0.375 0.1875 0.5625-0.0625-0.1875q-0.0625-0.1875-0.21875-0.28125l-0.15625-0.09375 0.15626 0.09375 0.04687-0.54688q0.04687-0.54688-0.01563-1.1094l-0.0625-0.5625-0.125 0.125 0.125-0.125q0.125-0.125 0.125-0.375v-0.25 0.75l-0.125-0.375q-0.125-0.375-0.5-0.5l-0.375-0.125 0.5625 0.1875-0.1875-0.0625q-0.1875-0.0625-0.40625-0.09375l-0.21875-0.03125 0.21875 0.03125-0.09375-1.1562-0.125 0.125 0.125-0.125q0.125-0.125 0.125-0.375v-0.25 0.75l-0.125-0.375q-0.125-0.375-0.5-0.5t-0.75 0-0.375 0.375 0.375 0.375l0.375 0.125-0.5625-0.1875 0.1875 0.0625q0.1875 0.0625 0.40625 0.09375l0.21875 0.03125-0.21875-0.03125 0.09375 1.1562 0.125-0.125-0.125 0.125q-0.125 0.125-0.125 0.375v0.25-0.75 1-0.75 0.25q0 0.25 0.125 0.375l0.125 0.125-0.125-0.125-0.1875 0.4375q-0.1875 0.4375-0.4375 0.6875t-0.375 0.625l-0.125 0.375h-0.5q-0.5 0-1 0t-1 0h-0.5l-0.125-0.375q-0.125-0.375-0.375-0.625t-0.4375-0.6875l-0.1875-0.4375-0.125 0.125 0.125-0.125q0.125-0.125 0.125-0.375v-0.25 0.75-1 0.75-0.25q0-0.25-0.125-0.375l-0.125-0.125 0.125 0.125 0.125-1.125 0.375-0.125q0.375-0.125 0.5-0.5l0.125-0.375v0.75-0.25q0-0.25-0.125-0.375l-0.125-0.125 0.125 0.125 0.5625-0.0625q0.5625-0.0625 1.0625-0.0625t0.875-0.125 0.375-0.375-0.25-0.5-0.5-0.5-0.625-0.375-0.875-0.125-1 0-1 0-1 0-1 0-0.875 0.125-0.5625 0.5625l-0.1875 0.4375 0.125 0.125-0.125-0.125q-0.125-0.125-0.375-0.125h-0.25 0.75l-0.375 0.125q-0.375 0.125-0.5 0.5l-0.125 0.375h-0.5q-0.5 0-0.875 0.125t-0.4375 0.5625l-0.0625 0.4375 0.125-0.125-0.125 0.125q-0.125 0.125-0.125 0.375v0.25-0.75 1-0.75 0.25q0 0.25 0.125 0.375l0.125 0.125-0.125-0.125-0.4375 0.1875q-0.4375 0.1875-0.5625 0.5625t-0.125 0.875 0.0625 1.0625l0.0625 0.5625 0.125-0.125-0.125 0.125q-0.125 0.125-0.125 0.375v0.25-0.75l0.125 0.375q0.125 0.375 0.5 0.5l0.375 0.125-0.5625-0.1875 0.1875 0.0625q0.1875 0.0625 0.40625 0.09375l0.21875 0.03125-0.21875-0.03125 0.10938 0.39062q0.10938 0.39062 0.35938 0.64062t0.5 0.5 0.67188 0.42188l0.42188 0.17188 0.15625-0.09375-0.15625 0.09375q-0.15625 0.09375-0.21875 0.28125l-0.0625 0.1875 0.1875-0.5625-0.125 0.375q-0.125 0.375-0.5 0.5t-0.75 0-0.625-0.375-0.5-0.5-0.375-0.625-0.25-0.75-0.5-0.5l-0.375-0.125v-4l0.375-0.125q0.375-0.125 0.5-0.5t0.25-0.75 0.375-0.625 0.5-0.5 0.625-0.375 0.75-0.25 0.625-0.375 0.5-0.5 0.375-0.625m-0.90625 2.7188 0.21875-0.65625-0.0625 0.1875q-0.0625 0.1875-0.125 0.375l-0.0625 0.1875 0.03125-0.09375m5.3125 0.8125-0.46875 0.15625 0.1875-0.0625q0.1875-0.0625 0.375-0.125l0.1875-0.0625-0.28125 0.09375m0.59375 4.0938h0.875-0.25q-0.25 0-0.5 0h-0.25 0.125m1.625-1q0.5 0 0.875-0.125t0.5-0.5 0.125-0.875-0.125-0.875-0.5-0.5-0.875-0.125-0.875 0.125-0.5 0.5-0.125 0.875 0.125 0.875 0.5 0.5 0.875 0.125m1.125 1h0.625-0.25q-0.25 0-0.5 0h-0.25 0.375" fill="#fff"/>
  <path d="m12.125 0.375-0.125-0.375h5v5l-0.375-0.125q-0.375-0.125-0.5-0.5t-0.25-0.75-0.375-0.625-0.5-0.5-0.625-0.375-0.75-0.25-0.625-0.375-0.5-0.5-0.375-0.625" fill-opacity="0"/>
  <g>
   <path d="m5.0625 1.6875q0.1875-0.4375 0.5625-0.5625t0.875-0.125 1 0 1 0 1 0 1 0 0.875 0.125 0.625 0.375 0.5 0.5 0.25 0.5-0.375 0.375-0.875 0.125-1.0625 0.0625l-0.5625 0.0625 0.125 0.125-0.125-0.125q-0.125-0.125-0.375-0.125h-0.25 0.75-0.5q-0.5 0-0.875 0.125t-0.625 0.375-0.625 0.375-0.875 0.125-0.875-0.125-0.5-0.5-0.125-0.875v-0.5 0.75-0.25q0-0.25-0.125-0.375l-0.125-0.125 0.125 0.125 0.1875-0.4375" fill="#f2a150"/>
   <path d="m4.125 2.625q0.125-0.375 0.5-0.5t0.375 0.375 0.125 0.875 0.5 0.5 0.875 0.125 0.875-0.125 0.625-0.375 0.625-0.375 0.875-0.125 0.375 0.375-0.5 0.5-0.75 0.25-0.625 0.375-0.625 0.375-0.875 0.125-0.875 0.125-0.5 0.5-0.125 0.875 0.125 0.875 0.5 0.5 0.875 0.125 1 0 1 0 1 0 1 0 1 0 1 0 1 0 1 0 1 0 0.625 0.375l0.125 0.375-0.1875-0.5625 0.0625 0.1875q0.0625 0.1875 0.1875 0.3125l0.125 0.125-0.125-0.125-0.625 0.625 0.125 0.125-0.125-0.125q-0.125-0.125-0.3125-0.1875l-0.1875-0.0625 0.5625 0.1875-0.375-0.125q-0.375-0.125-0.875-0.125t-1 0-1 0-1 0-1 0-1 0-1 0-1 0-1 0-1 0-1 0-1 0-1 0-0.875-0.125-0.5-0.5 0.375-0.375 1 0 0.875-0.125 0.5-0.5 0.125-0.875-0.125-0.875-0.5-0.5-0.875-0.125-0.5-0.5 0.5-0.5 0.875-0.125 0.5-0.5 0.25-0.75"/>
   <path d="m2.1875 3.6875q0.0625-0.4375 0.4375-0.5625t0.875-0.125h0.5l-0.125 0.375q-0.125 0.375-0.5 0.5t-0.875 0.125h-0.5 0.75-0.25q-0.25 0-0.375 0.125l-0.125 0.125 0.125-0.125 0.0625-0.4375m1.7188-0.40625 0.15625-0.46875-0.0625 0.1875q-0.0625 0.1875-0.125 0.375l-0.0625 0.1875 0.09375-0.28125" fill="#f2a150"/>
   <path d="m13.25 3.5q0-0.25 0.375-0.375t0.75 0 0.5 0.5-0.375 0.375-0.875-0.125-0.375-0.375"/>
   <path d="m8 4.5q0.25-0.25 0.625-0.375l0.375-0.125-0.125 1.125 0.125 0.125-0.125-0.125q-0.125-0.125-0.375-0.125h-0.25 0.75l-0.375 0.125q-0.375 0.125-0.375 0.375t0.375 0.375l0.375 0.125h-0.75 0.25q0.25 0 0.375-0.125l0.125-0.125-0.125 0.125 0.1875 0.4375q0.1875 0.4375 0.4375 0.6875t0.375 0.625l0.125 0.375h-0.5q-0.5 0-1 0t-1 0-1 0-0.875-0.125-0.5-0.5-0.125-0.875 0.125-0.875 0.5-0.5 0.875-0.125 0.875-0.125 0.625-0.375m1.625 3.5h0.625-0.25q-0.25 0-0.5 0h-0.25 0.375m-0.53125-4.0312-0.65625 0.21875 0.1875-0.0625q0.1875-0.0625 0.375-0.125l0.1875-0.0625-0.09375 0.03125" fill="#f2a150"/>
   <path d="m10.125 4.625q0.125-0.375 0.5-0.5t0.875-0.125 0.875 0.125 0.5 0.5 0.125 0.875-0.125 0.875-0.5 0.5-0.875 0.125-0.875-0.125-0.5-0.5-0.125-0.875 0.125-0.875"/>
   <path d="m14.078 4.5469-0.046875-0.57812-0.21875-0.03125 0.21875 0.03125q0.21875 0.03125 0.46875 0.03125h0.25-0.75 1-0.75 0.25q0.25 0 0.375-0.125l0.125-0.125-0.125 0.125 0.09375 1.1562 0.21875 0.03125-0.21875-0.03125q-0.21875-0.03125-0.46875-0.03125h-0.25 0.75-1 0.75-0.25q-0.25 0-0.375 0.125l-0.125 0.125 0.125-0.125-0.046875-0.57812" fill="#f2a150"/>
   <path d="m1.125 5.625q0.125-0.375 0.5625-0.5625l0.4375-0.1875-0.125-0.125 0.125 0.125q0.125 0.125 0.375 0.125h0.25-0.75 0.5q0.5 0 0.875 0.125t0.5 0.5 0.125 0.875-0.125 0.875-0.5 0.5-0.875 0.125-1 0h-0.5 0.75-0.25q-0.25 0-0.375 0.125l-0.125 0.125 0.125-0.125-0.0625-0.5625q-0.0625-0.5625-0.0625-1.0625t0.125-0.875" fill="#f2a150"/>
   <path d="m8.25 5.5q0-0.25 0.375-0.375t0.375 0.375-0.375 0.375-0.375-0.375"/>
   <path d="m14 5.5q0-0.5 0.5-0.5t0.875 0.125 0.5 0.5-0.375 0.375-1 0-0.5-0.5"/>
   <path d="m13.938 6.3125 0.1875-0.4375-0.125-0.125 0.125 0.125q0.125 0.125 0.375 0.125h0.25-0.75 0.5q0.5 0 1 0h0.5-0.75 0.25q0.25 0 0.375-0.125l0.125-0.125-0.125 0.125 0.0625 0.5625q0.0625 0.5625 0.015625 1.1094l-0.046875 0.54688 0.15625 0.09375-0.15625-0.09375q-0.15625-0.09375-0.40625-0.09375h-0.25 0.75-0.5q-0.5 0-1 0t-1 0h-0.5l0.125-0.375q0.125-0.375 0.375-0.625t0.4375-0.6875m-1.0625 1.6875h0.875-0.25q-0.25 0-0.5 0h-0.25 0.125" fill="#f2a150"/>
  </g>
  <path d="m0 9.5v-0.5l0.375 0.125q0.375 0.125 0.5 0.5t0.25 0.75 0.375 0.625 0.5 0.5 0.625 0.375 0.75 0l0.375-0.125-0.5625 0.1875 0.1875-0.0625q0.1875-0.0625 0.3125-0.1875l0.125-0.125-0.125 0.125 0.65625 0.59375 0.09375-0.09375-0.09375 0.09375q-0.09375 0.09375-0.09375 0.21875v0.125-0.375 0.25q0 0.25 0.25 0.5t0.375 0.625l0.125 0.375h-5v-4.5" fill-opacity="0"/>
  <path d="m2.1406 9.3594-0.10938-0.39062-0.21875-0.03125 0.21875 0.03125q0.21875 0.03125 0.46875 0.03125h0.25-0.75 0.5q0.5 0 1 0t1 0 1 0 1 0 1 0 1 0 1 0 1 0 1 0 1 0 1 0 1 0h0.5-0.75 0.25q0.25 0 0.46875 0.03125l0.21875 0.03125-0.21875-0.03125-0.10938 0.35938q-0.10938 0.35938-0.35938 0.60938t-0.5 0.5-0.67188 0.42188l-0.42188 0.17188 0.15626 0.09374-0.15625-0.09375q-0.15626-0.09374-0.40626-0.09374h-0.25 0.75-0.5q-0.5 0-1 0t-1 0-1 0-1 0-1 0-1 0-1 0-1 0h-0.5 0.75-0.25q-0.25 0-0.40625 0.09375l-0.15625 0.09375 0.15625-0.09375-0.42188-0.17188q-0.42188-0.17188-0.67188-0.42188t-0.5-0.5-0.35938-0.64062" fill="#f2a150"/>
  <path d="m14.859 9.3906 0.10938-0.35938-0.21875-0.03125 0.21875 0.03125q0.21875 0.03125 0.40625 0.09375l0.1875 0.0625-0.5625-0.1875 0.375 0.125q0.375 0.125 0.5 0.5t0 0.75-0.375 0.625-0.5 0.5-0.625 0.375-0.75 0-0.5-0.5l-0.125-0.375 0.1875 0.5625-0.0625-0.1875q-0.0625-0.1875-0.21875-0.28125l-0.15625-0.09375 0.15626 0.09374 0.42188-0.17188q0.42186-0.17186 0.67186-0.42186t0.5-0.5 0.35938-0.60938" fill="#fff"/>
  <path d="m15.875 9.625-0.125-0.375 0.1875 0.5625-0.0625-0.1875q-0.0625-0.1875-0.1875-0.3125l-0.125-0.125 0.125 0.125 0.625-0.625-0.125-0.125 0.125 0.125q0.125 0.125 0.3125 0.1875l0.1875 0.0625-0.5625-0.1875 0.75 0.25v5h-5l0.125-0.375q0.125-0.375 0.375-0.625t0.25-0.5v-0.25 0.375-0.125q0-0.125-0.09375-0.21875l-0.09375-0.09375 0.09374 0.09374 0.32812-0.29688 0.32814-0.29686-0.125-0.125 0.125 0.125q0.125 0.125 0.3125 0.1875l0.1875 0.0625-0.5625-0.1875 0.375 0.125q0.375 0.125 0.75 0t0.625-0.375 0.5-0.5 0.375-0.625 0-0.75" fill-opacity="0"/>
  <g>
   <path d="m3.875 11.375q0.125-0.375 0.625-0.375t1 0 1 0 1 0 1 0 1 0 1 0 1 0 1 0 0.625 0.375l0.125 0.375-0.1875-0.5625 0.0625 0.1875q0.0625 0.1875 0.1875 0.3125l0.125 0.125-0.125-0.125-0.65625 0.59375 0.09375 0.09375-0.09375-0.09375q-0.09375-0.09375-0.28125-0.15625l-0.1875-0.0625 0.5625 0.1875-0.375-0.125q-0.375-0.125-0.875-0.125t-1 0-1 0-1 0-1 0-1 0-1 0-0.875 0.125l-0.375 0.125 0.5625-0.1875-0.1875 0.0625q-0.1875 0.0625-0.28125 0.15625l-0.09375 0.09375 0.09375-0.09375-0.65625-0.59375-0.125 0.125 0.125-0.125q0.125-0.125 0.1875-0.3125l0.0625-0.1875-0.1875 0.5625 0.125-0.375"/>
   <path d="m4.25 12.5q0-0.25 0.375-0.375t0.875-0.125h0.5l0.125 0.375q0.125 0.375 0.5 0.5t0.875 0.125 1 0 1 0 0.875-0.125 0.5-0.5l0.125-0.375h0.5q0.5 0 0.875 0.125t0.375 0.375-0.25 0.5-0.375 0.625l-0.125 0.375h-7l-0.125-0.375q-0.125-0.375-0.375-0.625t-0.25-0.5m7.125-0.5h-0.625 0.25q0.25 0 0.5 0h0.25-0.375m-5.25 0h-0.875 0.25q0.25 0 0.5 0h0.25-0.125" fill="#fff"/>
   <path d="m6.125 12.375-0.125-0.375h0.5q0.5 0 1 0t1 0 1 0 1 0h0.5l-0.125 0.375q-0.125 0.375-0.5 0.5t-0.875 0.125-1 0-1 0-0.875-0.125-0.5-0.5m5-0.375h-0.875 0.25q0.25 0 0.5 0h0.25-0.125m-4.75 0h-0.625 0.25q0.25 0 0.5 0h0.25-0.375" fill="#f2a150"/>
  </g>
 </g>
</svg>
