<svg width="29" height="31" version="1.1" viewBox="0 0 29 31" xmlns="http://www.w3.org/2000/svg">
 <g transform="translate(0)">
  <path d="m0 0.5v-0.5h6v0.5q0 0.5 0 1t-0.5 0.5-1 0-1 0-0.5 0.5 0 1 0 1-0.5 0.5-1 0-0.5 0.5 0 1 0 1 0.375 0.625 0.5 0.5-0.375 0.375-1 0h-0.5v-8.5" fill-opacity="0"/>
  <path d="m6 0.5v-0.5h3l0.125 0.375q0.125 0.375 0.5 0.5t0.5 0.5 0.5 0.5 0.5 0.5 0.5 0.5 0.375 0.625 0.5 0.5 0.5 0.5 0 1 0 1-0.5 0.5-0.875 0.125-0.5 0.5-0.625 0.375-0.875 0.125-0.5 0.5-0.125 0.875 0 1 0 1 0 1 0 1 0.375 0.375 0.5-0.5 0.625-0.375 0.875-0.125 0.5-0.5 0.625-0.375 0.875-0.125 0.5-0.5 0.625-0.375 0.625 0.375 0.5 0.5 0.875 0.125 0.625 0.375 0.5 0.5 0.875 0.125 0.625 0.375 0.5 0.5 0.375-0.375 0-1 0-1 0-1 0-1-0.125-0.875-0.5-0.5-0.875-0.125-0.625-0.375-0.5-0.5-0.875-0.125-0.5-0.5 0-1 0-1 0.5-0.5 0.5-0.5 0.375-0.625 0.5-0.5 0.5-0.5 0.5-0.5 0.5-0.5 0.5-0.5l0.125-0.375h3v0.5q0 0.5 0 1t0.5 0.5 1 0 1 0 0.5 0.5 0 1 0 1 0.5 0.5 1 0 0.5 0.5 0 1 0 1-0.375 0.625-0.5 0.5 0.375 0.375 0.5 0.5 0 1 0.5 0.5h0.5v1h-0.5q-0.5 0-0.5 0.5t0.5 0.5h0.5v1h-0.5q-0.5 0-0.5 0.5t0.5 0.5h0.5v1h-0.5q-0.5 0-0.5 0.5t0.5 0.5h0.5v1h-0.5q-0.5 0-0.5 0.5t0.5 0.5h0.5v1h-0.5q-0.5 0-0.5 0.5t0.5 0.5h0.5v1h-0.5q-0.5 0-0.5 0.5t-0.5 0.5-0.5 0.5-0.5 0.5-1 0-0.5 0.5 0 1-0.375 0.625-0.5 0.5-0.625 0.375-0.625-0.375-0.375-0.375-0.375 0.375-0.125 0.875-0.5 0.5-0.5 0.5-0.5 0.5-0.875 0.125-0.5 0.5-0.625 0.375-0.5 0.5v0.5h-7v-0.5q0-0.5-0.5-0.5t-0.625-0.375-0.5-0.5-0.875-0.125-0.5-0.5-0.5-0.5-0.5-0.5-0.125-0.875-0.375-0.375-0.375 0.375-0.625 0.375-0.625-0.375-0.5-0.5-0.375-0.625 0-1-0.5-0.5-1 0-0.5-0.5-0.5-0.5-0.5-0.5-0.5-0.5h-0.5v-1h0.5q0.5 0 0.5-0.5t-0.5-0.5h-0.5v-1h0.5q0.5 0 0.5-0.5t-0.5-0.5h-0.5v-1h0.5q0.5 0 0.5-0.5t-0.5-0.5h-0.5v-1h0.5q0.5 0 0.5-0.5t-0.5-0.5h-0.5v-1h0.5q0.5 0 0.5-0.5t-0.5-0.5h-0.5v-1h0.5q0.5 0 0.5-0.5t-0.5-0.5h-0.5v-1h0.5q0.5 0 1 0t0.375-0.375-0.5-0.5-0.375-0.625 0-1 0-1 0.5-0.5 1 0 0.5-0.5 0-1 0-1 0.5-0.5 1 0 1 0 0.5-0.5 0-1m-2.75 10q0 0.25 0.25 0.25t0.25-0.25-0.25-0.25-0.25 0.25m0 12q0 0.25 0.25 0.25t0.25-0.25-0.25-0.25-0.25 0.25m1.875 2.875q0.125 0.375 0.375 0.375t0.375-0.375 0.125-0.875 0-1 0.125-0.875 0.375-0.625 0.375-0.625 0-0.75-0.375-0.625-0.5-0.5-0.5-0.5-0.25-0.5 0.25-0.5 0.25-0.5-0.25-0.5-0.25-0.5 0.25-0.5 0.25-0.5-0.25-0.5-0.25-0.5 0.25-0.5 0.25-0.5-0.25-0.5-0.5-0.5-0.625-0.375-0.75 0-0.375 0.375 0.375 0.375 0.75 0.25 0.375 0.375-0.375 0.375-0.75 0.25-0.375 0.375 0.375 0.375 0.75 0.25 0.375 0.375-0.375 0.375-0.75 0.25-0.375 0.375 0.375 0.375 0.75 0.25 0.375 0.375-0.375 0.375-0.75 0.25-0.375 0.375 0.375 0.375 0.75 0.25 0.375 0.375-0.375 0.375-0.75 0.25-0.375 0.375 0.375 0.375 0.75 0 0.625-0.375 0.5-0.25 0.375 0.375 0 0.75-0.375 0.625-0.375 0.625-0.125 0.875 0 1 0.125 0.875m2-10q0.125 0.375 0.375 0.375t0.375-0.375 0.125-0.875 0-1 0-1 0-1 0-1 0-1 0.125-0.875 0.375-0.625 0.5-0.5 0.625-0.375 0.75-0.25 0.375-0.375-0.375-0.375-0.75 0-0.625 0.375-0.5 0.5-0.5 0.5-0.5 0.5-0.375 0.625-0.125 0.875 0 1 0 1 0 1 0 1 0 1 0.125 0.875m4.125-9.875q0 0.25 0.25 0.25t0.25-0.25-0.25-0.25-0.25 0.25m-1.625-0.625q0.375 0.125 0.75 0t0.5-0.5 0-0.75-0.375-0.625-0.5-0.5-0.5-0.5-0.5-0.5-0.5-0.25-0.5 0.25-0.5 0.5-0.25 0.5 0.25 0.5 0.5 0.5 0.5 0.5 0.5 0.5 0.625 0.375m-4.375 6.625q0 0.25 0.25 0.25t0.25-0.25-0.25-0.25-0.25 0.25m-0.625-1.625q0.375 0.125 0.75 0t0.5-0.5 0-0.75-0.375-0.625-0.5-0.5-0.5-0.5-0.5-0.5-0.5-0.25-0.5 0.25-0.5 0.5-0.25 0.5 0.25 0.5 0.5 0.5 0.5 0.5 0.5 0.5 0.625 0.375m2-3q0.375 0.125 0.75 0t0.5-0.5 0-0.75-0.375-0.625-0.5-0.5-0.5-0.5-0.5-0.5-0.5-0.25-0.5 0.25-0.5 0.5-0.25 0.5 0.25 0.5 0.5 0.5 0.5 0.5 0.5 0.5 0.625 0.375m8.875 23.125q0.5 0 0.875-0.125t0.625-0.375 0.625-0.375 0.75-0.25 0.625-0.375 0.5-0.5 0.5-0.5 0.5-0.5 0.5-0.5 0.5-0.5 0.375-0.625 0.0625-0.9375l-0.0625-0.5625-0.125 0.125 0.125-0.125q0.125-0.125 0.125-0.375v-0.25 0.75-0.5q0-0.5-0.125-0.875t-0.375-0.625-0.375-0.625-0.25-0.75-0.5-0.5-0.75 0-0.375 0.375 0.25 0.5 0.375 0.625 0.125 0.875 0 1v0.5-0.75 0.25q0 0.25 0.125 0.375l0.125 0.125-0.125-0.125-0.4375 0.1875q-0.4375 0.1875-0.5625 0.5625t-0.25 0.75-0.375 0.625-0.5 0.5-0.625 0.375-0.75 0.25-0.625 0.375-0.625 0.375-0.875 0.125-0.875-0.125-0.625-0.375-0.625-0.375-0.75-0.25-0.625-0.375-0.5-0.5-0.375-0.625-0.25-0.75-0.5625-0.5625l-0.4375-0.1875-0.125 0.125 0.125-0.125q0.125-0.125 0.125-0.375v-0.25 0.75-0.5q0-0.5 0-1t0.125-0.875 0.375-0.625 0.25-0.5-0.375-0.375-0.75 0-0.5 0.5-0.25 0.75-0.375 0.625-0.375 0.625-0.125 0.875v0.5-0.75 0.25q0 0.25 0.125 0.375l0.125 0.125-0.125-0.125-0.0625 0.5625q-0.0625 0.5625 0.0625 0.9375t0.375 0.625 0.5 0.5 0.5 0.5 0.5 0.5 0.5 0.5 0.5 0.5 0.625 0.375 0.75 0.25 0.625 0.375 0.625 0.375 0.875 0.125 1 0 1 0m5-11h0.5l0.375-0.125q0.375-0.125 0.375-0.375t-0.25-0.5-0.375-0.625l-0.25-0.75q-0.125-0.375-0.375-0.625t-0.5-0.5-0.5-0.5-0.5-0.5-0.625-0.375l-0.75-0.25q-0.375-0.125-0.625-0.375t-0.625-0.375l-0.75-0.25q-0.375-0.125-0.625-0.375t-0.5-0.25-0.5 0.25-0.625 0.375l-0.75 0.25q-0.375 0.125-0.625 0.375t-0.625 0.375l-0.75 0.25q-0.375 0.125-0.625 0.375t-0.5 0.5-0.5 0.5-0.5 0.5-0.375 0.625l-0.25 0.75q-0.125 0.375-0.375 0.625t-0.25 0.5 0.375 0.375l0.375 0.125h1.5q0.5 0 1 0h2q0.5 0 1 0h5q0.5 0 1 0h1m0.625-3.625q0.125 0.375 0.375 0.375t0.375-0.375 0.125-0.875 0-1 0-1 0-1 0-1 0-1-0.125-0.875-0.375-0.625-0.5-0.5-0.5-0.5-0.5-0.5-0.625-0.375-0.75 0-0.375 0.375 0.375 0.375 0.75 0.25 0.625 0.375 0.5 0.5 0.375 0.625 0.125 0.875 0 1 0 1 0 1 0 1 0 1 0.125 0.875m2.125-3.875q0 0.25 0.25 0.25t0.25-0.25-0.25-0.25-0.25 0.25m0.375-1.625q0.375 0.125 0.75 0t0.625-0.375 0.5-0.5 0.5-0.5 0.5-0.5 0.25-0.5-0.25-0.5-0.5-0.5-0.5-0.25-0.5 0.25-0.5 0.5-0.5 0.5-0.5 0.5-0.375 0.625 0 0.75 0.5 0.5m-2-3q0.375 0.125 0.75 0t0.625-0.375 0.5-0.5 0.5-0.5 0.5-0.5 0.25-0.5-0.25-0.5-0.5-0.5-0.5-0.25-0.5 0.25-0.5 0.5-0.5 0.5-0.5 0.5-0.375 0.625 0 0.75 0.5 0.5m-3-2q0.375 0.125 0.75 0t0.625-0.375 0.5-0.5 0.5-0.5 0.5-0.5 0.25-0.5-0.25-0.5-0.5-0.5-0.5-0.25-0.5 0.25-0.5 0.5-0.5 0.5-0.5 0.5-0.375 0.625 0 0.75 0.5 0.5m-4.125 22.125q0.5 0 0.875-0.125t0.625-0.375 0.625-0.375 0.75-0.25 0.375-0.375-0.375-0.375-0.75-0.25-0.625-0.375-0.5-0.5-0.375-0.625-0.125-0.875 0-1-0.125-0.875-0.375-0.375-0.375 0.375-0.125 0.875 0 1-0.125 0.875-0.375 0.625-0.5 0.5-0.625 0.375l-0.75 0.25q-0.375 0.125-0.375 0.375t0.375 0.375l0.75 0.25q0.375 0.125 0.625 0.375t0.625 0.375l0.375 0.125h0.5m3-3q0.5 0 0.875-0.125t0.5-0.5 0.125-0.875-0.125-0.875-0.5-0.5-0.875-0.125-0.875 0.125-0.5 0.5-0.125 0.875 0.125 0.875 0.5 0.5 0.875 0.125m-6 0q0.5 0 0.875-0.125t0.5-0.5 0.125-0.875-0.125-0.875-0.5-0.5-0.875-0.125-0.875 0.125-0.5 0.5-0.125 0.875 0.125 0.875 0.5 0.5 0.875 0.125m11.625 1.375q0.125 0.375 0.375 0.375t0.375-0.375 0.125-0.875 0-1-0.125-0.875-0.375-0.625-0.375-0.625-0.25-0.75-0.375-0.375-0.375 0.375 0 0.75 0.375 0.625 0.375 0.625 0.125 0.875 0 1 0.125 0.875m1.5-4.5q0.375 0.125 0.75 0t0.375-0.375-0.375-0.375-0.75-0.25-0.375-0.375 0.375-0.375 0.75-0.25 0.375-0.375-0.375-0.375-0.75-0.25-0.375-0.375 0.375-0.375 0.75-0.25 0.375-0.375-0.375-0.375-0.75-0.25-0.375-0.375 0.375-0.375 0.75-0.25 0.375-0.375-0.375-0.375-0.75-0.25-0.375-0.375 0.375-0.375 0.75-0.25 0.375-0.375-0.375-0.375-0.75 0-0.625 0.375-0.5 0.5-0.25 0.5 0.25 0.5 0.25 0.5-0.25 0.5-0.25 0.5 0.25 0.5 0.25 0.5-0.25 0.5-0.25 0.5 0.25 0.5 0.25 0.5-0.25 0.5-0.25 0.5 0.25 0.5 0.5 0.5 0.625 0.375m0.625-10.375q0 0.25 0.25 0.25t0.25-0.25-0.25-0.25-0.25 0.25m0 12q0 0.25 0.25 0.25t0.25-0.25-0.25-0.25-0.25 0.25m-8-17q0 0.25 0.25 0.25t0.25-0.25-0.25-0.25-0.25 0.25"/>
  <path d="m9.125 0.375-0.125-0.375h11l-0.125 0.375q-0.125 0.375-0.5 0.5t-0.5 0.5-0.5 0.5-0.5 0.5-0.5 0.5-0.375 0.625-0.5 0.5-0.5 0.5 0 1 0 1 0.5 0.5 0.875 0.125 0.5 0.5 0.625 0.375 0.875 0.125 0.5 0.5 0.125 0.875 0 1 0 1 0 1 0 1-0.375 0.375-0.5-0.5-0.625-0.375-0.875-0.125-0.5-0.5-0.625-0.375-0.875-0.125-0.5-0.5-0.625-0.375-0.625 0.375-0.5 0.5-0.875 0.125-0.625 0.375-0.5 0.5-0.875 0.125-0.625 0.375-0.5 0.5-0.375-0.375 0-1 0-1 0-1 0-1 0.125-0.875 0.5-0.5 0.875-0.125 0.625-0.375 0.5-0.5 0.875-0.125 0.5-0.5 0-1 0-1-0.5-0.5-0.5-0.5-0.375-0.625-0.5-0.5-0.5-0.5-0.5-0.5-0.5-0.5-0.5-0.5" fill-opacity="0"/>
  <path d="m23 0.5v-0.5h6v11h-0.5q-0.5 0-0.5-0.5t0-1-0.5-0.5-0.375-0.375 0.5-0.5 0.375-0.625 0-1 0-1-0.5-0.5-1 0-0.5-0.5 0-1 0-1-0.5-0.5-1 0-1 0-0.5-0.5 0-1" fill-opacity="0"/>
  <g>
   <path d="m8 1.5q0.25-0.25 0.5-0.25t0.5 0.25 0.5 0.5 0.5 0.5 0.5 0.5 0.375 0.625 0 0.75-0.5 0.5-0.75 0-0.625-0.375-0.5-0.5-0.5-0.5-0.5-0.5-0.25-0.5 0.25-0.5 0.5-0.5m0.25 1q0 0.25 0.25 0.25t0.25-0.25-0.25-0.25-0.25 0.25" fill="#fff"/>
   <path d="m20 1.5q0.25-0.25 0.5-0.25t0.5 0.25 0.5 0.5 0.25 0.5-0.25 0.5-0.5 0.5-0.5 0.5-0.5 0.5-0.625 0.375-0.75 0-0.5-0.5 0-0.75 0.375-0.625 0.5-0.5 0.5-0.5 0.5-0.5m0.25 1q0 0.25 0.25 0.25t0.25-0.25-0.25-0.25-0.25 0.25" fill="#fff"/>
   <path d="m8.25 2.5q0-0.25 0.25-0.25t0.25 0.25-0.25 0.25-0.25-0.25"/>
   <path d="m20.25 2.5q0-0.25 0.25-0.25t0.25 0.25-0.25 0.25-0.25-0.25"/>
   <path d="m5 3.5q0.25-0.25 0.5-0.25t0.5 0.25 0.5 0.5 0.5 0.5 0.5 0.5 0.375 0.625 0 0.75-0.5 0.5-0.75 0-0.625-0.375-0.5-0.5-0.5-0.5-0.5-0.5-0.25-0.5 0.25-0.5 0.5-0.5m0.25 1q0 0.25 0.25 0.25t0.25-0.25-0.25-0.25-0.25 0.25" fill="#fff"/>
   <path d="m23 3.5q0.25-0.25 0.5-0.25t0.5 0.25 0.5 0.5 0.25 0.5-0.25 0.5-0.5 0.5-0.5 0.5-0.5 0.5-0.625 0.375-0.75 0-0.5-0.5 0-0.75 0.375-0.625 0.5-0.5 0.5-0.5 0.5-0.5m0.25 1q0 0.25 0.25 0.25t0.25-0.25-0.25-0.25-0.25 0.25" fill="#fff"/>
   <path d="m5.25 4.5q0-0.25 0.25-0.25t0.25 0.25-0.25 0.25-0.25-0.25"/>
   <path d="m23.25 4.5q0-0.25 0.25-0.25t0.25 0.25-0.25 0.25-0.25-0.25"/>
   <path d="m11.25 5.5q0-0.25 0.25-0.25t0.25 0.25-0.25 0.25-0.25-0.25" fill="#dc143c"/>
   <path d="m17.25 5.5q0-0.25 0.25-0.25t0.25 0.25-0.25 0.25-0.25-0.25" fill="#dc143c"/>
   <path d="m3 6.5q0.25-0.25 0.5-0.25t0.5 0.25 0.5 0.5 0.5 0.5 0.5 0.5 0.375 0.625 0 0.75-0.5 0.5-0.75 0-0.625-0.375-0.5-0.5-0.5-0.5-0.5-0.5-0.25-0.5 0.25-0.5 0.5-0.5m0.25 1q0 0.25 0.25 0.25t0.25-0.25-0.25-0.25-0.25 0.25" fill="#fff"/>
   <path d="m9 6.5q0.25-0.25 0.625-0.375t0.75 0 0.375 0.375-0.375 0.375-0.75 0.25-0.625 0.375-0.5 0.5-0.375 0.625-0.125 0.875 0 1 0 1 0 1 0 1 0 1-0.125 0.875-0.375 0.375-0.375-0.375-0.125-0.875 0-1 0-1 0-1 0-1 0-1 0.125-0.875 0.375-0.625 0.5-0.5 0.5-0.5 0.5-0.5" fill="#dc143c"/>
   <path d="m18.25 6.5q0-0.25 0.375-0.375t0.75 0 0.625 0.375 0.5 0.5 0.5 0.5 0.5 0.5 0.375 0.625 0.125 0.875 0 1 0 1 0 1 0 1 0 1-0.125 0.875-0.375 0.375-0.375-0.375-0.125-0.875 0-1 0-1 0-1 0-1 0-1-0.125-0.875-0.375-0.625-0.5-0.5-0.625-0.375-0.75-0.25-0.375-0.375" fill="#dc143c"/>
   <path d="m25 6.5q0.25-0.25 0.5-0.25t0.5 0.25 0.5 0.5 0.25 0.5-0.25 0.5-0.5 0.5-0.5 0.5-0.5 0.5-0.625 0.375-0.75 0-0.5-0.5 0-0.75 0.375-0.625 0.5-0.5 0.5-0.5 0.5-0.5m0.25 1q0 0.25 0.25 0.25t0.25-0.25-0.25-0.25-0.25 0.25" fill="#fff"/>
   <path d="m3.25 7.5q0-0.25 0.25-0.25t0.25 0.25-0.25 0.25-0.25-0.25"/>
   <path d="m25.25 7.5q0-0.25 0.25-0.25t0.25 0.25-0.25 0.25-0.25-0.25"/>
  </g>
  <path d="m0 10.5v-0.5h0.5q0.5 0 0.5 0.5t-0.5 0.5h-0.5v-0.5" fill-opacity="0"/>
  <g fill="#fff">
   <path d="m3.25 10.5q0-0.25 0.25-0.25t0.25 0.25-0.25 0.25-0.25-0.25"/>
   <path d="m25.25 10.5q0-0.25 0.25-0.25t0.25 0.25-0.25 0.25-0.25-0.25"/>
   <path d="m5.25 11.5q0-0.25 0.25-0.25t0.25 0.25-0.25 0.25-0.25-0.25"/>
   <path d="m23.25 11.5q0-0.25 0.25-0.25t0.25 0.25-0.25 0.25-0.25-0.25"/>
  </g>
  <path d="m0 12.5v-0.5h0.5q0.5 0 0.5 0.5t-0.5 0.5h-0.5v-0.5" fill-opacity="0"/>
  <g>
   <path d="m3.25 12.5q0-0.25 0.375-0.375t0.75 0 0.625 0.375 0.5 0.5 0.25 0.5-0.25 0.5-0.25 0.5 0.25 0.5 0.25 0.5-0.25 0.5-0.25 0.5 0.25 0.5 0.25 0.5-0.25 0.5-0.25 0.5 0.25 0.5 0.5 0.5l0.25 0.25-0.53125 0.59375 0.09375 0.09375-0.09375-0.09375q-0.09375-0.09375-0.21875-0.09375h-0.125 0.375-0.25q-0.25 0-0.5 0.25t-0.625 0.375-0.75 0-0.375-0.375 0.375-0.375 0.75-0.25 0.375-0.375-0.375-0.375-0.75-0.25-0.375-0.375 0.375-0.375 0.75-0.25 0.375-0.375-0.375-0.375-0.75-0.25-0.375-0.375 0.375-0.375 0.75-0.25 0.375-0.375-0.375-0.375-0.75-0.25-0.375-0.375 0.375-0.375 0.75-0.25 0.375-0.375-0.375-0.375-0.75-0.25-0.375-0.375m3.0625 7.3125-0.4375-0.4375 0.125 0.125q0.125 0.125 0.25 0.25l0.125 0.125-0.0625-0.0625" fill="#fff"/>
   <path d="m14 12.5q0.25-0.25 0.5-0.25t0.5 0.25l0.25 0.25-0.375-0.375 0.125 0.125q0.125 0.125 0.28125 0.21875l0.15625 0.09375-0.15626-0.09374-0.26562 0.26562q-0.26562 0.26562-0.51562 0.26562h-0.25 0.375-0.125q-0.125 0-0.21875 0.09375l-0.09375 0.09375 0.09374-0.09374-0.28124-0.31251-0.28125-0.3125-0.15626 0.09374 0.15625-0.09375q0.15626-0.09374 0.28126-0.21874l0.125-0.125-0.375 0.375 0.25-0.25" fill="#9c9d97"/>
   <path d="m24 12.5q0.25-0.25 0.625-0.375t0.75 0 0.375 0.375-0.375 0.375-0.75 0.25-0.375 0.375 0.375 0.375 0.75 0.25 0.375 0.375-0.375 0.375-0.75 0.25-0.375 0.375 0.375 0.375 0.75 0.25 0.375 0.375-0.375 0.375-0.75 0.25-0.375 0.375 0.375 0.375 0.75 0.25 0.375 0.375-0.375 0.375-0.75 0.25-0.375 0.375 0.375 0.375 0.75 0.25 0.375 0.375-0.375 0.375-0.75 0-0.625-0.375-0.5-0.5-0.25-0.5 0.25-0.5 0.25-0.5-0.25-0.5-0.25-0.5 0.25-0.5 0.25-0.5-0.25-0.5-0.25-0.5 0.25-0.5 0.25-0.5-0.25-0.5-0.25-0.5 0.25-0.5 0.5-0.5" fill="#fff"/>
  </g>
  <path d="m28 12.5q0-0.5 0.5-0.5h0.5v1h-0.5q-0.5 0-0.5-0.5" fill-opacity="0"/>
  <g>
   <path d="m12 13.5q0.25-0.25 0.625-0.375l0.375-0.125v0.5q0 0.5 0 1t0 1 0 1-0.375 0.625l-0.375 0.125 0.5625-0.1875-0.1875 0.0625q-0.1875 0.0625-0.3125 0.1875l-0.125 0.125 0.125-0.125-0.59375-0.65625-0.09375 0.09375 0.09375-0.09375q0.09375-0.09375 0.15625-0.28125l0.0625-0.1875-0.1875 0.5625 0.125-0.375q0.125-0.375 0.125-0.875t0.125-0.875-0.14062-0.64062l-0.26562-0.26562-0.15626 0.09374 0.15625-0.09375q0.15626-0.09374 0.28126-0.21874l0.125-0.125-0.375 0.375 0.25-0.25" fill="#dadad8"/>
   <path d="m13 13.5v-0.5l0.75-0.25-0.5625 0.1875 0.1875-0.0625q0.1875-0.0625 0.34375-0.15625l0.15625-0.09375-0.15626 0.09374 0.5625 0.625 0.04687-0.04687 0.04689-0.04687-0.09375 0.09375q-0.09375 0.09375-0.15625 0.28125l-0.0625 0.1875 0.1875-0.5625-0.25 0.75v5h-0.5q-0.5 0-1 0h-0.5v-1l0.125-0.375q0.125-0.375 0.5-0.5t0.375-0.625 0-1 0-1 0-1" fill="#c4c6c5"/>
   <path d="m14.125 13.625q0.125-0.375 0.375-0.375t0.51562-0.26562l0.26562-0.26562-0.15625-0.09375 0.15625 0.09375q0.15625 0.09375 0.34375 0.15625l0.1875 0.0625-0.5625-0.1875 0.75 0.25v0.5q0 0.5 0 1t0 1 0 1v1q0 0.5 0 1v0.5h-1v-0.5q0-0.5-0.5-0.5h-0.5v-1h0.5q0.5 0 0.5-0.5t-0.5-0.5h-0.5v-1h0.5q0.5 0 0.5-0.5t-0.5-0.5h-0.5l0.125-0.375" fill="#b8b8b6"/>
   <path d="m16 13.5v-0.5l0.375 0.125q0.375 0.125 0.625 0.375t0.625 0.375l0.375 0.125v0.5q0 0.5 0 1t0 1v0.5h-0.5q-0.5 0-1 0h-0.5v-0.5q0-0.5 0-1t0-1 0-1" fill="#c4c6c5"/>
  </g>
  <path d="m0 14.5v-0.5h0.5q0.5 0 0.5 0.5t-0.5 0.5h-0.5v-0.5" fill-opacity="0"/>
  <g>
   <path d="m10 14.5q0.25-0.25 0.625-0.375l0.375-0.125v0.5q0 0.5 0 1t0.125 0.875l0.125 0.375-0.1875-0.5625 0.0625 0.1875q0.0625 0.1875 0.15625 0.28125l0.09375 0.09375-0.09375-0.09375-0.59375 0.65625 0.125 0.125-0.125-0.125q-0.125-0.125-0.3125-0.1875l-0.1875-0.0625 0.5625 0.1875-0.375-0.125q-0.375-0.125-0.875-0.125h-0.5l0.125-0.375q0.125-0.375-0.125-0.625l-0.25-0.25 0.25-0.25q0.25-0.25 0.5-0.5t0.5-0.5m-1.0625 1.0625-0.3125 0.3125 0.125-0.125q0.125-0.125 0.25-0.25l0.125-0.125-0.1875 0.1875" fill="#dadad8"/>
   <path d="m11 14.5v-0.5l0.75-0.25-0.5625 0.1875 0.1875-0.0625q0.1875-0.0625 0.34375-0.15625l0.15625-0.09375-0.15626 0.09374 0.26562 0.26562q0.26564 0.26564 0.14064 0.64064t-0.125 0.875-0.125 0.875-0.375 0.375-0.375-0.375-0.125-0.875 0-1" fill="#fff"/>
   <path d="m14 14.5v-0.5h0.5q0.5 0 0.5 0.5t-0.5 0.5h-0.5v-0.5" fill="#9c9d97"/>
   <path d="m18 14.5v-0.5l0.375 0.125q0.375 0.125 0.625 0.375t0.5 0.5 0.5 0.5l0.25 0.25-0.25 0.25q-0.25 0.25-0.125 0.625l0.125 0.375h-0.5q-0.5 0-1 0h-0.5v-0.5q0-0.5 0-1t0-1m2.3125 1.3125-0.4375-0.4375 0.125 0.125q0.125 0.125 0.25 0.25l0.125 0.125-0.0625-0.0625" fill="#b8b8b6"/>
  </g>
  <path d="m28 14.5q0-0.5 0.5-0.5h0.5v1h-0.5q-0.5 0-0.5-0.5" fill-opacity="0"/>
  <path d="m0 16.5v-0.5h0.5q0.5 0 0.5 0.5t-0.5 0.5h-0.5v-0.5" fill-opacity="0"/>
  <g>
   <path d="m8.125 16.625q0.125-0.375 0.375-0.625l0.25-0.25 0.25 0.25q0.25 0.25 0.125 0.625l-0.125 0.375h-1l0.125-0.375m0.6875-0.9375-0.4375 0.4375 0.125-0.125q0.125-0.125 0.25-0.25l0.125-0.125-0.0625 0.0625" fill="#d0d0d0"/>
   <path d="m14 16.5v-0.5h0.5q0.5 0 0.5 0.5t-0.5 0.5h-0.5v-0.5" fill="#9c9d97"/>
   <path d="m19.875 16.625q-0.125-0.375 0.125-0.625l0.25-0.25 0.25 0.25q0.25 0.25 0.375 0.625l0.125 0.375h-1l-0.125-0.375m0.5625-0.6875-0.3125-0.3125 0.125 0.125q0.125 0.125 0.25 0.25l0.125 0.125-0.1875-0.1875" fill="#a7aca8"/>
  </g>
  <path d="m28 16.5q0-0.5 0.5-0.5h0.5v1h-0.5q-0.5 0-0.5-0.5" fill-opacity="0"/>
  <g>
   <path d="m7.875 17.375 0.125-0.375h1v1l-0.375 0.125q-0.375 0.125-0.5 0.5l-0.125 0.375-0.375-0.125q-0.375-0.125-0.375-0.375t0.25-0.5 0.375-0.625" fill="#b8b8b6"/>
   <path d="m9 17.5v-0.5h0.5q0.5 0 0.875 0.125t0.5 0.5l0.125 0.375v1h-0.5q-0.5 0-1 0h-0.5v-1.5" fill="#c4c6c5"/>
   <path d="m10.875 17.625-0.125-0.375 0.1875 0.5625-0.0625-0.1875q-0.0625-0.1875-0.1875-0.3125l-0.125-0.125 0.125 0.125 0.59375-0.65625-0.09374-0.09374 0.09375 0.09375q0.09374 0.09374 0.21874 0.09374h0.125-0.375 0.5-0.375 0.125q0.125 0 0.21875-0.09375l0.09375-0.09375-0.09374 0.09374 0.59375 0.65625 0.125-0.125-0.125 0.125q-0.125 0.125-0.1875 0.3125l-0.06251 0.18751 0.1875-0.5625-0.25 0.75h-1l-0.125-0.375" fill="#d0d0d0"/>
   <path d="m16 17.5v-0.5h0.5q0.5 0 1 0h0.5v1h-0.5q-0.5 0-0.5 0.5v0.5h-1v-0.5q0-0.5 0-1" fill="#a7aca8"/>
   <path d="m18 17.5v-0.5h0.5q0.5 0 1 0h0.5v2h-0.5q-0.5 0-1 0h-0.5v-1.5" fill="#9c9d97"/>
   <path d="m20 17.5v-0.5h1l0.125 0.375q0.125 0.375 0.375 0.625t0.25 0.5-0.375 0.375l-0.375 0.125-0.125-0.375q-0.125-0.375-0.5-0.5l-0.375-0.125v-0.5" fill="#91908b"/>
  </g>
  <path d="m0 18.5v-0.5h0.5q0.5 0 0.5 0.5t-0.5 0.5h-0.5v-0.5" fill-opacity="0"/>
  <g>
   <path d="m8.125 18.625q0.125-0.375 0.5-0.5l0.375-0.125v1h-1l0.125-0.375" fill="#9c9d97"/>
   <path d="m11 18.5v-0.5h1v1h-1v-0.5" fill="#b8b8b6"/>
   <path d="m14 18.5v-0.5h0.5q0.5 0 0.5 0.5v0.5h-1v-0.5" fill="#9c9d97"/>
   <path d="m17 18.5q0-0.5 0.5-0.5h0.5v1h-1v-0.5" fill="#91908b"/>
   <path d="m20 18.5v-0.5l0.375 0.125q0.375 0.125 0.5 0.5l0.125 0.375h-1v-0.5" fill="#7a7b73"/>
  </g>
  <path d="m28 18.5q0-0.5 0.5-0.5h0.5v1h-0.5q-0.5 0-0.5-0.5" fill-opacity="0"/>
  <path d="m0 20.5v-0.5h0.5q0.5 0 0.5 0.5t-0.5 0.5h-0.5v-0.5" fill-opacity="0"/>
  <g>
   <path d="m5.875 20.625-0.125-0.375 0.1875 0.5625-0.0625-0.1875q-0.0625-0.1875-0.15625-0.28125l-0.09375-0.09375 0.09375 0.09375 0.53125-0.59375 0.25 0.25q0.25 0.25 0.375 0.625t0 0.75-0.375 0.625-0.375 0.625-0.125 0.875 0 1-0.125 0.875-0.375 0.375-0.375-0.375-0.125-0.875 0-1 0.125-0.875 0.375-0.625 0.375-0.625 0-0.75m0.5625-0.6875-0.3125-0.3125 0.125 0.125q0.125 0.125 0.25 0.25l0.125 0.125-0.1875-0.1875" fill="#dadad8"/>
   <path d="m8.125 20.625q0.125-0.375 0.5-0.5t0.75 0 0.375 0.375-0.25 0.5-0.375 0.625-0.125 0.875 0 1-0.5 0.5-1 0-0.5-0.5 0.125-0.875 0.375-0.625 0.375-0.625 0.25-0.75" fill="#fff"/>
   <path d="m14.125 20.625q0.125-0.375 0.375-0.375t0.375 0.375 0.125 0.875 0 1 0.125 0.875 0.375 0.625 0.5 0.5l0.25 0.25-0.375-0.375 0.125 0.125q0.125 0.125 0.28125 0.21875l0.15625 0.09375-0.15626-0.09374-0.26562 0.26562q-0.26562 0.26562-0.26562 0.51562t0.26562 0.51562l0.26562 0.26562 0.15626-0.09374-0.15625 0.09375q-0.15626 0.09374-0.28126 0.21874l-0.125 0.125 0.375-0.375-0.25 0.25q-0.25 0.25-0.625 0.375t-0.875 0.125h-0.5v-0.5q0-0.5 0-1t0.125-0.875-0.14062-0.64062l-0.26562-0.26562-0.09375 0.15625 0.09375-0.15625q0.09375-0.15625 0.15625-0.34375l0.0625-0.1875-0.1875 0.5625 0.125-0.375q0.125-0.375 0.125-0.875t0-1 0.125-0.875" fill="#d0d0d0"/>
   <path d="m19.25 20.5q0-0.25 0.375-0.375t0.75 0 0.5 0.5 0.25 0.75 0.375 0.625 0.375 0.625 0.125 0.875-0.5 0.5-1 0-0.5-0.5 0-1-0.125-0.875-0.375-0.625-0.25-0.5" fill="#fff"/>
   <path d="m22.125 20.625q0.125-0.375 0.375-0.375t0.375 0.375 0.25 0.75 0.375 0.625 0.375 0.625 0.125 0.875 0 1-0.125 0.875-0.375 0.375-0.375-0.375-0.125-0.875 0-1-0.125-0.875-0.375-0.625-0.375-0.625 0-0.75" fill="#b8b8b6"/>
  </g>
  <path d="m28 20.5q0-0.5 0.5-0.5h0.5v1h-0.5q-0.5 0-0.5-0.5" fill-opacity="0"/>
  <path d="m10.125 21.625q0.125-0.375 0.5-0.5t0.875-0.125 0.875 0.125 0.5 0.5 0.125 0.875-0.125 0.875-0.5 0.5-0.875 0.125-0.875-0.125-0.5-0.5-0.125-0.875 0.125-0.875" fill="#fff"/>
  <path d="m16.125 21.625q0.125-0.375 0.5-0.5t0.875-0.125 0.875 0.125 0.5 0.5 0.125 0.875-0.125 0.875-0.5 0.5-0.875 0.125-0.875-0.125-0.5-0.5-0.125-0.875 0.125-0.875" fill="#fff"/>
  <path d="m0 22.5v-0.5h0.5q0.5 0 0.5 0.5t0.5 0.5 0.5 0.5 0.5 0.5 1 0 0.5 0.5 0 1 0.375 0.625 0.5 0.5 0.625 0.375 0.625-0.375 0.375-0.375 0.375 0.375 0.125 0.875 0.5 0.5 0.5 0.5 0.5 0.5 0.875 0.125 0.5 0.5 0.625 0.375 0.5 0.5v0.5h-11v-8.5" fill-opacity="0"/>
  <path d="m3.25 22.5q0-0.25 0.25-0.25t0.25 0.25-0.25 0.25-0.25-0.25" fill="#fff"/>
  <path d="m25.25 22.5q0-0.25 0.25-0.25t0.25 0.25-0.25 0.25-0.25-0.25" fill="#fff"/>
  <path d="m28 22.5q0-0.5 0.5-0.5h0.5v9h-11v-0.5q0-0.5 0.5-0.5t0.625-0.375 0.5-0.5 0.875-0.125 0.5-0.5 0.5-0.5 0.5-0.5 0.125-0.875 0.375-0.375 0.375 0.375 0.625 0.375 0.625-0.375 0.5-0.5 0.375-0.625 0-1 0.5-0.5 1 0 0.5-0.5 0.5-0.5 0.5-0.5" fill-opacity="0"/>
  <g>
   <path d="m7.0625 24.438 0.0625-0.5625-0.125-0.125 0.125 0.125q0.125 0.125 0.375 0.125h0.25-0.75 0.5q0.5 0 1 0h0.5-0.75 0.25q0.25 0 0.375-0.125l0.125-0.125-0.125 0.125 0.4375 0.1875q0.4375 0.1875 0.5625 0.5625t0.25 0.75 0.375 0.625 0.5 0.5 0.625 0.375 0.75 0.25 0.625 0.375 0.625 0.375 0.875 0.125 0.875-0.125 0.625-0.375 0.625-0.375 0.75-0.25 0.625-0.375 0.5-0.5 0.375-0.625 0.25-0.75 0.5625-0.5625l0.4375-0.1875-0.125-0.125 0.125 0.125q0.125 0.125 0.375 0.125h0.25-0.75 0.5q0.5 0 1 0h0.5-0.75 0.25q0.25 0 0.375-0.125l0.125-0.125-0.125 0.125 0.0625 0.5625q0.0625 0.5625-0.0625 0.9375t-0.375 0.625-0.5 0.5-0.5 0.5-0.5 0.5-0.5 0.5-0.5 0.5-0.625 0.375-0.75 0.25-0.625 0.375-0.625 0.375-0.875 0.125-1 0-1 0-0.875-0.125-0.625-0.375-0.625-0.375-0.75-0.25-0.625-0.375-0.5-0.5-0.5-0.5-0.5-0.5-0.5-0.5-0.5-0.5-0.375-0.625-0.0625-0.9375" fill="#dc143c"/>
   <path d="m13 24.5q0.25-0.25 0.5-0.5l0.25-0.25-0.375 0.375 0.125-0.125q0.125-0.125 0.21875-0.28125l0.09375-0.15625-0.09374 0.15626 0.26562 0.26562q0.26562 0.26562 0.14062 0.64062t-0.125 0.875 0 1v0.5l-0.375-0.125q-0.375-0.125-0.625-0.375t-0.625-0.375l-0.375-0.125v-1l0.375-0.125q0.375-0.125 0.625-0.375" fill="#dadad8"/>
   <path d="m11.25 25.5q0-0.25 0.375-0.375l0.375-0.125v1l-0.375-0.125q-0.375-0.125-0.375-0.375" fill="#fff"/>
   <path d="m15.75 25.5q0-0.25 0.26562-0.51562l0.26562-0.26562-0.15625-0.09375 0.15625 0.09375q0.15625 0.09375 0.34375 0.15625l0.1875 0.0625-0.5625-0.1875 0.375 0.125q0.375 0.125 0.75 0.25t0.375 0.375-0.375 0.375-0.75 0.25l-0.375 0.125 0.5625-0.1875-0.1875 0.0625q-0.1875 0.0625-0.34375 0.15625l-0.15625 0.09375 0.15626-0.09374-0.26562-0.26562q-0.26564-0.26564-0.26564-0.51564" fill="#c4c6c5"/>
  </g>
 </g>
</svg>
