<svg width="17" height="14" version="1.1" viewBox="0 0 17 14" xmlns="http://www.w3.org/2000/svg">
 <g transform="translate(0)">
  <path d="m0 0.5v-0.5h5l-0.125 0.375q-0.125 0.375-0.5 0.5t-0.5 0.5-0.5 0.5-0.875 0.125-0.625 0.375-0.5 0.5-0.375 0.625-0.125 0.875-0.5 0.5l-0.375 0.125v-4.5" fill-opacity="0"/>
  <path d="m4.875 0.375 0.125-0.375h7l0.125 0.375q0.125 0.375 0.5 0.5t0.5 0.5 0.5 0.5 0.875 0.125 0.625 0.375 0.5 0.5 0.375 0.625 0.125 0.875 0.5 0.5l0.375 0.125v4l-0.375 0.125q-0.375 0.125-0.5 0.5t-0.125 0.875-0.5 0.5-0.5 0.5-0.5 0.5-0.875 0.125-0.5 0.5-0.625 0.375-0.5 0.5v0.5h-7v-0.5q0-0.5-0.5-0.5t-0.625-0.375-0.5-0.5-0.875-0.125-0.5-0.5-0.5-0.5-0.5-0.5-0.125-0.875-0.5-0.5l-0.375-0.125v-4l0.375-0.125q0.375-0.125 0.5-0.5t0.125-0.875 0.375-0.625 0.5-0.5 0.625-0.375 0.875-0.125 0.5-0.5 0.5-0.5 0.5-0.5m4.625 12.625q0.5 0 0.875-0.125t0.625-0.375 0.625-0.375 0.75-0.25 0.625-0.375 0.5-0.5 0.5-0.5 0.5-0.5 0.5-0.5 0.5-0.5 0.375-0.625 0.125-0.875 0-1-0.125-0.875-0.5-0.5-0.375-0.625-0.125-0.875-0.5-0.5-0.75 0-0.375 0.375 0.375 0.375l0.375 0.125v1.5q0 0.5 0 1v0.5l-0.375 0.125q-0.375 0.125-0.5 0.5l-0.125 0.375h-3l-0.125-0.375q-0.125-0.375-0.5-0.5l-0.375-0.125v-3l0.375-0.125q0.375-0.125 0.5-0.5l0.125-0.375h1.5q0.5 0 0.875-0.125t0.375-0.375-0.375-0.375-0.5-0.5-0.5-0.5-0.875-0.125-1 0-1 0-1 0-1 0-0.875 0.125-0.5 0.5-0.5 0.5-0.375 0.375 0.375 0.375 0.875 0.125h1.5l0.125 0.375q0.125 0.375 0.5 0.5l0.375 0.125v3l-0.375 0.125q-0.375 0.125-0.5 0.5l-0.125 0.375h-3l-0.125-0.375q-0.125-0.375-0.5-0.5l-0.375-0.125v-0.5q0-0.5 0-1v-1.5l0.375-0.125q0.375-0.125 0.375-0.375t-0.375-0.375-0.75 0-0.5 0.5-0.125 0.875-0.375 0.625-0.5 0.5-0.125 0.875 0 1 0.125 0.875 0.375 0.625 0.5 0.5 0.5 0.5 0.5 0.5 0.5 0.5 0.5 0.5 0.625 0.375 0.75 0.25 0.625 0.375 0.625 0.375 0.875 0.125 1 0 1 0m2-6q0.5 0 0.875-0.125t0.5-0.5 0.125-0.875-0.125-0.875-0.5-0.5-0.875-0.125-0.875 0.125-0.5 0.5-0.125 0.875 0.125 0.875 0.5 0.5 0.875 0.125m-6 0q0.5 0 0.875-0.125t0.5-0.5 0.125-0.875-0.125-0.875-0.5-0.5-0.875-0.125-0.875 0.125-0.5 0.5-0.125 0.875 0.125 0.875 0.5 0.5 0.875 0.125"/>
  <path d="m12.125 0.375-0.125-0.375h5v5l-0.375-0.125q-0.375-0.125-0.5-0.5t-0.125-0.875-0.375-0.625-0.5-0.5-0.625-0.375-0.875-0.125-0.5-0.5-0.5-0.5-0.5-0.5" fill-opacity="0"/>
  <g>
   <path d="m5.125 1.625q0.125-0.375 0.5-0.5l0.375-0.125-0.5625 0.1875 0.1875-0.0625q0.1875-0.0625 0.40625-0.09375l0.21875-0.03125-0.21875 0.03125-0.03125 0.96875-1.0625-0.0625-0.125 0.125 0.125-0.125q0.125-0.125 0.1875-0.3125l0.0625-0.1875-0.1875 0.5625 0.125-0.375m0.5 0.375h0.625-0.25q-0.25 0-0.5 0h-0.25 0.375" fill="#a1a6ff"/>
   <path d="m6.0156 1.5156 0.015625-0.48438-0.21875 0.03125 0.21875-0.03125q0.21875-0.03125 0.46875-0.03125h0.25-0.75 1v1h-1l0.015625-0.48438m-0.14062 0.48438h0.875-0.25q-0.25 0-0.5 0h-0.25 0.125m1.25-1h-0.875 0.25q0.25 0 0.5 0h0.25-0.125" fill="#bdc1ff"/>
   <path d="m7 1.5v-0.5h1v1h-1v-0.5m1.125-0.5h-0.875 0.25q0.25 0 0.5 0h0.25-0.125m-0.75 0h-0.625 0.25q0.25 0 0.5 0h0.25-0.375" fill="#d9dcff"/>
   <path d="m8 1.5v-0.5h1v1h-1v-0.5m1.125-0.5h-0.875 0.25q0.25 0 0.5 0h0.25-0.125m-0.75 0h-0.625 0.25q0.25 0 0.5 0h0.25-0.375" fill="#fff"/>
   <path d="m9 1.5v-0.5h1v1h-1v-0.5m1.125-0.5h-0.875 0.25q0.25 0 0.5 0h0.25-0.125m-0.75 0h-0.625 0.25q0.25 0 0.5 0h0.25-0.375" fill="#d9dcff"/>
   <path d="m10 1.5v-0.5h1-0.75 0.25q0.25 0 0.46875 0.03125l0.21875 0.03125-0.21875-0.03125 0.03125 0.96875h-1v-0.5m0.625 0.5h0.625-0.25q-0.25 0-0.5 0h-0.25 0.375m-0.25-1h-0.625 0.25q0.25 0 0.5 0h0.25-0.375" fill="#bdc1ff"/>
   <path d="m10.984 1.5156-0.015625-0.48438-0.21875-0.03125 0.21875 0.03125q0.21875 0.03125 0.40625 0.09375l0.1875 0.0625-0.5625-0.1875 0.375 0.125q0.375 0.125 0.5 0.5l0.125 0.375-0.1875-0.5625 0.0625 0.1875q0.0625 0.1875 0.1875 0.3125l0.125 0.125-0.125-0.125-1.0625 0.0625-0.015625-0.48438m-0.10938 0.48438h0.875-0.25q-0.25 0-0.5 0h-0.25 0.125" fill="#a1a6ff"/>
   <path d="m4.25 2.5q0-0.25 0.375-0.375l0.375-0.125-0.5625 0.1875 0.1875-0.0625q0.1875-0.0625 0.3125-0.1875l0.125-0.125-0.125 0.125 1.0625 0.0625v1h-0.5q-0.5 0-0.875-0.125t-0.375-0.375" fill="#5c62ff"/>
   <path d="m6 2.5v-0.5h1v1h-1v-0.5" fill="#5b62ff"/>
   <path d="m7 2.5v-0.5h1l0.25 0.75-0.1875-0.5625 0.0625 0.1875q0.0625 0.1875 0.15625 0.28125l0.09375 0.09375-0.09375-0.09375-0.59375 0.65625 0.125 0.125-0.125-0.125q-0.125-0.125-0.3125-0.1875l-0.1875-0.0625 0.5625 0.1875-0.75-0.25v-0.5" fill="#878dff"/>
   <path d="m8.125 2.375-0.125-0.375h1l-0.125 0.375q-0.125 0.375-0.375 0.375t-0.375-0.375" fill="#bdc1ff"/>
   <path d="m8.875 2.375 0.125-0.375h1v1l-0.75 0.25 0.5625-0.1875-0.1875 0.0625q-0.1875 0.0625-0.3125 0.1875l-0.125 0.125 0.125-0.125-0.59375-0.65625-0.09375 0.09375 0.09375-0.09375q0.09375-0.09375 0.15625-0.28125l0.0625-0.1875-0.1875 0.5625 0.125-0.375" fill="#878dff"/>
   <path d="m10 2.5v-0.5h1v1h-1v-0.5" fill="#5b62ff"/>
   <path d="m11 2.5v-0.5l1.0625-0.0625-0.125-0.125 0.125 0.125q0.125 0.125 0.3125 0.1875l0.1875 0.0625-0.5625-0.1875 0.375 0.125q0.375 0.125 0.375 0.375t-0.375 0.375-0.875 0.125h-0.5v-0.5" fill="#5c62ff"/>
   <path d="m2.125 3.625q0.125-0.375 0.5-0.5l0.375-0.125-0.5625 0.1875 0.1875-0.0625q0.1875-0.0625 0.375-0.0625h0.1875-0.1875v0.9375l-0.96875 0.03125-0.03125 0.21875 0.03125-0.21875q0.03125-0.21875 0.09375-0.40625l0.0625-0.1875-0.1875 0.5625 0.125-0.375" fill="#878dff"/>
   <path d="m3 3.5312v-0.46875h-0.1875 0.1875q0.1875 0 0.375 0.0625l0.1875 0.0625-0.5625-0.1875 0.375 0.125q0.375 0.125 0.375 0.375t-0.375 0.375l-0.375 0.125v-0.46875" fill="#4950ff"/>
   <path d="M 7.125,3.375 7,3 7.375,3.125 q 0.375,0.125 0.5,0.5 L 8,4 7.625,3.875 Q 7.25,3.75 7.125,3.375" fill="#4950ff"/>
   <path d="m7.875 3.625-0.125-0.375 0.1875 0.5625-0.0625-0.1875q-0.0625-0.1875-0.1875-0.3125l-0.125-0.125 0.125 0.125 0.59375-0.65625-0.09375-0.09375 0.09375 0.09375q0.09375 0.09375 0.21875 0.09375h0.125-0.375 0.5-0.375 0.125q0.125 0 0.21875-0.09375l0.09375-0.09375-0.09375 0.09375 0.59375 0.65625 0.125-0.125-0.125 0.125q-0.125 0.125-0.1875 0.3125l-0.0625 0.1875 0.1875-0.5625-0.25 0.75h-1l-0.125-0.375" fill="#888dff"/>
   <path d="M 9.125,3.625 Q 9.25,3.25 9.625,3.125 L 10,3 9.875,3.375 Q 9.75,3.75 9.375,3.875 L 9,4 9.125,3.625" fill="#4950ff"/>
   <path d="m13.25 3.5q0-0.25 0.375-0.375l0.375-0.125-0.5625 0.1875 0.1875-0.0625q0.1875-0.0625 0.375-0.0625h0.1875-0.1875v0.9375l-0.375-0.125q-0.375-0.125-0.375-0.375" fill="#4950ff"/>
   <path d="m14 3.5312v-0.46875h-0.1875 0.1875q0.1875 0 0.375 0.0625l0.1875 0.0625-0.5625-0.1875 0.375 0.125q0.375 0.125 0.5 0.5l0.125 0.375-0.1875-0.5625 0.0625 0.1875q0.0625 0.1875 0.09375 0.40625l0.03125 0.21875-0.03125-0.21875-0.96875-0.03125v-0.46875" fill="#878dff"/>
   <path d="m2 4.5v-0.5 0.75-0.25q0-0.25 0.03125-0.46875l0.03125-0.21875-0.03125 0.21875 0.96875-0.03125v1l-1.0938-0.09375-0.09375 0.15625 0.09375-0.15625q0.09375-0.15625 0.09375-0.40625v-0.25 0.75-0.5" fill="#5b62ff"/>
   <path d="m4.125 4.625q0.125-0.375 0.5-0.5t0.875-0.125 0.875 0.125 0.5 0.5 0.125 0.875-0.125 0.875-0.5 0.5-0.875 0.125-0.875-0.125-0.5-0.5-0.125-0.875 0.125-0.875" fill="#fff"/>
   <path d="m8 4.5v-0.5h1v1h-1v-0.5" fill="#5d63ff"/>
   <path d="m10.125 4.625q0.125-0.375 0.5-0.5t0.875-0.125 0.875 0.125 0.5 0.5 0.125 0.875-0.125 0.875-0.5 0.5-0.875 0.125-0.875-0.125-0.5-0.5-0.125-0.875 0.125-0.875" fill="#fff"/>
   <path d="m14 4.5v-0.5l0.96875 0.03125-0.03125-0.21875 0.03125 0.21875q0.03125 0.21875 0.03125 0.46875v0.25-0.75 1-0.75 0.25q0 0.25 0.09375 0.40625l0.09375 0.15625-0.09375-0.15625-1.0938 0.09375v-0.5" fill="#5b62ff"/>
   <path d="m1.125 5.625q0.125-0.375 0.5-0.5l0.375-0.125-0.5625 0.1875 0.1875-0.0625q0.1875-0.0625 0.28125-0.21875l0.09375-0.15625-0.09375 0.15625 0.09375 1.0938-0.96875 0.03125-0.03125 0.21875 0.03125-0.21875q0.03125-0.21875 0.09375-0.40625l0.0625-0.1875-0.1875 0.5625 0.125-0.375m0.875 0.5v-0.875 0.25q0 0.25 0 0.5v0.25-0.125" fill="#a1a6ff"/>
   <path d="m1.9531 5.4531-0.046875-0.54688 1.0938 0.09375v0.5q0 0.5 0 1v0.5h-1v-0.5q0-0.5-0.046875-1.0469" fill="#5c63ff"/>
   <path d="m8 5.5v-0.5h1v1h-1v-0.5" fill="#5c62ff"/>
   <path d="m14 5.5v-0.5l1.0938-0.09375-0.046875 0.54688q-0.046875 0.54688-0.046875 1.0469v0.5h-1v-0.5q0-0.5 0-1" fill="#5c63ff"/>
   <path d="m15.047 5.4531 0.046875-0.54688-0.09375-0.15625 0.09375 0.15625q0.09375 0.15625 0.28125 0.21875l0.1875 0.0625-0.5625-0.1875 0.375 0.125q0.375 0.125 0.5 0.5l0.125 0.375-0.1875-0.5625 0.0625 0.1875q0.0625 0.1875 0.09375 0.40625l0.03125 0.21875-0.03125-0.21875-0.96875-0.03125 0.046875-0.54688m-0.046875 0.17188v0.625-0.25q0-0.25 0-0.5v-0.25 0.375" fill="#a1a6ff"/>
   <path d="m1 6.5v-0.5 0.75-0.25q0-0.25 0.03125-0.46875l0.03125-0.21875-0.03125 0.21875 0.96875-0.03125v1h-1v-0.5m0 0.125v0.625-0.25q0-0.25 0-0.5v-0.25 0.375m1-0.25v-0.625 0.25q0 0.25 0 0.5v0.25-0.375" fill="#bdc1ff"/>
   <path d="m8 6.5v-0.5h1v1h-1v-0.5" fill="#5c63ff"/>
   <path d="m15 6.5v-0.5l0.96875 0.03125-0.03125-0.21875 0.03125 0.21875q0.03125 0.21875 0.03125 0.46875v0.25-0.75 1h-1v-0.5m1 0.625v-0.875 0.25q0 0.25 0 0.5v0.25-0.125m-1-1.25v0.875-0.25q0-0.25 0-0.5v-0.25 0.125" fill="#bdc1ff"/>
   <path d="m1 7.5v-0.5h1v1l-0.96875-0.03125 0.03125 0.21875-0.03125-0.21875q-0.03125-0.21875-0.03125-0.46875v-0.25 0.75-0.5m0-0.625v0.875-0.25q0-0.25 0-0.5v-0.25 0.125" fill="#d9dcff"/>
   <path d="m2 7.5v-0.5h1l0.125 0.375q0.125 0.375 0.5 0.5l0.375 0.125v1h-1l-0.125-0.375q-0.125-0.375-0.5-0.5l-0.375-0.125v-0.5" fill="#878dff"/>
   <path d="M 3.125,7.375 3,7 3.375,7.125 q 0.375,0.125 0.5,0.5 L 4,8 3.625,7.875 Q 3.25,7.75 3.125,7.375" fill="#4a51ff"/>
   <path d="M 7.125,7.625 Q 7.25,7.25 7.625,7.125 L 8,7 7.875,7.375 Q 7.75,7.75 7.375,7.875 L 7,8 7.125,7.625" fill="#4a51ff"/>
   <path d="m7.875 7.375 0.125-0.375h1l0.25 0.75-0.1875-0.5625 0.0625 0.1875q0.0625 0.1875 0.1875 0.3125l0.125 0.125-0.125-0.125-0.59375 0.65625 0.09375 0.09375-0.09375-0.09375q-0.09375-0.09375-0.21875-0.09375h-0.125 0.375-0.5 0.375-0.125q-0.125 0-0.21875 0.09375l-0.09375 0.09375 0.09375-0.09375-0.59375-0.65625-0.125 0.125 0.125-0.125q0.125-0.125 0.1875-0.3125l0.0625-0.1875-0.1875 0.5625 0.125-0.375" fill="#888dff"/>
   <path d="M 9.125,7.375 9,7 9.375,7.125 q 0.375,0.125 0.5,0.5 L 10,8 9.625,7.875 Q 9.25,7.75 9.125,7.375" fill="#4a51ff"/>
   <path d="m 13.125,7.625 q 0.125,-0.375 0.5,-0.5 L 14,7 13.875,7.375 q -0.125,0.375 -0.5,0.5 L 13,8 13.125,7.625" fill="#4a51ff"/>
   <path d="m13.875 7.375 0.125-0.375h1v1l-0.375 0.125q-0.375 0.125-0.5 0.5l-0.125 0.375h-1v-1l0.375-0.125q0.375-0.125 0.5-0.5" fill="#878dff"/>
   <path d="m15 7.5v-0.5h1v1-0.75 0.25q0 0.25-0.03125 0.46875l-0.03125 0.21875 0.03125-0.21875-0.96875 0.03125v-0.5m1-0.125v-0.625 0.25q0 0.25 0 0.5v0.25-0.375" fill="#d9dcff"/>
   <path d="m1.125 8.375-0.125-0.375 0.1875 0.5625-0.0625-0.1875q-0.0625-0.1875-0.09375-0.40625l-0.03125-0.21875 0.03125 0.21875 0.96875 0.03125 0.125 0.375q0.125 0.375 0.5 0.5l0.375 0.125 0.125 0.375q0.125 0.375 0.5 0.5t0.875 0.125 1 0 1 0 0.875-0.125 0.5-0.5l0.125-0.375h1l0.125 0.375q0.125 0.375 0.5 0.5t0.875 0.125 1 0 1 0 0.875-0.125 0.5-0.5l0.125-0.375 0.375-0.125q0.375-0.125 0.5-0.5l0.125-0.375 0.96875-0.03125 0.03125-0.21875-0.03125 0.21875q-0.03125 0.21875-0.09375 0.40625l-0.0625 0.1875 0.1875-0.5625-0.125 0.375q-0.125 0.375-0.375 0.625t-0.5 0.5-0.5 0.5-0.5 0.5-0.5 0.5-0.5 0.5-0.625 0.375-0.75 0.25-0.625 0.375-0.625 0.375-0.875 0.125-1 0-1 0-0.875-0.125-0.625-0.375-0.625-0.375-0.75-0.25-0.625-0.375-0.5-0.5-0.5-0.5-0.5-0.5-0.5-0.5-0.5-0.5-0.375-0.625" fill="#fff"/>
   <path d="M 2.125,8.375 2,8 2.375,8.125 q 0.375,0.125 0.5,0.5 L 3,9 2.625,8.875 Q 2.25,8.75 2.125,8.375" fill="#bcc1ff"/>
   <path d="m4 8.5v-0.5h1v1h-1v-0.5" fill="#5c62ff"/>
   <path d="m5 8.5v-0.5h1v1h-1v-0.5" fill="#5d63ff"/>
   <path d="m6 8.5v-0.5h1v1h-1v-0.5" fill="#5b62ff"/>
   <path d="m7 8.5v-0.5l0.75-0.25-0.5625 0.1875 0.1875-0.0625q0.1875-0.0625 0.3125-0.1875l0.125-0.125-0.125 0.125 0.59375 0.65625 0.09375-0.09375-0.09375 0.09375q-0.09375 0.09375-0.15625 0.28125l-0.0625 0.1875 0.1875-0.5625-0.25 0.75h-1v-0.5" fill="#878dff"/>
   <path d="m8.125 8.625q0.125-0.375 0.375-0.375t0.375 0.375l0.125 0.375h-1l0.125-0.375" fill="#bdc1ff"/>
   <path d="m8.875 8.625-0.125-0.375 0.1875 0.5625-0.0625-0.1875q-0.0625-0.1875-0.15625-0.28125l-0.09375-0.09375 0.09375 0.09375 0.59375-0.65625-0.125-0.125 0.125 0.125q0.125 0.125 0.3125 0.1875l0.1875 0.0625-0.5625-0.1875 0.75 0.25v1h-1l-0.125-0.375" fill="#878dff"/>
   <path d="m10 8.5v-0.5h1v1h-1v-0.5" fill="#5b62ff"/>
   <path d="m11 8.5v-0.5h1v1h-1v-0.5" fill="#5d63ff"/>
   <path d="m12 8.5v-0.5h1v1h-1v-0.5" fill="#5c62ff"/>
   <path d="m 14.125,8.625 q 0.125,-0.375 0.5,-0.5 L 15,8 14.875,8.375 q -0.125,0.375 -0.5,0.5 L 14,9 14.125,8.625" fill="#bcc1ff"/>
  </g>
  <path d="m0 9.5v-0.5l0.375 0.125q0.375 0.125 0.5 0.5t0.125 0.875 0.5 0.5 0.5 0.5 0.5 0.5 0.875 0.125 0.5 0.5 0.625 0.375 0.5 0.5v0.5h-5v-4.5" fill-opacity="0"/>
  <g>
   <path d="m3.125 9.375-0.125-0.375h1l0.03125 0.96875 0.21875 0.03125-0.21875-0.03125q-0.21875-0.03125-0.40625-0.09375l-0.1875-0.0625 0.5625 0.1875-0.375-0.125q-0.375-0.125-0.5-0.5" fill="#d9dcff"/>
   <path d="m4.0156 9.4844-0.015625-0.48438h1v1h-1 0.75-0.25q-0.25 0-0.46875-0.03125l-0.21875-0.03125 0.21875 0.03125-0.015625-0.48438m0.60938 0.51562h0.625-0.25q-0.25 0-0.5 0h-0.25 0.375m0.5-1h-0.875 0.25q0.25 0 0.5 0h0.25-0.125" fill="#bdc1ff"/>
   <path d="m5 9.5v-0.5h1v1h-1v-0.5m-0.125 0.5h0.875-0.25q-0.25 0-0.5 0h-0.25 0.125m0.75 0h0.625-0.25q-0.25 0-0.5 0h-0.25 0.375m0.5-1h-0.875 0.25q0.25 0 0.5 0h0.25-0.125m-0.75 0h-0.625 0.25q0.25 0 0.5 0h0.25-0.375" fill="#a1a6ff"/>
   <path d="m6 9.5v-0.5h1l-0.03125 0.96875 0.21875-0.03125-0.21875 0.03125q-0.21875 0.03125-0.46875 0.03125h-0.25 0.75-1v-0.5m-0.125 0.5h0.875-0.25q-0.25 0-0.5 0h-0.25 0.125m0.5-1h-0.625 0.25q0.25 0 0.5 0h0.25-0.375" fill="#bdc1ff"/>
   <path d="m6.9844 9.4844 0.015625-0.48438h1l-0.125 0.375q-0.125 0.375-0.5 0.5l-0.375 0.125 0.5625-0.1875-0.1875 0.0625q-0.1875 0.0625-0.40625 0.09375l-0.21875 0.03125 0.21875-0.03125 0.015625-0.48438" fill="#d9dcff"/>
   <path d="m9.125 9.375-0.125-0.375h1l0.03126 0.96875 0.10938 0.015625 0.10936 0.015625-0.21875-0.03125q-0.21875-0.03125-0.40625-0.09375l-0.1875-0.0625 0.5625 0.1875-0.375-0.125q-0.375-0.125-0.5-0.5" fill="#d9dcff"/>
   <path d="m10.016 9.4844-0.015625-0.48438h1v1h-1 0.75-0.25q-0.25 0-0.46875-0.03125l-0.21875-0.03125 0.21875 0.03125-0.015625-0.48438m0.60938 0.51562h0.625-0.25q-0.25 0-0.5 0h-0.25 0.375m0.5-1h-0.875 0.25q0.25 0 0.5 0h0.25-0.125" fill="#bdc1ff"/>
   <path d="m11 9.5v-0.5h1v1h-1v-0.5m-0.125 0.5h0.875-0.25q-0.25 0-0.5 0h-0.25 0.125m0.75 0h0.625-0.25q-0.25 0-0.5 0h-0.25 0.375m0.5-1h-0.875 0.25q0.25 0 0.5 0h0.25-0.125m-0.75 0h-0.625 0.25q0.25 0 0.5 0h0.25-0.375" fill="#a1a6ff"/>
   <path d="m12 9.5v-0.5h1l-0.03125 0.96875 0.21875-0.03125-0.21875 0.03125q-0.21875 0.03125-0.46875 0.03125h-0.25 0.75-1v-0.5m-0.125 0.5h0.875-0.25q-0.25 0-0.5 0h-0.25 0.125m0.5-1h-0.625 0.25q0.25 0 0.5 0h0.25-0.375" fill="#bdc1ff"/>
   <path d="m12.984 9.4844 0.015625-0.48438h1l-0.125 0.375q-0.125 0.375-0.5 0.5l-0.375 0.125 0.5625-0.1875-0.1875 0.0625q-0.1875 0.0625-0.40625 0.09375l-0.21875 0.03125 0.21875-0.03125 0.015625-0.48438" fill="#d9dcff"/>
  </g>
  <path d="m16.125 9.625q0.125-0.375 0.5-0.5l0.375-0.125v5h-5v-0.5q0-0.5 0.5-0.5t0.625-0.375 0.5-0.5 0.875-0.125 0.5-0.5 0.5-0.5 0.5-0.5 0.125-0.875" fill-opacity="0"/>
 </g>
</svg>
