<svg width="17" height="17" version="1.1" viewBox="0 0 17 17" xmlns="http://www.w3.org/2000/svg">
 <g transform="translate(0)">
  <path d="m0 0.5v-0.5h5v1l-0.75 0.25 0.5625-0.1875-0.1875 0.0625q-0.1875 0.0625-0.3125 0.1875l-0.125 0.125 0.125-0.125-0.28125-0.28125q-0.28125-0.28125-0.65625-0.15625t-0.5 0.5-0.5 0.5-0.5 0.5-0.375 0.625-0.5 0.5-0.625 0.375l-0.375 0.125v-3.5" fill-opacity="0"/>
  <path d="m5 0.5v-0.5h1v1h-1v-0.5m0.625 0.5h0.625-0.25q-0.25 0-0.5 0h-0.25 0.375" fill-opacity=".015686"/>
  <path d="m6 0.5v-0.5h1v1h-1v-0.5m-0.125 0.5h0.875-0.25q-0.25 0-0.5 0h-0.25 0.125m0.75 0h0.625-0.25q-0.25 0-0.5 0h-0.25 0.375" fill="#331313" fill-opacity=".21569"/>
  <path d="m7 0.5v-0.5h1v1h-1v-0.5m-0.125 0.5h0.875-0.25q-0.25 0-0.5 0h-0.25 0.125m0.75 0h0.625-0.25q-0.25 0-0.5 0h-0.25 0.375" fill="#631f21" fill-opacity=".4549"/>
  <path d="m8 0.5v-0.5h1v1h-1v-0.5m-0.125 0.5h0.875-0.25q-0.25 0-0.5 0h-0.25 0.125m0.75 0h0.625-0.25q-0.25 0-0.5 0h-0.25 0.375" fill="#892b2c" fill-opacity=".65882"/>
  <path d="m9 0.5v-0.5h1v1h-1v-0.5m-0.125 0.5h0.875-0.25q-0.25 0-0.5 0h-0.25 0.125" fill="#a12f31" fill-opacity=".78824"/>
  <path d="m10 0.5v-0.5h1v1h-1v-0.5" fill="#aa3033" fill-opacity=".8549"/>
  <path d="m11 0.5v-0.5h1l0.25 0.75-0.1875-0.5625 0.0625 0.1875q0.0625 0.1875 0.15625 0.34375l0.09375 0.15625-0.09375-0.15625-0.625 0.5625 0.09375 0.09375-0.09375-0.09375q-0.09375-0.09375-0.28125-0.15625l-0.1875-0.0625 0.5625 0.1875-0.75-0.25v-0.5" fill="#ab2f33" fill-opacity=".86667"/>
  <path d="m12.125 0.375-0.125-0.375h1l0.25 0.75-0.1875-0.5625 0.0625 0.1875q0.0625 0.1875 0.1875 0.3125l0.125 0.125-0.125-0.125-0.625 0.5625 0.0625 0.125-0.0625-0.125q-0.0625-0.125-0.1875-0.25l-0.125-0.125 0.375 0.375-0.25-0.25q-0.25-0.25-0.375-0.625" fill="#a82d30" fill-opacity=".86667"/>
  <path d="m13.125 0.375-0.125-0.375h1v1l-0.375-0.125q-0.375-0.125-0.5-0.5" fill="#8b292b" fill-opacity=".76471"/>
  <path d="m14 0.5v-0.5h1v1h-1v-0.5m1 0.625v-0.875 0.25q0 0.25 0 0.5v0.25-0.125" fill="#1d0707" fill-opacity=".13725"/>
  <path d="m15 0.5v-0.5h1l0.25 0.75-0.1875-0.5625 0.0625 0.1875q0.0625 0.1875 0.1875 0.3125l0.125 0.125-0.125-0.125-0.28125 0.28125q-0.28125 0.28125-0.15625 0.65625t0.625 0.375h0.5v3h-1l-0.25-0.75 0.1875 0.5625-0.0625-0.1875q-0.0625-0.1875-0.1875-0.3125l-0.125-0.125 0.125 0.125 0.28125-0.28125q0.28125-0.28125 0.15625-0.65625t-0.625-0.375h-0.5v-1.5q0-0.5 0-1" fill-opacity="0"/>
  <path d="m16.125 0.375-0.125-0.375h1v1l-0.375-0.125q-0.375-0.125-0.5-0.5" fill="#535959" fill-opacity=".15686"/>
  <path d="m2.875 1.375q0.125-0.375 0.5-0.5t0.65625 0.15625l0.28125 0.28125 0.125-0.125-0.125 0.125q-0.125 0.125-0.1875 0.3125l-0.0625 0.1875 0.1875-0.5625-0.25 0.75-0.75 0.25 0.5625-0.1875-0.1875 0.0625q-0.1875 0.0625-0.34375 0.15625l-0.15625 0.09375 0.15625-0.09375-0.59375-0.59375-0.125 0.125 0.125-0.125q0.125-0.125 0.1875-0.3125l0.0625-0.1875-0.1875 0.5625 0.125-0.375" fill-opacity=".031373"/>
  <path d="m4.125 1.625q0.125-0.375 0.5-0.5l0.375-0.125-0.5625 0.1875 0.1875-0.0625q0.1875-0.0625 0.40625-0.09375l0.21875-0.03125-0.21875 0.03125-0.0625 0.9375 0.21875-0.03125-0.21875 0.03125q-0.21875 0.03125-0.46875 0.03125h-0.25 0.75-1l0.125-0.375" fill="#692123" fill-opacity=".48627"/>
  <path d="m5 1.5 0.03125-0.46875-0.21875 0.03125 0.21875-0.03125q0.21875-0.03125 0.46875-0.03125h0.25-0.75 1l-0.125 0.375q-0.125 0.375-0.5 0.5l-0.375 0.125 0.5625-0.1875-0.1875 0.0625q-0.1875 0.0625-0.40625 0.09375l-0.21875 0.03125 0.21875-0.03125 0.03125-0.46875" fill="#b33337" fill-opacity=".91373"/>
  <g>
   <path d="m5.875 1.375 0.125-0.375h1v1l-0.75 0.25 0.5625-0.1875-0.1875 0.0625q-0.1875 0.0625-0.3125 0.1875l-0.125 0.125 0.125-0.125-0.625-0.625-0.125 0.125 0.125-0.125q0.125-0.125 0.1875-0.3125l0.0625-0.1875-0.1875 0.5625 0.125-0.375" fill="#bf3337"/>
   <path d="m7 1.5v-0.5h1v1h-1v-0.5" fill="#c33337"/>
   <path d="m8 1.5v-0.5h1v1h-1v-0.5" fill="#c53337"/>
   <path d="m9 1.5v-0.5h1v1h-1v-0.5" fill="#c63338"/>
   <path d="m10 1.5v-0.5h1l-0.125 0.375q-0.125 0.375-0.5 0.5l-0.375 0.125v-0.5" fill="#c33237"/>
   <path d="m10.875 1.375 0.125-0.375 0.375 0.125q0.375 0.125 0.375 0.375t-0.25 0.5l-0.25 0.25-0.5625-0.5625-0.125 0.125 0.125-0.125q0.125-0.125 0.1875-0.3125l0.0625-0.1875-0.1875 0.5625 0.125-0.375m0.3125 0.9375 0.4375-0.4375-0.125 0.125q-0.125 0.125-0.25 0.25l-0.125 0.125 0.0625-0.0625" fill="#c03136"/>
   <path d="m11.75 1.5v-0.25 0.375-0.125q0-0.125-0.09375-0.21875l-0.09375-0.09375 0.09375 0.09375 0.625-0.5625-0.09375-0.15625 0.09375 0.15625q0.09375 0.15625 0.21875 0.28125l0.125 0.125-0.375-0.375 0.25 0.25q0.25 0.25 0.25 0.5t-0.25 0.5l-0.25 0.25-0.5625-0.5-0.0625 0.125 0.0625-0.125q0.0625-0.125 0.0625-0.25v-0.125 0.375-0.25m0.4375 0.8125 0.4375-0.4375-0.125 0.125q-0.125 0.125-0.25 0.25l-0.125 0.125 0.0625-0.0625" fill="#b42c30"/>
   <path d="m12.75 1.5v-0.25 0.375-0.125q0-0.125-0.0625-0.25l-0.0625-0.125 0.0625 0.125 0.625-0.5625-0.125-0.125 0.125 0.125q0.125 0.125 0.3125 0.1875l0.1875 0.0625-0.5625-0.1875 0.75 0.25v1l-0.75 0.25 0.5625-0.1875-0.1875 0.0625q-0.1875 0.0625-0.3125 0.1875l-0.125 0.125 0.125-0.125-0.625-0.5625-0.0625 0.125 0.0625-0.125q0.0625-0.125 0.0625-0.25v-0.125 0.375-0.25m1.25 0.625v-0.875 0.25q0 0.25 0 0.5v0.25-0.125" fill="#9e2628"/>
  </g>
  <path d="m14 1.5v-0.5h1v1h-1v-0.5m1-0.125v-0.625 0.25q0 0.25 0 0.5v0.25-0.375" fill="#4b1c1c" fill-opacity=".46667"/>
  <path d="m15.875 1.625q-0.125-0.375 0.15625-0.65625l0.28125-0.28125-0.125-0.125 0.125 0.125q0.125 0.125 0.3125 0.1875l0.1875 0.0625-0.5625-0.1875 0.75 0.25v1h-0.5q-0.5 0-0.625-0.375" fill-opacity=".019608"/>
  <path d="m1.875 2.375q0.125-0.375 0.5-0.5l0.375-0.125-0.5625 0.1875 0.1875-0.0625q0.1875-0.0625 0.3125-0.1875l0.125-0.125-0.125 0.125 0.59375 0.59375 0.15625-0.09375-0.15625 0.09375q-0.15625 0.09375-0.28125 0.21875l-0.125 0.125 0.375-0.375-0.25 0.25q-0.25 0.25-0.5 0.5l-0.25 0.25-0.53125-0.53125-0.09375 0.15625 0.09375-0.15625q0.09375-0.15625 0.15625-0.34375l0.0625-0.1875-0.1875 0.5625 0.125-0.375m0.3125 0.9375 0.4375-0.4375-0.125 0.125q-0.125 0.125-0.25 0.25l-0.125 0.125 0.0625-0.0625" fill="#150b0b" fill-opacity=".094118"/>
  <path d="m3 2.5q0.25-0.25 0.625-0.375l0.375-0.125-0.125 0.375q-0.125 0.375-0.375 0.625l-0.25 0.25-0.5-0.5 0.25-0.25m-0.0625 0.0625-0.3125 0.3125 0.125-0.125q0.125-0.125 0.25-0.25l0.125-0.125-0.1875 0.1875m0.25 0.75 0.4375-0.4375-0.125 0.125q-0.125 0.125-0.25 0.25l-0.125 0.125 0.0625-0.0625" fill="#a13033" fill-opacity=".81569"/>
  <g>
   <path d="m3.875 2.375 0.125-0.375h1v1l-0.75 0.25 0.5625-0.1875-0.1875 0.0625q-0.1875 0.0625-0.3125 0.1875l-0.125 0.125 0.125-0.125-0.59375-0.59375-0.09375 0.15625 0.09375-0.15625q0.09375-0.15625 0.15625-0.34375l0.0625-0.1875-0.1875 0.5625 0.125-0.375" fill="#c23338"/>
   <path d="m5 2.5v-0.5l0.75-0.25-0.5625 0.1875 0.1875-0.0625q0.1875-0.0625 0.3125-0.1875l0.125-0.125-0.125 0.125 0.625 0.625 0.125-0.125-0.125 0.125q-0.125 0.125-0.1875 0.3125l-0.0625 0.1875 0.1875-0.5625-0.25 0.75h-1v-0.5" fill="#c53337"/>
   <path d="m6.125 2.625q0.125-0.375 0.5-0.5l0.375-0.125v1h-1l0.125-0.375" fill="#c83439"/>
   <path d="m7 2.5v-0.5h1v1h-1v-0.5" fill="#c8353a"/>
   <path d="m8 2.5v-0.5h1v1h-1v-0.5" fill="#c9373b"/>
   <path d="m9 2.5v-0.5h1l-0.125 0.375q-0.125 0.375-0.5 0.5l-0.375 0.125v-0.5" fill="#c53539"/>
   <path d="m9.875 2.375 0.125-0.375 0.75-0.25-0.5625 0.1875 0.1875-0.0625q0.1875-0.0625 0.3125-0.1875l0.125-0.125-0.125 0.125 0.5625 0.5625-0.25 0.25q-0.25 0.25-0.5 0.5l-0.25 0.25 0.375-0.375-0.125 0.125q-0.125 0.125-0.21875 0.28125l-0.09375 0.15625 0.09375-0.15625-0.59375-0.59375-0.125 0.125 0.125-0.125q0.125-0.125 0.1875-0.3125l0.0625-0.1875-0.1875 0.5625 0.125-0.375m1.1875 0.0625 0.3125-0.3125-0.125 0.125q-0.125 0.125-0.25 0.25l-0.125 0.125 0.1875-0.1875" fill="#c13237"/>
   <path d="m11 2.5q0.25-0.25 0.5-0.5l0.25-0.25-0.375 0.375 0.125-0.125q0.125-0.125 0.1875-0.25l0.0625-0.125-0.0625 0.125 0.5625 0.5-0.25 0.25q-0.25 0.25-0.5 0.5l-0.25 0.25-0.5-0.5 0.25-0.25m-0.0625 0.0625-0.3125 0.3125 0.125-0.125q0.125-0.125 0.25-0.25l0.125-0.125-0.1875 0.1875m0.25 0.75 0.4375-0.4375-0.125 0.125q-0.125 0.125-0.25 0.25l-0.125 0.125 0.0625-0.0625m0.875-0.875 0.3125-0.3125-0.125 0.125q-0.125 0.125-0.25 0.25l-0.125 0.125 0.1875-0.1875" fill="#ae2a2f"/>
   <path d="m12 2.5q0.25-0.25 0.5-0.5l0.25-0.25-0.375 0.375 0.125-0.125q0.125-0.125 0.1875-0.25l0.0625-0.125-0.0625 0.125 0.625 0.5625 0.125-0.125-0.125 0.125q-0.125 0.125-0.1875 0.3125l-0.0625 0.1875 0.1875-0.5625-0.25 0.75-0.75 0.25 0.5625-0.1875-0.1875 0.0625q-0.1875 0.0625-0.34375 0.15625l-0.15625 0.09375 0.15625-0.09375-0.53125-0.53125 0.25-0.25m-0.0625 0.0625-0.3125 0.3125 0.125-0.125q0.125-0.125 0.25-0.25l0.125-0.125-0.1875 0.1875" fill="#8e1d20"/>
   <path d="m13.125 2.625q0.125-0.375 0.5-0.5l0.375-0.125v1h-1l0.125-0.375m0.875-0.25v-0.625 0.25q0 0.25 0 0.5v0.25-0.375" fill="#7c1617"/>
  </g>
  <path d="m14 2.5v-0.5h1v1h-1v-0.5m0 0.125v0.625-0.25q0-0.25 0-0.5v-0.25 0.375m1 0.5v-0.875 0.25q0 0.25 0 0.5v0.25-0.125" fill="#3b1818" fill-opacity=".37255"/>
  <path d="m1 3.5q0.25-0.25 0.5-0.5l0.25-0.25-0.375 0.375 0.125-0.125q0.125-0.125 0.21875-0.28125l0.09375-0.15625-0.09375 0.15625 0.53125 0.53125-0.25 0.25q-0.25 0.25-0.5 0.5l-0.25 0.25 0.375-0.375-0.125 0.125q-0.125 0.125-0.21875 0.28125l-0.09375 0.15625 0.09375-0.15625-0.5625-0.5625-0.15625 0.09375 0.15625-0.09375q0.15625-0.09375 0.28125-0.21875l0.125-0.125-0.375 0.375 0.25-0.25m1.0625-0.0625 0.3125-0.3125-0.125 0.125q-0.125 0.125-0.25 0.25l-0.125 0.125 0.1875-0.1875" fill="#1c0909" fill-opacity=".10588"/>
  <path d="m2 3.5q0.25-0.25 0.5-0.5l0.25-0.25 0.5 0.5-0.25 0.25q-0.25 0.25-0.5 0.5l-0.25 0.25-0.5-0.5 0.25-0.25m-0.0625 0.0625-0.3125 0.3125 0.125-0.125q0.125-0.125 0.25-0.25l0.125-0.125-0.1875 0.1875m0.25 0.75 0.4375-0.4375-0.125 0.125q-0.125 0.125-0.25 0.25l-0.125 0.125 0.0625-0.0625m0.875-0.875 0.3125-0.3125-0.125 0.125q-0.125 0.125-0.25 0.25l-0.125 0.125 0.1875-0.1875m-0.25-0.75-0.4375 0.4375 0.125-0.125q0.125-0.125 0.25-0.25l0.125-0.125-0.0625 0.0625" fill="#a63438" fill-opacity=".85098"/>
  <g>
   <path d="m3 3.5q0.25-0.25 0.5-0.5l0.25-0.25-0.375 0.375 0.125-0.125q0.125-0.125 0.21875-0.28125l0.09375-0.15625-0.09375 0.15625 0.59375 0.59375 0.125-0.125-0.125 0.125q-0.125 0.125-0.1875 0.3125l-0.0625 0.1875 0.1875-0.5625-0.25 0.75-0.75 0.25 0.5625-0.1875-0.1875 0.0625q-0.1875 0.0625-0.3125 0.1875l-0.125 0.125 0.125-0.125-0.5625-0.5625 0.25-0.25m-0.0625 0.0625-0.3125 0.3125 0.125-0.125q0.125-0.125 0.25-0.25l0.125-0.125-0.1875 0.1875" fill="#c2353a"/>
   <path d="m4.125 3.625q0.125-0.375 0.5-0.5l0.375-0.125v1h-1l0.125-0.375" fill="#c9363b"/>
   <path d="m5 3.5v-0.5h1v0.5q0 0.5-0.5 0.5h-0.5v-0.5" fill="#c83439"/>
   <path d="m6 3.5v-0.5h1v2h-0.5q-0.5 0-0.875 0.125l-0.375 0.125 0.5625-0.1875-0.1875 0.0625q-0.1875 0.0625-0.3125 0.1875l-0.125 0.125 0.125-0.125-0.625-0.625-0.125 0.125 0.125-0.125q0.125-0.125 0.1875-0.3125l0.0625-0.1875-0.1875 0.5625 0.25-0.75h0.5q0.5 0 0.5-0.5" fill="#cb373c"/>
   <path d="m7 3.5v-0.5h1l-0.125 0.375q-0.125 0.375-0.5 0.5l-0.375 0.125v-0.5" fill="#cd383d"/>
   <path d="m7.875 3.375 0.125-0.375h1v1l-0.75 0.25 0.5625-0.1875-0.1875 0.0625q-0.1875 0.0625-0.3125 0.1875l-0.125 0.125 0.125-0.125-0.625-0.625-0.125 0.125 0.125-0.125q0.125-0.125 0.1875-0.3125l0.0625-0.1875-0.1875 0.5625 0.125-0.375" fill="#ce383d"/>
   <path d="m9 3.5v-0.5l0.75-0.25-0.5625 0.1875 0.1875-0.0625q0.1875-0.0625 0.3125-0.1875l0.125-0.125-0.125 0.125 0.59375 0.59375 0.09375-0.15625-0.09375 0.15625q-0.09375 0.15625-0.15625 0.34375l-0.0625 0.1875 0.1875-0.5625-0.28125 0.71875 0.21875-0.03125-0.21875 0.03125q-0.21875 0.03125-0.46875 0.03125h-0.25 0.75-1v-0.5" fill="#bb2f34"/>
   <path d="m10.109 3.6094q0.14062-0.35938 0.39062-0.60938l0.25-0.25 0.5 0.5-0.25 0.25q-0.25 0.25-0.625 0.375l-0.375 0.125 0.5625-0.1875-0.1875 0.0625q-0.1875 0.0625-0.40625 0.09375l-0.21875 0.03125 0.21875-0.03125 0.14062-0.35938m0.95312-0.17188 0.3125-0.3125-0.125 0.125q-0.125 0.125-0.25 0.25l-0.125 0.125 0.1875-0.1875m-0.25-0.75-0.4375 0.4375 0.125-0.125q0.125-0.125 0.25-0.25l0.125-0.125-0.0625 0.0625" fill="#9a2125"/>
   <path d="m11 3.5q0.25-0.25 0.5-0.5l0.25-0.25 0.53125 0.53125 0.15625-0.09375-0.15625 0.09375q-0.15625 0.09375-0.28125 0.21875l-0.125 0.125 0.375-0.375-0.25 0.25q-0.25 0.25-0.5 0.5l-0.25 0.25 0.375-0.375-0.125 0.125q-0.125 0.125-0.21875 0.28125l-0.09375 0.15625 0.09375-0.15625-0.5625-0.5625-0.15625 0.09375 0.15625-0.09375q0.15625-0.09375 0.28125-0.21875l0.125-0.125-0.375 0.375 0.25-0.25m0.8125-0.8125-0.4375 0.4375 0.125-0.125q0.125-0.125 0.25-0.25l0.125-0.125-0.0625 0.0625" fill="#7b1518"/>
   <path d="m12 3.5q0.25-0.25 0.625-0.375l0.375-0.125v1l-0.75 0.25 0.5625-0.1875-0.1875 0.0625q-0.1875 0.0625-0.3125 0.1875l-0.125 0.125 0.125-0.125-0.5625-0.5625 0.25-0.25m-0.0625 0.0625-0.3125 0.3125 0.125-0.125q0.125-0.125 0.25-0.25l0.125-0.125-0.1875 0.1875" fill="#7c1416"/>
   <path d="m13 3.5v-0.5h1v1h-1v-0.5" fill="#8a1a1d"/>
  </g>
  <path d="m14 3.5v-0.5h1v1h-1v-0.5m1-0.125v-0.625 0.25q0 0.25 0 0.5v0.25-0.375m-1-0.5v0.875-0.25q0-0.25 0-0.5v-0.25 0.125" fill="#682d2d" fill-opacity=".7098"/>
  <path d="m15 3.5v-0.5h0.5q0.5 0 0.625 0.375t-0.15625 0.65625l-0.28125 0.28125 0.125 0.125-0.125-0.125q-0.125-0.125-0.3125-0.1875l-0.1875-0.0625 0.5625 0.1875-0.75-0.25v-0.5" fill-opacity=".011765"/>
  <path d="m0 4.5v-0.5l0.75-0.25-0.5625 0.1875 0.1875-0.0625q0.1875-0.0625 0.34375-0.15625l0.15625-0.09375-0.15625 0.09375 0.5625 0.5625 0.09375-0.15625-0.09375 0.15625q-0.09375 0.15625-0.15625 0.34375l-0.0625 0.1875 0.1875-0.5625-0.25 0.75h-1v-0.5" fill="#150000" fill-opacity=".047059"/>
  <path d="m1.125 4.625q0.125-0.375 0.375-0.625l0.25-0.25 0.5 0.5-0.25 0.25q-0.25 0.25-0.625 0.375l-0.375 0.125 0.125-0.375m0.9375-0.1875 0.3125-0.3125-0.125 0.125q-0.125 0.125-0.25 0.25l-0.125 0.125 0.1875-0.1875m-0.25-0.75-0.4375 0.4375 0.125-0.125q0.125-0.125 0.25-0.25l0.125-0.125-0.0625 0.0625" fill="#a13034" fill-opacity=".82745"/>
  <g>
   <path d="m2 4.5q0.25-0.25 0.5-0.5l0.25-0.25 0.5625 0.5625 0.125-0.125-0.125 0.125q-0.125 0.125-0.1875 0.3125l-0.0625 0.1875 0.1875-0.5625-0.25 0.75-0.75 0.25 0.5625-0.1875-0.1875 0.0625q-0.1875 0.0625-0.3125 0.1875l-0.125 0.125 0.125-0.125-0.59375-0.59375-0.15625 0.09375 0.15625-0.09375q0.15625-0.09375 0.28125-0.21875l0.125-0.125-0.375 0.375 0.25-0.25m0.8125-0.8125-0.4375 0.4375 0.125-0.125q0.125-0.125 0.25-0.25l0.125-0.125-0.0625 0.0625" fill="#bb3539"/>
   <path d="m3.125 4.625q0.125-0.375 0.5-0.5l0.375-0.125v1h-1l0.125-0.375" fill="#c3383d"/>
   <path d="m4 4.5v-0.5h1l-0.125 0.375q-0.125 0.375-0.5 0.5l-0.375 0.125v-0.5" fill="#ca373c"/>
   <path d="m7 4.5v-0.5l0.75-0.25-0.5625 0.1875 0.1875-0.0625q0.1875-0.0625 0.3125-0.1875l0.125-0.125-0.125 0.125 0.625 0.625 0.125-0.125-0.125 0.125q-0.125 0.125-0.1875 0.3125l-0.0625 0.1875 0.1875-0.5625-0.25 0.75h-1v-0.5" fill="#bc3035"/>
   <path d="m8.125 4.625q0.125-0.375 0.5-0.5l0.375-0.125-0.5625 0.1875 0.1875-0.0625q0.1875-0.0625 0.40625-0.09375l0.21875-0.03125-0.21875 0.03125-0.03125 0.96875h-1l0.125-0.375" fill="#912024"/>
   <path d="m9.0156 4.5156 0.015625-0.48438-0.21875 0.03125 0.21875-0.03125q0.21875-0.03125 0.46875-0.03125h0.25-0.75 1v1h-1l0.015625-0.48438" fill="#721316"/>
   <path d="m10 4.5v-0.5l0.75-0.25-0.5625 0.1875 0.1875-0.0625q0.1875-0.0625 0.34375-0.15625l0.15625-0.09375-0.15625 0.09375 0.5625 0.5625 0.09375-0.15625-0.09375 0.15625q-0.09375 0.15625-0.15625 0.34375l-0.0625 0.1875 0.1875-0.5625-0.25 0.75h-1v-0.5" fill="#771317"/>
   <path d="m11.125 4.625q0.125-0.375 0.375-0.625l0.25-0.25 0.5625 0.5625 0.125-0.125-0.125 0.125q-0.125 0.125-0.1875 0.3125l-0.0625 0.1875 0.1875-0.5625-0.25 0.75h-1l0.125-0.375m0.6875-0.9375-0.4375 0.4375 0.125-0.125q0.125-0.125 0.25-0.25l0.125-0.125-0.0625 0.0625" fill="#7e1e22"/>
   <path d="m12.125 4.625q0.125-0.375 0.5-0.5l0.375-0.125-0.5625 0.1875 0.1875-0.0625q0.1875-0.0625 0.40625-0.09375l0.21875-0.03125-0.21875 0.03125-0.03125 0.96875h-1l0.125-0.375" fill="#6a282a"/>
   <path d="m13.016 4.5156 0.015625-0.48438-0.21875 0.03125 0.21875-0.03125q0.21875-0.03125 0.46875-0.03125h0.25-0.75 1v1h-1l0.01563-0.48438m0.60937 0.48438h0.625-0.25q-0.25 0-0.5 0h-0.25 0.375" fill="#4a3129"/>
  </g>
  <path d="m14 4.5v-0.5h1v1h-1v-0.5m-0.125 0.5h0.875-0.25q-0.25 0-0.5 0h-0.25 0.125" fill="#646d36" fill-opacity=".99608"/>
  <path d="m15 4.5v-0.5l0.375 0.125q0.375 0.125 0.5 0.5l0.125 0.375-0.1875-0.5625 0.0625 0.1875q0.0625 0.1875 0.09375 0.40625l0.03125 0.21875-0.03125-0.21875-0.96875-0.03125v-0.5" fill="#4c4f2e" fill-opacity=".30196"/>
  <path d="m0 5.5v-0.5h1v1h-1v-0.5m1 0.625v-0.875 0.25q0 0.25 0 0.5v0.25-0.125" fill="#6f1f23" fill-opacity=".54118"/>
  <g>
   <path d="m1 5.5v-0.5l0.75-0.25-0.5625 0.1875 0.1875-0.0625q0.1875-0.0625 0.34375-0.15625l0.15625-0.09375-0.15625 0.09375 0.59375 0.59375 0.125-0.125-0.125 0.125q-0.125 0.125-0.1875 0.3125l-0.0625 0.1875 0.1875-0.5625-0.25 0.75h-1v-0.5" fill="#b93439"/>
   <path d="M 2.125,5.625 Q 2.25,5.25 2.625,5.125 L 3,5 2.875,5.375 Q 2.75,5.75 2.375,5.875 L 2,6 2.125,5.625" fill="#bd363a"/>
   <path d="m2.875 5.375 0.125-0.375h1v1l-0.75 0.25 0.5625-0.1875-0.1875 0.0625q-0.1875 0.0625-0.3125 0.1875l-0.125 0.125 0.125-0.125-0.625-0.625-0.125 0.125 0.125-0.125q0.125-0.125 0.1875-0.3125l0.0625-0.1875-0.1875 0.5625 0.125-0.375" fill="#c2363b"/>
   <path d="m4 5.5v-0.5l0.75-0.25-0.5625 0.1875 0.1875-0.0625q0.1875-0.0625 0.3125-0.1875l0.125-0.125-0.125 0.125 0.625 0.625 0.125-0.125-0.125 0.125q-0.125 0.125-0.1875 0.3125l-0.0625 0.1875 0.1875-0.5625-0.25 0.75h-1v-0.5" fill="#c13136"/>
   <path d="m5.125 5.625q0.125-0.375 0.5-0.5l0.375-0.125-0.5625 0.1875 0.1875-0.0625q0.1875-0.0625 0.40625-0.09375l0.21875-0.03125-0.21875 0.03125-0.03125 0.96875h-1l0.125-0.375m0.5 0.375h0.625-0.25q-0.25 0-0.5 0h-0.25 0.375" fill="#ad2a2e"/>
   <path d="m6.0156 5.5156 0.015625-0.48438-0.21875 0.03125 0.21875-0.03125q0.21875-0.03125 0.46875-0.03125h0.25-0.75 1v1h-1l0.015625-0.48438m-0.14062 0.48438h0.875-0.25q-0.25 0-0.5 0h-0.25 0.125m1.25-1h-0.875 0.25q0.25 0 0.5 0h0.25-0.125" fill="#7f1a1d"/>
   <path d="m7 5.5v-0.5h1v1h-1v-0.5m0.375-0.5h-0.625 0.25q0.25 0 0.5 0h0.25-0.375" fill="#671517"/>
   <path d="m8 5.5v-0.5h1v1h-1v-0.5" fill="#5c1c1f"/>
   <path d="m9 5.5v-0.5h1v1h-1v-0.5m1.125-0.5h-0.875 0.25q0.25 0 0.5 0h0.25-0.125" fill="#55292b"/>
   <path d="m10 5.5v-0.5h1v1h-1v-0.5m1.125-0.5h-0.875 0.25q0.25 0 0.5 0h0.25-0.125m-0.75 0h-0.625 0.25q0.25 0 0.5 0h0.25-0.375" fill="#524531"/>
   <path d="m11 5.5v-0.5h1l-0.03125 0.96875 0.21875-0.03125-0.21875 0.03125q-0.21875 0.03125-0.46875 0.03125h-0.25 0.75-1v-0.5m0.375-0.5h-0.625 0.25q0.25 0 0.5 0h0.25-0.375" fill="#5c6034"/>
   <path d="m11.984 5.4844 0.015625-0.48438h1l-0.125 0.375q-0.125 0.375-0.5 0.5l-0.375 0.125 0.5625-0.1875-0.1875 0.0625q-0.1875 0.0625-0.40625 0.09375l-0.21875 0.03125 0.21875-0.03125 0.015625-0.48438" fill="#6b7028"/>
   <path d="m12.875 5.375 0.125-0.375h1l0.25 0.75-0.1875-0.5625 0.0625 0.1875q0.0625 0.1875 0.15625 0.34375l0.09375 0.15625-0.09375-0.15625-0.53125 0.59375 0.125 0.0625-0.125-0.0625q-0.125-0.0625-0.25-0.0625h-0.125 0.375-0.5 0.375-0.125q-0.125 0-0.21875 0.09375l-0.09375 0.09375 0.09375-0.09375-0.59375-0.65625-0.125 0.125 0.125-0.125q0.125-0.125 0.1875-0.3125l0.0625-0.1875-0.1875 0.5625 0.125-0.375" fill="#869023"/>
   <path d="m14.125 5.375-0.125-0.375h1l0.25 0.75-0.1875-0.5625 0.0625 0.1875q0.0625 0.1875 0.1875 0.3125l0.125 0.125-0.125-0.125-0.5625 0.5625-0.25-0.25q-0.25-0.25-0.375-0.625m0.4375 0.6875 0.3125 0.3125-0.125-0.125q-0.125-0.125-0.25-0.25l-0.125-0.125 0.1875 0.1875" fill="#8f9b22"/>
  </g>
  <path d="m15.125 5.375-0.125-0.375 0.96875 0.03125-0.03125-0.21875 0.03125 0.21875q0.03125 0.21875 0.03125 0.46875v0.25-0.75 1l-0.375-0.125q-0.375-0.125-0.5-0.5" fill="#818d2d" fill-opacity=".91373"/>
  <path d="m16 5.5v-0.5h1v1h-1v-0.5" fill="#1c1c13" fill-opacity=".10588"/>
  <path d="m0 6.5v-0.5h1v1h-1v-0.5m0.625 0.5h0.625-0.25q-0.25 0-0.5 0h-0.25 0.375m0.375-0.625v-0.625 0.25q0 0.25 0 0.5v0.25-0.375" fill="#a22f35" fill-opacity=".84314"/>
  <g>
   <path d="m1 6.5v-0.5h1v1h-1v-0.5m-0.125 0.5h0.875-0.25q-0.25 0-0.5 0h-0.25 0.125" fill="#b63338"/>
   <path d="m2 6.5v-0.5l0.75-0.25-0.5625 0.1875 0.1875-0.0625q0.1875-0.0625 0.3125-0.1875l0.125-0.125-0.125 0.125 0.625 0.625 0.125-0.125-0.125 0.125q-0.125 0.125-0.1875 0.3125l-0.0625 0.1875 0.1875-0.5625-0.25 0.75h-1v-0.5" fill="#b52f34"/>
   <path d="m3.125 6.625q0.125-0.375 0.5-0.5l0.375-0.125-0.5625 0.1875 0.1875-0.0625q0.1875-0.0625 0.40625-0.09375l0.21875-0.03125-0.21875 0.03125-0.03125 0.96875h-1l0.125-0.375" fill="#962528"/>
   <path d="m4.0156 6.5156 0.015625-0.48438-0.21875 0.03125 0.21875-0.03125q0.21875-0.03125 0.46875-0.03125h0.25-0.75 1v1h-1l0.015625-0.48438m0.60938 0.48438h0.625-0.25q-0.25 0-0.5 0h-0.25 0.375m0.5-1h-0.875 0.25q0.25 0 0.5 0h0.25-0.125" fill="#561718"/>
   <path d="m5 6.5v-0.5h1v1h-1v-0.5m-0.125 0.5h0.875-0.25q-0.25 0-0.5 0h-0.25 0.125m0.75 0h0.625-0.25q-0.25 0-0.5 0h-0.25 0.375m-0.25-1h-0.625 0.25q0.25 0 0.5 0h0.25-0.375" fill="#391a1a"/>
   <path d="m6 6.5v-0.5h1v1h-1v-0.5m-0.125 0.5h0.875-0.25q-0.25 0-0.5 0h-0.25 0.125m0.75 0h0.625-0.25q-0.25 0-0.5 0h-0.25 0.375" fill="#433322"/>
   <path d="m7 6.5v-0.5h1v1h-1v-0.5m-0.125 0.5h0.875-0.25q-0.25 0-0.5 0h-0.25 0.125m0.75 0h0.625-0.25q-0.25 0-0.5 0h-0.25 0.375" fill="#555828"/>
   <path d="m8 6.5v-0.5h1l-0.03125 0.96875 0.21875-0.03125-0.21875 0.03125q-0.21875 0.03125-0.46875 0.03125h-0.25 0.75-1v-0.5m-0.125 0.5h0.875-0.25q-0.25 0-0.5 0h-0.25 0.125" fill="#757936"/>
   <path d="m8.9844 6.4844 0.015625-0.48438h1l-0.125 0.375q-0.125 0.375-0.5 0.5l-0.375 0.125 0.5625-0.1875-0.1875 0.0625q-0.1875 0.0625-0.40625 0.09375l-0.21875 0.03125 0.21875-0.03125 0.015625-0.48438" fill="#717f1c"/>
   <path d="m9.875 6.375 0.125-0.375h1v1l-0.75 0.25 0.5625-0.1875-0.1875 0.0625q-0.1875 0.0625-0.3125 0.1875l-0.125 0.125 0.125-0.125-0.625-0.625-0.125 0.125 0.125-0.125q0.125-0.125 0.1875-0.3125l0.0625-0.1875-0.1875 0.5625 0.125-0.375" fill="#92a01a"/>
   <path d="m11 6.5v-0.5h1l-0.125 0.375q-0.125 0.375-0.5 0.5l-0.375 0.125v-0.5" fill="#90972e"/>
   <path d="m11.875 6.375 0.125-0.375 0.75-0.25-0.5625 0.1875 0.1875-0.0625q0.1875-0.0625 0.3125-0.1875l0.125-0.125-0.125 0.125 0.59375 0.65625 0.09375-0.09375-0.09375 0.09375q-0.09375 0.09375-0.15625 0.28125l-0.0625 0.1875 0.1875-0.5625-0.25 0.75-0.75 0.25 0.5625-0.1875-0.1875 0.0625q-0.1875 0.0625-0.3125 0.1875l-0.125 0.125 0.125-0.125-0.625-0.625-0.125 0.125 0.125-0.125q0.125-0.125 0.1875-0.3125l0.0625-0.1875-0.1875 0.5625 0.125-0.375" fill="#949839"/>
   <path d="m13.125 6.625q0.125-0.375 0.375-0.375t0.5 0.25l0.25 0.25-0.5625 0.5625 0.125 0.125-0.125-0.125q-0.125-0.125-0.3125-0.1875l-0.1875-0.0625 0.5625 0.1875-0.75-0.25 0.125-0.375m1.1875 0.1875-0.4375-0.4375 0.125 0.125q0.125 0.125 0.25 0.25l0.125 0.125-0.0625-0.0625" fill="#939738"/>
   <path d="m14 6.5-0.25-0.25 0.375 0.375-0.125-0.125q-0.125-0.125-0.25-0.1875l-0.125-0.0625 0.125 0.0625 0.53125-0.59375-0.09375-0.15625 0.09375 0.15625q0.09375 0.15625 0.21875 0.28125l0.125 0.125-0.375-0.375 0.25 0.25q0.25 0.25 0.5 0.5l0.25 0.25-0.375-0.375 0.125 0.125q0.125 0.125 0.28125 0.21875l0.15625 0.09375-0.15625-0.09375-0.53125 0.53125-0.25-0.25q-0.25-0.25-0.5-0.5m0.5625 0.5625 0.3125 0.3125-0.125-0.125q-0.125-0.125-0.25-0.25l-0.125-0.125 0.1875 0.1875" fill="#7b8417"/>
   <path d="m15 6.5-0.25-0.25 0.5625-0.5625-0.125-0.125 0.125 0.125q0.125 0.125 0.3125 0.1875l0.1875 0.0625-0.5625-0.1875 0.75 0.25v1l-0.375-0.125q-0.375-0.125-0.625-0.375m-0.3125-0.3125 0.4375 0.4375-0.125-0.125q-0.125-0.125-0.25-0.25l-0.125-0.125 0.0625 0.0625" fill="#869221"/>
  </g>
  <path d="m16 6.5v-0.5h1v1l-1.0312-0.03125-0.03125 0.21875 0.03125-0.21875q0.03125-0.21875 0.03125-0.46875v-0.25 0.75-0.5" fill="#4c5319" fill-opacity=".52941"/>
  <path d="m0 7.5v-0.5h1v1h-1v-0.5" fill="#712324" fill-opacity=".57647"/>
  <path d="m1 7.5v-0.5h1v1h-1v-0.5m0.625 0.5h0.625-0.25q-0.25 0-0.5 0h-0.25 0.375m0.5-1h-0.875 0.25q0.25 0 0.5 0h0.25-0.125" fill="#711c1f" fill-opacity=".63922"/>
  <path d="m2 7.5v-0.5h1v1h-1v-0.5m-0.125 0.5h0.875-0.25q-0.25 0-0.5 0h-0.25 0.125m0.5-1h-0.625 0.25q0.25 0 0.5 0h0.25-0.375" fill="#4e2020" fill-opacity=".50196"/>
  <path d="m3 7.5v-0.5h1l0.25 0.75-0.1875-0.5625 0.0625 0.1875q0.0625 0.1875 0.1875 0.3125l0.125 0.125-0.125-0.125-0.625 0.625 0.125 0.125-0.125-0.125q-0.125-0.125-0.3125-0.1875l-0.1875-0.0625 0.5625 0.1875-0.75-0.25v-0.5" fill="#7a7556" fill-opacity=".99608"/>
  <g>
   <path d="m4.125 7.375-0.125-0.375h1v1l-0.375-0.125q-0.375-0.125-0.5-0.5" fill="#969554"/>
   <path d="m5 7.5v-0.5h1v1h-1v-0.5m1.125-0.5h-0.875 0.25q0.25 0 0.5 0h0.25-0.125" fill="#b2b265"/>
   <path d="m6 7.5v-0.5h1v1h-1v-0.5m0.375-0.5h-0.625 0.25q0.25 0 0.5 0h0.25-0.375" fill="#b2b556"/>
   <path d="m7 7.5v-0.5h1l0.25 0.75-0.1875-0.5625 0.0625 0.1875q0.0625 0.1875 0.1875 0.3125l0.125 0.125-0.125-0.125-0.625 0.625 0.125 0.125-0.125-0.125q-0.125-0.125-0.3125-0.1875l-0.1875-0.0625 0.5625 0.1875-0.75-0.25v-0.5" fill="#a3a843"/>
   <path d="m8.125 7.375-0.125-0.375h1v1l-0.375-0.125q-0.375-0.125-0.5-0.5" fill="#87901c"/>
   <path d="m9 7.5v-0.5l0.75-0.25-0.5625 0.1875 0.1875-0.0625q0.1875-0.0625 0.3125-0.1875l0.125-0.125-0.125 0.125 0.625 0.625 0.125-0.125-0.125 0.125q-0.125 0.125-0.1875 0.3125l-0.0625 0.1875 0.1875-0.5625-0.25 0.75h-1v-0.5" fill="#88931a"/>
   <path d="m10.125 7.625q0.125-0.375 0.5-0.5l0.375-0.125v1h-1l0.125-0.375" fill="#929f1c"/>
   <path d="m11 7.5v-0.5l0.75-0.25-0.5625 0.1875 0.1875-0.0625q0.1875-0.0625 0.3125-0.1875l0.125-0.125-0.125 0.125 0.625 0.625 0.125-0.125-0.125 0.125q-0.125 0.125-0.1875 0.3125l-0.0625 0.1875 0.1875-0.5625-0.25 0.75h-1v-0.5m0 0.125v0.625-0.25q0-0.25 0-0.5v-0.25 0.375" fill="#93992f"/>
   <path d="m12.125 7.625q0.125-0.375 0.5-0.5l0.375-0.125v1h-1l0.125-0.375" fill="#9c9d49"/>
   <path d="m13 7.5v-0.5l0.375 0.125q0.375 0.125 0.5 0.5l0.125 0.375h-1v-0.5" fill="#9a9c43"/>
   <path d="m13.875 7.625-0.125-0.375 0.1875 0.5625-0.0625-0.1875q-0.0625-0.1875-0.1875-0.3125l-0.125-0.125 0.125 0.125 0.5625-0.5625 0.25 0.25q0.25 0.25 0.5 0.5l0.25 0.25-0.375-0.375 0.125 0.125q0.125 0.125 0.25 0.1875l0.125 0.0625-0.125-0.0625-0.53125 0.59375 0.15625 0.09375-0.15625-0.09375q-0.15625-0.09375-0.34375-0.15625l-0.1875-0.0625 0.5625 0.1875-0.75-0.25-0.125-0.375m0.5625-0.6875-0.3125-0.3125 0.125 0.125q0.125 0.125 0.25 0.25l0.125 0.125-0.1875-0.1875" fill="#84882b"/>
   <path d="m15 7.5-0.25-0.25 0.53125-0.53125-0.15625-0.09375 0.15625 0.09375q0.15625 0.09375 0.34375 0.15625l0.1875 0.0625-0.5625-0.1875 0.75 0.25-0.125 0.375q-0.125 0.375-0.375 0.375t-0.5-0.25m-0.3125-0.3125 0.4375 0.4375-0.125-0.125q-0.125-0.125-0.25-0.25l-0.125-0.125 0.0625 0.0625" fill="#848b1d"/>
  </g>
  <path d="m15.875 7.375 0.125-0.375-0.1875 0.5625 0.0625-0.1875q0.0625-0.1875 0.09375-0.40625l0.03125-0.21875-0.03125 0.21875 1.0312 0.03125v1l-0.75 0.25 0.5625-0.1875-0.1875 0.0625q-0.1875 0.0625-0.34375 0.15625l-0.15625 0.09375 0.15625-0.09375-0.5625-0.625-0.09375 0.09375 0.09375-0.09375q0.09375-0.09375 0.15625-0.28125l0.0625-0.1875-0.1875 0.5625 0.125-0.375" fill="#6d761c" fill-opacity=".80784"/>
  <path d="m0 8.5v-0.5h2v2.5q0 0.5 0.5 0.5h0.5v0.5q0 0.5 0 1t0.125 0.875 0.5 0.5l0.375 0.125 0.125 0.375q0.125 0.375 0.375 0.625t0.5 0.5 0.625 0.375l0.375 0.125v1h-6v-8.5" fill-opacity="0"/>
  <path d="m2 8.5v-0.5h1v1h-1v-0.5" fill="#2b2b2b" fill-opacity=".070588"/>
  <path d="m3 8.5v-0.5l0.375 0.125q0.375 0.125 0.5 0.5l0.125 0.375h-1v-0.5" fill="#e7e2b2" fill-opacity=".99608"/>
  <g>
   <path d="m3.875 8.625-0.125-0.375 0.1875 0.5625-0.0625-0.1875q-0.0625-0.1875-0.1875-0.3125l-0.125-0.125 0.125 0.125 0.625-0.625-0.125-0.125 0.125 0.125q0.125 0.125 0.3125 0.1875l0.1875 0.0625-0.5625-0.1875 0.75 0.25-0.5625-0.1875 0.1875 0.0625q0.1875 0.0625 0.40625 0.09375l0.21875 0.03125-0.21875-0.03125-0.14062 0.39062q-0.14062 0.39062-0.53125 0.53125l-0.39062 0.14062 0.03125 0.21875-0.03125-0.21875q-0.03125-0.21875-0.09375-0.40625l-0.0625-0.1875 0.1875 0.5625-0.125-0.375" fill="#a3a074"/>
   <path d="m4.8906 8.3594 0.14062-0.39062-0.21875-0.03125 0.21875 0.03125q0.21875 0.03125 0.46875 0.03125h0.25-0.75 1v1l-0.75 0.25 0.5625-0.1875-0.1875 0.0625q-0.1875 0.0625-0.3125 0.1875l-0.125 0.125 0.125-0.125-0.625-0.625-0.125 0.125 0.125-0.125q0.125-0.125 0.1875-0.3125l0.0625-0.1875-0.1875 0.5625 0.14062-0.39062" fill="#757462"/>
   <path d="m6 8.5v-0.5h1-0.75 0.25q0.25 0 0.46875 0.03125l0.21875 0.03125-0.21875-0.03125 0.28125 0.71875-0.1875-0.5625 0.0625 0.1875q0.0625 0.1875 0.1875 0.3125l0.125 0.125-0.125-0.125-0.65625 0.59375 0.09375 0.09375-0.09375-0.09375q-0.09375-0.09375-0.28125-0.15625l-0.1875-0.0625 0.5625 0.1875-0.75-0.25v-0.5" fill="#42423d"/>
   <path d="m7.1094 8.3906-0.14062-0.35938-0.21875-0.03125 0.21875 0.03125q0.21875 0.03125 0.40625 0.09375l0.1875 0.0625-0.5625-0.1875 0.375 0.125q0.375 0.125 0.5 0.5l0.125 0.375-0.1875-0.5625 0.0625 0.1875q0.0625 0.1875 0.09375 0.40625l0.03125 0.21875-0.03125-0.21875-0.35938-0.14062q-0.35938-0.14062-0.5-0.5" fill="#616246"/>
   <path d="m7.875 8.625-0.125-0.375 0.1875 0.5625-0.0625-0.1875q-0.0625-0.1875-0.1875-0.3125l-0.125-0.125 0.125 0.125 0.625-0.625-0.125-0.125 0.125 0.125q0.125 0.125 0.3125 0.1875l0.1875 0.0625-0.5625-0.1875 0.75 0.25v1h-1l-0.125-0.375" fill="#9fa636"/>
   <path d="m9 8.5v-0.5h1l0.25 0.75-0.1875-0.5625 0.0625 0.1875q0.0625 0.1875 0.1875 0.3125l0.125 0.125-0.125-0.125-0.625 0.625 0.125 0.125-0.125-0.125q-0.125-0.125-0.3125-0.1875l-0.1875-0.0625 0.5625 0.1875-0.75-0.25v-0.5" fill="#889119"/>
   <path d="m10.125 8.375-0.125-0.375h1v1l-0.375-0.125q-0.375-0.125-0.5-0.5" fill="#979f1f"/>
   <path d="m11 8.5v-0.5h1v1h-1v-0.5m0-0.625v0.875-0.25q0-0.25 0-0.5v-0.25 0.125" fill="#777938"/>
   <path d="m12 8.5v-0.5h1l-0.125 1.125 0.125 0.125-0.125-0.125q-0.125-0.125-0.375-0.125h-0.25 0.75-1v-0.5" fill="#585848"/>
   <path d="m12.938 8.5625 0.0625-0.5625h1-0.75 0.25q0.25 0 0.46875 0.03125l0.21875 0.03125-0.21875-0.03125 0.03125 0.96875-1.125 0.125 0.0625-0.5625" fill="#68684f"/>
   <path d="m13.984 8.5156-0.015625-0.48438-0.21875-0.03125 0.21875 0.03125q0.21875 0.03125 0.40625 0.09375l0.1875 0.0625-0.5625-0.1875 0.375 0.125q0.375 0.125 0.625 0.375l0.25 0.25-0.375-0.375 0.125 0.125q0.125 0.125 0.25 0.1875l0.125 0.0625-0.125-0.0625-0.5625 0.625 0.125 0.125-0.125-0.125q-0.125-0.125-0.3125-0.1875l-0.1875-0.0625 0.5625 0.1875-0.75-0.25-0.015625-0.48438" fill="#797a3c"/>
   <path d="m15 8.5-0.25-0.25 0.375 0.375-0.125-0.125q-0.125-0.125-0.28125-0.21875l-0.15625-0.09375 0.15625 0.09375 0.53125-0.59375-0.125-0.0625 0.125 0.0625q0.125 0.0625 0.25 0.0625h0.125-0.375 0.5-0.375 0.125q0.125 0 0.21875-0.09375l0.09375-0.09375-0.09375 0.09375 0.5625 0.625 0.15625-0.09375-0.15625 0.09375q-0.15625 0.09375-0.28125 0.21875l-0.125 0.125 0.375-0.375-0.25 0.25q-0.25 0.25-0.5 0.25t-0.5-0.25" fill="#787d20"/>
  </g>
  <path d="m16 8.5q0.25-0.25 0.625-0.375l0.375-0.125v1l-0.75 0.25 0.5625-0.1875-0.1875 0.0625q-0.1875 0.0625-0.34375 0.15625l-0.15625 0.09375 0.15625-0.09375-0.53125-0.59375-0.125 0.0625 0.125-0.0625q0.125-0.0625 0.25-0.1875l0.125-0.125-0.375 0.375 0.25-0.25" fill="#545913" fill-opacity=".68235"/>
  <path d="m2 9.5v-0.5h1v1h-1v-0.5" fill="#282828" fill-opacity=".07451"/>
  <path d="m3 9.5v-0.5h1v1h-1v-0.5" fill="#ded9ad" fill-opacity=".99608"/>
  <g>
   <path d="m4 9.5v-0.5 0.75-0.25q0-0.25-0.03125-0.46875l-0.03125-0.21875 0.03125 0.21875 0.78125-0.28125-0.5625 0.1875 0.1875-0.0625q0.1875-0.0625 0.3125-0.1875l0.125-0.125-0.125 0.125 0.625 0.625 0.125-0.125-0.125 0.125q-0.125 0.125-0.1875 0.3125l-0.0625 0.1875 0.1875-0.5625-0.25 0.75h-1v-0.5m0 0.125v0.625-0.25q0-0.25 0-0.5v-0.25 0.375" fill="#97978d"/>
   <path d="m5.125 9.625q0.125-0.375 0.5-0.5l0.375-0.125v1h-1l0.125-0.375" fill="#d8d8d8"/>
   <path d="m6 9.5v-0.5l0.375 0.125q0.375 0.125 0.375 0.375t-0.375 0.375l-0.375 0.125v-0.5" fill="#878787"/>
   <path d="m6.75 9.5v-0.25 0.375-0.125q0-0.125-0.09375-0.21875l-0.09375-0.09375 0.09375 0.09375 0.65625-0.59375-0.125-0.125 0.125 0.125q0.125 0.125 0.3125 0.1875l0.1875 0.0625-0.5625-0.1875 0.71875 0.28125-0.03125-0.21875 0.03125 0.21875q0.03125 0.21875 0.03125 0.46875v0.25-0.75 1l-0.75 0.25 0.5625-0.1875-0.1875 0.0625q-0.1875 0.0625-0.3125 0.1875l-0.125 0.125 0.125-0.125-0.65625-0.59375-0.09375 0.09375 0.09375-0.09375q0.09375-0.09375 0.09375-0.21875v-0.125 0.375-0.25m1.25 0.625v-0.875 0.25q0 0.25 0 0.5v0.25-0.125" fill="#54544b"/>
   <path d="m8 9.5v-0.5h1v1h-1v-0.5" fill="#929929"/>
   <path d="m9 9.5v-0.5l0.375 0.125q0.375 0.125 0.5 0.5l0.125 0.375h-1v-0.5" fill="#90991c"/>
   <path d="m9.875 9.625-0.125-0.375 0.1875 0.5625-0.0625-0.1875q-0.0625-0.1875-0.1875-0.3125l-0.125-0.125 0.125 0.125 0.625-0.625-0.125-0.125 0.125 0.125q0.125 0.125 0.3125 0.1875l0.1875 0.0625-0.5625-0.1875 0.75 0.25v1h-1l-0.125-0.375" fill="#a5a73c"/>
   <path d="m11 9.5v-0.5h1v1h-1v-0.5" fill="#b7b89a"/>
   <path d="m12 9.5v-0.5h0.5q0.5 0 0.5 0.5v0.5h-1v-0.5" fill="#d8d8d8"/>
   <path d="m13 9.5v-0.5 0.75-0.25q0-0.25-0.125-0.375l-0.125-0.125 0.125 0.125 1.125-0.125v1h-1v-0.5" fill="#202020"/>
   <path d="m14 9.5v-0.5l0.375 0.125q0.375 0.125 0.5 0.5l0.125 0.375-0.1875-0.5625 0.0625 0.1875q0.0625 0.1875 0.09375 0.40625l0.03125 0.21875-0.03125-0.21875-0.96875-0.03125v-0.5" fill="#878784"/>
   <path d="m14.875 9.625-0.125-0.375 0.1875 0.5625-0.0625-0.1875q-0.0625-0.1875-0.1875-0.3125l-0.125-0.125 0.125 0.125 0.5625-0.625-0.125-0.0625 0.125 0.0625q0.125 0.0625 0.25 0.0625h0.125-0.375 0.5-0.375 0.125q0.125 0 0.25-0.0625l0.125-0.0625-0.125 0.0625 0.53125 0.59375 0.15625-0.09375-0.15625 0.09375q-0.15625 0.09375-0.28125 0.21875l-0.125 0.125 0.375-0.375-0.25 0.25q-0.25 0.25-0.625 0.375l-0.375 0.125-0.125-0.375" fill="#676823"/>
  </g>
  <path d="m16 9.5q0.25-0.25 0.625-0.375l0.375-0.125v1l-0.75 0.25 0.5625-0.1875-0.1875 0.0625q-0.1875 0.0625-0.3125 0.1875l-0.125 0.125 0.125-0.125-0.59375-0.59375-0.15625 0.09375 0.15625-0.09375q0.15625-0.09375 0.28125-0.21875l0.125-0.125-0.375 0.375 0.25-0.25" fill="#43440d" fill-opacity=".70196"/>
  <path d="m2 10.5v-0.5h1v1h-0.5q-0.5 0-0.5-0.5" fill="#1a1a1a" fill-opacity=".039216"/>
  <path d="m3 10.5v-0.5h1v1h-1v-0.5" fill="#e7e2b8" fill-opacity=".98431"/>
  <g>
   <path d="m4 10.5v-0.5h1v1h-1v-0.5m0 0.125v0.625-0.25q0-0.25 0-0.5v-0.25 0.375m0-0.75v0.875-0.25q0-0.25 0-0.5v-0.25 0.125" fill="#dfdecc"/>
   <path d="m5 10.5v-0.5h1v1h-1v-0.5" fill="#a17649"/>
   <path d="m6 10.5v-0.5l0.75-0.25-0.5625 0.1875 0.1875-0.0625q0.1875-0.0625 0.28125-0.15625l0.09375-0.09375-0.09375 0.09375 0.65625 0.59375 0.125-0.125-0.125 0.125q-0.125 0.125-0.1875 0.3125l-0.0625 0.1875 0.1875-0.5625-0.25 0.75h-1v-0.5" fill="#382c20"/>
   <path d="m7.125 10.625q0.125-0.375 0.5-0.5l0.375-0.125v1h-1l0.125-0.375m0.875-0.25v-0.625 0.25q0 0.25 0 0.5v0.25-0.375" fill="#a79371"/>
   <path d="m8 10.5v-0.5h1v1h-1v-0.5" fill="#9ba130"/>
   <path d="m9 10.5v-0.5h1v1h-1v-0.5m0.625 0.5h0.625-0.25q-0.25 0-0.5 0h-0.25 0.375" fill="#9aa225"/>
   <path d="m10 10.5v-0.5 0.75-0.25q0-0.25-0.03125-0.46875l-0.03125-0.21875 0.03125 0.21875 1.0312-0.03125v1h-1v-0.5m-0.125 0.5h0.875-0.25q-0.25 0-0.5 0h-0.25 0.125m0.75 0h0.625-0.25q-0.25 0-0.5 0h-0.25 0.375" fill="#8e9134"/>
   <path d="m11 10.5v-0.5h1v1h-1v-0.5m-0.125 0.5h0.875-0.25q-0.25 0-0.5 0h-0.25 0.125" fill="#a49063"/>
   <path d="m12 10.5v-0.5h1v1h-1v-0.5" fill="#756b61"/>
   <path d="m13 10.5v-0.5h1v1h-1v-0.5" fill="#4a3827"/>
   <path d="m14 10.5v-0.5l0.96875 0.03126-0.015625-0.10938-0.015625-0.10938 0.03125 0.21875q0.03125 0.21875 0.03125 0.46875v0.25-0.75 1h-1v-0.5m1 0.625v-0.875 0.25q0 0.25 0 0.5v0.25-0.125" fill="#c5c2bc"/>
   <path d="m15 10.5v-0.5l0.75-0.25-0.5625 0.1875 0.1875-0.0625q0.1875-0.0625 0.34375-0.15625l0.15625-0.09375-0.15625 0.09375 0.59375 0.59375 0.125-0.125-0.125 0.125q-0.125 0.125-0.1875 0.3125l-0.0625 0.1875 0.1875-0.5625-0.25 0.75h-1v-0.5" fill="#71732d"/>
  </g>
  <path d="m16.125 10.625q0.125-0.375 0.5-0.5l0.375-0.125v1h-1l0.125-0.375m-0.03125 0.09375-0.15625 0.46875 0.0625-0.1875q0.0625-0.1875 0.125-0.375l0.0625-0.1875-0.09375 0.28125" fill="#414112" fill-opacity=".54118"/>
  <path d="m3 11.5v-0.5h1v1h-1v-0.5m0 0.125v0.625-0.25q0-0.25 0-0.5v-0.25 0.375" fill="#dad4af" fill-opacity=".8549"/>
  <g>
   <path d="m4 11.5v-0.5h1v1h-1v-0.5m0-0.625v0.875-0.25q0-0.25 0-0.5v-0.25 0.125" fill="#deca97"/>
   <path d="m5 11.5v-0.5h1v1h-1v-0.5m0.625 0.5h0.625-0.25q-0.25 0-0.5 0h-0.25 0.375" fill="#d8926a"/>
   <path d="m6 11.5v-0.5h1v1h-1v-0.5m-0.125 0.5h0.875-0.25q-0.25 0-0.5 0h-0.25 0.125" fill="#ca804b"/>
   <path d="m7 11.5v-0.5h1v1h-1v-0.5" fill="#a6a557"/>
   <path d="m8 11.5v-0.5h1v1h-1v-0.5" fill="#ad9546"/>
   <path d="m9 11.5v-0.5h1v1h-1v-0.5" fill="#ac9751"/>
   <path d="m10 11.5v-0.5h1l0.25 0.75-0.1875-0.5625 0.0625 0.1875q0.0625 0.1875 0.1875 0.3125l0.125 0.125-0.125-0.125-0.625 0.625 0.125 0.125-0.125-0.125q-0.125-0.125-0.3125-0.1875l-0.1875-0.0625 0.5625 0.1875-0.75-0.25v-0.5" fill="#988547"/>
   <path d="m11.125 11.375-0.125-0.375h1v1l-0.375-0.125q-0.375-0.125-0.5-0.5" fill="#b4a265"/>
   <path d="m12 11.5v-0.5h1v1l-0.96875-0.03126 0.03126 0.21875-0.03125-0.21875q-0.03126-0.21874-0.03126-0.46874v-0.25 0.75-0.5m0.625 0.5h0.625-0.25q-0.25 0-0.5 0h-0.25 0.375" fill="#c07633"/>
   <path d="m13 11.5v-0.5h1v1h-1v-0.5m-0.125 0.5h0.875-0.25q-0.25 0-0.5 0h-0.25 0.125" fill="#bfa586"/>
   <path d="m14 11.5v-0.5h1v1h-1v-0.5m1-0.125v-0.625 0.25q0 0.25 0 0.5v0.25-0.375" fill="#b3b17b"/>
  </g>
  <path d="m15 11.5v-0.5h1l-0.125 0.375q-0.125 0.375-0.5 0.5l-0.375 0.125v-0.5" fill="#656728" fill-opacity=".72157"/>
  <path d="m15.875 11.375 0.125-0.375h1v1l-0.75 0.25 0.5625-0.1875-0.1875 0.0625q-0.1875 0.0625-0.34375 0.15625l-0.15625 0.09375 0.15625-0.09375-0.59375-0.59375-0.125 0.125 0.125-0.125q0.125-0.125 0.1875-0.3125l0.0625-0.1875-0.1875 0.5625 0.125-0.375m0.15625-0.46875-0.21875 0.65625 0.0625-0.1875q0.0625-0.1875 0.125-0.375l0.0625-0.1875-0.03125 0.09375" fill="#131309" fill-opacity=".10588"/>
  <path d="m3 12.5v-0.5h1v1l-0.96875-0.03125 0.03125 0.21875-0.03125-0.21875q-0.03125-0.21875-0.03125-0.46875v-0.25 0.75-0.5m1 0.625v-0.875 0.25q0 0.25 0 0.5v0.25-0.125m-1-1.25v0.875-0.25q0-0.25 0-0.5v-0.25 0.125" fill="#a39e88" fill-opacity=".59608"/>
  <g>
   <path d="m4 12.5v-0.5h1v1h-1v-0.5" fill="#d0c47e"/>
   <path d="m5 12.5v-0.5h1v1h-1v-0.5m0 0.125v0.625-0.25q0-0.25 0-0.5v-0.25 0.375" fill="#b6a349"/>
   <path d="m6 12.5v-0.5h1v1h-1v-0.5" fill="#ad9a43"/>
   <path d="m7 12.5v-0.5h1v1h-1v-0.5" fill="#b3b24c"/>
   <path d="m8 12.5v-0.5h1l0.25 0.75-0.1875-0.5625 0.0625 0.1875q0.0625 0.1875 0.15625 0.28125l0.09375 0.09375-0.09375-0.09375-0.59375 0.65625 0.125 0.125-0.125-0.125q-0.125-0.125-0.3125-0.1875l-0.1875-0.0625 0.5625 0.1875-0.75-0.25v-0.5m1.125-0.5h-0.875 0.25q0.25 0 0.5 0h0.25-0.125" fill="#dc9994"/>
   <path d="m9.125 12.375-0.125-0.375h1-0.75 0.25q0.25 0 0.46875 0.03125l0.21875 0.03125-0.21875-0.03125-0.10938 0.35938q-0.10938 0.35938-0.35938 0.35938t-0.375-0.375m0.25-0.375h-0.625 0.25q0.25 0 0.5 0h0.25-0.375" fill="#fb9faa"/>
   <path d="m9.8594 12.391 0.10938-0.35938-0.21875-0.03125 0.21875 0.03125q0.21875 0.03125 0.40625 0.09375l0.1875 0.0625-0.5625-0.1875 0.375 0.125q0.375 0.125 0.5 0.5l0.125 0.375-0.75 0.25 0.5625-0.1875-0.1875 0.0625q-0.1875 0.0625-0.3125 0.1875l-0.125 0.125 0.125-0.125-0.59375-0.65625-0.09375 0.09375 0.09375-0.09375q0.09375-0.09375 0.15625-0.28125l0.0625-0.1875-0.1875 0.5625 0.10938-0.35938m1.1719 0.70312-0.21875-0.65625 0.0625 0.1875q0.0625 0.1875 0.125 0.375l0.0625 0.1875-0.03125-0.09375" fill="#d38e89"/>
   <path d="m10.875 12.625-0.125-0.375 0.1875 0.5625-0.0625-0.1875q-0.0625-0.1875-0.1875-0.3125l-0.125-0.125 0.125 0.125 0.625-0.625-0.125-0.125 0.125 0.125q0.125 0.125 0.3125 0.1875l0.1875 0.0625-0.5625-0.1875 0.75 0.25 0.25 0.75-0.1875-0.5625 0.0625 0.1875q0.0625 0.1875 0.1875 0.3125l0.125 0.125-0.125-0.125-0.59375 0.59375 0.07813 0.04687 0.07812 0.04688-0.15625-0.09375q-0.15625-0.09375-0.34375-0.15625l-0.1875-0.0625 0.5625 0.1875-0.75-0.25-0.125-0.375" fill="#a49e5e"/>
   <path d="m12.125 12.375-0.125-0.375 0.1875 0.5625-0.0625-0.1875q-0.0625-0.1875-0.09375-0.40625l-0.03125-0.21875 0.03126 0.21875 0.96874 0.03125v1l-0.375-0.125q-0.375-0.125-0.5-0.5" fill="#b98c5e"/>
   <path d="m13 12.5v-0.5h1v1h-1v-0.5m0.625 0.5h0.625-0.25q-0.25 0-0.5 0h-0.25 0.375" fill="#c68f68"/>
  </g>
  <path d="m14 12.5v-0.5h1v1h-1v-0.5m-0.125 0.5h0.875-0.25q-0.25 0-0.5 0h-0.25 0.125" fill="#b0985f" fill-opacity=".99608"/>
  <path d="m15 12.5v-0.5l0.75-0.25-0.5625 0.1875 0.1875-0.0625q0.1875-0.0625 0.3125-0.1875l0.125-0.125-0.125 0.125 0.59375 0.59375 0.15626-0.09374-0.15625 0.09375q-0.15626 0.09374-0.28126 0.21874l-0.125 0.125 0.375-0.375-0.25 0.25q-0.25 0.25-0.625 0.375l-0.375 0.125v-0.5" fill="#413d2b" fill-opacity=".32549"/>
  <path d="m16 12.5q0.25-0.25 0.625-0.375l0.375-0.125v5h-4v-1l0.375-0.125q0.375-0.125 0.625-0.375t0.5-0.5 0.375-0.625l0.125-0.375-0.1875 0.5625 0.0625-0.1875q0.0625-0.1875 0.09375-0.40625l0.03125-0.21875-0.03126 0.21875 0.51562 0.01563q0.51564 0.01562 0.64064-0.35938t-0.14062-0.64062l-0.26562-0.26562-0.15626 0.09374 0.15625-0.09375q0.15626-0.09374 0.28126-0.21874l0.125-0.125-0.375 0.375 0.25-0.25" fill-opacity="0"/>
  <path d="m3.125 13.375-0.125-0.375 0.1875 0.5625-0.0625-0.1875q-0.0625-0.1875-0.09375-0.40625l-0.03125-0.21875 0.03125 0.21875 0.96875 0.03125v1l-0.375-0.125q-0.375-0.125-0.5-0.5m0.875 0v-0.625 0.25q0 0.25 0 0.5v0.25-0.375" fill="#43433d" fill-opacity=".18039"/>
  <path d="m4 13.5v-0.5h1v1-0.75 0.25q0 0.25 0.03125 0.46875l0.03125 0.21875-0.03125-0.21875-1.0312 0.03125v-0.5" fill="#d7d594" fill-opacity=".97647"/>
  <g>
   <path d="m5 13.5v-0.5h1v1h-1v-0.5m1.125-0.5h-0.875 0.25q0.25 0 0.5 0h0.25-0.125m-1.125-0.125v0.875-0.25q0-0.25 0-0.5v-0.25 0.125" fill="#b3b742"/>
   <path d="m6 13.5v-0.5h1v1-0.75 0.25q0 0.25-0.03125 0.46875l-0.03125 0.21875 0.03125-0.21875-0.96875 0.03125v-0.5m0 0.125v0.625-0.25q0-0.25 0-0.5v-0.25 0.375m0.375-0.625h-0.625 0.25q0.25 0 0.5 0h0.25-0.375" fill="#a9a759"/>
   <path d="m7 13.5v-0.5h1l0.25 0.75-0.1875-0.5625 0.0625 0.1875q0.0625 0.1875 0.1875 0.3125l0.125 0.125-0.125-0.125-0.625 0.625 0.125 0.125-0.125-0.125q-0.125-0.125-0.3125-0.1875l-0.1875-0.0625 0.5625 0.1875-0.75-0.25v-0.5" fill="#c1ba95"/>
   <path d="m8.125 13.375-0.125-0.375 0.375 0.125q0.375 0.125 0.51562 0.48438l0.14062 0.35938 0.21875 0.03125-0.21875-0.03125q-0.21875-0.03125-0.40625-0.09375l-0.1875-0.0625 0.5625 0.1875-0.375-0.125q-0.375-0.125-0.5-0.5" fill="#c9b19e"/>
   <path d="m8.8906 13.609-0.14062-0.35938 0.1875 0.5625-0.0625-0.1875q-0.0625-0.1875-0.1875-0.3125l-0.125-0.125 0.125 0.125 0.59375-0.65625-0.09375-0.09375 0.09375 0.09375q0.09375 0.09375 0.21875 0.09375h0.125-0.375 0.5-0.375 0.125q0.125 0 0.21875-0.09375l0.09375-0.09375-0.09375 0.09375 0.59375 0.65625 0.125-0.125-0.125 0.125q-0.125 0.125-0.1875 0.3125l-0.0625 0.1875 0.1875-0.5625-0.25 0.75 0.1875-0.5625-0.0625 0.1875q-0.0625 0.1875-0.0625 0.375v0.1875-0.1875h-1.0625 0.75-0.25q-0.25 0-0.46875-0.03125l-0.21875-0.03125 0.21875 0.03125-0.14062-0.35938" fill="#dea6a4"/>
   <path d="m10.125 13.625q0.125-0.375 0.5-0.5l0.375-0.125 0.25 0.75-0.1875-0.5625 0.0625 0.1875q0.0625 0.1875 0.15625 0.34375l0.09375 0.15625-0.09375-0.15625-0.59375 0.59375 0.125 0.125-0.125-0.125q-0.125-0.125-0.3125-0.1875l-0.1875-0.0625 0.5625 0.1875-0.75-0.25 0.125-0.375m0.96875-0.34375-0.15625-0.46875 0.0625 0.1875q0.0625 0.1875 0.125 0.375l0.0625 0.1875-0.09375-0.28125" fill="#b4a37c"/>
   <path d="m11.125 13.375-0.125-0.375 0.375 0.125q0.375 0.125 0.625 0.375l0.25 0.25-0.375-0.375 0.125 0.125q0.125 0.125 0.25 0.1875l0.125 0.0625-0.125-0.0625-0.5 0.5625-0.25-0.25q-0.25-0.25-0.375-0.625m0.4375 0.6875 0.3125 0.3125-0.125-0.125q-0.125-0.125-0.25-0.25l-0.125-0.125 0.1875 0.1875" fill="#a39f56"/>
   <path d="m12 13.5-0.25-0.25 0.375 0.375-0.125-0.125q-0.125-0.125-0.28125-0.21875l-0.15625-0.09375 0.15626 0.09374 0.59374-0.59374-0.125-0.125 0.125 0.125q0.125 0.125 0.3125 0.1875l0.1875 0.0625-0.5625-0.1875 0.75 0.25-0.125 0.375q-0.125 0.375-0.375 0.375t-0.5-0.25" fill="#9d9c4b"/>
   <path d="m12.875 13.375 0.125-0.375h1l-0.125 0.375q-0.125 0.375-0.375 0.625l-0.25 0.25-0.53125-0.59375-0.09375 0.09375 0.09375-0.09375q0.09375-0.09375 0.15625-0.28125l0.0625-0.1875-0.1875 0.5625 0.125-0.375m0.3125 0.9375 0.4375-0.4375-0.125 0.125q-0.125 0.125-0.25 0.25l-0.125 0.125 0.0625-0.0625" fill="#979842"/>
  </g>
  <path d="m13.875 13.375 0.125-0.375h1v1-0.75 0.25q0 0.25-0.03125 0.46875l-0.03125 0.21875 0.03125-0.21875-0.71875 0.28125 0.5625-0.1875-0.1875 0.0625q-0.1875 0.0625-0.34375 0.15625l-0.15625 0.09375 0.15625-0.09375-0.5625-0.5625-0.09375 0.15625 0.09375-0.15625q0.09375-0.15625 0.15625-0.34375l0.0625-0.1875-0.1875 0.5625 0.125-0.375" fill="#94944a" fill-opacity=".92941"/>
  <path d="m15 13.5v-0.5l0.75-0.25-0.5625 0.1875 0.1875-0.0625q0.1875-0.0625 0.34375-0.15625l0.15625-0.09375-0.15626 0.09374 0.26562 0.26562q0.26564 0.26564 0.14064 0.64064t-0.64062 0.35938l-0.51562-0.015625-0.03125 0.21875 0.03125-0.21875q0.03125-0.21875 0.03125-0.46875v-0.25 0.75-0.5" fill-opacity=".027451"/>
  <path d="m4.125 14.375-0.125-0.375 1.0312-0.03125-0.03125-0.21875 0.03125 0.21875q0.03125 0.21875 0.09375 0.40625l0.0625 0.1875-0.1875-0.5625 0.25 0.75-0.1875-0.5625 0.0625 0.1875q0.0625 0.1875 0.1875 0.3125l0.125 0.125-0.125-0.125-0.5625 0.5625-0.25-0.25q-0.25-0.25-0.375-0.625m0.4375 0.6875 0.3125 0.3125-0.125-0.125q-0.125-0.125-0.25-0.25l-0.125-0.125 0.1875 0.1875" fill="#767355" fill-opacity=".4"/>
  <path d="m5.125 14.375-0.125-0.375h1v1l-0.375-0.125q-0.375-0.125-0.5-0.5" fill="#b6b748" fill-opacity=".99216"/>
  <g>
   <path d="m6 14.5v-0.5l0.96875-0.03125 0.03125-0.21875-0.03125 0.21875q-0.03125 0.21875-0.09375 0.40625l-0.0625 0.1875 0.1875-0.5625-0.125 0.375q-0.125 0.375-0.5 0.5l-0.375 0.125v-0.5m0-0.625v0.875-0.25q0-0.25 0-0.5v-0.25 0.125" fill="#bbb67e"/>
   <path d="m6.875 14.375 0.125-0.375 0.375 0.125q0.375 0.125 0.5 0.5l0.125 0.375-0.75 0.25 0.5625-0.1875-0.1875 0.0625q-0.1875 0.0625-0.28125 0.15625l-0.09375 0.09375 0.09375-0.09375-0.65625-0.59375-0.125 0.125 0.125-0.125q0.125-0.125 0.1875-0.3125l0.0625-0.1875-0.1875 0.5625 0.125-0.375" fill="#c8c0a3"/>
   <path d="m7.875 14.625-0.125-0.375 0.1875 0.5625-0.0625-0.1875q-0.0625-0.1875-0.1875-0.3125l-0.125-0.125 0.125 0.125 0.625-0.625-0.125-0.125 0.125 0.125q0.125 0.125 0.3125 0.1875l0.1875 0.0625-0.5625-0.1875 0.75 0.25v1h-1l-0.125-0.375" fill="#c4bba0"/>
   <path d="m9 14.5v-0.5h1l0.25 0.75-0.1875-0.5625 0.0625 0.1875q0.0625 0.1875 0.1875 0.3125l0.125 0.125-0.125-0.125-0.59375 0.59375 0.15625 0.09375-0.15625-0.09375q-0.15625-0.09375-0.34375-0.15625l-0.1875-0.0625 0.5625 0.1875-0.75-0.25v-0.5" fill="#c1b99e"/>
   <path d="m10.125 14.375-0.125-0.375 0.375 0.125q0.375 0.125 0.5 0.5l0.125 0.375-0.375-0.125q-0.375-0.125-0.5-0.5" fill="#b9b28c"/>
   <path d="m10.875 14.625-0.125-0.375 0.1875 0.5625-0.0625-0.1875q-0.0625-0.1875-0.1875-0.3125l-0.125-0.125 0.125 0.125 0.59375-0.59375-0.09374-0.15626 0.09375 0.15625q0.09374 0.15626 0.21874 0.28126l0.125 0.125-0.375-0.375 0.25 0.25q0.25 0.25 0.5 0.5l0.25 0.25-0.375-0.375 0.125 0.125q0.125 0.125 0.25 0.1875l0.125 0.0625-0.125-0.0625-0.5625 0.625 0.125 0.125-0.125-0.125q-0.125-0.125-0.3125-0.1875l-0.1875-0.0625 0.5625 0.1875-0.75-0.25-0.125-0.375" fill="#b1ab72"/>
   <path d="m12 14.5-0.25-0.25 0.5-0.5625-0.125-0.0625 0.125 0.0625q0.125 0.0625 0.25 0.0625h0.125-0.375 0.5-0.375 0.125q0.125 0 0.21875-0.09375l0.09375-0.09375-0.09374 0.09374 0.26562 0.29688 0.26562 0.29688-0.25 0.25q-0.25 0.25-0.5 0.25t-0.5-0.25m1.0625-0.0625 0.3125-0.3125-0.125 0.125q-0.125 0.125-0.25 0.25l-0.125 0.125 0.1875-0.1875m-1.375-0.25 0.4375 0.4375-0.125-0.125q-0.125-0.125-0.25-0.25l-0.125-0.125 0.0625 0.0625" fill="#a09f53"/>
  </g>
  <path d="m13 14.5q0.25-0.25 0.5-0.5l0.25-0.25-0.375 0.375 0.125-0.125q0.125-0.125 0.21875-0.28125l0.09375-0.15625-0.09374 0.15626 0.56249 0.56249 0.15626-0.09374-0.15625 0.09375q-0.15626 0.09374-0.28126 0.21874l-0.125 0.125 0.375-0.375-0.25 0.25q-0.25 0.25-0.5 0.5l-0.25 0.25 0.375-0.375-0.125 0.125q-0.125 0.125-0.21875 0.28125l-0.09375 0.15625 0.09374-0.15626-0.53124-0.59374-0.125 0.0625 0.125-0.0625q0.125-0.0625 0.25-0.1875l0.125-0.125-0.375 0.375 0.25-0.25" fill="#9f9e59" fill-opacity=".99608"/>
  <path d="m14 14.5q0.25-0.25 0.60938-0.39062l0.35938-0.14062 0.03125-0.21875-0.03125 0.21875q-0.03125 0.21875-0.09375 0.40625l-0.0625 0.1875 0.1875-0.5625-0.125 0.375q-0.125 0.375-0.375 0.625l-0.25 0.25-0.5-0.5 0.25-0.25m-0.0625 0.0625-0.3125 0.3125 0.125-0.125q0.125-0.125 0.25-0.25l0.125-0.125-0.1875 0.1875m0.25 0.75 0.4375-0.4375-0.125 0.125q-0.125 0.125-0.25 0.25l-0.125 0.125 0.0625-0.0625" fill="#6c6a5b" fill-opacity=".47059"/>
  <path d="m5 15.5-0.25-0.25 0.5625-0.5625-0.125-0.125 0.125 0.125q0.125 0.125 0.3125 0.1875l0.1875 0.0625-0.5625-0.1875 0.75 0.25v1l-0.375-0.125q-0.375-0.125-0.625-0.375m0.71875 0.40625 0.46875 0.15625-0.1875-0.0625q-0.1875-0.0625-0.375-0.125l-0.1875-0.0625 0.28125 0.09375m-1.0312-0.71875 0.4375 0.4375-0.125-0.125q-0.125-0.125-0.25-0.25l-0.125-0.125 0.0625 0.0625" fill="#646137" fill-opacity=".38039"/>
  <path d="m6 15.5v-0.5l0.75-0.25-0.5625 0.1875 0.1875-0.0625q0.1875-0.0625 0.3125-0.1875l0.125-0.125-0.125 0.125 0.65625 0.59375 0.09375-0.09375-0.09375 0.09375q-0.09375 0.09375-0.09375 0.21875v0.125-0.375 0.5-0.375 0.125q0 0.125 0.09375 0.21875l0.09375 0.09375-0.09375-0.09375-0.65625 0.59375 0.125 0.125-0.125-0.125q-0.125-0.125-0.3125-0.1875l-0.1875-0.0625 0.5625 0.1875-0.75-0.25v-0.5m-0.09375 0.46875 0.65625 0.21875-0.1875-0.0625q-0.1875-0.0625-0.375-0.125l-0.1875-0.0625 0.09375 0.03125" fill="#c0b8a0" fill-opacity=".85098"/>
  <g>
   <path d="m7.25 15.5q0-0.25 0.375-0.375l0.375-0.125v1l-0.375-0.125q-0.375-0.125-0.375-0.375" fill="#cfc8af"/>
   <path d="m8 15.5v-0.5h1v1h-1v-0.5" fill="#c7c0a7"/>
   <path d="m9 15.5v-0.5l0.375 0.125q0.375 0.125 0.625 0.375l0.25 0.25-0.375-0.375 0.125 0.125q0.125 0.125 0.28125 0.21875l0.15625 0.09375-0.15625-0.09375-0.59375 0.59375 0.125 0.125-0.125-0.125q-0.125-0.125-0.3125-0.1875l-0.1875-0.0625 0.5625 0.1875-0.75-0.25v-0.5" fill="#c5bea7"/>
   <path d="m10 15.5-0.25-0.25 0.375 0.375-0.125-0.125q-0.125-0.125-0.28125-0.21875l-0.15625-0.09375 0.15625 0.09375 0.59375-0.59375-0.125-0.125 0.125 0.125q0.125 0.125 0.3125 0.1875l0.1875 0.0625-0.5625-0.1875 0.75 0.25v1l-0.375-0.125q-0.375-0.125-0.625-0.375" fill="#c0b89b"/>
   <path d="m11 15.5v-0.5l0.375 0.125q0.375 0.125 0.5 0.5l0.125 0.375h-1v-0.5" fill="#b7b17b"/>
  </g>
  <path d="m11.875 15.625-0.125-0.375 0.1875 0.5625-0.0625-0.1875q-0.0625-0.1875-0.1875-0.3125l-0.125-0.125 0.125 0.125 0.5625-0.625-0.125-0.0625 0.125 0.0625q0.125 0.0625 0.25 0.0625h0.125-0.375 0.5-0.375 0.125q0.125 0 0.25-0.0625l0.125-0.0625-0.125 0.0625 0.53125 0.59375 0.04687-0.07813 0.04688-0.07812-0.09375 0.15625q-0.09375 0.15625-0.15625 0.34375l-0.0625 0.1875 0.1875-0.5625-0.28125 0.71875 0.21875-0.03125-0.21875 0.03125q-0.21875 0.03125-0.46875 0.03125h-0.25 0.75-1l-0.125-0.375" fill="#a09f69" fill-opacity=".83529"/>
  <path d="m13.109 15.609q0.14062-0.35938 0.39062-0.60938l0.25-0.25 0.5 0.5-0.25 0.25q-0.25 0.25-0.625 0.375l-0.375 0.125 0.5625-0.1875-0.1875 0.0625q-0.1875 0.0625-0.40625 0.09375l-0.21875 0.03125 0.21875-0.03126 0.14062-0.35938m0.95312-0.17186 0.3125-0.3125-0.125 0.125q-0.125 0.125-0.25 0.25l-0.125 0.125 0.1875-0.1875m-0.25-0.75-0.4375 0.4375 0.125-0.125q0.125-0.125 0.25-0.25l0.125-0.125-0.0625 0.0625" fill="#58584f" fill-opacity=".34118"/>
  <path d="m6 16.5v-0.5l0.375 0.125q0.375 0.125 0.5 0.5l0.125 0.375h-1v-0.5" fill="#1e1e1e" fill-opacity=".066667"/>
  <path d="m6.875 16.625-0.125-0.375 0.1875 0.5625-0.0625-0.1875q-0.0625-0.1875-0.1875-0.3125l-0.125-0.125 0.125 0.125 0.65625-0.59375-0.09375-0.09375 0.09375 0.09375q0.09375 0.09375 0.28125 0.15625l0.1875 0.0625-0.5625-0.1875 0.75 0.25v1h-1l-0.125-0.375" fill="#9b988d" fill-opacity=".61176"/>
  <path d="m8 16.5v-0.5h1v1h-1v-0.5" fill="#cac3b3" fill-opacity=".86275"/>
  <path d="m9 16.5v-0.5l0.375 0.125q0.375 0.125 0.5 0.5l0.125 0.375h-1v-0.5" fill="#c6bfaf" fill-opacity=".85882"/>
  <path d="m9.875 16.625-0.125-0.375 0.1875 0.5625-0.0625-0.1875q-0.0625-0.1875-0.1875-0.3125l-0.125-0.125 0.125 0.125 0.59375-0.59375-0.15625-0.09375 0.15625 0.09375q0.15625 0.09375 0.34375 0.15625l0.1875 0.0625-0.5625-0.1875 0.75 0.25v1h-1l-0.125-0.375" fill="#a29e92" fill-opacity=".66667"/>
  <path d="m11 16.5v-0.5h1v1h-1v-0.5m1.125-0.5h-0.875 0.25q0.25 0 0.5 0h0.25-0.125" fill="#4c493c" fill-opacity=".30196"/>
  <path d="m12 16.5v-0.5h1v1h-1v-0.5m0.375-0.5h-0.625 0.25q0.25 0 0.5 0h0.25-0.375" fill="#101010" fill-opacity=".062745"/>
 </g>
</svg>
