<svg width="17" height="18" version="1.1" viewBox="0 0 17 18" xmlns="http://www.w3.org/2000/svg">
 <g transform="translate(0)">
  <path d="m0 0.5v-0.5h4v0.5q0 0.5 0.125 0.875l0.125 0.375-0.1875-0.5625 0.0625 0.1875q0.0625 0.1875 0.15625 0.28125l0.09375 0.09375-0.09375-0.09375-0.26562 0.29688q-0.26562 0.29688-0.64062 0.17188t-0.875-0.125-1 0-0.5 0.5v0.5h-1v-2.5" fill-opacity="0"/>
  <path d="m4 0.5v-0.5h1v1l-0.96875-0.03125 0.03125 0.21875-0.03125-0.21875q-0.03125-0.21875-0.03125-0.46875v-0.25 0.75-0.5" fill="#3e3e3f"/>
  <path d="m5 0.5v-0.5h1v1h-1v-0.5" fill="#2a2a2a"/>
  <path d="m6 0.5v-0.5h2v1h-0.5q-0.5 0-1 0h-0.5v-0.5" fill-opacity="0"/>
  <path d="m8 0.5v-0.5h6v1h-0.5q-0.5 0-1 0t-1 0-1 0-1 0-1 0h-0.5v-0.5"/>
  <path d="m14 0.5v-0.5h3v2h-1v-0.5q0-0.5-0.5-0.5t-1 0h-0.5v-0.5" fill-opacity="0"/>
  <g>
   <path d="m4.125 1.375-0.125-0.375 0.1875 0.5625-0.0625-0.1875q-0.0625-0.1875-0.09375-0.40625l-0.03125-0.21875 0.03125 0.21875 0.96875 0.03125-0.125 0.375q-0.125 0.375-0.375 0.375t-0.375-0.375m1-0.375h-0.875 0.25q0.25 0 0.5 0h0.25-0.125" fill="#9e9e9e"/>
   <path d="m4.875 1.375 0.125-0.375h1.5q0.5 0 1 0h0.5v0.5q0 0.5-0.5 0.5t-1 0-0.875 0.125-0.5 0.5-0.625 0.375-1 0-1 0-1 0h-0.5v-0.5q0-0.5 0.5-0.5t1 0 0.875 0.125 0.64062-0.17188l0.26562-0.29688-0.09375-0.09375 0.09375 0.09375q0.09375 0.09375 0.21875 0.09375h0.125-0.375 0.25q0.25 0 0.375-0.375"/>
   <path d="m8 1.5v-0.5h0.5q0.5 0 1 0t1 0 1 0 1 0 1 0h0.5v0.5q0 0.5 0.5 0.5t1 0h0.5v0.5q0 0.5 0 1t0 1v0.5h-0.5q-0.5 0-0.5 0.5v0.5h-0.5q-0.5 0-0.875-0.125t-0.5-0.5-0.5-0.5-0.5-0.5-0.625-0.375-1 0-1 0-1 0-1 0-1 0-1 0-0.625 0.375-0.5 0.5-0.5 0.5-0.5 0.5-0.875 0.125h-0.5v-0.5q0-0.5-0.5-0.5h-0.5v-0.5q0-0.5 0-1v-0.5h0.5q0.5 0 1 0t1 0 1 0 0.625-0.375 0.5-0.5 0.875-0.125 1 0 0.5-0.5" fill="#0f0f0f"/>
  </g>
  <g>
   <path d="m14 1.5v-0.5h0.5q0.5 0 1 0t0.5 0.5v0.5h-0.5q-0.5 0-1 0t-0.5-0.5"/>
   <path d="m16 2.5v-0.5h1v3h-1v-0.5q0-0.5 0-1t0-1"/>
   <path d="m0 3.5v-0.5h1v0.5q0 0.5 0 1v0.5h-1v-1.5"/>
   <path d="m4.875 4.375q0.125-0.375 0.625-0.375t1 0 1 0 1 0 1 0 1 0 1 0 0.625 0.375 0.5 0.5 0.5 0.5 0.5 0.5 0.875 0.125h0.5l0.125 0.375q0.125 0.375 0.5 0.5t0.375 0.625 0.125 0.875 0.5 0.5l0.375 0.125v4l-0.375 0.125q-0.375 0.125-0.5 0.5t-0.125 0.875-0.5 0.5-0.5 0.5-0.5 0.5-0.875 0.125-0.5 0.5-0.625 0.375-0.5 0.5v0.5h-7v-0.5q0-0.5-0.5-0.5t-0.625-0.375-0.5-0.5-0.875-0.125-0.5-0.5-0.5-0.5-0.5-0.5-0.125-0.875-0.5-0.5l-0.375-0.125v-4l0.375-0.125q0.375-0.125 0.5-0.5t0.125-0.875 0.375-0.625 0.5-0.5l0.125-0.375h0.5q0.5 0 0.875-0.125t0.5-0.5 0.5-0.5 0.5-0.5m5.0625 12.438-0.0625 0.0625 0.4375-0.0625q0.4375-0.0625 0.6875-0.3125t0.6875-0.4375l0.4375-0.1875-0.125-0.125 0.125 0.125q0.125 0.125 0.375 0.125h0.25-0.75l0.375-0.125q0.375-0.125 0.5-0.5t0.5-0.5 0.5-0.5l0.125-0.375v0.75-0.25q0-0.25-0.09375-0.40625l-0.09375-0.15625 0.09374 0.15626 0.42188-0.17188q0.42188-0.17188 0.67188-0.42188t0.5-0.5 0.3125-0.6875l0.0625-0.4375-0.125 0.125 0.125-0.125q0.125-0.125 0.125-0.375v-0.25 0.75-0.5q0-0.5 0-1v-0.5 0.75-0.25q0-0.25-0.125-0.375l-0.125-0.125 0.125 0.125-0.0625-0.4375q-0.0625-0.4375-0.3125-0.6875t-0.375-0.625-0.25-0.75-0.5625-0.4375l-0.4375-0.0625 0.125 0.125-0.125-0.125q-0.125-0.125-0.375-0.125h-0.25 0.75l-0.375 0.125q-0.375 0.125-0.375 0.375t0.375 0.375l0.375 0.125h-0.75 0.25q0.25 0 0.375-0.125l0.125-0.125-0.125 0.125 0.0625 0.5625q0.0625 0.5625 0.10938 1.1094l0.04687 0.54688 0.07813-0.04687 0.078125-0.04688-0.15625 0.09375q-0.15625 0.09375-0.21875 0.28125l-0.0625 0.1875 0.1875-0.5625-0.125 0.375q-0.125 0.375-0.375 0.625t-0.375 0.625l-0.125 0.375v-0.75 0.25q0 0.25 0.125 0.375l0.125 0.125-0.125-0.125-0.5625 0.0625q-0.5625 0.0625-1.0625 0.0625t-1.0156 0.015625l-0.51562 0.015625 0.03125 0.21875-0.03125-0.21875q-0.03125-0.21875-0.09375-0.40625l-0.0625-0.1875 0.1875 0.5625-0.125-0.375q-0.125-0.375-0.375-0.625t-0.375-0.625-0.125-0.875 0.125-0.875 0.375-0.625 0.375-0.625l0.125-0.375-0.1875 0.5625 0.0625-0.1875q0.0625-0.1875 0.09375-0.40625l0.03125-0.21875-0.03125 0.21875 0.51562 0.015625q0.51562 0.015625 1.0781-0.046875l0.5625-0.0625-0.125-0.125 0.125 0.125q0.125 0.125 0.375 0.125h0.25-0.75l0.375-0.125q0.375-0.125 0.375-0.375t-0.375-0.375l-0.375-0.125h0.75-0.25q-0.25 0-0.375 0.125l-0.125 0.125 0.125-0.125-0.1875-0.4375q-0.1875-0.4375-0.5625-0.5625t-0.9375-0.0625l-0.5625 0.0625 0.125 0.125-0.125-0.125q-0.125-0.125-0.375-0.125h-0.25 0.75-0.5q-0.5 0-1 0t-1 0h-0.5 0.75-0.25q-0.25 0-0.375 0.125l-0.125 0.125 0.125-0.125-0.5625-0.0625q-0.5625-0.0625-0.9375 0.0625t-0.5625 0.5625l-0.1875 0.4375 0.125 0.125-0.125-0.125q-0.125-0.125-0.375-0.125h-0.25 0.75l-0.375 0.125q-0.375 0.125-0.375 0.375t0.375 0.375l0.375 0.125h-0.75 0.25q0.25 0 0.375-0.125l0.125-0.125-0.125 0.125 0.5625 0.0625q0.5625 0.0625 1.0781 0.046875l0.51562-0.015625-0.03125-0.21875 0.03125 0.21875q0.03125 0.21875 0.09375 0.40625l0.0625 0.1875-0.1875-0.5625 0.125 0.375q0.125 0.375 0.375 0.625t0.375 0.625 0.125 0.875-0.125 0.875-0.375 0.625-0.375 0.625l-0.125 0.375 0.1875-0.5625-0.0625 0.1875q-0.0625 0.1875-0.09375 0.40625l-0.03125 0.21875 0.03125-0.21875-0.51562-0.015625q-0.51562-0.015625-1.0156-0.015625t-1.0625-0.0625l-0.5625-0.0625-0.125 0.125 0.125-0.125q0.125-0.125 0.125-0.375v-0.25 0.75l-0.125-0.375q-0.125-0.375-0.375-0.625t-0.375-0.625l-0.125-0.375 0.1875 0.5625-0.0625-0.1875q-0.0625-0.1875-0.21875-0.28125l-0.15625-0.09375 0.15625 0.09375 0.046875-0.54688q0.046875-0.54688 0.10938-1.1094l0.0625-0.5625-0.125-0.125 0.125 0.125q0.125 0.125 0.375 0.125h0.25-0.75l0.375-0.125q0.375-0.125 0.375-0.375t-0.375-0.375l-0.375-0.125h0.75-0.25q-0.25 0-0.375 0.125l-0.125 0.125 0.125-0.125-0.4375 0.0625q-0.4375 0.0625-0.5625 0.4375t-0.25 0.75-0.375 0.625-0.3125 0.6875l-0.0625 0.4375 0.125-0.125-0.125 0.125q-0.125 0.125-0.125 0.375v0.25-0.75 0.5q0 0.5 0 1v0.5-0.75 0.25q0 0.25 0.125 0.375l0.125 0.125-0.125-0.125 0.0625 0.4375q0.0625 0.4375 0.3125 0.6875t0.5 0.5 0.67188 0.42188l0.42188 0.17188 0.09375-0.15625-0.09375 0.15625q-0.09375 0.15625-0.09375 0.40625v0.25-0.75l0.125 0.375q0.125 0.375 0.5 0.5t0.5 0.5 0.5 0.5l0.375 0.125h-0.75 0.25q0.25 0 0.375-0.125l0.125-0.125-0.125 0.125 0.4375 0.1875q0.4375 0.1875 0.6875 0.4375t0.6875 0.3125l0.4375 0.0625-0.125-0.125 0.125 0.125q0.125 0.125 0.375 0.125h0.25-0.75 0.5q0.5 0 1 0t1 0h0.5-0.75 0.25q0.25 0 0.375-0.125l0.125-0.125-0.0625 0.0625m1.5625-5.8125q0.5 0 0.875-0.125t0.5-0.5 0.125-0.875-0.125-0.875-0.5-0.5-0.875-0.125-0.875 0.125-0.5 0.5-0.125 0.875 0.125 0.875 0.5 0.5 0.875 0.125m-6 0q0.5 0 0.875-0.125t0.5-0.5 0.125-0.875-0.125-0.875-0.5-0.5-0.875-0.125-0.875 0.125-0.5 0.5-0.125 0.875 0.125 0.875 0.5 0.5 0.875 0.125"/>
  </g>
  <path d="m0 5.5v-0.5h1v0.5q0 0.5 0.5 0.5h0.5l-0.125 0.375q-0.125 0.375-0.5 0.5t-0.375 0.625-0.125 0.875-0.5 0.5l-0.375 0.125v-3.5" fill-opacity="0"/>
  <g>
   <path d="M 1,5.5 V 5 H 1.5 Q 2,5 2,5.5 V 6 H 1.5 Q 1,6 1,5.5"/>
   <path d="m5.0625 5.6875q0.1875-0.4375 0.5625-0.5625t0.9375-0.0625l0.5625 0.0625 0.125-0.125-0.125 0.125q-0.125 0.125-0.125 0.375v0.25-0.75 0.5q0 0.5 0 1v0.5-0.75 0.25q0 0.25 0.03125 0.46875l0.03125 0.21875-0.03125-0.21875-0.51562 0.015625q-0.51562 0.015625-1.0781-0.046875l-0.5625-0.0625-0.125 0.125 0.125-0.125q0.125-0.125 0.125-0.375v-0.25 0.75-1 0.75-0.25q0-0.25-0.125-0.375l-0.125-0.125 0.125 0.125 0.1875-0.4375" fill="#002495"/>
   <path d="m7 5.5q0-0.5 0.5-0.5t1 0 1 0 0.5 0.5 0 1-0.125 0.875-0.375 0.625-0.375 0.625-0.125 0.875 0.125 0.875 0.375 0.625 0.375 0.625 0.125 0.875 0 1 0 1 0 1 0 1-0.5 0.5-1 0-1 0-0.5-0.5 0-1 0-1 0-1 0-1 0.125-0.875 0.375-0.625 0.375-0.625 0.125-0.875-0.125-0.875-0.375-0.625-0.375-0.625-0.125-0.875 0-1" fill="#fff"/>
   <path d="m10 5.5v-0.5 0.75-0.25q0-0.25-0.125-0.375l-0.125-0.125 0.125 0.125 0.5625-0.0625q0.5625-0.0625 0.9375 0.0625t0.5625 0.5625l0.1875 0.4375 0.125-0.125-0.125 0.125q-0.125 0.125-0.125 0.375v0.25-0.75 1-0.75 0.25q0 0.25 0.125 0.375l0.125 0.125-0.125-0.125-0.5625 0.0625q-0.5625 0.0625-1.0781 0.046875l-0.51562-0.015625-0.03125 0.21875 0.03125-0.21875q0.03125-0.21875 0.03125-0.46875v-0.25 0.75-0.5q0-0.5 0-1" fill="#002495"/>
   <path d="m15 5.5q0-0.5 0.5-0.5h0.5v0.5q0 0.5-0.5 0.5h-0.5v-0.5"/>
  </g>
  <path d="m16 5.5v-0.5h1v4l-0.375-0.125q-0.375-0.125-0.5-0.5t-0.125-0.875-0.375-0.625-0.5-0.5l-0.125-0.375h0.5q0.5 0 0.5-0.5" fill-opacity="0"/>
  <g>
   <path d="m4.25 6.5q0-0.25 0.375-0.375t0.375 0.375-0.375 0.375-0.375-0.375" fill="#fff"/>
   <path d="m12 6.5q0-0.5 0.375-0.375t0.375 0.375-0.375 0.375-0.375-0.375" fill="#fff"/>
   <path d="m2.125 7.625q0.125-0.375 0.5625-0.4375l0.4375-0.0625 0.125-0.125-0.125 0.125q-0.125 0.125-0.125 0.375v0.25-0.75 1-0.75 0.25q0 0.25 0.125 0.375l0.125 0.125-0.125-0.125-0.0625 0.5625q-0.0625 0.5625-0.10938 1.1094l-0.046875 0.54688 0.15625 0.09375-0.15625-0.09375q-0.15625-0.09375-0.40625-0.09375h-0.25 0.75-0.5q-0.5 0-1 0h-0.5 0.75-0.25q-0.25 0-0.375 0.125l-0.125 0.125 0.125-0.125 0.0625-0.4375q0.0625-0.4375 0.3125-0.6875t0.375-0.625 0.25-0.75" fill="#002495"/>
   <path d="m3 7.5q0-0.5 0.375-0.375t0.375 0.375-0.375 0.375-0.375-0.375" fill="#fff"/>
   <path d="m13.25 7.5q0-0.25 0.375-0.375t0.375 0.375-0.375 0.375-0.375-0.375" fill="#fff"/>
   <path d="m14 7.5v-0.5 0.75-0.25q0-0.25-0.125-0.375l-0.125-0.125 0.125 0.125 0.4375 0.0625q0.4375 0.0625 0.5625 0.4375t0.25 0.75 0.375 0.625 0.3125 0.6875l0.0625 0.4375 0.125 0.125-0.125-0.125q-0.125-0.125-0.375-0.125h-0.25 0.75-0.5q-0.5 0-1 0h-0.5 0.75-0.25q-0.25 0-0.40625 0.09375l-0.15625 0.09375 0.15626-0.09374-0.04687-0.54688q-0.04689-0.54688-0.10939-1.1094l-0.0625-0.5625-0.125 0.125 0.125-0.125q0.125-0.125 0.125-0.375v-0.25 0.75-0.5" fill="#002495"/>
  </g>
  <g fill="#fff">
   <path d="m4.125 8.625q0.125-0.375 0.5-0.5t0.875-0.125 0.875 0.125 0.5 0.5 0.125 0.875-0.125 0.875-0.5 0.5-0.875 0.125-0.875-0.125-0.5-0.5-0.125-0.875 0.125-0.875"/>
   <path d="m10.125 8.625q0.125-0.375 0.5-0.5t0.875-0.125 0.875 0.125 0.5 0.5 0.125 0.875-0.125 0.875-0.5 0.5-0.875 0.125-0.875-0.125-0.5-0.5-0.125-0.875 0.125-0.875"/>
   <path d="m1 10.5q0-0.5 0.5-0.5t1 0 0.625 0.375 0.375 0.625 0.375 0.625-0.375 0.375-1 0-1 0-0.5-0.5 0-1"/>
   <path d="m13.875 10.375q0.125-0.375 0.625-0.375t1 0 0.5 0.5 0 1-0.5 0.5-1 0-1 0-0.375-0.375 0.375-0.625 0.375-0.625"/>
  </g>
  <path d="m1.1875 12.312-0.0625-0.4375-0.125-0.125 0.125 0.125q0.125 0.125 0.375 0.125h0.25-0.75 0.5q0.5 0 1 0t1 0h0.5-0.75 0.25q0.25 0 0.375-0.125l0.125-0.125-0.125 0.125 0.5625 0.0625q0.5625 0.0625 1.0625 0.0625t1.0156 0.015625l0.51562 0.015625 0.03125-0.21875-0.03125 0.21875q-0.03125 0.21875-0.03125 0.46875v0.25-0.75 0.5q0 0.5 0 1t0 1 0 1 0 1v0.5-0.75 0.25q0 0.25 0.125 0.375l0.125 0.125-0.125-0.125-0.4375-0.0625q-0.4375-0.0625-0.6875-0.3125t-0.6875-0.4375l-0.4375-0.1875-0.125 0.125 0.125-0.125q0.125-0.125 0.125-0.375v-0.25 0.75-0.5q0-0.5 0.375-0.625t0.375-0.375-0.25-0.5-0.5-0.5-0.5-0.25-0.5 0.25-0.625 0.375l-0.375 0.125 0.5625-0.1875-0.1875 0.0625q-0.1875 0.0625-0.28125 0.21875l-0.09375 0.15625 0.09375-0.15625-0.42188-0.17188q-0.42188-0.17188-0.67188-0.42188t-0.5-0.5-0.3125-0.6875" fill="#002495"/>
  <path d="m10 12.5v-0.5 0.75-0.25q0-0.25-0.03125-0.46875l-0.03125-0.21875 0.03125 0.21875 0.51562-0.015625q0.51562-0.015625 1.0156-0.015625t1.0625-0.0625l0.5625-0.0625-0.125-0.125 0.125 0.125q0.125 0.125 0.375 0.125h0.25-0.75 0.5q0.5 0 1 0t1 0h0.5-0.75 0.25q0.25 0 0.375-0.125l0.125-0.125-0.125 0.125-0.0625 0.4375q-0.0625 0.4375-0.3125 0.6875t-0.5 0.5-0.67188 0.42188l-0.42188 0.17188 0.04687 0.07813 0.04688 0.07812-0.09375-0.15625q-0.09375-0.15625-0.28125-0.21875l-0.1875-0.0625 0.5625 0.1875-0.375-0.125q-0.375-0.125-0.625-0.375t-0.5-0.25-0.5 0.25-0.5 0.5-0.25 0.5 0.375 0.375 0.375 0.625v0.5-0.75 0.25q0 0.25 0.125 0.375l0.125 0.125-0.125-0.125-0.4375 0.1875q-0.4375 0.1875-0.6875 0.4375t-0.6875 0.3125l-0.4375 0.0625-0.125 0.125 0.125-0.125q0.125-0.125 0.125-0.375v-0.25 0.75-0.5q0-0.5 0-1t0-1 0-1 0-1" fill="#002495"/>
  <path d="m0 13.5v-0.5l0.375 0.125q0.375 0.125 0.5 0.5t0.125 0.875 0.5 0.5 0.5 0.5 0.5 0.5 0.875 0.125 0.5 0.5 0.625 0.375 0.5 0.5v0.5h-5v-4.5" fill-opacity="0"/>
  <path d="m4 13.5q0.25-0.25 0.5-0.25t0.5 0.25 0.5 0.5 0.25 0.5-0.375 0.375l-0.375 0.125 0.5625-0.1875-0.1875 0.0625q-0.1875 0.0625-0.28125 0.21875l-0.09375 0.15625 0.09375-0.15625-0.17188-0.42188q-0.17188-0.42188-0.42188-0.42188t-0.40625 0.40625l-0.15625 0.40625 0.125 0.125-0.125-0.125q-0.125-0.125-0.3125-0.1875l-0.1875-0.0625 0.5625 0.1875-0.375-0.125q-0.375-0.125-0.5-0.5t0.25-0.5 0.625-0.375" fill="#fff"/>
  <path d="m12 13.5q0.25-0.25 0.5-0.25t0.5 0.25 0.625 0.375 0.25 0.5-0.5 0.5l-0.375 0.125 0.5625-0.1875-0.1875 0.0625q-0.1875 0.0625-0.3125 0.1875l-0.125 0.125 0.125-0.125-0.15625-0.40625q-0.15625-0.40625-0.40625-0.40625t-0.42188 0.42188l-0.17188 0.42188 0.04687 0.07813 0.04688 0.07812-0.09375-0.15625q-0.09375-0.15625-0.28125-0.21875l-0.1875-0.0625 0.5625 0.1875-0.375-0.125q-0.375-0.125-0.375-0.375t0.25-0.5 0.5-0.5" fill="#fff"/>
  <path d="m16.125 13.625q0.125-0.375 0.5-0.5l0.375-0.125v5h-5v-0.5q0-0.5 0.5-0.5t0.625-0.375 0.5-0.5 0.875-0.125 0.5-0.5 0.5-0.5 0.5-0.5 0.125-0.875" fill-opacity="0"/>
  <path d="m4.0938 14.656q0.15625-0.40625 0.40625-0.40625t0.42188 0.42188l0.17188 0.42188 0.09375-0.15625-0.09375 0.15625q-0.09375 0.15625-0.09375 0.40625v0.25-0.75 0.5q0 0.5-0.375 0.375t-0.5-0.5l-0.125-0.375 0.1875 0.5625-0.0625-0.1875q-0.0625-0.1875-0.1875-0.3125l-0.125-0.125 0.125 0.125 0.15625-0.40625" fill="#b0bbde"/>
  <path d="m12.078 14.672q0.17188-0.42188 0.42188-0.42188t0.40625 0.40625l0.15625 0.40625 0.125-0.125-0.125 0.125q-0.125 0.125-0.1875 0.3125l-0.0625 0.1875 0.1875-0.5625-0.125 0.375q-0.125 0.375-0.5 0.5t-0.375-0.375v-0.5 0.75-0.25q0-0.25-0.09375-0.40625l-0.09375-0.15625 0.09374 0.15626 0.17188-0.42188" fill="#b0bbde"/>
 </g>
</svg>
