<svg width="17" height="20" version="1.1" viewBox="0 0 17 20" xmlns="http://www.w3.org/2000/svg">
 <g>
  <path d="m0 0.5v-0.5h2v1h-0.5q-0.5 0-0.5 0.5t-0.125 0.875-0.5 0.5l-0.375 0.125v-2.5" fill-opacity="0"/>
  <path d="m2 0.5v-0.5h13v1h0.5q0.5 0 0.5 0.5t0.125 0.875 0.5 0.5l0.375 0.125v4h-0.5q-0.5 0-0.5 0.5t0 1 0 1 0.125 0.875 0.5 0.5l0.375 0.125v4l-0.375 0.125q-0.375 0.125-0.5 0.5t-0.125 0.875-0.5 0.5-0.5 0.5-0.5 0.5-0.875 0.125-0.5 0.5-0.625 0.375-0.5 0.5v0.5h-7v-0.5q0-0.5-0.5-0.5t-0.625-0.375-0.5-0.5-0.875-0.125-0.5-0.5-0.5-0.5-0.5-0.5-0.125-0.875-0.5-0.5l-0.375-0.125v-4l0.375-0.125q0.375-0.125 0.5-0.5t0.125-0.875 0-1 0-1-0.5-0.5h-0.5v-4l0.375-0.125q0.375-0.125 0.5-0.5t0.125-0.875 0.5-0.5h0.5v-0.5m0.5 0.5h-0.5v0.5q0 0.5 0.5 0.5t0.875-0.125 0.5-0.5-0.375-0.375-1 0m7 18q0.5 0 0.875-0.125t0.625-0.375 0.625-0.375 0.75-0.25 0.625-0.375 0.5-0.5 0.5-0.5 0.5-0.5 0.5-0.5 0.5-0.5 0.375-0.625 0.125-0.875 0-1-0.125-0.875-0.375-0.625-0.375-0.625-0.25-0.75-0.5-0.5-0.75 0-0.375 0.375 0.25 0.5 0.375 0.625 0.125 0.875-0.125 0.875-0.375 0.625-0.5 0.5-0.625 0.375-0.875 0.125-0.875-0.125-0.625-0.375-0.625-0.375l-0.375-0.125 0.5625 0.1875-0.1875-0.0625q-0.1875-0.0625-0.375-0.0625h-0.1875 0.1875v-0.53125q0-0.53125 0-1.0312t0-1.0312v-0.53125h-0.1875 0.1875q0.1875 0 0.375-0.0625l0.1875-0.0625-0.5625 0.1875 0.375-0.125q0.375-0.125 0.375-0.375t-0.375-0.375-0.875-0.125-0.875 0.125-0.375 0.375 0.25 0.5 0.375 0.625 0.125 0.875-0.125 0.875-0.375 0.625-0.39062 0.60938l-0.14062 0.35938 0.21875-0.03125-0.21875 0.03125q-0.21875 0.03125-0.46875 0.03125h-0.25 0.75-0.5q-0.5 0-1 0t-1 0h-0.5 0.75-0.25q-0.25 0-0.46875-0.03125l-0.21875-0.03125 0.21875 0.03125-0.14062-0.35938q-0.14062-0.35938-0.5-0.5l-0.35938-0.14062 0.03125 0.21875-0.03125-0.21875q-0.03125-0.21875-0.03125-0.46875v-0.25 0.75-0.5q0-0.5 0-1t0.125-0.875 0.375-0.625 0.25-0.5-0.375-0.375-0.75 0-0.5 0.5-0.10938 0.89062l0.015625 0.51562 0.21875-0.03125-0.21875 0.03125q-0.21875 0.03125-0.40625 0.09375l-0.1875 0.0625 0.5625-0.1875-0.375 0.125q-0.375 0.125-0.5 0.5t-0.125 0.875 0 1 0.125 0.875 0.375 0.625 0.5 0.5 0.5 0.5 0.5 0.5 0.5 0.5 0.5 0.5 0.625 0.375 0.75 0.25 0.625 0.375 0.625 0.375 0.875 0.125 1 0 1 0m4-11q0.5 0 0.875-0.125t0.5-0.5 0.25-0.75 0.375-0.625 0.375-0.625 0.125-0.875-0.125-0.875-0.5-0.5-0.875-0.125-0.875-0.125-0.625-0.375-0.625-0.375-0.75-0.25-0.625-0.375-0.625-0.375-0.9375-0.0625l-0.5625 0.0625 0.125 0.125-0.125-0.125q-0.125-0.125-0.375-0.125h-0.25 0.75-1 0.75-0.25q-0.25 0-0.375 0.125l-0.125 0.125 0.125-0.125-0.5625-0.0625q-0.5625-0.0625-0.9375 0.0625t-0.625 0.375-0.625 0.375-0.75 0.25-0.625 0.375-0.625 0.375-0.875 0.125-0.875 0.125-0.5 0.5-0.125 0.875 0.125 0.875 0.375 0.625 0.375 0.625 0.25 0.75 0.5 0.5 0.875 0.125 1 0 1.0625-0.0625l0.5625-0.0625-0.125-0.125 0.125 0.125q0.125 0.125 0.375 0.125h0.25-0.75 1-0.75 0.25q0.25 0 0.40625-0.09375l0.15625-0.09375-0.15625 0.09375 0.54688 0.046875q0.54688 0.046875 1.0469 0.046875t1.0469-0.046875l0.54688-0.046875-0.15625-0.09375 0.15625 0.09375q0.15625 0.09375 0.40625 0.09375h0.25-0.75 1-0.75 0.25q0.25 0 0.375-0.125l0.125-0.125-0.125 0.125 0.5625 0.0625q0.5625 0.0625 1.0625 0.0625t1 0m-2 5q0.5 0 0.875-0.125t0.5-0.5 0.125-0.875-0.125-0.875-0.5-0.5-0.875-0.125-0.875 0.125-0.5 0.5-0.125 0.875 0.125 0.875 0.5 0.5 0.875 0.125m-6 0q0.5 0 0.875-0.125t0.5-0.5 0.125-0.875-0.125-0.875-0.5-0.5-0.875-0.125-0.875 0.125-0.5 0.5-0.125 0.875 0.125 0.875 0.5 0.5 0.875 0.125m9.5-11.5v-0.5h-0.5q-0.5 0-1 0t-0.375 0.375 0.5 0.5 0.875 0.125 0.5-0.5"/>
  <path d="m15 0.5v-0.5h2v3l-0.375-0.125q-0.375-0.125-0.5-0.5t-0.125-0.875-0.5-0.5h-0.5v-0.5" fill-opacity="0"/>
  <path d="m2 1.5v-0.5h0.5q0.5 0 1 0t0.375 0.375-0.5 0.5-0.875 0.125-0.5-0.5" fill-opacity="0"/>
  <g>
   <path d="m6 1.5q0.25-0.25 0.625-0.375t0.9375-0.0625l0.5625 0.0625 0.125-0.125-0.125 0.125q-0.125 0.125-0.125 0.375v0.25-0.75 0.5q0 0.5-0.125 0.875t-0.5 0.5-0.875 0.125-0.875 0.125-0.375 0.375 0.25 0.5 0.5 0.5 0.5 0.5 0.25 0.5-0.25 0.5-0.375 0.625-0.125 0.875v0.5-0.75 0.25q0 0.25 0.125 0.375l0.125 0.125-0.125-0.125-0.5625 0.0625q-0.5625 0.0625-1.0625 0.0625t-1 0-0.875-0.125-0.5-0.5-0.25-0.75-0.375-0.625-0.375-0.625-0.125-0.875 0.125-0.875 0.5-0.5 0.875-0.125 0.875-0.125 0.625-0.375 0.625-0.375 0.75-0.25 0.625-0.375" fill="#283440"/>
   <path d="m8 1.5q0-0.5 0.5-0.5t0.5 0.5 0.125 0.875 0.5 0.5 0.875 0.125 0.875 0.125 0.375 0.375-0.25 0.5-0.5 0.5-0.5 0.5-0.25 0.5 0.25 0.5 0.375 0.625 0.125 0.875-0.5 0.5-0.625-0.375-0.375-0.625-0.5-0.5-0.5-0.25-0.5 0.25-0.5 0.5-0.375 0.625-0.625 0.375-0.5-0.5 0.125-0.875 0.375-0.625 0.25-0.5-0.25-0.5-0.5-0.5-0.5-0.5-0.25-0.5 0.375-0.375 0.875-0.125 0.875-0.125 0.5-0.5 0.125-0.875" fill="#c00"/>
   <path d="m9 1.5v-0.5 0.75-0.25q0-0.25-0.125-0.375l-0.125-0.125 0.125 0.125 0.5625-0.0625q0.5625-0.0625 0.9375 0.0625t0.625 0.375 0.625 0.375 0.75 0.25 0.625 0.375 0.625 0.375 0.875 0.125 0.875 0.125 0.5 0.5 0.125 0.875-0.125 0.875-0.375 0.625-0.375 0.625-0.25 0.75-0.5 0.5-0.875 0.125-1 0-1.0625-0.0625l-0.5625-0.0625-0.125 0.125 0.125-0.125q0.125-0.125 0.125-0.375v-0.25 0.75-0.5q0-0.5-0.125-0.875t-0.375-0.625-0.25-0.5 0.25-0.5 0.5-0.5 0.5-0.5 0.25-0.5-0.375-0.375-0.875-0.125-0.875-0.125-0.5-0.5-0.125-0.875" fill="#283440"/>
  </g>
  <path d="m13.125 1.375q-0.125-0.375 0.375-0.375t1 0h0.5v0.5q0 0.5-0.5 0.5t-0.875-0.125-0.5-0.5" fill-opacity="0"/>
  <path d="m8 6.5q0.25-0.25 0.5-0.25t0.5 0.25 0.5 0.5 0.375 0.625l0.125 0.375-0.1875-0.5625 0.0625 0.1875q0.0625 0.1875 0.21875 0.28125l0.15625 0.09375-0.15625-0.09375-0.54688 0.046875q-0.54688 0.046875-1.0469 0.046875t-1.0469-0.046875l-0.54688-0.046875-0.15625 0.09375 0.15625-0.09375q0.15625-0.09375 0.21875-0.28125l0.0625-0.1875-0.1875 0.5625 0.125-0.375q0.125-0.375 0.375-0.625t0.5-0.5" fill="#283440"/>
  <path d="m0 7.5v-0.5h0.5q0.5 0 0.5 0.5t0 1 0 1-0.125 0.875-0.5 0.5l-0.375 0.125v-3.5" fill-opacity="0"/>
  <path d="m16 7.5q0-0.5 0.5-0.5h0.5v4l-0.375-0.125q-0.375-0.125-0.5-0.5t-0.125-0.875 0-1 0-1" fill-opacity="0"/>
  <g>
   <path d="m2.125 9.625q0.125-0.375 0.5-0.5l0.375-0.125-0.5625 0.1875 0.1875-0.0625q0.1875-0.0625 0.375-0.0625h0.1875-0.1875l-0.125 0.34375q-0.125 0.34375-0.48438 0.48438l-0.35938 0.14062-0.03125 0.21875 0.03125-0.21875q0.03125-0.21875 0.09375-0.40625l0.0625-0.1875-0.1875 0.5625 0.125-0.375" fill="#c00"/>
   <path d="m2.875 9.4062 0.125-0.34375h-0.1875 0.1875q0.1875 0 0.375 0.0625l0.1875 0.0625-0.5625-0.1875 0.375 0.125q0.375 0.125 0.375 0.375t-0.25 0.5-0.375 0.625l-0.125 0.375 0.1875-0.5625-0.0625 0.1875q-0.0625 0.1875-0.09375 0.40625l-0.03125 0.21875 0.03125-0.21875-1.0312-0.03125h0.75-0.25q-0.25 0-0.46875 0.03125l-0.21875 0.03125 0.21875-0.03125-0.03125-1.0312v0.75-0.25q0-0.25 0.03125-0.46875l0.03125-0.21875-0.03125 0.21875 0.35938-0.14062q0.35938-0.14062 0.48438-0.48438" fill="#ffd700"/>
   <path d="m7.25 9.5q0-0.25 0.375-0.375l0.375-0.125-0.5625 0.1875 0.1875-0.0625q0.1875-0.0625 0.40625-0.09375l0.21875-0.03125-0.21875 0.03125 0.10938 0.35938q0.10938 0.35938 0.48438 0.48438l0.375 0.125-0.5625-0.1875 0.1875 0.0625q0.1875 0.0625 0.375 0.0625h0.1875-0.1875v0.53125q0 0.53125 0 1.0312t0 1.0312v0.53125h0.1875-0.1875q-0.1875 0-0.375 0.0625l-0.1875 0.0625 0.5625-0.1875-0.375 0.125q-0.375 0.125-0.625 0.375t-0.625 0.375l-0.375 0.125 0.5625-0.1875-0.1875 0.0625q-0.1875 0.0625-0.40625 0.09375l-0.21875 0.03125 0.21875-0.03125 0.14062-0.35938q0.14062-0.35938 0.39062-0.60938t0.375-0.625 0.125-0.875-0.125-0.875-0.375-0.625-0.25-0.5" fill="#ffd700"/>
   <path d="m8.1406 9.3906-0.10938-0.35938-0.21875 0.03125 0.21875-0.03125q0.21875-0.03125 0.46875-0.03125h0.25-0.75 0.5q0.5 0 0.875 0.125t0.375 0.375-0.375 0.375-0.75 0-0.48438-0.48438" fill="#c00"/>
   <path d="m13.25 9.5q0-0.25 0.375-0.375t0.75 0 0.5 0.5 0.25 0.75 0.375 0.625 0.375 0.625 0.125 0.875 0 1-0.125 0.875-0.375 0.625-0.5 0.5-0.5 0.5-0.5 0.5-0.5 0.5-0.5 0.5-0.625 0.375-0.75 0.25-0.625 0.375-0.625 0.375-0.875 0.125-1 0-1 0-0.875-0.125-0.625-0.375-0.625-0.375-0.75-0.25-0.625-0.375-0.5-0.5-0.5-0.5-0.5-0.5-0.5-0.5-0.5-0.5-0.375-0.625-0.125-0.875 0-1 0.125-0.875 0.5-0.5 0.89062-0.10938l0.51562 0.015625 0.03125-0.21875-0.03125 0.21875q-0.03125 0.21875-0.03125 0.46875v0.25-0.75 0.5q0 0.5 0 1t0.125 0.875 0.5 0.5 0.875 0.125 1 0 1 0 0.875-0.125 0.625-0.375 0.625-0.375 0.75 0 0.625 0.375 0.625 0.375 0.875 0.125 0.875-0.125 0.625-0.375 0.5-0.5 0.375-0.625 0.125-0.875-0.125-0.875-0.375-0.625-0.25-0.5m-11 5q0 0.25 0.25 0.25t0.25-0.25-0.25-0.25-0.25 0.25m6 0q0 0.25 0.25 0.25t0.25-0.25-0.25-0.25-0.25 0.25" fill="#c00"/>
   <path d="m4.125 10.625q0.125-0.375 0.5-0.5t0.875-0.125 0.875 0.125 0.5 0.5 0.125 0.875-0.125 0.875-0.5 0.5-0.875 0.125-0.875-0.125-0.5-0.5-0.125-0.875 0.125-0.875" fill="#fff"/>
   <path d="m10.125 10.625q0.125-0.375 0.5-0.5t0.875-0.125 0.875 0.125 0.5 0.5 0.125 0.875-0.125 0.875-0.5 0.5-0.875 0.125-0.875-0.125-0.5-0.5-0.125-0.875 0.125-0.875" fill="#fff"/>
  </g>
  <g fill="#ffd700">
   <path d="m3.125 13.375-0.125-0.375 0.1875 0.5625-0.0625-0.1875q-0.0625-0.1875-0.09375-0.40625l-0.03125-0.21875 0.03125 0.21875 0.35938 0.14062q0.35938 0.14062 0.5 0.5l0.14062 0.35938 0.21875 0.03125-0.21875-0.03125q-0.21875-0.03125-0.40625-0.09375l-0.1875-0.0625 0.5625 0.1875-0.375-0.125q-0.375-0.125-0.5-0.5"/>
   <path d="m2.25 14.5q0-0.25 0.25-0.25t0.25 0.25-0.25 0.25-0.25-0.25"/>
   <path d="m8.25 14.5q0-0.25 0.25-0.25t0.25 0.25-0.25 0.25-0.25-0.25"/>
  </g>
  <path d="m0 15.5v-0.5l0.375 0.125q0.375 0.125 0.5 0.5t0.125 0.875 0.5 0.5 0.5 0.5 0.5 0.5 0.875 0.125 0.5 0.5 0.625 0.375 0.5 0.5v0.5h-5v-4.5" fill-opacity="0"/>
  <path d="m16.125 15.625q0.125-0.375 0.5-0.5l0.375-0.125v5h-5v-0.5q0-0.5 0.5-0.5t0.625-0.375 0.5-0.5 0.875-0.125 0.5-0.5 0.5-0.5 0.5-0.5 0.125-0.875" fill-opacity="0"/>
 </g>
</svg>
