<svg width="17" height="18" version="1.1" viewBox="0 0 17 18" xmlns="http://www.w3.org/2000/svg">
 <g transform="translate(0)">
  <path d="m0 0.5v-0.5h6l-0.125 0.375q-0.125 0.375-0.5 0.5t-0.375 0.625 0 1-0.375 0.375-0.5-0.5-0.625-0.375-1 0-0.625 0.375-0.5 0.5-0.375 0.625-0.5 0.5h-0.5v-3.5" fill-opacity="0"/>
  <path d="m5.875 0.375 0.125-0.375h2l0.125 0.375q0.125 0.375 0.375 0.375t0.375-0.375l0.125-0.375h2l0.125 0.375q0.125 0.375 0.5 0.5t0.375 0.625 0 1 0.375 0.375 0.5-0.5 0.625-0.375 1 0 0.625 0.375 0.5 0.5 0.375 0.625 0.5 0.5h0.5v1h-0.5q-0.5 0-0.5 0.5t-0.5 0.5-0.375 0.375 0.5 0.5 0.375 0.625 0.125 0.875 0.5 0.5l0.375 0.125v4l-0.375 0.125q-0.375 0.125-0.5 0.5t-0.125 0.875-0.375 0.625-0.5 0.5-0.625 0.375-0.875 0.125-0.5 0.5-0.5 0.5-0.5 0.5l-0.125 0.375h-7l-0.125-0.375q-0.125-0.375-0.5-0.5t-0.5-0.5-0.5-0.5-0.875-0.125-0.625-0.375-0.5-0.5-0.375-0.625-0.125-0.875-0.5-0.5l-0.375-0.125v-4l0.375-0.125q0.375-0.125 0.5-0.5t0.125-0.875 0.375-0.625 0.5-0.5-0.375-0.375-0.5-0.5-0.5-0.5h-0.5v-1h0.5q0.5 0 0.5-0.5t0.375-0.625 0.5-0.5 0.625-0.375 1 0 0.625 0.375 0.5 0.5 0.375-0.375 0-1 0.375-0.625 0.5-0.5m4.625 16.625q0.5 0 0.875-0.125t0.625-0.375 0.5-0.5 0.5-0.5 0.625-0.375 0.75-0.25 0.5-0.5 0.25-0.75 0.375-0.625 0.375-0.625 0.0625-0.9375l-0.0625-0.5625-0.125 0.125 0.125-0.125q0.125-0.125 0.125-0.375v-0.25 0.75-0.5q0-0.5-0.125-0.875t-0.375-0.625-0.375-0.625-0.25-0.75-0.5-0.5-0.75-0.25-0.625-0.375-0.625-0.375-0.875-0.125-1 0-1 0-1 0-1 0h-0.5 0.75-0.25q-0.25 0-0.375 0.125l-0.125 0.125 0.125-0.125-0.5625-0.0625q-0.5625-0.0625-1.0625-0.0625t-0.875 0.125-0.625 0.375-0.625 0.375-0.75 0.25-0.5 0.5-0.25 0.75-0.375 0.625-0.3125 0.6875l-0.0625 0.4375 0.125-0.125-0.125 0.125q-0.125 0.125-0.125 0.375v0.25-0.75 1-0.75 0.25q0 0.25 0.09375 0.40625l0.09375 0.15625-0.09375-0.15625-0.046875 0.54688q-0.046875 0.54688 0.078125 0.92188t0.375 0.625 0.375 0.625 0.25 0.75 0.5 0.5 0.75 0.25 0.625 0.375 0.5 0.5 0.5 0.5 0.625 0.375 0.875 0.125 1 0 1 0 1 0 1 0m3-12q0.5 0 0.875-0.125t0.5-0.5 0-0.75-0.5-0.5-0.75 0-0.625 0.375-0.625 0.375-0.75 0-0.5-0.5-0.125-0.875-0.125-0.875-0.5-0.5-0.75 0-0.625 0.375-0.5 0.25-0.5-0.25-0.625-0.375-0.75 0-0.5 0.5-0.125 0.875-0.125 0.875-0.5 0.5-0.75 0-0.625-0.375-0.625-0.375-0.75 0-0.5 0.5 0 0.75 0.5 0.5 0.875 0.125 1 0 0.875-0.125 0.625-0.375 0.625-0.375 0.875-0.125 1 0 1 0 0.875 0.125 0.625 0.375 0.625 0.375 0.875 0.125 1 0"/>
  <path d="m8.125 0.375-0.125-0.375h1l-0.125 0.375q-0.125 0.375-0.375 0.375t-0.375-0.375" fill-opacity="0"/>
  <path d="m11.125 0.375-0.125-0.375h6v4h-0.5q-0.5 0-0.5-0.5t-0.375-0.625-0.5-0.5-0.625-0.375-1 0-0.625 0.375-0.5 0.5-0.375-0.375 0-1-0.375-0.625-0.5-0.5" fill-opacity="0"/>
  <path d="m6.125 1.625q0.125-0.375 0.5-0.5t0.75 0 0.625 0.375 0.5 0.25 0.5-0.25 0.625-0.375 0.75 0 0.5 0.5 0.125 0.875 0.125 0.875 0.5 0.5 0.75 0 0.625-0.375 0.625-0.375 0.75 0 0.5 0.5 0 0.75-0.5 0.5-0.875 0.125-1 0-0.875-0.125-0.625-0.375-0.625-0.375-0.875-0.125-1 0-1 0-0.875 0.125-0.625 0.375-0.625 0.375-0.875 0.125-1 0-0.875-0.125-0.5-0.5 0-0.75 0.5-0.5 0.75 0 0.625 0.375 0.625 0.375 0.75 0 0.5-0.5 0.125-0.875 0.125-0.875" fill="#e5aa7a"/>
  <path d="m0 5.5v-0.5h0.5q0.5 0 0.5 0.5t0.5 0.5 0.375 0.375-0.5 0.5-0.375 0.625-0.125 0.875-0.5 0.5l-0.375 0.125v-3.5" fill-opacity="0"/>
  <path d="m16 5.5q0-0.5 0.5-0.5h0.5v4l-0.375-0.125q-0.375-0.125-0.5-0.5t-0.125-0.875-0.375-0.625-0.5-0.5 0.375-0.375 0.5-0.5" fill-opacity="0"/>
  <g>
   <path d="m4 6.5q0.25-0.25 0.625-0.375t0.875-0.125 1.0625 0.0625l0.5625 0.0625 0.125-0.125-0.125 0.125q-0.125 0.125-0.125 0.375v0.25-0.75 1-0.75 0.25q0 0.25 0.03125 0.46875l0.03125 0.21875-0.03125-0.21875-0.51562 0.015625q-0.51562 0.015625-1.0156 0.015625t-0.875 0.125-0.625 0.375-0.5 0.5-0.375 0.625-0.17188 0.92188l-0.046875 0.54688 0.15625 0.09375-0.15625-0.09375q-0.15625-0.09375-0.40625-0.09375h-0.25 0.75-0.5q-0.5 0-1 0h-0.5 0.75-0.25q-0.25 0-0.375 0.125l-0.125 0.125 0.125-0.125 0.0625-0.4375q0.0625-0.4375 0.3125-0.6875t0.375-0.625 0.25-0.75 0.5-0.5 0.75-0.25 0.625-0.375" fill="#002868"/>
   <path d="m7 6.5q0-0.5 0.5-0.5t1 0 1 0 1 0 1 0 0.875 0.125 0.625 0.375 0.625 0.375 0.75 0.25 0.5 0.5 0.25 0.75 0.375 0.625 0.375 0.625 0.125 0.875-0.5 0.5-1 0-0.5-0.5 0-1-0.125-0.875-0.375-0.625-0.5-0.5-0.625-0.375-0.875-0.125-0.875 0.125-0.625 0.375-0.5 0.5-0.375 0.625-0.125 0.875 0 1-0.5 0.5-0.5-0.5 0-1-0.125-0.875-0.375-0.625-0.375-0.625-0.125-0.875" fill="#fff"/>
   <path d="m4 7.5q0.25-0.25 0.625-0.375t0.875-0.125 1.0156-0.015625l0.51562-0.015625-0.03125-0.21875 0.03125 0.21875q0.03125 0.21875 0.09375 0.40625l0.0625 0.1875-0.1875-0.5625 0.125 0.375q0.125 0.375 0.375 0.625t0.375 0.625 0.125 0.875 0 1v0.5-0.75 0.25q0 0.25 0.125 0.375l0.125 0.125-0.125-0.125-0.4375 0.1875q-0.4375 0.1875-0.5625 0.5625l-0.125 0.375 0.1875-0.5625-0.0625 0.1875q-0.0625 0.1875-0.09375 0.40625l-0.03125 0.21875 0.03125-0.21875-0.51562-0.015625q-0.51562-0.015625-1.0625 0.03125l-0.54688 0.046875 0.09375 0.15625-0.09375-0.15625q-0.09375-0.15625-0.28125-0.21875l-0.1875-0.0625 0.5625 0.1875-0.375-0.125q-0.375-0.125-0.625-0.375t-0.5-0.5-0.375-0.625l-0.125-0.375 0.1875 0.5625-0.0625-0.1875q-0.0625-0.1875-0.21875-0.28125l-0.15625-0.09375 0.15625 0.09375 0.046875-0.54688q0.046875-0.54688 0.17188-0.92188t0.375-0.625 0.5-0.5m1.5 3.5q0.5 0 0.875-0.125t0.5-0.5 0.125-0.875-0.125-0.875-0.5-0.5-0.875-0.125-0.875 0.125-0.5 0.5-0.125 0.875 0.125 0.875 0.5 0.5 0.875 0.125"/>
   <path d="m10 7.5q0.25-0.25 0.625-0.375t0.875-0.125 0.875 0.125 0.625 0.375 0.5 0.5 0.375 0.625 0.125 0.875 0 1v0.5-0.75 0.25q0 0.25 0.125 0.375l0.125 0.125-0.125-0.125-0.4375 0.1875q-0.4375 0.1875-0.6875 0.4375t-0.625 0.375-0.875 0.125-0.875-0.125-0.625-0.375-0.6875-0.4375l-0.4375-0.1875-0.125 0.125 0.125-0.125q0.125-0.125 0.125-0.375v-0.25 0.75-0.5q0-0.5 0-1t0.125-0.875 0.375-0.625 0.5-0.5m1.5 3.5q0.5 0 0.875-0.125t0.5-0.5 0.125-0.875-0.125-0.875-0.5-0.5-0.875-0.125-0.875 0.125-0.5 0.5-0.125 0.875 0.125 0.875 0.5 0.5 0.875 0.125"/>
   <path d="m4.125 8.625q0.125-0.375 0.5-0.5t0.875-0.125 0.875 0.125 0.5 0.5 0.125 0.875-0.125 0.875-0.5 0.5-0.875 0.125-0.875-0.125-0.5-0.5-0.125-0.875 0.125-0.875" fill="#fefefe"/>
   <path d="m10.125 8.625q0.125-0.375 0.5-0.5t0.875-0.125 0.875 0.125 0.5 0.5 0.125 0.875-0.125 0.875-0.5 0.5-0.875 0.125-0.875-0.125-0.5-0.5-0.125-0.875 0.125-0.875" fill="#fefefe"/>
   <path d="m1 10.5q0-0.5 0.5-0.5t1 0 0.625 0.375 0.375 0.625 0.5 0.5 0.625 0.375 0.25 0.5-0.375 0.375-0.5-0.25-0.5-0.25-0.5 0.25-0.5 0.25-0.375-0.375-0.25-0.75-0.5-0.5-0.375-0.625" fill="#fff"/>
   <path d="m1.0469 11.453 0.046875-0.54688-0.09375-0.15625 0.09375 0.15625q0.09375 0.15625 0.28125 0.21875l0.1875 0.0625-0.5625-0.1875 0.375 0.125q0.375 0.125 0.5 0.5t0.25 0.75 0.375 0.375 0.5-0.25 0.5-0.25 0.5 0.25 0.5 0.25 0.375-0.375l0.125-0.375v0.75-0.25q0-0.25-0.09375-0.40625l-0.09375-0.15625 0.09375 0.15626 0.54688-0.04687q0.54688-0.04689 1.0625-0.031265l0.51562 0.015625 0.03125-0.21875-0.03125 0.21875q-0.03125 0.21875-0.03125 0.46875v0.25-0.75 0.5q0 0.5 0 1t0 1 0 1 0 1v0.5h-0.5q-0.5 0-0.875-0.125t-0.625-0.375-0.5-0.5-0.5-0.5-0.625-0.375-0.75-0.25-0.5-0.5-0.25-0.75-0.375-0.625-0.375-0.625-0.078125-0.92188m5.5781 5.5469h0.625-0.25q-0.25 0-0.5 0h-0.25 0.375" fill="#002868"/>
   <path d="m7.125 11.625q0.125-0.375 0.5625-0.5625l0.4375-0.1875-0.125-0.125 0.125 0.125q0.125 0.125 0.375 0.125h0.25-0.75 1-0.75 0.25q0.25 0 0.375-0.125l0.125-0.125-0.125 0.125 0.4375 0.1875q0.4375 0.1875 0.6875 0.4375t0.625 0.375 0.875 0.125 0.875-0.125 0.625-0.375 0.6875-0.4375l0.4375-0.1875-0.125-0.125 0.125 0.125q0.125 0.125 0.375 0.125h0.25-0.75 0.5q0.5 0 1 0h0.5-0.75 0.25q0.25 0 0.375-0.125l0.125-0.125-0.125 0.125 0.0625 0.5625q0.0625 0.5625-0.0625 0.9375t-0.375 0.625-0.375 0.625-0.25 0.75-0.5 0.5-0.75 0.25-0.625 0.375-0.5 0.5-0.5 0.5-0.625 0.375-0.875 0.125-1 0-1 0-1 0h-0.5v-0.5q0-0.5 0-1t0-1 0-1 0-1 0.125-0.875m-0.25 5.375h0.875-0.25q-0.25 0-0.5 0h-0.25 0.125" fill="#bf0a30"/>
  </g>
  <path d="m0 13.5v-0.5l0.375 0.125q0.375 0.125 0.5 0.5t0.125 0.875 0.375 0.625 0.5 0.5 0.625 0.375 0.875 0.125 0.5 0.5 0.5 0.5 0.5 0.5l0.125 0.375h-5v-4.5" fill-opacity="0"/>
  <path d="m16.125 13.625q0.125-0.375 0.5-0.5l0.375-0.125v5h-5l0.125-0.375q0.125-0.375 0.5-0.5t0.5-0.5 0.5-0.5 0.875-0.125 0.625-0.375 0.5-0.5 0.375-0.625 0.125-0.875" fill-opacity="0"/>
 </g>
</svg>
