<svg width="17" height="14" version="1.1" viewBox="0 0 17 14" xmlns="http://www.w3.org/2000/svg">
 <g transform="translate(0)">
  <path d="m0 0.5v-0.5h5l-0.125 0.375q-0.125 0.375-0.5 0.5t-0.5 0.5-0.5 0.5-0.875 0.125-0.625 0.375-0.5 0.5-0.375 0.625-0.125 0.875-0.5 0.5l-0.375 0.125v-4.5" fill-opacity="0"/>
  <path d="m4.875 0.375 0.125-0.375h7l0.125 0.375q0.125 0.375 0.5 0.5t0.5 0.5 0.5 0.5 0.875 0.125 0.625 0.375 0.5 0.5 0.375 0.625 0.125 0.875 0.5 0.5l0.375 0.125v4l-0.375 0.125q-0.375 0.125-0.5 0.5t-0.125 0.875-0.5 0.5-0.5 0.5-0.5 0.5-0.875 0.125-0.5 0.5-0.625 0.375-0.5 0.5v0.5h-7v-0.5q0-0.5-0.5-0.5t-0.625-0.375-0.5-0.5-0.875-0.125-0.5-0.5-0.5-0.5-0.5-0.5-0.125-0.875-0.5-0.5l-0.375-0.125v-4l0.375-0.125q0.375-0.125 0.5-0.5t0.125-0.875 0.375-0.625 0.5-0.5 0.625-0.375 0.875-0.125 0.5-0.5 0.5-0.5 0.5-0.5m4.625 12.625q0.5 0 0.875-0.125t0.625-0.375 0.625-0.375 0.75-0.25 0.625-0.375 0.5-0.5 0.5-0.5 0.5-0.5 0.5-0.5 0.5-0.5 0.375-0.625 0.125-0.875 0-1-0.125-0.875-0.375-0.625-0.375-0.625-0.25-0.75-0.5-0.5-0.75-0.25-0.625-0.375-0.5-0.5-0.5-0.5-0.625-0.375-0.875-0.125-1 0-1 0-1 0-1 0-0.875 0.125-0.625 0.375-0.5 0.5-0.5 0.5-0.625 0.375-0.75 0.25-0.5 0.5-0.25 0.75-0.375 0.625-0.375 0.625-0.125 0.875 0 1 0.125 0.875 0.375 0.625 0.5 0.5 0.5 0.5 0.5 0.5 0.5 0.5 0.5 0.5 0.625 0.375 0.75 0.25 0.625 0.375 0.625 0.375 0.875 0.125 1 0 1 0"/>
  <path d="m12.125 0.375-0.125-0.375h5v5l-0.375-0.125q-0.375-0.125-0.5-0.5t-0.125-0.875-0.375-0.625-0.5-0.5-0.625-0.375-0.875-0.125-0.5-0.5-0.5-0.5-0.5-0.5" fill-opacity="0"/>
  <g>
   <path d="m5 1.5q0.25-0.25 0.625-0.375t0.875-0.125 1 0 1 0 1 0 1 0 0.875 0.125 0.625 0.375 0.5 0.5 0.5 0.5 0.625 0.375 0.75 0.25 0.5 0.5 0.25 0.75 0.375 0.625 0.375 0.625 0.125 0.875v0.5l-0.375-0.125q-0.375-0.125-0.625-0.375t-0.64062-0.39062l-0.39062-0.14062-0.03125 0.21875 0.03125-0.21875q0.03125-0.21875 0.03125-0.46875v-0.25 0.75-0.5q0-0.5-0.125-0.875t-0.375-0.625-0.5-0.5-0.625-0.375-0.875-0.125-1 0-1 0-1 0-1 0-1 0-1 0-0.875 0.125-0.625 0.375-0.5 0.5-0.375 0.625-0.125 0.875 0.125 0.875 0.375 0.625 0.375 0.625 0.125 0.875 0.125 0.875 0.375 0.625 0.5 0.5 0.5 0.5 0.5 0.5 0.625 0.375 0.875 0.125 1 0 1 0 0.875-0.125 0.625-0.375 0.5-0.5 0.5-0.5 0.5-0.5 0.25-0.5-0.375-0.375-0.75 0-0.625 0.375-0.625 0.375-0.875 0.125-1 0-0.875-0.125-0.625-0.375-0.5-0.5-0.39062-0.64062l-0.14062-0.39062-0.21875 0.03125 0.21875-0.03125q0.21875-0.03125 0.40625-0.09375l0.1875-0.0625-0.5625 0.1875 0.375-0.125q0.375-0.125 0.625-0.375t0.5-0.5 0.375-0.625 0.125-0.875v-0.5 0.75-0.25q0-0.25-0.03125-0.46875l-0.03125-0.21875 0.03125 0.21875h1.0625l0.03125-0.21875-0.03125 0.21875q-0.03125 0.21875-0.03125 0.46875v0.25-0.75 0.5q0 0.5 0.125 0.875t0.375 0.625 0.5 0.5 0.625 0.375 0.875 0.125 1 0 0.875 0.125 0.625 0.375 0.5 0.25 0.5-0.25 0.60938-0.39062l0.35938-0.14062 0.03125-0.21875-0.03125 0.21875q-0.03125 0.21875-0.09375 0.40625l-0.0625 0.1875 0.1875-0.5625-0.125 0.375q-0.125 0.375-0.375 0.625t-0.5 0.5-0.5 0.5-0.5 0.5-0.5 0.5-0.5 0.5-0.625 0.375-0.75 0.25-0.625 0.375-0.625 0.375-0.875 0.125-1 0-1 0-0.875-0.125-0.625-0.375-0.625-0.375-0.75-0.25-0.625-0.375-0.5-0.5-0.5-0.5-0.5-0.5-0.5-0.5-0.5-0.5-0.375-0.625-0.125-0.875 0-1 0.125-0.875 0.375-0.625 0.375-0.625 0.25-0.75 0.5-0.5 0.75-0.25 0.625-0.375 0.5-0.5 0.5-0.5m11 5.625v-0.875 0.25q0 0.25 0 0.5v0.25-0.125" fill="#e30a17"/>
   <path d="m4 3.5q0.25-0.25 0.625-0.375t0.875-0.125 1 0h0.5l0.125 0.375q0.125 0.375 0.375 0.625t0.375 0.625 0.125 0.875-0.125 0.875-0.375 0.625-0.5 0.5-0.625 0.375-0.875 0.125-1.0156 0.015625l-0.51562 0.015625 0.03125 0.21875-0.03125-0.21875q-0.03125-0.21875-0.09375-0.40625l-0.0625-0.1875 0.1875 0.5625-0.125-0.375q-0.125-0.375-0.375-0.625t-0.375-0.625-0.125-0.875 0.125-0.875 0.375-0.625 0.5-0.5m1.5 3.5q0.5 0 0.875-0.125t0.5-0.5 0.125-0.875-0.125-0.875-0.5-0.5-0.875-0.125-0.875 0.125-0.5 0.5-0.125 0.875 0.125 0.875 0.5 0.5 0.875 0.125m1.625-4h-0.875 0.25q0.25 0 0.5 0h0.25-0.125"/>
   <path d="m7.125 3.375-0.125-0.375h0.5q0.5 0 1 0t1 0h0.5l-0.125 0.375q-0.125 0.375-0.375 0.625t-0.375 0.625l-0.125 0.375 0.1875-0.5625-0.0625 0.1875q-0.0625 0.1875-0.09375 0.40625l-0.03125 0.21875 0.03125-0.21875h-1.0625l0.03125 0.21875-0.03125-0.21875q-0.03125-0.21875-0.09375-0.40625l-0.0625-0.1875 0.1875 0.5625-0.125-0.375q-0.125-0.375-0.375-0.625t-0.375-0.625m3-0.375h-0.875 0.25q0.25 0 0.5 0h0.25-0.125m-2.75 0h-0.625 0.25q0.25 0 0.5 0h0.25-0.375" fill="#fff"/>
   <path d="m9.875 3.375 0.125-0.375h0.5q0.5 0 1 0t0.875 0.125 0.625 0.375 0.5 0.5 0.375 0.625 0.125 0.875-0.125 0.875-0.375 0.625-0.39062 0.64062l-0.14062 0.39062 0.21875 0.03125-0.21875-0.03125q-0.21875-0.03125-0.46875-0.03125h-0.25 0.75-0.5q-0.5 0-1 0t-0.875-0.125-0.625-0.375-0.5-0.5-0.375-0.625-0.125-0.875 0.125-0.875 0.375-0.625 0.375-0.625m1.625 3.625q0.5 0 0.875-0.125t0.5-0.5 0.125-0.875-0.125-0.875-0.5-0.5-0.875-0.125-0.875 0.125-0.5 0.5-0.125 0.875 0.125 0.875 0.5 0.5 0.875 0.125m-1.125-4h-0.625 0.25q0.25 0 0.5 0h0.25-0.375"/>
  </g>
  <g fill="#fff">
   <path d="m4.125 4.625q0.125-0.375 0.5-0.5t0.875-0.125 0.875 0.125 0.5 0.5 0.125 0.875-0.125 0.875-0.5 0.5-0.875 0.125-0.875-0.125-0.5-0.5-0.125-0.875 0.125-0.875"/>
   <path d="m10.125 4.625q0.125-0.375 0.5-0.5t0.875-0.125 0.875 0.125 0.5 0.5 0.125 0.875-0.125 0.875-0.5 0.5-0.875 0.125-0.875-0.125-0.5-0.5-0.125-0.875 0.125-0.875"/>
   <path d="m13.875 6.375 0.125-0.375-0.1875 0.5625 0.0625-0.1875q0.0625-0.1875 0.09375-0.40625l0.03125-0.21875-0.03125 0.21875 0.39062 0.14062q0.39062 0.14062 0.64062 0.39062t0.625 0.375l0.375 0.125v1-0.75 0.25q0 0.25-0.03125 0.46875l-0.03125 0.21875 0.03125-0.21875-0.35938 0.14062q-0.35938 0.14062-0.60938 0.39062t-0.5 0.25-0.5-0.25-0.625-0.375l-0.375-0.125 0.5625 0.1875-0.1875-0.0625q-0.1875-0.0625-0.40625-0.09375l-0.21875-0.03125 0.21875 0.03125 0.14062-0.39062q0.14062-0.39062 0.39062-0.64062t0.375-0.625m2.125 1v-0.625 0.25q0 0.25 0 0.5v0.25-0.375"/>
   <path d="m4 8.5v-0.5 0.75-0.25q0-0.25-0.03125-0.46875l-0.03125-0.21875 0.03125 0.21875 0.51562-0.015625q0.51562-0.015625 1.0156-0.015625h0.5-0.75 0.25q0.25 0 0.46875-0.03125l0.21875-0.03125-0.21875 0.03125 0.14062 0.39062q0.14062 0.39062 0.39062 0.64062t0.5 0.5 0.625 0.375 0.875 0.125 1 0 0.875-0.125 0.625-0.375 0.625-0.375 0.75 0 0.375 0.375-0.25 0.5-0.5 0.5-0.5 0.5-0.5 0.5-0.625 0.375-0.875 0.125-1 0-1 0-0.875-0.125-0.625-0.375-0.5-0.5-0.5-0.5-0.5-0.5-0.375-0.625-0.125-0.875"/>
  </g>
  <path d="m0 9.5v-0.5l0.375 0.125q0.375 0.125 0.5 0.5t0.125 0.875 0.5 0.5 0.5 0.5 0.5 0.5 0.875 0.125 0.5 0.5 0.625 0.375 0.5 0.5v0.5h-5v-4.5" fill-opacity="0"/>
  <path d="m16.125 9.625q0.125-0.375 0.5-0.5l0.375-0.125v5h-5v-0.5q0-0.5 0.5-0.5t0.625-0.375 0.5-0.5 0.875-0.125 0.5-0.5 0.5-0.5 0.5-0.5 0.125-0.875" fill-opacity="0"/>
 </g>
</svg>
