<svg width="17" height="14" version="1.1" viewBox="0 0 17 14" xmlns="http://www.w3.org/2000/svg">
 <g transform="translate(0)">
  <path d="m0 0.5v-0.5h5l-0.125 0.375q-0.125 0.375-0.5 0.5t-0.5 0.5-0.5 0.5-0.875 0.125-0.625 0.375-0.5 0.5-0.375 0.625-0.125 0.875-0.5 0.5l-0.375 0.125v-4.5" fill-opacity="0"/>
  <path d="m4.875 0.375 0.125-0.375h7l0.125 0.375q0.125 0.375 0.5 0.5t0.5 0.5 0.5 0.5 0.875 0.125 0.5 0.5 0.5 0.5 0.5 0.5 0.125 0.875 0.5 0.5l0.375 0.125v4l-0.375 0.125q-0.375 0.125-0.5 0.5t-0.125 0.875-0.5 0.5-0.5 0.5-0.5 0.5-0.875 0.125-0.5 0.5-0.625 0.375-0.5 0.5v0.5h-7v-0.5q0-0.5-0.5-0.5t-0.625-0.375-0.5-0.5-0.875-0.125-0.5-0.5-0.5-0.5-0.5-0.5-0.125-0.875-0.5-0.5l-0.375-0.125v-4l0.375-0.125q0.375-0.125 0.5-0.5t0.125-0.875 0.375-0.625 0.5-0.5 0.625-0.375 0.875-0.125 0.5-0.5 0.5-0.5 0.5-0.5m-3.75 8q0.125 0.375 0.375 0.375t0.5-0.25 0.625-0.375 0.75-0.25 0.375-0.375-0.375-0.375l-0.375-0.125 0.5625 0.1875-0.1875-0.0625q-0.1875-0.0625-0.375-0.0625h-0.1875 0.1875v-0.53125q0-0.53125 0-1.0312t0.125-0.875 0.375-0.625 0.5-0.5 0.625-0.375 0.875-0.125 0.875 0.125 0.625 0.375 0.5 0.5 0.375 0.625 0.25 0.75 0.375 0.375 0.375-0.375 0.25-0.75 0.375-0.625 0.5-0.5 0.625-0.375 0.875-0.125 0.875-0.125 0.375-0.375-0.25-0.5-0.5-0.5-0.625-0.375-0.875-0.125-1 0-1 0-1 0-1 0-0.875 0.125-0.625 0.375-0.5 0.5-0.5 0.5-0.625 0.375-0.75 0.25-0.5 0.5-0.25 0.75-0.375 0.625-0.375 0.625-0.125 0.875 0 1 0.125 0.875m8.375 4.625q0.5 0 0.875-0.125t0.625-0.375 0.625-0.375 0.75-0.25 0.625-0.375 0.5-0.5 0.5-0.5 0.5-0.5 0.5-0.5 0.5-0.5 0.375-0.625 0.125-0.875 0-1-0.125-0.875-0.375-0.375-0.5 0.25-0.5 0.5-0.375 0.625l-0.125 0.375-0.375 0.125q-0.375 0.125-0.625 0.375t-0.625 0.375-0.875 0.125-1 0-1 0-0.875 0.125-0.625 0.375-0.625 0.375-0.75 0.25-0.625 0.375-0.625 0.375-0.75 0.25-0.5 0.5 0 0.75 0.5 0.5 0.75 0.25 0.625 0.375 0.625 0.375 0.875 0.125 1 0 1 0m4.2188-5.9062 0.46875-0.15625-0.1875 0.0625q-0.1875 0.0625-0.375 0.125l-0.1875 0.0625 0.28125-0.09375m-2.2188-0.09375q0.5 0 0.875-0.125t0.5-0.5 0.125-0.875-0.125-0.875-0.5-0.5-0.875-0.125-0.875 0.125-0.5 0.5-0.125 0.875 0.125 0.875 0.5 0.5 0.875 0.125m-6 0q0.5 0 0.875-0.125t0.5-0.5 0.125-0.875-0.125-0.875-0.5-0.5-0.875-0.125-0.875 0.125-0.5 0.5-0.125 0.875 0.125 0.875 0.5 0.5 0.875 0.125"/>
  <path d="m12.125 0.375-0.125-0.375h5v5l-0.375-0.125q-0.375-0.125-0.5-0.5t-0.125-0.875-0.5-0.5-0.5-0.5-0.5-0.5-0.875-0.125-0.5-0.5-0.5-0.5-0.5-0.5" fill-opacity="0"/>
  <g>
   <path d="m5 1.5q0.25-0.25 0.625-0.375t0.875-0.125 1 0 1 0 1 0 1 0 0.875 0.125 0.625 0.375 0.5 0.5 0.25 0.5-0.375 0.375-0.875 0.125-0.875 0.125-0.625 0.375-0.5 0.5-0.375 0.625l-0.125 0.375h-1l-0.125-0.375q-0.125-0.375-0.375-0.625t-0.5-0.5-0.625-0.375-0.875-0.125-0.875 0.125-0.625 0.375-0.5 0.5-0.375 0.625-0.125 0.875 0 1.0312v0.53125h0.1875-0.1875q-0.1875 0-0.375 0.0625l-0.1875 0.0625 0.5625-0.1875-0.375 0.125q-0.375 0.125-0.625 0.375t-0.60938 0.35938l-0.35938 0.10938 0.03125 0.21875-0.03125-0.21875q-0.03125-0.21875-0.03125-0.46875v-0.25 0.75-0.5q0-0.5 0-1t0.125-0.875 0.375-0.625 0.375-0.625 0.25-0.75 0.5-0.5 0.75-0.25 0.625-0.375 0.5-0.5 0.5-0.5m2.9062 3.2188 0.15625 0.46875-0.0625-0.1875q-0.0625-0.1875-0.125-0.375l-0.0625-0.1875 0.09375 0.28125m1.0625 0.375 0.21875-0.65625-0.0625 0.1875q-0.0625 0.1875-0.125 0.375l-0.0625 0.1875 0.03125-0.09375" fill="#1eb53a"/>
   <path d="m4.125 4.625q0.125-0.375 0.5-0.5t0.875-0.125 0.875 0.125 0.5 0.5 0.125 0.875-0.125 0.875-0.5 0.5-0.875 0.125-0.875-0.125-0.5-0.5-0.125-0.875 0.125-0.875" fill="#fff"/>
   <path d="m10.125 4.625q0.125-0.375 0.5-0.5t0.875-0.125 0.875 0.125 0.5 0.5 0.125 0.875-0.125 0.875-0.5 0.5-0.875 0.125-0.875-0.125-0.5-0.5-0.125-0.875 0.125-0.875" fill="#fff"/>
   <path d="m8.125 5.375-0.125-0.375h1l-0.125 0.375q-0.125 0.375-0.375 0.375t-0.375-0.375m0.78125-0.09375 0.15625-0.46875-0.0625 0.1875q-0.0625 0.1875-0.125 0.375l-0.0625 0.1875 0.09375-0.28125m-0.9375-0.375 0.21875 0.65625-0.0625-0.1875q-0.0625-0.1875-0.125-0.375l-0.0625-0.1875 0.03125 0.09375" fill="#fcd116"/>
   <path d="m15 5.5q0.25-0.25 0.5-0.25t0.375 0.375l0.125 0.375-0.1875-0.5625 0.0625 0.1875q0.0625 0.1875 0.09375 0.40625l0.03125 0.21875-0.03125-0.21875-0.35938 0.10938q-0.35938 0.10938-0.60938 0.35938t-0.625 0.375l-0.375 0.125 0.125-0.375q0.125-0.375 0.375-0.625t0.5-0.5m-1.0938 1.5312 0.65625-0.21875-0.1875 0.0625q-0.1875 0.0625-0.375 0.125l-0.1875 0.0625 0.09375-0.03125" fill="#fcd116"/>
   <path d="m15 6.5q0.25-0.25 0.60938-0.35938l0.35938-0.10938-0.03125-0.21875 0.03125 0.21875q0.03125 0.21875 0.03125 0.46875v0.25-0.75 0.5q0 0.5 0 1t-0.125 0.875-0.375 0.625-0.5 0.5-0.5 0.5-0.5 0.5-0.5 0.5-0.5 0.5-0.625 0.375-0.75 0.25-0.625 0.375-0.625 0.375-0.875 0.125-1 0-1 0-0.875-0.125-0.625-0.375-0.625-0.375-0.75-0.25-0.5-0.5l-0.125-0.375 0.1875 0.5625-0.0625-0.1875q-0.0625-0.1875-0.0625-0.375v-0.1875 0.1875h0.46875q0.46875 0 0.84375-0.125t0.625-0.375 0.625-0.375 0.75-0.25 0.625-0.375 0.625-0.375 0.875-0.125 0.875-0.125 0.5-0.5l0.125-0.375h0.5q0.5 0 0.875-0.125t0.625-0.375 0.625-0.375 0.75-0.25 0.625-0.375m-3.625 1.5h-0.625 0.25q0.25 0 0.5 0h0.25-0.375" fill="#00a3dd"/>
   <path d="m2 7.5q0.25-0.25 0.625-0.375t0.75 0 0.375 0.375-0.375 0.375-0.75 0.25-0.625 0.375-0.5 0.25-0.375-0.375l-0.125-0.375 0.1875 0.5625-0.0625-0.1875q-0.0625-0.1875-0.09375-0.40625l-0.03125-0.21875 0.03125 0.21875 0.35938-0.10938q0.35938-0.10938 0.60938-0.35938" fill="#fcd116"/>
   <path d="m8 8.5q0.25-0.25 0.625-0.375t0.875-0.125 1 0h0.5l-0.125 0.375q-0.125 0.375-0.5 0.5t-0.875 0.125-0.875 0.125-0.625 0.375-0.625 0.375-0.75 0.25-0.625 0.375-0.625 0.375-0.84375 0.125h-0.46875v0.1875-0.1875q0-0.1875 0.0625-0.375l0.0625-0.1875-0.1875 0.5625 0.125-0.375q0.125-0.375 0.5-0.5t0.75-0.25 0.625-0.375 0.625-0.375 0.75-0.25 0.625-0.375m3.125-0.5h-0.875 0.25q0.25 0 0.5 0h0.25-0.125" fill="#fcd116"/>
  </g>
  <path d="m0 9.5v-0.5l0.375 0.125q0.375 0.125 0.5 0.5t0.125 0.875 0.5 0.5 0.5 0.5 0.5 0.5 0.875 0.125 0.5 0.5 0.625 0.375 0.5 0.5v0.5h-5v-4.5" fill-opacity="0"/>
  <path d="m16.125 9.625q0.125-0.375 0.5-0.5l0.375-0.125v5h-5v-0.5q0-0.5 0.5-0.5t0.625-0.375 0.5-0.5 0.875-0.125 0.5-0.5 0.5-0.5 0.5-0.5 0.125-0.875" fill-opacity="0"/>
 </g>
</svg>
