<svg width="19" height="20" version="1.1" viewBox="0 0 19 20" xmlns="http://www.w3.org/2000/svg">
 <g transform="translate(0)">
  <path d="m0 0.5v-0.5h4v1h-0.5q-0.5 0-1 0t-0.5 0.5v0.5h-0.5q-0.5 0-0.5 0.5v0.5h-1v-2.5" fill-opacity="0"/>
  <path d="m4 0.5v-0.5h11v1h-0.5q-0.5 0-1 0t-1 0-1 0-1 0-1 0-1 0-1 0-1 0-1 0-1 0h-0.5v-0.5"/>
  <path d="m15 0.5v-0.5h4v3h-1v-0.5q0-0.5-0.5-0.5h-0.5v-0.5q0-0.5-0.5-0.5t-1 0h-0.5v-0.5" fill-opacity="0"/>
  <path d="m2 1.5q0-0.5 0.5-0.5t1 0h0.5v0.5q0 0.5-0.5 0.5t-1 0h-0.5v-0.5"/>
  <path d="m4 1.5v-0.5h0.5q0.5 0 1 0t1 0 1 0 1 0 1 0 1 0 1 0 1 0 1 0 1 0h0.5v0.5q0 0.5 0.5 0.5t1 0h0.5v0.5q0 0.5 0.5 0.5h0.5v0.5q0 0.5 0 1t-0.5 0.5-0.5-0.5-0.5-0.5h-0.5v-0.5q0-0.5-0.5-0.5t-1 0-1 0-1 0-1 0-1 0-1 0-1 0-1 0-1 0-1 0-1 0-1 0-0.5 0.5v0.5h-0.5q-0.5 0-0.5 0.5t-0.5 0.5-0.5-0.5 0-1v-0.5h0.5q0.5 0 0.5-0.5v-0.5h0.5q0.5 0 1 0t0.5-0.5" fill="#222"/>
  <g>
   <path d="m15 1.5v-0.5h0.5q0.5 0 1 0t0.5 0.5v0.5h-0.5q-0.5 0-1 0t-0.5-0.5"/>
   <path d="M 1,2.5 Q 1,2 1.5,2 H 2 V 2.5 Q 2,3 1.5,3 H 1 V 2.5"/>
   <path d="m17 2.5v-0.5h0.5q0.5 0 0.5 0.5v0.5h-0.5q-0.5 0-0.5-0.5"/>
   <path d="m0 3.5v-0.5h1v0.5q0 0.5 0 1t0.5 0.5 0.5-0.5 0.5-0.5h0.5v0.5q0 0.5 0 1t0.5 0.5 1 0 1 0 1 0 0.875 0.125 0.65625-0.15625l0.28125-0.28125-0.125-0.125 0.125 0.125q0.125 0.125 0.3125 0.1875l0.1875 0.0625-0.5625-0.1875 0.375 0.125q0.375 0.125 0.875 0.125t0.875-0.125l0.375-0.125-0.5625 0.1875 0.1875-0.0625q0.1875-0.0625 0.3125-0.1875l0.125-0.125-0.125 0.125 0.28125 0.28125q0.28125 0.28125 0.65625 0.15625t0.875-0.125 1 0 1 0 1 0 0.5-0.5 0-1v-0.5h0.5q0.5 0 0.5 0.5t0.5 0.5 0.5-0.5 0-1v-0.5h1v4h-0.5q-0.5 0-0.5 0.5t0 1-0.5 0.5-0.5 0.5 0.125 0.875 0.5 0.5 0.375 0.625 0 1 0 1 0 1-0.375 0.625-0.5 0.5-0.125 0.875-0.5 0.5-0.5 0.5-0.5 0.5-0.875 0.125-0.5 0.5-0.625 0.375-0.5 0.5v0.5h-7v-0.5q0-0.5-0.5-0.5t-0.625-0.375-0.5-0.5-0.875-0.125-0.5-0.5-0.5-0.5-0.5-0.5-0.125-0.875-0.5-0.5-0.375-0.625 0-1 0-1 0-1 0.375-0.625 0.5-0.5 0.125-0.875-0.5-0.5-0.5-0.5 0-1-0.5-0.5h-0.5v-3.5m10.5 15.5q0.5 0 0.875-0.125t0.625-0.375 0.625-0.375 0.75-0.25 0.625-0.375 0.5-0.5 0.5-0.5 0.5-0.5 0.5-0.5 0.5-0.5 0.375-0.625 0.125-0.875v-0.5 0.75-0.25q0-0.25-0.125-0.375l-0.125-0.125 0.125 0.125 0.0625-0.5625q0.0625-0.5625-0.0625-0.9375t-0.375-0.625-0.375-0.625-0.25-0.75-0.5-0.5-0.75 0-0.375 0.375 0.25 0.5 0.375 0.625 0.125 0.875 0.01563 1.0156l0.01563 0.51562 0.10938-0.01563 0.10936-0.01562-0.21875 0.03125q-0.21875 0.03125-0.40625 0.09375l-0.1875 0.0625 0.5625-0.1875-0.375 0.125q-0.375 0.125-0.625 0.375t-0.625 0.375-0.875 0.125-0.875-0.125-0.625-0.375-0.625-0.375l-0.375-0.125 0.5625 0.1875-0.1875-0.0625q-0.1875-0.0625-0.40625-0.09375l-0.21875-0.03125 0.21875 0.03125 0.015625-0.51562q0.015625-0.51562 0.015625-1.0156t-0.125-0.875-0.375-0.375-0.375 0.375-0.125 0.875 0.015625 1.0156l0.015625 0.51562 0.21875-0.03125-0.21875 0.03125q-0.21875 0.03125-0.40625 0.09375l-0.1875 0.0625 0.5625-0.1875-0.375 0.125q-0.375 0.125-0.625 0.375t-0.625 0.375-0.875 0.125-0.875-0.125-0.625-0.375-0.625-0.375l-0.375-0.125 0.5625 0.1875-0.1875-0.0625q-0.1875-0.0625-0.40625-0.09375l-0.21875-0.03125 0.21875 0.03125 0.015625-0.51562q0.015625-0.51562 0.015625-1.0156t0.125-0.875 0.375-0.625 0.25-0.5-0.375-0.375-0.75 0-0.5 0.5-0.25 0.75-0.375 0.625-0.375 0.625-0.0625 0.9375l0.0625 0.5625 0.125-0.125-0.125 0.125q-0.125 0.125-0.125 0.375v0.25-0.75 0.5q0 0.5 0.125 0.875t0.375 0.625 0.5 0.5 0.5 0.5 0.5 0.5 0.5 0.5 0.5 0.5 0.625 0.375 0.75 0.25 0.625 0.375 0.625 0.375 0.875 0.125 1 0 1 0m2-6q0.5 0 0.875-0.125t0.5-0.5 0.125-0.875-0.125-0.875-0.5-0.5-0.875-0.125-0.875 0.125-0.5 0.5-0.125 0.875 0.125 0.875 0.5 0.5 0.875 0.125m0-4q0.5 0 0.5-0.5t0.5-0.5 1 0 1 0 1 0 0.5-0.5-0.5-0.5-1 0-1 0-1 0-1 0-1 0-1 0-1 0-1 0-1 0-1 0-1 0-1 0-1 0-1 0-0.5 0.5 0.5 0.5 1 0 1 0 1 0 0.5 0.5 0.5 0.5 1 0 1 0 1 0 1 0 1 0 1 0m-6 4q0.5 0 0.875-0.125t0.5-0.5 0.125-0.875-0.125-0.875-0.5-0.5-0.875-0.125-0.875 0.125-0.5 0.5-0.125 0.875 0.125 0.875 0.5 0.5 0.875 0.125"/>
   <path d="m3 3.5q0-0.5 0.5-0.5t1 0 1 0 1 0 1 0 1 0 1 0 1 0 1 0 1 0 1 0 1 0 1 0 0.5 0.5v0.5h-0.5q-0.5 0-1 0t-1 0-1 0-0.875-0.125-0.65625 0.15625l-0.28125 0.28125 0.125 0.125-0.125-0.125q-0.125-0.125-0.3125-0.1875l-0.1875-0.0625 0.5625 0.1875-0.375-0.125q-0.375-0.125-0.875-0.125t-0.875 0.125l-0.375 0.125 0.5625-0.1875-0.1875 0.0625q-0.1875 0.0625-0.3125 0.1875l-0.125 0.125 0.125-0.125-0.28125-0.28125q-0.28125-0.28125-0.65625-0.15625t-0.875 0.125-1 0-1 0-1 0h-0.5v-0.5"/>
  </g>
  <g>
   <path d="m3 4.5v-0.5h0.5q0.5 0 1 0t1 0 1 0 0.875-0.125 0.65625 0.15625l0.28125 0.28125 0.125-0.125-0.125 0.125q-0.125 0.125-0.1875 0.3125l-0.0625 0.1875 0.1875-0.5625-0.125 0.375q-0.125 0.375 0 0.75l0.125 0.375-0.1875-0.5625 0.0625 0.1875q0.0625 0.1875 0.1875 0.3125l0.125 0.125-0.125-0.125-0.28125 0.28125q-0.28125 0.28125-0.65625 0.15625t-0.875-0.125-1 0-1 0-1 0-0.5-0.5 0-1" fill="#222"/>
   <path d="m8.125 4.625q0.125-0.375 0.5-0.5t0.875-0.125 0.875 0.125 0.5 0.5 0 0.75-0.5 0.5-0.875 0.125-0.875-0.125-0.5-0.5 0-0.75" fill="#e2c772"/>
   <path d="m10.875 4.625-0.125-0.375 0.1875 0.5625-0.0625-0.1875q-0.0625-0.1875-0.1875-0.3125l-0.125-0.125 0.125 0.125 0.28125-0.28125q0.28125-0.28125 0.65625-0.15625t0.875 0.125 1 0 1 0 1 0h0.5v0.5q0 0.5 0 1t-0.5 0.5-1 0-1 0-1 0-0.875 0.125-0.65625-0.15625l-0.28125-0.28125-0.125 0.125 0.125-0.125q0.125-0.125 0.1875-0.3125l0.0625-0.1875-0.1875 0.5625 0.125-0.375q0.125-0.375 0-0.75" fill="#222"/>
  </g>
  <path d="m0 7.5v-0.5h0.5q0.5 0 0.5 0.5t0 1 0.5 0.5 0.5 0.5-0.125 0.875-0.5 0.5-0.375 0.625 0 1 0 1 0 1 0.375 0.625 0.5 0.5 0.125 0.875 0.5 0.5 0.5 0.5 0.5 0.5 0.875 0.125 0.5 0.5 0.625 0.375 0.5 0.5v0.5h-6v-12.5" fill-opacity="0"/>
  <path d="m2 7.5q0-0.5 0.5-0.5t1 0 1 0 1 0 1 0 1 0 1 0 1 0 1 0 1 0 1 0 1 0 1 0 1 0 1 0 0.5 0.5-0.5 0.5-1 0-1 0-1 0-0.5 0.5-0.5 0.5-1 0-1 0-1 0-1 0-1 0-1 0-0.5-0.5-0.5-0.5-1 0-1 0-1 0-0.5-0.5" fill="#222"/>
  <path d="m18 7.5q0-0.5 0.5-0.5h0.5v13h-6v-0.5q0-0.5 0.5-0.5t0.625-0.375 0.5-0.5 0.875-0.125 0.5-0.5 0.5-0.5 0.5-0.5 0.125-0.875 0.5-0.5 0.375-0.625 0-1 0-1 0-1-0.375-0.625-0.5-0.5-0.125-0.875 0.5-0.5 0.5-0.5 0-1" fill-opacity="0"/>
  <g>
   <path d="m3.125 9.625q0.125-0.375 0.5-0.5t0.75 0 0.375 0.375-0.25 0.5-0.375 0.625-0.125 0.875-0.015625 1.0156l-0.015625 0.51562 0.21875 0.03125-0.21875-0.03125q-0.21875-0.03125-0.46875-0.03125h-0.25 0.75-0.5q-0.5 0-1 0h-0.5 0.75-0.25q-0.25 0-0.375 0.125l-0.125 0.125 0.125-0.125-0.0625-0.5625q-0.0625-0.5625 0.0625-0.9375t0.375-0.625 0.375-0.625 0.25-0.75" fill="#005bbb"/>
   <path d="m14.25 9.5q0-0.25 0.375-0.375t0.75 0 0.5 0.5 0.25 0.75 0.375 0.625 0.375 0.625 0.0625 0.9375l-0.0625 0.5625 0.125 0.125-0.125-0.125q-0.125-0.125-0.375-0.125h-0.25 0.75-0.5q-0.5 0-1 0h-0.5 0.75-0.25q-0.25 0-0.46875 0.03125l-0.21875 0.03125 0.21875-0.03126-0.01563-0.51562q-0.01562-0.51562-0.01562-1.0156t-0.125-0.875-0.375-0.625-0.25-0.5" fill="#005bbb"/>
   <path d="m5.125 10.625q0.125-0.375 0.5-0.5t0.875-0.125 0.875 0.125 0.5 0.5 0.125 0.875-0.125 0.875-0.5 0.5-0.875 0.125-0.875-0.125-0.5-0.5-0.125-0.875 0.125-0.875" fill="#fff"/>
   <path d="m9.125 10.625q0.125-0.375 0.375-0.375t0.375 0.375 0.125 0.875-0.015625 1.0156l-0.015625 0.51562 0.21875 0.03125-0.21875-0.03125q-0.21875-0.03125-0.46875-0.03125h-0.25 0.75-1 0.75-0.25q-0.25 0-0.46875 0.03125l-0.21875 0.03125 0.21875-0.03125-0.015625-0.51562q-0.015625-0.51562-0.015625-1.0156t0.125-0.875" fill="#005bbb"/>
   <path d="m11.125 10.625q0.125-0.375 0.5-0.5t0.875-0.125 0.875 0.125 0.5 0.5 0.125 0.875-0.125 0.875-0.5 0.5-0.875 0.125-0.875-0.125-0.5-0.5-0.125-0.875 0.125-0.875" fill="#fff"/>
   <path d="m2 13.5q0-0.5 0.5-0.5t1 0 0.875 0.125 0.625 0.375 0.625 0.375 0.875 0.125 0.875-0.125 0.625-0.375 0.625-0.375 0.875-0.125 0.875 0.125 0.625 0.375 0.625 0.375 0.875 0.125 0.875-0.125 0.625-0.375 0.625-0.375 0.875-0.125 1 0 0.5 0.5-0.125 0.875-0.375 0.625-0.5 0.5-0.5 0.5-0.5 0.5-0.5 0.5-0.5 0.5-0.625 0.375-0.75 0.25-0.625 0.375-0.625 0.375-0.875 0.125-1 0-1 0-0.875-0.125-0.625-0.375-0.625-0.375-0.75-0.25-0.625-0.375-0.5-0.5-0.5-0.5-0.5-0.5-0.5-0.5-0.5-0.5-0.375-0.625-0.125-0.875" fill="#f9dd16"/>
  </g>
 </g>
</svg>
