<svg width="19" height="22" version="1.1" viewBox="0 0 19 22" xmlns="http://www.w3.org/2000/svg">
 <g transform="translate(0)">
  <path d="m0 0.5v-0.5h6l-0.125 0.375q-0.125 0.375-0.5 0.5t-0.875 0.125-0.625 0.375-0.5 0.5-0.875 0.125-0.625 0.375-0.5 0.5-0.5 0.5-0.5 0.5l-0.375 0.125v-3.5" fill-opacity="0"/>
  <path d="m5.875 0.375 0.125-0.375h7l0.125 0.375q0.125 0.375 0.5 0.5t0.875 0.125 0.625 0.375 0.5 0.5 0.875 0.125 0.625 0.375 0.5 0.5 0.5 0.5 0.5 0.5l0.375 0.125v2l-0.375 0.125q-0.375 0.125-0.5 0.5t-0.125 0.875-0.375 0.625-0.5 0.5-0.125 0.875 0 1 0 1 0.125 0.875 0.5 0.5 0.375 0.625 0 1 0 1 0 1-0.375 0.625-0.5 0.5-0.125 0.875-0.5 0.5-0.5 0.5-0.5 0.5-0.875 0.125-0.5 0.5-0.625 0.375-0.5 0.5v0.5h-7v-0.5q0-0.5-0.5-0.5t-0.625-0.375-0.5-0.5-0.875-0.125-0.5-0.5-0.5-0.5-0.5-0.5-0.125-0.875-0.5-0.5-0.375-0.625 0-1 0-1 0-1 0.375-0.625 0.5-0.5 0.125-0.875 0-1 0-1-0.125-0.875-0.5-0.5-0.375-0.625-0.125-0.875-0.5-0.5l-0.375-0.125v-2l0.375-0.125q0.375-0.125 0.5-0.5t0.5-0.5 0.5-0.5 0.625-0.375 0.875-0.125 0.5-0.5 0.625-0.375 0.875-0.125 0.5-0.5m4.625 20.625q0.5 0 0.875-0.125t0.625-0.375 0.625-0.375 0.75-0.25 0.625-0.375 0.5-0.5 0.5-0.5 0.5-0.5 0.5-0.5 0.5-0.5 0.375-0.625 0.125-0.875v-0.5 0.75-0.25q0-0.25-0.125-0.375l-0.125-0.125 0.125 0.125 0.0625-0.5625q0.0625-0.5625-0.0625-0.9375t-0.375-0.625-0.375-0.625-0.25-0.75-0.5-0.5-0.75 0-0.375 0.375 0.25 0.5 0.375 0.625 0.125 0.875 0.01563 1.0156l0.01563 0.51562 0.10938-0.01563 0.10936-0.01562-0.21875 0.03125q-0.21875 0.03125-0.40625 0.09375l-0.1875 0.0625 0.5625-0.1875-0.375 0.125q-0.375 0.125-0.625 0.375t-0.625 0.375-0.875 0.125-0.875-0.125-0.625-0.375-0.625-0.375l-0.375-0.125 0.5625 0.1875-0.1875-0.0625q-0.1875-0.0625-0.40625-0.09375l-0.21875-0.03125 0.21875 0.03125 0.015625-0.51562q0.015625-0.51562 0.015625-1.0156t-0.125-0.875-0.375-0.375-0.375 0.375-0.125 0.875 0.015625 1.0156l0.015625 0.51562 0.21875-0.03125-0.21875 0.03125q-0.21875 0.03125-0.40625 0.09375l-0.1875 0.0625 0.5625-0.1875-0.375 0.125q-0.375 0.125-0.625 0.375t-0.625 0.375-0.875 0.125-0.875-0.125-0.625-0.375-0.625-0.375l-0.375-0.125 0.5625 0.1875-0.1875-0.0625q-0.1875-0.0625-0.40625-0.09375l-0.21875-0.03125 0.21875 0.03125 0.015625-0.51562q0.015625-0.51562 0.015625-1.0156t0.125-0.875 0.375-0.625 0.25-0.5-0.375-0.375-0.75 0-0.5 0.5-0.25 0.75-0.375 0.625-0.375 0.625-0.0625 0.9375l0.0625 0.5625 0.125-0.125-0.125 0.125q-0.125 0.125-0.125 0.375v0.25-0.75 0.5q0 0.5 0.125 0.875t0.375 0.625 0.5 0.5 0.5 0.5 0.5 0.5 0.5 0.5 0.5 0.5 0.625 0.375 0.75 0.25 0.625 0.375 0.625 0.375 0.875 0.125 1 0 1 0m2-6q0.5 0 0.875-0.125t0.5-0.5 0.125-0.875-0.125-0.875-0.5-0.5-0.875-0.125-0.875 0.125-0.5 0.5-0.125 0.875 0.125 0.875 0.5 0.5 0.875 0.125m0-4q0.5 0 0.875-0.125t0.625-0.375 0.625-0.375 0.75-0.25 0.375-0.375-0.375-0.375-0.875-0.125-1 0-1 0-1 0-1 0-1 0-1 0-1 0-1 0-1 0-1 0-0.875 0.125-0.375 0.375 0.375 0.375 0.75 0.25 0.625 0.375 0.625 0.375 0.875 0.125 1 0 1 0 1 0 1 0 1 0 1 0m3-3q0.5 0 0.875-0.125t0.375-0.375-0.25-0.5-0.5-0.5-0.625-0.375-0.75-0.25-0.625-0.375-0.5-0.5-0.5-0.5-0.5-0.25-0.375 0.375-0.25 0.75-0.375 0.625-0.5 0.5-0.5 0.5-0.25 0.5 0.375 0.375 0.875 0.125 1 0 1 0 1 0 1 0m-8 0q0.5 0 0.875-0.125t0.375-0.375-0.25-0.5-0.5-0.5-0.5-0.5-0.375-0.625-0.25-0.75-0.375-0.375-0.5 0.25-0.5 0.5-0.5 0.5-0.625 0.375-0.75 0.25-0.625 0.375-0.5 0.5-0.25 0.5 0.375 0.375 0.875 0.125 1 0 1 0 1 0 1 0m1.5-1.5q0.25 0.25 0.5 0.25t0.5-0.25 0.5-0.5 0.375-0.625 0.25-0.75 0.375-0.625 0.5-0.5 0.5-0.25 0.5 0.25 0.5 0.5 0.5 0.5 0.625 0.375 0.75 0.25 0.625 0.375 0.625 0.375 0.75 0 0.5-0.5 0-0.75-0.375-0.625-0.5-0.5-0.625-0.375-0.75-0.25-0.625-0.375-0.625-0.375-0.75-0.25-0.625-0.375-0.625-0.375-0.875-0.125-1 0-1 0-1 0-1 0-0.875 0.125-0.625 0.375-0.625 0.375-0.75 0.25-0.625 0.375-0.625 0.375-0.75 0.25-0.625 0.375-0.5 0.5-0.375 0.625 0 0.75 0.5 0.5 0.75 0 0.625-0.375 0.625-0.375 0.75-0.25 0.625-0.375 0.5-0.5 0.5-0.5 0.5-0.25 0.5 0.25 0.5 0.5 0.375 0.625 0.25 0.75 0.375 0.625 0.5 0.5m-2.5 8.5q0.5 0 0.875-0.125t0.5-0.5 0.125-0.875-0.125-0.875-0.5-0.5-0.875-0.125-0.875 0.125-0.5 0.5-0.125 0.875 0.125 0.875 0.5 0.5 0.875 0.125"/>
  <path d="m13.125 0.375-0.125-0.375h6v4l-0.375-0.125q-0.375-0.125-0.5-0.5t-0.5-0.5-0.5-0.5-0.625-0.375-0.875-0.125-0.5-0.5-0.625-0.375-0.875-0.125-0.5-0.5" fill-opacity="0"/>
  <g fill="#787878">
   <path d="m6 1.5q0.25-0.25 0.625-0.375t0.875-0.125 1 0 1 0 1 0 1 0 0.875 0.125 0.625 0.375 0.625 0.375 0.75 0.25 0.625 0.375 0.625 0.375 0.75 0.25 0.625 0.375 0.5 0.5 0.375 0.625 0 0.75-0.5 0.5-0.75 0-0.625-0.375-0.625-0.375-0.75-0.25-0.625-0.375-0.5-0.5-0.5-0.5-0.5-0.25-0.5 0.25-0.5 0.5-0.375 0.625-0.25 0.75-0.375 0.625-0.5 0.5-0.5 0.25-0.5-0.25-0.5-0.5-0.375-0.625-0.25-0.75-0.375-0.625-0.5-0.5-0.5-0.25-0.5 0.25-0.5 0.5-0.5 0.5-0.625 0.375-0.75 0.25-0.625 0.375-0.625 0.375-0.75 0-0.5-0.5 0-0.75 0.375-0.625 0.5-0.5 0.625-0.375 0.75-0.25 0.625-0.375 0.625-0.375 0.75-0.25 0.625-0.375"/>
   <path d="m6 4.5q0.25-0.25 0.5-0.25t0.375 0.375 0.25 0.75 0.375 0.625 0.5 0.5 0.5 0.5 0.25 0.5-0.375 0.375-0.875 0.125-1 0-1 0-1 0-1 0-0.875-0.125-0.375-0.375 0.25-0.5 0.5-0.5 0.625-0.375 0.75-0.25 0.625-0.375 0.5-0.5 0.5-0.5"/>
   <path d="m12.125 4.625q0.125-0.375 0.375-0.375t0.5 0.25 0.5 0.5 0.5 0.5 0.625 0.375 0.75 0.25 0.625 0.375 0.5 0.5 0.25 0.5-0.375 0.375-0.875 0.125-1 0-1 0-1 0-1 0-0.875-0.125-0.375-0.375 0.25-0.5 0.5-0.5 0.5-0.5 0.375-0.625 0.25-0.75"/>
  </g>
  <path d="m0 6.5v-0.5l0.375 0.125q0.375 0.125 0.5 0.5t0.125 0.875 0.375 0.625 0.5 0.5 0.125 0.875 0 1 0 1-0.125 0.875-0.5 0.5-0.375 0.625 0 1 0 1 0 1 0.375 0.625 0.5 0.5 0.125 0.875 0.5 0.5 0.5 0.5 0.5 0.5 0.875 0.125 0.5 0.5 0.625 0.375 0.5 0.5v0.5h-6v-15.5" fill-opacity="0"/>
  <path d="m18.125 6.625q0.125-0.375 0.5-0.5l0.375-0.125v16h-6v-0.5q0-0.5 0.5-0.5t0.625-0.375 0.5-0.5 0.875-0.125 0.5-0.5 0.5-0.5 0.5-0.5 0.125-0.875 0.5-0.5 0.375-0.625 0-1 0-1 0-1-0.375-0.625-0.5-0.5-0.125-0.875 0-1 0-1 0.125-0.875 0.5-0.5 0.375-0.625 0.125-0.875" fill-opacity="0"/>
  <g>
   <path d="m3.25 9.5q0-0.25 0.375-0.375t0.875-0.125 1 0 1 0 1 0 1 0 1 0 1 0 1 0 1 0 1 0 1 0 0.875 0.125 0.375 0.375-0.375 0.375-0.75 0.25-0.625 0.375-0.625 0.375-0.875 0.125-1 0-1 0-1 0-1 0-1 0-1 0-0.875-0.125-0.625-0.375-0.625-0.375-0.75-0.25-0.375-0.375" fill="#787878"/>
   <path d="m3.125 11.625q0.125-0.375 0.5-0.5t0.75 0 0.375 0.375-0.25 0.5-0.375 0.625-0.125 0.875-0.015625 1.0156l-0.015625 0.51562 0.21875 0.03125-0.21875-0.03125q-0.21875-0.03125-0.46875-0.03125h-0.25 0.75-0.5q-0.5 0-1 0h-0.5 0.75-0.25q-0.25 0-0.375 0.125l-0.125 0.125 0.125-0.125-0.0625-0.5625q-0.0625-0.5625 0.0625-0.9375t0.375-0.625 0.375-0.625 0.25-0.75" fill="#005bbb"/>
   <path d="m14.25 11.5q0-0.25 0.375-0.375t0.75 0 0.5 0.5 0.25 0.75 0.375 0.625 0.375 0.625 0.0625 0.9375l-0.0625 0.5625 0.125 0.125-0.125-0.125q-0.125-0.125-0.375-0.125h-0.25 0.75-0.5q-0.5 0-1 0h-0.5 0.75-0.25q-0.25 0-0.46875 0.03125l-0.21875 0.03125 0.21875-0.03126-0.01563-0.51562q-0.01562-0.51562-0.01562-1.0156t-0.125-0.875-0.375-0.625-0.25-0.5" fill="#005bbb"/>
   <path d="m5.125 12.625q0.125-0.375 0.5-0.5t0.875-0.125 0.875 0.125 0.5 0.5 0.125 0.875-0.125 0.875-0.5 0.5-0.875 0.125-0.875-0.125-0.5-0.5-0.125-0.875 0.125-0.875" fill="#fff"/>
   <path d="m9.125 12.625q0.125-0.375 0.375-0.375t0.375 0.375 0.125 0.875-0.015625 1.0156l-0.015625 0.51562 0.21875 0.03125-0.21875-0.03125q-0.21875-0.03125-0.46875-0.03125h-0.25 0.75-1 0.75-0.25q-0.25 0-0.46875 0.03125l-0.21875 0.03125 0.21875-0.03125-0.015625-0.51562q-0.015625-0.51562-0.015625-1.0156t0.125-0.875" fill="#005bbb"/>
   <path d="m11.125 12.625q0.125-0.375 0.5-0.5t0.875-0.125 0.875 0.125 0.5 0.5 0.125 0.875-0.125 0.875-0.5 0.5-0.875 0.125-0.875-0.125-0.5-0.5-0.125-0.875 0.125-0.875" fill="#fff"/>
   <path d="m2 15.5q0-0.5 0.5-0.5t1 0 0.875 0.125 0.625 0.375 0.625 0.375 0.875 0.125 0.875-0.125 0.625-0.375 0.625-0.375 0.875-0.125 0.875 0.125 0.625 0.375 0.625 0.375 0.875 0.125 0.875-0.125 0.625-0.375 0.625-0.375 0.875-0.125 1 0 0.5 0.5-0.125 0.875-0.375 0.625-0.5 0.5-0.5 0.5-0.5 0.5-0.5 0.5-0.5 0.5-0.625 0.375-0.75 0.25-0.625 0.375-0.625 0.375-0.875 0.125-1 0-1 0-0.875-0.125-0.625-0.375-0.625-0.375-0.75-0.25-0.625-0.375-0.5-0.5-0.5-0.5-0.5-0.5-0.5-0.5-0.5-0.5-0.375-0.625-0.125-0.875" fill="#ffd500"/>
  </g>
 </g>
</svg>
