<svg width="17" height="14" version="1.1" viewBox="0 0 17 14" xmlns="http://www.w3.org/2000/svg">
 <g transform="translate(0)">
  <path d="m0 0.5v-0.5h5l-0.125 0.375q-0.125 0.375-0.5 0.5t-0.5 0.5-0.5 0.5-0.875 0.125-0.625 0.375-0.5 0.5-0.375 0.625-0.125 0.875-0.5 0.5l-0.375 0.125v-4.5" fill-opacity="0"/>
  <path d="m4.875 0.375 0.125-0.375h7l0.125 0.375q0.125 0.375 0.5 0.5t0.5 0.5 0.5 0.5 0.875 0.125 0.625 0.375 0.5 0.5 0.375 0.625 0.125 0.875 0.5 0.5l0.375 0.125v4l-0.375 0.125q-0.375 0.125-0.5 0.5t-0.125 0.875-0.5 0.5-0.5 0.5-0.5 0.5-0.875 0.125-0.5 0.5-0.625 0.375-0.5 0.5v0.5h-7v-0.5q0-0.5-0.5-0.5t-0.625-0.375-0.5-0.5-0.875-0.125-0.5-0.5-0.5-0.5-0.5-0.5-0.125-0.875-0.5-0.5l-0.375-0.125v-4l0.375-0.125q0.375-0.125 0.5-0.5t0.125-0.875 0.375-0.625 0.5-0.5 0.625-0.375 0.875-0.125 0.5-0.5 0.5-0.5 0.5-0.5m4.625 12.625q0.5 0 0.875-0.125t0.625-0.375 0.625-0.375 0.75-0.25 0.625-0.375 0.5-0.5 0.5-0.5 0.5-0.5 0.375-0.625l0.125-0.375 0.375-0.125q0.375-0.125 0.5-0.5t0.125-0.875 0-1-0.125-0.875-0.5625-0.5625l-0.4375-0.1875-0.125 0.125 0.125-0.125q0.125-0.125 0.125-0.375v-0.25 0.75-0.5q0-0.5-0.125-0.875t-0.5-0.5-0.75-0.25-0.625-0.375-0.5-0.5-0.5-0.5-0.625-0.375-0.875-0.125-1 0-1 0-1 0-1 0-0.875 0.125-0.5 0.5-0.5 0.5-0.375 0.375 0.375 0.375 0.875 0.125 0.875 0.125 0.625 0.375 0.5 0.5 0.375 0.625l0.125 0.375-0.1875-0.5625 0.0625 0.1875q0.0625 0.1875 0.21875 0.28125l0.15625 0.09375-0.15625-0.09375-0.046875 0.54688q-0.046875 0.54688-0.10938 1.1094l-0.0625 0.5625 0.125 0.125-0.125-0.125q-0.125-0.125-0.375-0.125h-0.25 0.75l-0.375 0.125q-0.375 0.125-0.625 0.375t-0.625 0.375l-0.375 0.125 0.5625-0.1875-0.1875 0.0625q-0.1875 0.0625-0.28125 0.21875l-0.09375 0.15625 0.09375-0.15625-1.2188 0.03125 0.125 0.125-0.125-0.125q-0.125-0.125-0.375-0.125h-0.25 0.75-1 0.75-0.25q-0.25 0-0.375 0.125l-0.125 0.125 0.125-0.125-0.1875-0.4375q-0.1875-0.4375-0.4375-0.6875t-0.375-0.625-0.1875-0.9375l-0.0625-0.5625-0.125 0.125 0.125-0.125q0.125-0.125 0.125-0.375v-0.25 0.75-1l0.375-0.125q0.375-0.125 0.375-0.375t-0.375-0.375-0.75 0-0.5 0.5-0.125 0.875v0.5-0.75 0.25q0 0.25 0.125 0.375l0.125 0.125-0.125-0.125-0.4375 0.1875q-0.4375 0.1875-0.5625 0.5625t-0.125 0.875 0 1 0.125 0.875 0.5 0.5l0.375 0.125 0.125 0.375q0.125 0.375 0.375 0.625t0.5 0.5 0.5 0.5 0.5 0.5 0.625 0.375 0.75 0.25 0.625 0.375 0.625 0.375 0.875 0.125 1 0 1 0m-4-6q0.5 0 0.875-0.125t0.5-0.5 0.125-0.875-0.125-0.875-0.5-0.5-0.875-0.125-0.875 0.125-0.5 0.5-0.125 0.875 0.125 0.875 0.5 0.5 0.875 0.125"/>
  <path d="m12.125 0.375-0.125-0.375h5v5l-0.375-0.125q-0.375-0.125-0.5-0.5t-0.125-0.875-0.375-0.625-0.5-0.5-0.625-0.375-0.875-0.125-0.5-0.5-0.5-0.5-0.5-0.5" fill-opacity="0"/>
  <g>
   <path d="m5.125 1.625q0.125-0.375 0.5-0.5t0.875-0.125 1 0 1 0 1 0 1 0 0.875 0.125 0.625 0.375 0.5 0.5 0.5 0.5 0.625 0.375 0.75 0.25 0.5 0.5 0.125 0.875-0.5 0.5-0.625-0.375-0.375-0.625-0.5-0.5-0.625-0.375-0.875-0.125-0.875 0.125-0.625 0.375-0.5 0.5-0.375 0.625-0.625 0.375-0.625-0.375-0.375-0.625-0.5-0.5-0.625-0.375-0.875-0.125h-0.5 0.75-0.25q-0.25 0-0.46875-0.03125l-0.21875-0.03125 0.21875 0.03125-0.09375-1.0312-0.125 0.125 0.125-0.125q0.125-0.125 0.1875-0.3125l0.0625-0.1875-0.1875 0.5625 0.125-0.375" fill="#f7d117"/>
   <path d="m4.25 2.5q0-0.25 0.375-0.375l0.375-0.125-0.5625 0.1875 0.1875-0.0625q0.1875-0.0625 0.3125-0.1875l0.125-0.125-0.125 0.125 0.09375 1.0312 0.21875 0.03125-0.21875-0.03125q-0.21875-0.03125-0.40625-0.09375l-0.1875-0.0625 0.5625 0.1875-0.375-0.125q-0.375-0.125-0.375-0.375" fill="#9fa112"/>
   <path d="m2.125 3.625q0.125-0.375 0.5-0.5l0.375-0.125-0.5625 0.1875 0.1875-0.0625q0.1875-0.0625 0.375-0.0625h0.1875-0.1875v0.9375l-0.96875 0.03125-0.03125 0.21875 0.03125-0.21875q0.03125-0.21875 0.09375-0.40625l0.0625-0.1875-0.1875 0.5625 0.125-0.375" fill="#9fa112"/>
   <path d="m3 3.5312v-0.46875h-0.1875 0.1875q0.1875 0 0.375 0.0625l0.1875 0.0625-0.5625-0.1875 0.375 0.125q0.375 0.125 0.375 0.375t-0.375 0.375l-0.375 0.125v-0.46875" fill="#ea560f"/>
   <path d="m10 3.5q0.25-0.25 0.625-0.375t0.875-0.125 0.875 0.125 0.625 0.375 0.5 0.5 0.375 0.625l0.125 0.375-0.1875-0.5625 0.0625 0.1875q0.0625 0.1875 0.21875 0.28125l0.15625 0.09375-0.15625-0.09375-0.046875 0.54688q-0.046875 0.54688-0.17188 0.92188t-0.375 0.625-0.4375 0.6875l-0.1875 0.4375 0.125 0.125-0.125-0.125q-0.125-0.125-0.375-0.125h-0.25 0.75-1 0.75-0.25q-0.25 0-0.375 0.125l-0.125 0.125 0.125-0.125-1.2188-0.03125 0.09375 0.15625-0.09375-0.15625q-0.09375-0.15625-0.28125-0.21875l-0.1875-0.0625 0.5625 0.1875-0.375-0.125q-0.375-0.125-0.625-0.375t-0.625-0.375l-0.375-0.125h0.75-0.25q-0.25 0-0.375 0.125l-0.125 0.125 0.125-0.125-0.0625-0.5625q-0.0625-0.5625-0.10938-1.1094l-0.046875-0.54688-0.15625 0.09375 0.15625-0.09375q0.15625-0.09375 0.21875-0.28125l0.0625-0.1875-0.1875 0.5625 0.125-0.375q0.125-0.375 0.375-0.625t0.5-0.5m1.5 3.5q0.5 0 0.875-0.125t0.5-0.5 0.125-0.875-0.125-0.875-0.5-0.5-0.875-0.125-0.875 0.125-0.5 0.5-0.125 0.875 0.125 0.875 0.5 0.5 0.875 0.125"/>
   <path d="m2 4.5v-0.5 0.75-0.25q0-0.25 0.03125-0.46875l0.03125-0.21875-0.03125 0.21875 0.96875-0.03125v0.5q0 0.5-0.5 0.5t-0.5-0.5" fill="#9e5915"/>
   <path d="m4.125 4.625q0.125-0.375 0.5-0.5t0.875-0.125 0.875 0.125 0.5 0.5 0.125 0.875-0.125 0.875-0.5 0.5-0.875 0.125-0.875-0.125-0.5-0.5-0.125-0.875 0.125-0.875" fill="#fff"/>
   <path d="m10.125 4.625q0.125-0.375 0.5-0.5t0.875-0.125 0.875 0.125 0.5 0.5 0.125 0.875-0.125 0.875-0.5 0.5-0.875 0.125-0.875-0.125-0.5-0.5-0.125-0.875 0.125-0.875" fill="#fff"/>
  </g>
  <g fill="#0033ab">
   <path d="m1.125 5.625q0.125-0.375 0.5625-0.5625l0.4375-0.1875-0.125-0.125 0.125 0.125q0.125 0.125 0.375 0.125h0.25-0.75 1-0.75 0.25q0.25 0 0.375-0.125l0.125-0.125-0.125 0.125 0.0625 0.5625q0.0625 0.5625 0.1875 0.9375t0.375 0.625 0.4375 0.6875l0.1875 0.4375 0.125-0.125-0.125 0.125q-0.125 0.125-0.125 0.375v0.25-0.75 1h-1l-0.125-0.375q-0.125-0.375-0.375-0.375t-0.375 0.375l-0.125 0.375-0.375-0.125q-0.375-0.125-0.5-0.5t-0.125-0.875 0-1 0.125-0.875m1.75 3.375h0.875-0.25q-0.25 0-0.5 0h-0.25 0.125m0.75 0h0.625-0.25q-0.25 0-0.5 0h-0.25 0.375"/>
   <path d="m8.0469 5.4531 0.046875-0.54688-0.15625-0.09375 0.15625 0.09375q0.15625 0.09375 0.40625 0.09375h0.25-0.75 1-0.75 0.25q0.25 0 0.40625-0.09375l0.15625-0.09375-0.15625 0.09375 0.046875 0.54688q0.046875 0.54688 0.10938 1.1094l0.0625 0.5625 0.125-0.125-0.125 0.125q-0.125 0.125-0.125 0.375v0.25-0.75l0.125 0.375q0.125 0.375 0.375 0.625t0.375 0.625l0.125 0.375h-0.5q-0.5 0-1 0t-1 0h-0.5l0.125-0.375q0.125-0.375 0.375-0.625t0.375-0.625l0.125-0.375v0.75-0.25q0-0.25-0.125-0.375l-0.125-0.125 0.125 0.125 0.0625-0.5625q0.0625-0.5625 0.10938-1.1094m-1.1719 3.5469h0.875-0.25q-0.25 0-0.5 0h-0.25 0.125m2.75 0h0.625-0.25q-0.25 0-0.5 0h-0.25 0.375"/>
   <path d="m14.047 5.4531 0.046875-0.54688-0.15625-0.09375 0.15625 0.09375q0.15625 0.09375 0.40625 0.09375h0.25-0.75 1-0.75 0.25q0.25 0 0.375-0.125l0.125-0.125-0.125 0.125 0.4375 0.1875q0.4375 0.1875 0.5625 0.5625t0.125 0.875 0 1-0.125 0.875-0.5 0.5l-0.375 0.125-0.125-0.375q-0.125-0.375-0.375-0.375t-0.375 0.375l-0.125 0.375h-1v-1 0.75-0.25q0-0.25-0.125-0.375l-0.125-0.125 0.125 0.125 0.1875-0.4375q0.1875-0.4375 0.4375-0.6875t0.375-0.625 0.17188-0.92188m-1.1719 3.5469h0.875-0.25q-0.25 0-0.5 0h-0.25 0.125m0.75 0h0.625-0.25q-0.25 0-0.5 0h-0.25 0.375"/>
  </g>
  <g fill="#fff">
   <path d="m7 7.5q0.25-0.25 0.625-0.375t0.25 0.25-0.375 0.625-0.375 0.625l-0.125 0.375h-1v-0.5q0-0.5 0.375-0.625t0.625-0.375m-1.125 1.5h0.875-0.25q-0.25 0-0.5 0h-0.25 0.125m0.75 0h0.625-0.25q-0.25 0-0.5 0h-0.25 0.375"/>
   <path d="m9.125 7.375q-0.125-0.375 0.25-0.25t0.625 0.375 0.625 0.375 0.375 0.625v0.5h-1l-0.125-0.375q-0.125-0.375-0.375-0.625t-0.375-0.625m0.75 1.625h0.875-0.25q-0.25 0-0.5 0h-0.25 0.125m0.75 0h0.625-0.25q-0.25 0-0.5 0h-0.25 0.375"/>
   <path d="m2.125 8.625q0.125-0.375 0.375-0.375t0.375 0.375l0.125 0.375h-1l0.125-0.375m0.5 0.375h0.625-0.25q-0.25 0-0.5 0h-0.25 0.375"/>
   <path d="m4 8.5q0-0.5 0.5-0.5t0.5 0.5v0.5h-1v-0.5m-0.125 0.5h0.875-0.25q-0.25 0-0.5 0h-0.25 0.125m0.75 0h0.625-0.25q-0.25 0-0.5 0h-0.25 0.375"/>
  </g>
  <g>
   <path d="m5 8.5v-0.5 0.75-0.25q0-0.25-0.125-0.375l-0.125-0.125 0.125 0.125 1.2188-0.03125 0.09375-0.15625-0.09375 0.15625q-0.09375 0.15625-0.09375 0.40625v0.25-0.75 1h-1v-0.5m-0.125 0.5h0.875-0.25q-0.25 0-0.5 0h-0.25 0.125m0.75 0h0.625-0.25q-0.25 0-0.5 0h-0.25 0.375" fill="#0033ab"/>
   <path d="m11 8.5v-0.5 0.75-0.25q0-0.25-0.09375-0.40625l-0.09375-0.15625 0.09375 0.15625 1.2188 0.03125 0.125-0.125-0.125 0.125q-0.125 0.125-0.125 0.375v0.25-0.75 1h-1v-0.5m-0.125 0.5h0.875-0.25q-0.25 0-0.5 0h-0.25 0.125m0.75 0h0.625-0.25q-0.25 0-0.5 0h-0.25 0.375" fill="#0033ab"/>
   <path d="m12 8.5q0-0.5 0.5-0.5t0.5 0.5v0.5h-1v-0.5m-0.125 0.5h0.875-0.25q-0.25 0-0.5 0h-0.25 0.125m0.75 0h0.625-0.25q-0.25 0-0.5 0h-0.25 0.375" fill="#fff"/>
   <path d="m14.125 8.625q0.125-0.375 0.375-0.375t0.375 0.375l0.125 0.375h-1l0.125-0.375m-0.25 0.375h0.875-0.25q-0.25 0-0.5 0h-0.25 0.125" fill="#fff"/>
  </g>
  <path d="m0 9.5v-0.5l0.375 0.125q0.375 0.125 0.5 0.5t0.125 0.875 0.5 0.5 0.5 0.5 0.5 0.5 0.875 0.125 0.5 0.5 0.625 0.375 0.5 0.5v0.5h-5v-4.5" fill-opacity="0"/>
  <path d="m2.125 9.375-0.125-0.375h0.5q0.5 0 1 0t1 0 1 0 1 0 1 0 1 0 1 0 1 0 1 0 1 0 1 0 1 0h0.5l-0.125 0.375q-0.125 0.375-0.375 0.625t-0.5 0.5-0.5 0.5-0.5 0.5-0.625 0.375-0.75 0.25-0.625 0.375-0.625 0.375-0.875 0.125-1 0-1 0-0.875-0.125-0.625-0.375-0.625-0.375-0.75-0.25-0.625-0.375-0.5-0.5-0.5-0.5-0.5-0.5-0.375-0.625" fill="#cf142b"/>
  <path d="m16.125 9.625q0.125-0.375 0.5-0.5l0.375-0.125v5h-5v-0.5q0-0.5 0.5-0.5t0.625-0.375 0.5-0.5 0.875-0.125 0.5-0.5 0.5-0.5 0.5-0.5 0.125-0.875" fill-opacity="0"/>
 </g>
</svg>
