<svg width="17" height="14" version="1.1" viewBox="0 0 17 14" xmlns="http://www.w3.org/2000/svg">
 <g transform="translate(0)">
  <path d="m0 0.5v-0.5h5l-0.125 0.375q-0.125 0.375-0.5 0.5t-0.5 0.5-0.5 0.5-0.875 0.125-0.625 0.375-0.5 0.5-0.375 0.625-0.125 0.875-0.5 0.5l-0.375 0.125v-4.5" fill-opacity="0"/>
  <path d="m4.875 0.375 0.125-0.375h7l0.125 0.375q0.125 0.375 0.5 0.5t0.5 0.5 0.5 0.5 0.875 0.125 0.625 0.375 0.5 0.5 0.375 0.625 0.125 0.875 0.5 0.5l0.375 0.125v4l-0.375 0.125q-0.375 0.125-0.5 0.5t-0.125 0.875-0.5 0.5-0.5 0.5-0.5 0.5-0.875 0.125-0.5 0.5-0.625 0.375-0.5 0.5v0.5h-7v-0.5q0-0.5-0.5-0.5t-0.625-0.375-0.5-0.5-0.875-0.125-0.5-0.5-0.5-0.5-0.5-0.5-0.125-0.875-0.5-0.5l-0.375-0.125v-4l0.375-0.125q0.375-0.125 0.5-0.5t0.125-0.875 0.375-0.625 0.5-0.5 0.625-0.375 0.875-0.125 0.5-0.5 0.5-0.5 0.5-0.5m4.625 12.625q0.5 0 0.875-0.125t0.625-0.375 0.625-0.375 0.75-0.25 0.625-0.375 0.5-0.5 0.5-0.5 0.5-0.5 0.5-0.5 0.5-0.5 0.375-0.625 0.125-0.875 0-1-0.125-0.875-0.375-0.625-0.375-0.625-0.25-0.75-0.5625-0.4375l-0.4375-0.0625 0.125 0.125-0.125-0.125q-0.125-0.125-0.375-0.125h-0.25 0.75-1l-0.125-0.375q-0.125-0.375-0.375-0.625t-0.5-0.5-0.625-0.375-0.875-0.125-1.0625 0.0625l-0.5625 0.0625 0.125 0.125-0.125-0.125q-0.125-0.125-0.375-0.125h-0.25 0.75-0.5q-0.5 0-1 0t-1 0-0.875 0.125-0.5 0.5l-0.125 0.375-0.375 0.125q-0.375 0.125-0.375 0.375t0.4375 0.3125l0.4375 0.0625-0.125-0.125 0.125 0.125q0.125 0.125 0.375 0.125h0.25-0.75 0.5q0.5 0 1 0h0.5l0.125 0.375q0.125 0.375 0.375 0.625t0.375 0.625l0.125 0.375-0.1875-0.5625 0.0625 0.1875q0.0625 0.1875 0.21875 0.28125l0.15625 0.09375-0.15625-0.09375 0.03125 1.2188 0.125-0.125-0.125 0.125q-0.125 0.125-0.125 0.375v0.25-0.75 1l-0.375 0.125q-0.375 0.125-0.625 0.375t-0.625 0.375-0.875 0.125-0.875-0.125-0.625-0.375-0.6875-0.4375l-0.4375-0.1875-0.125 0.125 0.125-0.125q0.125-0.125 0.125-0.375v-0.25 0.75-0.5q0-0.5 0-1t0.125-0.875 0.375-0.625 0.25-0.5-0.375-0.375-0.75 0-0.5 0.5-0.125 0.875v0.5l-0.375 0.125q-0.375 0.125-0.5 0.5t-0.125 0.875 0 1 0.125 0.875 0.375 0.625 0.5 0.5 0.5 0.5 0.5 0.5 0.5 0.5 0.5 0.5 0.625 0.375 0.75 0.25 0.625 0.375 0.625 0.375 0.875 0.125 1 0 1 0m-4-6q0.5 0 0.875-0.125t0.5-0.5 0.125-0.875-0.125-0.875-0.5-0.5-0.875-0.125-0.875 0.125-0.5 0.5-0.125 0.875 0.125 0.875 0.5 0.5 0.875 0.125"/>
  <path d="m12.125 0.375-0.125-0.375h5v5l-0.375-0.125q-0.375-0.125-0.5-0.5t-0.125-0.875-0.375-0.625-0.5-0.5-0.625-0.375-0.875-0.125-0.5-0.5-0.5-0.5-0.5-0.5" fill-opacity="0"/>
  <g>
   <path d="m5.125 1.625q0.125-0.375 0.5-0.5l0.375-0.125-0.5625 0.1875 0.1875-0.0625q0.1875-0.0625 0.40625-0.09375l0.21875-0.03125-0.21875 0.03125-0.03125 0.96875h-1l0.125-0.375" fill="#090050"/>
   <path d="m6.0156 1.5156 0.015625-0.48438-0.21875 0.03125 0.21875-0.03125q0.21875-0.03125 0.46875-0.03125h0.25-0.75 1v1h-1l0.015625-0.48438m1.1094-0.51562h-0.875 0.25q0.25 0 0.5 0h0.25-0.125" fill="#5032a4"/>
   <path d="m7 1.5v-0.5h1v1h-1v-0.5m1.125-0.5h-0.875 0.25q0.25 0 0.5 0h0.25-0.125m-0.75 0h-0.625 0.25q0.25 0 0.5 0h0.25-0.375" fill="#f261a5"/>
   <path d="m8 1.5v-0.5h0.5q0.5 0 0.375 0.375t-0.5 0.5l-0.375 0.125v-0.5m0.375-0.5h-0.625 0.25q0.25 0 0.5 0h0.25-0.375" fill="#fdd4ff"/>
   <path d="m8.875 1.375 0.125-0.375v0.75-0.25q0-0.25-0.125-0.375l-0.125-0.125 0.125 0.125 0.5625-0.0625q0.5625-0.0625 1.0625-0.0625t0.875 0.125 0.625 0.375 0.5 0.5 0.375 0.625l0.125 0.375h-0.5q-0.5 0-1 0t-1.0625 0.0625l-0.5625 0.0625 0.125 0.125-0.125-0.125q-0.125-0.125-0.375-0.125h-0.25 0.75-0.5q-0.5 0-1 0h-0.5v-1l0.375-0.125q0.375-0.125 0.5-0.5m-1 1.625h0.875-0.25q-0.25 0-0.5 0h-0.25 0.125" fill="#090050"/>
   <path d="m4.25 2.5q0-0.25 0.375-0.375l0.375-0.125v1-0.75 0.25q0 0.25 0.125 0.375l0.125 0.125-0.125-0.125-0.4375-0.0625q-0.4375-0.0625-0.4375-0.3125" fill="#5032a4"/>
   <path d="m5 2.5v-0.5h1v1h-0.5q-0.5 0-0.5-0.5m0.625 0.5h0.625-0.25q-0.25 0-0.5 0h-0.25 0.375" fill="#f48da6"/>
   <path d="m6 2.5v-0.5h1v1h-1v-0.5m-0.125 0.5h0.875-0.25q-0.25 0-0.5 0h-0.25 0.125" fill="#fdd4ff"/>
   <path d="m7 2.5v-0.5h1v1h-1v-0.5m0.625 0.5h0.625-0.25q-0.25 0-0.5 0h-0.25 0.375" fill="#6481fe"/>
   <path d="m2.125 3.625q0.125-0.375 0.5-0.5t0.75 0 0.375 0.375-0.25 0.5-0.375 0.625l-0.125 0.375 0.1875-0.5625-0.0625 0.1875q-0.0625 0.1875-0.09375 0.40625l-0.03125 0.21875 0.03125-0.21875-1.0312-0.03125v-0.5q0-0.5 0.125-0.875" fill="#cb2006"/>
   <path d="m7.125 3.375-0.125-0.375h0.5q0.5 0 1 0h0.5v0.5q0 0.5 0 1v0.5h-0.5q-0.5 0-0.625-0.375t-0.375-0.625-0.375-0.625m2-0.375h-0.875 0.25q0.25 0 0.5 0h0.25-0.125" fill="#ef6b52"/>
   <path d="m9 3.5v-0.5h0.5q0.5 0 0.5 0.5v0.5h-1v-0.5m0 0.125v0.625-0.25q0-0.25 0-0.5v-0.25 0.375m0.375-0.625h-0.625 0.25q0.25 0 0.5 0h0.25-0.375" fill="#f00"/>
   <path d="m10 3.5v-0.5 0.75-0.25q0-0.25-0.125-0.375l-0.125-0.125 0.125 0.125 0.5625-0.0625q0.5625-0.0625 1.0625-0.0625t1 0h0.5v1h-0.5q-0.5 0-1 0t-1 0h-0.5v-0.5" fill="#006129"/>
   <path d="m13 3.5v-0.5h0.5q0.5 0 0.5 0.5v0.5h-1v-0.5m1 0.625v-0.875 0.25q0 0.25 0 0.5v0.25-0.125" fill="#f7c600"/>
   <path d="m14 3.5v-0.5 0.75-0.25q0-0.25-0.125-0.375l-0.125-0.125 0.125 0.125 0.4375 0.0625q0.4375 0.0625 0.5625 0.4375t0.25 0.75 0.375 0.625 0.375 0.625 0.125 0.875 0 1-0.125 0.875-0.375 0.625-0.5 0.5-0.5 0.5-0.5 0.5-0.5 0.5-0.5 0.5-0.625 0.375-0.75 0.25-0.625 0.375-0.625 0.375-0.875 0.125-1 0-1 0-0.875-0.125-0.625-0.375-0.625-0.375-0.75-0.25-0.625-0.375-0.5-0.5-0.5-0.5-0.5-0.5-0.5-0.5-0.5-0.5-0.375-0.625-0.125-0.875 0-1v-0.5 0.75-0.25q0-0.25 0.03125-0.46875l0.03125-0.21875-0.03125 0.21875 0.96875-0.03125 0.125 0.375q0.125 0.375 0.5 0.5l0.375 0.125h-0.75 0.25q0.25 0 0.375-0.125l0.125-0.125-0.125 0.125 0.4375 0.1875q0.4375 0.1875 0.6875 0.4375t0.625 0.375 0.875 0.125 0.875-0.125 0.625-0.375 0.625-0.375l0.375-0.125 0.125 0.375q0.125 0.375 0.375 0.625t0.5 0.5 0.5 0.5 0.5 0.5 0.5 0.5 0.5 0.5 0.5 0.25 0.5-0.25 0.5-0.5 0.5-0.5 0.5-0.5 0.25-0.5-0.25-0.25-0.5 0.25-0.5 0.5-0.5 0.5-0.5 0.25-0.5-0.25-0.5-0.5-0.5-0.5-0.5-0.5-0.25-0.5 0.375-0.375l0.375-0.125 0.125 0.375q0.125 0.375 0.375 0.625t0.5 0.5 0.5 0.25 0.5-0.25 0.5-0.5 0.375-0.625l0.125-0.375 0.375-0.125q0.375-0.125 0.5-0.5t0.125-0.875 0-1 0-1m0.25 4q0 0.25 0.25 0.25t0.25-0.25-0.25-0.25-0.25 0.25" fill="#090050"/>
   <path d="m4.125 4.625q0.125-0.375 0.5-0.5t0.875-0.125 0.875 0.125 0.5 0.5 0.125 0.875-0.125 0.875-0.5 0.5-0.875 0.125-0.875-0.125-0.5-0.5-0.125-0.875 0.125-0.875" fill="#fff"/>
   <path d="m9 4.5v-0.5h1v1h-1v-0.5m1 0.625v-0.875 0.25q0 0.25 0 0.5v0.25-0.125m-1-1.25v0.875-0.25q0-0.25 0-0.5v-0.25 0.125" fill="#f7c600"/>
   <path d="m10 4.5v-0.5h0.5q0.5 0 1 0t1 0h0.5v0.5q0 0.5 0 1t0 1v0.5h-0.5q-0.5 0-1 0t-1 0h-0.5v-0.5q0-0.5 0-1t0-1m1.25 1q0 0.25 0.25 0.25t0.25-0.25-0.25-0.25-0.25 0.25" fill="#0094ff"/>
   <path d="m13 4.5v-0.5h1v1h-1v-0.5m0 0.125v0.625-0.25q0-0.25 0-0.5v-0.25 0.375m1 0.5v-0.875 0.25q0 0.25 0 0.5v0.25-0.125m0-0.75v-0.625 0.25q0 0.25 0 0.5v0.25-0.375" fill="#f00"/>
   <path d="m1.125 5.625q0.125-0.375 0.5-0.5l0.375-0.125v1l-0.96875 0.03125-0.03125 0.21875 0.03125-0.21875q0.03125-0.21875 0.09375-0.40625l0.0625-0.1875-0.1875 0.5625 0.125-0.375" fill="#5032a4"/>
   <path d="m2 5.5v-0.5l1.0312 0.03125 0.03125-0.21875-0.03125 0.21875q-0.03125 0.21875-0.03125 0.46875v0.25-0.75 1h-1v-0.5m1 0.625v-0.875 0.25q0 0.25 0 0.5v0.25-0.125" fill="#f261a5"/>
   <path d="m8.1094 5.5156-0.015625-0.60938-0.15625-0.09375 0.15625 0.09375q0.15625 0.09375 0.40625 0.09375h0.25-0.75 1v1h-1 0.75-0.25q-0.25 0-0.375 0.125l-0.125 0.125 0.125-0.125-0.015625-0.60938" fill="#090050"/>
   <path d="m9 5.5v-0.5h1v1h-1v-0.5m1 0.625v-0.875 0.25q0 0.25 0 0.5v0.25-0.125m0-0.75v-0.625 0.25q0 0.25 0 0.5v0.25-0.375" fill="#f00"/>
   <path d="m11.25 5.5q0-0.25 0.25-0.25t0.25 0.25-0.25 0.25-0.25-0.25" fill="#fff"/>
   <path d="m13 5.5v-0.5h1v1-0.75 0.25q0 0.25-0.03125 0.46875l-0.03125 0.21875 0.03125-0.21875-0.96875 0.03125v-0.5m0 0.125v0.625-0.25q0-0.25 0-0.5v-0.25 0.375m1-0.25v-0.625 0.25q0 0.25 0 0.5v0.25-0.375m-1-0.5v0.875-0.25q0-0.25 0-0.5v-0.25 0.125" fill="#f7c600"/>
   <path d="m2.125 6.375-0.125-0.375h1v0.5q0 0.5-0.375 0.375t-0.5-0.5m0.875 0v-0.625 0.25q0 0.25 0 0.5v0.25-0.375" fill="#ef6b52"/>
   <path d="M 8,6.5 Q 8,6 8.5,6 H 9 L 8.875,6.375 Q 8.75,6.75 8.375,6.875 L 8,7 V 6.5" fill="#f48da6"/>
   <path d="m8.875 6.375 0.125-0.375h1v1l-0.375 0.125q-0.375 0.125-0.375 0.375t0.25 0.5 0.5 0.5 0.5 0.5 0.5 0.5 0.5 0.25 0.5-0.25 0.5-0.5 0.5-0.5 0.5-0.25 0.25 0.25-0.25 0.5-0.5 0.5-0.5 0.5-0.5 0.5-0.5 0.25-0.5-0.25-0.5-0.5-0.5-0.5-0.5-0.5-0.5-0.5-0.5-0.5-0.375-0.625l-0.125-0.375 0.375-0.125q0.375-0.125 0.5-0.5m1.125 0v-0.625 0.25q0 0.25 0 0.5v0.25-0.375" fill="#f7c600"/>
   <path d="m13 6.5v-0.5l0.96875-0.03125 0.03125-0.21875-0.03125 0.21875q-0.03125 0.21875-0.09375 0.40625l-0.0625 0.1875 0.1875-0.5625-0.125 0.375q-0.125 0.375-0.5 0.5l-0.375 0.125v-0.5m0-0.625v0.875-0.25q0-0.25 0-0.5v-0.25 0.125" fill="#f00"/>
   <path d="m10.125 7.375-0.125-0.375h0.5q0.5 0 1 0t1 0h0.5l-0.125 0.375q-0.125 0.375-0.375 0.625t-0.5 0.5-0.5 0.25-0.5-0.25-0.5-0.5-0.375-0.625" fill="#006129"/>
   <path d="m14.25 7.5q0-0.25 0.25-0.25t0.25 0.25-0.25 0.25-0.25-0.25" fill="#f7c600"/>
  </g>
  <path d="m0 9.5v-0.5l0.375 0.125q0.375 0.125 0.5 0.5t0.125 0.875 0.5 0.5 0.5 0.5 0.5 0.5 0.875 0.125 0.5 0.5 0.625 0.375 0.5 0.5v0.5h-5v-4.5" fill-opacity="0"/>
  <path d="m16.125 9.625q0.125-0.375 0.5-0.5l0.375-0.125v5h-5v-0.5q0-0.5 0.5-0.5t0.625-0.375 0.5-0.5 0.875-0.125 0.5-0.5 0.5-0.5 0.5-0.5 0.125-0.875" fill-opacity="0"/>
 </g>
</svg>
