<svg width="17" height="14" version="1.1" viewBox="0 0 17 14" xmlns="http://www.w3.org/2000/svg">
 <g transform="translate(0)">
  <path d="m0 0.5v-0.5h5l-0.125 0.375q-0.125 0.375-0.5 0.5t-0.5 0.5-0.5 0.5-0.875 0.125-0.625 0.375-0.5 0.5-0.375 0.625-0.125 0.875-0.5 0.5l-0.375 0.125v-4.5" fill-opacity="0"/>
  <path d="m4.875 0.375 0.125-0.375h7l0.125 0.375q0.125 0.375 0.5 0.5t0.5 0.5 0.5 0.5 0.875 0.125 0.625 0.375 0.5 0.5 0.375 0.625 0.125 0.875 0.5 0.5l0.375 0.125v4l-0.375 0.125q-0.375 0.125-0.5 0.5t-0.125 0.875-0.5 0.5-0.5 0.5-0.5 0.5-0.875 0.125-0.5 0.5-0.625 0.375-0.5 0.5v0.5h-7v-0.5q0-0.5-0.5-0.5t-0.625-0.375-0.5-0.5-0.875-0.125-0.5-0.5-0.5-0.5-0.5-0.5-0.125-0.875-0.5-0.5l-0.375-0.125v-4l0.375-0.125q0.375-0.125 0.5-0.5t0.125-0.875 0.375-0.625 0.5-0.5 0.625-0.375 0.875-0.125 0.5-0.5 0.5-0.5 0.5-0.5m4.625 12.625q0.5 0 0.875-0.125t0.5-0.5l0.125-0.375v0.75-0.25q0-0.25-0.125-0.375l-0.125-0.125 0.125 0.125 0.5625-0.0625q0.5625-0.0625 0.9375-0.1875t0.625-0.375 0.5-0.5 0.35938-0.64062l0.10938-0.39062-0.21875 0.03125 0.21875-0.03125q0.21875-0.03125 0.40625-0.09375l0.1875-0.0625-0.5625 0.1875 0.375-0.125q0.375-0.125 0.5-0.5l0.125-0.375v0.75-0.25q0-0.25-0.125-0.375l-0.125-0.125 0.125 0.125 0.4375-0.1875q0.4375-0.1875 0.5625-0.5625t0.0625-0.9375l-0.0625-0.5625-0.125 0.125 0.125-0.125q0.125-0.125 0.125-0.375v-0.25 0.75-1 0.75-0.25q0-0.25-0.125-0.375l-0.125-0.125 0.125 0.125-0.0625-0.4375q-0.0625-0.4375-0.3125-0.6875t-0.4375-0.6875l-0.1875-0.4375-0.125 0.125 0.125-0.125q0.125-0.125 0.125-0.375v-0.25 0.75l-0.125-0.375q-0.125-0.375-0.5-0.5t-0.75 0-0.375 0.375 0.375 0.375l0.375 0.125-0.5625-0.1875 0.1875 0.0625q0.1875 0.0625 0.40625 0.09375l0.21875 0.03125-0.21875-0.03125-0.015625 0.51562q-0.015625 0.51562 0.046875 1.0781l0.0625 0.5625 0.125-0.125-0.125 0.125q-0.125 0.125-0.125 0.375v0.25-0.75 1-0.75 0.25q0 0.25 0.125 0.375l0.125 0.125-0.125-0.125-0.4375 0.1875q-0.4375 0.1875-0.6875 0.4375t-0.625 0.375-0.875 0.125-0.875-0.125-0.625-0.375-0.6875-0.4375l-0.4375-0.1875-0.125 0.125 0.125-0.125q0.125-0.125 0.125-0.375v-0.25 0.75-1 0.75-0.25q0-0.25-0.125-0.375l-0.125-0.125 0.125 0.125 0.0625-0.5625q0.0625-0.5625 0.046875-1.0781l-0.015625-0.51562-0.21875 0.03125 0.21875-0.03125q0.21875-0.03125 0.40625-0.09375l0.1875-0.0625-0.5625 0.1875 0.375-0.125q0.375-0.125 0.5-0.5l0.125-0.375v0.75-0.25q0-0.25-0.125-0.375l-0.125-0.125 0.125 0.125 0.5625-0.0625q0.5625-0.0625 1.0625-0.0625t0.875-0.125 0.375-0.375-0.25-0.5-0.5-0.5-0.625-0.375-0.875-0.125-1 0-1 0-1.0625 0.0625l-0.5625 0.0625 0.125 0.125-0.125-0.125q-0.125-0.125-0.375-0.125h-0.25 0.75-1 0.75-0.25q-0.25 0-0.375 0.125l-0.125 0.125 0.125-0.125-0.4375 0.0625q-0.4375 0.0625-0.6875 0.3125t-0.5 0.5-0.5 0.5-0.625 0.375-0.75 0.25-0.4375 0.5625l-0.0625 0.4375 0.125-0.125-0.125 0.125q-0.125 0.125-0.125 0.375v0.25-0.75 1-0.75 0.25q0 0.25 0.125 0.375l0.125 0.125-0.125-0.125-0.4375 0.1875q-0.4375 0.1875-0.5 0.625l-0.0625 0.4375 0.125-0.125-0.125 0.125q-0.125 0.125-0.125 0.375v0.25-0.75 1-0.75 0.25q0 0.25 0.125 0.375l0.125 0.125-0.125-0.125-0.0625 0.5625q-0.0625 0.5625 0.0625 0.9375t0.5625 0.5625l0.4375 0.1875 0.125-0.125-0.125 0.125q-0.125 0.125-0.125 0.375v0.25-0.75l0.125 0.375q0.125 0.375 0.5 0.5l0.375 0.125-0.5625-0.1875 0.1875 0.0625q0.1875 0.0625 0.40625 0.09375l0.21875 0.03125-0.21875-0.03125 0.10938 0.39062q0.10938 0.39062 0.35938 0.64062t0.5 0.5 0.625 0.375 0.9375 0.1875l0.5625 0.0625 0.125-0.125-0.125 0.125q-0.125 0.125-0.125 0.375v0.25-0.75l0.125 0.375q0.125 0.375 0.5 0.5t0.875 0.125 1 0 1 0m2-6q0.5 0 0.875-0.125t0.5-0.5 0.125-0.875-0.125-0.875-0.5-0.5-0.875-0.125-0.875 0.125-0.5 0.5-0.125 0.875 0.125 0.875 0.5 0.5 0.875 0.125"/>
  <path d="m12.125 0.375-0.125-0.375h5v5l-0.375-0.125q-0.375-0.125-0.5-0.5t-0.125-0.875-0.375-0.625-0.5-0.5-0.625-0.375-0.875-0.125-0.5-0.5-0.5-0.5-0.5-0.5" fill-opacity="0"/>
  <g>
   <path d="m5 1.5q0.25-0.25 0.6875-0.3125l0.4375-0.0625 0.125-0.125-0.125 0.125q-0.125 0.125-0.125 0.375v0.25-0.75l0.125 0.375q0.125 0.375 0.375 0.375t0.375-0.375l0.125-0.375v0.75-0.25q0-0.25-0.125-0.375l-0.125-0.125 0.125 0.125 1.125-0.125v0.5q0 0.5 0.0625 1.0625l0.0625 0.5625 0.125-0.125-0.125 0.125q-0.125 0.125-0.125 0.375v0.25-0.75 1l-0.375-0.125q-0.375-0.125-0.625-0.375t-0.625-0.375-0.875-0.125-0.875 0.125-0.625 0.375-0.6875 0.4375l-0.4375 0.1875 0.125 0.125-0.125-0.125q-0.125-0.125-0.375-0.125h-0.25 0.75-1 0.75-0.25q-0.25 0-0.375 0.125l-0.125 0.125 0.125-0.125 0.0625-0.4375q0.0625-0.4375 0.4375-0.5625t0.75-0.25 0.625-0.375 0.5-0.5 0.5-0.5m3.125-0.5h-0.875 0.25q0.25 0 0.5 0h0.25-0.125" fill="#002580"/>
   <path d="m6.125 1.375q-0.125-0.375 0.375-0.375t0.375 0.375-0.375 0.375-0.375-0.375" fill="#fff"/>
   <path d="m8 1.5v-0.5h0.5q0.5 0 1 0t1 0 0.875 0.125 0.625 0.375 0.5 0.5 0.25 0.5-0.375 0.375-0.875 0.125-1.0625 0.0625l-0.5625 0.0625 0.125 0.125-0.125-0.125q-0.125-0.125-0.375-0.125h-0.25 0.75-0.5q-0.5 0-1 0h-0.5 0.75-0.25q-0.25 0-0.375 0.125l-0.125 0.125 0.125-0.125-0.0625-0.5625q-0.0625-0.5625-0.0625-1.0625m0.375-0.5h-0.625 0.25q0.25 0 0.5 0h0.25-0.375" fill="#00994c"/>
   <path d="m4 3.5q0.25-0.25 0.625-0.375t0.875-0.125 0.875 0.125 0.625 0.375 0.625 0.375l0.375 0.125v0.5q0 0.5 0.0625 1.0625l0.0625 0.5625 0.125-0.125-0.125 0.125q-0.125 0.125-0.125 0.375v0.25-0.75 1-0.75 0.25q0 0.25 0.125 0.375l0.125 0.125-0.125-0.125-0.4375 0.1875q-0.4375 0.1875-0.6875 0.4375t-0.625 0.375-0.875 0.125-0.875-0.125-0.625-0.375-0.6875-0.4375l-0.4375-0.1875-0.125 0.125 0.125-0.125q0.125-0.125 0.125-0.375v-0.25 0.75-1 0.75-0.25q0-0.25-0.125-0.375l-0.125-0.125 0.125 0.125v-1.25l-0.125 0.125 0.125-0.125q0.125-0.125 0.125-0.375v-0.25 0.75-1 0.75-0.25q0-0.25-0.125-0.375l-0.125-0.125 0.125 0.125 0.4375-0.1875q0.4375-0.1875 0.6875-0.4375m1.5 3.5q0.5 0 0.875-0.125t0.5-0.5 0.125-0.875-0.125-0.875-0.5-0.5-0.875-0.125-0.875 0.125-0.5 0.5-0.125 0.875 0.125 0.875 0.5 0.5 0.875 0.125"/>
   <path d="m8 3.5q0-0.5 0.5-0.5t1 0 0.375 0.375-0.5 0.5-0.875 0.125h-0.5v-0.5" fill="#f3e718"/>
   <path d="m13.25 3.5q0-0.25 0.375-0.375t0.75 0 0.5 0.5-0.375 0.375-0.875-0.125-0.375-0.375" fill="#f3e718"/>
   <path d="m2 4.5q0-0.5 0.5-0.5t0.5 0.5-0.5 0.5-0.5-0.5" fill="#fff"/>
   <path d="m4.125 4.625q0.125-0.375 0.5-0.5t0.875-0.125 0.875 0.125 0.5 0.5 0.125 0.875-0.125 0.875-0.5 0.5-0.875 0.125-0.875-0.125-0.5-0.5-0.125-0.875 0.125-0.875" fill="#fff"/>
   <path d="m8 4.5v-0.5h1-0.75 0.25q0.25 0 0.46875-0.03125l0.21875-0.03125-0.21875 0.03125 0.015625 0.51562q0.015625 0.51562-0.046875 1.0781l-0.0625 0.5625 0.125 0.125-0.125-0.125q-0.125-0.125-0.375-0.125h-0.25 0.75-1 0.75-0.25q-0.25 0-0.375 0.125l-0.125 0.125 0.125-0.125-0.0625-0.5625q-0.0625-0.5625-0.0625-1.0625" fill="#00994c"/>
   <path d="m10.125 4.625q0.125-0.375 0.5-0.5t0.875-0.125 0.875 0.125 0.5 0.5 0.125 0.875-0.125 0.875-0.5 0.5-0.875 0.125-0.875-0.125-0.5-0.5-0.125-0.875 0.125-0.875" fill="#fff"/>
   <path d="m14.016 4.4844 0.015625-0.51562-0.21875-0.03125 0.21875 0.03125q0.21875 0.03125 0.46875 0.03125h0.25-0.75 1-0.75 0.25q0.25 0 0.375-0.125l0.125-0.125-0.125 0.125 0.1875 0.4375q0.1875 0.4375 0.4375 0.6875t0.3125 0.6875l0.0625 0.4375 0.125 0.125-0.125-0.125q-0.125-0.125-0.375-0.125h-0.25 0.75-0.5q-0.5 0-1 0h-0.5 0.75-0.25q-0.25 0-0.375 0.125l-0.125 0.125 0.125-0.125-0.0625-0.5625q-0.0625-0.5625-0.046875-1.0781" fill="#00994c"/>
   <path d="m1.1875 5.6875q0.0625-0.4375 0.5-0.625l0.4375-0.1875-0.125-0.125 0.125 0.125q0.125 0.125 0.375 0.125h0.25-0.75 1-0.75 0.25q0.25 0 0.375-0.125l0.125-0.125-0.125 0.125v1.25l0.125 0.125-0.125-0.125q-0.125-0.125-0.375-0.125h-0.25 0.75-0.5q-0.5 0-1 0h-0.5 0.75-0.25q-0.25 0-0.375 0.125l-0.125 0.125 0.125-0.125 0.0625-0.4375" fill="#002580"/>
  </g>
  <g fill="#f3e718">
   <path d="m1 6.5q0-0.5 0.5-0.5t1 0 0.5 0.5-0.5 0.5-1 0-0.5-0.5"/>
   <path d="m8 6.5q0-0.5 0.5-0.5t0.5 0.5-0.5 0.5-0.5-0.5"/>
   <path d="m14 6.5q0-0.5 0.5-0.5t1 0 0.5 0.5-0.5 0.5-1 0-0.5-0.5"/>
  </g>
  <path d="m1.0625 7.4375 0.0625-0.5625-0.125-0.125 0.125 0.125q0.125 0.125 0.375 0.125h0.25-0.75 0.5q0.5 0 1 0h0.5-0.75 0.25q0.25 0 0.375-0.125l0.125-0.125-0.125 0.125 0.4375 0.1875q0.4375 0.1875 0.6875 0.4375t0.625 0.375 0.875 0.125 0.875-0.125 0.625-0.375 0.6875-0.4375l0.4375-0.1875-0.125-0.125 0.125 0.125q0.125 0.125 0.375 0.125h0.25-0.75 1-0.75 0.25q0.25 0 0.375-0.125l0.125-0.125-0.125 0.125 0.4375 0.1875q0.4375 0.1875 0.6875 0.4375t0.625 0.375 0.875 0.125 0.875-0.125 0.625-0.375 0.6875-0.4375l0.4375-0.1875-0.125-0.125 0.125 0.125q0.125 0.125 0.375 0.125h0.25-0.75 0.5q0.5 0 1 0h0.5-0.75 0.25q0.25 0 0.375-0.125l0.125-0.125-0.125 0.125 0.0625 0.5625q0.0625 0.5625-0.0625 0.9375t-0.5625 0.5625l-0.4375 0.1875 0.125 0.125-0.125-0.125q-0.125-0.125-0.375-0.125h-0.25 0.75-0.5q-0.5 0-1 0t-1 0-1 0-1 0-1 0-1 0-1 0-1 0-1 0-1 0-1 0-1 0h-0.5 0.75-0.25q-0.25 0-0.375 0.125l-0.125 0.125 0.125-0.125-0.4375-0.1875q-0.4375-0.1875-0.5625-0.5625t-0.0625-0.9375" fill="#00994c"/>
  <path d="m0 9.5v-0.5l0.375 0.125q0.375 0.125 0.5 0.5t0.125 0.875 0.5 0.5 0.5 0.5 0.5 0.5 0.875 0.125 0.5 0.5 0.625 0.375 0.5 0.5v0.5h-5v-4.5" fill-opacity="0"/>
  <path d="m2.125 9.375q-0.125-0.375 0.375-0.375t1 0 1 0 1 0 1 0 1 0 1 0 1 0 1 0 1 0 1 0 1 0 1 0 0.375 0.375-0.5 0.5-0.875 0.125-1 0-1 0-1 0-1 0-1 0-1 0-1 0-1 0-1 0-1 0-0.875-0.125-0.5-0.5" fill="#f3e718"/>
  <path d="m16.125 9.625q0.125-0.375 0.5-0.5l0.375-0.125v5h-5v-0.5q0-0.5 0.5-0.5t0.625-0.375 0.5-0.5 0.875-0.125 0.5-0.5 0.5-0.5 0.5-0.5 0.125-0.875" fill-opacity="0"/>
  <path d="m3.1406 10.359-0.10938-0.39062-0.21875-0.03125 0.21875 0.03125q0.21875 0.03125 0.46875 0.03125h0.25-0.75 0.5q0.5 0 1 0t1 0 1 0 1 0 1 0 1 0 1 0 1 0 1 0 1 0h0.5-0.75 0.25q0.25 0 0.46875-0.03125l0.21875-0.03125-0.21875 0.03125-0.10938 0.39062q-0.10938 0.39062-0.35938 0.64062t-0.5 0.5-0.625 0.375-0.9375 0.1875l-0.5625 0.0625 0.125 0.125-0.125-0.125q-0.125-0.125-0.375-0.125h-0.25 0.75-0.5q-0.5 0-1 0t-1 0-1 0-1 0h-0.5 0.75-0.25q-0.25 0-0.375 0.125l-0.125 0.125 0.125-0.125-0.5625-0.0625q-0.5625-0.0625-0.9375-0.1875t-0.625-0.375-0.5-0.5-0.35938-0.64062" fill="#00994c"/>
  <path d="m6.125 12.375q-0.125-0.375 0.375-0.375t1 0 1 0 1 0 1 0 0.375 0.375-0.5 0.5-0.875 0.125-1 0-1 0-0.875-0.125-0.5-0.5" fill="#f3e718"/>
 </g>
</svg>
