<svg width="17" height="14" version="1.1" viewBox="0 0 17 14" xmlns="http://www.w3.org/2000/svg">
 <g transform="translate(0)">
  <path d="m0 0.5v-0.5h5l-0.125 0.375q-0.125 0.375-0.5 0.5t-0.5 0.5-0.5 0.5-0.875 0.125-0.625 0.375-0.5 0.5-0.375 0.625-0.125 0.875-0.5 0.5l-0.375 0.125v-4.5" fill-opacity="0"/>
  <path d="m4.875 0.375 0.125-0.375h7l0.125 0.375q0.125 0.375 0.5 0.5t0.5 0.5 0.5 0.5 0.875 0.125 0.625 0.375 0.5 0.5 0.375 0.625 0.125 0.875 0.5 0.5l0.375 0.125v4l-0.375 0.125q-0.375 0.125-0.5 0.5t-0.125 0.875-0.5 0.5-0.5 0.5-0.5 0.5-0.875 0.125-0.5 0.5-0.625 0.375-0.5 0.5v0.5h-7v-0.5q0-0.5-0.5-0.5t-0.625-0.375-0.5-0.5-0.875-0.125-0.5-0.5-0.5-0.5-0.5-0.5-0.125-0.875-0.5-0.5l-0.375-0.125v-4l0.375-0.125q0.375-0.125 0.5-0.5t0.125-0.875 0.375-0.625 0.5-0.5 0.625-0.375 0.875-0.125 0.5-0.5 0.5-0.5 0.5-0.5m4.625 12.625q0.5 0 0.875-0.125t0.625-0.375 0.625-0.375 0.75-0.25 0.625-0.375 0.5-0.5 0.5-0.5 0.5-0.5 0.375-0.625l0.125-0.375 0.375-0.125q0.375-0.125 0.5-0.5t0.125-0.875v-0.5 0.75-0.25q0-0.25-0.09375-0.40625l-0.09375-0.15625 0.09374 0.15625 0.04687-0.54688q0.04689-0.54688-0.07811-0.92188t-0.375-0.625-0.375-0.625-0.25-0.75-0.5-0.5-0.75-0.25-0.625-0.375-0.5-0.5-0.5-0.5-0.625-0.375-0.875-0.125-1.0625 0.0625l-0.5625 0.0625 0.125 0.125-0.125-0.125q-0.125-0.125-0.375-0.125h-0.25 0.75-1 0.75-0.25q-0.25 0-0.375 0.125l-0.125 0.125 0.125-0.125-0.5625-0.0625q-0.5625-0.0625-1.0625-0.0625t-0.875 0.125-0.625 0.375-0.5 0.5-0.5 0.5-0.625 0.375-0.75 0.25-0.5 0.5-0.25 0.75-0.375 0.625-0.375 0.625-0.078125 0.92188l0.046875 0.54688 0.09375-0.15625-0.09375 0.15625q-0.09375 0.15625-0.09375 0.40625v0.25-0.75 0.5q0 0.5 0.125 0.875t0.5 0.5l0.375 0.125 0.125 0.375q0.125 0.375 0.375 0.625t0.5 0.5 0.5 0.5 0.5 0.5 0.625 0.375 0.75 0.25 0.625 0.375 0.625 0.375 0.875 0.125 1 0 1 0"/>
  <path d="m12.125 0.375-0.125-0.375h5v5l-0.375-0.125q-0.375-0.125-0.5-0.5t-0.125-0.875-0.375-0.625-0.5-0.5-0.625-0.375-0.875-0.125-0.5-0.5-0.5-0.5-0.5-0.5" fill-opacity="0"/>
  <g>
   <path d="m5 1.5q0.25-0.25 0.625-0.375t0.875-0.125 1.0625 0.0625l0.5625 0.0625 0.125-0.125-0.125 0.125q-0.125 0.125-0.125 0.375v0.25-0.75l0.125 0.375q0.125 0.375 0.375 0.375t0.375-0.375l0.125-0.375v0.75-0.25q0-0.25-0.125-0.375l-0.125-0.125 0.125 0.125 0.5625-0.0625q0.5625-0.0625 1.0625-0.0625t0.875 0.125 0.625 0.375 0.5 0.5 0.5 0.5 0.625 0.375 0.75 0.25 0.5 0.5 0.25 0.75 0.375 0.625 0.375 0.625 0.078125 0.92188l-0.046875 0.54688 0.09375 0.15625-0.09375-0.15625q-0.09375-0.15625-0.28125-0.21875l-0.1875-0.0625 0.5625 0.1875-0.375-0.125q-0.375-0.125-0.625-0.375t-0.625-0.375l-0.375-0.125h0.75-0.25q-0.25 0-0.375 0.125l-0.125 0.125 0.125-0.125-0.0625-0.5625q-0.0625-0.5625-0.1875-0.9375t-0.375-0.625-0.5-0.5-0.625-0.375-0.875-0.125-1.0625 0.0625l-0.5625 0.0625 0.125 0.125-0.125-0.125q-0.125-0.125-0.375-0.125h-0.25 0.75-0.5q-0.5 0-1 0t-1 0h-0.5 0.75-0.25q-0.25 0-0.375 0.125l-0.125 0.125 0.125-0.125-0.5625-0.0625q-0.5625-0.0625-1.0625-0.0625t-0.875 0.125-0.625 0.375-0.5 0.5-0.375 0.625-0.1875 0.9375l-0.0625 0.5625 0.125 0.125-0.125-0.125q-0.125-0.125-0.375-0.125h-0.25 0.75l-0.375 0.125q-0.375 0.125-0.625 0.375t-0.625 0.375l-0.375 0.125 0.5625-0.1875-0.1875 0.0625q-0.1875 0.0625-0.28125 0.21875l-0.09375 0.15625 0.09375-0.15625-0.046875-0.54688q-0.046875-0.54688 0.078125-0.92188t0.375-0.625 0.375-0.625 0.25-0.75 0.5-0.5 0.75-0.25 0.625-0.375 0.5-0.5 0.5-0.5" fill="#101070"/>
   <path d="m8.125 1.375q-0.125-0.375 0.375-0.375t0.375 0.375-0.375 0.375-0.375-0.375" fill="#fcf10c"/>
   <path d="m4 3.5q0.25-0.25 0.625-0.375t0.875-0.125 1.0625 0.0625l0.5625 0.0625 0.125-0.125-0.125 0.125q-0.125 0.125-0.125 0.375v0.25-0.75l0.125 0.375q0.125 0.375 0.5 0.5l0.375 0.125-0.5625-0.1875 0.1875 0.0625q0.1875 0.0625 0.40625 0.09375l0.21875 0.03125-0.21875-0.03125-0.03125 1.0312v-0.75 0.25q0 0.25 0.125 0.375l0.125 0.125-0.125-0.125-0.03125 1.2188 0.15625-0.09375-0.15625 0.09375q-0.15625 0.09375-0.21875 0.28125l-0.0625 0.1875 0.1875-0.5625-0.125 0.375q-0.125 0.375-0.375 0.625t-0.375 0.625l-0.125 0.375v-0.75 0.25q0 0.25 0.09375 0.40625l0.09375 0.15625-0.09375-0.15625-0.54688 0.046875q-0.54688 0.046875-1.0469 0.046875t-1.0156 0.015625l-0.51562 0.015625 0.03125 0.21875-0.03125-0.21875q-0.03125-0.21875-0.09375-0.40625l-0.0625-0.1875 0.1875 0.5625-0.125-0.375q-0.125-0.375-0.5-0.5l-0.375-0.125v-1 0.75-0.25q0-0.25-0.125-0.375l-0.125-0.125 0.125 0.125 0.0625-0.5625q0.0625-0.5625 0.1875-0.9375t0.375-0.625 0.5-0.5m1.5 3.5q0.5 0 0.875-0.125t0.5-0.5 0.125-0.875-0.125-0.875-0.5-0.5-0.875-0.125-0.875 0.125-0.5 0.5-0.125 0.875 0.125 0.875 0.5 0.5 0.875 0.125"/>
   <path d="m7.125 3.375q-0.125-0.375 0.375-0.375t1 0 1 0 0.375 0.375-0.5 0.5-0.875 0.125-0.875-0.125-0.5-0.5" fill="#e6060a"/>
   <path d="m9.875 3.375 0.125-0.375v0.75-0.25q0-0.25-0.125-0.375l-0.125-0.125 0.125 0.125 0.5625-0.0625q0.5625-0.0625 1.0625-0.0625t0.875 0.125 0.625 0.375 0.5 0.5 0.375 0.625 0.1875 0.9375l0.0625 0.5625 0.125-0.125-0.125 0.125q-0.125 0.125-0.125 0.375v0.25-0.75 1l-0.375 0.125q-0.375 0.125-0.5 0.5l-0.125 0.375 0.1875-0.5625-0.0625 0.1875q-0.0625 0.1875-0.09375 0.40625l-0.03125 0.21875 0.03125-0.21875-0.51562-0.015625q-0.51562-0.015625-1.0156-0.015625t-1.0469-0.046875l-0.54688-0.046875-0.09375 0.15625 0.09375-0.15625q0.09375-0.15625 0.09375-0.40625v-0.25 0.75l-0.125-0.375q-0.125-0.375-0.375-0.625t-0.375-0.625l-0.125-0.375 0.1875 0.5625-0.0625-0.1875q-0.0625-0.1875-0.21875-0.28125l-0.15625-0.09375 0.15625 0.09375-0.03125-1.2188-0.125 0.125 0.125-0.125q0.125-0.125 0.125-0.375v-0.25 0.75l-0.03125-1.0312-0.21875 0.03125 0.21875-0.03125q0.21875-0.03125 0.40625-0.09375l0.1875-0.0625-0.5625 0.1875 0.375-0.125q0.375-0.125 0.5-0.5m1.625 3.625q0.5 0 0.875-0.125t0.5-0.5 0.125-0.875-0.125-0.875-0.5-0.5-0.875-0.125-0.875 0.125-0.5 0.5-0.125 0.875 0.125 0.875 0.5 0.5 0.875 0.125"/>
   <path d="m4.125 4.625q0.125-0.375 0.5-0.5t0.875-0.125 0.875 0.125 0.5 0.5 0.125 0.875-0.125 0.875-0.5 0.5-0.875 0.125-0.875-0.125-0.5-0.5-0.125-0.875 0.125-0.875" fill="#fff"/>
   <path d="m8.0156 4.4844 0.015625-0.51562-0.21875-0.03125 0.21875 0.03125q0.21875 0.03125 0.46875 0.03125h0.25-0.75 1-0.75 0.25q0.25 0 0.46875-0.03125l0.21875-0.03125-0.21875 0.03125 0.015625 0.51562q0.015625 0.51562-0.48438 0.51562t-0.48438-0.51562" fill="#fcf10c"/>
   <path d="m10.125 4.625q0.125-0.375 0.5-0.5t0.875-0.125 0.875 0.125 0.5 0.5 0.125 0.875-0.125 0.875-0.5 0.5-0.875 0.125-0.875-0.125-0.5-0.5-0.125-0.875 0.125-0.875" fill="#fff"/>
   <path d="m8.1094 5.4844 0.015625-0.60938-0.125-0.125 0.125 0.125q0.125 0.125 0.375 0.125h0.25-0.75 1-0.75 0.25q0.25 0 0.375-0.125l0.125-0.125-0.125 0.125 0.03125 1.2188 0.15625 0.09375-0.15625-0.09375q-0.15625-0.09375-0.40625-0.09375h-0.25 0.75-1 0.75-0.25q-0.25 0-0.40625 0.09375l-0.15625 0.09375 0.15625-0.09375 0.015625-0.60938" fill="#1d7721"/>
   <path d="m2 6.5q0.25-0.25 0.625-0.375t0.375 0.375v0.5l-0.375 0.125q-0.375 0.125-0.5 0.5t-0.125 0.875v0.5l-0.375-0.125q-0.375-0.125-0.5-0.5t-0.125-0.875 0.375-0.625 0.625-0.375" fill="#e6060a"/>
   <path d="m7.875 6.375q0.125-0.375 0.625-0.375t0.625 0.375 0.375 0.625 0.375 0.625-0.25 0.5-0.5 0.5l-0.125 0.375h-1l-0.125-0.375q-0.125-0.375-0.5-0.5t-0.25-0.5 0.375-0.625 0.375-0.625" fill="#fcf10c"/>
   <path d="m14 6.5q0-0.5 0.375-0.375t0.625 0.375 0.625 0.375 0.375 0.625-0.125 0.875-0.5 0.5l-0.375 0.125v-0.5q0-0.5-0.125-0.875t-0.5-0.5l-0.375-0.125v-0.5" fill="#e6060a"/>
   <path d="m2.125 7.625q0.125-0.375 0.5-0.5l0.375-0.125v0.5q0 0.5 0 1v0.5h-1v-0.5q0-0.5 0.125-0.875m0.5 1.375h0.625-0.25q-0.25 0-0.5 0h-0.25 0.375" fill="#fcf10c"/>
   <path d="m3 7.5v-0.5l0.375 0.125q0.375 0.125 0.5 0.5t0.125 0.875v0.5h-1v-0.5q0-0.5 0-1m-0.125 1.5h0.875-0.25q-0.25 0-0.5 0h-0.25 0.125m0.75 0h0.625-0.25q-0.25 0-0.5 0h-0.25 0.375" fill="#1d7721"/>
   <path d="m13.125 7.625q0.125-0.375 0.5-0.5l0.375-0.125v0.5q0 0.5 0 1v0.5h-1v-0.5q0-0.5 0.125-0.875m-0.25 1.375h0.875-0.25q-0.25 0-0.5 0h-0.25 0.125m0.75 0h0.625-0.25q-0.25 0-0.5 0h-0.25 0.375" fill="#1d7721"/>
   <path d="m14 7.5v-0.5l0.375 0.125q0.375 0.125 0.5 0.5t0.125 0.875v0.5h-1v-0.5q0-0.5 0-1m-0.125 1.5h0.875-0.25q-0.25 0-0.5 0h-0.25 0.125" fill="#fcf10c"/>
   <path d="m4 8.5v-0.5 0.75-0.25q0-0.25-0.03125-0.46875l-0.03125-0.21875 0.03125 0.21875 0.51562-0.015625q0.51562-0.015625 1.0156-0.015625t1.0469-0.046875l0.54688-0.046875-0.09375-0.15625 0.09375 0.15625q0.09375 0.15625 0.28125 0.21875l0.1875 0.0625-0.5625-0.1875 0.375 0.125q0.375 0.125 0.5 0.5l0.125 0.375h-0.5q-0.5 0-1 0t-1 0-1 0h-0.5v-0.5m-0.125 0.5h0.875-0.25q-0.25 0-0.5 0h-0.25 0.125" fill="#101070"/>
   <path d="m9.125 8.625q0.125-0.375 0.5-0.5l0.375-0.125-0.5625 0.1875 0.1875-0.0625q0.1875-0.0625 0.28125-0.21875l0.09375-0.15625-0.09375 0.15625 0.54688 0.046875q0.54688 0.046875 1.0469 0.046875t1.0156 0.015625l0.51562 0.015625 0.03125-0.21875-0.03125 0.21875q-0.03125 0.21875-0.03125 0.46875v0.25-0.75 1h-0.5q-0.5 0-1 0t-1 0-1 0h-0.5l0.125-0.375m3.5 0.375h0.625-0.25q-0.25 0-0.5 0h-0.25 0.375" fill="#101070"/>
  </g>
  <path d="m0 9.5v-0.5l0.375 0.125q0.375 0.125 0.5 0.5t0.125 0.875 0.5 0.5 0.5 0.5 0.5 0.5 0.875 0.125 0.5 0.5 0.625 0.375 0.5 0.5v0.5h-5v-4.5" fill-opacity="0"/>
  <g>
   <path d="m2.125 9.375-0.125-0.375h0.5q0.5 0 1 0t1 0 1 0 1 0 1 0h0.5l-0.125 0.375q-0.125 0.375-0.375 0.625t-0.25 0.5 0.25 0.5 0.375 0.625 0.125 0.875v0.5h-0.5q-0.5 0-0.875-0.125t-0.625-0.375-0.625-0.375-0.75-0.25-0.625-0.375-0.5-0.5-0.5-0.5-0.5-0.5-0.375-0.625m5.5 3.625h0.625-0.25q-0.25 0-0.5 0h-0.25 0.375" fill="#fff"/>
   <path d="m7.875 9.375 0.125-0.375h1l0.125 0.375q0.125 0.375 0.375 0.625t0.25 0.5-0.25 0.5-0.375 0.625-0.125 0.875v0.5h-1v-0.5q0-0.5-0.125-0.875t-0.375-0.625-0.25-0.5 0.25-0.5 0.375-0.625m0 3.625h0.875-0.25q-0.25 0-0.5 0h-0.25 0.125m0.75 0h0.625-0.25q-0.25 0-0.5 0h-0.25 0.375" fill="#e6060a"/>
   <path d="m9.125 9.375-0.125-0.375h0.5q0.5 0 1 0t1 0 1 0 1 0 1 0h0.5l-0.125 0.375q-0.125 0.375-0.375 0.625t-0.5 0.5-0.5 0.5-0.5 0.5-0.625 0.375-0.75 0.25-0.625 0.375-0.625 0.375-0.875 0.125h-0.5v-0.5q0-0.5 0.125-0.875t0.375-0.625 0.25-0.5-0.25-0.5-0.375-0.625m-0.25 3.625h0.875-0.25q-0.25 0-0.5 0h-0.25 0.125" fill="#fff"/>
  </g>
  <path d="m16.125 9.625q0.125-0.375 0.5-0.5l0.375-0.125v5h-5v-0.5q0-0.5 0.5-0.5t0.625-0.375 0.5-0.5 0.875-0.125 0.5-0.5 0.5-0.5 0.5-0.5 0.125-0.875" fill-opacity="0"/>
 </g>
</svg>
