<svg width="17" height="14" version="1.1" viewBox="0 0 17 14" xmlns="http://www.w3.org/2000/svg">
 <g transform="translate(0)">
  <path d="m0 0.5v-0.5h5l-0.125 0.375q-0.125 0.375-0.5 0.5t-0.5 0.5-0.5 0.5-0.875 0.125-0.625 0.375-0.5 0.5-0.375 0.625-0.125 0.875-0.5 0.5l-0.375 0.125v-4.5" fill-opacity="0"/>
  <path d="m4.875 0.375 0.125-0.375h7l0.125 0.375q0.125 0.375 0.5 0.5t0.5 0.5 0.5 0.5 0.875 0.125 0.625 0.375 0.5 0.5 0.375 0.625 0.125 0.875 0.5 0.5l0.375 0.125v4l-0.375 0.125q-0.375 0.125-0.5 0.5t-0.125 0.875-0.5 0.5-0.5 0.5-0.5 0.5-0.875 0.125-0.5 0.5-0.625 0.375-0.5 0.5v0.5h-7v-0.5q0-0.5-0.5-0.5t-0.625-0.375-0.5-0.5-0.875-0.125-0.5-0.5-0.5-0.5-0.5-0.5-0.125-0.875-0.5-0.5l-0.375-0.125v-4l0.375-0.125q0.375-0.125 0.5-0.5t0.125-0.875 0.375-0.625 0.5-0.5 0.625-0.375 0.875-0.125 0.5-0.5 0.5-0.5 0.5-0.5m4.625 12.625q0.5 0 0.875-0.125t0.625-0.375 0.625-0.375 0.75-0.25 0.625-0.375 0.5-0.5 0.5-0.5 0.5-0.5 0.5-0.5 0.5-0.5 0.375-0.625 0.125-0.875 0-1-0.125-0.875-0.375-0.625-0.375-0.625-0.25-0.75-0.5-0.5-0.75-0.25-0.625-0.375-0.5-0.5-0.5-0.5-0.625-0.375-0.875-0.125-1 0-1 0-1 0-1 0-0.875 0.125-0.625 0.375-0.5 0.5-0.375 0.625l-0.125 0.375h-0.5q-0.5 0-0.875 0.125t-0.5 0.5-0.25 0.75-0.375 0.625-0.375 0.625-0.125 0.875 0 1 0.125 0.875 0.375 0.625 0.5 0.5 0.5 0.5 0.5 0.5 0.5 0.5 0.5 0.5 0.625 0.375 0.75 0.25 0.625 0.375 0.625 0.375 0.875 0.125 1 0 1 0"/>
  <path d="m12.125 0.375-0.125-0.375h5v5l-0.375-0.125q-0.375-0.125-0.5-0.5t-0.125-0.875-0.375-0.625-0.5-0.5-0.625-0.375-0.875-0.125-0.5-0.5-0.5-0.5-0.5-0.5" fill-opacity="0"/>
  <g>
   <path d="m5 1.5q0.25-0.25 0.625-0.375t0.875-0.125 1 0h0.5v0.5q0 0.5 0 1t0 1v0.5l-0.375-0.125q-0.375-0.125-0.625-0.375t-0.625-0.375-0.875-0.125-1 0h-0.5l0.125-0.375q0.125-0.375 0.375-0.625t0.5-0.5m3.125-0.5h-0.875 0.25q0.25 0 0.5 0h0.25-0.125" fill="#fff"/>
   <path d="m8 1.5v-0.5h0.5q0.5 0 1 0t1 0 0.875 0.125 0.625 0.375 0.5 0.5 0.5 0.5 0.625 0.375 0.75 0.25 0.5 0.5 0.25 0.75 0.375 0.625 0.375 0.625 0.125 0.875v0.5h-0.5q-0.5 0-1 0h-0.5 0.75-0.25q-0.25 0-0.46875 0.03125l-0.21875 0.03125 0.21875-0.03125-0.015625-0.51562q-0.015625-0.51562-0.015625-1.0156t-0.125-0.875-0.375-0.625-0.5-0.5-0.625-0.375-0.875-0.125-0.875 0.125-0.625 0.375-0.5 0.5-0.375 0.625-0.125 0.875v0.5h-1v-0.5q0-0.5 0-1v-0.5l0.375-0.125q0.375-0.125 0.375-0.375t-0.375-0.375l-0.375-0.125v-0.5q0-0.5 0-1m0 1.125v0.625-0.25q0-0.25 0-0.5v-0.25 0.375m0 3v0.625-0.25q0-0.25 0-0.5v-0.25 0.375m1 0.5v-0.875 0.25q0 0.25 0 0.5v0.25-0.125m7 1v-0.875 0.25q0 0.25 0 0.5v0.25-0.125m-7.625-6.125h-0.625 0.25q0.25 0 0.5 0h0.25-0.375" fill="#11c2ff"/>
   <path d="m2.125 3.625q0.125-0.375 0.5-0.5t0.875-0.125h0.5l-0.125 0.375q-0.125 0.375-0.375 0.625t-0.375 0.625-0.125 0.875-0.015625 1.0156l-0.015625 0.51562 0.21875 0.03125-0.21875-0.03125q-0.21875-0.03125-0.46875-0.03125h-0.25 0.75-0.5q-0.5 0-1 0h-0.5v-0.5q0-0.5 0.125-0.875t0.375-0.625 0.375-0.625 0.25-0.75m-1.125 3v0.625-0.25q0-0.25 0-0.5v-0.25 0.375" fill="#fff"/>
   <path d="m3.875 3.375 0.125-0.375h0.5q0.5 0 1 0t0.875 0.125 0.625 0.375 0.625 0.375l0.375 0.125v0.5q0 0.5 0 1t0 1v0.5l-0.375 0.125q-0.375 0.125-0.625 0.375t-0.625 0.375-0.875 0.125-0.875-0.125-0.625-0.375-0.625-0.375l-0.375-0.125 0.5625 0.1875-0.1875-0.0625q-0.1875-0.0625-0.40625-0.09375l-0.21875-0.03125 0.21875 0.03125 0.015625-0.51562q0.015625-0.51562 0.015625-1.0156t0.125-0.875 0.375-0.625 0.375-0.625m1.625 3.625q0.5 0 0.875-0.125t0.5-0.5 0.125-0.875-0.125-0.875-0.5-0.5-0.875-0.125-0.875 0.125-0.5 0.5-0.125 0.875 0.125 0.875 0.5 0.5 0.875 0.125"/>
   <path d="m8 3.5v-0.5l0.375 0.125q0.375 0.125 0.375 0.375t-0.375 0.375l-0.375 0.125v-0.5m0-0.625v0.875-0.25q0-0.25 0-0.5v-0.25 0.125" fill="#c0c2c8"/>
   <path d="m10 3.5q0.25-0.25 0.625-0.375t0.875-0.125 0.875 0.125 0.625 0.375 0.5 0.5 0.375 0.625 0.125 0.875 0.015625 1.0156l0.015625 0.51562 0.21875-0.03125-0.21875 0.03125q-0.21875 0.03125-0.40625 0.09375l-0.1875 0.0625 0.5625-0.1875-0.375 0.125q-0.375 0.125-0.625 0.375t-0.625 0.375-0.875 0.125-0.875-0.125-0.625-0.375-0.625-0.375l-0.375-0.125v-0.5q0-0.5 0-1t0.125-0.875 0.375-0.625 0.5-0.5m1.5 3.5q0.5 0 0.875-0.125t0.5-0.5 0.125-0.875-0.125-0.875-0.5-0.5-0.875-0.125-0.875 0.125-0.5 0.5-0.125 0.875 0.125 0.875 0.5 0.5 0.875 0.125"/>
   <path d="m4.125 4.625q0.125-0.375 0.5-0.5t0.875-0.125 0.875 0.125 0.5 0.5 0.125 0.875-0.125 0.875-0.5 0.5-0.875 0.125-0.875-0.125-0.5-0.5-0.125-0.875 0.125-0.875" fill="#fff"/>
   <path d="m10.125 4.625q0.125-0.375 0.5-0.5t0.875-0.125 0.875 0.125 0.5 0.5 0.125 0.875-0.125 0.875-0.5 0.5-0.875 0.125-0.875-0.125-0.5-0.5-0.125-0.875 0.125-0.875" fill="#fff"/>
   <path d="m8 6.5v-0.5h1v1h-1v-0.5m1-0.125v-0.625 0.25q0 0.25 0 0.5v0.25-0.375m-1-0.5v0.875-0.25q0-0.25 0-0.5v-0.25 0.125" fill="#9a6d37"/>
   <path d="m1 7.5v-0.5h0.5q0.5 0 1 0t0.875 0.125 0.625 0.375 0.625 0.375l0.375 0.125-0.5625-0.1875 0.1875 0.0625q0.1875 0.0625 0.40625 0.09375l0.21875 0.03125-0.21875-0.03125 0.10938 0.39062q0.10938 0.39062 0.5 0.5l0.39062 0.10938-0.03125-0.21875 0.03125 0.21875q0.03125 0.21875 0.09375 0.40625l0.0625 0.1875-0.1875-0.5625 0.125 0.375q0.125 0.375 0.375 0.375t0.375-0.375l0.125-0.375 0.375-0.125q0.375-0.125 0.5-0.5l0.125-0.375h1l0.125 0.375q0.125 0.375 0.5 0.5l0.375 0.125v1h-1l-0.125-0.375q-0.125-0.375-0.375-0.375t-0.35938 0.39062l-0.10938 0.39062 0.21875-0.03125-0.21875 0.03125q-0.21875 0.03125-0.40625 0.09375l-0.1875 0.0625 0.5625-0.1875-0.375 0.125q-0.375 0.125-0.375 0.375t0.375 0.375 0.875 0.125h0.5v0.5q0 0.5 0 1v0.5h-0.5q-0.5 0-1 0t-0.875-0.125-0.625-0.375-0.625-0.375-0.75-0.25-0.625-0.375-0.5-0.5-0.5-0.5-0.5-0.5-0.5-0.5-0.5-0.5-0.375-0.625-0.125-0.875m7.625 5.5h0.625-0.25q-0.25 0-0.5 0h-0.25 0.375m-1.5938-4.0938-0.21875 0.65625 0.0625-0.1875q0.0625-0.1875 0.125-0.375l0.0625-0.1875-0.03125 0.09375m-6.0312-2.0312v0.875-0.25q0-0.25 0-0.5v-0.25 0.125" fill="#11c2ff"/>
   <path d="m7 7.5q0.25-0.25 0.625-0.375l0.375-0.125v1l-0.375 0.125q-0.375 0.125-0.5 0.5t-0.25 0.75-0.375 0.375-0.375-0.375-0.14062-0.89062l-0.015625-0.51562-0.21875 0.03125 0.21875-0.03125q0.21875-0.03125 0.40625-0.09375l0.1875-0.0625-0.5625 0.1875 0.375-0.125q0.375-0.125 0.625-0.375" fill="#35a53c"/>
   <path d="m8 7.5v-0.5h1v1h-1v-0.5" fill="#fff"/>
   <path d="m9 7.5v-0.5l0.375 0.125q0.375 0.125 0.625 0.375t0.625 0.375 0.875 0.125h0.5-0.75 0.25q0.25 0 0.46875-0.03125l0.21875-0.03125-0.21875 0.03125-0.10938 0.39062q-0.10938 0.39062-0.48438 0.51562l-0.375 0.125 0.5625-0.1875-0.1875 0.0625q-0.1875 0.0625-0.3125 0.1875l-0.125 0.125 0.125-0.125-1.0625-0.0625-0.125-0.375q-0.125-0.375-0.5-0.5l-0.375-0.125v-0.5" fill="#35a53c"/>
   <path d="m13 7.5q0.25-0.25 0.625-0.375t0.875-0.125 1 0h0.5v0.5q0 0.5-0.125 0.875t-0.375 0.625-0.5 0.5-0.5 0.5-0.5 0.5-0.5 0.5-0.5 0.5-0.625 0.375-0.75 0.25-0.625 0.375-0.625 0.375-0.875 0.125h-0.5v-0.5q0-0.5 0-1v-0.5l0.375-0.125q0.375-0.125 0.5-0.5l0.125-0.375 0.375-0.125q0.375-0.125 0.5-0.5t0.5-0.5 0.48438-0.51562l0.10938-0.39062-0.21875 0.03125 0.21875-0.03125q0.21875-0.03125 0.40625-0.09375l0.1875-0.0625-0.5625 0.1875 0.375-0.125q0.375-0.125 0.625-0.375m-4.125 5.5h0.875-0.25q-0.25 0-0.5 0h-0.25 0.125m7.125-5.625v-0.625 0.25q0 0.25 0 0.5v0.25-0.375" fill="#fff"/>
   <path d="m5.1406 8.3594-0.10938-0.39062-0.21875-0.03125 0.21875 0.03125q0.21875 0.03125 0.46875 0.03125h0.25-0.75 1-0.75 0.25q0.25 0 0.46875-0.03125l0.21875-0.03125-0.21875 0.03125 0.03125 1.0312v-0.75 0.25q0 0.25 0.03125 0.46875l0.03125 0.21875-0.03125-0.21875-0.39062-0.10938q-0.39062-0.10938-0.5-0.5" fill="#f3cd00"/>
   <path d="m7.125 8.625q0.125-0.375 0.5-0.5l0.375-0.125-0.125 0.375q-0.125 0.375-0.5 0.5l-0.375 0.125 0.125-0.375m-0.03125 0.09375-0.15625 0.46875 0.0625-0.1875q0.0625-0.1875 0.125-0.375l0.0625-0.1875-0.09375 0.28125" fill="#c0c2c8"/>
   <path d="M 9.125,8.375 9,8 9.375,8.125 q 0.375,0.125 0.5,0.5 L 10,9 9.625,8.875 Q 9.25,8.75 9.125,8.375" fill="#c0c2c8"/>
  </g>
  <path d="m0 9.5v-0.5l0.375 0.125q0.375 0.125 0.5 0.5t0.125 0.875 0.5 0.5 0.5 0.5 0.5 0.5 0.875 0.125 0.5 0.5 0.625 0.375 0.5 0.5v0.5h-5v-4.5" fill-opacity="0"/>
  <path d="m8.1406 9.6406q0.10938-0.39062 0.35938-0.39062t0.375 0.375l0.125 0.375h-1 0.75-0.25q-0.25 0-0.46875 0.03125l-0.21875 0.03125 0.21875-0.03125 0.10938-0.39062" fill="#c0c2c8"/>
  <path d="m10 9.5v-0.5l1.0625 0.0625 0.125-0.125-0.125 0.125q-0.125 0.125-0.1875 0.3125l-0.0625 0.1875 0.1875-0.5625-0.125 0.375q-0.125 0.375-0.5 0.5l-0.375 0.125v-0.5" fill="#f3cd00"/>
  <path d="m16.125 9.625q0.125-0.375 0.5-0.5l0.375-0.125v5h-5v-0.5q0-0.5 0.5-0.5t0.625-0.375 0.5-0.5 0.875-0.125 0.5-0.5 0.5-0.5 0.5-0.5 0.125-0.875" fill-opacity="0"/>
  <path d="m7.25 10.5q0-0.25 0.375-0.375t0.875-0.125h0.5v1h-0.5q-0.5 0-0.875-0.125t-0.375-0.375" fill="#f3cd00"/>
  <path d="m9 10.5v-0.5h1l-0.125 0.375q-0.125 0.375-0.5 0.5l-0.375 0.125v-0.5" fill="#35a53c"/>
 </g>
</svg>
