<svg width="17" height="22" version="1.1" viewBox="0 0 17 22" xmlns="http://www.w3.org/2000/svg">
 <g transform="translate(0)">
  <path d="m0 0.5v-0.5h5v0.5q0 0.5 0 1t-0.125 0.875-0.5 0.5-0.375 0.625 0 1-0.5 0.5-1 0-1 0-1 0h-0.5v-4.5" fill-opacity="0"/>
  <path d="m5 0.5v-0.5h7v0.5q0 0.5 0 1t0.125 0.875 0.5 0.5 0.375 0.625 0 1 0.5 0.5 1 0 1 0 1 0h0.5v1h-0.5q-0.5 0-1 0t-0.375 0.375 0.5 0.5 0.375 0.625 0.125 0.875 0.5 0.5l0.375 0.125v9l-0.375 0.125q-0.375 0.125-0.5 0.5t-0.125 0.875 0 1-0.375 0.625-0.5 0.5l-0.125 0.375h-13l-0.125-0.375q-0.125-0.375-0.5-0.5t-0.375-0.625 0-1-0.125-0.875-0.5-0.5l-0.375-0.125v-9l0.375-0.125q0.375-0.125 0.5-0.5t0.125-0.875 0.375-0.625 0.5-0.5-0.375-0.375-1 0h-0.5v-1h0.5q0.5 0 1 0t1 0 1 0 0.5-0.5 0-1 0.375-0.625 0.5-0.5 0.125-0.875 0-1m8.9375 20.312-0.0625 0.0625 0.4375-0.0625q0.4375-0.0625 0.5625-0.4375t0.125-0.875 0.125-0.875 0.375-0.625 0.375-0.625 0.125-0.875-0.125-0.875-0.375-0.375-0.4375 0.4375l-0.1875 0.4375 0.125 0.125-0.125-0.125q-0.125-0.125-0.375-0.125h-0.25 0.75-0.5q-0.5 0-0.875 0.125t-0.5 0.5l-0.125 0.375-0.375 0.125q-0.375 0.125-0.625 0.375t-0.625 0.375l-0.375 0.125 0.5625-0.1875-0.1875 0.0625q-0.1875 0.0625-0.28125 0.21875l-0.09375 0.15625 0.09374-0.15626-0.54688-0.04687q-0.54686-0.04687-1.0469-0.04687t-1 0-1 0-1.0469 0.046875l-0.54688 0.046875 0.09375 0.15625-0.09375-0.15625q-0.09375-0.15625-0.28125-0.21875l-0.1875-0.0625 0.5625 0.1875-0.375-0.125q-0.375-0.125-0.625-0.375t-0.625-0.375l-0.375-0.125-0.125-0.375q-0.125-0.375-0.5-0.5t-0.875-0.125h-0.5 0.75-0.25q-0.25 0-0.375 0.125l-0.125 0.125 0.125-0.125-0.1875-0.4375q-0.1875-0.4375-0.4375-0.4375t-0.375 0.375-0.125 0.875 0.125 0.875 0.375 0.625 0.375 0.625 0.125 0.875 0.125 0.875 0.5625 0.4375l0.4375 0.0625-0.125-0.125 0.125 0.125q0.125 0.125 0.375 0.125h0.25-0.75 0.5q0.5 0 1 0t1 0h0.5-0.75 0.25q0.25 0 0.375-0.125l0.125-0.125-0.125 0.125 0.5625 0.0625q0.5625 0.0625 1.0625 0.0625t1 0 1 0 1.0625-0.0625l0.5625-0.0625-0.125-0.125 0.125 0.125q0.125 0.125 0.375 0.125h0.25-0.75 0.5q0.5 0 1 0t1 0h0.5-0.75 0.25q0.25 0 0.375-0.125l0.125-0.125-0.0625 0.0625m-0.96875-3.7188 0.21875-0.65625-0.0625 0.1875q-0.0625 0.1875-0.125 0.375l-0.0625 0.1875 0.03125-0.09375m-3.4688-0.09375q0.5 0 0.875-0.125t0.625-0.375 0.625-0.375 0.75-0.25 0.625-0.375 0.5-0.5 0.5-0.5 0.5-0.5 0.5-0.5 0.5-0.5 0.375-0.625 0.125-0.875v-0.5 0.75-0.25q0-0.25-0.125-0.375l-0.125-0.125 0.125 0.125 0.0625-0.5625q0.0625-0.5625-0.0625-0.9375t-0.375-0.625-0.375-0.625-0.25-0.75-0.5-0.5-0.75-0.25-0.625-0.375-0.625-0.375-0.875-0.125-1 0-1 0-1 0-1 0-1 0-1 0-0.875 0.125-0.625 0.375-0.625 0.375-0.75 0.25-0.5 0.5-0.25 0.75-0.375 0.625-0.375 0.625-0.125 0.875 0 1 0.125 0.875 0.375 0.625 0.5 0.5 0.5 0.5 0.5 0.5 0.5 0.5 0.5 0.5 0.625 0.375 0.90625 0.125h0.53125v-0.1875 0.1875q0 0.1875 0.0625 0.375l0.0625 0.1875-0.1875-0.5625 0.125 0.375q0.125 0.375 0.5 0.5t0.875 0.125 1 0 1 0m1-12q0.5 0 0.875-0.125t0.5-0.5 0-0.75-0.375-0.625-0.375-0.625-0.125-0.875-0.5-0.5-1 0-1 0-1 0-1 0-0.5 0.5-0.125 0.875-0.375 0.625-0.375 0.625 0 0.75 0.5 0.5 0.875 0.125 1 0 1 0 1 0 1 0m-6.5938 11.719 0.15625 0.46875-0.0625-0.1875q-0.0625-0.1875-0.125-0.375l-0.0625-0.1875 0.09375 0.28125"/>
  <path d="m12 0.5v-0.5h5v5h-0.5q-0.5 0-1 0t-1 0-1 0-0.5-0.5 0-1-0.375-0.625-0.5-0.5-0.125-0.875 0-1" fill-opacity="0"/>
  <path d="m6 1.5q0-0.5 0.5-0.5t1 0 1 0 1 0 1 0 0.5 0.5 0.125 0.875l0.125 0.375-0.1875-0.5625 0.0625 0.1875q0.0625 0.1875 0.15625 0.34375l0.09375 0.15625-0.09375-0.15625-0.26562 0.26562q-0.26562 0.26562-0.64062 0.14062t-0.875-0.125-1 0-1 0-0.875 0.125-0.64062-0.14062l-0.26562-0.26562-0.09375 0.15625 0.09375-0.15625q0.09375-0.15625 0.15625-0.34375l0.0625-0.1875-0.1875 0.5625 0.125-0.375q0.125-0.375 0.125-0.875" fill="#0f0f0f"/>
  <path d="m5.125 3.625q0.125-0.375 0.375-0.625l0.25-0.25-0.375 0.375 0.125-0.125q0.125-0.125 0.21875-0.28125l0.09375-0.15625-0.09375 0.15625 0.26562 0.26562q0.26562 0.26562 0.64062 0.14062t0.875-0.125 1 0 1 0 0.875 0.125 0.64062-0.14062l0.26562-0.26562-0.09375-0.15625 0.09375 0.15625q0.09375 0.15625 0.21875 0.28125l0.125 0.125-0.375-0.375 0.25 0.25q0.25 0.25 0.375 0.625t0 0.75-0.5 0.5-0.875 0.125-1 0-1 0-1 0-1 0-0.875-0.125-0.5-0.5 0-0.75" fill="#353a3d"/>
  <path d="m0 6.5v-0.5h0.5q0.5 0 1 0t0.375 0.375-0.5 0.5-0.375 0.625-0.125 0.875-0.5 0.5l-0.375 0.125v-2.5" fill-opacity="0"/>
  <path d="m4 6.5q0.25-0.25 0.625-0.375t0.875-0.125 1 0 1 0 1 0 1 0 1 0h0.5v1h-0.5q-0.5 0-0.875 0.125t-0.625 0.375-0.625 0.375-0.75 0-0.625-0.375-0.625-0.375-0.875-0.125-0.875 0.125-0.625 0.375-0.5 0.5-0.375 0.625-0.125 0.875v0.5-0.75 0.25q0 0.25 0.03125 0.46875l0.03125 0.21875-0.03125-0.21875-0.39062 0.14062q-0.39062 0.14062-0.64062 0.39062t-0.625 0.375l-0.375 0.125v-0.5q0-0.5 0.125-0.875t0.375-0.625 0.375-0.625 0.25-0.75 0.5-0.5 0.75-0.25 0.625-0.375m-3 4.125v0.625-0.25q0-0.25 0-0.5v-0.25 0.375m9.625-3.625h0.625-0.25q-0.25 0-0.5 0h-0.25 0.375m0.5-1h-0.875 0.25q0.25 0 0.5 0h0.25-0.125" fill="#00923f"/>
  <path d="m11 6.5v-0.5h0.5q0.5 0 0.875 0.125t0.625 0.375 0.625 0.375 0.75 0.25 0.5 0.5 0.25 0.75 0.375 0.625 0.375 0.625 0.0625 0.9375l-0.0625 0.5625 0.125 0.125-0.125-0.125q-0.125-0.125-0.375-0.125h-0.25 0.75l-0.375 0.125q-0.375 0.125-0.625 0.375t-0.625 0.375-0.75 0.25-0.625 0.375-0.625 0.375-0.75 0.25-0.625 0.375-0.625 0.375-0.875 0.125-0.875 0.125-0.625 0.375-0.625 0.375-0.75 0.25-0.5 0.5l-0.125 0.375 0.1875-0.5625-0.0625 0.1875q-0.0625 0.1875-0.0625 0.375v0.1875-0.1875h-0.53125q-0.53125 0-0.90625-0.125t-0.625-0.375-0.5-0.5-0.5-0.5-0.5-0.5-0.5-0.5-0.5-0.5-0.375-0.625-0.125-0.875v-0.5l0.375-0.125q0.375-0.125 0.625-0.375t0.64062-0.39062l0.39062-0.14062-0.03125-0.21875 0.03125 0.21875q0.03125 0.21875 0.09375 0.40625l0.0625 0.1875-0.1875-0.5625 0.125 0.375q0.125 0.375 0.375 0.625t0.5 0.5 0.625 0.375 0.875 0.125 1 0h0.5l0.125 0.375q0.125 0.375 0.5 0.5l0.375 0.125h1l0.375-0.125q0.375-0.125 0.5-0.5l0.125-0.375h0.5q0.5 0 1 0t0.875-0.125 0.625-0.375 0.5-0.5 0.375-0.625 0.125-0.875-0.125-0.875-0.375-0.625-0.5-0.5-0.625-0.375-0.875-0.125h-0.5v-0.5m-0.125 0.5h0.875-0.25q-0.25 0-0.5 0h-0.25 0.125m-9.875 3.875v0.875-0.25q0-0.25 0-0.5v-0.25 0.125m10.375-4.875h-0.625 0.25q0.25 0 0.5 0h0.25-0.375" fill="#da251d"/>
  <path d="m15.125 6.375q-0.125-0.375 0.375-0.375t1 0h0.5v3l-0.375-0.125q-0.375-0.125-0.5-0.5t-0.125-0.875-0.375-0.625-0.5-0.5" fill-opacity="0"/>
  <g>
   <path d="m4 7.5q0.25-0.25 0.625-0.375t0.875-0.125 0.875 0.125 0.625 0.375 0.625 0.375l0.375 0.125-0.5625-0.1875 0.1875 0.0625q0.1875 0.0625 0.375 0.0625h0.1875-0.1875l0.125 1.1875 0.125-0.125-0.125 0.125q-0.125 0.125-0.125 0.375v0.25-0.75 1-0.75 0.25q0 0.25 0.125 0.375l0.125 0.125-0.125-0.125-0.125 1.125-0.375 0.125q-0.375 0.125-0.5 0.5l-0.125 0.375h-0.5q-0.5 0-1 0t-0.875-0.125-0.625-0.375-0.5-0.5-0.375-0.625-0.125-0.875 0.125-0.875 0.375-0.625 0.5-0.5m1.5 3.5q0.5 0 0.875-0.125t0.5-0.5 0.125-0.875-0.125-0.875-0.5-0.5-0.875-0.125-0.875 0.125-0.5 0.5-0.125 0.875 0.125 0.875 0.5 0.5 0.875 0.125"/>
   <path d="m9 7.5q0.25-0.25 0.625-0.375l0.375-0.125-0.5625 0.1875 0.1875-0.0625q0.1875-0.0625 0.40625-0.09375l0.21875-0.03125-0.21875 0.03125-0.14062 0.35938q-0.14062 0.35938-0.39062 0.60938t-0.4375 0.6875l-0.1875 0.4375 0.125 0.125-0.125-0.125q-0.125-0.125-0.375-0.125h-0.25 0.75-1 0.75-0.25q-0.25 0-0.375 0.125l-0.125 0.125 0.125-0.125-0.125-1.1875h-0.1875 0.1875q0.1875 0 0.375-0.0625l0.1875-0.0625-0.5625 0.1875 0.375-0.125q0.375-0.125 0.625-0.375" fill="#da251d"/>
   <path d="m9.8906 7.3906 0.14062-0.35938-0.21875 0.03125 0.21875-0.03125q0.21875-0.03125 0.46875-0.03125h0.25-0.75 0.5q0.5 0 1 0t0.875 0.125 0.625 0.375 0.5 0.5 0.375 0.625 0.125 0.875-0.125 0.875-0.375 0.625-0.5 0.5-0.625 0.375-0.875 0.125-1 0h-0.5l-0.125-0.375q-0.125-0.375-0.5-0.5l-0.375-0.125-0.125-1.125-0.125 0.125 0.125-0.125q0.125-0.125 0.125-0.375v-0.25 0.75-1 0.75-0.25q0-0.25-0.125-0.375l-0.125-0.125 0.125 0.125 0.1875-0.4375q0.1875-0.4375 0.4375-0.6875t0.39062-0.60938m1.6094 3.6094q0.5 0 0.875-0.125t0.5-0.5 0.125-0.875-0.125-0.875-0.5-0.5-0.875-0.125-0.875 0.125-0.5 0.5-0.125 0.875 0.125 0.875 0.5 0.5 0.875 0.125"/>
  </g>
  <g fill="#fff">
   <path d="m4.125 8.625q0.125-0.375 0.5-0.5t0.875-0.125 0.875 0.125 0.5 0.5 0.125 0.875-0.125 0.875-0.5 0.5-0.875 0.125-0.875-0.125-0.5-0.5-0.125-0.875 0.125-0.875"/>
   <path d="m10.125 8.625q0.125-0.375 0.5-0.5t0.875-0.125 0.875 0.125 0.5 0.5 0.125 0.875-0.125 0.875-0.5 0.5-0.875 0.125-0.875-0.125-0.5-0.5-0.125-0.875 0.125-0.875"/>
   <path d="m8 9.5q0-0.5 0.5-0.5t0.5 0.5-0.5 0.5-0.5-0.5"/>
  </g>
  <g>
   <path d="m8.0625 10.438 0.0625-0.5625-0.125-0.125 0.125 0.125q0.125 0.125 0.375 0.125h0.25-0.75 1-0.75 0.25q0.25 0 0.375-0.125l0.125-0.125-0.125 0.125 0.125 1.125h-1l0.0625-0.5625" fill="#495f5f"/>
   <path d="m7.125 11.625q0.125-0.375 0.5-0.5l0.375-0.125v1h-1l0.125-0.375m0.5 0.375h0.625-0.25q-0.25 0-0.5 0h-0.25 0.375" fill="#c0a062"/>
   <path d="m8 11.5v-0.5h1v1h-1v-0.5m-0.125 0.5h0.875-0.25q-0.25 0-0.5 0h-0.25 0.125m0.75 0h0.625-0.25q-0.25 0-0.5 0h-0.25 0.375" fill="#5e7d58"/>
   <path d="m9 11.5v-0.5l0.375 0.125q0.375 0.125 0.5 0.5l0.125 0.375h-1v-0.5m-0.125 0.5h0.875-0.25q-0.25 0-0.5 0h-0.25 0.125" fill="#c0a062"/>
   <path d="m15 11.5q0.25-0.25 0.625-0.375t0.375 0.375-0.125 0.875-0.375 0.625-0.5 0.5-0.5 0.5-0.5 0.5-0.5 0.5-0.5 0.5-0.625 0.375-0.75 0.25-0.625 0.375-0.625 0.375-0.875 0.125-1 0-1 0-0.875-0.125-0.5-0.5 0-0.75 0.5-0.5 0.75-0.25 0.625-0.375 0.625-0.375 0.875-0.125 0.875-0.125 0.625-0.375 0.625-0.375 0.75-0.25 0.625-0.375 0.625-0.375 0.75-0.25 0.625-0.375" fill="#fff500"/>
   <path d="m7.125 12.375-0.125-0.375h1v1l-0.375-0.125q-0.375-0.125-0.5-0.5" fill="#fff"/>
   <path d="m8 12.5v-0.5h1v1h-1v-0.5" fill="#dededd"/>
   <path d="m9 12.5v-0.5h1l-0.125 0.375q-0.125 0.375-0.5 0.5l-0.375 0.125v-0.5" fill="#fff"/>
   <path d="m1.125 15.625q0.125-0.375 0.375-0.375t0.4375 0.4375l0.1875 0.4375 0.125-0.125-0.125 0.125q-0.125 0.125-0.125 0.375v0.25-0.75 0.5q0 0.5 0.125 0.875t0.375 0.625 0.375 0.625 0.125 0.875 0 1v0.5-0.75 0.25q0 0.25 0.125 0.375l0.125 0.125-0.125-0.125-0.4375-0.0625q-0.4375-0.0625-0.5625-0.4375t-0.125-0.875-0.125-0.875-0.375-0.625-0.375-0.625-0.125-0.875 0.125-0.875" fill="#78363a"/>
   <path d="m15.062 15.688q0.1875-0.4375 0.4375-0.4375t0.375 0.375 0.125 0.875-0.125 0.875-0.375 0.625-0.375 0.625-0.125 0.875-0.125 0.875-0.5625 0.4375l-0.4375 0.0625-0.125 0.125 0.125-0.125q0.125-0.125 0.125-0.375v-0.25 0.75-0.5q0-0.5 0-1t0.125-0.875 0.375-0.625 0.375-0.625 0.125-0.875v-0.5 0.75-0.25q0-0.25-0.125-0.375l-0.125-0.125 0.125 0.125 0.1875-0.4375" fill="#78363a"/>
   <path d="m2 16.5q0-0.5 0.5-0.5h0.5-0.75 0.25q0.25 0 0.46875 0.03125l0.21875 0.03125-0.21875-0.03125 0.015625 0.48438q0.015625 0.48438 0.14062 0.85938t0.375 0.625 0.375 0.625 0.125 0.875 0 1v0.5h-0.5q-0.5 0-0.5-0.5t0-1-0.125-0.875-0.375-0.625-0.375-0.625-0.125-0.875m1.625 4.5h0.625-0.25q-0.25 0-0.5 0h-0.25 0.375" fill="#aab4cd"/>
   <path d="m2.9844 16.516-0.015625-0.48438-0.21875-0.03125 0.21875 0.03125q0.21875 0.03125 0.40625 0.09375l0.1875 0.0625-0.5625-0.1875 0.375 0.125q0.375 0.125 0.5 0.5t0.25 0.75 0.375 0.625 0.375 0.625 0.125 0.875 0 1v0.5h-1v-0.5q0-0.5 0-1t-0.125-0.875-0.375-0.625-0.375-0.625-0.14062-0.85938m0.89062 4.4844h0.875-0.25q-0.25 0-0.5 0h-0.25 0.125m0.75 0h0.625-0.25q-0.25 0-0.5 0h-0.25 0.375" fill="#605951"/>
   <path d="m13.125 16.625q0.125-0.375 0.5-0.5l0.375-0.125-0.5625 0.1875 0.1875-0.0625q0.1875-0.0625 0.40625-0.09375l0.21875-0.03125-0.21875 0.03126-0.01563 0.48438q-0.01562 0.48436-0.14062 0.85936t-0.375 0.625-0.375 0.625-0.125 0.875 0 1v0.5h-1v-0.5q0-0.5 0-1t0.125-0.875 0.375-0.625 0.375-0.625 0.25-0.75m-1.25 4.375h0.875-0.25q-0.25 0-0.5 0h-0.25 0.125m0.75 0h0.625-0.25q-0.25 0-0.5 0h-0.25 0.375" fill="#605951"/>
  </g>
  <g fill="#aab4cd">
   <path d="m14.016 16.516 0.01563-0.48438-0.21875 0.03126 0.21875-0.03125q0.21874-0.03126 0.46874-0.03126h0.25-0.75 0.5q0.5 0 0.5 0.5t-0.125 0.875-0.375 0.625-0.375 0.625-0.125 0.875 0 1-0.5 0.5h-0.5v-0.5q0-0.5 0-1t0.125-0.875 0.375-0.625 0.375-0.625 0.14062-0.85938m-1.1406 4.4844h0.875-0.25q-0.25 0-0.5 0h-0.25 0.125"/>
   <path d="m4.125 17.375-0.125-0.375 0.375 0.125q0.375 0.125 0.625 0.375t0.625 0.375 0.375 0.625 0 1 0 1-0.5 0.5h-0.5v-0.5q0-0.5 0-1t-0.125-0.875-0.375-0.625-0.375-0.625m0.75 3.625h0.875-0.25q-0.25 0-0.5 0h-0.25 0.125m-0.90625-4.0938 0.21875 0.65625-0.0625-0.1875q-0.0625-0.1875-0.125-0.375l-0.0625-0.1875 0.03125 0.09375"/>
   <path d="m12 17.5q0.25-0.25 0.625-0.375l0.375-0.125-0.125 0.375q-0.125 0.375-0.375 0.625t-0.375 0.625-0.125 0.875 0 1v0.5h-0.5q-0.5 0-0.5-0.5t0-1 0-1 0.375-0.625 0.625-0.375m-0.375 3.5h0.625-0.25q-0.25 0-0.5 0h-0.25 0.375m1.2812-3.7188 0.15625-0.46875-0.0625 0.1875q-0.0625 0.1875-0.125 0.375l-0.0625 0.1875 0.09375-0.28125"/>
  </g>
  <path d="m0 18.5v-0.5l0.375 0.125q0.375 0.125 0.5 0.5t0.125 0.875 0 1 0.375 0.625 0.5 0.5l0.125 0.375h-2v-3.5" fill-opacity="0"/>
  <path d="m6 18.5v-0.5 0.75-0.25q0-0.25-0.09375-0.40625l-0.09375-0.15625 0.09375 0.15626 0.54688-0.04687q0.54688-0.04689 1.0469-0.04689t1 0 1 0 1.0469 0.04687l0.54688 0.04687 0.09374-0.15626-0.09375 0.15625q-0.09374 0.15627-0.09374 0.40627v0.25-0.75 0.5q0 0.5 0 1t0 1v0.5-0.75 0.25q0 0.25 0.125 0.375l0.125 0.125-0.125-0.125-0.5625 0.0625q-0.5625 0.0625-1.0625 0.0625t-1 0-1 0-1.0625-0.0625l-0.5625-0.0625-0.125 0.125 0.125-0.125q0.125-0.125 0.125-0.375v-0.25 0.75-0.5q0-0.5 0-1t0-1" fill="#78363a"/>
  <path d="m16.125 18.625q0.125-0.375 0.5-0.5l0.375-0.125v4h-2l0.125-0.375q0.125-0.375 0.5-0.5t0.375-0.625 0-1 0.125-0.875" fill-opacity="0"/>
 </g>
</svg>
