<svg width="17" height="14" version="1.1" viewBox="0 0 17 14" xmlns="http://www.w3.org/2000/svg">
 <g transform="translate(0)">
  <path d="m0 0.5v-0.5h5l-0.125 0.375q-0.125 0.375-0.5 0.5t-0.5 0.5-0.5 0.5-0.875 0.125-0.625 0.375-0.5 0.5-0.375 0.625-0.125 0.875-0.5 0.5l-0.375 0.125v-4.5" fill-opacity="0"/>
  <path d="m4.875 0.375 0.125-0.375h7l0.125 0.375q0.125 0.375 0.5 0.5t0.5 0.5 0.5 0.5 0.875 0.125 0.625 0.375 0.5 0.5 0.375 0.625 0.125 0.875 0.5 0.5l0.375 0.125v4l-0.375 0.125q-0.375 0.125-0.5 0.5t-0.125 0.875-0.5 0.5-0.5 0.5-0.5 0.5-0.875 0.125-0.5 0.5-0.625 0.375-0.5 0.5v0.5h-7v-0.5q0-0.5-0.5-0.5t-0.625-0.375-0.5-0.5-0.875-0.125-0.5-0.5-0.5-0.5-0.5-0.5-0.125-0.875-0.5-0.5l-0.375-0.125v-4l0.375-0.125q0.375-0.125 0.5-0.5t0.125-0.875 0.375-0.625 0.5-0.5 0.625-0.375 0.875-0.125 0.5-0.5 0.5-0.5 0.5-0.5m4.625 12.625q0.5 0 0.875-0.125t0.625-0.375 0.625-0.375 0.75-0.25 0.625-0.375 0.5-0.5 0.5-0.5 0.5-0.5 0.35938-0.64062l0.10938-0.39062-0.21875 0.03125 0.21875-0.03125q0.21875-0.03125 0.40625-0.09375l0.1875-0.0625-0.5625 0.1875 0.375-0.125q0.375-0.125 0.5-0.5t0.125-0.875 0-1-0.125-0.875-0.5-0.5l-0.375-0.125 0.5625 0.1875-0.1875-0.0625q-0.1875-0.0625-0.40625-0.09375l-0.21875-0.03125 0.21875 0.03125 0.015625-0.51562q0.015625-0.51562-0.10938-0.89062t-0.5-0.5-0.75-0.25-0.625-0.375-0.5-0.5-0.5-0.5-0.625-0.375-0.875-0.125-1 0-1 0-1 0-1 0-0.875 0.125-0.625 0.375-0.5 0.5-0.5 0.5-0.625 0.375-0.75 0.25-0.5 0.5-0.10938 0.89062l0.015625 0.51562 0.21875-0.03125-0.21875 0.03125q-0.21875 0.03125-0.40625 0.09375l-0.1875 0.0625 0.5625-0.1875-0.375 0.125q-0.375 0.125-0.5 0.5t-0.125 0.875 0 1 0.125 0.875 0.5 0.5l0.375 0.125-0.5625-0.1875 0.1875 0.0625q0.1875 0.0625 0.40625 0.09375l0.21875 0.03125-0.21875-0.03125 0.10938 0.39062q0.10938 0.39062 0.35938 0.64062t0.5 0.5 0.5 0.5 0.5 0.5 0.625 0.375 0.75 0.25 0.625 0.375 0.625 0.375 0.875 0.125 1 0 1 0"/>
  <path d="m12.125 0.375-0.125-0.375h5v5l-0.375-0.125q-0.375-0.125-0.5-0.5t-0.125-0.875-0.375-0.625-0.5-0.5-0.625-0.375-0.875-0.125-0.5-0.5-0.5-0.5-0.5-0.5" fill-opacity="0"/>
  <g>
   <path d="m5 1.5q0.25-0.25 0.625-0.375t0.875-0.125 1 0 1 0 1 0 1 0 0.875 0.125 0.625 0.375 0.5 0.5 0.5 0.5 0.625 0.375 0.75 0.25 0.5 0.5 0.10938 0.89062l-0.015625 0.51562 0.21875 0.03125-0.21875-0.03125q-0.21875-0.03125-0.46875-0.03125h-0.25 0.75-1 0.75-0.25q-0.25 0-0.375 0.125l-0.125 0.125 0.125-0.125-0.1875-0.4375q-0.1875-0.4375-0.4375-0.6875t-0.5-0.5-0.625-0.375-0.875-0.125-1 0-1 0-1 0-1 0-1 0-1 0-0.875 0.125-0.625 0.375-0.5 0.5-0.4375 0.6875l-0.1875 0.4375 0.125 0.125-0.125-0.125q-0.125-0.125-0.375-0.125h-0.25 0.75-1 0.75-0.25q-0.25 0-0.46875 0.03125l-0.21875 0.03125 0.21875-0.03125-0.015625-0.51562q-0.015625-0.51562 0.10938-0.89062t0.5-0.5 0.75-0.25 0.625-0.375 0.5-0.5 0.5-0.5" fill="#da251d"/>
   <path d="m4 3.5q0.25-0.25 0.625-0.375t0.875-0.125 1 0h0.5l0.125 0.375q0.125 0.375 0.5 0.5t0.375 0.625v0.5-0.75 0.25q0 0.25 0.125 0.375l0.125 0.125-0.125-0.125v1.25l0.125-0.125-0.125 0.125q-0.125 0.125-0.125 0.375v0.25-0.75 1-0.75 0.25q0 0.25-0.03125 0.46875l-0.03125 0.21875 0.03125-0.21875-0.35938 0.14062q-0.35938 0.14062-0.48438 0.51562l-0.125 0.375h-0.5q-0.5 0-1 0t-0.875-0.125-0.625-0.375-0.625-0.375-0.375-0.625 0-1v-0.5 0.75-0.25q0-0.25-0.125-0.375l-0.125-0.125 0.125 0.125 0.1875-0.4375q0.1875-0.4375 0.4375-0.6875t0.5-0.5m1.5 3.5q0.5 0 0.875-0.125t0.5-0.5 0.125-0.875-0.125-0.875-0.5-0.5-0.875-0.125-0.875 0.125-0.5 0.5-0.125 0.875 0.125 0.875 0.5 0.5 0.875 0.125m1.625-4h-0.875 0.25q0.25 0 0.5 0h0.25-0.125"/>
   <path d="m7.125 3.375-0.125-0.375h1l-0.09375 1.0938 0.09375 0.15625-0.09375-0.15625q-0.09375-0.15625-0.28125-0.21875l-0.1875-0.0625 0.5625 0.1875-0.375-0.125q-0.375-0.125-0.5-0.5m1-0.375h-0.875 0.25q0.25 0 0.5 0h0.25-0.125m-0.75 0h-0.625 0.25q0.25 0 0.5 0h0.25-0.375" fill="#9b8f75"/>
   <path d="m7.9531 3.5469 0.046875-0.54688h1l0.09375 1.0938 0.09375-0.15625-0.09375 0.15625q-0.09375 0.15625-0.09375 0.40625v0.25-0.75 0.5q0 0.5-0.5 0.5t-0.5-0.5v-0.5 0.75-0.25q0-0.25-0.09375-0.40625l-0.09375-0.15625 0.09375 0.15625 0.046875-0.54688m1.1719-0.54688h-0.875 0.25q0.25 0 0.5 0h0.25-0.125m-0.75 0h-0.625 0.25q0.25 0 0.5 0h0.25-0.375" fill="#7bc4a0"/>
   <path d="m9.0469 3.5469-0.046875-0.54688h1l-0.125 0.375q-0.125 0.375-0.5 0.5l-0.375 0.125 0.5625-0.1875-0.1875 0.0625q-0.1875 0.0625-0.28125 0.21875l-0.09375 0.15625 0.09375-0.15625-0.046875-0.54688m1.0781-0.54688h-0.875 0.25q0.25 0 0.5 0h0.25-0.125m-0.75 0h-0.625 0.25q0.25 0 0.5 0h0.25-0.375" fill="#9b8f75"/>
   <path d="m9.875 3.375 0.125-0.375h0.5q0.5 0 1 0t0.875 0.125 0.625 0.375 0.5 0.5 0.4375 0.6875l0.1875 0.4375 0.125-0.125-0.125 0.125q-0.125 0.125-0.125 0.375v0.25-0.75 0.5q0 0.5 0 1t-0.375 0.625-0.625 0.375-0.625 0.375l-0.375 0.125 0.5625-0.1875-0.1875 0.0625q-0.1875 0.0625-0.28125 0.21875l-0.09375 0.15625 0.09375-0.15625-1.2188 0.03125 0.125 0.125-0.125-0.125q-0.125-0.125-0.375-0.125h-0.25 0.75-1l-0.125-0.375q-0.125-0.375-0.48438-0.51562l-0.35938-0.14062 0.03125 0.21875-0.03125-0.21875q-0.03125-0.21875-0.03125-0.46875v-0.25 0.75-1 0.75-0.25q0-0.25-0.125-0.375l-0.125-0.125 0.125 0.125v-1.25l-0.125 0.125 0.125-0.125q0.125-0.125 0.125-0.375v-0.25 0.75-0.5q0-0.5 0.375-0.625t0.5-0.5m1.625 3.625q0.5 0 0.875-0.125t0.5-0.5 0.125-0.875-0.125-0.875-0.5-0.5-0.875-0.125-0.875 0.125-0.5 0.5-0.125 0.875 0.125 0.875 0.5 0.5 0.875 0.125m-1.125-4h-0.625 0.25q0.25 0 0.5 0h0.25-0.375"/>
  </g>
  <g fill="#fff">
   <path d="m4.125 4.625q0.125-0.375 0.5-0.5t0.875-0.125 0.875 0.125 0.5 0.5 0.125 0.875-0.125 0.875-0.5 0.5-0.875 0.125-0.875-0.125-0.5-0.5-0.125-0.875 0.125-0.875"/>
   <path d="m10.125 4.625q0.125-0.375 0.5-0.5t0.875-0.125 0.875 0.125 0.5 0.5 0.125 0.875-0.125 0.875-0.5 0.5-0.875 0.125-0.875-0.125-0.5-0.5-0.125-0.875 0.125-0.875"/>
   <path d="m1.125 5.625q0.125-0.375 0.5-0.5t0.875-0.125 0.5 0.5 0 1v0.5-0.75 0.25q0 0.25 0.09375 0.40625l0.09375 0.15625-0.09375-0.15625 0.078125 0.42188q0.078125 0.42188 0.32812 0.67188t0.375 0.625l0.125 0.375h-0.5q-0.5 0-1 0t-0.875-0.125-0.5-0.5-0.125-0.875 0-1 0.125-0.875m2.5 3.375h0.625-0.25q-0.25 0-0.5 0h-0.25 0.375"/>
  </g>
  <g>
   <path d="m8.125 5.5v-0.625l-0.125-0.125 0.125 0.125q0.125 0.125 0.375 0.125h0.25-0.75 1-0.75 0.25q0.25 0 0.375-0.125l0.125-0.125-0.125 0.125v1.25l0.125 0.125-0.125-0.125q-0.125-0.125-0.375-0.125h-0.25 0.75-1 0.75-0.25q-0.25 0-0.375 0.125l-0.125 0.125 0.125-0.125v-0.625" fill="#da251d"/>
   <path d="m14 5.5q0-0.5 0.5-0.5t0.875 0.125 0.5 0.5 0.125 0.875 0 1-0.125 0.875-0.5 0.5-0.875 0.125-1 0h-0.5 0.75-0.25q-0.25 0-0.46875-0.03125l-0.21875-0.03125 0.21875 0.03125 0.10938-0.35938q0.10938-0.35938 0.35938-0.60938t0.32812-0.67188l0.078125-0.42188-0.09375 0.15625 0.09375-0.15625q0.09375-0.15625 0.09375-0.40625v-0.25 0.75-0.5q0-0.5 0-1" fill="#fff"/>
   <path d="m8 6.5q0-0.5 0.5-0.5t0.5 0.5 0.125 0.875 0.5 0.5l0.375 0.125v1l-0.375-0.125q-0.375-0.125-0.625-0.375t-0.5-0.25-0.5 0.25-0.625 0.375l-0.375 0.125v-1l0.375-0.125q0.375-0.125 0.5-0.5t0.125-0.875" fill="#fff"/>
   <path d="m3.1719 7.3281-0.078125-0.42188-0.09375-0.15625 0.09375 0.15625q0.09375 0.15625 0.28125 0.21875l0.1875 0.0625-0.5625-0.1875 0.375 0.125q0.375 0.125 0.625 0.375t0.625 0.375l0.375 0.125-0.5625-0.1875 0.1875 0.0625q0.1875 0.0625 0.40625 0.09375l0.21875 0.03125-0.21875-0.03125-0.03125 1.0312h-1l-0.125-0.375q-0.125-0.375-0.375-0.625t-0.32812-0.67188m0.70312 1.6719h0.875-0.25q-0.25 0-0.5 0h-0.25 0.125" fill="#7bc4a0"/>
   <path d="m7.125 7.625q0.125-0.375 0.48438-0.51562l0.35938-0.14062 0.03125-0.21875-0.03125 0.21875q-0.03125 0.21875-0.09375 0.40625l-0.0625 0.1875 0.1875-0.5625-0.125 0.375q-0.125 0.375-0.5 0.5l-0.375 0.125 0.125-0.375" fill="#886023"/>
   <path d="m9.125 7.375-0.125-0.375 0.1875 0.5625-0.0625-0.1875q-0.0625-0.1875-0.09375-0.40625l-0.03125-0.21875 0.03125 0.21875 0.35938 0.14062q0.35938 0.14062 0.48438 0.51562l0.125 0.375-0.375-0.125q-0.375-0.125-0.5-0.5" fill="#886023"/>
   <path d="m13 7.5q0.25-0.25 0.625-0.375l0.375-0.125-0.5625 0.1875 0.1875-0.0625q0.1875-0.0625 0.28125-0.21875l0.09375-0.15625-0.09375 0.15625-0.078125 0.42188q-0.078125 0.42188-0.32812 0.67188t-0.35938 0.60938l-0.10938 0.35938 0.21875 0.03125-0.21875-0.03125q-0.21875-0.03125-0.40625-0.09375l-0.1875-0.0625 0.5625 0.1875-0.375-0.125q-0.375-0.125-0.5-0.5t0.25-0.5 0.625-0.375" fill="#7bc4a0"/>
   <path d="m5.0156 8.4844 0.015625-0.51562-0.21875-0.03125 0.21875 0.03125q0.21875 0.03125 0.46875 0.03125h0.25-0.75 1v1h-1l0.015625-0.51562m1.1094-0.48438h-0.875 0.25q0.25 0 0.5 0h0.25-0.125" fill="#ffd300"/>
   <path d="m6 8.5v-0.5h1v1h-1v-0.5m0.375-0.5h-0.625 0.25q0.25 0 0.5 0h0.25-0.375" fill="#7bc4a0"/>
   <path d="m8 8.5q0.25-0.25 0.5-0.25t0.5 0.25 0.625 0.375l0.375 0.125v1l-0.375-0.125q-0.375-0.125-0.625-0.375t-0.5-0.25-0.5 0.25-0.625 0.375l-0.375 0.125v-1l0.375-0.125q0.375-0.125 0.625-0.375" fill="#fff500"/>
   <path d="m10 8.5v-0.5h0.5q0.5 0 0.5 0.5v0.5h-1v-0.5" fill="#7bc4a0"/>
   <path d="m11 8.5v-0.5 0.75-0.25q0-0.25-0.125-0.375l-0.125-0.125 0.125 0.125 1.2188-0.03125 0.09375-0.15625-0.09375 0.15625q-0.09375 0.15625-0.09375 0.40625v0.25-0.75l0.125 0.375q0.125 0.375 0.5 0.5t0.875 0.125 1 0h0.5-0.75 0.25q0.25 0 0.46875-0.03125l0.21875-0.03125-0.21875 0.03125-0.10938 0.39062q-0.10938 0.39062-0.35938 0.64062t-0.5 0.5-0.5 0.5-0.5 0.5-0.625 0.375-0.75 0.25-0.625 0.375-0.625 0.375-0.875 0.125-1 0-1 0-0.875-0.125-0.625-0.375-0.625-0.375-0.75-0.25-0.625-0.375-0.5-0.5-0.5-0.5-0.5-0.5-0.35938-0.64062l-0.10938-0.39062-0.21875-0.03125 0.21875 0.03125q0.21875 0.03125 0.46875 0.03125h0.25-0.75 0.5q0.5 0 1 0t1 0h0.5l0.125 0.375q0.125 0.375 0.375 0.625t0.5 0.5 0.5 0.5 0.5 0.5 0.625 0.375 0.875 0.125 0.875-0.125 0.625-0.375 0.5-0.5 0.5-0.5 0.5-0.5 0.25-0.5-0.375-0.375l-0.375-0.125v-0.5" fill="#da251d"/>
  </g>
  <path d="m0 9.5v-0.5l0.375 0.125q0.375 0.125 0.5 0.5t0.125 0.875 0.5 0.5 0.5 0.5 0.5 0.5 0.875 0.125 0.5 0.5 0.625 0.375 0.5 0.5v0.5h-5v-4.5" fill-opacity="0"/>
  <g>
   <path d="m5.125 9.375-0.125-0.375h1l0.125 0.375q0.125 0.375 0.5 0.5l0.375 0.125 0.125 0.375q0.125 0.375 0.375 0.625t0.39062 0.60938l0.14062 0.35938 0.21875 0.03125-0.21875-0.03125q-0.21875-0.03125-0.40625-0.09375l-0.1875-0.0625 0.5625 0.1875-0.375-0.125q-0.375-0.125-0.625-0.375t-0.5-0.5-0.5-0.5-0.5-0.5-0.375-0.625" fill="#9b8f75"/>
   <path d="m6.125 9.375-0.125-0.375h1v1l-0.375-0.125q-0.375-0.125-0.5-0.5" fill="#84c225"/>
   <path d="m8 9.5q0.25-0.25 0.5-0.25t0.5 0.25 0.625 0.375l0.375 0.125-0.125 0.375q-0.125 0.375-0.375 0.625t-0.39062 0.60938l-0.14062 0.35938 0.21875-0.03125-0.21875 0.03125q-0.21875 0.03125-0.46875 0.03125h-0.25 0.75-1 0.75-0.25q-0.25 0-0.46875-0.03125l-0.21875-0.03125 0.21875 0.03125-0.14062-0.35938q-0.14062-0.35938-0.39062-0.60938t-0.375-0.625l-0.125-0.375 0.375-0.125q0.375-0.125 0.625-0.375m0.25 1q0 0.25 0.25 0.25t0.25-0.25-0.25-0.25-0.25 0.25" fill="#7bc4a0"/>
   <path d="m10 9.5v-0.5h1l-0.125 0.375q-0.125 0.375-0.5 0.5l-0.375 0.125v-0.5" fill="#00923f"/>
   <path d="m10.875 9.375 0.125-0.375 0.375 0.125q0.375 0.125 0.375 0.375t-0.25 0.5-0.5 0.5-0.5 0.5-0.5 0.5-0.625 0.375l-0.375 0.125 0.5625-0.1875-0.1875 0.0625q-0.1875 0.0625-0.40625 0.09375l-0.21875 0.03125 0.21875-0.03125 0.14062-0.35938q0.14062-0.35938 0.39062-0.60938t0.375-0.625l0.125-0.375 0.375-0.125q0.375-0.125 0.5-0.5" fill="#9b8f75"/>
  </g>
  <path d="m16.125 9.625q0.125-0.375 0.5-0.5l0.375-0.125v5h-5v-0.5q0-0.5 0.5-0.5t0.625-0.375 0.5-0.5 0.875-0.125 0.5-0.5 0.5-0.5 0.5-0.5 0.125-0.875" fill-opacity="0"/>
  <path d="m8.25 10.5q0-0.25 0.25-0.25t0.25 0.25-0.25 0.25-0.25-0.25" fill="#da251d"/>
 </g>
</svg>
