<svg width="23" height="20" version="1.1" viewBox="0 0 23 20" xmlns="http://www.w3.org/2000/svg">
 <g transform="translate(0)">
  <path d="m0 0.5v-0.5h8l-0.125 0.375q-0.125 0.375-0.5 0.5t-0.875 0.125-0.625 0.375-0.5 0.5-0.875 0.125-0.625 0.375-0.5 0.5-0.5 0.5-0.5 0.5-0.5 0.5-0.5 0.5-0.375 0.625-0.125 0.875-0.5 0.5l-0.375 0.125v-6.5" fill-opacity="0"/>
  <path d="m7.875 0.375 0.125-0.375h7l0.125 0.375q0.125 0.375 0.5 0.5t0.875 0.125 0.625 0.375 0.5 0.5 0.875 0.125 0.625 0.375 0.5 0.5 0.5 0.5 0.5 0.5 0.5 0.5 0.5 0.5 0.375 0.625 0.125 0.875 0.5 0.5l0.375 0.125v9h-0.5q-0.5 0-0.5-0.5t0-1 0-1 0-1-0.5-0.5-0.625-0.375-0.5-0.5-0.375 0.375 0 1 0 1 0 1-0.375 0.625-0.5 0.5-0.125 0.875-0.5 0.5-0.5 0.5-0.5 0.5-0.875 0.125-0.5 0.5-0.625 0.375-0.5 0.5v0.5h-7v-0.5q0-0.5-0.5-0.5t-0.625-0.375-0.5-0.5-0.875-0.125-0.5-0.5-0.5-0.5-0.5-0.5-0.125-0.875-0.5-0.5-0.375-0.625 0-1 0-1 0-1-0.375-0.375-0.5 0.5-0.625 0.375-0.5 0.5 0 1 0 1 0 1-0.5 0.5h-0.5v-9l0.375-0.125q0.375-0.125 0.5-0.5t0.125-0.875 0.375-0.625 0.5-0.5 0.5-0.5 0.5-0.5 0.5-0.5 0.5-0.5 0.625-0.375 0.875-0.125 0.5-0.5 0.625-0.375 0.875-0.125 0.5-0.5m4.625 18.625q0.5 0 0.875-0.125t0.625-0.375 0.625-0.375 0.75-0.25 0.625-0.375 0.5-0.5 0.375-0.625l0.125-0.375v0.75-0.25q0-0.25-0.125-0.375l-0.125-0.125 0.125 0.125 0.4375-0.1875q0.4375-0.1875 0.6875-0.4375t0.5-0.5 0.375-0.625 0.0625-0.9375l-0.0625-0.5625-0.125 0.125 0.125-0.125q0.125-0.125 0.125-0.375v-0.25 0.75-0.5q0-0.5-0.125-0.875t-0.375-0.625-0.375-0.625l-0.125-0.375 0.1875 0.5625-0.0625-0.1875q-0.0625-0.1875-0.21875-0.28125l-0.15625-0.09375 0.15626 0.09374-0.07813-0.42188q-0.07813-0.42186-0.45313-0.54686t-0.75 0-0.375 0.375 0.4375 0.4375l0.4375 0.1875 0.125-0.125-0.125 0.125q-0.125 0.125-0.125 0.375v0.25-0.75 0.5q0 0.5 0 1t0 1v0.5-0.75 0.25q0 0.25 0.125 0.375l0.125 0.125-0.125-0.125-0.4375 0.1875q-0.4375 0.1875-0.6875 0.4375t-0.625 0.375-0.875 0.125-0.875-0.125-0.625-0.375-0.6875-0.4375l-0.4375-0.1875-0.125 0.125 0.125-0.125q0.125-0.125 0.125-0.375v-0.25 0.75-0.5q0-0.5 0-1t0-1v-0.5 0.75-0.25q0-0.25-0.125-0.375l-0.125-0.125 0.125 0.125 0.4375-0.1875q0.4375-0.1875 0.4375-0.4375t-0.375-0.375-0.875-0.125-0.875 0.125-0.375 0.375 0.4375 0.4375l0.4375 0.1875 0.125-0.125-0.125 0.125q-0.125 0.125-0.125 0.375v0.25-0.75 0.5q0 0.5 0 1t0 1v0.5-0.75 0.25q0 0.25 0.125 0.375l0.125 0.125-0.125-0.125-0.4375 0.1875q-0.4375 0.1875-0.6875 0.4375t-0.625 0.375-0.875 0.125-0.875-0.125-0.625-0.375-0.625-0.375l-0.375-0.125 0.5625 0.1875-0.1875-0.0625q-0.1875-0.0625-0.40625-0.09375l-0.21875-0.03125 0.21875 0.03125 0.015625-0.51562q0.015625-0.51562 0.015625-1.0156t0.0625-1.0625l0.0625-0.5625-0.125-0.125 0.125 0.125q0.125 0.125 0.375 0.125h0.25-0.75l0.375-0.125q0.375-0.125 0.375-0.375t-0.375-0.375l-0.375-0.125h0.75-0.25q-0.25 0-0.375 0.125l-0.125 0.125 0.125-0.125-0.4375 0.0625q-0.4375 0.0625-0.5625 0.4375t-0.25 0.75-0.375 0.625-0.3125 0.6875l-0.0625 0.4375 0.125-0.125-0.125 0.125q-0.125 0.125-0.125 0.375v0.25-0.75 1-0.75 0.25q0 0.25 0.125 0.375l0.125 0.125-0.125-0.125-0.0625 0.5625q-0.0625 0.5625 0.0625 0.9375t0.375 0.625 0.5 0.5 0.6875 0.4375l0.4375 0.1875 0.125-0.125-0.125 0.125q-0.125 0.125-0.125 0.375v0.25-0.75l0.125 0.375q0.125 0.375 0.375 0.625t0.5 0.5 0.625 0.375 0.75 0.25 0.625 0.375 0.625 0.375 0.875 0.125 1 0 1 0m2-6q0.5 0 0.875-0.125t0.5-0.5 0.125-0.875-0.125-0.875-0.5-0.5-0.875-0.125-0.875 0.125-0.5 0.5-0.125 0.875 0.125 0.875 0.5 0.5 0.875 0.125m-1-5q0.5 0 0.875-0.125t0.375-0.375-0.375-0.375-0.875-0.125-1 0-1 0-1 0-1 0-0.875 0.125-0.375 0.375 0.375 0.375 0.875 0.125 1 0 1 0 1 0 1 0m-5 5q0.5 0 0.875-0.125t0.5-0.5 0.125-0.875-0.125-0.875-0.5-0.5-0.875-0.125-0.875 0.125-0.5 0.5-0.125 0.875 0.125 0.875 0.5 0.5 0.875 0.125m12.5-2.5q0.25 0.25 0.5 0.25t0.375-0.375 0.125-0.875 0-1-0.125-0.875-0.375-0.625-0.375-0.625-0.25-0.75-0.5-0.5-0.5-0.5-0.375-0.625-0.5-0.5-0.625-0.375-0.875-0.125-0.625-0.375-0.5-0.5-0.75-0.25-0.625-0.375-0.625-0.375-0.875-0.125-1 0-1 0-1 0-1 0-0.875 0.125-0.625 0.375-0.625 0.375-0.75 0.25-0.5 0.5-0.625 0.375-0.875 0.125-0.625 0.375-0.5 0.5-0.375 0.625-0.5 0.5-0.5 0.5-0.25 0.75-0.375 0.625-0.375 0.625-0.125 0.875 0 1 0.125 0.875 0.375 0.375 0.5-0.25 0.625-0.375 0.75-0.25 0.625-0.375 0.5-0.5 0.375-0.625 0.625-0.375 0.875-0.125 0.625-0.375 0.5-0.5 0.375-0.625 0.625-0.375 1 0 1 0 1 0 1 0 1 0 1 0 0.625 0.375 0.375 0.625 0.5 0.5 0.625 0.375 0.875 0.125 0.625 0.375 0.375 0.625 0.5 0.5 0.625 0.375 0.75 0.25 0.625 0.375"/>
  <path d="m15.125 0.375-0.125-0.375h8v7l-0.375-0.125q-0.375-0.125-0.5-0.5t-0.125-0.875-0.375-0.625-0.5-0.5-0.5-0.5-0.5-0.5-0.5-0.5-0.5-0.5-0.625-0.375-0.875-0.125-0.5-0.5-0.625-0.375-0.875-0.125-0.5-0.5" fill-opacity="0"/>
  <g>
   <path d="m8 1.5q0.25-0.25 0.625-0.375t0.875-0.125 1 0 1 0 1 0 1 0 0.875 0.125 0.625 0.375 0.625 0.375 0.75 0.25 0.5 0.5l0.125 0.375-0.1875-0.5625 0.0625 0.1875q0.0625 0.1875 0.21875 0.28125l0.15625 0.09375-0.15625-0.09375-0.42188 0.17188q-0.42188 0.17188-0.67188 0.42188t-0.5 0.5-0.375 0.625-0.17188 0.92188l-0.046875 0.54688 0.15625 0.09375-0.15625-0.09375q-0.15625-0.09375-0.40625-0.09375h-0.25 0.75-0.5q-0.5 0-1 0t-1 0-1 0-1 0-1 0-1 0h-0.5 0.75-0.25q-0.25 0-0.40625 0.09375l-0.15625 0.09375 0.15625-0.09375-0.046875-0.54688q-0.046875-0.54688-0.17188-0.92188t-0.375-0.625-0.5-0.5-0.67188-0.42188l-0.42188-0.17188-0.15625 0.09375 0.15625-0.09375q0.15625-0.09375 0.21875-0.28125l0.0625-0.1875-0.1875 0.5625 0.125-0.375q0.125-0.375 0.5-0.5t0.75-0.25 0.625-0.375m1.25 3q0 0.25 0.25 0.25t0.25-0.25-0.25-0.25-0.25 0.25m2-2q0 0.25 0.25 0.25t0.25-0.25-0.25-0.25-0.25 0.25m0 2q0 0.25 0.25 0.25t0.25-0.25-0.25-0.25-0.25 0.25m2 0q0 0.25 0.25 0.25t0.25-0.25-0.25-0.25-0.25 0.25" fill="#a5553c"/>
   <path d="m11.25 2.5q0-0.25 0.25-0.25t0.25 0.25-0.25 0.25-0.25-0.25" fill="#bdbcb8"/>
   <path d="m4 3.5q0.25-0.25 0.625-0.375t0.875-0.125h0.5-0.75 0.25q0.25 0 0.40625-0.09375l0.15625-0.09375-0.15625 0.09375 0.42188 0.17188q0.42188 0.17188 0.67188 0.42188t0.5 0.5 0.375 0.625 0.17188 0.92188l0.046875 0.54688 0.15625-0.09375-0.15625 0.09375q-0.15625 0.09375-0.21875 0.28125l-0.0625 0.1875 0.1875-0.5625-0.125 0.375q-0.125 0.375-0.375 0.625t-0.5 0.5-0.625 0.375-0.875 0.125h-0.5 0.75-0.25q-0.25 0-0.40625 0.09375l-0.15625 0.09375 0.15625-0.09375-0.42188-0.17188q-0.42188-0.17188-0.67188-0.42188t-0.5-0.5-0.375-0.625-0.15625-0.90625l-0.03125-0.53125-0.125 0.125 0.125-0.125q0.125-0.125 0.1875-0.3125l0.0625-0.1875-0.1875 0.5625 0.125-0.375q0.125-0.375 0.375-0.625t0.5-0.5m0.25 1q0 0.25 0.25 0.25t0.25-0.25-0.25-0.25-0.25 0.25m0 2q0 0.25 0.25 0.25t0.25-0.25-0.25-0.25-0.25 0.25m2-2q0 0.25 0.25 0.25t0.25-0.25-0.25-0.25-0.25 0.25m0 2q0 0.25 0.25 0.25t0.25-0.25-0.25-0.25-0.25 0.25" fill="#cec7bd"/>
   <path d="m16 3.5q0.25-0.25 0.67188-0.42188l0.42188-0.17188-0.15625-0.09375 0.15625 0.09375q0.15625 0.09375 0.40625 0.09375h0.25-0.75 0.5q0.5 0 0.875 0.125t0.625 0.375 0.5 0.5 0.375 0.625l0.125 0.375-0.1875-0.5625 0.0625 0.1875q0.0625 0.1875 0.1875 0.3125l0.125 0.125-0.125-0.125-0.03125 0.53125q-0.03125 0.53125-0.15625 0.90625t-0.375 0.625-0.5 0.5-0.67188 0.42188l-0.42188 0.17188 0.15625 0.09375-0.15625-0.09375q-0.15625-0.09375-0.40625-0.09375h-0.25 0.75-0.5q-0.5 0-0.875-0.125t-0.625-0.375-0.5-0.5-0.375-0.625l-0.125-0.375 0.1875 0.5625-0.0625-0.1875q-0.0625-0.1875-0.21875-0.28125l-0.15625-0.09375 0.15626 0.09375 0.04687-0.54688q0.04687-0.54688 0.17187-0.92188t0.375-0.625 0.5-0.5m0.25 1q0 0.25 0.25 0.25t0.25-0.25-0.25-0.25-0.25 0.25m0 2q0 0.25 0.25 0.25t0.25-0.25-0.25-0.25-0.25 0.25m2-2q0 0.25 0.25 0.25t0.25-0.25-0.25-0.25-0.25 0.25m0 2q0 0.25 0.25 0.25t0.25-0.25-0.25-0.25-0.25 0.25" fill="#cec7bd"/>
   <path d="m4.25 4.5q0-0.25 0.25-0.25t0.25 0.25-0.25 0.25-0.25-0.25" fill="#a5553c"/>
   <path d="m6.25 4.5q0-0.25 0.25-0.25t0.25 0.25-0.25 0.25-0.25-0.25" fill="#a5553c"/>
   <path d="m9.25 4.5q0-0.25 0.25-0.25t0.25 0.25-0.25 0.25-0.25-0.25" fill="#bdbcb8"/>
   <path d="m11.25 4.5q0-0.25 0.25-0.25t0.25 0.25-0.25 0.25-0.25-0.25" fill="#e8c17c"/>
   <path d="m13.25 4.5q0-0.25 0.25-0.25t0.25 0.25-0.25 0.25-0.25-0.25" fill="#ede1ed"/>
  </g>
  <g fill="#a5553c">
   <path d="m16.25 4.5q0-0.25 0.25-0.25t0.25 0.25-0.25 0.25-0.25-0.25"/>
   <path d="m18.25 4.5q0-0.25 0.25-0.25t0.25 0.25-0.25 0.25-0.25-0.25"/>
   <path d="m2.125 5.625q0.125-0.375 0.5-0.5l0.375-0.125-0.5625 0.1875 0.1875-0.0625q0.1875-0.0625 0.3125-0.1875l0.125-0.125-0.125 0.125 0.03125 0.53125q0.03125 0.53125 0.15625 0.90625t0.375 0.625 0.5 0.5 0.67188 0.42188l0.42188 0.17188 0.15625-0.09375-0.15625 0.09375q-0.15625 0.09375-0.21875 0.28125l-0.0625 0.1875 0.1875-0.5625-0.125 0.375q-0.125 0.375-0.375 0.625t-0.5 0.5-0.625 0.375-0.75 0.25-0.625 0.375-0.5 0.25-0.375-0.375-0.125-0.875 0-1 0.125-0.875 0.375-0.625 0.375-0.625 0.25-0.75"/>
   <path d="m20.031 5.4688 0.03125-0.53125-0.125-0.125 0.125 0.125q0.125 0.125 0.3125 0.1875l0.1875 0.0625-0.5625-0.1875 0.375 0.125q0.375 0.125 0.5 0.5t0.25 0.75 0.375 0.625 0.375 0.625 0.125 0.875 0 1-0.125 0.875-0.375 0.375-0.5-0.25-0.625-0.375-0.75-0.25-0.625-0.375-0.5-0.5-0.375-0.625l-0.125-0.375 0.1875 0.5625-0.0625-0.1875q-0.0625-0.1875-0.21875-0.28125l-0.15625-0.09375 0.15625 0.09375 0.42188-0.17188q0.42188-0.17188 0.67188-0.42188t0.5-0.5 0.375-0.625 0.15625-0.90625"/>
   <path d="m4.25 6.5q0-0.25 0.25-0.25t0.25 0.25-0.25 0.25-0.25-0.25"/>
   <path d="m6.25 6.5q0-0.25 0.25-0.25t0.25 0.25-0.25 0.25-0.25-0.25"/>
   <path d="m16.25 6.5q0-0.25 0.25-0.25t0.25 0.25-0.25 0.25-0.25-0.25"/>
   <path d="m18.25 6.5q0-0.25 0.25-0.25t0.25 0.25-0.25 0.25-0.25-0.25"/>
  </g>
  <g>
   <path d="m8.25 7.5q0-0.25 0.375-0.375l0.375-0.125-0.5625 0.1875 0.1875-0.0625q0.1875-0.0625 0.40625-0.09375l0.21875-0.03125-0.21875 0.03125v0.9375l0.21875 0.03125-0.21875-0.03125q-0.21875-0.03125-0.40625-0.09375l-0.1875-0.0625 0.5625 0.1875-0.375-0.125q-0.375-0.125-0.375-0.375" fill="#835758"/>
   <path d="m9.0312 7.5v-0.46875l-0.21875 0.03125 0.21875-0.03125q0.21875-0.03125 0.46875-0.03125h0.25-0.75 1v1h-1 0.75-0.25q-0.25 0-0.46875-0.03125l-0.21875-0.03125 0.21875 0.03125v-0.46875m0.59375 0.5h0.625-0.25q-0.25 0-0.5 0h-0.25 0.375m0.5-1h-0.875 0.25q0.25 0 0.5 0h0.25-0.125" fill="#c0c9ce"/>
   <path d="m10 7.5v-0.5h1v1h-1v-0.5m-0.125 0.5h0.875-0.25q-0.25 0-0.5 0h-0.25 0.125m0.75 0h0.625-0.25q-0.25 0-0.5 0h-0.25 0.375m0.5-1h-0.875 0.25q0.25 0 0.5 0h0.25-0.125m-0.75 0h-0.625 0.25q0.25 0 0.5 0h0.25-0.375" fill="#835758"/>
   <path d="m11 7.5v-0.5h1v1h-1v-0.5m-0.125 0.5h0.875-0.25q-0.25 0-0.5 0h-0.25 0.125m0.75 0h0.625-0.25q-0.25 0-0.5 0h-0.25 0.375m0.5-1h-0.875 0.25q0.25 0 0.5 0h0.25-0.125m-0.75 0h-0.625 0.25q0.25 0 0.5 0h0.25-0.375" fill="#c0c9ce"/>
   <path d="m12 7.5v-0.5h1v1h-1v-0.5m-0.125 0.5h0.875-0.25q-0.25 0-0.5 0h-0.25 0.125m0.75 0h0.625-0.25q-0.25 0-0.5 0h-0.25 0.375m0.5-1h-0.875 0.25q0.25 0 0.5 0h0.25-0.125m-0.75 0h-0.625 0.25q0.25 0 0.5 0h0.25-0.375" fill="#835758"/>
   <path d="m13 7.5v-0.5h1-0.75 0.25q0.25 0 0.46875 0.03125l0.21875 0.03125-0.21875-0.03125v0.9375l0.21875-0.03125-0.21875 0.03125q-0.21875 0.03125-0.46875 0.03125h-0.25 0.75-1v-0.5m-0.125 0.5h0.875-0.25q-0.25 0-0.5 0h-0.25 0.125m0.5-1h-0.625 0.25q0.25 0 0.5 0h0.25-0.375" fill="#c0c9ce"/>
   <path d="m13.969 7.5v-0.46875l-0.21875-0.03125 0.21875 0.03125q0.21875 0.03125 0.40625 0.09375l0.1875 0.0625-0.5625-0.1875 0.375 0.125q0.375 0.125 0.375 0.375t-0.375 0.375l-0.375 0.125 0.5625-0.1875-0.1875 0.0625q-0.1875 0.0625-0.40625 0.09375l-0.21875 0.03125 0.21875-0.03125v-0.46875" fill="#835758"/>
   <path d="m5.125 9.625q0.125-0.375 0.5625-0.4375l0.4375-0.0625 0.125-0.125-0.125 0.125q-0.125 0.125-0.125 0.375v0.25-0.75 1-0.75 0.25q0 0.25 0.125 0.375l0.125 0.125-0.125-0.125-0.0625 0.5625q-0.0625 0.5625-0.0625 1.0625t-0.015625 1.0156l-0.015625 0.51562 0.21875 0.03125-0.21875-0.03125q-0.21875-0.03125-0.46875-0.03125h-0.25 0.75l-1.125-0.125-0.125 0.125 0.125-0.125q0.125-0.125 0.125-0.375v-0.25 0.75l-0.125-0.375q-0.125-0.375-0.5-0.5l-0.375-0.125h0.75-0.25q-0.25 0-0.375 0.125l-0.125 0.125 0.125-0.125 0.0625-0.4375q0.0625-0.4375 0.3125-0.6875t0.375-0.625 0.25-0.75" fill="#28166f"/>
   <path d="m6 9.5q0-0.5 0.375-0.375t0.375 0.375-0.375 0.375-0.375-0.375" fill="#fff"/>
   <path d="m10.25 9.5q0-0.25 0.375-0.375t0.875-0.125 0.875 0.125 0.375 0.375-0.4375 0.4375l-0.4375 0.1875 0.125 0.125-0.125-0.125q-0.125-0.125-0.375-0.125h-0.25 0.75-1 0.75-0.25q-0.25 0-0.375 0.125l-0.125 0.125 0.125-0.125-0.4375-0.1875q-0.4375-0.1875-0.4375-0.4375" fill="#00923f"/>
   <path d="m16.25 9.5q0-0.25 0.375-0.375t0.75 0 0.45312 0.54688l0.07813 0.42188 0.15626 0.09374-0.15625-0.09375q-0.15626-0.09374-0.40626-0.09374h-0.25 0.75-1 0.75-0.25q-0.25 0-0.375 0.125l-0.125 0.125 0.125-0.125-0.4375-0.1875q-0.4375-0.1875-0.4375-0.4375" fill="#00923f"/>
   <path d="m7.125 10.625q0.125-0.375 0.5-0.5t0.875-0.125 0.875 0.125 0.5 0.5 0.125 0.875-0.125 0.875-0.5 0.5-0.875 0.125-0.875-0.125-0.5-0.5-0.125-0.875 0.125-0.875" fill="#fff"/>
   <path d="m11 10.5q0-0.5 0.5-0.5t0.5 0.5 0 1 0 1-0.5 0.5-0.5-0.5 0-1 0-1" fill="#f8c300"/>
   <path d="m13.125 10.625q0.125-0.375 0.5-0.5t0.875-0.125 0.875 0.125 0.5 0.5 0.125 0.875-0.125 0.875-0.5 0.5-0.875 0.125-0.875-0.125-0.5-0.5-0.125-0.875 0.125-0.875" fill="#fff"/>
   <path d="m17 10.5q0-0.5 0.5-0.5t0.625 0.375 0.375 0.625 0.375 0.625 0.125 0.875-0.5 0.5-1 0-0.5-0.5 0-1 0-1" fill="#f8c300"/>
  </g>
  <path d="m2.125 11.625q0.125-0.375 0.5-0.5t0.375 0.375 0 1 0 1 0 1 0.375 0.625 0.5 0.5 0.125 0.875 0.5 0.5 0.5 0.5 0.5 0.5 0.875 0.125 0.5 0.5 0.625 0.375 0.5 0.5v0.5h-8v-4h0.5q0.5 0 0.5-0.5t0-1 0-1 0-1 0.5-0.5 0.625-0.375" fill-opacity="0"/>
  <path d="m20 11.5q0-0.5 0.375-0.375t0.5 0.5 0.625 0.375 0.5 0.5 0 1 0 1 0 1 0.5 0.5h0.5v4h-8v-0.5q0-0.5 0.5-0.5t0.625-0.375 0.5-0.5 0.875-0.125 0.5-0.5 0.5-0.5 0.5-0.5 0.125-0.875 0.5-0.5 0.375-0.625 0-1 0-1 0-1" fill-opacity="0"/>
  <g>
   <path d="m4 12.5q0-0.5 0.375-0.375t0.5 0.5-0.375 0.375-0.5-0.5" fill="#fff"/>
   <path d="m4.0625 13.438 0.0625-0.5625-0.125-0.125 0.125 0.125q0.125 0.125 0.375 0.125h0.25-0.75 1-0.75 0.25q0.25 0 0.375-0.125l0.125-0.125-0.125 0.125 0.5625 0.0625q0.5625 0.0625 0.9375 0.1875t0.625 0.375 0.625 0.375 0.875 0.125 0.875-0.125 0.625-0.375 0.6875-0.4375l0.4375-0.1875-0.125-0.125 0.125 0.125q0.125 0.125 0.375 0.125h0.25-0.75 1-0.75 0.25q0.25 0 0.375-0.125l0.125-0.125-0.125 0.125 0.4375 0.1875q0.4375 0.1875 0.6875 0.4375t0.625 0.375 0.875 0.125 0.875-0.125 0.625-0.375 0.6875-0.4375l0.4375-0.1875-0.125-0.125 0.125 0.125q0.125 0.125 0.375 0.125h0.25-0.75 0.5q0.5 0 1 0h0.5-0.75 0.25q0.25 0 0.375-0.125l0.125-0.125-0.125 0.125 0.0625 0.5625q0.0625 0.5625-0.0625 0.9375t-0.375 0.625-0.5 0.5-0.6875 0.4375l-0.4375 0.1875 0.125 0.125-0.125-0.125q-0.125-0.125-0.375-0.125h-0.25 0.75-0.5q-0.5 0-1 0t-1 0-1 0-1 0-1 0-1 0-1 0-1 0-1 0-1 0h-0.5 0.75-0.25q-0.25 0-0.375 0.125l-0.125 0.125 0.125-0.125-0.4375-0.1875q-0.4375-0.1875-0.6875-0.4375t-0.5-0.5-0.375-0.625-0.0625-0.9375" fill="#00923f"/>
   <path d="m6.125 16.375q-0.125-0.375 0.375-0.375t1 0 1 0 1 0 1 0 1 0 1 0 1 0 1 0 1 0 1 0 0.375 0.375-0.375 0.625-0.5 0.5-0.625 0.375-0.75 0.25-0.625 0.375-0.625 0.375-0.875 0.125-1 0-1 0-0.875-0.125-0.625-0.375-0.625-0.375-0.75-0.25-0.625-0.375-0.5-0.5-0.375-0.625" fill="#f8c300"/>
  </g>
 </g>
</svg>
