<svg width="17" height="14" version="1.1" viewBox="0 0 17 14" xmlns="http://www.w3.org/2000/svg">
 <g transform="translate(0)">
  <path d="m0 0.5v-0.5h5l-0.125 0.375q-0.125 0.375-0.5 0.5t-0.5 0.5-0.5 0.5-0.875 0.125-0.5 0.5v0.5h-0.5q-0.5 0-0.5 0.5t0 1v0.5h-1v-4.5" fill-opacity="0"/>
  <path d="m4.875 0.375 0.125-0.375h7v1h-0.5q-0.5 0-1 0t-1 0-0.875-0.125-0.65625 0.15625l-0.28125 0.28125 0.125 0.125-0.125-0.125q-0.125-0.125-0.3125-0.1875l-0.1875-0.0625 0.5625 0.1875-0.75-0.25h0.75-0.25q-0.25 0-0.375 0.125l-0.125 0.125 0.125-0.125-0.5625-0.0625q-0.5625-0.0625-0.9375 0.0625t-0.48438 0.51562l-0.10938 0.39062 0.21875-0.03125-0.21875 0.03125q-0.21875 0.03125-0.40625 0.09375l-0.1875 0.0625 0.5625-0.1875-0.375 0.125q-0.375 0.125-0.375 0.375t0.375 0.375 0.9375 0.0625l0.5625-0.0625-0.125-0.125 0.125 0.125q0.125 0.125 0.375 0.125h0.25-0.75 1-0.75 0.25q0.25 0 0.375-0.125l0.125-0.125-0.125 0.125 0.1875 0.4375q0.1875 0.4375 0.4375 0.4375h0.25-0.375 0.125q0.125 0 0.21875-0.09375l0.09375-0.09375-0.09375 0.09375 0.59375 0.65625 0.0625-0.0625-0.0625 0.0625q-0.0625 0.0625-0.0625 0.1875v0.125-0.375 0.5-0.375 0.125q0 0.125 0.0625 0.1875l0.0625 0.0625-0.0625-0.0625-0.28125 0.28125q-0.28125 0.28125-0.28125 0.53125t0.28125 0.53125l0.28125 0.28125 0.0625-0.0625-0.0625 0.0625q-0.0625 0.0625-0.0625 0.1875v0.125-0.375 0.5-0.375 0.125q0 0.125 0.0625 0.1875l0.0625 0.0625-0.0625-0.0625-0.28125 0.28125q-0.28125 0.28125-0.53125 0.28125t-0.375 0.375l-0.125 0.375h-0.5q-0.5 0-1 0t-1 0h-0.5l-0.125-0.375q-0.125-0.375-0.375-0.375t-0.53125-0.28125l-0.28125-0.28125-0.125 0.125 0.125-0.125q0.125-0.125 0.1875-0.3125l0.0625-0.1875-0.1875 0.5625 0.125-0.375q0.125-0.375 0.125-0.875v-0.5 0.75-0.25q0-0.25-0.125-0.375l-0.125-0.125 0.125 0.125-0.125-0.875 0.1875 0.5625-0.0625-0.1875q-0.0625-0.1875-0.15625-0.28125l-0.09375-0.09375 0.09375 0.09375 0.59375-0.65625-0.0625-0.0625 0.0625 0.0625q0.0625 0.0625 0.1875 0.0625h0.125-0.375 0.25q0.25 0 0.25-0.25t-0.25-0.25h-0.25 0.375-0.125q-0.125 0-0.1875 0.0625l-0.0625 0.0625 0.0625-0.0625-0.28125-0.28125q-0.28125-0.28125-0.65625-0.15625l-0.375 0.125v-0.5q0-0.5 0.5-0.5t0.875-0.125 0.5-0.5 0.5-0.5 0.5-0.5m0.625 6.625q0.5 0 0.875-0.125t0.5-0.5 0.125-0.875-0.125-0.875-0.5-0.5-0.875-0.125-0.875 0.125-0.5 0.5-0.125 0.875 0.125 0.875 0.5 0.5 0.875 0.125"/>
  <path d="m12 0.5v-0.5h5v5h-1v-0.5q0-0.5 0-1t-0.5-0.5h-0.5v-0.5q0-0.5-0.5-0.5t-0.875-0.125-0.5-0.5-0.625-0.375h-0.5v-0.5" fill-opacity="0"/>
  <g>
   <path d="m5.1406 1.6406q0.10938-0.39062 0.48438-0.51562t0.9375-0.0625l0.5625 0.0625 0.125-0.125-0.125 0.125q-0.125 0.125-0.125 0.375v0.25-0.75l0.125 0.375q0.125 0.375 0.5 0.5l0.375 0.125v1-0.75 0.25q0 0.25 0.125 0.375l0.125 0.125-0.125-0.125-0.1875 0.4375q-0.1875 0.4375-0.4375 0.4375t-0.4375-0.4375l-0.1875-0.4375-0.125 0.125 0.125-0.125q0.125-0.125 0.125-0.375v-0.25 0.75l-0.125-0.375q-0.125-0.375-0.5-0.5l-0.375-0.125h0.75-0.25q-0.25 0-0.375 0.125l-0.125 0.125 0.125-0.125-1.125-0.125h0.75-0.25q-0.25 0-0.46875 0.03125l-0.21875 0.03125 0.21875-0.03125 0.10938-0.39062" fill="#da251d"/>
   <path d="m7.125 1.375q-0.125-0.375 0.25-0.25t0.5 0.5l0.125 0.375-0.375-0.125q-0.375-0.125-0.5-0.5" fill="#fff500"/>
   <path d="m7.875 1.625-0.125-0.375 0.1875 0.5625-0.0625-0.1875q-0.0625-0.1875-0.1875-0.3125l-0.125-0.125 0.125 0.125 0.28125-0.28125q0.28125-0.28125 0.65625-0.15625t0.875 0.125 1 0 1 0h0.5v1h-0.5q-0.5 0-1 0t-1 0-1 0h-0.5l-0.125-0.375" fill="#1f1a17"/>
   <path d="m12 1.5v-0.5h0.5q0.5 0 0.625 0.375t0.5 0.5 0.875 0.125 0.5 0.5v0.5h-0.5q-0.5 0-0.875 0.125t-0.375 0.375 0.25 0.25 0.53125 0.28125l0.28125 0.28125 0.0625-0.0625-0.0625 0.0625q-0.0625 0.0625-0.0625 0.1875v0.125-0.375 0.5-0.375 0.125q0 0.125 0.0625 0.1875l0.0625 0.0625-0.0625-0.0625-0.28125 0.28125q-0.28125 0.28125-0.28125 0.53125t0.29688 0.51562l0.29688 0.26562 0.09375-0.09375-0.09375 0.09375q-0.09375 0.09375-0.09375 0.21875v0.125-0.375 0.5-0.375 0.125q0 0.125 0.09375 0.21875l0.09375 0.09375-0.09375-0.09375-0.29688 0.26562q-0.29688 0.26562-0.54688 0.26562t-0.375 0.375l-0.125 0.375h-0.5q-0.5 0-1 0t-1 0h-0.5l-0.125-0.375q-0.125-0.375-0.375-0.375t-0.53125-0.28125l-0.28125-0.28125-0.0625 0.0625 0.0625-0.0625q0.0625-0.0625 0.0625-0.1875v-0.125 0.375-0.5 0.375-0.125q0-0.125-0.0625-0.1875l-0.0625-0.0625 0.0625 0.0625 0.28125-0.28125q0.28125-0.28125 0.28125-0.53125t-0.28125-0.53125l-0.28125-0.28125-0.0625 0.0625 0.0625-0.0625q0.0625-0.0625 0.0625-0.1875v-0.125 0.375-0.5 0.375-0.125q0-0.125-0.0625-0.1875l-0.0625-0.0625 0.0625 0.0625 0.28125-0.28125q0.28125-0.28125 0.53125-0.28125t0.375-0.375l0.125-0.375h0.5q0.5 0 1 0t0.875-0.125 0.375-0.375-0.375-0.375l-0.375-0.125v-0.5m-0.5 5.5q0.5 0 0.875-0.125t0.5-0.5 0.125-0.875-0.125-0.875-0.5-0.5-0.875-0.125-0.875 0.125-0.5 0.5-0.125 0.875 0.125 0.875 0.5 0.5 0.875 0.125"/>
   <path d="m4.25 2.5q0-0.25 0.375-0.375t0.9375-0.0625l0.5625 0.0625 0.125-0.125-0.125 0.125q-0.125 0.125-0.125 0.375v0.25-0.75 1-0.75 0.25q0 0.25 0.125 0.375l0.125 0.125-0.125-0.125-0.5625 0.0625q-0.5625 0.0625-0.9375-0.0625t-0.375-0.375" fill="#3f3272"/>
   <path d="m6 2.5q0-0.5 0.375-0.375t0.5 0.5-0.375 0.375-0.5-0.5" fill="#fff"/>
   <path d="m8 2.5v-0.5h0.5q0.5 0 1 0t1 0 1 0h0.5l0.375 0.125q0.375 0.125 0.375 0.375t-0.375 0.375-0.875 0.125-1 0h-1q-0.5 0-1 0t-0.5-0.5" fill="#fff"/>
   <path d="m1 3.5q0-0.5 0.5-0.5h0.5l-0.125 0.375q-0.125 0.375 0.14062 0.67188l0.26562 0.29688 0.09375-0.09375-0.09375 0.09375q-0.09375 0.09375-0.15625 0.28125l-0.0625 0.1875 0.1875-0.5625-0.125 0.875-1.125-0.125v-0.5q0-0.5 0-1"/>
   <path d="m1.875 3.375 0.125-0.375 0.375-0.125q0.375-0.125 0.65625 0.15625l0.28125 0.28125 0.0625-0.0625-0.0625 0.0625q-0.0625 0.0625-0.0625 0.1875v0.125-0.375 0.5-0.375 0.125q0 0.125 0.0625 0.1875l0.0625 0.0625-0.0625-0.0625-0.59375 0.65625 0.09375 0.09375-0.09375-0.09375q-0.09375-0.09375-0.21875-0.09375h-0.125 0.375-0.5 0.375-0.125q-0.125 0-0.21875 0.09375l-0.09375 0.09375 0.09375-0.09375-0.26562-0.29688q-0.26562-0.29688-0.14062-0.67188" fill="#1f1a17"/>
   <path d="m3.25 3.5q0-0.25 0.25-0.25t0.25 0.25-0.25 0.25-0.25-0.25" fill="#fff"/>
   <path d="m7.9375 3.3125 0.1875-0.4375-0.125-0.125 0.125 0.125q0.125 0.125 0.375 0.125h0.25-0.75 0.5q0.5 0 1 0h0.5l-0.125 0.375q-0.125 0.375-0.375 0.375t-0.53125 0.28125l-0.28125 0.28125 0.0625 0.0625-0.0625-0.0625q-0.0625-0.0625-0.1875-0.0625h-0.125 0.375-0.5 0.375-0.125q-0.125 0-0.1875 0.0625l-0.0625 0.0625 0.0625-0.0625-0.59375-0.65625-0.09375 0.09375 0.09375-0.09375q0.09375-0.09375 0.15625-0.28125l0.0625-0.1875-0.1875 0.5625 0.1875-0.4375" fill="#1f1a17"/>
   <path d="m13.25 3.5q0-0.25 0.375-0.375t0.875-0.125h0.5l0.125 0.375q0.125 0.375-0.15625 0.65625l-0.28125 0.28125 0.0625 0.0625-0.0625-0.0625q-0.0625-0.0625-0.1875-0.0625h-0.125 0.375-0.5 0.375-0.125q-0.125 0-0.1875 0.0625l-0.0625 0.0625 0.0625-0.0625-0.28125-0.28125q-0.28125-0.28125-0.53125-0.28125t-0.25-0.25" fill="#1f1a17"/>
   <path d="m15.125 3.375-0.125-0.375h0.5q0.5 0 0.5 0.5t0 1v0.5l-0.375 0.125q-0.375 0.125-0.65625-0.15625l-0.28125-0.28125-0.0625 0.0625 0.0625-0.0625q0.0625-0.0625 0.0625-0.1875v-0.125 0.375-0.5 0.375-0.125q0-0.125-0.0625-0.1875l-0.0625-0.0625 0.0625 0.0625 0.28125-0.28125q0.28125-0.28125 0.15625-0.65625"/>
   <path d="m2.1875 4.6875q0.0625-0.4375 0.3125-0.4375t0.3125 0.4375l0.0625 0.4375 0.125 0.125-0.125-0.125q-0.125-0.125-0.375-0.125h-0.25 0.75-1 0.75-0.25q-0.25 0-0.375 0.125l-0.125 0.125 0.125-0.125 0.0625-0.4375" fill="#da251d"/>
  </g>
  <g fill="#fff">
   <path d="m4.125 4.625q0.125-0.375 0.5-0.5t0.875-0.125 0.875 0.125 0.5 0.5 0.125 0.875-0.125 0.875-0.5 0.5-0.875 0.125-0.875-0.125-0.5-0.5-0.125-0.875 0.125-0.875"/>
   <path d="m8.25 4.5q0-0.25 0.25-0.25t0.25 0.25-0.25 0.25-0.25-0.25"/>
   <path d="m10.125 4.625q0.125-0.375 0.5-0.5t0.875-0.125 0.875 0.125 0.5 0.5 0.125 0.875-0.125 0.875-0.5 0.5-0.875 0.125-0.875-0.125-0.5-0.5-0.125-0.875 0.125-0.875"/>
   <path d="m14.25 4.5q0-0.25 0.25-0.25t0.25 0.25-0.25 0.25-0.25-0.25"/>
  </g>
  <g>
   <path d="m0 5.5v-0.5h1l-0.125 0.375q-0.125 0.375 0.17188 0.64062l0.29688 0.26562 0.09375-0.09375-0.09375 0.09375q-0.09375 0.09375-0.09375 0.21875v0.125-0.375 0.5-0.375 0.125q0 0.125 0.09375 0.21875l0.09375 0.09375-0.09375-0.09375-0.29688 0.26562q-0.29688 0.26562-0.29688 0.51562t0.29688 0.51562l0.29688 0.26562 0.09375-0.09375-0.09375 0.09375q-0.09375 0.09375-0.09375 0.21875v0.125-0.375 0.25q0 0.25 0.375 0.375l0.375 0.125v0.5q0 0.5 0.375 0.375t0.67188 0.14062l0.29688 0.26562 0.09375-0.09375-0.09375 0.09375q-0.09375 0.09375-0.09375 0.21875v0.125-0.375 0.25q0 0.25 0.375 0.375l0.375 0.125v1h-0.5q-0.5 0-1 0t-0.5-0.5-0.5-0.5-0.5-0.5-0.125-0.875-0.5-0.5l-0.375-0.125v-3.5"/>
   <path d="m0.875 5.375 0.125-0.375 1.125 0.125 0.125-0.125-0.125 0.125q-0.125 0.125-0.125 0.375v0.25-0.75l0.03125 1.0312 0.21875-0.03125-0.21875 0.03125q-0.21875 0.03125-0.40625 0.09375l-0.1875 0.0625 0.5625-0.1875-0.75 0.25 0.5625-0.1875-0.1875 0.0625q-0.1875 0.0625-0.28125 0.15625l-0.09375 0.09375 0.09375-0.09375-0.29688-0.26562q-0.29688-0.26562-0.17188-0.64062" fill="#1f1a17"/>
   <path d="m2.0156 5.5156q-0.015625-0.51562 0.48438-0.51562t0.5 0.5v0.5-0.75 0.25q0 0.25-0.03125 0.46875l-0.03125 0.21875 0.03125-0.21875-0.96875 0.03125h0.75-0.25q-0.25 0-0.46875 0.03125l-0.21875 0.03125 0.21875-0.03125-0.015625-0.51562" fill="#fff500"/>
   <path d="m7.75 5.5q0-0.25 0.28125-0.53125l0.28125-0.28125-0.0625-0.0625 0.0625 0.0625q0.0625 0.0625 0.1875 0.0625h0.125-0.375 0.5-0.375 0.125q0.125 0 0.1875-0.0625l0.0625-0.0625-0.0625 0.0625 0.28125 0.28125q0.28125 0.28125 0.28125 0.53125t-0.28125 0.53125l-0.28125 0.28125 0.0625 0.0625-0.0625-0.0625q-0.0625-0.0625-0.1875-0.0625h-0.125 0.375-0.5 0.375-0.125q-0.125 0-0.1875 0.0625l-0.0625 0.0625 0.0625-0.0625-0.28125-0.28125q-0.28125-0.28125-0.28125-0.53125" fill="#1f1a17"/>
   <path d="m13.75 5.5q0-0.25 0.28125-0.53125l0.28125-0.28125-0.0625-0.0625 0.0625 0.0625q0.0625 0.0625 0.1875 0.0625h0.125-0.375 0.5-0.375 0.125q0.125 0 0.1875-0.0625l0.0625-0.0625-0.0625 0.0625 0.28125 0.28125q0.28125 0.28125 0.65625 0.15625l0.375-0.125 0.125 0.375q0.125 0.375-0.17188 0.64062l-0.29688 0.26562 0.09375 0.09375-0.09375-0.09375q-0.09375-0.09375-0.28125-0.15625l-0.1875-0.0625 0.5625 0.1875-0.375-0.125q-0.375-0.125-0.75 0l-0.375 0.125 0.5625-0.1875-0.1875 0.0625q-0.1875 0.0625-0.28125 0.15625l-0.09375 0.09375 0.09375-0.09375-0.29688-0.26562q-0.29688-0.26562-0.29688-0.51562" fill="#1f1a17"/>
   <path d="m16.125 5.375-0.125-0.375h1v4l-0.375 0.125q-0.375 0.125-0.5 0.5t-0.125 0.875-0.5 0.5-0.5 0.5-0.5 0.5-1 0h-0.5v-1l0.375-0.125q0.375-0.125 0.375-0.375v-0.25 0.375-0.125q0-0.125-0.09375-0.21875l-0.09375-0.09375 0.09374 0.09374 0.29688-0.26562q0.29688-0.26562 0.67188-0.14062t0.375-0.375v-0.5l0.375-0.125q0.375-0.125 0.375-0.375v-0.25 0.375-0.125q0-0.125-0.09375-0.21875l-0.09375-0.09375 0.09375 0.09375 0.29688-0.26562q0.29688-0.26562 0.29688-0.51562t-0.29688-0.51562l-0.29688-0.26562-0.09375 0.09375 0.09375-0.09375q0.09375-0.09375 0.09375-0.21875v-0.125 0.375-0.5 0.375-0.125q0-0.125-0.09375-0.21875l-0.09375-0.09375 0.09375 0.09375 0.29688-0.26562q0.29688-0.26562 0.17188-0.64062"/>
  </g>
  <g fill="#fff">
   <path d="m1.25 6.5q0-0.25 0.375-0.375t0.85938-0.14062l0.48438-0.015625 0.03125-0.21875-0.03125 0.21875q-0.03125 0.21875-0.09375 0.40625l-0.0625 0.1875 0.1875-0.5625-0.125 0.375q-0.125 0.375-0.5 0.5t-0.75 0-0.375-0.375"/>
   <path d="m8.25 6.5q0-0.25 0.25-0.25t0.25 0.25-0.25 0.25-0.25-0.25"/>
   <path d="m14.25 6.5q0-0.25 0.375-0.375t0.75 0 0.375 0.375-0.375 0.375-0.75 0-0.375-0.375"/>
  </g>
  <g fill="#1f1a17">
   <path d="m0.75 7.5q0-0.25 0.29688-0.51562l0.29688-0.26562-0.09375-0.09375 0.09375 0.09375q0.09375 0.09375 0.28125 0.15625l0.1875 0.0625-0.5625-0.1875 0.375 0.125q0.375 0.125 0.75 0l0.375-0.125-0.5625 0.1875 0.1875-0.0625q0.1875-0.0625 0.3125-0.1875l0.125-0.125-0.125 0.125 0.28125 0.28125q0.28125 0.28125 0.53125 0.28125t0.375 0.375l0.125 0.375h-0.5q-0.5 0-1 0t-0.875 0.125l-0.375 0.125 0.5625-0.1875-0.1875 0.0625q-0.1875 0.0625-0.28125 0.15625l-0.09375 0.09375 0.09375-0.09375-0.29688-0.26562q-0.29688-0.26562-0.29688-0.51562"/>
   <path d="m7.125 7.625q0.125-0.375 0.375-0.375t0.53125-0.28125l0.28125-0.28125-0.0625-0.0625 0.0625 0.0625q0.0625 0.0625 0.1875 0.0625h0.125-0.375 0.5-0.375 0.125q0.125 0 0.1875-0.0625l0.0625-0.0625-0.0625 0.0625 0.28125 0.28125q0.28125 0.28125 0.53125 0.28125t0.375 0.375l0.125 0.375h-0.5q-0.5 0-1 0t-1 0h-0.5l0.125-0.375"/>
   <path d="m13.125 7.625q0.125-0.375 0.375-0.375t0.54688-0.26562l0.29688-0.26562-0.09375-0.09375 0.09375 0.09375q0.09375 0.09375 0.28125 0.15625l0.1875 0.0625-0.5625-0.1875 0.375 0.125q0.375 0.125 0.75 0l0.375-0.125-0.5625 0.1875 0.1875-0.0625q0.1875-0.0625 0.28125-0.15625l0.09375-0.09375-0.09375 0.09375 0.29688 0.26562q0.29688 0.26562 0.29688 0.51562t-0.29688 0.51562l-0.29688 0.26562 0.09375 0.09375-0.09375-0.09375q-0.09375-0.09375-0.28125-0.15625l-0.1875-0.0625 0.5625 0.1875-0.375-0.125q-0.375-0.125-0.875-0.125t-1 0h-0.5l0.125-0.375"/>
  </g>
  <path d="m1.25 8.5q0-0.25 0.375-0.375t0.875-0.125 1 0h1q0.5 0 1 0t1 0h1q0.5 0 1 0t1 0h1q0.5 0 1 0t1 0h1q0.5 0 1 0t0.875 0.125 0.375 0.375-0.375 0.375l-0.375 0.125h-0.5q-0.5 0-1 0t-1 0-1 0-1 0-1 0-1 0-1 0-1 0-1 0-1 0-1 0-1 0h-0.5l-0.375-0.125q-0.375-0.125-0.375-0.375" fill="#fff"/>
  <path d="m0 9.5v-0.5l0.375 0.125q0.375 0.125 0.5 0.5t0.125 0.875 0.5 0.5 0.5 0.5 0.5 0.5 1 0h0.5v0.5q0 0.5 0.5 0.5t0.5 0.5v0.5h-5v-4.5" fill-opacity="0"/>
  <path d="m2 9.5v-0.5h0.5q0.5 0 1 0t1 0 1 0 1 0 1 0 1 0 1 0 1 0 1 0 1 0 1 0 1 0h0.5v0.5q0 0.5-0.375 0.375t-0.67188 0.14062l-0.29688 0.26562 0.09375 0.09375-0.09375-0.09375q-0.09375-0.09375-0.28125-0.15625l-0.1875-0.0625 0.5625 0.1875-0.375-0.125q-0.375-0.125-0.875-0.125t-1 0-1 0-1 0-1 0-1 0-1 0-1 0-1 0-0.875 0.125l-0.375 0.125 0.5625-0.1875-0.1875 0.0625q-0.1875 0.0625-0.28125 0.15625l-0.09375 0.09375 0.09375-0.09375-0.29688-0.26562q-0.29688-0.26562-0.67188-0.14062t-0.375-0.375" fill="#1f1a17"/>
  <path d="m16.125 9.625q0.125-0.375 0.5-0.5l0.375-0.125v5h-5v-0.5q0-0.5 0.5-0.5t0.5-0.5v-0.5h0.5q0.5 0 1 0t0.5-0.5 0.5-0.5 0.5-0.5 0.125-0.875" fill-opacity="0"/>
  <g>
   <path d="m3.25 10.5q0-0.25 0.375-0.375t0.875-0.125 1 0 1 0 1 0 1 0 1 0 1 0 1 0 1 0 0.875 0.125 0.375 0.375-0.375 0.375l-0.375 0.125h-0.5q-0.5 0-1 0t-1 0-1 0-1 0-1 0-1 0-1 0-1 0h-0.5l-0.375-0.125q-0.375-0.125-0.375-0.375" fill="#fff"/>
   <path d="m4 11.5v-0.5h0.5q0.5 0 1 0t1 0 1 0 1 0 1 0 1 0 1 0 1 0h0.5v1h-0.5q-0.5 0-0.875-0.125t-0.67188 0.14062l-0.29688 0.26562 0.09375 0.09375-0.09375-0.09375q-0.09375-0.09375-0.28125-0.15625l-0.1875-0.0625 0.5625 0.1875-0.375-0.125q-0.375-0.125-0.875-0.125t-1 0-1 0-0.875 0.125l-0.375 0.125 0.5625-0.1875-0.1875 0.0625q-0.1875 0.0625-0.28125 0.15625l-0.09375 0.09375 0.09375-0.09375-0.29688-0.26562q-0.29688-0.26562-0.67188-0.14062t-0.875 0.125h-0.5v-0.5" fill="#1f1a17"/>
   <path d="m4 12.5v-0.5h0.5q0.5 0 0.875-0.125t0.67188 0.14062l0.29688 0.26562 0.09375-0.09375-0.09375 0.09375q-0.09375 0.09375-0.09375 0.21875v0.125-0.375 0.25q0 0.25 0.375 0.375t0.875 0.125 1 0 1 0 0.875-0.125 0.375-0.375v-0.25 0.375-0.125q0-0.125-0.09375-0.21875l-0.09375-0.09375 0.09374 0.09374 0.29688-0.26562q0.29688-0.26562 0.67188-0.14062t0.875 0.125h0.5v0.5q0 0.5-0.5 0.5t-0.5 0.5v0.5h-7v-0.5q0-0.5-0.5-0.5t-0.5-0.5"/>
   <path d="m6.25 12.5q0-0.25 0.375-0.375t0.875-0.125 1 0 1 0 0.875 0.125 0.375 0.375-0.375 0.375-0.875 0.125-1 0-1 0-0.875-0.125-0.375-0.375" fill="#fff"/>
  </g>
 </g>
</svg>
